<svg width="118" height="123" viewBox="0 0 118 123" fill="none" xmlns="http://www.w3.org/2000/svg">
<path d="M10.1101 10.3843C9.34225 11.0254 8.70234 11.6665 7.93445 12.4358C5.11886 15.2566 2.81518 18.5903 1.02344 22.1804L17.4051 38.5924L1.15142 55.0044C2.94316 58.5945 5.24684 61.9282 8.06243 64.8772C8.70234 65.5183 9.47023 66.2876 10.2381 66.9287L38.3941 38.7206L10.1101 10.3843Z" fill="white"/>
<path d="M96.2413 76.16H116.462V1.28027H81.5234V17.3076H96.2413V76.16Z" fill="white"/>
<path d="M38.1381 17.1813C49.4005 17.1813 57.9753 25.2591 57.9753 38.5938C57.9753 51.9286 49.2725 60.2628 38.1381 60.2628C34.6826 60.2628 31.611 59.4935 28.7954 57.9548L15.7413 71.0331C22.2683 75.1361 30.0752 77.4441 38.1381 77.4441C59.511 77.4441 79.0922 61.1603 79.0922 38.5938C79.0922 15.7709 59.511 0 38.1381 0C30.0752 0 22.2683 2.30794 15.6133 6.41093L28.7954 19.361C31.483 17.9506 34.6826 17.1813 38.1381 17.1813Z" fill="white"/>
<path d="M23.8046 105.779C22.7808 105.01 21.6289 104.369 20.2211 103.856C18.8133 103.343 17.1496 102.958 15.4858 102.574C14.4619 102.317 13.5661 102.061 12.9262 101.932C12.2862 101.676 11.6463 101.548 11.2624 101.291C10.8784 101.035 10.6225 100.778 10.3665 100.522C10.2385 100.266 10.1106 100.009 10.1106 99.6245V99.4963C10.1106 98.9834 10.3665 98.4706 10.8785 98.0859C11.3904 97.7012 12.1583 97.573 13.1821 97.573C14.5899 97.573 15.9977 97.8295 17.4055 98.3423C18.9413 98.8552 20.3491 99.6245 21.7569 100.65L25.9803 94.624C24.3165 93.2136 22.3968 92.1878 20.3491 91.5467C18.3014 90.9056 15.9977 90.521 13.3101 90.521C11.5184 90.521 9.8546 90.7774 8.31882 91.2903C6.91102 91.8032 5.6312 92.4443 4.60734 93.3418C3.58349 94.2393 2.8156 95.2651 2.17569 96.4191C1.66376 97.573 1.4078 98.9834 1.4078 100.394V100.522C1.4078 102.061 1.66376 103.471 2.30367 104.497C2.94358 105.523 3.71147 106.42 4.73533 107.189C5.75918 107.959 7.039 108.472 8.44679 108.984C9.85459 109.497 11.3904 109.882 13.0541 110.267C14.078 110.523 14.9739 110.78 15.6138 110.908C16.2537 111.164 16.7656 111.292 17.1496 111.549C17.5335 111.805 17.7895 112.062 17.9174 112.318C18.0454 112.575 18.1734 112.831 18.1734 113.216V113.344C18.1734 113.985 17.9174 114.498 17.2775 114.883C16.6376 115.267 15.7418 115.395 14.7179 115.395C11.1344 115.395 7.80689 114.113 4.73533 111.677L0 117.319C1.91973 118.986 4.09542 120.268 6.52707 121.165C8.95872 122.063 11.6463 122.447 14.334 122.447C16.2537 122.447 17.9174 122.191 19.4532 121.806C20.989 121.293 22.2688 120.652 23.4207 119.883C24.4445 118.986 25.3404 117.96 25.9803 116.678C26.6202 115.395 26.8762 113.985 26.8762 112.446V112.318C26.8762 110.908 26.6202 109.626 26.1083 108.6C25.5964 107.446 24.8285 106.548 23.8046 105.779Z" fill="white"/>
<path d="M41.4665 102.19L35.0674 90.9072H25.4688L37.1151 110.268V121.68H45.6899V110.012L57.3362 90.9072H47.8656L41.4665 102.19Z" fill="white"/>
<path d="M79.3472 107.191L66.6771 90.9072H58.7422V121.68H67.061V104.883L80.2431 121.68H87.6661V90.9072H79.3472V107.191Z" fill="white"/>
<path d="M111.729 110.781C111.217 111.293 110.833 111.806 110.321 112.319C109.809 112.832 109.298 113.217 108.786 113.473C108.274 113.858 107.634 114.114 106.994 114.243C106.354 114.371 105.586 114.499 104.818 114.499C103.794 114.499 102.77 114.243 101.875 113.858C100.979 113.473 100.211 112.832 99.5709 112.063C98.931 111.293 98.4191 110.396 98.0351 109.498C97.6512 108.473 97.5232 107.447 97.5232 106.293V106.165C97.5232 105.011 97.6512 103.985 98.0351 102.959C98.4191 101.934 98.931 101.036 99.5709 100.395C100.211 99.6256 100.979 99.1127 101.875 98.5998C102.77 98.2152 103.794 97.9587 104.818 97.9587C106.354 97.9587 107.634 98.3434 108.658 98.9845C109.681 99.6256 110.705 100.523 111.601 101.677L118 96.6766C117.36 95.779 116.592 94.8815 115.697 94.1122C114.801 93.3429 113.905 92.7018 112.753 92.0607C111.729 91.5478 110.449 91.0349 109.17 90.7785C107.89 90.5221 106.482 90.2656 104.818 90.2656C102.514 90.2656 100.339 90.6503 98.2911 91.5478C96.3713 92.3171 94.5796 93.4711 93.1718 95.0097C91.764 96.4201 90.6122 98.2152 89.8443 100.138C89.0764 102.062 88.5645 104.241 88.5645 106.421V106.549C88.5645 108.857 88.9484 110.909 89.8443 112.96C90.7401 114.884 91.764 116.55 93.1718 117.961C94.5796 119.371 96.2434 120.525 98.1631 121.295C100.083 122.064 102.131 122.449 104.306 122.449C105.97 122.449 107.506 122.32 108.914 121.936C110.321 121.551 111.473 121.038 112.625 120.525C113.777 119.884 114.673 119.115 115.569 118.346C116.464 117.448 117.232 116.55 118 115.525L111.729 110.781Z" fill="white"/>
</svg>
