<svg width="131" height="136" viewBox="0 0 131 136" fill="none" xmlns="http://www.w3.org/2000/svg">
<path d="M11.2285 11.5283C10.376 12.24 9.66557 12.9518 8.81308 13.8058C5.68726 16.9374 3.12978 20.6384 1.14062 24.6241L19.3272 42.8443L1.28271 61.0645C3.27186 65.0502 5.82935 68.7512 8.95516 72.0251C9.66557 72.7369 10.5181 73.5909 11.3706 74.3027L42.6287 42.9867L11.2285 11.5283Z" fill="#F39563"/>
<path d="M106.847 84.5511H129.296V1.42139H90.5078V19.2146H106.847V84.5511Z" fill="#09161E"/>
<path d="M42.3424 19.0743C54.8457 19.0743 64.3652 28.0421 64.3652 42.846C64.3652 57.6499 54.7036 66.9024 42.3424 66.9024C38.5062 66.9024 35.0962 66.0483 31.9704 64.3401L17.478 78.8594C24.7242 83.4144 33.3913 85.9767 42.3424 85.9767C66.0702 85.9767 87.8088 67.8988 87.8088 42.846C87.8088 17.5085 66.0702 0 42.3424 0C33.3913 0 24.7242 2.56222 17.3359 7.11727L31.9704 21.4942C34.9542 19.9284 38.5062 19.0743 42.3424 19.0743Z" fill="#09161E"/>
<path d="M26.4273 117.434C25.2907 116.58 24.0119 115.868 22.449 115.299C20.8861 114.729 19.039 114.302 17.192 113.875C16.0553 113.59 15.0607 113.306 14.3503 113.163C13.6399 112.879 12.9295 112.736 12.5033 112.452C12.077 112.167 11.7928 111.882 11.5087 111.598C11.3666 111.313 11.2245 111.028 11.2245 110.601V110.459C11.2245 109.889 11.5087 109.32 12.077 108.893C12.6453 108.466 13.4978 108.324 14.6345 108.324C16.1974 108.324 17.7603 108.608 19.3232 109.178C21.0282 109.747 22.5911 110.601 24.154 111.74L28.8427 105.05C26.9957 103.484 24.8644 102.345 22.5911 101.633C20.3178 100.922 17.7603 100.495 14.7766 100.495C12.7874 100.495 10.9403 100.779 9.23536 101.349C7.67245 101.918 6.25163 102.63 5.11497 103.626C3.97831 104.623 3.12581 105.761 2.4154 107.043C1.84707 108.324 1.56291 109.889 1.56291 111.455V111.598C1.56291 113.306 1.84707 114.872 2.55748 116.01C3.26789 117.149 4.12039 118.145 5.25705 119C6.39371 119.854 7.81453 120.423 9.37744 120.992C10.9403 121.562 12.6453 121.989 14.4924 122.416C15.6291 122.701 16.6236 122.985 17.3341 123.128C18.0445 123.412 18.6128 123.555 19.039 123.839C19.4653 124.124 19.7495 124.409 19.8915 124.693C20.0336 124.978 20.1757 125.263 20.1757 125.69V125.832C20.1757 126.544 19.8915 127.113 19.1811 127.54C18.4707 127.967 17.4761 128.11 16.3395 128.11C12.3612 128.11 8.66703 126.686 5.25705 123.982L0 130.245C2.13124 132.095 4.54664 133.519 7.2462 134.515C9.94577 135.512 12.9295 135.939 15.9132 135.939C18.0445 135.939 19.8915 135.654 21.5965 135.227C23.3015 134.658 24.7223 133.946 26.0011 133.092C27.1377 132.095 28.1323 130.957 28.8427 129.533C29.5531 128.11 29.8373 126.544 29.8373 124.836V124.693C29.8373 123.128 29.5532 121.704 28.9848 120.565C28.4165 119.284 27.564 118.288 26.4273 117.434Z" fill="#09161E"/>
<path d="M46.0337 113.45L38.9296 100.923H28.2734L41.2029 122.418V135.086H50.7225V122.133L63.652 100.923H53.1379L46.0337 113.45Z" fill="#09161E"/>
<path d="M88.094 119.001L74.0279 100.923H65.2188V135.086H74.4541V116.439L89.0886 135.086H97.3294V100.923H88.094V119.001Z" fill="#09161E"/>
<path d="M124.037 122.986C123.469 123.556 123.043 124.125 122.474 124.694C121.906 125.264 121.338 125.691 120.769 125.975C120.201 126.403 119.491 126.687 118.78 126.83C118.07 126.972 117.217 127.114 116.365 127.114C115.228 127.114 114.091 126.83 113.097 126.403C112.102 125.975 111.25 125.264 110.539 124.41C109.829 123.556 109.261 122.559 108.834 121.563C108.408 120.424 108.266 119.285 108.266 118.004V117.862C108.266 116.581 108.408 115.442 108.834 114.303C109.261 113.164 109.829 112.168 110.539 111.456C111.25 110.602 112.102 110.033 113.097 109.463C114.091 109.036 115.228 108.752 116.365 108.752C118.07 108.752 119.491 109.179 120.627 109.89C121.764 110.602 122.901 111.599 123.895 112.88L130.999 107.328C130.289 106.332 129.436 105.335 128.442 104.481C127.447 103.627 126.453 102.916 125.174 102.204C124.037 101.634 122.616 101.065 121.196 100.78C119.775 100.496 118.212 100.211 116.365 100.211C113.807 100.211 111.392 100.638 109.119 101.634C106.987 102.488 104.998 103.77 103.435 105.478C101.872 107.044 100.594 109.036 99.7411 111.172C98.8886 113.307 98.3203 115.727 98.3203 118.146V118.289C98.3203 120.851 98.7466 123.129 99.7411 125.406C100.736 127.541 101.872 129.392 103.435 130.958C104.998 132.523 106.845 133.804 108.976 134.659C111.108 135.513 113.381 135.94 115.796 135.94C117.644 135.94 119.349 135.797 120.911 135.37C122.474 134.943 123.753 134.374 125.032 133.804C126.311 133.093 127.305 132.239 128.3 131.385C129.294 130.388 130.147 129.392 130.999 128.253L124.037 122.986Z" fill="#09161E"/>
</svg>
