<?xml version="1.0" encoding="utf-8"?>
<!-- Generator: Adobe Illustrator 24.2.1, SVG Export Plug-In . SVG Version: 6.00 Build 0)  -->
<svg version="1.1" id="Layer_1" xmlns="http://www.w3.org/2000/svg" xmlns:xlink="http://www.w3.org/1999/xlink" x="0px" y="0px"
	 viewBox="0 0 348.8 182.2" style="enable-background:new 0 0 348.8 182.2;" xml:space="preserve">
<style type="text/css">
	.st0{fill:#231F20;}
	.st1{fill:#FFFFFF;}
</style>
<path class="st0" d="M348.8,0.1c0,96.3-78.1,174.4-174.4,174.4S0,96.4,0,0.1L348.8,0.1z"/>
<g>
	<path class="st1" d="M61,89.3l11.3-28.8h5.5L89,89.3h-6.3l-5.8-15.5c-0.2-0.5-0.4-1-0.6-1.7c-0.2-0.7-0.5-1.4-0.7-2.2
		c-0.2-0.8-0.5-1.5-0.7-2.2c-0.2-0.7-0.4-1.3-0.5-1.7l1.1,0c-0.2,0.6-0.3,1.2-0.6,1.9c-0.2,0.7-0.4,1.4-0.7,2.1
		c-0.2,0.7-0.5,1.4-0.7,2.1c-0.2,0.7-0.5,1.3-0.7,1.9l-5.8,15.4H61z M66.3,83.3l2.1-5h13.1l2.1,5H66.3z"/>
	<path class="st1" d="M101.6,89.7c-2.7,0-5-0.5-6.9-1.5c-1.9-1-3.5-2.4-4.9-4.3l3.9-4.4c1.3,1.9,2.7,3.1,4,3.8c1.3,0.7,2.8,1,4.3,1
		c0.8,0,1.6-0.1,2.3-0.4c0.7-0.2,1.2-0.6,1.6-1c0.4-0.4,0.6-0.9,0.6-1.5c0-0.4-0.1-0.8-0.3-1.2c-0.2-0.4-0.5-0.7-0.8-1
		c-0.4-0.3-0.8-0.5-1.3-0.8c-0.5-0.2-1-0.4-1.6-0.6c-0.6-0.2-1.3-0.3-2-0.5c-1.5-0.3-2.9-0.8-4-1.3c-1.2-0.5-2.1-1.2-2.9-1.9
		c-0.8-0.7-1.3-1.6-1.7-2.6s-0.6-2.1-0.6-3.3c0-1.7,0.5-3.2,1.4-4.5c1-1.3,2.2-2.3,3.8-3c1.6-0.7,3.3-1.1,5.3-1.1
		c2.6,0,4.7,0.4,6.4,1.3c1.7,0.9,3,2.1,4,3.7l-3.9,3.9c-0.8-1.2-1.8-2.1-2.9-2.7c-1.1-0.6-2.3-0.9-3.5-0.9c-0.9,0-1.7,0.1-2.3,0.3
		c-0.7,0.2-1.2,0.6-1.5,1c-0.4,0.5-0.5,1-0.5,1.6c0,0.5,0.1,0.9,0.4,1.3c0.2,0.4,0.6,0.7,1,1c0.5,0.3,1,0.5,1.7,0.8
		c0.7,0.2,1.4,0.4,2.2,0.5c1.5,0.3,2.9,0.7,4.1,1.2c1.2,0.5,2.2,1.1,3.1,1.8c0.9,0.7,1.5,1.5,2,2.5c0.5,0.9,0.7,2,0.7,3.1
		c0,1.9-0.5,3.6-1.4,5c-0.9,1.4-2.2,2.4-3.9,3.2C105.7,89.4,103.8,89.7,101.6,89.7z"/>
	<path class="st1" d="M129.2,89.6c-2.3,0-4.4-0.5-6.2-1.5c-1.8-1-3.3-2.3-4.3-4c-1-1.7-1.6-3.7-1.6-5.8V60.5h6.2v17.4
		c0,1.2,0.3,2.2,0.8,3.1c0.5,0.9,1.3,1.7,2.2,2.2c0.9,0.5,1.9,0.8,3,0.8c1.1,0,2.1-0.3,3.1-0.8c0.9-0.5,1.6-1.3,2.2-2.2
		s0.8-2,0.8-3.1V60.5h6v17.8c0,2.2-0.5,4.1-1.5,5.8c-1,1.7-2.4,3.1-4.3,4C133.6,89.1,131.5,89.6,129.2,89.6z"/>
	<path class="st1" d="M147.6,89.3V60.6h5.5l15.9,21.5H168c-0.2-1.4-0.4-2.8-0.5-4.2c-0.1-1.4-0.2-2.9-0.3-4.4c0-1.6-0.1-3.3-0.1-5.2
		v-7.7h6v28.8h-5.6l-16.2-21.7h1.5c0.2,1.8,0.3,3.3,0.5,4.5s0.2,2.2,0.2,2.9c0.1,0.8,0.1,1.5,0.1,2.1s0,1.2,0,1.9v10.3H147.6z"/>
	<path class="st1" d="M192.4,89.7c-2.1,0-4-0.4-5.8-1.1c-1.8-0.7-3.3-1.8-4.6-3.1c-1.3-1.3-2.3-2.9-3-4.7c-0.7-1.8-1-3.8-1-6
		c0-2.1,0.4-4.1,1.1-5.9c0.7-1.8,1.8-3.4,3.1-4.7c1.3-1.3,2.9-2.4,4.7-3.1s3.7-1.1,5.9-1.1c1.4,0,2.7,0.2,4,0.6
		c1.3,0.4,2.5,0.9,3.7,1.6c1.1,0.7,2.1,1.6,2.9,2.5l-3.9,4.3c-1-1-2-1.8-3.1-2.4c-1.1-0.5-2.3-0.8-3.6-0.8c-1.2,0-2.3,0.2-3.3,0.6
		c-1,0.4-1.9,1-2.7,1.8c-0.8,0.8-1.4,1.7-1.8,2.8s-0.7,2.3-0.7,3.7c0,1.4,0.2,2.6,0.6,3.7s1,2.1,1.8,2.8c0.8,0.8,1.7,1.4,2.9,1.8
		c1.1,0.4,2.3,0.6,3.7,0.6c0.9,0,1.7-0.1,2.5-0.4c0.8-0.2,1.6-0.6,2.3-1s1.3-0.9,1.9-1.5l3,4.8c-0.6,0.7-1.5,1.4-2.6,2
		c-1.1,0.6-2.4,1.1-3.7,1.4C195.2,89.6,193.8,89.7,192.4,89.7z"/>
	<path class="st1" d="M206.5,89.3V84h4.8V65.9h-4.8v-5.3h15.7v5.3h-4.8V84h4.8v5.3H206.5z"/>
	<path class="st1" d="M240.3,89.7c-2.1,0-4.1-0.4-5.9-1.1c-1.8-0.7-3.3-1.8-4.6-3.1c-1.3-1.3-2.3-2.9-3-4.7c-0.7-1.8-1.1-3.8-1.1-6
		c0-2.1,0.4-4.1,1.1-5.9c0.7-1.8,1.7-3.4,3-4.7c1.3-1.3,2.8-2.4,4.6-3.1c1.8-0.7,3.7-1.1,5.9-1.1c2.1,0,4,0.4,5.8,1.1
		c1.8,0.7,3.3,1.8,4.6,3.1c1.3,1.3,2.3,2.9,3.1,4.7c0.7,1.8,1.1,3.8,1.1,5.9c0,2.1-0.4,4.1-1.1,5.9c-0.7,1.8-1.7,3.4-3.1,4.7
		c-1.3,1.3-2.9,2.4-4.6,3.1C244.4,89.4,242.4,89.7,240.3,89.7z M240.3,83.9c1.2,0,2.3-0.2,3.3-0.7s1.9-1.1,2.7-1.9
		c0.8-0.8,1.3-1.8,1.7-2.9s0.6-2.3,0.6-3.6c0-1.3-0.2-2.5-0.6-3.6s-1-2.1-1.7-2.9s-1.6-1.5-2.7-1.9s-2.1-0.7-3.3-0.7
		c-1.2,0-2.3,0.2-3.3,0.7s-1.9,1.1-2.7,1.9c-0.8,0.8-1.3,1.8-1.7,2.9c-0.4,1.1-0.6,2.3-0.6,3.6c0,1.7,0.4,3.3,1.1,4.6
		c0.7,1.4,1.7,2.4,3,3.2C237.2,83.5,238.7,83.9,240.3,83.9z M236.9,58.5l-1.4-2.9l8.2-4.7l2.1,4.5L236.9,58.5z"/>
	<path class="st1" d="M259.7,89.3V60.6h5.5l15.9,21.5H280c-0.2-1.4-0.4-2.8-0.5-4.2c-0.1-1.4-0.2-2.9-0.3-4.4c0-1.6-0.1-3.3-0.1-5.2
		v-7.7h6v28.8h-5.6l-16.2-21.7h1.5c0.2,1.8,0.3,3.3,0.5,4.5s0.2,2.2,0.2,2.9c0.1,0.8,0.1,1.5,0.1,2.1s0,1.2,0,1.9v10.3H259.7z"/>
</g>
</svg>
