<?xml version="1.0" encoding="utf-8"?>
<!-- Generator: Adobe Illustrator 24.2.1, SVG Export Plug-In . SVG Version: 6.00 Build 0)  -->
<svg version="1.1" id="Layer_1" xmlns="http://www.w3.org/2000/svg" xmlns:xlink="http://www.w3.org/1999/xlink" x="0px" y="0px"
	 viewBox="0 0 315.4 42" style="enable-background:new 0 0 315.4 42;" xml:space="preserve">
<style type="text/css">
	.st0{display:none;}
	.st1{display:inline;fill:#FFFFFF;}
	.st2{display:inline;}
	.st3{fill:#B6D46C;}
	.st4{fill:#FFFFFF;}
	.st5{display:inline;fill:#B6D46C;}
	.st6{font-family:'ReadexPro-SemiBold';}
	.st7{font-size:24px;}
</style>
<g class="st0">
	<path class="st1" d="M0,41.4h223.4c22.9,0,41.4-18.5,41.4-41.4v0L0,0L0,41.4z"/>
	<g class="st2">
		<path class="st3" d="M29.2,29.6c-1.6,0-2.9-0.3-4-0.9c-1.1-0.6-2.1-1.4-2.9-2.5l2.3-2.5c0.8,1.1,1.6,1.8,2.3,2.2
			c0.8,0.4,1.6,0.6,2.5,0.6c0.5,0,0.9-0.1,1.3-0.2c0.4-0.1,0.7-0.3,0.9-0.6c0.2-0.3,0.3-0.6,0.3-0.9c0-0.3-0.1-0.5-0.2-0.7
			c-0.1-0.2-0.3-0.4-0.5-0.6s-0.5-0.3-0.7-0.5c-0.3-0.1-0.6-0.3-1-0.3s-0.7-0.2-1.2-0.3c-0.9-0.2-1.7-0.4-2.4-0.7S25,21,24.5,20.6
			c-0.4-0.4-0.8-0.9-1-1.5c-0.2-0.6-0.3-1.2-0.3-1.9c0-1,0.3-1.9,0.8-2.6c0.6-0.7,1.3-1.3,2.2-1.8c0.9-0.4,2-0.6,3.1-0.6
			c1.5,0,2.8,0.3,3.8,0.8c1,0.5,1.8,1.2,2.4,2.2l-2.3,2.3c-0.5-0.7-1.1-1.2-1.7-1.6c-0.6-0.4-1.3-0.5-2.1-0.5c-0.5,0-1,0.1-1.4,0.2
			s-0.7,0.3-0.9,0.6c-0.2,0.3-0.3,0.6-0.3,0.9c0,0.3,0.1,0.5,0.2,0.8c0.1,0.2,0.3,0.4,0.6,0.6s0.6,0.3,1,0.4
			c0.4,0.1,0.8,0.2,1.3,0.3c0.9,0.2,1.7,0.4,2.4,0.7c0.7,0.3,1.3,0.7,1.8,1.1c0.5,0.4,0.9,0.9,1.2,1.4c0.3,0.5,0.4,1.2,0.4,1.8
			c0,1.1-0.3,2.1-0.8,2.9s-1.3,1.4-2.3,1.8C31.6,29.4,30.5,29.6,29.2,29.6z"/>
		<path class="st3" d="M41.5,29.6c-0.8,0-1.5-0.2-2.2-0.5c-0.6-0.3-1.2-0.8-1.5-1.3c-0.4-0.6-0.6-1.2-0.6-2c0-0.7,0.1-1.2,0.4-1.7
			c0.2-0.5,0.6-0.9,1.1-1.2c0.5-0.3,1.1-0.6,1.8-0.8c0.7-0.2,1.5-0.3,2.5-0.3h3.7L46.5,24h-3.6c-0.4,0-0.7,0-1,0.1
			c-0.3,0.1-0.5,0.2-0.7,0.3c-0.2,0.1-0.4,0.3-0.5,0.5c-0.1,0.2-0.2,0.4-0.2,0.7c0,0.3,0.1,0.5,0.2,0.7s0.3,0.4,0.6,0.5
			c0.2,0.1,0.5,0.2,0.9,0.2c0.5,0,0.9-0.1,1.3-0.2s0.8-0.4,1.1-0.7s0.6-0.6,0.8-1l0.6,1.7c-0.3,0.5-0.7,1-1.2,1.4s-1,0.7-1.6,1
			C42.7,29.5,42.1,29.6,41.5,29.6z M45,29.3v-7.9c0-0.7-0.2-1.2-0.6-1.5c-0.4-0.4-1-0.5-1.6-0.5c-0.7,0-1.2,0.1-1.8,0.4
			c-0.5,0.3-1,0.7-1.4,1.2l-2.1-2c0.8-0.8,1.6-1.4,2.6-1.8c1-0.4,2-0.6,3.1-0.6c1,0,1.9,0.2,2.7,0.5c0.8,0.3,1.3,0.8,1.8,1.4
			c0.4,0.6,0.6,1.4,0.6,2.4v8.6H45z"/>
		<path class="st3" d="M50.8,29.3V16.7h3.3l0.1,2.6l-0.7,0.3c0.2-0.6,0.5-1.1,0.9-1.6c0.5-0.5,1-0.9,1.7-1.1s1.3-0.4,2-0.4
			c1,0,1.8,0.2,2.4,0.6s1.1,1,1.5,1.7c0.3,0.8,0.5,1.7,0.5,2.9v7.8h-3.4v-7.5c0-0.6-0.1-1.1-0.2-1.4c-0.2-0.4-0.4-0.7-0.7-0.8
			c-0.3-0.2-0.7-0.3-1.2-0.2c-0.4,0-0.7,0.1-1.1,0.2c-0.3,0.1-0.6,0.3-0.9,0.5c-0.2,0.2-0.4,0.5-0.6,0.8c-0.1,0.3-0.2,0.6-0.2,1v7.6
			h-1.7c-0.4,0-0.7,0-1,0C51.3,29.3,51,29.3,50.8,29.3z"/>
		<path class="st3" d="M68.8,29.6c-0.8,0-1.5-0.2-2.2-0.5c-0.6-0.3-1.2-0.8-1.5-1.3c-0.4-0.6-0.6-1.2-0.6-2c0-0.7,0.1-1.2,0.4-1.7
			c0.2-0.5,0.6-0.9,1.1-1.2c0.5-0.3,1.1-0.6,1.8-0.8c0.7-0.2,1.5-0.3,2.5-0.3H74L73.7,24h-3.6c-0.4,0-0.7,0-1,0.1
			c-0.3,0.1-0.5,0.2-0.7,0.3c-0.2,0.1-0.4,0.3-0.5,0.5c-0.1,0.2-0.2,0.4-0.2,0.7c0,0.3,0.1,0.5,0.2,0.7s0.3,0.4,0.6,0.5
			c0.2,0.1,0.5,0.2,0.9,0.2c0.5,0,0.9-0.1,1.3-0.2s0.8-0.4,1.1-0.7s0.6-0.6,0.8-1l0.6,1.7c-0.3,0.5-0.7,1-1.2,1.4s-1,0.7-1.6,1
			C70,29.5,69.4,29.6,68.8,29.6z M72.3,29.3v-7.9c0-0.7-0.2-1.2-0.6-1.5c-0.4-0.4-1-0.5-1.6-0.5c-0.7,0-1.2,0.1-1.8,0.4
			c-0.5,0.3-1,0.7-1.4,1.2l-2.1-2c0.8-0.8,1.6-1.4,2.6-1.8c1-0.4,2-0.6,3.1-0.6c1,0,1.9,0.2,2.7,0.5c0.8,0.3,1.3,0.8,1.8,1.4
			c0.4,0.6,0.6,1.4,0.6,2.4v8.6H72.3z"/>
		<path class="st3" d="M76.9,19.7v-3h8.4v3H76.9z M79.3,29.3V13.4h3.4v15.9H79.3z"/>
		<path class="st3" d="M92.8,29.6c-1.3,0-2.4-0.3-3.5-0.9c-1-0.6-1.8-1.3-2.4-2.3c-0.6-1-0.9-2.1-0.9-3.4c0-1.3,0.3-2.4,0.9-3.4
			c0.6-1,1.4-1.8,2.4-2.4c1-0.6,2.2-0.9,3.5-0.9s2.4,0.3,3.5,0.9c1,0.6,1.8,1.4,2.4,2.4c0.6,1,0.9,2.1,0.9,3.4
			c0,1.3-0.3,2.4-0.9,3.4c-0.6,1-1.4,1.8-2.4,2.3C95.3,29.3,94.1,29.6,92.8,29.6z M92.8,26.6c0.6,0,1.2-0.2,1.7-0.5
			c0.5-0.3,0.9-0.8,1.2-1.3c0.3-0.5,0.4-1.2,0.4-1.8c0-0.7-0.1-1.4-0.4-1.9c-0.3-0.6-0.7-1-1.2-1.3c-0.5-0.3-1.1-0.5-1.7-0.5
			s-1.2,0.2-1.7,0.5c-0.5,0.3-0.9,0.8-1.2,1.3c-0.3,0.5-0.4,1.2-0.4,1.9c0,0.7,0.1,1.3,0.4,1.8s0.7,1,1.2,1.3
			C91.6,26.5,92.2,26.6,92.8,26.6z"/>
		<path class="st3" d="M101.6,29.3V16.7h3.3l0.1,4.1l-0.6-0.9c0.2-0.6,0.5-1.2,0.9-1.8c0.4-0.5,0.9-0.9,1.5-1.3
			c0.6-0.3,1.2-0.5,1.8-0.5c0.3,0,0.6,0,0.8,0.1c0.2,0,0.5,0.1,0.6,0.2l-0.9,3.7c-0.2-0.1-0.4-0.2-0.7-0.2c-0.3-0.1-0.6-0.1-0.9-0.1
			c-0.4,0-0.7,0.1-1,0.2s-0.6,0.3-0.9,0.6s-0.4,0.5-0.6,0.9s-0.2,0.7-0.2,1.1v6.6H101.6z"/>
		<path class="st3" d="M113.6,14c-0.7,0-1.2-0.2-1.5-0.5c-0.4-0.3-0.6-0.8-0.6-1.4c0-0.5,0.2-1,0.6-1.3c0.4-0.3,0.9-0.5,1.5-0.5
			c0.6,0,1.1,0.2,1.5,0.5c0.4,0.3,0.6,0.8,0.6,1.4c0,0.6-0.2,1-0.6,1.3C114.8,13.9,114.3,14,113.6,14z M112,29.3V16.7h3.4v12.7H112z
			"/>
		<path class="st3" d="M124.4,29.6c-1.3,0-2.4-0.3-3.5-0.9c-1-0.6-1.8-1.3-2.4-2.3c-0.6-1-0.9-2.1-0.9-3.4c0-1.3,0.3-2.4,0.9-3.4
			c0.6-1,1.4-1.8,2.4-2.4c1-0.6,2.2-0.9,3.5-0.9s2.4,0.3,3.5,0.9c1,0.6,1.8,1.4,2.4,2.4c0.6,1,0.9,2.1,0.9,3.4
			c0,1.3-0.3,2.4-0.9,3.4c-0.6,1-1.4,1.8-2.4,2.3C126.9,29.3,125.7,29.6,124.4,29.6z M124.4,26.6c0.6,0,1.2-0.2,1.7-0.5
			c0.5-0.3,0.9-0.8,1.2-1.3c0.3-0.5,0.4-1.2,0.4-1.8c0-0.7-0.1-1.4-0.4-1.9c-0.3-0.6-0.7-1-1.2-1.3c-0.5-0.3-1.1-0.5-1.7-0.5
			s-1.2,0.2-1.7,0.5c-0.5,0.3-0.9,0.8-1.2,1.3c-0.3,0.5-0.4,1.2-0.4,1.9c0,0.7,0.1,1.3,0.4,1.8s0.7,1,1.2,1.3
			C123.2,26.5,123.8,26.6,124.4,26.6z"/>
		<path class="st3" d="M140.6,29.3V12.5h3.6v13.6h7.6v3.2H140.6z"/>
		<path class="st3" d="M157.2,29.6c-0.8,0-1.5-0.2-2.2-0.5c-0.6-0.3-1.2-0.8-1.5-1.3c-0.4-0.6-0.6-1.2-0.6-2c0-0.7,0.1-1.2,0.4-1.7
			c0.2-0.5,0.6-0.9,1.1-1.2c0.5-0.3,1.1-0.6,1.8-0.8c0.7-0.2,1.5-0.3,2.5-0.3h3.7l-0.2,2.3h-3.6c-0.4,0-0.7,0-1,0.1
			c-0.3,0.1-0.5,0.2-0.7,0.3c-0.2,0.1-0.4,0.3-0.5,0.5c-0.1,0.2-0.2,0.4-0.2,0.7c0,0.3,0.1,0.5,0.2,0.7s0.3,0.4,0.6,0.5
			c0.2,0.1,0.5,0.2,0.9,0.2c0.5,0,0.9-0.1,1.3-0.2s0.8-0.4,1.1-0.7s0.6-0.6,0.8-1l0.6,1.7c-0.3,0.5-0.7,1-1.2,1.4s-1,0.7-1.6,1
			C158.5,29.5,157.9,29.6,157.2,29.6z M160.7,29.3v-7.9c0-0.7-0.2-1.2-0.6-1.5c-0.4-0.4-1-0.5-1.6-0.5c-0.7,0-1.2,0.1-1.8,0.4
			c-0.5,0.3-1,0.7-1.4,1.2l-2.1-2c0.8-0.8,1.6-1.4,2.6-1.8c1-0.4,2-0.6,3.1-0.6c1,0,1.9,0.2,2.7,0.5c0.8,0.3,1.3,0.8,1.8,1.4
			c0.4,0.6,0.6,1.4,0.6,2.4v8.6H160.7z"/>
		<path class="st3" d="M181.2,29.6c-1.2,0-2.4-0.2-3.4-0.6c-1-0.4-1.9-1-2.7-1.8c-0.8-0.8-1.3-1.7-1.8-2.7c-0.4-1.1-0.6-2.2-0.6-3.5
			c0-1.2,0.2-2.4,0.6-3.4c0.4-1,1-2,1.8-2.7c0.8-0.8,1.7-1.4,2.7-1.8c1-0.4,2.2-0.6,3.4-0.6c0.8,0,1.6,0.1,2.4,0.3
			c0.8,0.2,1.5,0.5,2.1,1c0.6,0.4,1.2,0.9,1.7,1.5l-2.3,2.5c-0.6-0.6-1.2-1.1-1.8-1.4c-0.7-0.3-1.4-0.5-2.1-0.5
			c-0.7,0-1.3,0.1-1.9,0.4c-0.6,0.2-1.1,0.6-1.6,1.1c-0.4,0.5-0.8,1-1.1,1.7c-0.3,0.6-0.4,1.4-0.4,2.1c0,0.8,0.1,1.5,0.4,2.2
			s0.6,1.2,1.1,1.7c0.5,0.5,1,0.8,1.7,1.1c0.6,0.2,1.4,0.4,2.1,0.4c0.5,0,1-0.1,1.5-0.2c0.5-0.1,0.9-0.3,1.3-0.6
			c0.4-0.3,0.8-0.6,1.1-0.9l1.8,2.8c-0.4,0.4-0.9,0.8-1.5,1.2c-0.7,0.4-1.4,0.6-2.2,0.8C182.8,29.5,182,29.6,181.2,29.6z"/>
		<path class="st3" d="M195.3,29.6c-1.3,0-2.4-0.3-3.5-0.9c-1-0.6-1.8-1.3-2.4-2.3c-0.6-1-0.9-2.1-0.9-3.4c0-1.3,0.3-2.4,0.9-3.4
			c0.6-1,1.4-1.8,2.4-2.4c1-0.6,2.2-0.9,3.5-0.9s2.4,0.3,3.5,0.9c1,0.6,1.8,1.4,2.4,2.4s0.9,2.1,0.9,3.4c0,1.3-0.3,2.4-0.9,3.4
			s-1.4,1.8-2.4,2.3C197.8,29.3,196.6,29.6,195.3,29.6z M195.3,26.6c0.6,0,1.2-0.2,1.7-0.5c0.5-0.3,0.9-0.8,1.2-1.3s0.4-1.2,0.4-1.8
			c0-0.7-0.1-1.4-0.4-1.9s-0.7-1-1.2-1.3c-0.5-0.3-1.1-0.5-1.7-0.5s-1.2,0.2-1.7,0.5c-0.5,0.3-0.9,0.8-1.2,1.3
			c-0.3,0.5-0.4,1.2-0.4,1.9c0,0.7,0.1,1.3,0.4,1.8s0.7,1,1.2,1.3C194.1,26.5,194.7,26.6,195.3,26.6z"/>
		<path class="st3" d="M208.4,29.6c-1.2,0-2.2-0.2-3.1-0.6s-1.7-0.9-2.2-1.6l2.1-1.8c0.5,0.5,1,0.9,1.6,1.1c0.6,0.2,1.2,0.3,1.8,0.3
			c0.2,0,0.4,0,0.6-0.1c0.2-0.1,0.4-0.1,0.5-0.2c0.1-0.1,0.3-0.2,0.3-0.4s0.1-0.3,0.1-0.5c0-0.4-0.1-0.6-0.4-0.8
			c-0.1-0.1-0.4-0.2-0.7-0.3c-0.3-0.1-0.8-0.3-1.3-0.4c-0.8-0.2-1.5-0.5-2.1-0.7c-0.6-0.3-1-0.6-1.4-1c-0.3-0.3-0.5-0.7-0.7-1.1
			c-0.2-0.4-0.2-0.8-0.2-1.3c0-0.8,0.2-1.4,0.7-2s1-1,1.8-1.3c0.7-0.3,1.6-0.5,2.4-0.5c0.7,0,1.3,0.1,1.9,0.2
			c0.6,0.2,1.2,0.4,1.7,0.7s1,0.6,1.4,1l-1.8,2c-0.3-0.3-0.6-0.5-1-0.8s-0.7-0.4-1.1-0.5c-0.4-0.1-0.7-0.2-1-0.2
			c-0.3,0-0.5,0-0.7,0.1s-0.4,0.1-0.5,0.2c-0.1,0.1-0.3,0.2-0.3,0.4c-0.1,0.1-0.1,0.3-0.1,0.5c0,0.2,0,0.3,0.1,0.5s0.2,0.3,0.4,0.4
			c0.2,0.1,0.4,0.2,0.8,0.3c0.4,0.1,0.8,0.3,1.4,0.4c0.8,0.2,1.4,0.4,1.9,0.7s1,0.6,1.3,0.9c0.3,0.3,0.5,0.6,0.6,1
			c0.1,0.4,0.2,0.8,0.2,1.2c0,0.8-0.2,1.5-0.7,2.1c-0.4,0.6-1,1.1-1.8,1.4C210.2,29.4,209.3,29.6,208.4,29.6z"/>
		<path class="st3" d="M214.2,19.7v-3h8.4v3H214.2z M216.6,29.3V13.4h3.4v15.9H216.6z"/>
		<path class="st3" d="M227.8,29.6c-0.8,0-1.5-0.2-2.2-0.5c-0.6-0.3-1.2-0.8-1.5-1.3c-0.4-0.6-0.6-1.2-0.6-2c0-0.7,0.1-1.2,0.4-1.7
			c0.2-0.5,0.6-0.9,1.1-1.2c0.5-0.3,1.1-0.6,1.8-0.8c0.7-0.2,1.5-0.3,2.5-0.3h3.7l-0.2,2.3h-3.6c-0.4,0-0.7,0-1,0.1
			c-0.3,0.1-0.5,0.2-0.7,0.3c-0.2,0.1-0.4,0.3-0.5,0.5c-0.1,0.2-0.2,0.4-0.2,0.7c0,0.3,0.1,0.5,0.2,0.7c0.1,0.2,0.3,0.4,0.6,0.5
			c0.2,0.1,0.5,0.2,0.9,0.2c0.5,0,0.9-0.1,1.3-0.2c0.4-0.2,0.8-0.4,1.1-0.7s0.6-0.6,0.8-1l0.6,1.7c-0.3,0.5-0.7,1-1.2,1.4
			c-0.5,0.4-1,0.7-1.6,1C229,29.5,228.4,29.6,227.8,29.6z M231.3,29.3v-7.9c0-0.7-0.2-1.2-0.6-1.5c-0.4-0.4-1-0.5-1.6-0.5
			c-0.7,0-1.2,0.1-1.8,0.4c-0.5,0.3-1,0.7-1.4,1.2l-2.1-2c0.8-0.8,1.6-1.4,2.6-1.8c1-0.4,2-0.6,3.1-0.6c1,0,1.9,0.2,2.7,0.5
			c0.8,0.3,1.3,0.8,1.8,1.4c0.4,0.6,0.6,1.4,0.6,2.4v8.6H231.3z"/>
	</g>
</g>
<g class="st0">
	<path class="st1" d="M334.6,41.4H41.4C18.5,41.4,0,22.9,0,0v0l334.6,0V41.4z"/>
	<g class="st2">
		<path class="st3" d="M40.8,29.6c-1.3,0-2.6-0.2-3.7-0.7s-2.1-1.1-2.9-2s-1.5-1.8-1.9-3c-0.4-1.1-0.7-2.4-0.7-3.8
			c0-1.3,0.2-2.6,0.7-3.7c0.5-1.1,1.1-2.1,2-3c0.8-0.8,1.8-1.5,3-2c1.1-0.5,2.4-0.7,3.7-0.7c0.9,0,1.7,0.1,2.6,0.4
			c0.8,0.2,1.6,0.6,2.3,1c0.7,0.5,1.3,1,1.8,1.6l-2.4,2.7c-0.6-0.7-1.3-1.2-2-1.5c-0.7-0.3-1.5-0.5-2.3-0.5c-0.7,0-1.4,0.1-2.1,0.4
			s-1.2,0.7-1.7,1.2c-0.5,0.5-0.9,1.1-1.1,1.8c-0.3,0.7-0.4,1.5-0.4,2.3c0,0.9,0.1,1.7,0.4,2.4c0.3,0.7,0.7,1.3,1.2,1.8
			c0.5,0.5,1.1,0.9,1.8,1.1c0.7,0.3,1.5,0.4,2.3,0.4c0.6,0,1.1-0.1,1.6-0.2s1-0.4,1.4-0.7c0.5-0.3,0.8-0.6,1.2-1l1.9,3
			c-0.4,0.5-1,0.9-1.7,1.3c-0.7,0.4-1.5,0.7-2.4,0.9C42.6,29.5,41.7,29.6,40.8,29.6z"/>
		<path class="st3" d="M56.1,29.6c-1.4,0-2.7-0.3-3.7-0.9c-1.1-0.6-2-1.5-2.6-2.5c-0.6-1.1-0.9-2.3-0.9-3.7c0-1.4,0.3-2.6,0.9-3.7
			c0.6-1.1,1.5-1.9,2.6-2.5c1.1-0.6,2.3-0.9,3.7-0.9c1.4,0,2.7,0.3,3.7,0.9c1.1,0.6,2,1.5,2.6,2.5c0.6,1.1,0.9,2.3,0.9,3.7
			c0,1.4-0.3,2.6-0.9,3.7c-0.6,1.1-1.5,1.9-2.6,2.5S57.5,29.6,56.1,29.6z M56.1,26.4c0.7,0,1.3-0.2,1.8-0.5c0.5-0.3,1-0.8,1.3-1.4
			c0.3-0.6,0.4-1.3,0.4-2c0-0.8-0.1-1.5-0.4-2.1c-0.3-0.6-0.7-1.1-1.3-1.4c-0.5-0.3-1.1-0.5-1.8-0.5c-0.7,0-1.3,0.2-1.8,0.5
			c-0.5,0.3-1,0.8-1.3,1.4c-0.3,0.6-0.4,1.3-0.4,2.1c0,0.7,0.1,1.4,0.4,2c0.3,0.6,0.7,1.1,1.3,1.4C54.8,26.2,55.4,26.4,56.1,26.4z"
			/>
		<path class="st3" d="M70.2,29.6c-1.3,0-2.4-0.2-3.4-0.6c-1-0.4-1.8-1-2.4-1.8l2.3-2c0.5,0.6,1.1,1,1.8,1.2c0.6,0.3,1.3,0.4,2,0.4
			c0.2,0,0.5,0,0.7-0.1s0.4-0.1,0.5-0.3c0.2-0.1,0.3-0.2,0.4-0.4c0.1-0.2,0.1-0.3,0.1-0.5c0-0.4-0.2-0.7-0.5-0.9
			c-0.1-0.1-0.4-0.2-0.8-0.4c-0.4-0.1-0.8-0.3-1.4-0.4c-0.9-0.2-1.6-0.5-2.2-0.8c-0.6-0.3-1.1-0.7-1.5-1.1c-0.3-0.3-0.6-0.7-0.7-1.1
			c-0.2-0.4-0.2-0.9-0.2-1.4c0-0.8,0.2-1.6,0.7-2.2s1.1-1.1,1.9-1.5c0.8-0.3,1.7-0.5,2.6-0.5c0.7,0,1.4,0.1,2.1,0.3
			c0.7,0.2,1.3,0.4,1.9,0.7c0.6,0.3,1.1,0.7,1.5,1.1l-2,2.2c-0.3-0.3-0.7-0.6-1.1-0.8c-0.4-0.2-0.8-0.4-1.2-0.6
			C71,18.1,70.6,18,70.3,18c-0.3,0-0.6,0-0.8,0.1c-0.2,0.1-0.4,0.1-0.6,0.2c-0.2,0.1-0.3,0.2-0.4,0.4c-0.1,0.2-0.1,0.3-0.1,0.5
			c0,0.2,0,0.4,0.1,0.5c0.1,0.2,0.2,0.3,0.4,0.5c0.2,0.1,0.5,0.2,0.8,0.4c0.4,0.1,0.9,0.3,1.5,0.5c0.8,0.2,1.5,0.5,2.1,0.8
			c0.6,0.3,1,0.6,1.4,1c0.3,0.3,0.5,0.7,0.7,1.1c0.1,0.4,0.2,0.8,0.2,1.3c0,0.8-0.2,1.6-0.7,2.3c-0.5,0.7-1.1,1.2-2,1.6
			C72.2,29.4,71.3,29.6,70.2,29.6z"/>
		<path class="st3" d="M76.6,18.9v-3.3h9.1v3.3H76.6z M79.2,29.3V12.1h3.7v17.2H79.2z"/>
		<path class="st3" d="M91.3,29.6c-0.9,0-1.7-0.2-2.4-0.5c-0.7-0.3-1.3-0.8-1.7-1.4s-0.6-1.3-0.6-2.2c0-0.7,0.1-1.3,0.4-1.9
			c0.3-0.5,0.6-1,1.2-1.4c0.5-0.4,1.2-0.6,1.9-0.8c0.8-0.2,1.7-0.3,2.7-0.3h4.1l-0.2,2.5h-3.9c-0.4,0-0.8,0-1.1,0.1
			s-0.6,0.2-0.8,0.3c-0.2,0.2-0.4,0.3-0.5,0.5c-0.1,0.2-0.2,0.5-0.2,0.7c0,0.3,0.1,0.6,0.2,0.8c0.2,0.2,0.4,0.4,0.6,0.5
			c0.3,0.1,0.6,0.2,0.9,0.2c0.5,0,1-0.1,1.4-0.3c0.5-0.2,0.9-0.4,1.2-0.7c0.4-0.3,0.6-0.7,0.9-1.1l0.7,1.8c-0.4,0.6-0.8,1.1-1.3,1.6
			c-0.5,0.5-1.1,0.8-1.7,1.1C92.6,29.5,92,29.6,91.3,29.6z M95,29.3v-8.6c0-0.7-0.2-1.3-0.7-1.7c-0.4-0.4-1-0.6-1.8-0.6
			c-0.7,0-1.3,0.1-1.9,0.4c-0.6,0.3-1.1,0.7-1.6,1.3L86.9,18c0.8-0.9,1.8-1.5,2.8-2c1-0.5,2.2-0.7,3.4-0.7c1.1,0,2.1,0.2,2.9,0.5
			c0.8,0.3,1.5,0.9,1.9,1.6s0.7,1.6,0.7,2.6v9.3H95z"/>
		<path class="st3" d="M101.3,29.3V15.6h3.6l0.1,2.8l-0.7,0.3c0.2-0.6,0.5-1.2,1-1.7c0.5-0.5,1.1-0.9,1.8-1.2
			c0.7-0.3,1.4-0.5,2.2-0.5c1,0,1.9,0.2,2.6,0.6c0.7,0.4,1.2,1,1.6,1.9c0.4,0.8,0.5,1.9,0.5,3.1v8.4h-3.7v-8.1
			c0-0.6-0.1-1.1-0.3-1.6s-0.4-0.7-0.8-0.9c-0.3-0.2-0.8-0.3-1.3-0.3c-0.4,0-0.8,0.1-1.1,0.2s-0.7,0.3-0.9,0.6
			c-0.3,0.2-0.5,0.5-0.6,0.8c-0.1,0.3-0.2,0.7-0.2,1v8.2h-1.8c-0.4,0-0.7,0-1,0S101.6,29.3,101.3,29.3z"/>
		<path class="st3" d="M123.5,29.6c-1.5,0-2.8-0.3-3.9-0.9c-1.1-0.6-2-1.4-2.6-2.5c-0.6-1.1-0.9-2.3-0.9-3.6c0-1.1,0.2-2.1,0.5-3
			c0.3-0.9,0.8-1.7,1.5-2.3s1.4-1.1,2.2-1.5c0.9-0.4,1.8-0.5,2.8-0.5c0.9,0,1.8,0.2,2.6,0.5c0.8,0.3,1.5,0.8,2.1,1.4
			c0.6,0.6,1,1.3,1.3,2.2s0.5,1.7,0.4,2.7l0,1.1h-11.1l-0.6-2.3h8.6l-0.4,0.5v-0.5c0-0.5-0.2-0.9-0.5-1.3c-0.3-0.4-0.6-0.7-1-0.9
			c-0.4-0.2-0.9-0.3-1.4-0.3c-0.8,0-1.4,0.2-2,0.5c-0.5,0.3-0.9,0.7-1.2,1.3c-0.3,0.6-0.4,1.3-0.4,2.1c0,0.8,0.2,1.5,0.5,2.1
			c0.3,0.6,0.8,1.1,1.5,1.4c0.6,0.3,1.4,0.5,2.3,0.5c0.6,0,1.2-0.1,1.7-0.3c0.5-0.2,1-0.5,1.6-1l1.7,2.5c-0.5,0.4-1,0.8-1.6,1.1
			c-0.6,0.3-1.2,0.5-1.9,0.7C124.8,29.5,124.2,29.6,123.5,29.6z"/>
		<path class="st3" d="M131.7,29.3V15.6h3.6l0.1,4.4l-0.6-0.9c0.2-0.7,0.6-1.3,1-1.9c0.5-0.6,1-1,1.6-1.4c0.6-0.3,1.3-0.5,2-0.5
			c0.3,0,0.6,0,0.9,0.1c0.3,0,0.5,0.1,0.7,0.2l-1,4c-0.2-0.1-0.4-0.2-0.7-0.2s-0.6-0.1-0.9-0.1c-0.4,0-0.8,0.1-1.1,0.2
			c-0.4,0.1-0.7,0.4-0.9,0.6c-0.3,0.3-0.5,0.6-0.6,0.9c-0.1,0.4-0.2,0.8-0.2,1.2v7.1H131.7z"/>
		<path class="st3" d="M145.9,29.6c-0.9,0-1.7-0.2-2.4-0.5c-0.7-0.3-1.3-0.8-1.7-1.4s-0.6-1.3-0.6-2.2c0-0.7,0.1-1.3,0.4-1.9
			c0.3-0.5,0.6-1,1.2-1.4c0.5-0.4,1.2-0.6,1.9-0.8c0.8-0.2,1.7-0.3,2.7-0.3h4.1l-0.2,2.5h-3.9c-0.4,0-0.8,0-1.1,0.1
			s-0.6,0.2-0.8,0.3c-0.2,0.2-0.4,0.3-0.5,0.5c-0.1,0.2-0.2,0.5-0.2,0.7c0,0.3,0.1,0.6,0.2,0.8c0.2,0.2,0.4,0.4,0.6,0.5
			c0.3,0.1,0.6,0.2,0.9,0.2c0.5,0,1-0.1,1.4-0.3c0.5-0.2,0.9-0.4,1.2-0.7c0.4-0.3,0.6-0.7,0.9-1.1l0.7,1.8c-0.4,0.6-0.8,1.1-1.3,1.6
			c-0.5,0.5-1.1,0.8-1.7,1.1C147.2,29.5,146.6,29.6,145.9,29.6z M149.6,29.3v-8.6c0-0.7-0.2-1.3-0.7-1.7c-0.4-0.4-1-0.6-1.8-0.6
			c-0.7,0-1.3,0.1-1.9,0.4c-0.6,0.3-1.1,0.7-1.6,1.3l-2.3-2.2c0.8-0.9,1.8-1.5,2.8-2c1-0.5,2.2-0.7,3.4-0.7c1.1,0,2.1,0.2,2.9,0.5
			c0.8,0.3,1.5,0.9,1.9,1.6s0.7,1.6,0.7,2.6v9.3H149.6z"/>
		<path class="st3" d="M168.8,29.6c-1.2,0-2.3-0.3-3.2-0.9c-1-0.6-1.7-1.5-2.3-2.5s-0.8-2.3-0.8-3.7c0-1.4,0.3-2.6,0.8-3.7
			c0.5-1.1,1.3-1.9,2.2-2.5c1-0.6,2-0.9,3.2-0.9c0.6,0,1.3,0.1,1.9,0.3c0.6,0.2,1.1,0.5,1.6,0.8c0.5,0.3,0.8,0.7,1.1,1.2
			c0.3,0.4,0.5,0.9,0.5,1.3l-0.9,0.2v-9h3.7v19.2h-3.5l-0.2-3.2l0.7,0.1c0,0.4-0.2,0.8-0.4,1.2s-0.6,0.8-1.1,1.1
			c-0.5,0.3-1,0.6-1.6,0.8C170,29.5,169.4,29.6,168.8,29.6z M169.6,26.5c0.7,0,1.3-0.2,1.8-0.5c0.5-0.3,0.9-0.8,1.2-1.4
			c0.3-0.6,0.4-1.3,0.4-2.1c0-0.8-0.1-1.5-0.4-2.1c-0.3-0.6-0.7-1.1-1.2-1.4c-0.5-0.3-1.1-0.5-1.8-0.5c-0.7,0-1.3,0.2-1.8,0.5
			c-0.5,0.3-0.9,0.8-1.2,1.4c-0.3,0.6-0.4,1.3-0.4,2.1c0,0.8,0.1,1.5,0.4,2.1c0.3,0.6,0.7,1.1,1.2,1.4S168.9,26.5,169.6,26.5z"/>
		<path class="st3" d="M186.2,29.6c-1.5,0-2.8-0.3-3.9-0.9c-1.1-0.6-2-1.4-2.6-2.5c-0.6-1.1-0.9-2.3-0.9-3.6c0-1.1,0.2-2.1,0.5-3
			c0.3-0.9,0.8-1.7,1.5-2.3s1.4-1.1,2.2-1.5c0.9-0.4,1.8-0.5,2.8-0.5c0.9,0,1.8,0.2,2.6,0.5c0.8,0.3,1.5,0.8,2.1,1.4
			c0.6,0.6,1,1.3,1.3,2.2c0.3,0.8,0.5,1.7,0.4,2.7l0,1.1h-11l-0.6-2.3h8.6l-0.4,0.5v-0.5c0-0.5-0.2-0.9-0.5-1.3
			c-0.3-0.4-0.6-0.7-1-0.9c-0.4-0.2-0.9-0.3-1.4-0.3c-0.8,0-1.4,0.2-2,0.5c-0.5,0.3-0.9,0.7-1.2,1.3c-0.3,0.6-0.4,1.3-0.4,2.1
			c0,0.8,0.2,1.5,0.5,2.1c0.3,0.6,0.8,1.1,1.5,1.4c0.7,0.3,1.4,0.5,2.3,0.5c0.6,0,1.2-0.1,1.7-0.3c0.5-0.2,1-0.5,1.6-1l1.7,2.5
			c-0.5,0.4-1,0.8-1.6,1.1c-0.6,0.3-1.2,0.5-1.9,0.7C187.5,29.5,186.8,29.6,186.2,29.6z"/>
		<path class="st3" d="M200.2,29.3l7.2-18.2h3.5l7.1,18.2h-4l-3.7-9.8c-0.1-0.3-0.2-0.7-0.4-1.1c-0.1-0.4-0.3-0.9-0.5-1.4
			c-0.2-0.5-0.3-0.9-0.4-1.4c-0.1-0.4-0.2-0.8-0.3-1.1l0.7,0c-0.1,0.4-0.2,0.8-0.4,1.2c-0.1,0.4-0.3,0.9-0.4,1.3
			c-0.1,0.5-0.3,0.9-0.4,1.3s-0.3,0.8-0.4,1.2l-3.7,9.8H200.2z M203.5,25.5l1.3-3.2h8.3l1.3,3.2H203.5z"/>
		<path class="st3" d="M224.1,29.6c-1.3,0-2.4-0.2-3.4-0.6c-1-0.4-1.8-1-2.4-1.8l2.3-2c0.5,0.6,1.1,1,1.8,1.2c0.6,0.3,1.3,0.4,2,0.4
			c0.2,0,0.5,0,0.7-0.1s0.4-0.1,0.5-0.3c0.2-0.1,0.3-0.2,0.4-0.4s0.1-0.3,0.1-0.5c0-0.4-0.2-0.7-0.5-0.9c-0.1-0.1-0.4-0.2-0.8-0.4
			c-0.4-0.1-0.8-0.3-1.4-0.4c-0.9-0.2-1.6-0.5-2.2-0.8c-0.6-0.3-1.1-0.7-1.5-1.1c-0.3-0.3-0.5-0.7-0.7-1.1c-0.2-0.4-0.2-0.9-0.2-1.4
			c0-0.8,0.2-1.6,0.7-2.2c0.5-0.6,1.1-1.1,1.9-1.5c0.8-0.3,1.7-0.5,2.6-0.5c0.7,0,1.4,0.1,2.1,0.3c0.7,0.2,1.3,0.4,1.9,0.7
			c0.6,0.3,1.1,0.7,1.5,1.1l-2,2.2c-0.3-0.3-0.7-0.6-1.1-0.8c-0.4-0.2-0.8-0.4-1.2-0.6c-0.4-0.1-0.8-0.2-1.1-0.2
			c-0.3,0-0.6,0-0.8,0.1c-0.2,0.1-0.4,0.1-0.6,0.2c-0.2,0.1-0.3,0.2-0.4,0.4s-0.1,0.3-0.1,0.5c0,0.2,0,0.4,0.1,0.5
			c0.1,0.2,0.2,0.3,0.4,0.5c0.2,0.1,0.5,0.2,0.8,0.4c0.4,0.1,0.9,0.3,1.5,0.5c0.8,0.2,1.5,0.5,2.1,0.8c0.6,0.3,1,0.6,1.4,1
			c0.3,0.3,0.5,0.7,0.7,1.1c0.1,0.4,0.2,0.8,0.2,1.3c0,0.8-0.2,1.6-0.7,2.3c-0.5,0.7-1.1,1.2-2,1.6
			C226.1,29.4,225.2,29.6,224.1,29.6z"/>
		<path class="st3" d="M236.4,29.6c-1,0-1.8-0.2-2.6-0.7c-0.7-0.4-1.3-1.1-1.7-1.9c-0.4-0.8-0.6-1.8-0.6-3v-8.5h3.7v7.8
			c0,1,0.2,1.7,0.7,2.3c0.5,0.5,1.1,0.8,1.9,0.8c0.4,0,0.8-0.1,1.1-0.2s0.6-0.3,0.9-0.6c0.2-0.2,0.4-0.5,0.6-0.9
			c0.1-0.3,0.2-0.7,0.2-1.1v-8.2h3.7v13.8h-3.5l-0.1-2.8l0.7-0.3c-0.2,0.6-0.5,1.2-1,1.7c-0.5,0.5-1.1,0.9-1.8,1.2
			C237.9,29.5,237.2,29.6,236.4,29.6z"/>
		<path class="st3" d="M247.6,29.3V15.6h3.6l0.1,2.8l-0.7,0.3c0.2-0.6,0.5-1.2,1-1.7c0.5-0.5,1.1-0.9,1.8-1.2
			c0.7-0.3,1.4-0.5,2.2-0.5c1,0,1.9,0.2,2.6,0.6c0.7,0.4,1.2,1,1.6,1.9c0.4,0.8,0.5,1.9,0.5,3.1v8.4h-3.7v-8.1
			c0-0.6-0.1-1.1-0.3-1.6c-0.2-0.4-0.4-0.7-0.8-0.9c-0.3-0.2-0.8-0.3-1.3-0.3c-0.4,0-0.8,0.1-1.1,0.2c-0.3,0.1-0.7,0.3-0.9,0.6
			c-0.3,0.2-0.5,0.5-0.6,0.8c-0.1,0.3-0.2,0.7-0.2,1v8.2h-1.8c-0.4,0-0.7,0-1,0C248.1,29.3,247.8,29.3,247.6,29.3z"/>
		<path class="st3" d="M269.2,29.6c-1.3,0-2.5-0.3-3.5-0.9s-1.9-1.5-2.5-2.6c-0.6-1.1-0.9-2.3-0.9-3.6c0-1.4,0.3-2.6,0.9-3.7
			s1.4-1.9,2.5-2.6c1-0.6,2.2-0.9,3.5-0.9c1.2,0,2.4,0.2,3.4,0.7c1,0.5,1.8,1.1,2.4,1.9l-2,2.4c-0.2-0.3-0.5-0.6-0.9-0.9
			s-0.8-0.5-1.2-0.7s-0.9-0.2-1.3-0.2c-0.7,0-1.3,0.2-1.9,0.5c-0.6,0.3-1,0.8-1.3,1.4c-0.3,0.6-0.5,1.3-0.5,2c0,0.7,0.2,1.4,0.5,2
			c0.3,0.6,0.8,1.1,1.3,1.4c0.6,0.3,1.2,0.5,1.8,0.5c0.5,0,0.9-0.1,1.3-0.2c0.4-0.1,0.8-0.3,1.1-0.6c0.3-0.3,0.7-0.6,1-0.9l2,2.4
			c-0.6,0.7-1.4,1.3-2.4,1.8S270.4,29.6,269.2,29.6z"/>
		<path class="st3" d="M278.9,12.8c-0.7,0-1.3-0.2-1.7-0.5c-0.4-0.3-0.6-0.8-0.6-1.5c0-0.6,0.2-1.1,0.6-1.4c0.4-0.4,1-0.6,1.7-0.6
			c0.7,0,1.2,0.2,1.6,0.5c0.4,0.4,0.6,0.8,0.6,1.5c0,0.6-0.2,1.1-0.6,1.5C280.2,12.6,279.6,12.8,278.9,12.8z M277.1,29.3V15.6h3.7
			v13.8H277.1z"/>
		<path class="st3" d="M290.6,29.6c-1.4,0-2.7-0.3-3.7-0.9c-1.1-0.6-2-1.5-2.6-2.5c-0.6-1.1-0.9-2.3-0.9-3.7c0-1.4,0.3-2.6,0.9-3.7
			c0.6-1.1,1.5-1.9,2.6-2.5c1.1-0.6,2.3-0.9,3.7-0.9s2.7,0.3,3.7,0.9c1.1,0.6,2,1.5,2.6,2.5c0.6,1.1,0.9,2.3,0.9,3.7
			c0,1.4-0.3,2.6-0.9,3.7c-0.6,1.1-1.5,1.9-2.6,2.5S292,29.6,290.6,29.6z M290.6,26.4c0.7,0,1.3-0.2,1.8-0.5c0.5-0.3,1-0.8,1.3-1.4
			c0.3-0.6,0.4-1.3,0.4-2c0-0.8-0.1-1.5-0.4-2.1c-0.3-0.6-0.7-1.1-1.3-1.4c-0.5-0.3-1.1-0.5-1.8-0.5s-1.3,0.2-1.8,0.5
			c-0.5,0.3-1,0.8-1.3,1.4c-0.3,0.6-0.4,1.3-0.4,2.1c0,0.7,0.1,1.4,0.4,2c0.3,0.6,0.7,1.1,1.3,1.4S289.9,26.4,290.6,26.4z
			 M288.7,13.9l-1.1-1.7l4.3-3.5l1.8,2.5L288.7,13.9z"/>
		<path class="st3" d="M300.2,29.3V15.6h3.6l0.1,2.8l-0.7,0.3c0.2-0.6,0.5-1.2,1-1.7c0.5-0.5,1.1-0.9,1.8-1.2
			c0.7-0.3,1.4-0.5,2.2-0.5c1,0,1.9,0.2,2.6,0.6c0.7,0.4,1.2,1,1.6,1.9c0.4,0.8,0.5,1.9,0.5,3.1v8.4h-3.7v-8.1
			c0-0.6-0.1-1.1-0.3-1.6c-0.2-0.4-0.4-0.7-0.8-0.9c-0.3-0.2-0.8-0.3-1.3-0.3c-0.4,0-0.8,0.1-1.1,0.2c-0.3,0.1-0.7,0.3-0.9,0.6
			c-0.3,0.2-0.5,0.5-0.6,0.8c-0.1,0.3-0.2,0.7-0.2,1v8.2H302c-0.4,0-0.7,0-1,0C300.7,29.3,300.4,29.3,300.2,29.3z"/>
	</g>
</g>
<g>
	<path class="st4" d="M314.8,41.4H41.4C18.5,41.4,0,22.9,0,0v0l314.8,0V41.4z"/>
	<g>
		<path class="st3" d="M32.7,29.3V12.5H44v3.2h-7.8v10.5h8v3.2H32.7z M34.4,22.3v-3.1h8.5v3.1H34.4z"/>
		<path class="st3" d="M51.2,29.6c-1.2,0-2.2-0.2-3.1-0.6c-0.9-0.4-1.7-0.9-2.2-1.6l2.1-1.8c0.5,0.5,1,0.9,1.6,1.1
			c0.6,0.2,1.2,0.3,1.8,0.3c0.2,0,0.4,0,0.6-0.1c0.2-0.1,0.4-0.1,0.5-0.2c0.1-0.1,0.3-0.2,0.3-0.4C53,26.2,53,26,53,25.8
			c0-0.4-0.1-0.6-0.4-0.8c-0.1-0.1-0.4-0.2-0.7-0.3c-0.3-0.1-0.8-0.3-1.3-0.4c-0.8-0.2-1.5-0.5-2.1-0.7c-0.6-0.3-1-0.6-1.4-1
			c-0.3-0.3-0.5-0.7-0.7-1.1s-0.2-0.8-0.2-1.3c0-0.8,0.2-1.4,0.7-2c0.4-0.6,1-1,1.8-1.3c0.7-0.3,1.6-0.5,2.4-0.5
			c0.7,0,1.3,0.1,1.9,0.2c0.6,0.2,1.2,0.4,1.7,0.7c0.5,0.3,1,0.6,1.4,1l-1.8,2c-0.3-0.3-0.6-0.5-1-0.8c-0.4-0.2-0.7-0.4-1.1-0.5
			c-0.4-0.1-0.7-0.2-1-0.2c-0.3,0-0.5,0-0.7,0.1s-0.4,0.1-0.5,0.2c-0.1,0.1-0.3,0.2-0.3,0.4c-0.1,0.1-0.1,0.3-0.1,0.5
			c0,0.2,0,0.3,0.1,0.5c0.1,0.2,0.2,0.3,0.4,0.4c0.2,0.1,0.4,0.2,0.8,0.3s0.8,0.3,1.4,0.4c0.8,0.2,1.4,0.4,1.9,0.7
			c0.5,0.3,1,0.6,1.3,0.9c0.3,0.3,0.5,0.6,0.6,1c0.1,0.4,0.2,0.8,0.2,1.2c0,0.8-0.2,1.5-0.7,2.1c-0.4,0.6-1,1.1-1.8,1.4
			C53,29.4,52.2,29.6,51.2,29.6z"/>
		<path class="st3" d="M57.1,19.7v-3h8.4v3H57.1z M59.5,29.3V13.4h3.4v15.9H59.5z"/>
		<path class="st3" d="M70.6,29.6c-0.8,0-1.5-0.2-2.2-0.5c-0.6-0.3-1.2-0.8-1.5-1.3c-0.4-0.6-0.6-1.2-0.6-2c0-0.7,0.1-1.2,0.4-1.7
			c0.2-0.5,0.6-0.9,1.1-1.2c0.5-0.3,1.1-0.6,1.8-0.8c0.7-0.2,1.5-0.3,2.5-0.3h3.7L75.6,24H72c-0.4,0-0.7,0-1,0.1
			c-0.3,0.1-0.5,0.2-0.7,0.3c-0.2,0.1-0.4,0.3-0.5,0.5c-0.1,0.2-0.2,0.4-0.2,0.7c0,0.3,0.1,0.5,0.2,0.7s0.3,0.4,0.6,0.5
			c0.2,0.1,0.5,0.2,0.9,0.2c0.5,0,0.9-0.1,1.3-0.2s0.8-0.4,1.1-0.7s0.6-0.6,0.8-1l0.6,1.7c-0.3,0.5-0.7,1-1.2,1.4s-1,0.7-1.6,1
			C71.9,29.5,71.3,29.6,70.6,29.6z M74.1,29.3v-7.9c0-0.7-0.2-1.2-0.6-1.5c-0.4-0.4-1-0.5-1.6-0.5c-0.7,0-1.2,0.1-1.8,0.4
			c-0.5,0.3-1,0.7-1.4,1.2l-2.1-2c0.8-0.8,1.6-1.4,2.6-1.8c1-0.4,2-0.6,3.1-0.6c1,0,1.9,0.2,2.7,0.5c0.8,0.3,1.3,0.8,1.8,1.4
			c0.4,0.6,0.6,1.4,0.6,2.4v8.6H74.1z"/>
		<path class="st3" d="M84.9,29.6c-1.1,0-2.1-0.3-3-0.8c-0.9-0.6-1.6-1.3-2.1-2.3c-0.5-1-0.8-2.1-0.8-3.4c0-1.3,0.3-2.4,0.8-3.4
			s1.2-1.8,2.1-2.4s1.9-0.9,3-0.9c0.6,0,1.2,0.1,1.7,0.3c0.6,0.2,1,0.4,1.5,0.8c0.4,0.3,0.8,0.7,1.1,1.1c0.3,0.4,0.4,0.8,0.5,1.2
			l-0.9,0.2v-8.3h3.4v17.8H89l-0.1-2.9l0.7,0.1c0,0.4-0.2,0.8-0.4,1.1c-0.3,0.4-0.6,0.7-1,1c-0.4,0.3-0.9,0.5-1.4,0.7
			C86.1,29.5,85.5,29.6,84.9,29.6z M85.7,26.8c0.7,0,1.2-0.2,1.7-0.5c0.5-0.3,0.8-0.8,1.1-1.3c0.3-0.6,0.4-1.2,0.4-1.9
			c0-0.8-0.1-1.4-0.4-2c-0.3-0.6-0.6-1-1.1-1.3c-0.5-0.3-1-0.5-1.7-0.5c-0.6,0-1.2,0.2-1.7,0.5c-0.5,0.3-0.9,0.8-1.1,1.3
			c-0.3,0.6-0.4,1.2-0.4,2c0,0.7,0.1,1.4,0.4,1.9c0.3,0.6,0.6,1,1.1,1.3C84.5,26.6,85,26.8,85.7,26.8z"/>
		<path class="st3" d="M96.9,14c-0.7,0-1.2-0.2-1.5-0.5c-0.4-0.3-0.6-0.8-0.6-1.4c0-0.5,0.2-1,0.6-1.3c0.4-0.3,0.9-0.5,1.5-0.5
			c0.6,0,1.1,0.2,1.5,0.5c0.4,0.3,0.6,0.8,0.6,1.4c0,0.6-0.2,1-0.6,1.3C98.1,13.9,97.6,14,96.9,14z M95.3,29.3V16.7h3.4v12.7H95.3z"
			/>
		<path class="st3" d="M107.7,29.6c-1.3,0-2.4-0.3-3.5-0.9c-1-0.6-1.8-1.3-2.4-2.3c-0.6-1-0.9-2.1-0.9-3.4c0-1.3,0.3-2.4,0.9-3.4
			c0.6-1,1.4-1.8,2.4-2.4c1-0.6,2.2-0.9,3.5-0.9s2.4,0.3,3.5,0.9c1,0.6,1.8,1.4,2.4,2.4c0.6,1,0.9,2.1,0.9,3.4
			c0,1.3-0.3,2.4-0.9,3.4c-0.6,1-1.4,1.8-2.4,2.3C110.2,29.3,109,29.6,107.7,29.6z M107.7,26.6c0.6,0,1.2-0.2,1.7-0.5
			c0.5-0.3,0.9-0.8,1.2-1.3c0.3-0.5,0.4-1.2,0.4-1.8c0-0.7-0.1-1.4-0.4-1.9c-0.3-0.6-0.7-1-1.2-1.3c-0.5-0.3-1.1-0.5-1.7-0.5
			s-1.2,0.2-1.7,0.5c-0.5,0.3-0.9,0.8-1.2,1.3c-0.3,0.5-0.4,1.2-0.4,1.9c0,0.7,0.1,1.3,0.4,1.8s0.7,1,1.2,1.3
			C106.6,26.5,107.1,26.6,107.7,26.6z"/>
		<path class="st3" d="M127.4,29.3V15.8h-4.8v-3.2H136v3.2h-5v13.6H127.4z"/>
		<path class="st3" d="M140,14c-0.7,0-1.2-0.2-1.5-0.5c-0.4-0.3-0.6-0.8-0.6-1.4c0-0.5,0.2-1,0.6-1.3c0.4-0.3,0.9-0.5,1.5-0.5
			c0.6,0,1.1,0.2,1.5,0.5c0.4,0.3,0.6,0.8,0.6,1.4c0,0.6-0.2,1-0.6,1.3C141.2,13.9,140.7,14,140,14z M138.3,29.3V16.7h3.4v12.7
			H138.3z"/>
		<path class="st3" d="M150.7,34.9c-1,0-2-0.1-3-0.4s-1.8-0.7-2.4-1.2l1.2-2.4c0.5,0.4,1.1,0.6,1.8,0.8c0.7,0.2,1.3,0.3,2.1,0.3
			c0.8,0,1.5-0.1,2.1-0.4c0.5-0.3,0.9-0.6,1.2-1.1c0.3-0.5,0.4-1.1,0.4-1.9v-2.2l0.6,0.1c-0.1,0.5-0.4,1-0.8,1.4
			c-0.4,0.4-1,0.8-1.6,1.1c-0.6,0.3-1.3,0.4-2,0.4c-1.2,0-2.2-0.3-3.1-0.8c-0.9-0.6-1.6-1.3-2.2-2.3c-0.5-1-0.8-2.1-0.8-3.3
			c0-1.3,0.3-2.4,0.8-3.4c0.5-1,1.2-1.8,2.1-2.3c0.9-0.6,1.9-0.8,3.1-0.8c0.5,0,0.9,0.1,1.4,0.2c0.4,0.1,0.8,0.3,1.2,0.5
			c0.4,0.2,0.7,0.4,1,0.7c0.3,0.2,0.6,0.5,0.7,0.8s0.3,0.6,0.4,0.9l-0.7,0.2l0.1-2.9h3.3v11.7c0,1-0.2,1.9-0.5,2.7
			c-0.3,0.8-0.8,1.5-1.3,2s-1.3,1-2.1,1.3S151.8,34.9,150.7,34.9z M150.8,26.6c0.7,0,1.3-0.2,1.8-0.5c0.5-0.3,0.9-0.7,1.2-1.3
			c0.3-0.5,0.4-1.2,0.4-1.9c0-0.7-0.1-1.4-0.4-1.9c-0.3-0.5-0.7-1-1.2-1.3c-0.5-0.3-1.1-0.5-1.8-0.5c-0.7,0-1.2,0.2-1.7,0.5
			c-0.5,0.3-0.9,0.7-1.2,1.3s-0.4,1.2-0.4,1.9s0.1,1.4,0.4,1.9c0.3,0.6,0.7,1,1.2,1.3C149.6,26.5,150.1,26.6,150.8,26.6z"/>
		<path class="st3" d="M166.2,29.6c-1.3,0-2.4-0.3-3.5-0.9c-1-0.6-1.8-1.3-2.4-2.3c-0.6-1-0.9-2.1-0.9-3.4c0-1.3,0.3-2.4,0.9-3.4
			c0.6-1,1.4-1.8,2.4-2.4c1-0.6,2.2-0.9,3.5-0.9s2.4,0.3,3.5,0.9c1,0.6,1.8,1.4,2.4,2.4c0.6,1,0.9,2.1,0.9,3.4
			c0,1.3-0.3,2.4-0.9,3.4c-0.6,1-1.4,1.8-2.4,2.3C168.7,29.3,167.5,29.6,166.2,29.6z M166.2,26.6c0.6,0,1.2-0.2,1.7-0.5
			c0.5-0.3,0.9-0.8,1.2-1.3c0.3-0.5,0.4-1.2,0.4-1.8c0-0.7-0.1-1.4-0.4-1.9c-0.3-0.6-0.7-1-1.2-1.3c-0.5-0.3-1.1-0.5-1.7-0.5
			s-1.2,0.2-1.7,0.5c-0.5,0.3-0.9,0.8-1.2,1.3c-0.3,0.5-0.4,1.2-0.4,1.9c0,0.7,0.1,1.3,0.4,1.8s0.7,1,1.2,1.3
			C165,26.5,165.6,26.6,166.2,26.6z"/>
		<path class="st3" d="M182.4,29.3V12.5h3.6v13.6h7.6v3.2H182.4z"/>
		<path class="st3" d="M199,29.6c-0.8,0-1.5-0.2-2.2-0.5c-0.6-0.3-1.2-0.8-1.5-1.3c-0.4-0.6-0.6-1.2-0.6-2c0-0.7,0.1-1.2,0.4-1.7
			c0.2-0.5,0.6-0.9,1.1-1.2c0.5-0.3,1.1-0.6,1.8-0.8c0.7-0.2,1.5-0.3,2.5-0.3h3.7L204,24h-3.6c-0.4,0-0.7,0-1,0.1
			c-0.3,0.1-0.5,0.2-0.7,0.3c-0.2,0.1-0.4,0.3-0.5,0.5c-0.1,0.2-0.2,0.4-0.2,0.7c0,0.3,0.1,0.5,0.2,0.7c0.1,0.2,0.3,0.4,0.6,0.5
			c0.2,0.1,0.5,0.2,0.9,0.2c0.5,0,0.9-0.1,1.3-0.2c0.4-0.2,0.8-0.4,1.1-0.7s0.6-0.6,0.8-1l0.6,1.7c-0.3,0.5-0.7,1-1.2,1.4
			c-0.5,0.4-1,0.7-1.6,1C200.3,29.5,199.7,29.6,199,29.6z M202.5,29.3v-7.9c0-0.7-0.2-1.2-0.6-1.5c-0.4-0.4-1-0.5-1.6-0.5
			c-0.7,0-1.2,0.1-1.8,0.4c-0.5,0.3-1,0.7-1.4,1.2l-2.1-2c0.8-0.8,1.6-1.4,2.6-1.8c1-0.4,2-0.6,3.1-0.6c1,0,1.9,0.2,2.7,0.5
			c0.8,0.3,1.3,0.8,1.8,1.4c0.4,0.6,0.6,1.4,0.6,2.4v8.6H202.5z"/>
		<path class="st3" d="M215.7,29.3V12.5h3.6v16.8H215.7z M217.1,22.6v-3.3h11v3.3H217.1z M226.3,29.3V12.5h3.6v16.8H226.3z"/>
		<path class="st3" d="M237.7,29.6c-0.9,0-1.7-0.2-2.4-0.6s-1.2-1-1.5-1.8c-0.4-0.8-0.5-1.7-0.5-2.7v-7.8h3.4v7.2
			c0,0.9,0.2,1.6,0.6,2.1c0.4,0.5,1,0.8,1.8,0.8c0.4,0,0.7-0.1,1-0.2c0.3-0.1,0.6-0.3,0.8-0.5c0.2-0.2,0.4-0.5,0.5-0.8
			c0.1-0.3,0.2-0.6,0.2-1v-7.6h3.4v12.7h-3.2l-0.1-2.6l0.6-0.3c-0.2,0.6-0.5,1.1-0.9,1.6c-0.5,0.5-1,0.9-1.6,1.1
			S238.4,29.6,237.7,29.6z"/>
		<path class="st3" d="M254,29.6c-1.4,0-2.6-0.3-3.6-0.8c-1-0.6-1.8-1.3-2.4-2.3c-0.6-1-0.9-2.1-0.9-3.3c0-1,0.2-1.9,0.5-2.7
			s0.8-1.5,1.3-2.1c0.6-0.6,1.3-1.1,2.1-1.4s1.7-0.5,2.6-0.5c0.9,0,1.7,0.2,2.4,0.5c0.7,0.3,1.4,0.8,1.9,1.3s0.9,1.2,1.2,2
			s0.4,1.6,0.4,2.5l0,1.1h-10.2l-0.6-2.1h7.9l-0.4,0.4v-0.5c0-0.4-0.2-0.8-0.4-1.2c-0.2-0.3-0.6-0.6-0.9-0.8s-0.8-0.3-1.3-0.3
			c-0.7,0-1.3,0.1-1.8,0.4s-0.9,0.7-1.1,1.2c-0.2,0.5-0.4,1.2-0.4,1.9c0,0.8,0.2,1.4,0.5,2c0.3,0.6,0.8,1,1.4,1.3
			c0.6,0.3,1.3,0.5,2.1,0.5c0.6,0,1.1-0.1,1.5-0.3c0.5-0.2,1-0.5,1.5-0.9l1.6,2.3c-0.4,0.4-1,0.7-1.5,1c-0.6,0.3-1.1,0.5-1.7,0.6
			C255.1,29.5,254.5,29.6,254,29.6z"/>
		<path class="st3" d="M261.5,29.3V16.7h3.3l0.1,4.1l-0.6-0.9c0.2-0.6,0.5-1.2,0.9-1.8c0.4-0.5,0.9-0.9,1.5-1.3
			c0.6-0.3,1.2-0.5,1.8-0.5c0.3,0,0.6,0,0.8,0.1c0.2,0,0.5,0.1,0.6,0.2l-0.9,3.7c-0.2-0.1-0.4-0.2-0.7-0.2c-0.3-0.1-0.6-0.1-0.9-0.1
			c-0.4,0-0.7,0.1-1,0.2c-0.3,0.1-0.6,0.3-0.9,0.6s-0.4,0.5-0.6,0.9s-0.2,0.7-0.2,1.1v6.6H261.5z"/>
		<path class="st3" d="M270.9,19.7v-3h8.4v3H270.9z M273.3,29.3V13.4h3.4v15.9H273.3z"/>
		<path class="st3" d="M284.5,29.6c-0.8,0-1.5-0.2-2.2-0.5c-0.6-0.3-1.2-0.8-1.5-1.3c-0.4-0.6-0.6-1.2-0.6-2c0-0.7,0.1-1.2,0.4-1.7
			c0.2-0.5,0.6-0.9,1.1-1.2c0.5-0.3,1.1-0.6,1.8-0.8c0.7-0.2,1.5-0.3,2.5-0.3h3.7l-0.2,2.3h-3.6c-0.4,0-0.7,0-1,0.1
			c-0.3,0.1-0.5,0.2-0.7,0.3c-0.2,0.1-0.4,0.3-0.5,0.5c-0.1,0.2-0.2,0.4-0.2,0.7c0,0.3,0.1,0.5,0.2,0.7c0.1,0.2,0.3,0.4,0.6,0.5
			c0.2,0.1,0.5,0.2,0.9,0.2c0.5,0,0.9-0.1,1.3-0.2c0.4-0.2,0.8-0.4,1.1-0.7s0.6-0.6,0.8-1l0.6,1.7c-0.3,0.5-0.7,1-1.2,1.4
			c-0.5,0.4-1,0.7-1.6,1C285.7,29.5,285.1,29.6,284.5,29.6z M287.9,29.3v-7.9c0-0.7-0.2-1.2-0.6-1.5c-0.4-0.4-1-0.5-1.6-0.5
			c-0.7,0-1.2,0.1-1.8,0.4c-0.5,0.3-1,0.7-1.4,1.2l-2.1-2c0.8-0.8,1.6-1.4,2.6-1.8c1-0.4,2-0.6,3.1-0.6c1,0,1.9,0.2,2.7,0.5
			c0.8,0.3,1.3,0.8,1.8,1.4c0.4,0.6,0.6,1.4,0.6,2.4v8.6H287.9z"/>
	</g>
</g>
<g class="st0">
	<path class="st5" d="M0,0l273.4,0c22.9,0,41.4,18.5,41.4,41.4v0H0L0,0z"/>
	<g class="st2">
		<text transform="matrix(1 0 0 1 16.0479 29.1184)" class="st4 st6 st7">Parroquia Las Mercedes</text>
	</g>
</g>
<g class="st0">
	<path class="st5" d="M0,0l139.6,0C162.4,0,181,18.5,181,41.4v0H0L0,0z"/>
	<g class="st2">
		<text transform="matrix(1 0 0 1 16.5566 29.1184)" class="st4 st6 st7">La Quesería</text>
	</g>
</g>
<g class="st0">
	<path class="st5" d="M304.8,0L41.4,0C18.5,0,0,18.5,0,41.4v0h304.8V0z"/>
	<g class="st2">
		<text transform="matrix(1 0 0 1 23.7492 29.1177)" class="st4 st6 st7">Club Deportivo Alemán</text>
	</g>
</g>
<g class="st0">
	<path class="st5" d="M0,41.4h240.4c22.9,0,41.4-18.5,41.4-41.4v0L0,0L0,41.4z"/>
	<text transform="matrix(1 0 0 1 13.6283 29.2111)" class="st1 st6 st7">Supermercado Stock</text>
</g>
<g class="st0">
	<path class="st5" d="M0,0l207.9,0c22.9,0,41.4,18.5,41.4,41.4v0H0L0,0z"/>
	<g class="st2">
		<text transform="matrix(1 0 0 1 22.3021 29.1182)" class="st4 st6 st7">Colegio San José</text>
	</g>
</g>
<g class="st0">
	<path class="st5" d="M0,41.4h240.4c22.9,0,41.4-18.5,41.4-41.4v0L0,0L0,41.4z"/>
	<text transform="matrix(1 0 0 1 13.6283 29.211)" class="st1 st6 st7">Sanatorio Americano</text>
</g>
<g class="st0">
	<path class="st5" d="M287.6,0L41.4,0C18.5,0,0,18.5,0,41.4v0h287.6V0z"/>
	<g class="st2">
		<text transform="matrix(1 0 0 1 23.7492 29.1177)" class="st4 st6 st7">Superseis Mundimark</text>
	</g>
</g>
<g class="st0">
	<path class="st5" d="M0,41.4h254.3c22.9,0,41.4-18.5,41.4-41.4v0L0,0L0,41.4z"/>
	<g class="st2">
		<text transform="matrix(1 0 0 1 16.0259 27.6927)" class="st4 st6 st7">Universidad Columbia</text>
	</g>
</g>
<g class="st0">
	<path class="st5" d="M190.1,0L41.4,0C18.5,0,0,18.5,0,41.4v0h190.1V0z"/>
	<g class="st2">
		<text transform="matrix(1 0 0 1 23.7492 29.1179)" class="st4 st6 st7">Club Olimpia</text>
	</g>
</g>
<g class="st0">
	<path class="st5" d="M0,41.4h250.2c22.9,0,41.4-18.5,41.4-41.4v0L0,0L0,41.4z"/>
	<text transform="matrix(1 0 0 1 13.8814 28.3068)" class="st1 st6 st7">Colegio Internacional</text>
</g>
</svg>
