<?xml version="1.0" encoding="utf-8"?>
<!-- Generator: Adobe Illustrator 24.2.1, SVG Export Plug-In . SVG Version: 6.00 Build 0)  -->
<svg version="1.1" id="Layer_1" xmlns="http://www.w3.org/2000/svg" xmlns:xlink="http://www.w3.org/1999/xlink" x="0px" y="0px"
	 viewBox="0 0 301.4 185.3" style="enable-background:new 0 0 301.4 185.3;" xml:space="preserve">
<style type="text/css">
	.st0{fill:none;stroke:#000000;stroke-miterlimit:10;}
	.st1{fill:#FFFFFF;}
	.st2{fill:#79A490;}
	.st3{fill:#A2BB9B;}
	.st4{fill:#B6D46C;}
</style>
<circle cx="31.1" cy="92.3" r="18.3"/>
<circle class="st0" cx="31.1" cy="92.3" r="22.2"/>
<g>
	<g>
		<g>
			<rect x="77.8" y="7.6" class="st1" width="215.5" height="171.3"/>
			<g>
				<g>
					<path d="M128.3,127.7v-18.1h4.4v14.2h8v3.9H128.3z"/>
					<path d="M141.8,127.7l7.1-18.1h3.7l7.1,18.1h-4.4l-3.4-9.2c-0.1-0.4-0.3-0.7-0.4-1.2c-0.1-0.4-0.3-0.8-0.4-1.3
						c-0.1-0.4-0.3-0.9-0.4-1.3c-0.1-0.4-0.2-0.8-0.3-1.2l0.7,0c-0.1,0.4-0.2,0.9-0.3,1.3c-0.1,0.4-0.2,0.8-0.4,1.2
						c-0.1,0.4-0.3,0.8-0.4,1.2c-0.1,0.4-0.3,0.8-0.5,1.3l-3.4,9.1H141.8z M145.2,124.3l1.4-3.4h8.3l1.4,3.4H145.2z"/>
					<path d="M168,128c-1.8,0-3.3-0.3-4.5-0.9c-1.2-0.6-2.3-1.5-3.2-2.7l2.7-3c0.8,1.2,1.7,1.9,2.6,2.3c0.9,0.4,1.7,0.6,2.7,0.6
						c0.5,0,0.9-0.1,1.3-0.2c0.4-0.1,0.7-0.3,0.9-0.5c0.2-0.2,0.3-0.5,0.3-0.8c0-0.3-0.1-0.5-0.2-0.7c-0.1-0.2-0.3-0.4-0.5-0.5
						c-0.2-0.2-0.5-0.3-0.8-0.4c-0.3-0.1-0.6-0.2-1-0.3c-0.4-0.1-0.7-0.2-1.1-0.2c-1-0.2-1.9-0.5-2.6-0.8c-0.7-0.3-1.3-0.7-1.8-1.2
						c-0.5-0.5-0.9-1-1.1-1.6c-0.2-0.6-0.4-1.3-0.4-2.1c0-1.1,0.3-2.1,0.9-2.9c0.6-0.8,1.5-1.5,2.5-1.9c1-0.5,2.1-0.7,3.4-0.7
						c1.8,0,3.2,0.3,4.2,0.8c1.1,0.6,1.9,1.3,2.6,2.3l-2.7,2.7c-0.5-0.7-1.1-1.2-1.8-1.5c-0.7-0.3-1.4-0.5-2.1-0.5
						c-0.5,0-0.9,0.1-1.3,0.2c-0.4,0.1-0.7,0.3-0.9,0.5c-0.2,0.2-0.3,0.5-0.3,0.8c0,0.3,0.1,0.5,0.2,0.7c0.2,0.2,0.4,0.4,0.7,0.6
						c0.3,0.2,0.6,0.3,1,0.4c0.4,0.1,0.8,0.2,1.2,0.3c0.9,0.2,1.8,0.4,2.6,0.7c0.8,0.3,1.4,0.7,2,1.1c0.5,0.5,1,1,1.3,1.6
						c0.3,0.6,0.5,1.3,0.5,2.1c0,1.2-0.3,2.3-0.9,3.2c-0.6,0.9-1.4,1.5-2.5,2C170.6,127.8,169.4,128,168,128z"/>
					<path d="M128.3,149.3v-18.1h3.9l6.5,10.7l-2.8,0l6.6-10.6h3.8v18.1h-4.3v-5.5c0-1.6,0-3,0.1-4.3c0.1-1.3,0.2-2.5,0.4-3.7
						l0.5,1.3l-5,7.7h-1.8l-4.9-7.7l0.5-1.4c0.2,1.2,0.3,2.3,0.4,3.6c0.1,1.2,0.1,2.7,0.1,4.4v5.5H128.3z"/>
					<path d="M150.9,149.3v-18.1h12.6v3.8h-8.3v10.5h8.6v3.8H150.9z M153,141.9v-3.6h9.4v3.6H153z"/>
					<path d="M167.5,149.3v-18.1h8.2c1.2,0,2.2,0.3,3.1,0.7c0.9,0.5,1.7,1.2,2.2,2c0.5,0.9,0.8,1.9,0.8,3c0,1.1-0.3,2.1-0.8,3
						c-0.5,0.9-1.3,1.6-2.2,2.1c-0.9,0.5-2,0.8-3.1,0.8h-4v6.3H167.5z M171.8,139.5h3.6c0.4,0,0.8-0.1,1.2-0.3
						c0.3-0.2,0.6-0.5,0.8-0.8c0.2-0.3,0.3-0.7,0.3-1.2c0-0.5-0.1-0.9-0.3-1.2c-0.2-0.3-0.5-0.6-0.9-0.8c-0.4-0.2-0.8-0.3-1.4-0.3
						h-3.2V139.5z M177.6,149.3l-4.6-8.2l4.5-0.6l5.1,8.8L177.6,149.3z"/>
					<path d="M193.6,149.5c-1.4,0-2.6-0.2-3.8-0.7c-1.1-0.5-2.1-1.1-3-1.9c-0.8-0.8-1.5-1.8-1.9-3c-0.5-1.1-0.7-2.4-0.7-3.8
						c0-1.3,0.2-2.6,0.7-3.7c0.5-1.1,1.1-2.1,2-3c0.9-0.8,1.9-1.5,3-2c1.2-0.5,2.4-0.7,3.8-0.7c0.9,0,1.7,0.1,2.5,0.3
						c0.8,0.2,1.6,0.6,2.3,1c0.7,0.4,1.3,1,1.8,1.6l-2.7,3.1c-0.5-0.6-1.1-1-1.8-1.4c-0.7-0.3-1.4-0.5-2.2-0.5
						c-0.7,0-1.3,0.1-1.9,0.4c-0.6,0.2-1.1,0.6-1.6,1.1c-0.4,0.5-0.8,1-1.1,1.7c-0.3,0.6-0.4,1.4-0.4,2.2c0,0.8,0.1,1.5,0.4,2.2
						c0.2,0.6,0.6,1.2,1.1,1.7c0.5,0.5,1,0.8,1.7,1c0.7,0.2,1.4,0.4,2.2,0.4c0.5,0,1-0.1,1.5-0.2c0.5-0.1,0.9-0.4,1.4-0.6
						c0.4-0.3,0.8-0.6,1.1-0.9l2.1,3.4c-0.4,0.5-1,0.9-1.7,1.3s-1.5,0.7-2.4,0.9C195.4,149.4,194.5,149.5,193.6,149.5z"/>
					<path d="M203.3,149.3v-18.1h12.6v3.8h-8.3v10.5h8.6v3.8H203.3z M205.4,141.9v-3.6h9.4v3.6H205.4z"/>
					<path d="M219.9,149.3v-18.1h7.6c1.3,0,2.5,0.2,3.6,0.7c1.1,0.4,2,1.1,2.8,1.9c0.8,0.8,1.4,1.8,1.8,2.9c0.4,1.1,0.6,2.3,0.6,3.6
						c0,1.3-0.2,2.6-0.6,3.7c-0.4,1.1-1,2-1.8,2.8c-0.8,0.8-1.7,1.4-2.8,1.9c-1.1,0.4-2.3,0.7-3.6,0.7H219.9z M224.4,146.2l-0.6-0.9
						h3.6c0.7,0,1.3-0.1,1.9-0.4c0.6-0.2,1.1-0.6,1.5-1c0.4-0.5,0.7-1,0.9-1.6c0.2-0.6,0.3-1.3,0.3-2.1c0-0.8-0.1-1.5-0.3-2.1
						c-0.2-0.6-0.5-1.2-0.9-1.6c-0.4-0.5-0.9-0.8-1.5-1c-0.6-0.2-1.2-0.4-1.9-0.4h-3.7l0.6-0.8V146.2z"/>
					<path d="M239.9,149.3v-18.1h12.6v3.8h-8.3v10.5h8.6v3.8H239.9z M241.9,141.9v-3.6h9.4v3.6H241.9z"/>
					<path d="M262.5,149.5c-1.8,0-3.3-0.3-4.5-0.9c-1.2-0.6-2.3-1.5-3.2-2.7l2.7-3c0.8,1.2,1.7,1.9,2.6,2.3c0.9,0.4,1.7,0.6,2.7,0.6
						c0.5,0,0.9-0.1,1.3-0.2c0.4-0.1,0.7-0.3,0.9-0.5c0.2-0.2,0.3-0.5,0.3-0.8c0-0.3-0.1-0.5-0.2-0.7c-0.1-0.2-0.3-0.4-0.5-0.5
						c-0.2-0.2-0.5-0.3-0.8-0.4c-0.3-0.1-0.6-0.2-1-0.3c-0.4-0.1-0.7-0.2-1.1-0.2c-1-0.2-1.9-0.5-2.6-0.8c-0.7-0.3-1.3-0.7-1.8-1.2
						c-0.5-0.5-0.9-1-1.1-1.6c-0.2-0.6-0.4-1.3-0.4-2.1c0-1.1,0.3-2.1,0.9-2.9s1.5-1.5,2.5-1.9c1-0.5,2.1-0.7,3.4-0.7
						c1.8,0,3.2,0.3,4.2,0.8c1.1,0.6,1.9,1.3,2.6,2.3l-2.7,2.7c-0.5-0.7-1.1-1.2-1.8-1.5c-0.7-0.3-1.4-0.5-2.1-0.5
						c-0.5,0-0.9,0.1-1.3,0.2c-0.4,0.1-0.7,0.3-0.9,0.5c-0.2,0.2-0.3,0.5-0.3,0.8c0,0.3,0.1,0.5,0.2,0.7c0.2,0.2,0.4,0.4,0.7,0.6
						c0.3,0.2,0.6,0.3,1,0.4c0.4,0.1,0.8,0.2,1.2,0.3c0.9,0.2,1.8,0.4,2.6,0.7c0.8,0.3,1.4,0.7,2,1.1c0.5,0.5,1,1,1.3,1.6
						c0.3,0.6,0.5,1.3,0.5,2.1c0,1.2-0.3,2.3-0.9,3.2c-0.6,0.9-1.4,1.5-2.5,2C265.1,149.3,263.9,149.5,262.5,149.5z"/>
				</g>
				<polygon points="197.1,37.4 197.1,37.4 179,37.4 179,53.1 194.1,53.1 194.1,102.8 209.7,102.8 209.7,37.4 				"/>
				<path d="M145.4,35.7c-4,0-7.8,0.7-11.3,2l4.8,15.5c2-0.8,4.2-1.3,6.5-1.3c9.6,0,17.5,7.8,17.5,17.5c0,9.6-7.8,17.5-17.5,17.5
					c-9.6,0-17.3-7.7-17.5-17.2l-0.3,0.5l-6.4,7.4l-5.8,7c5.5,11,16.9,18.5,30,18.5c18.6,0,33.6-15,33.6-33.6
					C179,50.7,164,35.7,145.4,35.7z"/>
				<path class="st2" d="M145.4,86.8c9.6,0,17.5-7.8,17.5-17.5h-34.9C127.9,79,135.7,86.8,145.4,86.8z"/>
				<path class="st3" d="M110.5,51.8c-9.6,0-17.5,7.8-17.5,17.5h34.9C127.9,59.7,120.1,51.8,110.5,51.8z"/>
				<path class="st4" d="M110.5,86.8c0,9.6,7.8,17.5,17.5,17.5V69.3C118.3,69.3,110.5,77.1,110.5,86.8z"/>
				<path class="st4" d="M145.1,52.2c0-9.5-7.7-17.1-17.1-17.1v34.3C137.4,69.3,145.1,61.6,145.1,52.2z"/>
			</g>
		</g>
	</g>
	<polygon class="st1" points="81.3,83.6 28.7,93.1 81.3,98.8 	"/>
</g>
</svg>
