<?xml version="1.0" encoding="utf-8"?>
<!-- Generator: Adobe Illustrator 24.2.1, SVG Export Plug-In . SVG Version: 6.00 Build 0)  -->
<svg version="1.1" id="Layer_1" xmlns="http://www.w3.org/2000/svg" xmlns:xlink="http://www.w3.org/1999/xlink" x="0px" y="0px"
	 viewBox="0 0 266.5 42" style="enable-background:new 0 0 266.5 42;" xml:space="preserve">
<style type="text/css">
	.st0{fill:#FFFFFF;}
	.st1{fill:#B6D46C;}
	.st2{display:none;}
	.st3{display:inline;fill:#B6D46C;}
	.st4{display:inline;fill:#FFFFFF;}
	.st5{font-family:'ReadexPro-SemiBold';}
	.st6{font-size:26px;}
	.st7{font-size:24px;}
	.st8{display:inline;}
</style>
<g>
	<path class="st0" d="M0,41.4h223.4c22.9,0,41.4-18.5,41.4-41.4v0L0,0L0,41.4z"/>
	<g>
		<path class="st1" d="M29.2,29.6c-1.6,0-2.9-0.3-4-0.9c-1.1-0.6-2.1-1.4-2.9-2.5l2.3-2.5c0.8,1.1,1.6,1.8,2.3,2.2
			c0.8,0.4,1.6,0.6,2.5,0.6c0.5,0,0.9-0.1,1.3-0.2c0.4-0.1,0.7-0.3,0.9-0.6c0.2-0.3,0.3-0.6,0.3-0.9c0-0.3-0.1-0.5-0.2-0.7
			c-0.1-0.2-0.3-0.4-0.5-0.6s-0.5-0.3-0.7-0.5c-0.3-0.1-0.6-0.3-1-0.3s-0.7-0.2-1.2-0.3c-0.9-0.2-1.7-0.4-2.4-0.7S25,21,24.5,20.6
			c-0.4-0.4-0.8-0.9-1-1.5c-0.2-0.6-0.3-1.2-0.3-1.9c0-1,0.3-1.9,0.8-2.6c0.6-0.7,1.3-1.3,2.2-1.8c0.9-0.4,2-0.6,3.1-0.6
			c1.5,0,2.8,0.3,3.8,0.8c1,0.5,1.8,1.2,2.4,2.2l-2.3,2.3c-0.5-0.7-1.1-1.2-1.7-1.6c-0.6-0.4-1.3-0.5-2.1-0.5c-0.5,0-1,0.1-1.4,0.2
			s-0.7,0.3-0.9,0.6c-0.2,0.3-0.3,0.6-0.3,0.9c0,0.3,0.1,0.5,0.2,0.8c0.1,0.2,0.3,0.4,0.6,0.6s0.6,0.3,1,0.4
			c0.4,0.1,0.8,0.2,1.3,0.3c0.9,0.2,1.7,0.4,2.4,0.7c0.7,0.3,1.3,0.7,1.8,1.1c0.5,0.4,0.9,0.9,1.2,1.4c0.3,0.5,0.4,1.2,0.4,1.8
			c0,1.1-0.3,2.1-0.8,2.9s-1.3,1.4-2.3,1.8C31.6,29.4,30.5,29.6,29.2,29.6z"/>
		<path class="st1" d="M41.5,29.6c-0.8,0-1.5-0.2-2.2-0.5c-0.6-0.3-1.2-0.8-1.5-1.3c-0.4-0.6-0.6-1.2-0.6-2c0-0.7,0.1-1.2,0.4-1.7
			c0.2-0.5,0.6-0.9,1.1-1.2c0.5-0.3,1.1-0.6,1.8-0.8c0.7-0.2,1.5-0.3,2.5-0.3h3.7L46.5,24h-3.6c-0.4,0-0.7,0-1,0.1
			c-0.3,0.1-0.5,0.2-0.7,0.3c-0.2,0.1-0.4,0.3-0.5,0.5c-0.1,0.2-0.2,0.4-0.2,0.7c0,0.3,0.1,0.5,0.2,0.7s0.3,0.4,0.6,0.5
			c0.2,0.1,0.5,0.2,0.9,0.2c0.5,0,0.9-0.1,1.3-0.2s0.8-0.4,1.1-0.7s0.6-0.6,0.8-1l0.6,1.7c-0.3,0.5-0.7,1-1.2,1.4s-1,0.7-1.6,1
			C42.7,29.5,42.1,29.6,41.5,29.6z M45,29.3v-7.9c0-0.7-0.2-1.2-0.6-1.5c-0.4-0.4-1-0.5-1.6-0.5c-0.7,0-1.2,0.1-1.8,0.4
			c-0.5,0.3-1,0.7-1.4,1.2l-2.1-2c0.8-0.8,1.6-1.4,2.6-1.8c1-0.4,2-0.6,3.1-0.6c1,0,1.9,0.2,2.7,0.5c0.8,0.3,1.3,0.8,1.8,1.4
			c0.4,0.6,0.6,1.4,0.6,2.4v8.6H45z"/>
		<path class="st1" d="M50.8,29.3V16.7h3.3l0.1,2.6l-0.7,0.3c0.2-0.6,0.5-1.1,0.9-1.6c0.5-0.5,1-0.9,1.7-1.1s1.3-0.4,2-0.4
			c1,0,1.8,0.2,2.4,0.6s1.1,1,1.5,1.7c0.3,0.8,0.5,1.7,0.5,2.9v7.8h-3.4v-7.5c0-0.6-0.1-1.1-0.2-1.4c-0.2-0.4-0.4-0.7-0.7-0.8
			c-0.3-0.2-0.7-0.3-1.2-0.2c-0.4,0-0.7,0.1-1.1,0.2c-0.3,0.1-0.6,0.3-0.9,0.5c-0.2,0.2-0.4,0.5-0.6,0.8c-0.1,0.3-0.2,0.6-0.2,1v7.6
			h-1.7c-0.4,0-0.7,0-1,0C51.3,29.3,51,29.3,50.8,29.3z"/>
		<path class="st1" d="M68.8,29.6c-0.8,0-1.5-0.2-2.2-0.5c-0.6-0.3-1.2-0.8-1.5-1.3c-0.4-0.6-0.6-1.2-0.6-2c0-0.7,0.1-1.2,0.4-1.7
			c0.2-0.5,0.6-0.9,1.1-1.2c0.5-0.3,1.1-0.6,1.8-0.8c0.7-0.2,1.5-0.3,2.5-0.3H74L73.7,24h-3.6c-0.4,0-0.7,0-1,0.1
			c-0.3,0.1-0.5,0.2-0.7,0.3c-0.2,0.1-0.4,0.3-0.5,0.5c-0.1,0.2-0.2,0.4-0.2,0.7c0,0.3,0.1,0.5,0.2,0.7s0.3,0.4,0.6,0.5
			c0.2,0.1,0.5,0.2,0.9,0.2c0.5,0,0.9-0.1,1.3-0.2s0.8-0.4,1.1-0.7s0.6-0.6,0.8-1l0.6,1.7c-0.3,0.5-0.7,1-1.2,1.4s-1,0.7-1.6,1
			C70,29.5,69.4,29.6,68.8,29.6z M72.3,29.3v-7.9c0-0.7-0.2-1.2-0.6-1.5c-0.4-0.4-1-0.5-1.6-0.5c-0.7,0-1.2,0.1-1.8,0.4
			c-0.5,0.3-1,0.7-1.4,1.2l-2.1-2c0.8-0.8,1.6-1.4,2.6-1.8c1-0.4,2-0.6,3.1-0.6c1,0,1.9,0.2,2.7,0.5c0.8,0.3,1.3,0.8,1.8,1.4
			c0.4,0.6,0.6,1.4,0.6,2.4v8.6H72.3z"/>
		<path class="st1" d="M76.9,19.7v-3h8.4v3H76.9z M79.3,29.3V13.4h3.4v15.9H79.3z"/>
		<path class="st1" d="M92.8,29.6c-1.3,0-2.4-0.3-3.5-0.9c-1-0.6-1.8-1.3-2.4-2.3c-0.6-1-0.9-2.1-0.9-3.4c0-1.3,0.3-2.4,0.9-3.4
			c0.6-1,1.4-1.8,2.4-2.4c1-0.6,2.2-0.9,3.5-0.9s2.4,0.3,3.5,0.9c1,0.6,1.8,1.4,2.4,2.4c0.6,1,0.9,2.1,0.9,3.4
			c0,1.3-0.3,2.4-0.9,3.4c-0.6,1-1.4,1.8-2.4,2.3C95.3,29.3,94.1,29.6,92.8,29.6z M92.8,26.6c0.6,0,1.2-0.2,1.7-0.5
			c0.5-0.3,0.9-0.8,1.2-1.3c0.3-0.5,0.4-1.2,0.4-1.8c0-0.7-0.1-1.4-0.4-1.9c-0.3-0.6-0.7-1-1.2-1.3c-0.5-0.3-1.1-0.5-1.7-0.5
			s-1.2,0.2-1.7,0.5c-0.5,0.3-0.9,0.8-1.2,1.3c-0.3,0.5-0.4,1.2-0.4,1.9c0,0.7,0.1,1.3,0.4,1.8s0.7,1,1.2,1.3
			C91.6,26.5,92.2,26.6,92.8,26.6z"/>
		<path class="st1" d="M101.6,29.3V16.7h3.3l0.1,4.1l-0.6-0.9c0.2-0.6,0.5-1.2,0.9-1.8c0.4-0.5,0.9-0.9,1.5-1.3
			c0.6-0.3,1.2-0.5,1.8-0.5c0.3,0,0.6,0,0.8,0.1c0.2,0,0.5,0.1,0.6,0.2l-0.9,3.7c-0.2-0.1-0.4-0.2-0.7-0.2c-0.3-0.1-0.6-0.1-0.9-0.1
			c-0.4,0-0.7,0.1-1,0.2s-0.6,0.3-0.9,0.6s-0.4,0.5-0.6,0.9s-0.2,0.7-0.2,1.1v6.6H101.6z"/>
		<path class="st1" d="M113.6,14c-0.7,0-1.2-0.2-1.5-0.5c-0.4-0.3-0.6-0.8-0.6-1.4c0-0.5,0.2-1,0.6-1.3c0.4-0.3,0.9-0.5,1.5-0.5
			c0.6,0,1.1,0.2,1.5,0.5c0.4,0.3,0.6,0.8,0.6,1.4c0,0.6-0.2,1-0.6,1.3C114.8,13.9,114.3,14,113.6,14z M112,29.3V16.7h3.4v12.7H112z
			"/>
		<path class="st1" d="M124.4,29.6c-1.3,0-2.4-0.3-3.5-0.9c-1-0.6-1.8-1.3-2.4-2.3c-0.6-1-0.9-2.1-0.9-3.4c0-1.3,0.3-2.4,0.9-3.4
			c0.6-1,1.4-1.8,2.4-2.4c1-0.6,2.2-0.9,3.5-0.9s2.4,0.3,3.5,0.9c1,0.6,1.8,1.4,2.4,2.4c0.6,1,0.9,2.1,0.9,3.4
			c0,1.3-0.3,2.4-0.9,3.4c-0.6,1-1.4,1.8-2.4,2.3C126.9,29.3,125.7,29.6,124.4,29.6z M124.4,26.6c0.6,0,1.2-0.2,1.7-0.5
			c0.5-0.3,0.9-0.8,1.2-1.3c0.3-0.5,0.4-1.2,0.4-1.8c0-0.7-0.1-1.4-0.4-1.9c-0.3-0.6-0.7-1-1.2-1.3c-0.5-0.3-1.1-0.5-1.7-0.5
			s-1.2,0.2-1.7,0.5c-0.5,0.3-0.9,0.8-1.2,1.3c-0.3,0.5-0.4,1.2-0.4,1.9c0,0.7,0.1,1.3,0.4,1.8s0.7,1,1.2,1.3
			C123.2,26.5,123.8,26.6,124.4,26.6z"/>
		<path class="st1" d="M140.6,29.3V12.5h3.6v13.6h7.6v3.2H140.6z"/>
		<path class="st1" d="M157.2,29.6c-0.8,0-1.5-0.2-2.2-0.5c-0.6-0.3-1.2-0.8-1.5-1.3c-0.4-0.6-0.6-1.2-0.6-2c0-0.7,0.1-1.2,0.4-1.7
			c0.2-0.5,0.6-0.9,1.1-1.2c0.5-0.3,1.1-0.6,1.8-0.8c0.7-0.2,1.5-0.3,2.5-0.3h3.7l-0.2,2.3h-3.6c-0.4,0-0.7,0-1,0.1
			c-0.3,0.1-0.5,0.2-0.7,0.3c-0.2,0.1-0.4,0.3-0.5,0.5c-0.1,0.2-0.2,0.4-0.2,0.7c0,0.3,0.1,0.5,0.2,0.7s0.3,0.4,0.6,0.5
			c0.2,0.1,0.5,0.2,0.9,0.2c0.5,0,0.9-0.1,1.3-0.2s0.8-0.4,1.1-0.7s0.6-0.6,0.8-1l0.6,1.7c-0.3,0.5-0.7,1-1.2,1.4s-1,0.7-1.6,1
			C158.5,29.5,157.9,29.6,157.2,29.6z M160.7,29.3v-7.9c0-0.7-0.2-1.2-0.6-1.5c-0.4-0.4-1-0.5-1.6-0.5c-0.7,0-1.2,0.1-1.8,0.4
			c-0.5,0.3-1,0.7-1.4,1.2l-2.1-2c0.8-0.8,1.6-1.4,2.6-1.8c1-0.4,2-0.6,3.1-0.6c1,0,1.9,0.2,2.7,0.5c0.8,0.3,1.3,0.8,1.8,1.4
			c0.4,0.6,0.6,1.4,0.6,2.4v8.6H160.7z"/>
		<path class="st1" d="M181.2,29.6c-1.2,0-2.4-0.2-3.4-0.6c-1-0.4-1.9-1-2.7-1.8c-0.8-0.8-1.3-1.7-1.8-2.7c-0.4-1.1-0.6-2.2-0.6-3.5
			c0-1.2,0.2-2.4,0.6-3.4c0.4-1,1-2,1.8-2.7c0.8-0.8,1.7-1.4,2.7-1.8c1-0.4,2.2-0.6,3.4-0.6c0.8,0,1.6,0.1,2.4,0.3
			c0.8,0.2,1.5,0.5,2.1,1c0.6,0.4,1.2,0.9,1.7,1.5l-2.3,2.5c-0.6-0.6-1.2-1.1-1.8-1.4c-0.7-0.3-1.4-0.5-2.1-0.5
			c-0.7,0-1.3,0.1-1.9,0.4c-0.6,0.2-1.1,0.6-1.6,1.1c-0.4,0.5-0.8,1-1.1,1.7c-0.3,0.6-0.4,1.4-0.4,2.1c0,0.8,0.1,1.5,0.4,2.2
			s0.6,1.2,1.1,1.7c0.5,0.5,1,0.8,1.7,1.1c0.6,0.2,1.4,0.4,2.1,0.4c0.5,0,1-0.1,1.5-0.2c0.5-0.1,0.9-0.3,1.3-0.6
			c0.4-0.3,0.8-0.6,1.1-0.9l1.8,2.8c-0.4,0.4-0.9,0.8-1.5,1.2c-0.7,0.4-1.4,0.6-2.2,0.8C182.8,29.5,182,29.6,181.2,29.6z"/>
		<path class="st1" d="M195.3,29.6c-1.3,0-2.4-0.3-3.5-0.9c-1-0.6-1.8-1.3-2.4-2.3c-0.6-1-0.9-2.1-0.9-3.4c0-1.3,0.3-2.4,0.9-3.4
			c0.6-1,1.4-1.8,2.4-2.4c1-0.6,2.2-0.9,3.5-0.9s2.4,0.3,3.5,0.9c1,0.6,1.8,1.4,2.4,2.4s0.9,2.1,0.9,3.4c0,1.3-0.3,2.4-0.9,3.4
			s-1.4,1.8-2.4,2.3C197.8,29.3,196.6,29.6,195.3,29.6z M195.3,26.6c0.6,0,1.2-0.2,1.7-0.5c0.5-0.3,0.9-0.8,1.2-1.3s0.4-1.2,0.4-1.8
			c0-0.7-0.1-1.4-0.4-1.9s-0.7-1-1.2-1.3c-0.5-0.3-1.1-0.5-1.7-0.5s-1.2,0.2-1.7,0.5c-0.5,0.3-0.9,0.8-1.2,1.3
			c-0.3,0.5-0.4,1.2-0.4,1.9c0,0.7,0.1,1.3,0.4,1.8s0.7,1,1.2,1.3C194.1,26.5,194.7,26.6,195.3,26.6z"/>
		<path class="st1" d="M208.4,29.6c-1.2,0-2.2-0.2-3.1-0.6s-1.7-0.9-2.2-1.6l2.1-1.8c0.5,0.5,1,0.9,1.6,1.1c0.6,0.2,1.2,0.3,1.8,0.3
			c0.2,0,0.4,0,0.6-0.1c0.2-0.1,0.4-0.1,0.5-0.2c0.1-0.1,0.3-0.2,0.3-0.4s0.1-0.3,0.1-0.5c0-0.4-0.1-0.6-0.4-0.8
			c-0.1-0.1-0.4-0.2-0.7-0.3c-0.3-0.1-0.8-0.3-1.3-0.4c-0.8-0.2-1.5-0.5-2.1-0.7c-0.6-0.3-1-0.6-1.4-1c-0.3-0.3-0.5-0.7-0.7-1.1
			c-0.2-0.4-0.2-0.8-0.2-1.3c0-0.8,0.2-1.4,0.7-2s1-1,1.8-1.3c0.7-0.3,1.6-0.5,2.4-0.5c0.7,0,1.3,0.1,1.9,0.2
			c0.6,0.2,1.2,0.4,1.7,0.7s1,0.6,1.4,1l-1.8,2c-0.3-0.3-0.6-0.5-1-0.8s-0.7-0.4-1.1-0.5c-0.4-0.1-0.7-0.2-1-0.2
			c-0.3,0-0.5,0-0.7,0.1s-0.4,0.1-0.5,0.2c-0.1,0.1-0.3,0.2-0.3,0.4c-0.1,0.1-0.1,0.3-0.1,0.5c0,0.2,0,0.3,0.1,0.5s0.2,0.3,0.4,0.4
			c0.2,0.1,0.4,0.2,0.8,0.3c0.4,0.1,0.8,0.3,1.4,0.4c0.8,0.2,1.4,0.4,1.9,0.7s1,0.6,1.3,0.9c0.3,0.3,0.5,0.6,0.6,1
			c0.1,0.4,0.2,0.8,0.2,1.2c0,0.8-0.2,1.5-0.7,2.1c-0.4,0.6-1,1.1-1.8,1.4C210.2,29.4,209.3,29.6,208.4,29.6z"/>
		<path class="st1" d="M214.2,19.7v-3h8.4v3H214.2z M216.6,29.3V13.4h3.4v15.9H216.6z"/>
		<path class="st1" d="M227.8,29.6c-0.8,0-1.5-0.2-2.2-0.5c-0.6-0.3-1.2-0.8-1.5-1.3c-0.4-0.6-0.6-1.2-0.6-2c0-0.7,0.1-1.2,0.4-1.7
			c0.2-0.5,0.6-0.9,1.1-1.2c0.5-0.3,1.1-0.6,1.8-0.8c0.7-0.2,1.5-0.3,2.5-0.3h3.7l-0.2,2.3h-3.6c-0.4,0-0.7,0-1,0.1
			c-0.3,0.1-0.5,0.2-0.7,0.3c-0.2,0.1-0.4,0.3-0.5,0.5c-0.1,0.2-0.2,0.4-0.2,0.7c0,0.3,0.1,0.5,0.2,0.7c0.1,0.2,0.3,0.4,0.6,0.5
			c0.2,0.1,0.5,0.2,0.9,0.2c0.5,0,0.9-0.1,1.3-0.2c0.4-0.2,0.8-0.4,1.1-0.7s0.6-0.6,0.8-1l0.6,1.7c-0.3,0.5-0.7,1-1.2,1.4
			c-0.5,0.4-1,0.7-1.6,1C229,29.5,228.4,29.6,227.8,29.6z M231.3,29.3v-7.9c0-0.7-0.2-1.2-0.6-1.5c-0.4-0.4-1-0.5-1.6-0.5
			c-0.7,0-1.2,0.1-1.8,0.4c-0.5,0.3-1,0.7-1.4,1.2l-2.1-2c0.8-0.8,1.6-1.4,2.6-1.8c1-0.4,2-0.6,3.1-0.6c1,0,1.9,0.2,2.7,0.5
			c0.8,0.3,1.3,0.8,1.8,1.4c0.4,0.6,0.6,1.4,0.6,2.4v8.6H231.3z"/>
	</g>
</g>
<g class="st2">
	<path class="st3" d="M334.6,41.4H41.4C18.5,41.4,0,22.9,0,0v0l334.6,0V41.4z"/>
	<text transform="matrix(1 0 0 1 30.4914 29.3464)" class="st4 st5 st6">Costanera de Asunción</text>
</g>
<g class="st2">
	<path class="st3" d="M314.8,41.4H41.4C18.5,41.4,0,22.9,0,0v0l314.8,0V41.4z"/>
	<text transform="matrix(1 0 0 1 30.4914 29.3463)" class="st4 st5 st7">Estadio Tigo La Huerta</text>
</g>
<g class="st2">
	<path class="st3" d="M0,0l273.4,0c22.9,0,41.4,18.5,41.4,41.4v0H0L0,0z"/>
	<g class="st8">
		<text transform="matrix(1 0 0 1 16.0479 29.1184)" class="st0 st5 st7">Parroquia Las Mercedes</text>
	</g>
</g>
<g class="st2">
	<path class="st3" d="M0,0l139.6,0C162.4,0,181,18.5,181,41.4v0H0L0,0z"/>
	<g class="st8">
		<text transform="matrix(1 0 0 1 16.5566 29.1184)" class="st0 st5 st7">La Quesería</text>
	</g>
</g>
<g class="st2">
	<path class="st3" d="M304.8,0L41.4,0C18.5,0,0,18.5,0,41.4v0h304.8V0z"/>
	<g class="st8">
		<text transform="matrix(1 0 0 1 23.7492 29.1177)" class="st0 st5 st7">Club Deportivo Alemán</text>
	</g>
</g>
<g class="st2">
	<path class="st3" d="M0,41.4h240.4c22.9,0,41.4-18.5,41.4-41.4v0L0,0L0,41.4z"/>
	<text transform="matrix(1 0 0 1 13.6283 29.2111)" class="st4 st5 st7">Supermercado Stock</text>
</g>
<g class="st2">
	<path class="st3" d="M0,0l207.9,0c22.9,0,41.4,18.5,41.4,41.4v0H0L0,0z"/>
	<g class="st8">
		<text transform="matrix(1 0 0 1 22.3021 29.1182)" class="st0 st5 st7">Colegio San José</text>
	</g>
</g>
<g class="st2">
	<path class="st3" d="M0,41.4h240.4c22.9,0,41.4-18.5,41.4-41.4v0L0,0L0,41.4z"/>
	<text transform="matrix(1 0 0 1 13.6283 29.211)" class="st4 st5 st7">Sanatorio Americano</text>
</g>
<g class="st2">
	<path class="st3" d="M287.6,0L41.4,0C18.5,0,0,18.5,0,41.4v0h287.6V0z"/>
	<g class="st8">
		<text transform="matrix(1 0 0 1 23.7492 29.1177)" class="st0 st5 st7">Superseis Mundimark</text>
	</g>
</g>
<g class="st2">
	<path class="st3" d="M0,41.4h254.3c22.9,0,41.4-18.5,41.4-41.4v0L0,0L0,41.4z"/>
	<g class="st8">
		<text transform="matrix(1 0 0 1 16.0259 27.6927)" class="st0 st5 st7">Universidad Columbia</text>
	</g>
</g>
<g class="st2">
	<path class="st3" d="M190.1,0L41.4,0C18.5,0,0,18.5,0,41.4v0h190.1V0z"/>
	<g class="st8">
		<text transform="matrix(1 0 0 1 23.7492 29.1179)" class="st0 st5 st7">Club Olimpia</text>
	</g>
</g>
<g class="st2">
	<path class="st3" d="M0,41.4h250.2c22.9,0,41.4-18.5,41.4-41.4v0L0,0L0,41.4z"/>
	<text transform="matrix(1 0 0 1 13.8814 28.3068)" class="st4 st5 st7">Colegio Internacional</text>
</g>
</svg>
