<svg width="130" height="154" viewBox="0 0 130 154" fill="none" xmlns="http://www.w3.org/2000/svg">
<g clip-path="url(#clip0_2694_1581)">
<path d="M11.6659 11.5962C10.8226 12.3033 10.1199 13.0103 9.27669 13.8588C6.1848 16.9699 3.65507 20.6467 1.6875 24.7477L19.6767 42.8487L1.82804 60.9497C3.79561 64.9093 6.32534 68.5861 9.41723 71.8386C10.1199 72.6871 10.9632 73.3942 11.8064 74.1012L42.7253 42.9901L11.6659 11.5962Z" fill="#63A130"/>
<path d="M106.529 84.2827H128.735V1.41406H90.3672V19.2322H106.529V84.2827Z" fill="#2B3742"/>
<path d="M42.5867 19.0909C54.9543 19.0909 64.511 28 64.511 42.7071C64.511 57.4141 54.9543 66.6061 42.5867 66.6061C38.7921 66.6061 35.4191 65.7576 32.3272 64.0606L17.9921 78.6263C25.3002 83.1515 33.7326 85.697 42.5867 85.697C66.057 85.697 87.7002 67.7374 87.7002 42.7071C87.7002 17.3939 66.1975 0 42.5867 0C33.7326 0 25.1597 2.54545 17.8516 7.07071L32.3272 21.4949C35.4191 19.9394 38.7921 19.0909 42.5867 19.0909Z" fill="#2B3742"/>
<path d="M26.1405 116.949C25.0162 116.101 23.7514 115.394 22.2054 114.828C20.6595 114.262 18.8324 113.838 17.0054 113.414C15.8811 113.131 14.8973 112.848 14.1946 112.707C13.4919 112.424 12.7892 112.283 12.3676 112C11.9459 111.717 11.6649 111.434 11.3838 111.151C11.2432 110.869 11.1027 110.586 11.1027 110.161V110.02C11.1027 109.454 11.3838 108.889 11.9459 108.465C12.5081 108.04 13.3514 107.899 14.4757 107.899C16.0216 107.899 17.5676 108.182 19.2541 108.747C20.9405 109.313 22.4865 110.161 24.0324 111.293L28.6703 104.646C26.8432 103.091 24.7351 101.959 22.4865 101.252C20.2378 100.545 17.5676 100.121 14.7568 100.121C12.7892 100.121 10.9622 100.404 9.27568 100.97C7.72973 101.535 6.32432 102.242 5.2 103.232C4.07568 104.222 3.23243 105.353 2.52973 106.626C1.96757 107.899 1.68649 109.454 1.68649 111.01V111.151C1.68649 112.848 1.96757 114.404 2.67027 115.535C3.37297 116.667 4.21622 117.656 5.34054 118.505C6.46486 119.353 7.87027 119.919 9.41622 120.485C10.9622 121.05 12.6486 121.475 14.4757 121.899C15.6 122.182 16.5838 122.465 17.2865 122.606C17.9892 122.747 18.5514 123.03 18.973 123.313C19.3946 123.596 19.6757 123.879 19.8162 124.161C19.9568 124.444 20.0973 124.727 20.0973 125.151V125.293C20.0973 126 19.8162 126.566 19.1135 126.99C18.4108 127.414 17.427 127.555 16.3027 127.555C12.3676 127.555 8.71351 126.141 5.34054 123.454L0 129.535C2.10811 131.374 4.4973 132.788 7.16757 133.778C9.83784 134.768 12.7892 135.192 15.7405 135.192C17.8486 135.192 19.6757 134.909 21.3622 134.485C23.0486 133.919 24.4541 133.212 25.7189 132.364C26.8432 131.374 27.827 130.242 28.5297 128.828C29.2324 127.414 29.5135 125.858 29.5135 124.161V124.02C29.5135 122.465 29.2324 121.05 28.6703 119.919C28.1081 118.788 27.2649 117.798 26.1405 116.949Z" fill="#2B3742"/>
<path d="M45.5363 112.99L38.6498 100.545H27.9688L40.7579 121.899V134.626H50.1742V121.758L63.1039 100.545H52.5633L45.5363 112.99Z" fill="#2B3742"/>
<path d="M87.2754 118.646L73.3619 100.545H64.5078V134.626H73.7835V115.96L88.2592 134.626H96.551V100.545H87.2754V118.646Z" fill="#2B3742"/>
<path d="M122.969 122.606C122.407 123.172 121.985 123.738 121.423 124.303C120.861 124.869 120.299 125.293 119.737 125.576C119.174 126 118.472 126.283 117.769 126.424C117.066 126.566 116.223 126.707 115.38 126.707C114.256 126.707 113.131 126.424 112.147 126C111.164 125.576 110.32 124.869 109.618 124.02C108.915 123.172 108.353 122.182 107.931 121.192C107.51 120.061 107.369 118.929 107.369 117.657V117.515C107.369 116.243 107.51 115.111 107.931 113.98C108.353 112.849 108.915 111.859 109.618 111.152C110.32 110.303 111.164 109.738 112.147 109.172C113.131 108.748 114.256 108.465 115.38 108.465C117.066 108.465 118.472 108.889 119.596 109.596C120.72 110.303 121.845 111.293 122.829 112.566L129.856 107.051C129.153 106.061 128.31 105.071 127.326 104.222C126.342 103.374 125.358 102.525 124.093 101.96C122.829 101.394 121.564 100.828 120.158 100.546C118.753 100.263 117.207 99.98 115.38 99.98C112.85 99.98 110.461 100.404 108.212 101.394C106.104 102.243 104.137 103.515 102.591 105.212C101.045 106.768 99.7799 108.748 98.9367 110.869C98.0934 112.99 97.5312 115.394 97.5312 117.798V117.94C97.5312 120.485 97.9529 122.748 98.9367 125.01C99.9204 127.132 101.045 128.97 102.591 130.667C104.137 132.222 105.964 133.495 108.072 134.344C110.18 135.192 112.429 135.616 114.958 135.616C116.785 135.616 118.472 135.475 120.018 135.051C121.564 134.626 122.829 134.061 124.093 133.495C125.358 132.788 126.342 131.94 127.326 131.091C128.31 130.101 129.153 129.111 129.996 127.98L122.969 122.606Z" fill="#2B3742"/>
<path d="M5.34113 144.242L0.984375 153.858H2.1087L3.23302 151.313H8.43302L9.55735 153.858H10.6817L6.46546 144.242H5.34113ZM3.65464 150.323L5.90329 145.515L8.15194 150.323H3.65464Z" fill="#2B3742"/>
<path d="M25.8631 149.475C25.301 149.05 24.5983 148.768 23.4739 148.485C22.9118 148.343 22.4902 148.202 22.2091 148.202C21.928 148.061 21.6469 147.919 21.3658 147.778C21.2253 147.636 21.0848 147.495 20.9442 147.212C20.8037 147.071 20.8037 146.788 20.8037 146.646C20.8037 146.364 20.8037 146.222 20.9442 146.081C21.0848 145.939 21.2253 145.798 21.3658 145.657C21.5064 145.515 21.7875 145.374 22.0685 145.374C22.3496 145.232 22.6307 145.232 22.9118 145.232C23.4739 145.232 23.8956 145.374 24.3172 145.515C24.7388 145.657 25.1604 145.939 25.7226 146.364L26.2848 145.515C25.7226 145.091 25.301 144.808 24.7388 144.667C24.1766 144.525 23.6145 144.384 22.9118 144.384C22.4902 144.384 22.0685 144.384 21.6469 144.525C21.2253 144.667 20.9442 144.808 20.6631 145.091C20.3821 145.374 20.101 145.657 19.9604 145.939C19.8199 146.222 19.6793 146.646 19.6793 146.929C19.6793 147.353 19.6793 147.636 19.8199 147.919C19.9604 148.202 20.101 148.485 20.3821 148.626C20.6631 148.909 20.9442 149.05 21.3658 149.192C21.7875 149.333 22.2091 149.475 22.7712 149.616C23.3334 149.758 23.755 149.899 24.0361 149.899C24.3172 150.04 24.5983 150.182 24.7388 150.323C24.8793 150.465 25.0199 150.606 25.1604 150.747C25.301 150.889 25.301 151.172 25.301 151.313C25.301 151.737 25.1604 152.162 24.7388 152.444C24.3172 152.727 23.8956 152.869 23.1929 152.869C22.4902 152.869 21.928 152.727 21.3658 152.586C20.8037 152.303 20.3821 152.02 19.8199 151.596L19.1172 152.444C19.6793 153.01 20.2415 153.293 20.9442 153.576C21.6469 153.859 22.3496 154 23.0523 154C23.4739 154 24.0361 154 24.3172 153.859C24.7388 153.717 25.0199 153.576 25.301 153.293C25.5821 153.01 25.8631 152.727 26.0037 152.444C26.1442 152.162 26.2848 151.737 26.2848 151.313C26.5658 150.465 26.2848 149.899 25.8631 149.475Z" fill="#2B3742"/>
<path d="M43.1442 149.899C43.1442 150.889 42.8631 151.737 42.301 152.303C41.7388 152.868 41.0361 153.151 40.1929 153.151C39.2091 153.151 38.5064 152.868 38.0848 152.303C37.5226 151.737 37.2415 150.889 37.2415 149.899V144.242H36.1172V149.757C36.1172 150.464 36.2577 151.03 36.3983 151.596C36.5388 152.161 36.8199 152.586 37.2415 152.868C37.6631 153.151 38.0848 153.434 38.5064 153.717C38.928 153.858 39.4902 154 40.1929 154C40.755 154 41.3172 153.858 41.8793 153.717C42.4415 153.576 42.7226 153.293 43.1442 152.868C43.5658 152.586 43.7064 152.02 43.9875 151.596C44.128 151.03 44.2685 150.464 44.2685 149.757V144.242H43.1442V149.899Z" fill="#2B3742"/>
<path d="M61.4176 151.879L55.2338 144.242H54.25V153.858H55.3743V146.081L61.5581 153.858H62.4014V144.242H61.4176V151.879Z" fill="#2B3742"/>
<path d="M78.8398 152.586C78.4182 152.868 77.856 153.01 77.1533 153.01C76.5911 153.01 76.1695 152.868 75.6073 152.727C75.1857 152.586 74.7641 152.303 74.483 151.879C74.2019 151.596 73.9209 151.171 73.6398 150.606C73.4992 150.182 73.3587 149.616 73.3587 149.05C73.3587 148.485 73.4992 147.919 73.6398 147.495C73.7803 147.07 74.0614 146.646 74.483 146.222C74.7641 145.939 75.1857 145.656 75.6073 145.374C76.029 145.232 76.5911 145.091 77.1533 145.091C77.856 145.091 78.4182 145.232 78.8398 145.515C79.2614 145.798 79.683 146.081 80.1046 146.505L80.8073 145.656C80.5263 145.374 80.3857 145.232 80.1046 145.091C79.8236 144.949 79.5425 144.808 79.2614 144.666C78.9803 144.525 78.6992 144.384 78.2776 144.384C77.856 144.242 77.5749 144.242 77.1533 144.242C76.4506 144.242 75.7479 144.384 75.1857 144.666C74.6236 144.949 74.0614 145.232 73.6398 145.656C73.2182 146.081 72.9371 146.646 72.656 147.212C72.3749 147.778 72.2344 148.485 72.2344 149.192C72.2344 149.899 72.3749 150.464 72.656 151.171C72.9371 151.737 73.2182 152.303 73.6398 152.727C74.0614 153.151 74.6236 153.576 75.1857 153.717C75.7479 154 76.4506 154.141 77.1533 154.141C77.5749 154.141 77.9965 154.141 78.4182 154C78.8398 153.858 79.1209 153.858 79.4019 153.717C79.683 153.576 79.9641 153.434 80.2452 153.151C80.5263 153.01 80.8073 152.727 81.0884 152.444L80.3857 151.737C79.683 152.02 79.2614 152.444 78.8398 152.586Z" fill="#2B3742"/>
<path d="M91.4915 144.242H90.3672V153.717H91.4915V144.242Z" fill="#2B3742"/>
<path d="M109.901 145.657C109.48 145.232 108.917 144.808 108.355 144.525C107.793 144.242 107.09 144.101 106.388 144.101C105.685 144.101 104.982 144.242 104.42 144.525C103.858 144.808 103.296 145.091 102.874 145.657C102.453 146.081 102.171 146.647 101.89 147.212C101.609 147.778 101.469 148.485 101.469 149.051C101.469 149.758 101.609 150.323 101.75 150.889C102.031 151.455 102.312 152.02 102.734 152.445C103.155 152.869 103.717 153.293 104.28 153.576C104.842 153.859 105.544 154 106.247 154C106.95 154 107.653 153.859 108.215 153.576C108.777 153.293 109.339 153.01 109.761 152.445C110.182 151.879 110.463 151.455 110.744 150.889C111.026 150.323 111.166 149.616 111.166 149.051C111.166 148.343 111.026 147.778 110.885 147.212C110.604 146.647 110.323 146.081 109.901 145.657ZM109.761 150.606C109.62 151.03 109.339 151.455 108.917 151.879C108.636 152.162 108.215 152.445 107.793 152.727C107.371 152.869 106.809 153.01 106.247 153.01C105.685 153.01 105.123 152.869 104.701 152.727C104.28 152.586 103.858 152.303 103.436 151.879C103.155 151.596 102.874 151.172 102.593 150.606C102.453 150.182 102.312 149.616 102.312 149.051C102.312 148.485 102.453 148.061 102.593 147.495C102.734 146.929 103.015 146.647 103.436 146.222C103.717 145.939 104.139 145.657 104.561 145.374C104.982 145.232 105.544 145.091 106.107 145.091C106.669 145.091 107.231 145.232 107.653 145.374C108.074 145.515 108.496 145.798 108.917 146.222C109.198 146.505 109.48 146.929 109.761 147.495C109.901 147.919 110.042 148.485 110.042 149.051C110.042 149.616 110.042 150.182 109.761 150.606Z" fill="#2B3742"/>
<path d="M108.358 141.98L107.234 141.556L105.969 143.535H106.812L108.358 141.98Z" fill="#2B3742"/>
<path d="M128.175 144.242V151.879L121.992 144.242H121.008V153.858H122.132V146.081L128.316 153.858H129.159V144.242H128.175Z" fill="#2B3742"/>
</g>
<defs>
<clipPath id="clip0_2694_1581">
<rect width="130" height="154" fill="white"/>
</clipPath>
</defs>
</svg>
