<svg width="107" height="127" viewBox="0 0 107 127" fill="none" xmlns="http://www.w3.org/2000/svg">
<g clip-path="url(#clip0_617_3839)">
<path d="M9.60165 9.53223C8.90759 10.1135 8.32921 10.6947 7.63516 11.3922C5.09029 13.9496 3.00813 16.972 1.38867 20.3431L16.1952 35.2225L1.50435 50.102C3.12381 53.3568 5.20597 56.3792 7.75083 59.0529C8.32921 59.7504 9.02327 60.3316 9.71732 60.9128L35.166 35.3388L9.60165 9.53223Z" fill="white"/>
<path d="M87.6816 69.2826H105.958V1.1626H74.3789V15.8096H87.6816V69.2826Z" fill="white"/>
<path d="M35.0503 15.6932C45.2298 15.6932 53.0957 23.0166 53.0957 35.1062C53.0957 47.1957 45.2298 54.7517 35.0503 54.7517C31.9271 54.7517 29.1509 54.0542 26.606 52.6593L14.8071 64.6326C20.8222 68.3525 27.7628 70.4449 35.0503 70.4449C54.3682 70.4449 72.1822 55.6817 72.1822 35.1062C72.1822 14.2982 54.4838 0 35.0503 0C27.7628 0 20.7065 2.09242 14.6914 5.81228L26.606 17.6693C29.1509 16.3906 31.9271 15.6932 35.0503 15.6932Z" fill="white"/>
<path d="M21.5157 96.135C20.5903 95.4375 19.5492 94.8563 18.2768 94.3913C17.0043 93.9263 15.5005 93.5776 13.9968 93.2288C13.0714 92.9964 12.2616 92.7639 11.6832 92.6476C11.1049 92.4151 10.5265 92.2989 10.1795 92.0664C9.83243 91.8339 9.60108 91.6014 9.36973 91.3689C9.25405 91.1364 9.13838 90.9039 9.13838 90.5552V90.439C9.13838 89.974 9.36973 89.509 9.83243 89.1602C10.2951 88.8115 10.9892 88.6953 11.9146 88.6953C13.187 88.6953 14.4595 88.9278 15.8476 89.3927C17.2357 89.8577 18.5081 90.5552 19.7805 91.4852L23.5978 86.0216C22.0941 84.7429 20.3589 83.8129 18.5081 83.2317C16.6573 82.6505 14.4595 82.3018 12.1459 82.3018C10.5265 82.3018 9.0227 82.5342 7.63459 82.9992C6.36216 83.4642 5.20541 84.0454 4.28 84.8592C3.35459 85.6729 2.66054 86.6028 2.08216 87.6491C1.61946 88.6953 1.38811 89.974 1.38811 91.2527V91.3689C1.38811 92.7639 1.61946 94.0426 2.19784 94.9725C2.77622 95.9025 3.47027 96.7162 4.39568 97.4137C5.32108 98.1112 6.47784 98.5761 7.75027 99.0411C9.0227 99.5061 10.4108 99.8548 11.9146 100.204C12.84 100.436 13.6497 100.669 14.2281 100.785C14.8065 100.901 15.2692 101.134 15.6162 101.366C15.9632 101.599 16.1946 101.831 16.3103 102.064C16.4259 102.296 16.5416 102.529 16.5416 102.877V102.993C16.5416 103.575 16.3103 104.04 15.7319 104.388C15.1535 104.737 14.3438 104.853 13.4184 104.853C10.1795 104.853 7.17189 103.691 4.39568 101.482L0 106.481C1.73514 107.992 3.70162 109.155 5.89946 109.968C8.0973 110.782 10.5265 111.131 12.9557 111.131C14.6908 111.131 16.1946 110.898 17.5827 110.549C18.9708 110.084 20.1276 109.503 21.1686 108.806C22.0941 107.992 22.9038 107.062 23.4822 105.9C24.0605 104.737 24.2919 103.458 24.2919 102.064V101.947C24.2919 100.669 24.0605 99.5061 23.5978 98.5762C23.1351 97.6462 22.4411 96.8325 21.5157 96.135Z" fill="white"/>
<path d="M37.479 92.8805L31.8109 82.6509H23.0195L33.546 100.204V110.666H41.2963V100.088L51.9385 82.6509H43.2628L37.479 92.8805Z" fill="white"/>
<path d="M71.8352 97.5303L60.3833 82.6509H53.0957V110.666H60.7303V95.3217L72.6449 110.666H79.4697V82.6509H71.8352V97.5303Z" fill="white"/>
<path d="M101.217 100.785C100.754 101.25 100.407 101.715 99.9442 102.18C99.4815 102.645 99.0188 102.994 98.556 103.226C98.0933 103.575 97.515 103.807 96.9366 103.923C96.3582 104.04 95.6642 104.156 94.9701 104.156C94.0447 104.156 93.1193 103.923 92.3096 103.575C91.4998 103.226 90.8058 102.645 90.2274 101.947C89.649 101.25 89.1863 100.436 88.8393 99.6224C88.4923 98.6924 88.3766 97.7625 88.3766 96.7163V96.6C88.3766 95.5538 88.4923 94.6238 88.8393 93.6939C89.1863 92.7639 89.649 91.9502 90.2274 91.369C90.8058 90.6715 91.4998 90.2065 92.3096 89.7415C93.1193 89.3928 94.0447 89.1603 94.9701 89.1603C96.3582 89.1603 97.515 89.509 98.4404 90.0903C99.3658 90.6715 100.291 91.4852 101.101 92.5314L106.885 87.9978C106.306 87.1841 105.612 86.3704 104.803 85.6729C103.993 84.9754 103.183 84.278 102.142 83.813C101.101 83.348 100.06 82.883 98.9031 82.6505C97.7463 82.418 96.4739 82.1855 94.9701 82.1855C92.8879 82.1855 90.9215 82.5343 89.0706 83.348C87.3355 84.0455 85.7161 85.0917 84.4436 86.4866C83.1712 87.7653 82.1301 89.3928 81.4361 91.1365C80.742 92.8802 80.2793 94.8563 80.2793 96.8325V96.9488C80.2793 99.0412 80.6263 100.901 81.4361 102.761C82.2458 104.505 83.1712 106.016 84.4436 107.411C85.7161 108.69 87.2198 109.736 88.955 110.433C90.6901 111.131 92.5409 111.479 94.6231 111.479C96.1269 111.479 97.515 111.363 98.7874 111.014C100.06 110.666 101.101 110.201 102.142 109.736C103.183 109.155 103.993 108.457 104.803 107.76C105.612 106.946 106.306 106.132 107 105.202L101.217 100.785Z" fill="white"/>
<path d="M4.39649 118.571L0.810547 126.476H1.73595L2.66136 124.383H6.94136L7.86676 126.476H8.79217L5.3219 118.571H4.39649ZM3.00838 123.569L4.85919 119.617L6.71001 123.569H3.00838Z" fill="white"/>
<path d="M21.2849 122.872C20.8222 122.523 20.2438 122.291 19.3184 122.058C18.8557 121.942 18.5086 121.826 18.2773 121.826C18.0459 121.709 17.8146 121.593 17.5832 121.477C17.4676 121.361 17.3519 121.244 17.2362 121.012C17.1205 120.896 17.1205 120.663 17.1205 120.547C17.1205 120.314 17.1205 120.198 17.2362 120.082C17.3519 119.966 17.4676 119.849 17.5832 119.733C17.6989 119.617 17.9303 119.501 18.1616 119.501C18.393 119.384 18.6243 119.384 18.8557 119.384C19.3184 119.384 19.6654 119.501 20.0124 119.617C20.3594 119.733 20.7065 119.966 21.1692 120.314L21.6319 119.617C21.1692 119.268 20.8222 119.036 20.3594 118.92C19.8967 118.803 19.434 118.687 18.8557 118.687C18.5086 118.687 18.1616 118.687 17.8146 118.803C17.4676 118.92 17.2362 119.036 17.0049 119.268C16.7735 119.501 16.5422 119.733 16.4265 119.966C16.3108 120.198 16.1951 120.547 16.1951 120.779C16.1951 121.128 16.1951 121.361 16.3108 121.593C16.4265 121.826 16.5422 122.058 16.7735 122.174C17.0049 122.407 17.2362 122.523 17.5832 122.639C17.9303 122.756 18.2773 122.872 18.74 122.988C19.2027 123.104 19.5497 123.221 19.7811 123.221C20.0124 123.337 20.2438 123.453 20.3594 123.569C20.4751 123.686 20.5908 123.802 20.7065 123.918C20.8222 124.034 20.8222 124.267 20.8222 124.383C20.8222 124.732 20.7065 125.081 20.3594 125.313C20.0124 125.546 19.6654 125.662 19.087 125.662C18.5086 125.662 18.0459 125.546 17.5832 125.429C17.1205 125.197 16.7735 124.964 16.3108 124.616L15.7324 125.313C16.1951 125.778 16.6578 126.01 17.2362 126.243C17.8146 126.475 18.393 126.592 18.9713 126.592C19.3184 126.592 19.7811 126.592 20.0124 126.475C20.3594 126.359 20.5908 126.243 20.8222 126.01C21.0535 125.778 21.2849 125.546 21.4005 125.313C21.5162 125.081 21.6319 124.732 21.6319 124.383C21.8632 123.686 21.6319 123.221 21.2849 122.872Z" fill="white"/>
<path d="M35.5123 123.221C35.5123 124.034 35.2809 124.732 34.8182 125.197C34.3555 125.662 33.7772 125.894 33.0831 125.894C32.2734 125.894 31.695 125.662 31.348 125.197C30.8853 124.732 30.6539 124.034 30.6539 123.221V118.571H29.7285V123.104C29.7285 123.686 29.8442 124.151 29.9599 124.616C30.0755 125.081 30.3069 125.429 30.6539 125.662C31.0009 125.894 31.348 126.127 31.695 126.359C32.042 126.476 32.5047 126.592 33.0831 126.592C33.5458 126.592 34.0085 126.476 34.4712 126.359C34.9339 126.243 35.1653 126.011 35.5123 125.662C35.8593 125.429 35.975 124.964 36.2064 124.616C36.322 124.151 36.4377 123.686 36.4377 123.104V118.571H35.5123V123.221Z" fill="white"/>
<path d="M50.5499 124.848L45.4601 118.571H44.6504V126.476H45.5758V120.082L50.6655 126.476H51.3596V118.571H50.5499V124.848Z" fill="white"/>
<path d="M64.8938 125.429C64.5468 125.662 64.0841 125.778 63.5057 125.778C63.043 125.778 62.6959 125.662 62.2332 125.546C61.8862 125.429 61.5392 125.197 61.3078 124.848C61.0765 124.616 60.8451 124.267 60.6138 123.802C60.4981 123.453 60.3824 122.988 60.3824 122.523C60.3824 122.058 60.4981 121.593 60.6138 121.244C60.7295 120.896 60.9608 120.547 61.3078 120.198C61.5392 119.966 61.8862 119.733 62.2332 119.501C62.5803 119.385 63.043 119.268 63.5057 119.268C64.0841 119.268 64.5468 119.385 64.8938 119.617C65.2408 119.85 65.5878 120.082 65.9349 120.431L66.5132 119.733C66.2819 119.501 66.1662 119.385 65.9349 119.268C65.7035 119.152 65.4722 119.036 65.2408 118.92C65.0095 118.803 64.7781 118.687 64.4311 118.687C64.0841 118.571 63.8527 118.571 63.5057 118.571C62.9273 118.571 62.3489 118.687 61.8862 118.92C61.4235 119.152 60.9608 119.385 60.6138 119.733C60.2668 120.082 60.0354 120.547 59.8041 121.012C59.5727 121.477 59.457 122.058 59.457 122.639C59.457 123.221 59.5727 123.686 59.8041 124.267C60.0354 124.732 60.2668 125.197 60.6138 125.546C60.9608 125.894 61.4235 126.243 61.8862 126.359C62.3489 126.592 62.9273 126.708 63.5057 126.708C63.8527 126.708 64.1997 126.708 64.5468 126.592C64.8938 126.476 65.1251 126.476 65.3565 126.359C65.5878 126.243 65.8192 126.127 66.0505 125.894C66.2819 125.778 66.5132 125.546 66.7446 125.313L66.1662 124.732C65.5878 124.964 65.2408 125.313 64.8938 125.429Z" fill="white"/>
<path d="M75.3043 118.571H74.3789V126.359H75.3043V118.571Z" fill="white"/>
<path d="M90.4581 119.733C90.1111 119.385 89.6484 119.036 89.1857 118.803C88.723 118.571 88.1446 118.455 87.5662 118.455C86.9878 118.455 86.4095 118.571 85.9468 118.803C85.4841 119.036 85.0214 119.268 84.6743 119.733C84.3273 120.082 84.096 120.547 83.8646 121.012C83.6333 121.477 83.5176 122.058 83.5176 122.523C83.5176 123.104 83.6333 123.569 83.7489 124.034C83.9803 124.499 84.2116 124.964 84.5587 125.313C84.9057 125.662 85.3684 126.011 85.8311 126.243C86.2938 126.476 86.8722 126.592 87.4506 126.592C88.0289 126.592 88.6073 126.476 89.07 126.243C89.5327 126.011 89.9954 125.778 90.3424 125.313C90.6895 124.848 90.9208 124.499 91.1522 124.034C91.3835 123.569 91.4992 122.988 91.4992 122.523C91.4992 121.942 91.3835 121.477 91.2679 121.012C91.0365 120.547 90.8051 120.082 90.4581 119.733ZM90.3424 123.802C90.2268 124.151 89.9954 124.499 89.6484 124.848C89.417 125.081 89.07 125.313 88.723 125.546C88.376 125.662 87.9133 125.778 87.4506 125.778C86.9879 125.778 86.5251 125.662 86.1781 125.546C85.8311 125.429 85.4841 125.197 85.137 124.848C84.9057 124.616 84.6743 124.267 84.443 123.802C84.3273 123.453 84.2116 122.988 84.2116 122.523C84.2116 122.058 84.3273 121.709 84.443 121.244C84.5587 120.78 84.79 120.547 85.137 120.198C85.3684 119.966 85.7154 119.733 86.0624 119.501C86.4095 119.385 86.8722 119.268 87.3349 119.268C87.7976 119.268 88.2603 119.385 88.6073 119.501C88.9543 119.617 89.3014 119.85 89.6484 120.198C89.8797 120.431 90.1111 120.78 90.3424 121.244C90.4581 121.593 90.5738 122.058 90.5738 122.523C90.5738 122.988 90.5738 123.453 90.3424 123.802Z" fill="white"/>
<path d="M89.1852 116.711L88.2598 116.362L87.2188 117.989H87.9128L89.1852 116.711Z" fill="white"/>
<path d="M105.497 118.571V124.848L100.407 118.571H99.5977V126.476H100.523V120.082L105.613 126.476H106.307V118.571H105.497Z" fill="white"/>
</g>
<defs>
<clipPath id="clip0_617_3839">
<rect width="107" height="126.592" fill="white"/>
</clipPath>
</defs>
</svg>
