<?xml version="1.0" encoding="utf-8"?>
<!-- Generator: Adobe Illustrator 24.2.1, SVG Export Plug-In . SVG Version: 6.00 Build 0)  -->
<svg version="1.1" id="Layer_1" xmlns="http://www.w3.org/2000/svg" xmlns:xlink="http://www.w3.org/1999/xlink" x="0px" y="0px"
	 viewBox="0 0 108.2 100.9" style="enable-background:new 0 0 108.2 100.9;" xml:space="preserve">
<style type="text/css">
	.st0{fill:#00A786;}
	.st1{fill:#3BB274;}
	.st2{fill:#FFFFFF;}
</style>
<g id="_x30_1_BATTLE">
	<g>
		
			<image style="overflow:visible;opacity:0.34;" width="93" height="110" xlink:href="3039F1A1128F4431.png"  transform="matrix(1 0 0 1 21.9052 -1.9395)">
		</image>
		<g>
			<rect x="25.6" y="1.9" class="st0" width="79.6" height="96.5"/>
		</g>
	</g>
	<rect x="38.6" y="73.4" class="st1" width="53.7" height="8"/>
	<g>
		<g id="_x30_1VILA_B_00000002386833543649034720000016209475427480486033_">
			<g>
				<g>
					<g>
						<path class="st2" d="M36.7,24.2c0-4.5,3.9-7.6,8.1-7.6c4.2,0,8.1,3.1,8.1,7.6c0,4.5-3.9,7.7-8.1,7.7
							C40.5,31.9,36.7,28.7,36.7,24.2 M48.7,24.2c0-2.6-1.7-4.2-3.9-4.2c-2.2,0-3.9,1.6-3.9,4.2c0,2.6,1.7,4.3,3.9,4.3
							C46.9,28.5,48.7,26.9,48.7,24.2"/>
						<polygon class="st2" points="57.1,20.1 54.1,20.1 54.1,16.9 61,16.9 61,31.6 57.1,31.6 						"/>
						<path class="st2" d="M36.9,41.5c0-4.3,3.3-7.2,7.4-7.2c2.5,0,4.5,0.9,5.7,2.7l-0.7,0.5c-1.1-1.5-2.8-2.4-5.1-2.4
							c-3.7,0-6.5,2.7-6.5,6.4c0,3.7,2.8,6.4,6.5,6.4c2.2,0,4.1-0.9,5.2-2.5l0.7,0.5c-1.3,1.8-3.4,2.8-5.9,2.8
							C40.2,48.7,36.9,45.7,36.9,41.5"/>
						<polygon class="st2" points="53.4,34.5 61.8,34.5 61.8,35.2 54.3,35.2 54.3,42.7 61,42.7 61,43.5 54.3,43.5 54.3,47.8 
							62.1,47.8 62.1,48.5 53.4,48.5 						"/>
						<path class="st2" d="M74.3,48.5h-1l-3-4c-0.5,0.1-1.1,0.2-1.8,0.2h-2v3.8h-0.9v-14h2.9c3.9,0,5.7,2.3,5.7,5.1
							c0,2.1-1,3.8-3.1,4.6L74.3,48.5z M68.4,43.9c3.6,0,4.9-2,4.9-4.4c0-2.3-1.3-4.4-4.9-4.4h-1.9v8.7H68.4z"/>
						<path class="st2" d="M77,41.5c0-4.3,3.3-7.2,7.4-7.2c4.1,0,7.4,2.9,7.4,7.2c0,4.3-3.3,7.2-7.4,7.2C80.3,48.7,77,45.7,77,41.5
							 M90.9,41.5c0-3.7-2.8-6.4-6.5-6.4c-3.7,0-6.5,2.7-6.5,6.4c0,3.7,2.8,6.4,6.5,6.4C88.1,47.9,90.9,45.2,90.9,41.5"/>
						<path class="st2" d="M37.7,61.8v-9.4h0.9v9.3c0,2.7,1.6,4.1,4,4.1c2.4,0,4-1.4,4-4.1v-9.3h0.9v9.4c0,3.2-2.1,4.8-4.9,4.8
							C39.8,66.6,37.7,64.9,37.7,61.8"/>
						<path class="st2" d="M53.1,55c-0.3-0.4-0.7-0.9-0.7-0.9s0.1,0.6,0.1,1.1v11.3h-0.8V52.2H52l9.2,11.6c0.3,0.4,0.7,0.9,0.7,0.9
							s-0.1-0.6-0.1-1.1V52.4h0.8v14.2h-0.3L53.1,55z"/>
						<path class="st2" d="M66,59.4c0-4.3,3.3-7.2,7.4-7.2c4.1,0,7.4,2.9,7.4,7.2s-3.3,7.2-7.4,7.2C69.3,66.6,66,63.7,66,59.4
							 M79.8,59.4c0-3.7-2.8-6.4-6.5-6.4c-3.7,0-6.5,2.7-6.5,6.4c0,3.7,2.8,6.4,6.5,6.4C77.1,65.8,79.8,63.1,79.8,59.4"/>
						<polygon class="st2" points="86.6,54 87.2,54 82.9,65.5 82.3,65.5 						"/>
						<path class="st2" d="M49.9,76.3h-0.3v1.8h0.3c0.8,0,1.1-0.2,1.1-0.9C50.9,76.6,50.6,76.3,49.9,76.3"/>
						<path class="st2" d="M70.2,76.8c0-0.3-0.2-0.4-0.5-0.4h-0.8v0.9h0.7C70,77.2,70.2,77,70.2,76.8"/>
						<path class="st2" d="M69.8,78h-0.8v1.2h0.9c0.4,0,0.6-0.3,0.6-0.6C70.4,78.2,70.2,78,69.8,78"/>
						<path class="st2" d="M54.9,76.3c-0.8,0-1.4,0.6-1.4,1.5s0.6,1.5,1.4,1.5c0.2,0,0.3,0,0.5-0.1l-0.5-0.6l0.6-0.5l0.6,0.7
							c0.2-0.2,0.3-0.6,0.3-1C56.3,76.9,55.7,76.3,54.9,76.3"/>
						<path class="st2" d="M73.4,78l-0.3,0.8h1.2L73.9,78c-0.1-0.3-0.3-0.8-0.3-0.8S73.5,77.7,73.4,78"/>
						<path class="st2" d="M41.9,76.3h-0.3v1.9h0.3c0.8,0,1.1-0.3,1.1-0.9C43,76.6,42.7,76.3,41.9,76.3"/>
						<path class="st2" d="M45.6,78l-0.3,0.8h1.2L46.2,78c-0.1-0.3-0.3-0.8-0.3-0.8S45.8,77.7,45.6,78"/>
						<path class="st2" d="M36.7,83.6h57.4V71.8H36.7V83.6z M42,79h-0.3v1h-0.9v-4.5H42c1.3,0,2,0.7,2,1.8C44,78.4,43.2,79,42,79
							 M47,80l-0.2-0.5H45L44.8,80h-0.9l2-4.6h0.1L48,80H47z M50.9,80l-0.7-1.1c-0.1,0-0.2,0-0.3,0h-0.3V80h-0.9v-4.5h1.3
							c1.3,0,2,0.6,2,1.7c0,0.7-0.3,1.2-0.9,1.4L52,80H50.9z M57.2,80.1l-0.6,0.5l-0.7-0.8c-0.3,0.1-0.7,0.2-1,0.2
							c-1.3,0-2.3-1-2.3-2.3c0-1.3,1-2.3,2.3-2.3c1.3,0,2.3,1,2.3,2.3c0,0.6-0.2,1.2-0.6,1.6L57.2,80.1z M61.7,78.4
							c0,1.1-0.8,1.7-1.8,1.7c-1,0-1.8-0.6-1.8-1.7v-2.9h0.9v2.8c0,0.7,0.3,0.9,0.9,0.9c0.6,0,0.9-0.3,0.9-0.9v-2.8h0.9V78.4z
							 M65.7,80h-3.1v-4.5h3v0.8h-2.1v1.4h1.8v0.8h-1.8v0.7h2.2V80z M69.8,80H68v-4.5h1.8c0.8,0,1.3,0.5,1.3,1.2
							c0,0.4-0.2,0.7-0.6,0.8c0.6,0.1,0.9,0.6,0.9,1.1C71.4,79.5,70.8,80,69.8,80 M74.8,80l-0.2-0.5h-1.8L72.5,80h-0.9l2-4.6h0.1
							l2.1,4.6H74.8z M79,76.3h-1.3V80h-0.9v-3.7h-1.3v-0.8H79V76.3z M82.7,80h-3v-4.5h0.9v3.7h2.1V80z M86.4,80h-3v-4.5h0.9v3.7h2
							V80z M90.2,80h-3.1v-4.5h3v0.8h-2.1v1.4h1.8v0.8h-1.8v0.7h2.2V80z"/>
					</g>
				</g>
			</g>
		</g>
	</g>
	<g>
		
			<image style="overflow:visible;opacity:0.34;" width="40" height="23" xlink:href="3039F1A1128F4433.png"  transform="matrix(1 0 0 1 -2.0948 52.0605)">
		</image>
		<g>
			<g>
				<polygon class="st0" points="1.8,60.5 1.8,60.5 28.2,55.6 28.2,65.3 				"/>
			</g>
		</g>
	</g>
</g>
</svg>
