<?xml version="1.0" encoding="utf-8"?>
<!-- Generator: Adobe Illustrator 24.2.1, SVG Export Plug-In . SVG Version: 6.00 Build 0)  -->
<svg version="1.1" id="Layer_1" xmlns="http://www.w3.org/2000/svg" xmlns:xlink="http://www.w3.org/1999/xlink" x="0px" y="0px"
	 viewBox="0 0 146.2 213.4" style="enable-background:new 0 0 146.2 213.4;" xml:space="preserve">
<style type="text/css">
	.st0{fill:#2525F4;}
	.st1{fill:#FFFFFF;}
</style>
<g>
	<rect x="2.4" y="3.4" class="st0" width="140.9" height="162.8"/>
	<g>
		<g>
			<path class="st1" d="M31.8,80.3c-1-1.1-1.5-2.7-1.5-4.9V36.6c0-2.1,0.5-3.8,1.5-4.9c1-1.1,2.3-1.7,4-1.7c1.7,0,3,0.6,4,1.7
				c1,1.1,1.5,2.7,1.5,4.9v38.9c0,2.1-0.5,3.8-1.5,4.9c-1,1.1-2.3,1.7-4,1.7C34.1,82,32.7,81.4,31.8,80.3z M38.7,75.5V36.6
				c0-2.7-1-4-2.9-4c-1.9,0-2.9,1.3-2.9,4v38.9c0,2.7,1,4,2.9,4C37.7,79.5,38.7,78.1,38.7,75.5z"/>
			<path class="st1" d="M35.8,82.6c-1.9,0-3.4-0.6-4.4-1.9c-1.1-1.2-1.6-3-1.6-5.3V36.6c0-2.3,0.5-4,1.6-5.3
				c1.1-1.2,2.6-1.9,4.4-1.9c1.9,0,3.4,0.6,4.4,1.9c1.1,1.2,1.6,3,1.6,5.3v38.9c0,2.3-0.5,4-1.6,5.3C39.1,82,37.6,82.6,35.8,82.6z
				 M35.8,30.6c-1.5,0-2.7,0.5-3.6,1.5c-0.9,1-1.3,2.5-1.3,4.5v38.9c0,2,0.4,3.5,1.3,4.5l0,0c0.9,1,2,1.5,3.6,1.5
				c1.5,0,2.7-0.5,3.6-1.5c0.9-1,1.3-2.5,1.3-4.5V36.6c0-2-0.4-3.5-1.3-4.5C38.5,31.1,37.3,30.6,35.8,30.6z M35.8,80
				c-1.6,0-3.5-0.8-3.5-4.6V36.6c0-3.8,1.9-4.6,3.5-4.6s3.5,0.8,3.5,4.6v38.9C39.3,79.3,37.4,80,35.8,80z M35.8,33.2
				c-1,0-2.3,0.4-2.3,3.4v38.9c0,3.1,1.3,3.4,2.3,3.4c1,0,2.3-0.4,2.3-3.4V36.6C38.1,33.5,36.8,33.2,35.8,33.2z"/>
		</g>
		<g>
			<path class="st1" d="M53.3,31.1h-0.6l-2.6,13.5h-2.7l2.9-13.8h5.1v50.9h-2.5V36.6L53.3,31.1z"/>
			<path class="st1" d="M56,82.3h-3.7l0-45.8l-1.7,8.8h-3.9l3.2-15H56V82.3z M53.4,81.1h1.4V31.4h-1l-0.4,5.3V81.1z M48.1,44h1.5
				l2.5-12.6h-1.3L48.1,44z"/>
		</g>
		<g>
			<path class="st1" d="M33.2,90.7l3.2,46.5l0.1,4h0.6l0.1-4l3.2-46.5h2.5l-3.8,50.9h-4.8l-3.8-50.9H33.2z"/>
			<path class="st1" d="M39.8,142.1h-5.9l-3.9-52.1h3.7l3.1,44.9L40,90.1h3.7L39.8,142.1z M37.8,141h1l3.7-49.7h-1.4l-3.2,46
				L37.8,141z M35,141h1l-0.1-3.8l-3.2-46h-1.4L35,141z"/>
		</g>
		<g>
			<path class="st1" d="M113.4,141.6L110.2,95l-0.1-4h-0.6l-0.1,4l-3.2,46.5h-2.5l3.8-50.9h4.8l3.8,50.9H113.4z"/>
			<path class="st1" d="M116.6,142.1h-3.7l-3.1-44.9l-3.1,44.9H103l3.9-52.1h5.9L116.6,142.1z M114,141h1.4l-3.7-49.7h-1l0.1,3.8
				L114,141z M104.2,141h1.4l3.2-46l0.1-3.7h-1L104.2,141z"/>
		</g>
		<g>
			<path class="st1" d="M55.5,90.7v50.9H53V90.7H55.5z"/>
			<path class="st1" d="M56.1,142.1h-3.7V90.1h3.7V142.1z M53.5,141h1.4V91.2h-1.4V141z"/>
		</g>
		<g>
			<path class="st1" d="M67.2,140.6c-1-1.1-1.5-2.8-1.5-4.9v-11.6h2.5v11.6c0,1.5,0.3,2.5,0.8,3.1c0.5,0.6,1.2,0.9,2.2,0.9
				c0.9,0,1.6-0.3,2.1-0.9c0.5-0.6,0.8-1.4,0.8-2.5c0-1.2-0.3-3.3-1-6.4c-0.7-3.1-1.8-7.8-3.3-14c-1.5-6.3-2.6-10.8-3.2-13.7
				c-0.7-2.9-1-4.9-1-6c0-1.9,0.5-3.5,1.5-4.5c1-1.1,2.3-1.6,4-1.6c1.6,0,2.9,0.6,3.9,1.7c1,1.1,1.5,2.8,1.5,4.9v10.8h-2.5V96.5
				c0-1.4-0.2-2.4-0.7-3.1c-0.5-0.7-1.2-1-2-1c-0.9,0-1.6,0.3-2.1,0.9c-0.5,0.6-0.8,1.5-0.8,2.7c0,1,0.3,3,1,5.9
				c0.7,2.9,1.7,7.1,3,12.6c1.6,6.7,2.8,11.6,3.5,14.9c0.7,3.2,1.1,5.5,1.1,6.8c0,1.8-0.5,3.3-1.5,4.4c-1,1.1-2.3,1.6-3.9,1.6
				C69.5,142.3,68.2,141.7,67.2,140.6z"/>
			<path class="st1" d="M71.2,142.9c-1.9,0-3.4-0.6-4.5-1.9l0,0c-1.1-1.2-1.6-3-1.6-5.3v-12.2h3.7v12.2c0,1.3,0.2,2.2,0.6,2.8
				c0.4,0.5,1,0.7,1.8,0.7c0.7,0,1.2-0.2,1.6-0.7c0.4-0.5,0.6-1.2,0.6-2.2c0-1.1-0.3-3.2-1-6.3c-0.7-3.1-1.8-7.8-3.3-14
				c-1.5-6.2-2.6-10.8-3.2-13.8c-0.7-3-1-5-1-6.2c0-2.1,0.6-3.7,1.6-4.9c1.1-1.2,2.6-1.8,4.4-1.8c1.8,0,3.2,0.6,4.3,1.9
				c1.1,1.2,1.6,3,1.6,5.3V108h-3.7V96.5c0-1.3-0.2-2.2-0.6-2.7c-0.4-0.5-0.9-0.7-1.6-0.7c-0.7,0-1.3,0.2-1.7,0.7
				c-0.4,0.5-0.6,1.3-0.6,2.3c0,1,0.3,2.9,1,5.8c0.7,2.9,1.7,7.2,3,12.6c1.6,6.6,2.8,11.6,3.5,14.9c0.7,3.3,1.1,5.6,1.1,6.9
				c0,2-0.5,3.6-1.6,4.8C74.5,142.3,73.1,142.9,71.2,142.9z M66.3,124.7v11c0,2,0.5,3.6,1.3,4.6v0c0.9,1,2.1,1.5,3.6,1.5
				c1.5,0,2.6-0.5,3.5-1.4c0.9-0.9,1.3-2.3,1.3-4c0-1.3-0.4-3.5-1-6.7c-0.7-3.2-1.9-8.2-3.5-14.9c-1.3-5.4-2.4-9.7-3-12.6
				c-0.7-3-1-5-1-6.1c0-1.3,0.3-2.4,0.9-3.1c0.6-0.7,1.5-1.1,2.6-1.1c1.1,0,1.9,0.4,2.5,1.2c0.6,0.8,0.8,1.9,0.8,3.4v10.2h1.4V96.5
				c0-2-0.4-3.5-1.3-4.5c-0.9-1-2-1.5-3.4-1.5c-1.5,0-2.6,0.5-3.5,1.4c-0.9,1-1.3,2.4-1.3,4.1c0,1.1,0.3,3.1,1,5.9
				c0.7,2.9,1.7,7.6,3.2,13.7c1.5,6.2,2.6,10.9,3.3,14c0.7,3.2,1,5.3,1,6.6c0,1.3-0.3,2.2-0.9,2.9c-0.6,0.7-1.5,1.1-2.5,1.1
				c-1.2,0-2.1-0.4-2.7-1.2c-0.6-0.7-0.9-1.9-0.9-3.5v-11H66.3z"/>
		</g>
		<g>
			<path class="st1" d="M88.7,96.6v39.9c0,2.2,0.8,3.3,2.5,3.3c1.7,0,2.5-1.1,2.5-3.3v-12.4h2.5v12.4c0,1.8-0.5,3.3-1.4,4.3
				c-0.9,1-2.2,1.5-3.7,1.5c-1.6,0-2.8-0.5-3.7-1.5c-0.9-1-1.4-2.4-1.4-4.3V90.4h2.5V94h7.6v2.5H88.7z"/>
			<path class="st1" d="M91.3,142.9c-1.7,0-3.1-0.6-4.1-1.7c-1-1.1-1.5-2.7-1.5-4.7V89.8h3.7v3.6H97v3.7h-7.6v39.3
				c0,2.4,1,2.7,2,2.7c0.9,0,2-0.3,2-2.7v-13H97v13c0,2-0.5,3.6-1.5,4.7C94.4,142.3,93,142.9,91.3,142.9z M86.8,91v45.5
				c0,1.7,0.4,3,1.2,3.9c0.8,0.9,1.9,1.3,3.3,1.3c1.4,0,2.5-0.4,3.3-1.3c0.8-0.9,1.2-2.2,1.2-3.9v-11.8h-1.4v11.8
				c0,3.4-2,3.9-3.1,3.9c-1.2,0-3.1-0.5-3.1-3.9V96h7.6v-1.4h-7.6V91H86.8z"/>
		</g>
		<g>
			<rect x="22.9" y="45.2" class="st1" width="17.6" height="2.3"/>
			<path class="st1" d="M41.1,48.1H22.3v-3.5h18.8V48.1z M23.5,46.9h16.4v-1.2H23.5V46.9z"/>
		</g>
	</g>
	<g>
		<polygon class="st0" points="71.7,208.2 71.7,208.2 63.2,161.9 80.1,161.9 		"/>
	</g>
</g>
</svg>
