<?xml version="1.0" encoding="utf-8"?>
<!-- Generator: Adobe Illustrator 24.2.1, SVG Export Plug-In . SVG Version: 6.00 Build 0)  -->
<svg version="1.1" id="Layer_1" xmlns="http://www.w3.org/2000/svg" xmlns:xlink="http://www.w3.org/1999/xlink" x="0px" y="0px"
	 viewBox="0 0 93.2 128.4" style="enable-background:new 0 0 93.2 128.4;" xml:space="preserve">
<style type="text/css">
	.st0{fill:#E4D6BC;}
	.st1{clip-path:url(#SVGID_2_);fill:url(#SVGID_3_);}
	.st2{clip-path:url(#SVGID_2_);fill:url(#SVGID_4_);}
	.st3{clip-path:url(#SVGID_2_);fill:url(#SVGID_5_);}
	.st4{clip-path:url(#SVGID_2_);fill:url(#SVGID_6_);}
	.st5{clip-path:url(#SVGID_2_);fill:url(#SVGID_7_);}
	.st6{clip-path:url(#SVGID_2_);}
	.st7{clip-path:url(#SVGID_9_);fill:url(#SVGID_10_);}
	.st8{clip-path:url(#SVGID_9_);fill:url(#SVGID_11_);}
	.st9{clip-path:url(#SVGID_9_);fill:url(#SVGID_12_);}
	.st10{clip-path:url(#SVGID_9_);fill:url(#SVGID_13_);}
	.st11{clip-path:url(#SVGID_9_);fill:url(#SVGID_14_);}
	.st12{clip-path:url(#SVGID_9_);fill:url(#SVGID_15_);}
	.st13{clip-path:url(#SVGID_9_);fill:url(#SVGID_16_);}
	.st14{clip-path:url(#SVGID_9_);fill:url(#SVGID_17_);}
	.st15{clip-path:url(#SVGID_19_);fill:url(#SVGID_20_);}
	.st16{clip-path:url(#SVGID_19_);fill:url(#SVGID_21_);}
	.st17{clip-path:url(#SVGID_19_);fill:url(#SVGID_22_);}
	.st18{clip-path:url(#SVGID_19_);fill:url(#SVGID_23_);}
	.st19{clip-path:url(#SVGID_19_);fill:url(#SVGID_24_);}
	.st20{clip-path:url(#SVGID_19_);fill:url(#SVGID_25_);}
	.st21{clip-path:url(#SVGID_19_);fill:url(#SVGID_26_);}
	.st22{clip-path:url(#SVGID_19_);fill:url(#SVGID_27_);}
	.st23{clip-path:url(#SVGID_29_);fill:#2E270E;}
	.st24{clip-path:url(#SVGID_29_);}
	.st25{clip-path:url(#SVGID_31_);fill:#FFBC52;}
	.st26{clip-path:url(#SVGID_31_);fill:#5D8D5D;}
	.st27{clip-path:url(#SVGID_31_);fill:#91BFAC;}
	.st28{clip-path:url(#SVGID_31_);fill:none;stroke:#2E270E;stroke-width:1.2523;stroke-miterlimit:10;}
	.st29{clip-path:url(#SVGID_31_);fill:#5D8D75;}
	.st30{clip-path:url(#SVGID_31_);fill:#F29100;}
	.st31{clip-path:url(#SVGID_33_);fill:none;stroke:#2E270E;stroke-width:1.2523;stroke-miterlimit:10;}
	.st32{clip-path:url(#SVGID_33_);fill:#91BFAC;}
	.st33{clip-path:url(#SVGID_33_);fill:#E4D6BC;}
	.st34{clip-path:url(#SVGID_33_);fill:#2E270E;}
	.st35{clip-path:url(#SVGID_33_);fill:#5D8D75;}
	.st36{clip-path:url(#SVGID_33_);fill:#282310;}
	.st37{clip-path:url(#SVGID_35_);}
</style>
<g id="_x30_1_VILA">
	<g>
		<g>
			<g>
				
					<image style="overflow:visible;opacity:0.34;" width="23" height="40" xlink:href="8415D067B5E31B29.png"  transform="matrix(1 0 0 1 40.8619 -2.9316)">
				</image>
				<g>
					<polygon class="st0" points="49.2,1 49.2,1 54.1,27.5 44.4,27.5 					"/>
				</g>
			</g>
		</g>
	</g>
	<g>
		<g>
			
				<image style="overflow:visible;opacity:0.34;" width="103" height="112" xlink:href="8415D067B5E31B2B.png"  transform="matrix(1 0 0 1 -2.1381 24.0684)">
			</image>
			<g>
				<rect x="1.4" y="27.4" class="st0" width="90" height="99.1"/>
			</g>
		</g>
		<g id="_x30_1VILA_B_00000094617301436922581230000011688619212826118794_">
			<g>
				<g>
					<defs>
						<rect id="SVGID_1_" x="13.2" y="46.5" width="64.7" height="60.9"/>
					</defs>
					<clipPath id="SVGID_2_">
						<use xlink:href="#SVGID_1_"  style="overflow:visible;"/>
					</clipPath>
					<linearGradient id="SVGID_3_" gradientUnits="userSpaceOnUse" x1="13.1573" y1="76.5623" x2="77.8517" y2="76.5623">
						<stop  offset="0" style="stop-color:#FFFFFF"/>
						<stop  offset="1" style="stop-color:#000000"/>
					</linearGradient>
					<polygon class="st1" points="31.7,90.9 28,101.3 24.3,90.9 19.2,90.9 25.8,107.4 30.1,107.4 36.7,90.9 					"/>
					<linearGradient id="SVGID_4_" gradientUnits="userSpaceOnUse" x1="13.1573" y1="76.5623" x2="77.8517" y2="76.5623">
						<stop  offset="0" style="stop-color:#FFFFFF"/>
						<stop  offset="1" style="stop-color:#000000"/>
					</linearGradient>
					<rect x="38.5" y="90.9" class="st2" width="4.6" height="16.4"/>
					<linearGradient id="SVGID_5_" gradientUnits="userSpaceOnUse" x1="13.1573" y1="76.5623" x2="77.8517" y2="76.5623">
						<stop  offset="0" style="stop-color:#FFFFFF"/>
						<stop  offset="1" style="stop-color:#000000"/>
					</linearGradient>
					<polygon class="st3" points="45.3,90.9 45.3,107.3 57.8,107.3 57.8,103.3 49.8,103.3 49.8,90.9 					"/>
					<linearGradient id="SVGID_6_" gradientUnits="userSpaceOnUse" x1="13.1573" y1="76.5623" x2="77.8517" y2="76.5623">
						<stop  offset="0" style="stop-color:#FFFFFF"/>
						<stop  offset="1" style="stop-color:#000000"/>
					</linearGradient>
					<path class="st4" d="M68.6,96.1l1.8,4.7h-3.7L68.6,96.1z M66.5,90.8l-7,16.5h4.8l1.2-2.9h6.3l1.2,2.9h4.9l-7-16.5H66.5z"/>
					<linearGradient id="SVGID_7_" gradientUnits="userSpaceOnUse" x1="13.1573" y1="76.5623" x2="77.8517" y2="76.5623">
						<stop  offset="0" style="stop-color:#FFFFFF"/>
						<stop  offset="1" style="stop-color:#000000"/>
					</linearGradient>
					<polygon class="st5" points="64.6,56.2 59.1,56.2 59.1,47.6 74.8,47.6 74.8,85.9 64.6,85.9 					"/>
					<g class="st6">
						<defs>
							<path id="SVGID_8_" d="M17.7,66.2c0,10.5,8.5,19,19,19c10.5,0,19-8.5,19-19c0-10.5-8.5-19-19-19
								C26.2,47.2,17.7,55.7,17.7,66.2"/>
						</defs>
						<clipPath id="SVGID_9_">
							<use xlink:href="#SVGID_8_"  style="overflow:visible;"/>
						</clipPath>
						<linearGradient id="SVGID_10_" gradientUnits="userSpaceOnUse" x1="13.1573" y1="76.5623" x2="77.8517" y2="76.5623">
							<stop  offset="0" style="stop-color:#FFFFFF"/>
							<stop  offset="1" style="stop-color:#000000"/>
						</linearGradient>
						<path class="st7" d="M57.2,66.8h-41v-1.6c1.1-11.4,8.7-19.4,19.4-19.4h2.2c10.7,0,19.5,9.4,19.4,19.4V66.8z"/>
						<linearGradient id="SVGID_11_" gradientUnits="userSpaceOnUse" x1="13.1573" y1="76.5623" x2="77.8517" y2="76.5623">
							<stop  offset="0" style="stop-color:#FFFFFF"/>
							<stop  offset="1" style="stop-color:#000000"/>
						</linearGradient>
						<path class="st8" d="M16.1,66.8h41V68c0.1,8.6-8.6,19.1-19.1,19.1h-2.8c-10.6,0-20.1-10.9-19.1-19.1V66.8z"/>
						<linearGradient id="SVGID_12_" gradientUnits="userSpaceOnUse" x1="13.1573" y1="76.5623" x2="77.8517" y2="76.5623">
							<stop  offset="0" style="stop-color:#FFFFFF"/>
							<stop  offset="1" style="stop-color:#000000"/>
						</linearGradient>
						<path class="st9" d="M60.4,65.4c0,2.1,0.5,3.9-3.9,3.9c-4.1,0-3.9-1.7-3.9-3.9c0-2.1,1.7-3.9,3.9-3.9S60.4,63.3,60.4,65.4"/>
						<linearGradient id="SVGID_13_" gradientUnits="userSpaceOnUse" x1="13.1573" y1="76.5623" x2="77.8517" y2="76.5623">
							<stop  offset="0" style="stop-color:#FFFFFF"/>
							<stop  offset="1" style="stop-color:#000000"/>
						</linearGradient>
						<path class="st10" d="M60.4,65.4c0,2.1,0.5,3.9-3.9,3.9c-4.1,0-3.9-1.7-3.9-3.9c0-2.1,1.7-3.9,3.9-3.9S60.4,63.3,60.4,65.4z"
							/>
						<linearGradient id="SVGID_14_" gradientUnits="userSpaceOnUse" x1="13.1573" y1="76.5623" x2="77.8517" y2="76.5623">
							<stop  offset="0" style="stop-color:#FFFFFF"/>
							<stop  offset="1" style="stop-color:#000000"/>
						</linearGradient>
						<path class="st11" d="M57,71.5c0,3.6-0.2,6.6-6.6,6.6c-7.2,0-6.6-3-6.6-6.6s3-6.6,6.6-6.6C54.1,64.9,57,67.8,57,71.5"/>
						<linearGradient id="SVGID_15_" gradientUnits="userSpaceOnUse" x1="13.1573" y1="76.5623" x2="77.8517" y2="76.5623">
							<stop  offset="0" style="stop-color:#FFFFFF"/>
							<stop  offset="1" style="stop-color:#000000"/>
						</linearGradient>
						<circle class="st12" cx="50.4" cy="71.5" r="6.6"/>
						<linearGradient id="SVGID_16_" gradientUnits="userSpaceOnUse" x1="13.1573" y1="76.5623" x2="77.8517" y2="76.5623">
							<stop  offset="0" style="stop-color:#FFFFFF"/>
							<stop  offset="1" style="stop-color:#000000"/>
						</linearGradient>
						<path class="st13" d="M53.4,53.6c0,3.6-3,6.6-6.6,6.6c-3.6,0-6.6-3-6.6-6.6s3-6.6,6.6-6.6C50.5,47,53.4,50,53.4,53.6"/>
						<linearGradient id="SVGID_17_" gradientUnits="userSpaceOnUse" x1="13.1573" y1="76.5623" x2="77.8517" y2="76.5623">
							<stop  offset="0" style="stop-color:#FFFFFF"/>
							<stop  offset="1" style="stop-color:#000000"/>
						</linearGradient>
						<circle class="st14" cx="46.8" cy="53.6" r="6.6"/>
					</g>
					<g class="st6">
						<defs>
							<rect id="SVGID_18_" x="13.2" y="46.5" width="64.7" height="60.9"/>
						</defs>
						<clipPath id="SVGID_19_">
							<use xlink:href="#SVGID_18_"  style="overflow:visible;"/>
						</clipPath>
						<linearGradient id="SVGID_20_" gradientUnits="userSpaceOnUse" x1="13.1573" y1="76.5623" x2="77.8517" y2="76.5623">
							<stop  offset="0" style="stop-color:#FFFFFF"/>
							<stop  offset="1" style="stop-color:#000000"/>
						</linearGradient>
						<path class="st15" d="M17.7,66.2c0,10.5,8.5,19,19,19s19-8.5,19-19c0-10.5-8.5-19-19-19S17.7,55.7,17.7,66.2z"/>
						<linearGradient id="SVGID_21_" gradientUnits="userSpaceOnUse" x1="13.1573" y1="76.5623" x2="77.8517" y2="76.5623">
							<stop  offset="0" style="stop-color:#FFFFFF"/>
							<stop  offset="1" style="stop-color:#000000"/>
						</linearGradient>
						<path class="st16" d="M33.9,65.7c0,6.1-3.1,9.2-6.9,9.2c-3.8,0-6.8-3-6.8-9.1c0-11,4.5-15.3,6.8-15.3
							C29.5,50.5,33.9,59.7,33.9,65.7"/>
						<linearGradient id="SVGID_22_" gradientUnits="userSpaceOnUse" x1="13.1573" y1="76.5623" x2="77.8517" y2="76.5623">
							<stop  offset="0" style="stop-color:#FFFFFF"/>
							<stop  offset="1" style="stop-color:#000000"/>
						</linearGradient>
						<path class="st17" d="M33.9,65.7c0,6.1-3.1,9.2-6.9,9.2c-3.8,0-6.8-3-6.8-9.1c0-11,4.5-15.3,6.8-15.3
							C29.5,50.5,33.9,59.7,33.9,65.7z"/>
						<linearGradient id="SVGID_23_" gradientUnits="userSpaceOnUse" x1="13.1573" y1="76.5623" x2="77.8517" y2="76.5623">
							<stop  offset="0" style="stop-color:#FFFFFF"/>
							<stop  offset="1" style="stop-color:#000000"/>
						</linearGradient>
						<path class="st18" d="M47.6,60.8l-9.2-5.2c-0.5-0.3-1.1-0.5-1.7-0.5c-0.6,0-1.2,0.2-1.7,0.5l-9.2,5.2C24.7,61.5,24,62.7,24,64
							v12.8c0,0.2,0,0.4,0,0.5c0.3,1.7,1.7,3,3.5,3H35c0.4-0.1,0.7-0.4,0.7-0.8V79v-0.3c0-0.1-0.1-0.2-0.2-0.3l-3-2.9
							c-0.5-0.5-0.8-1.1-0.9-1.8c0-0.1,0-0.2,0-0.3v-1.5c-0.8-0.3-1.4-1-1.5-1.8c0-0.1,0-0.2,0-0.4c0-1.3,1-2.3,2.3-2.3
							c1,0,1.9,0.6,2.2,1.5c0,0,0,0,0,0c0,0,0,0.1,0,0.1c0,0,0,0.1,0,0.1c0,0,0,0.1,0,0.1c0,0,0,0,0,0c0.2,1.2-0.5,2.3-1.5,2.7v1.5
							c0,0,0,0.1,0,0.1c0,0.3,0.2,0.6,0.4,0.9l1.3,1.3c0.3,0.2,0.7,0,0.8-0.4v-13c-0.7-0.3-1.3-1-1.4-1.8c0-0.1,0-0.2,0-0.4
							c0-1.3,1-2.3,2.3-2.3c1.1,0,2,0.7,2.2,1.7c0,0,0,0.1,0,0.1c0,0,0,0.1,0,0.1c0,0,0,0,0,0c0,0,0,0.1,0,0.1c0,0,0,0.1,0,0.1
							c0.1,1.2-0.6,2.2-1.6,2.5v10c0,0.4,0.4,0.6,0.7,0.5l1.3-1.1c0.3-0.3,0.4-0.6,0.4-1v-1.5c-0.8-0.3-1.4-1-1.5-1.8
							c0-0.1,0-0.2,0-0.4c0-1.3,1-2.3,2.3-2.3c1,0,1.9,0.6,2.2,1.5c0,0,0,0,0,0c0,0,0,0.1,0,0.1c0,0,0,0.1,0,0.1c0,0,0,0.1,0,0.1
							c0,0,0,0,0,0c0.2,1.2-0.5,2.3-1.5,2.7v1.5c0,0.8-0.3,1.6-0.9,2.1l0,0l-2.8,2.4c-0.1,0.1-0.2,0.2-0.2,0.4v2.4v1.3
							c0,0.4,0.3,0.8,0.7,0.9h7.9c1.9,0,3.5-1.6,3.5-3.6V63.9c0-0.2,0-0.3,0-0.5C49.2,62.4,48.6,61.4,47.6,60.8"/>
						<linearGradient id="SVGID_24_" gradientUnits="userSpaceOnUse" x1="13.1573" y1="76.5623" x2="77.8517" y2="76.5623">
							<stop  offset="0" style="stop-color:#FFFFFF"/>
							<stop  offset="1" style="stop-color:#000000"/>
						</linearGradient>
						<path class="st19" d="M48.3,59.5l-9.2-5.2c-1.5-0.9-3.4-0.9-4.9,0L25,59.5c-1.6,0.9-2.6,2.6-2.6,4.4v12.8c0,2.8,2.2,5.1,5,5.1
							h18.4c2.8,0,5-2.3,5-5.1V64C50.9,62.1,49.9,60.4,48.3,59.5 M49.4,76.8c0,2-1.6,3.6-3.5,3.6h-7.7c-0.5,0-0.9-0.4-0.9-0.9v-1.3
							v-2.4c0-0.1,0.1-0.3,0.2-0.4l2.8-2.4l0,0c0.6-0.6,0.9-1.3,0.9-2.1v-1.5c1-0.4,1.7-1.5,1.5-2.7c-0.2-0.9-0.9-1.6-1.8-1.8
							c-1.5-0.3-2.8,0.8-2.8,2.3c0,1,0.6,1.9,1.5,2.2v1.5c0,0.4-0.2,0.7-0.4,1l-1.1,1c-0.3,0.3-0.8,0-0.8-0.4v-10
							c1.1-0.3,1.8-1.4,1.6-2.7c-0.2-0.9-0.9-1.7-1.8-1.8c-1.5-0.3-2.8,0.8-2.8,2.3c0,1,0.6,1.8,1.4,2.1v13c0,0.5-0.5,0.7-0.9,0.4
							l-1.2-1.2c-0.3-0.3-0.4-0.6-0.4-1v-1.5c1-0.4,1.7-1.5,1.5-2.7c-0.2-0.9-0.9-1.6-1.8-1.8c-1.5-0.3-2.8,0.8-2.8,2.3
							c0,1,0.6,1.9,1.5,2.2v1.5c0,0.8,0.3,1.6,0.9,2.1l3,2.9c0.1,0.1,0.2,0.2,0.2,0.4v0.3v0.3c0,0.5-0.4,0.9-0.9,0.9h-7.3
							c-1.9,0-3.5-1.6-3.5-3.6V64c0-1.3,0.7-2.5,1.8-3.1l9.2-5.2c0.5-0.3,1.1-0.5,1.7-0.5c0.6,0,1.2,0.2,1.7,0.5l9.2,5.2
							c1.1,0.6,1.8,1.8,1.8,3.1V76.8z"/>
						<linearGradient id="SVGID_25_" gradientUnits="userSpaceOnUse" x1="13.1573" y1="76.5623" x2="77.8517" y2="76.5623">
							<stop  offset="0" style="stop-color:#FFFFFF"/>
							<stop  offset="1" style="stop-color:#000000"/>
						</linearGradient>
						<path class="st20" d="M27.4,65.7c0,6.1-3.1,9.2-6.9,9.2c-3.8,0-6.8-3-6.8-9.1s4.5-15.7,6.8-15.7C23,50.1,27.4,59.7,27.4,65.7"
							/>
						<linearGradient id="SVGID_26_" gradientUnits="userSpaceOnUse" x1="13.1573" y1="76.5623" x2="77.8517" y2="76.5623">
							<stop  offset="0" style="stop-color:#FFFFFF"/>
							<stop  offset="1" style="stop-color:#000000"/>
						</linearGradient>
						<path class="st21" d="M27.4,65.7c0,6.1-3.1,9.2-6.9,9.2c-3.8,0-6.8-3-6.8-9.1s4.5-15.7,6.8-15.7C23,50.1,27.4,59.7,27.4,65.7z
							"/>
						<linearGradient id="SVGID_27_" gradientUnits="userSpaceOnUse" x1="13.1573" y1="76.5623" x2="77.8517" y2="76.5623">
							<stop  offset="0" style="stop-color:#FFFFFF"/>
							<stop  offset="1" style="stop-color:#000000"/>
						</linearGradient>
						<path class="st22" d="M21.4,77.7L19.8,76v-9.9c0-0.4,0.4-0.8,0.8-0.8c0.4,0,0.8,0.4,0.8,0.8V77.7z"/>
					</g>
				</g>
			</g>
			<g>
				<g>
					<defs>
						<rect id="SVGID_28_" x="13.2" y="46.5" width="64.7" height="60.9"/>
					</defs>
					<clipPath id="SVGID_29_">
						<use xlink:href="#SVGID_28_"  style="overflow:visible;"/>
					</clipPath>
					<polygon class="st23" points="31.7,90.9 28,101.3 24.3,90.9 19.2,90.9 25.8,107.4 30.1,107.4 36.7,90.9 					"/>
					<rect x="38.5" y="90.9" class="st23" width="4.6" height="16.4"/>
					<polygon class="st23" points="45.3,90.9 45.3,107.3 57.8,107.3 57.8,103.3 49.8,103.3 49.8,90.9 					"/>
					<path class="st23" d="M68.6,96.1l1.8,4.7h-3.7L68.6,96.1z M66.5,90.8l-7,16.5h4.8l1.2-2.9h6.3l1.2,2.9h4.9l-7-16.5H66.5z"/>
					<polygon class="st23" points="64.6,56.2 59.1,56.2 59.1,47.6 74.8,47.6 74.8,85.9 64.6,85.9 					"/>
					<g class="st24">
						<defs>
							<path id="SVGID_30_" d="M17.7,66.2c0,10.5,8.5,19,19,19c10.5,0,19-8.5,19-19c0-10.5-8.5-19-19-19
								C26.2,47.2,17.7,55.7,17.7,66.2"/>
						</defs>
						<clipPath id="SVGID_31_">
							<use xlink:href="#SVGID_30_"  style="overflow:visible;"/>
						</clipPath>
						<path class="st25" d="M57.2,66.8h-41v-1.6c1.1-11.4,8.7-19.4,19.4-19.4h2.2c10.7,0,19.5,9.4,19.4,19.4V66.8z"/>
						<path class="st26" d="M16.1,66.8h41V68c0.1,8.6-8.6,19.1-19.1,19.1h-2.8c-10.6,0-20.1-10.9-19.1-19.1V66.8z"/>
						<path class="st27" d="M60.4,65.4c0,2.1,0.5,3.9-3.9,3.9c-4.1,0-3.9-1.7-3.9-3.9c0-2.1,1.7-3.9,3.9-3.9S60.4,63.3,60.4,65.4"/>
						<path class="st28" d="M60.4,65.4c0,2.1,0.5,3.9-3.9,3.9c-4.1,0-3.9-1.7-3.9-3.9c0-2.1,1.7-3.9,3.9-3.9S60.4,63.3,60.4,65.4z"
							/>
						<path class="st29" d="M57,71.5c0,3.6-0.2,6.6-6.6,6.6c-7.2,0-6.6-3-6.6-6.6s3-6.6,6.6-6.6C54.1,64.9,57,67.8,57,71.5"/>
						<circle class="st28" cx="50.4" cy="71.5" r="6.6"/>
						<path class="st30" d="M53.4,53.6c0,3.6-3,6.6-6.6,6.6c-3.6,0-6.6-3-6.6-6.6s3-6.6,6.6-6.6C50.5,47,53.4,50,53.4,53.6"/>
						<circle class="st28" cx="46.8" cy="53.6" r="6.6"/>
					</g>
					<g class="st24">
						<defs>
							<rect id="SVGID_32_" x="13.2" y="46.5" width="64.7" height="60.9"/>
						</defs>
						<clipPath id="SVGID_33_">
							<use xlink:href="#SVGID_32_"  style="overflow:visible;"/>
						</clipPath>
						<path class="st31" d="M17.7,66.2c0,10.5,8.5,19,19,19s19-8.5,19-19c0-10.5-8.5-19-19-19S17.7,55.7,17.7,66.2z"/>
						<path class="st32" d="M33.9,65.7c0,6.1-3.1,9.2-6.9,9.2c-3.8,0-6.8-3-6.8-9.1c0-11,4.5-15.3,6.8-15.3
							C29.5,50.5,33.9,59.7,33.9,65.7"/>
						<path class="st31" d="M33.9,65.7c0,6.1-3.1,9.2-6.9,9.2c-3.8,0-6.8-3-6.8-9.1c0-11,4.5-15.3,6.8-15.3
							C29.5,50.5,33.9,59.7,33.9,65.7z"/>
						<path class="st33" d="M47.6,60.8l-9.2-5.2c-0.5-0.3-1.1-0.5-1.7-0.5c-0.6,0-1.2,0.2-1.7,0.5l-9.2,5.2C24.7,61.5,24,62.7,24,64
							v12.8c0,0.2,0,0.4,0,0.5c0.3,1.7,1.7,3,3.5,3H35c0.4-0.1,0.7-0.4,0.7-0.8V79v-0.3c0-0.1-0.1-0.2-0.2-0.3l-3-2.9
							c-0.5-0.5-0.8-1.1-0.9-1.8c0-0.1,0-0.2,0-0.3v-1.5c-0.8-0.3-1.4-1-1.5-1.8c0-0.1,0-0.2,0-0.4c0-1.3,1-2.3,2.3-2.3
							c1,0,1.9,0.6,2.2,1.5c0,0,0,0,0,0c0,0,0,0.1,0,0.1c0,0,0,0.1,0,0.1c0,0,0,0.1,0,0.1c0,0,0,0,0,0c0.2,1.2-0.5,2.3-1.5,2.7v1.5
							c0,0,0,0.1,0,0.1c0,0.3,0.2,0.6,0.4,0.9l1.3,1.3c0.3,0.2,0.7,0,0.8-0.4v-13c-0.7-0.3-1.3-1-1.4-1.8c0-0.1,0-0.2,0-0.4
							c0-1.3,1-2.3,2.3-2.3c1.1,0,2,0.7,2.2,1.7c0,0,0,0.1,0,0.1c0,0,0,0.1,0,0.1c0,0,0,0,0,0c0,0,0,0.1,0,0.1c0,0,0,0.1,0,0.1
							c0.1,1.2-0.6,2.2-1.6,2.5v10c0,0.4,0.4,0.6,0.7,0.5l1.3-1.1c0.3-0.3,0.4-0.6,0.4-1v-1.5c-0.8-0.3-1.4-1-1.5-1.8
							c0-0.1,0-0.2,0-0.4c0-1.3,1-2.3,2.3-2.3c1,0,1.9,0.6,2.2,1.5c0,0,0,0,0,0c0,0,0,0.1,0,0.1c0,0,0,0.1,0,0.1c0,0,0,0.1,0,0.1
							c0,0,0,0,0,0c0.2,1.2-0.5,2.3-1.5,2.7v1.5c0,0.8-0.3,1.6-0.9,2.1l0,0l-2.8,2.4c-0.1,0.1-0.2,0.2-0.2,0.4v2.4v1.3
							c0,0.4,0.3,0.8,0.7,0.9h7.9c1.9,0,3.5-1.6,3.5-3.6V63.9c0-0.2,0-0.3,0-0.5C49.2,62.4,48.6,61.4,47.6,60.8"/>
						<path class="st34" d="M48.3,59.5l-9.2-5.2c-1.5-0.9-3.4-0.9-4.9,0L25,59.5c-1.6,0.9-2.6,2.6-2.6,4.4v12.8c0,2.8,2.2,5.1,5,5.1
							h18.4c2.8,0,5-2.3,5-5.1V64C50.9,62.1,49.9,60.4,48.3,59.5 M49.4,76.8c0,2-1.6,3.6-3.5,3.6h-7.7c-0.5,0-0.9-0.4-0.9-0.9v-1.3
							v-2.4c0-0.1,0.1-0.3,0.2-0.4l2.8-2.4l0,0c0.6-0.6,0.9-1.3,0.9-2.1v-1.5c1-0.4,1.7-1.5,1.5-2.7c-0.2-0.9-0.9-1.6-1.8-1.8
							c-1.5-0.3-2.8,0.8-2.8,2.3c0,1,0.6,1.9,1.5,2.2v1.5c0,0.4-0.2,0.7-0.4,1l-1.1,1c-0.3,0.3-0.8,0-0.8-0.4v-10
							c1.1-0.3,1.8-1.4,1.6-2.7c-0.2-0.9-0.9-1.7-1.8-1.8c-1.5-0.3-2.8,0.8-2.8,2.3c0,1,0.6,1.8,1.4,2.1v13c0,0.5-0.5,0.7-0.9,0.4
							l-1.2-1.2c-0.3-0.3-0.4-0.6-0.4-1v-1.5c1-0.4,1.7-1.5,1.5-2.7c-0.2-0.9-0.9-1.6-1.8-1.8c-1.5-0.3-2.8,0.8-2.8,2.3
							c0,1,0.6,1.9,1.5,2.2v1.5c0,0.8,0.3,1.6,0.9,2.1l3,2.9c0.1,0.1,0.2,0.2,0.2,0.4v0.3v0.3c0,0.5-0.4,0.9-0.9,0.9h-7.3
							c-1.9,0-3.5-1.6-3.5-3.6V64c0-1.3,0.7-2.5,1.8-3.1l9.2-5.2c0.5-0.3,1.1-0.5,1.7-0.5c0.6,0,1.2,0.2,1.7,0.5l9.2,5.2
							c1.1,0.6,1.8,1.8,1.8,3.1V76.8z"/>
						<path class="st35" d="M27.4,65.7c0,6.1-3.1,9.2-6.9,9.2c-3.8,0-6.8-3-6.8-9.1s4.5-15.7,6.8-15.7C23,50.1,27.4,59.7,27.4,65.7"
							/>
						<path class="st31" d="M27.4,65.7c0,6.1-3.1,9.2-6.9,9.2c-3.8,0-6.8-3-6.8-9.1s4.5-15.7,6.8-15.7C23,50.1,27.4,59.7,27.4,65.7z
							"/>
						<path class="st36" d="M21.4,77.7L19.8,76v-9.9c0-0.4,0.4-0.8,0.8-0.8c0.4,0,0.8,0.4,0.8,0.8V77.7z"/>
					</g>
				</g>
			</g>
			<g>
				<g>
					<defs>
						<rect id="SVGID_34_" x="13.2" y="46.5" width="64.7" height="60.9"/>
					</defs>
					<clipPath id="SVGID_35_">
						<use xlink:href="#SVGID_34_"  style="overflow:visible;"/>
					</clipPath>
					<g class="st37">
						<defs>
							<path id="SVGID_36_" d="M17.7,66.2c0,10.5,8.5,19,19,19c10.5,0,19-8.5,19-19c0-10.5-8.5-19-19-19
								C26.2,47.2,17.7,55.7,17.7,66.2"/>
						</defs>
						<clipPath id="SVGID_37_">
							<use xlink:href="#SVGID_36_"  style="overflow:visible;"/>
						</clipPath>
					</g>
					<g class="st37">
						<defs>
							<rect id="SVGID_38_" x="13.2" y="46.5" width="64.7" height="60.9"/>
						</defs>
						<clipPath id="SVGID_39_">
							<use xlink:href="#SVGID_38_"  style="overflow:visible;"/>
						</clipPath>
					</g>
				</g>
			</g>
		</g>
	</g>
</g>
</svg>
