<?xml version="1.0" encoding="utf-8"?>
<!-- Generator: Adobe Illustrator 24.2.1, SVG Export Plug-In . SVG Version: 6.00 Build 0)  -->
<svg version="1.1" id="Layer_1" xmlns="http://www.w3.org/2000/svg" xmlns:xlink="http://www.w3.org/1999/xlink" x="0px" y="0px"
	 viewBox="0 0 145.8 120.5" style="enable-background:new 0 0 145.8 120.5;" xml:space="preserve">
<style type="text/css">
	.st0{fill:#42DB8F;}
	.st1{fill:#FFFFFF;}
</style>
<g>
	
		<rect x="2" y="26.9" transform="matrix(-1 -1.224647e-16 1.224647e-16 -1 146.0419 145.7669)" class="st0" width="142.1" height="91.9"/>
	<g>
		<g>
			<polygon class="st0" points="74,0.9 74,0.9 78.8,27.3 69.1,27.3 			"/>
		</g>
	</g>
</g>
<g>
	<g>
		<path class="st1" d="M22.9,57.4c-1-0.5-1.8-1.3-2.4-2.2c-0.6-1-0.8-2.1-0.8-3.3v-6c0-1.2,0.3-2.3,0.8-3.3c0.6-1,1.3-1.7,2.4-2.2
			c1-0.5,2.2-0.8,3.6-0.8c1.3,0,2.5,0.2,3.5,0.7c1,0.5,1.8,1.2,2.4,2.1c0.6,0.9,0.8,2,0.8,3.2c0,0.2-0.1,0.3-0.3,0.3l-3,0.2h-0.1
			c-0.2,0-0.3-0.1-0.3-0.3c0-0.9-0.3-1.7-0.8-2.2c-0.6-0.6-1.3-0.8-2.2-0.8c-0.9,0-1.7,0.3-2.2,0.8s-0.8,1.3-0.8,2.2v6.3
			c0,0.9,0.3,1.6,0.8,2.2s1.3,0.8,2.2,0.8c0.9,0,1.7-0.3,2.2-0.8c0.6-0.6,0.8-1.3,0.8-2.2c0-0.2,0.1-0.3,0.3-0.3l3,0.1
			c0.1,0,0.2,0,0.2,0.1c0.1,0.1,0.1,0.1,0.1,0.2c0,1.2-0.3,2.3-0.8,3.2C31.8,56.3,31,57,30,57.5c-1,0.5-2.2,0.8-3.5,0.8
			C25.2,58.2,24,58,22.9,57.4z"/>
		<path class="st1" d="M47.6,52.2c0,0.2-0.1,0.3-0.3,0.3h-8c-0.1,0-0.1,0-0.1,0.1c0.1,0.3,0.1,0.7,0.3,1c0.5,1,1.4,1.5,2.8,1.5
			c1.1,0,2-0.5,2.6-1.4c0.1-0.1,0.1-0.2,0.2-0.2c0.1,0,0.1,0,0.2,0.1l1.9,1.8c0.1,0.1,0.1,0.2,0.1,0.2c0,0,0,0.1-0.1,0.2
			c-0.6,0.7-1.3,1.3-2.2,1.7c-0.9,0.4-1.9,0.6-3,0.6c-1.5,0-2.8-0.3-3.8-1c-1-0.7-1.8-1.6-2.2-2.8c-0.4-0.9-0.5-2-0.5-3.4
			c0-1,0.1-1.8,0.4-2.5c0.4-1.2,1.1-2.2,2.1-2.9c1-0.7,2.2-1.1,3.6-1.1c1.7,0,3.1,0.5,4.2,1.5c1,1,1.7,2.3,1.9,4
			C47.6,50.6,47.6,51.3,47.6,52.2z M39.3,49.1c-0.1,0.2-0.1,0.5-0.2,0.8c0,0.1,0,0.1,0.1,0.1h4.5c0.1,0,0.1,0,0.1-0.1
			c-0.1-0.5-0.1-0.7-0.1-0.7c-0.2-0.5-0.4-0.9-0.8-1.2c-0.4-0.3-0.9-0.4-1.4-0.4C40.3,47.6,39.6,48.1,39.3,49.1z"/>
		<path class="st1" d="M60.2,45.7c0.8,0.8,1.3,2,1.3,3.5v8.5c0,0.1,0,0.2-0.1,0.2C61.3,58,61.2,58,61.2,58h-3c-0.1,0-0.2,0-0.2-0.1
			s-0.1-0.1-0.1-0.2v-7.8c0-0.7-0.2-1.3-0.6-1.7c-0.4-0.4-0.9-0.7-1.5-0.7s-1.2,0.2-1.5,0.7c-0.4,0.4-0.6,1-0.6,1.7v7.8
			c0,0.1,0,0.2-0.1,0.2C53.4,58,53.3,58,53.2,58h-3c-0.1,0-0.2,0-0.2-0.1s-0.1-0.1-0.1-0.2V45c0-0.1,0-0.2,0.1-0.2s0.1-0.1,0.2-0.1
			h3c0.1,0,0.2,0,0.2,0.1c0.1,0.1,0.1,0.1,0.1,0.2v0.9c0,0.1,0,0.1,0.1,0.1c0,0,0.1,0,0.1,0c0.7-1,1.8-1.5,3.2-1.5
			C58.2,44.4,59.3,44.9,60.2,45.7z"/>
		<path class="st1" d="M71.7,47.5c-0.1,0.1-0.1,0.1-0.2,0.1H69c-0.1,0-0.1,0-0.1,0.1v5.5c0,0.6,0.1,1,0.4,1.3
			c0.2,0.3,0.6,0.4,1.1,0.4h0.9c0.1,0,0.2,0,0.2,0.1c0.1,0.1,0.1,0.1,0.1,0.2v2.5c0,0.2-0.1,0.3-0.3,0.3c-0.7,0-1.2,0.1-1.6,0.1
			c-1.4,0-2.5-0.2-3.2-0.7c-0.7-0.5-1.1-1.4-1.1-2.7v-7c0-0.1,0-0.1-0.1-0.1h-1.5c-0.1,0-0.2,0-0.2-0.1c-0.1-0.1-0.1-0.1-0.1-0.2V45
			c0-0.1,0-0.2,0.1-0.2c0.1-0.1,0.1-0.1,0.2-0.1h1.5c0.1,0,0.1,0,0.1-0.1v-3.1c0-0.1,0-0.2,0.1-0.2c0.1-0.1,0.1-0.1,0.2-0.1h2.9
			c0.1,0,0.2,0,0.2,0.1c0.1,0.1,0.1,0.1,0.1,0.2v3.1c0,0.1,0,0.1,0.1,0.1h2.5c0.1,0,0.2,0,0.2,0.1c0.1,0.1,0.1,0.1,0.1,0.2v2.3
			C71.8,47.4,71.7,47.4,71.7,47.5z"/>
		<path class="st1" d="M82.1,44.8c0.1,0.1,0.2,0.2,0.2,0.4l-0.5,3c0,0.2-0.1,0.3-0.4,0.2c-0.3-0.1-0.6-0.1-0.9-0.1
			c-0.1,0-0.3,0-0.6,0.1c-0.6,0.1-1.2,0.3-1.6,0.7c-0.4,0.4-0.7,0.9-0.7,1.6v7.1c0,0.1,0,0.2-0.1,0.2C77.5,58,77.4,58,77.3,58h-3
			c-0.1,0-0.2,0-0.2-0.1S74,57.8,74,57.7V45c0-0.1,0-0.2,0.1-0.2s0.1-0.1,0.2-0.1h3c0.1,0,0.2,0,0.2,0.1c0.1,0.1,0.1,0.1,0.1,0.2v1
			c0,0.1,0,0.1,0.1,0.1c0,0,0.1,0,0.1,0c0.7-1,1.7-1.6,2.9-1.6C81.3,44.5,81.8,44.6,82.1,44.8z"/>
		<path class="st1" d="M85.8,57.1c-1-0.8-1.8-1.8-2.1-3.1c-0.2-0.8-0.4-1.7-0.4-2.7c0-1,0.1-1.9,0.4-2.8c0.4-1.3,1.1-2.3,2.2-3
			c1-0.7,2.3-1.1,3.7-1.1c1.4,0,2.6,0.4,3.6,1.1s1.7,1.7,2.1,3c0.3,0.9,0.4,1.8,0.4,2.7c0,0.9-0.1,1.8-0.4,2.6
			c-0.4,1.4-1.1,2.4-2.1,3.2c-1,0.8-2.3,1.2-3.7,1.2C88,58.2,86.8,57.8,85.8,57.1z M91,54.6c0.4-0.3,0.7-0.8,0.9-1.4
			C92,52.6,92,52,92,51.3c0-0.7-0.1-1.3-0.2-1.8c-0.2-0.6-0.5-1-0.9-1.4c-0.4-0.3-0.9-0.5-1.5-0.5c-0.6,0-1.1,0.2-1.5,0.5
			c-0.4,0.3-0.7,0.8-0.8,1.4c-0.1,0.4-0.2,1-0.2,1.8c0,0.8,0.1,1.4,0.2,1.8c0.2,0.6,0.5,1.1,0.9,1.4c0.4,0.3,0.9,0.5,1.5,0.5
			C90.1,55.1,90.6,54.9,91,54.6z"/>
		<path class="st1" d="M20.2,80.6c-0.1-0.1-0.1-0.1-0.1-0.2V62.8c0-0.1,0-0.2,0.1-0.2s0.1-0.1,0.2-0.1h6.5c1.3,0,2.4,0.2,3.4,0.7
			c1,0.5,1.7,1.1,2.3,1.9c0.5,0.8,0.8,1.8,0.8,2.9v7.2c0,1.1-0.3,2.1-0.8,2.9c-0.5,0.8-1.3,1.5-2.3,1.9c-1,0.5-2.1,0.7-3.4,0.7h-6.5
			C20.3,80.7,20.3,80.6,20.2,80.6z M23.9,77.5h3.1c0.8,0,1.4-0.3,1.9-0.8s0.8-1.3,0.8-2.2v-6c0-0.9-0.2-1.6-0.7-2.2s-1.2-0.8-2-0.8
			h-3.1c-0.1,0-0.1,0-0.1,0.1v11.7C23.8,77.5,23.8,77.5,23.9,77.5z"/>
		<path class="st1" d="M47.9,74.8c0,0.2-0.1,0.3-0.3,0.3h-8c-0.1,0-0.1,0-0.1,0.1c0.1,0.3,0.1,0.7,0.3,1c0.5,1,1.4,1.5,2.8,1.5
			c1.1,0,2-0.5,2.6-1.4c0.1-0.1,0.1-0.2,0.2-0.2c0.1,0,0.1,0,0.2,0.1l1.9,1.8c0.1,0.1,0.1,0.2,0.1,0.2c0,0,0,0.1-0.1,0.2
			c-0.6,0.7-1.3,1.3-2.2,1.7c-0.9,0.4-1.9,0.6-3,0.6c-1.5,0-2.8-0.3-3.8-1c-1-0.7-1.8-1.6-2.2-2.8c-0.4-0.9-0.5-2-0.5-3.4
			c0-1,0.1-1.8,0.4-2.5c0.4-1.2,1.1-2.2,2.1-2.9s2.2-1.1,3.6-1.1c1.7,0,3.1,0.5,4.2,1.5c1,1,1.7,2.3,1.9,4
			C47.9,73.3,47.9,74,47.9,74.8z M39.6,71.8c-0.1,0.2-0.1,0.5-0.2,0.8c0,0.1,0,0.1,0.1,0.1H44c0.1,0,0.1,0,0.1-0.1
			C44,72.1,44,71.9,44,71.9c-0.2-0.5-0.4-0.9-0.8-1.2c-0.4-0.3-0.9-0.4-1.4-0.4C40.6,70.2,39.9,70.7,39.6,71.8z"/>
		<path class="st1" d="M62.6,74c0,1.2-0.2,2.3-0.5,3.3c-0.4,1.1-1,2-1.9,2.6s-1.9,1-3.2,1c-1.2,0-2.2-0.4-2.9-1.3
			c0-0.1-0.1-0.1-0.1-0.1c0,0-0.1,0.1-0.1,0.1v5.6c0,0.1,0,0.2-0.1,0.2c-0.1,0.1-0.1,0.1-0.2,0.1h-3c-0.1,0-0.2,0-0.2-0.1
			c-0.1-0.1-0.1-0.1-0.1-0.2V67.6c0-0.1,0-0.2,0.1-0.2c0.1-0.1,0.1-0.1,0.2-0.1h3c0.1,0,0.2,0,0.2,0.1s0.1,0.1,0.1,0.2v0.9
			c0,0.1,0,0.1,0.1,0.1c0,0,0.1,0,0.1,0c0.7-1,1.7-1.4,3-1.4c1.2,0,2.2,0.3,3.1,1s1.5,1.6,1.9,2.8C62.4,71.8,62.6,72.8,62.6,74z
			 M58.8,74c0-1.1-0.2-2-0.5-2.6c-0.4-0.7-1-1.1-1.9-1.1c-0.8,0-1.4,0.4-1.8,1.1c-0.4,0.6-0.5,1.5-0.5,2.6c0,1.2,0.2,2.1,0.6,2.7
			c0.4,0.7,1,1,1.8,1s1.4-0.3,1.8-1C58.5,76,58.8,75.1,58.8,74z"/>
		<path class="st1" d="M67,79.7c-1-0.8-1.8-1.8-2.1-3.1c-0.2-0.8-0.4-1.7-0.4-2.7c0-1,0.1-1.9,0.4-2.8c0.4-1.3,1.1-2.3,2.2-3
			c1-0.7,2.3-1.1,3.7-1.1c1.4,0,2.6,0.4,3.6,1.1c1,0.7,1.7,1.7,2.1,3c0.3,0.9,0.4,1.8,0.4,2.7c0,0.9-0.1,1.8-0.4,2.6
			c-0.4,1.4-1.1,2.4-2.1,3.2c-1,0.8-2.3,1.2-3.7,1.2C69.3,80.9,68,80.5,67,79.7z M72.2,77.2c0.4-0.3,0.7-0.8,0.9-1.4
			c0.1-0.6,0.2-1.2,0.2-1.8c0-0.7-0.1-1.3-0.2-1.8c-0.2-0.6-0.5-1-0.9-1.4c-0.4-0.3-0.9-0.5-1.5-0.5c-0.6,0-1.1,0.2-1.5,0.5
			c-0.4,0.3-0.7,0.8-0.8,1.4c-0.1,0.4-0.2,1-0.2,1.8c0,0.8,0.1,1.4,0.2,1.8c0.2,0.6,0.5,1.1,0.9,1.4c0.4,0.3,0.9,0.5,1.5,0.5
			C71.3,77.7,71.8,77.6,72.2,77.2z"/>
		<path class="st1" d="M87.5,67.5c0.1,0.1,0.2,0.2,0.2,0.4l-0.5,3c0,0.2-0.1,0.3-0.4,0.2c-0.3-0.1-0.6-0.1-0.9-0.1
			c-0.1,0-0.3,0-0.6,0.1c-0.6,0.1-1.2,0.3-1.6,0.7C83.2,72,83,72.6,83,73.3v7.1c0,0.1,0,0.2-0.1,0.2c-0.1,0.1-0.1,0.1-0.2,0.1h-3
			c-0.1,0-0.2,0-0.2-0.1s-0.1-0.1-0.1-0.2V67.6c0-0.1,0-0.2,0.1-0.2s0.1-0.1,0.2-0.1h3c0.1,0,0.2,0,0.2,0.1c0.1,0.1,0.1,0.1,0.1,0.2
			v1c0,0.1,0,0.1,0.1,0.1c0,0,0.1,0,0.1,0c0.7-1,1.7-1.6,2.9-1.6C86.6,67.1,87.1,67.2,87.5,67.5z"/>
		<path class="st1" d="M97,70.1c-0.1,0.1-0.1,0.1-0.2,0.1h-2.5c-0.1,0-0.1,0-0.1,0.1v5.5c0,0.6,0.1,1,0.4,1.3
			c0.2,0.3,0.6,0.4,1.1,0.4h0.9c0.1,0,0.2,0,0.2,0.1c0.1,0.1,0.1,0.1,0.1,0.2v2.5c0,0.2-0.1,0.3-0.3,0.3c-0.7,0-1.2,0.1-1.6,0.1
			c-1.4,0-2.5-0.2-3.2-0.7s-1.1-1.4-1.1-2.7v-7c0-0.1,0-0.1-0.1-0.1H89c-0.1,0-0.2,0-0.2-0.1c-0.1-0.1-0.1-0.1-0.1-0.2v-2.3
			c0-0.1,0-0.2,0.1-0.2c0.1-0.1,0.1-0.1,0.2-0.1h1.5c0.1,0,0.1,0,0.1-0.1v-3.1c0-0.1,0-0.2,0.1-0.2c0.1-0.1,0.1-0.1,0.2-0.1h2.9
			c0.1,0,0.2,0,0.2,0.1c0.1,0.1,0.1,0.1,0.1,0.2v3.1c0,0.1,0,0.1,0.1,0.1h2.5c0.1,0,0.2,0,0.2,0.1c0.1,0.1,0.1,0.1,0.1,0.2v2.3
			C97.1,70,97.1,70.1,97,70.1z"/>
		<path class="st1" d="M99.8,65.2c-0.4-0.4-0.6-0.9-0.6-1.5c0-0.6,0.2-1.1,0.6-1.5c0.4-0.4,0.9-0.6,1.5-0.6c0.6,0,1.1,0.2,1.5,0.6
			c0.4,0.4,0.6,0.9,0.6,1.5c0,0.6-0.2,1.1-0.6,1.5c-0.4,0.4-0.9,0.6-1.5,0.6C100.7,65.8,100.2,65.6,99.8,65.2z M99.5,80.6
			c-0.1-0.1-0.1-0.1-0.1-0.2V67.6c0-0.1,0-0.2,0.1-0.2c0.1-0.1,0.1-0.1,0.2-0.1h3c0.1,0,0.2,0,0.2,0.1s0.1,0.1,0.1,0.2v12.8
			c0,0.1,0,0.2-0.1,0.2s-0.1,0.1-0.2,0.1h-3C99.7,80.7,99.6,80.6,99.5,80.6z"/>
		<path class="st1" d="M109.4,80.4l-4.2-12.8c0,0,0-0.1,0-0.1c0-0.2,0.1-0.2,0.3-0.2h3.4c0.2,0,0.3,0.1,0.4,0.3l2.1,7.9
			c0,0.1,0,0.1,0.1,0.1c0,0,0.1,0,0.1-0.1l2.1-7.9c0.1-0.2,0.2-0.3,0.4-0.3l3.4,0.1c0.1,0,0.2,0,0.2,0.1c0.1,0.1,0.1,0.2,0,0.3
			l-4.1,12.7c-0.1,0.2-0.2,0.3-0.3,0.3h-3.4C109.5,80.7,109.4,80.6,109.4,80.4z"/>
		<path class="st1" d="M120.8,79.7c-1-0.8-1.8-1.8-2.1-3.1c-0.2-0.8-0.4-1.7-0.4-2.7c0-1,0.1-1.9,0.4-2.8c0.4-1.3,1.1-2.3,2.2-3
			c1-0.7,2.3-1.1,3.7-1.1c1.4,0,2.6,0.4,3.6,1.1c1,0.7,1.7,1.7,2.1,3c0.3,0.9,0.4,1.8,0.4,2.7c0,0.9-0.1,1.8-0.4,2.6
			c-0.4,1.4-1.1,2.4-2.1,3.2c-1,0.8-2.3,1.2-3.7,1.2C123.1,80.9,121.8,80.5,120.8,79.7z M126,77.2c0.4-0.3,0.7-0.8,0.9-1.4
			c0.1-0.6,0.2-1.2,0.2-1.8c0-0.7-0.1-1.3-0.2-1.8c-0.2-0.6-0.5-1-0.9-1.4c-0.4-0.3-0.9-0.5-1.5-0.5c-0.6,0-1.1,0.2-1.5,0.5
			c-0.4,0.3-0.7,0.8-0.8,1.4c-0.1,0.4-0.2,1-0.2,1.8c0,0.8,0.1,1.4,0.2,1.8c0.2,0.6,0.5,1.1,0.9,1.4c0.4,0.3,0.9,0.5,1.5,0.5
			C125.1,77.7,125.6,77.6,126,77.2z"/>
		<path class="st1" d="M32.7,88.2c-0.1,0.1-0.1,0.1-0.2,0.1h-8.5c-0.1,0-0.1,0-0.1,0.1v4c0,0.1,0,0.1,0.1,0.1h5.6
			c0.1,0,0.2,0,0.2,0.1s0.1,0.1,0.1,0.2v2.5c0,0.1,0,0.2-0.1,0.2s-0.1,0.1-0.2,0.1h-5.6c-0.1,0-0.1,0-0.1,0.1v4.2
			c0,0.1,0,0.1,0.1,0.1h8.5c0.1,0,0.2,0,0.2,0.1c0.1,0.1,0.1,0.1,0.1,0.2v2.5c0,0.1,0,0.2-0.1,0.2c-0.1,0.1-0.1,0.1-0.2,0.1h-12
			c-0.1,0-0.2,0-0.2-0.1s-0.1-0.1-0.1-0.2V85.4c0-0.1,0-0.2,0.1-0.2s0.1-0.1,0.2-0.1h12c0.1,0,0.2,0,0.2,0.1
			c0.1,0.1,0.1,0.1,0.1,0.2v2.5C32.7,88,32.7,88.1,32.7,88.2z"/>
		<path class="st1" d="M45.4,91c0.8,0.8,1.3,2,1.3,3.5v8.5c0,0.1,0,0.2-0.1,0.2c-0.1,0.1-0.1,0.1-0.2,0.1h-3c-0.1,0-0.2,0-0.2-0.1
			S43,103.1,43,103v-7.8c0-0.7-0.2-1.3-0.6-1.7c-0.4-0.4-0.9-0.7-1.5-0.7s-1.2,0.2-1.5,0.7c-0.4,0.4-0.6,1-0.6,1.7v7.8
			c0,0.1,0,0.2-0.1,0.2c-0.1,0.1-0.1,0.1-0.2,0.1h-3c-0.1,0-0.2,0-0.2-0.1s-0.1-0.1-0.1-0.2V90.3c0-0.1,0-0.2,0.1-0.2
			s0.1-0.1,0.2-0.1h3c0.1,0,0.2,0,0.2,0.1c0.1,0.1,0.1,0.1,0.1,0.2v0.9c0,0.1,0,0.1,0.1,0.1c0,0,0.1,0,0.1,0c0.7-1,1.8-1.5,3.2-1.5
			C43.4,89.7,44.5,90.2,45.4,91z"/>
		<path class="st1" d="M57.1,90c0.1,0.1,0.1,0.1,0.1,0.2v2.5c0,0.1,0,0.2-0.1,0.2S57,93,56.9,93h-2.5c-0.1,0-0.1,0-0.1,0.1v9.9
			c0,0.1,0,0.2-0.1,0.2s-0.1,0.1-0.2,0.1h-3c-0.1,0-0.2,0-0.2-0.1s-0.1-0.1-0.1-0.2v-9.9c0-0.1,0-0.1-0.1-0.1h-1.5
			c-0.1,0-0.2,0-0.2-0.1c-0.1-0.1-0.1-0.1-0.1-0.2v-2.5c0-0.1,0-0.2,0.1-0.2c0.1-0.1,0.1-0.1,0.2-0.1h1.5c0.1,0,0.1,0,0.1-0.1v-0.6
			c0-1.1,0.2-1.9,0.5-2.5c0.3-0.6,0.9-1,1.6-1.3c0.7-0.2,1.8-0.4,3.1-0.3h1c0.1,0,0.2,0,0.2,0.1s0.1,0.1,0.1,0.2v2.1
			c0,0.1,0,0.2-0.1,0.2c-0.1,0.1-0.1,0.1-0.2,0.1h-0.9c-0.6,0-1,0.1-1.3,0.4s-0.4,0.7-0.4,1.3v0.3c0,0.1,0,0.1,0.1,0.1h2.5
			C57,89.9,57.1,90,57.1,90z"/>
		<path class="st1" d="M60.7,102.4c-1-0.8-1.8-1.8-2.1-3.1c-0.2-0.8-0.4-1.7-0.4-2.7c0-1,0.1-1.9,0.4-2.8c0.4-1.3,1.1-2.3,2.2-3
			c1-0.7,2.3-1.1,3.7-1.1c1.4,0,2.6,0.4,3.6,1.1c1,0.7,1.7,1.7,2.1,3c0.3,0.9,0.4,1.8,0.4,2.7c0,0.9-0.1,1.8-0.4,2.6
			c-0.4,1.4-1.1,2.4-2.1,3.2c-1,0.8-2.3,1.2-3.7,1.2C63,103.5,61.8,103.1,60.7,102.4z M65.9,99.9c0.4-0.3,0.7-0.8,0.9-1.4
			c0.1-0.6,0.2-1.2,0.2-1.8c0-0.7-0.1-1.3-0.2-1.8c-0.2-0.6-0.5-1-0.9-1.4c-0.4-0.3-0.9-0.5-1.5-0.5c-0.6,0-1.1,0.2-1.5,0.5
			c-0.4,0.3-0.7,0.8-0.8,1.4c-0.1,0.4-0.2,1-0.2,1.8c0,0.8,0.1,1.4,0.2,1.8c0.2,0.6,0.5,1.1,0.9,1.4c0.4,0.3,0.9,0.5,1.5,0.5
			C65,100.4,65.5,100.2,65.9,99.9z"/>
		<path class="st1" d="M81.4,90c0.1-0.1,0.1-0.1,0.2-0.1h3c0.1,0,0.2,0,0.2,0.1c0.1,0.1,0.1,0.1,0.1,0.2v17.6c0,0.1,0,0.2-0.1,0.2
			c-0.1,0.1-0.1,0.1-0.2,0.1h-3c-0.1,0-0.2,0-0.2-0.1c-0.1-0.1-0.1-0.1-0.1-0.2v-5.6c0-0.1,0-0.1-0.1-0.1c0,0-0.1,0-0.1,0.1
			c-0.7,0.9-1.7,1.3-2.9,1.3c-1.3,0-2.3-0.3-3.2-1s-1.5-1.5-1.9-2.6c-0.3-0.9-0.5-2-0.5-3.3c0-1.2,0.1-2.2,0.4-3.1
			c0.4-1.2,1-2.1,1.9-2.8c0.9-0.7,1.9-1,3.1-1c1.3,0,2.3,0.5,3,1.4c0,0,0.1,0,0.1,0c0,0,0.1,0,0.1-0.1v-0.9
			C81.3,90.2,81.4,90.1,81.4,90z M81.3,96.6c0-1.1-0.2-2-0.5-2.6c-0.4-0.7-1-1.1-1.8-1.1c-0.8,0-1.5,0.4-1.9,1.1
			c-0.4,0.7-0.5,1.6-0.5,2.6c0,1.2,0.2,2.1,0.7,2.8c0.4,0.7,1,1,1.8,1c0.8,0,1.3-0.3,1.7-1C81.1,98.7,81.3,97.8,81.3,96.6z"/>
		<path class="st1" d="M95.7,90c0.1-0.1,0.1-0.1,0.2-0.1h3c0.1,0,0.2,0,0.2,0.1s0.1,0.1,0.1,0.2V103c0,0.1,0,0.2-0.1,0.2
			s-0.1,0.1-0.2,0.1h-3c-0.1,0-0.2,0-0.2-0.1s-0.1-0.1-0.1-0.2v-0.9c0-0.1,0-0.1-0.1-0.1c0,0-0.1,0-0.1,0.1
			c-0.7,0.9-1.8,1.4-3.2,1.4c-1.3,0-2.4-0.4-3.3-1.2c-0.9-0.8-1.3-1.9-1.3-3.4v-8.7c0-0.1,0-0.2,0.1-0.2c0.1-0.1,0.1-0.1,0.2-0.1h3
			c0.1,0,0.2,0,0.2,0.1s0.1,0.1,0.1,0.2V98c0,0.7,0.2,1.3,0.6,1.7s0.9,0.6,1.5,0.6c0.6,0,1.1-0.2,1.5-0.5c0.4-0.4,0.6-0.8,0.7-1.4
			v-8.2C95.6,90.2,95.6,90.1,95.7,90z"/>
		<path class="st1" d="M113.9,97.5c0,0.2-0.1,0.3-0.3,0.3h-8c-0.1,0-0.1,0-0.1,0.1c0.1,0.3,0.1,0.7,0.3,1c0.5,1,1.4,1.5,2.8,1.5
			c1.1,0,2-0.5,2.6-1.4c0.1-0.1,0.1-0.2,0.2-0.2c0.1,0,0.1,0,0.2,0.1l1.9,1.8c0.1,0.1,0.1,0.2,0.1,0.2c0,0,0,0.1-0.1,0.2
			c-0.6,0.7-1.3,1.3-2.2,1.7c-0.9,0.4-1.9,0.6-3,0.6c-1.5,0-2.8-0.3-3.8-1c-1-0.7-1.8-1.6-2.2-2.8c-0.4-0.9-0.5-2-0.5-3.4
			c0-1,0.1-1.8,0.4-2.5c0.4-1.2,1.1-2.2,2.1-2.9s2.2-1.1,3.6-1.1c1.7,0,3.1,0.5,4.2,1.5c1,1,1.7,2.3,1.9,4
			C113.9,95.9,114,96.6,113.9,97.5z M105.6,94.4c-0.1,0.2-0.1,0.5-0.2,0.8c0,0.1,0,0.1,0.1,0.1h4.5c0.1,0,0.1,0,0.1-0.1
			c-0.1-0.5-0.1-0.7-0.1-0.7c-0.2-0.5-0.4-0.9-0.8-1.2c-0.4-0.3-0.9-0.4-1.4-0.4C106.7,92.9,106,93.4,105.6,94.4z"/>
	</g>
</g>
</svg>
