<?xml version="1.0" encoding="utf-8"?>
<!-- Generator: Adobe Illustrator 24.2.1, SVG Export Plug-In . SVG Version: 6.00 Build 0)  -->
<svg version="1.1" id="Layer_1" xmlns="http://www.w3.org/2000/svg" xmlns:xlink="http://www.w3.org/1999/xlink" x="0px" y="0px"
	 viewBox="0 0 161.4 78.9" style="enable-background:new 0 0 161.4 78.9;" xml:space="preserve">
<style type="text/css">
	.st0{fill:#FFFFFF;}
	.st1{fill:#42DB8F;}
</style>
<rect x="1.6" y="27.2" class="st0" width="158.3" height="49.7"/>
<g>
	<g>
		<polygon class="st0" points="29.6,1.2 29.6,1.2 34.4,27.6 24.8,27.6 		"/>
	</g>
</g>
<g>
	<g>
		<path class="st1" d="M29.8,45.9C29.7,46,29.7,46,29.6,46h-8.5C21,46,21,46,21,46.1v4c0,0.1,0,0.1,0.1,0.1h5.6c0.1,0,0.2,0,0.2,0.1
			c0.1,0.1,0.1,0.1,0.1,0.2V53c0,0.1,0,0.2-0.1,0.2c-0.1,0.1-0.1,0.1-0.2,0.1h-5.6c-0.1,0-0.1,0-0.1,0.1v7.2c0,0.1,0,0.2-0.1,0.2
			c-0.1,0.1-0.1,0.1-0.2,0.1h-3c-0.1,0-0.2,0-0.2-0.1c-0.1-0.1-0.1-0.1-0.1-0.2V43.2c0-0.1,0-0.2,0.1-0.2c0.1-0.1,0.1-0.1,0.2-0.1
			h12c0.1,0,0.2,0,0.2,0.1s0.1,0.1,0.1,0.2v2.5C29.9,45.8,29.9,45.9,29.8,45.9z"/>
		<path class="st1" d="M38.7,48.1c0.9,0.4,1.6,0.9,2.1,1.6c0.5,0.7,0.7,1.4,0.7,2.3v8.8c0,0.1,0,0.2-0.1,0.2
			c-0.1,0.1-0.1,0.1-0.2,0.1h-3c-0.1,0-0.2,0-0.2-0.1c-0.1-0.1-0.1-0.1-0.1-0.2v-0.9c0-0.1,0-0.1-0.1-0.1s-0.1,0-0.1,0.1
			c-0.7,1-1.9,1.4-3.5,1.4c-1.4,0-2.4-0.3-3.3-1s-1.2-1.6-1.2-2.9c0-1.3,0.5-2.4,1.4-3.1c0.9-0.7,2.3-1.1,4-1.1h2.7
			c0.1,0,0.1,0,0.1-0.1v-0.6c0-0.6-0.2-1-0.5-1.3s-0.9-0.5-1.6-0.5c-0.5,0-1,0.1-1.3,0.3c-0.4,0.2-0.6,0.5-0.7,0.8
			c-0.1,0.2-0.2,0.3-0.3,0.3l-3.1-0.4c-0.2,0-0.3-0.1-0.3-0.2c0.1-0.7,0.4-1.4,0.9-2s1.2-1,2-1.4c0.8-0.3,1.8-0.5,2.8-0.5
			C36.8,47.5,37.8,47.7,38.7,48.1z M37,58c0.5-0.4,0.8-0.9,0.8-1.5v-0.9c0-0.1,0-0.1-0.1-0.1h-1.9c-0.8,0-1.4,0.1-1.8,0.4
			c-0.4,0.3-0.7,0.7-0.7,1.2s0.2,0.8,0.5,1.1s0.8,0.4,1.3,0.4C35.9,58.6,36.5,58.4,37,58z"/>
		<path class="st1" d="M52.2,47.9c0.1,0.1,0.2,0.2,0.2,0.4l-0.5,3c0,0.2-0.1,0.3-0.4,0.2c-0.3-0.1-0.6-0.1-0.9-0.1
			c-0.1,0-0.3,0-0.6,0.1c-0.6,0.1-1.2,0.3-1.6,0.7s-0.6,0.9-0.6,1.6v7.1c0,0.1,0,0.2-0.1,0.2c-0.1,0.1-0.1,0.1-0.2,0.1h-3
			c-0.1,0-0.2,0-0.2-0.1c-0.1-0.1-0.1-0.1-0.1-0.2V48c0-0.1,0-0.2,0.1-0.2c0.1-0.1,0.1-0.1,0.2-0.1h3c0.1,0,0.2,0,0.2,0.1
			c0.1,0.1,0.1,0.1,0.1,0.2v1c0,0.1,0,0.1,0.1,0.1s0.1,0,0.1,0c0.7-1,1.7-1.6,2.9-1.6C51.4,47.5,51.9,47.6,52.2,47.9z"/>
		<path class="st1" d="M72,48.7c0.8,0.8,1.1,2,1.1,3.4v8.6c0,0.1,0,0.2-0.1,0.2S72.9,61,72.8,61h-3c-0.1,0-0.2,0-0.2-0.1
			c-0.1-0.1-0.1-0.1-0.1-0.2V53c0-0.7-0.2-1.3-0.5-1.7c-0.4-0.4-0.9-0.6-1.5-0.6s-1.1,0.2-1.5,0.6c-0.4,0.4-0.6,1-0.6,1.7v7.8
			c0,0.1,0,0.2-0.1,0.2s-0.1,0.1-0.2,0.1h-3c-0.1,0-0.2,0-0.2-0.1c-0.1-0.1-0.1-0.1-0.1-0.2V53c0-0.7-0.2-1.3-0.6-1.7
			c-0.4-0.4-0.9-0.6-1.5-0.6s-1,0.2-1.4,0.5s-0.6,0.8-0.7,1.4v8.2c0,0.1,0,0.2-0.1,0.2c-0.1,0.1-0.1,0.1-0.2,0.1h-3
			c-0.1,0-0.2,0-0.2-0.1C54,60.9,54,60.9,54,60.8V48c0-0.1,0-0.2,0.1-0.2c0.1-0.1,0.1-0.1,0.2-0.1h3c0.1,0,0.2,0,0.2,0.1
			c0.1,0.1,0.1,0.1,0.1,0.2v1c0,0.1,0,0.1,0.1,0.1c0,0,0.1,0,0.1-0.1c0.7-1.1,1.8-1.6,3.3-1.6c0.9,0,1.6,0.2,2.3,0.5
			c0.7,0.4,1.1,0.9,1.5,1.6c0.1,0.1,0.1,0.1,0.2,0c0.4-0.7,0.9-1.2,1.5-1.6c0.7-0.3,1.4-0.5,2.2-0.5C70.2,47.5,71.3,47.9,72,48.7z"
			/>
		<path class="st1" d="M84.1,48.1c0.9,0.4,1.6,0.9,2.1,1.6c0.5,0.7,0.7,1.4,0.7,2.3v8.8c0,0.1,0,0.2-0.1,0.2
			c-0.1,0.1-0.1,0.1-0.2,0.1h-3c-0.1,0-0.2,0-0.2-0.1c-0.1-0.1-0.1-0.1-0.1-0.2v-0.9c0-0.1,0-0.1-0.1-0.1s-0.1,0-0.1,0.1
			c-0.7,1-1.9,1.4-3.5,1.4c-1.4,0-2.4-0.3-3.3-1s-1.2-1.6-1.2-2.9c0-1.3,0.5-2.4,1.4-3.1c0.9-0.7,2.3-1.1,4-1.1h2.7
			c0.1,0,0.1,0,0.1-0.1v-0.6c0-0.6-0.2-1-0.5-1.3s-0.9-0.5-1.6-0.5c-0.5,0-1,0.1-1.3,0.3c-0.4,0.2-0.6,0.5-0.7,0.8
			C79.1,51.9,79,52,78.8,52l-3.1-0.4c-0.2,0-0.3-0.1-0.3-0.2c0.1-0.7,0.4-1.4,0.9-2s1.2-1,2-1.4c0.8-0.3,1.8-0.5,2.8-0.5
			C82.2,47.5,83.2,47.7,84.1,48.1z M82.5,58c0.5-0.4,0.8-0.9,0.8-1.5v-0.9c0-0.1,0-0.1-0.1-0.1h-1.9c-0.8,0-1.4,0.1-1.8,0.4
			c-0.4,0.3-0.7,0.7-0.7,1.2s0.2,0.8,0.5,1.1s0.8,0.4,1.3,0.4C81.3,58.6,81.9,58.4,82.5,58z"/>
		<path class="st1" d="M91.8,60.8c-0.9-0.3-1.5-0.8-2-1.4c-0.5-0.6-0.7-1.3-0.7-2v-0.3c0-0.1,0-0.2,0.1-0.2c0.1-0.1,0.1-0.1,0.2-0.1
			h2.9c0.1,0,0.2,0,0.2,0.1c0.1,0.1,0.1,0.1,0.1,0.2l0,0c0,0.4,0.2,0.7,0.6,1s1,0.4,1.6,0.4s1.1-0.1,1.4-0.4
			c0.4-0.2,0.5-0.5,0.5-0.9c0-0.3-0.2-0.5-0.5-0.7s-0.8-0.3-1.5-0.5c-0.8-0.2-1.5-0.4-1.9-0.6c-1.1-0.4-2-0.8-2.7-1.4
			c-0.7-0.6-1-1.4-1-2.4c0-1.3,0.5-2.3,1.5-3.1s2.3-1.1,4-1.1c1.1,0,2.1,0.2,2.9,0.5s1.5,0.9,1.9,1.5c0.5,0.6,0.7,1.4,0.7,2.2
			c0,0.1,0,0.2-0.1,0.2c0.1,0.2,0,0.2-0.1,0.2h-2.8c-0.1,0-0.1,0-0.2,0c-0.1-0.1-0.1-0.1-0.1-0.2c0-0.4-0.2-0.7-0.6-1
			s-0.9-0.4-1.5-0.4s-1,0.1-1.4,0.3s-0.5,0.5-0.5,0.9c0,0.3,0.2,0.6,0.5,0.8c0.4,0.2,0.9,0.4,1.8,0.5c0.2,0.1,0.4,0.1,0.7,0.2
			c0.2,0.1,0.5,0.1,0.8,0.2c1.2,0.4,2.2,0.8,2.9,1.4c0.7,0.6,1.1,1.4,1.1,2.5c0,1.3-0.5,2.3-1.5,3s-2.4,1.1-4.1,1.1
			C93.7,61.3,92.6,61.1,91.8,60.8z"/>
		<path class="st1" d="M112.9,48.8c0.8,0.8,1.3,2,1.3,3.5v8.5c0,0.1,0,0.2-0.1,0.2s-0.1,0.1-0.2,0.1h-3c-0.1,0-0.2,0-0.2-0.1
			s-0.1-0.1-0.1-0.2V53c0-0.7-0.2-1.3-0.6-1.7s-0.9-0.7-1.5-0.7s-1.2,0.2-1.5,0.7c-0.4,0.4-0.6,1-0.6,1.7v7.8c0,0.1,0,0.2-0.1,0.2
			s-0.1,0.1-0.2,0.1h-3c-0.1,0-0.2,0-0.2-0.1c-0.1-0.1-0.1-0.1-0.1-0.2V43.2c0-0.1,0-0.2,0.1-0.2c0.1-0.1,0.1-0.1,0.2-0.1h3
			c0.1,0,0.2,0,0.2,0.1s0.1,0.1,0.1,0.2v5.7c0,0.1,0,0.1,0.1,0.1h0.1c0.7-1,1.8-1.5,3.2-1.5C110.9,47.5,112,47.9,112.9,48.8z"/>
		<path class="st1" d="M118.9,60.1c-1-0.8-1.8-1.8-2.1-3.1c-0.2-0.8-0.4-1.7-0.4-2.7s0.1-1.9,0.4-2.8c0.4-1.3,1.1-2.3,2.2-3
			c1-0.7,2.3-1.1,3.7-1.1c1.4,0,2.6,0.4,3.6,1.1s1.7,1.7,2.1,3c0.3,0.9,0.4,1.8,0.4,2.7s-0.1,1.8-0.4,2.6c-0.4,1.4-1.1,2.4-2.1,3.2
			s-2.3,1.2-3.7,1.2C121.1,61.3,119.9,60.9,118.9,60.1z M124.1,57.6c0.4-0.3,0.7-0.8,0.9-1.4c0.1-0.6,0.2-1.2,0.2-1.8
			c0-0.7-0.1-1.3-0.2-1.8c-0.2-0.6-0.5-1-0.9-1.4c-0.4-0.3-0.9-0.5-1.5-0.5s-1.1,0.2-1.5,0.5s-0.7,0.8-0.8,1.4
			c-0.1,0.4-0.2,1-0.2,1.8s0.1,1.4,0.2,1.8c0.2,0.6,0.5,1.1,0.9,1.4s0.9,0.5,1.5,0.5C123.2,58.1,123.7,58,124.1,57.6z"/>
		<path class="st1" d="M143.6,54.4c0,1.2-0.2,2.3-0.5,3.3c-0.4,1.1-1,2-1.9,2.6s-1.9,1-3.2,1c-1.2,0-2.2-0.4-2.9-1.3
			c0-0.1-0.1-0.1-0.1-0.1l-0.1,0.1v5.6c0,0.1,0,0.2-0.1,0.2c-0.1,0.1-0.1,0.1-0.2,0.1h-3c-0.1,0-0.2,0-0.2-0.1
			c-0.1-0.1-0.1-0.1-0.1-0.2V48c0-0.1,0-0.2,0.1-0.2s0.1-0.1,0.2-0.1h3c0.1,0,0.2,0,0.2,0.1s0.1,0.1,0.1,0.2v0.9
			c0,0.1,0,0.1,0.1,0.1h0.1c0.7-1,1.7-1.4,3-1.4c1.2,0,2.2,0.3,3.1,1c0.9,0.7,1.5,1.6,1.9,2.8C143.4,52.2,143.6,53.2,143.6,54.4z
			 M139.8,54.4c0-1.1-0.2-2-0.5-2.6c-0.4-0.7-1-1.1-1.9-1.1c-0.8,0-1.4,0.4-1.8,1.1c-0.4,0.6-0.5,1.5-0.5,2.6c0,1.2,0.2,2.1,0.6,2.7
			c0.4,0.7,1,1,1.8,1s1.4-0.3,1.8-1C139.6,56.4,139.8,55.5,139.8,54.4z"/>
	</g>
</g>
</svg>
