<?xml version="1.0" encoding="utf-8"?>
<!-- Generator: Adobe Illustrator 24.2.1, SVG Export Plug-In . SVG Version: 6.00 Build 0)  -->
<svg version="1.1" id="Layer_1" xmlns="http://www.w3.org/2000/svg" xmlns:xlink="http://www.w3.org/1999/xlink" x="0px" y="0px"
	 viewBox="0 0 159 100.5" style="enable-background:new 0 0 159 100.5;" xml:space="preserve">
<style type="text/css">
	.st0{fill:#42DB8F;}
	.st1{fill:#FFFFFF;}
</style>
<g>
	<rect x="1.8" y="1.7" class="st0" width="154.6" height="71.1"/>
	<g>
		<g>
			<polygon class="st0" points="79.2,98.8 79.2,98.8 74.4,72.4 84.1,72.4 			"/>
		</g>
	</g>
</g>
<g>
	<g>
		<path class="st1" d="M26.6,17c0.1-0.1,0.1-0.1,0.2-0.1h3c0.1,0,0.2,0,0.2,0.1s0.1,0.1,0.1,0.2v17.6c0,0.1,0,0.2-0.1,0.2
			s-0.1,0.1-0.2,0.1h-3c-0.1,0-0.2,0-0.2-0.1c-0.1-0.1-0.1-0.1-0.1-0.2v-7.2c0-0.1,0-0.1-0.1-0.1h-5.7c-0.1,0-0.1,0-0.1,0.1v7.2
			c0,0.1,0,0.2-0.1,0.2s-0.1,0.1-0.2,0.1h-3c-0.1,0-0.2,0-0.2-0.1s-0.1-0.1-0.1-0.2V17.2c0-0.1,0-0.2,0.1-0.2s0.1-0.1,0.2-0.1h3
			c0.1,0,0.2,0,0.2,0.1s0.1,0.1,0.1,0.2v7c0,0.1,0,0.1,0.1,0.1h5.7c0.1,0,0.1,0,0.1-0.1v-7C26.5,17.1,26.5,17,26.6,17z"/>
		<path class="st1" d="M35,34.1c-1-0.8-1.8-1.8-2.1-3.1c-0.2-0.8-0.4-1.7-0.4-2.7c0-1,0.1-1.9,0.4-2.8c0.4-1.3,1.1-2.3,2.2-3
			c1-0.7,2.3-1.1,3.7-1.1c1.4,0,2.6,0.4,3.6,1.1s1.7,1.7,2.1,3c0.3,0.9,0.4,1.8,0.4,2.7c0,0.9-0.1,1.8-0.4,2.6
			c-0.4,1.4-1.1,2.4-2.1,3.2c-1,0.8-2.3,1.2-3.7,1.2C37.3,35.3,36.1,34.9,35,34.1z M40.3,31.6c0.4-0.3,0.7-0.8,0.9-1.4
			c0.1-0.6,0.2-1.2,0.2-1.8c0-0.7-0.1-1.3-0.2-1.8c-0.2-0.6-0.5-1-0.9-1.4c-0.4-0.3-0.9-0.5-1.5-0.5c-0.6,0-1.1,0.2-1.5,0.5
			c-0.4,0.3-0.7,0.8-0.8,1.4c-0.1,0.4-0.2,1-0.2,1.8c0,0.8,0.1,1.4,0.2,1.8c0.2,0.6,0.5,1.1,0.9,1.4s0.9,0.5,1.5,0.5
			C39.4,32.1,39.9,32,40.3,31.6z"/>
		<path class="st1" d="M49.7,34.8c-0.9-0.3-1.5-0.8-2-1.4c-0.5-0.6-0.7-1.3-0.7-2v-0.3c0-0.1,0-0.2,0.1-0.2c0.1-0.1,0.1-0.1,0.2-0.1
			h2.9c0.1,0,0.2,0,0.2,0.1c0.1,0.1,0.1,0.1,0.1,0.2v0c0,0.4,0.2,0.7,0.6,1c0.4,0.3,1,0.4,1.6,0.4c0.6,0,1.1-0.1,1.4-0.4
			c0.4-0.2,0.5-0.5,0.5-0.9c0-0.3-0.2-0.5-0.5-0.7c-0.3-0.2-0.8-0.3-1.5-0.5c-0.8-0.2-1.5-0.4-1.9-0.6c-1.1-0.4-2-0.8-2.7-1.4
			c-0.7-0.6-1-1.4-1-2.4c0-1.3,0.5-2.3,1.5-3.1c1-0.8,2.3-1.1,4-1.1c1.1,0,2.1,0.2,2.9,0.5s1.5,0.9,1.9,1.5c0.5,0.6,0.7,1.4,0.7,2.2
			c0,0.1,0,0.2-0.1,0.2C57.9,26,57.9,26,57.8,26H55c-0.1,0-0.2,0-0.2-0.1c-0.1-0.1-0.1-0.1-0.1-0.2c0-0.4-0.2-0.7-0.6-1
			c-0.4-0.3-0.9-0.4-1.5-0.4c-0.6,0-1,0.1-1.4,0.3s-0.5,0.5-0.5,0.9c0,0.3,0.2,0.6,0.5,0.8c0.4,0.2,0.9,0.4,1.8,0.5
			c0.2,0.1,0.4,0.1,0.7,0.2c0.2,0.1,0.5,0.1,0.8,0.2c1.2,0.4,2.2,0.8,2.9,1.4s1.1,1.4,1.1,2.5c0,1.3-0.5,2.3-1.5,3
			c-1,0.7-2.4,1.1-4.1,1.1C51.5,35.2,50.5,35.1,49.7,34.8z"/>
		<path class="st1" d="M72.8,28.4c0,1.2-0.2,2.3-0.5,3.3c-0.4,1.1-1,2-1.9,2.6s-1.9,1-3.2,1c-1.2,0-2.2-0.4-2.9-1.3
			c0-0.1-0.1-0.1-0.1-0.1c0,0-0.1,0.1-0.1,0.1v5.6c0,0.1,0,0.2-0.1,0.2c-0.1,0.1-0.1,0.1-0.2,0.1h-3c-0.1,0-0.2,0-0.2-0.1
			c-0.1-0.1-0.1-0.1-0.1-0.2V22c0-0.1,0-0.2,0.1-0.2c0.1-0.1,0.1-0.1,0.2-0.1h3c0.1,0,0.2,0,0.2,0.1s0.1,0.1,0.1,0.2v0.9
			c0,0.1,0,0.1,0.1,0.1c0,0,0.1,0,0.1,0c0.7-1,1.7-1.4,3-1.4c1.2,0,2.2,0.3,3.1,1c0.9,0.7,1.5,1.6,1.9,2.8
			C72.7,26.2,72.8,27.2,72.8,28.4z M69,28.4c0-1.1-0.2-2-0.5-2.6c-0.4-0.7-1-1.1-1.9-1.1c-0.8,0-1.4,0.4-1.8,1.1
			c-0.4,0.6-0.5,1.5-0.5,2.6c0,1.2,0.2,2.1,0.6,2.7c0.4,0.7,1,1,1.8,1s1.4-0.3,1.8-1C68.8,30.4,69,29.5,69,28.4z"/>
		<path class="st1" d="M75.7,19.6c-0.4-0.4-0.6-0.9-0.6-1.5c0-0.6,0.2-1.1,0.6-1.5s0.9-0.6,1.5-0.6c0.6,0,1.1,0.2,1.5,0.6
			c0.4,0.4,0.6,0.9,0.6,1.5c0,0.6-0.2,1.1-0.6,1.5c-0.4,0.4-0.9,0.6-1.5,0.6C76.6,20.2,76.1,20,75.7,19.6z M75.4,35
			c-0.1-0.1-0.1-0.1-0.1-0.2V22c0-0.1,0-0.2,0.1-0.2c0.1-0.1,0.1-0.1,0.2-0.1h3c0.1,0,0.2,0,0.2,0.1C79,21.8,79,21.9,79,22v12.8
			c0,0.1,0,0.2-0.1,0.2s-0.1,0.1-0.2,0.1h-3C75.5,35.1,75.5,35,75.4,35z"/>
		<path class="st1" d="M89.4,24.5c-0.1,0.1-0.1,0.1-0.2,0.1h-2.5c-0.1,0-0.1,0-0.1,0.1v5.5c0,0.6,0.1,1,0.4,1.3
			c0.2,0.3,0.6,0.4,1.1,0.4h0.9c0.1,0,0.2,0,0.2,0.1c0.1,0.1,0.1,0.1,0.1,0.2v2.5c0,0.2-0.1,0.3-0.3,0.3c-0.7,0-1.2,0.1-1.6,0.1
			c-1.4,0-2.5-0.2-3.2-0.7c-0.7-0.5-1.1-1.4-1.1-2.7v-7c0-0.1,0-0.1-0.1-0.1h-1.5c-0.1,0-0.2,0-0.2-0.1c-0.1-0.1-0.1-0.1-0.1-0.2V22
			c0-0.1,0-0.2,0.1-0.2c0.1-0.1,0.1-0.1,0.2-0.1h1.5c0.1,0,0.1,0,0.1-0.1v-3.1c0-0.1,0-0.2,0.1-0.2c0.1-0.1,0.1-0.1,0.2-0.1h2.9
			c0.1,0,0.2,0,0.2,0.1c0.1,0.1,0.1,0.1,0.1,0.2v3.1c0,0.1,0,0.1,0.1,0.1h2.5c0.1,0,0.2,0,0.2,0.1c0.1,0.1,0.1,0.1,0.1,0.2v2.3
			C89.5,24.4,89.5,24.5,89.4,24.5z"/>
		<path class="st1" d="M100.1,22.1c0.9,0.4,1.6,0.9,2.1,1.6c0.5,0.7,0.7,1.4,0.7,2.3v8.8c0,0.1,0,0.2-0.1,0.2
			c-0.1,0.1-0.1,0.1-0.2,0.1h-3c-0.1,0-0.2,0-0.2-0.1c-0.1-0.1-0.1-0.1-0.1-0.2v-0.9c0-0.1,0-0.1-0.1-0.1c0,0-0.1,0-0.1,0.1
			c-0.7,1-1.9,1.4-3.5,1.4c-1.4,0-2.4-0.3-3.3-1c-0.8-0.7-1.2-1.6-1.2-2.9c0-1.3,0.5-2.4,1.4-3.1c0.9-0.7,2.3-1.1,4-1.1h2.7
			c0.1,0,0.1,0,0.1-0.1v-0.6c0-0.6-0.2-1-0.5-1.3c-0.3-0.3-0.9-0.5-1.6-0.5c-0.5,0-1,0.1-1.3,0.3c-0.4,0.2-0.6,0.5-0.7,0.8
			c-0.1,0.2-0.2,0.3-0.3,0.3l-3.1-0.4c-0.2,0-0.3-0.1-0.3-0.2c0.1-0.7,0.4-1.4,0.9-2c0.5-0.6,1.2-1,2-1.4c0.8-0.3,1.8-0.5,2.8-0.5
			C98.2,21.5,99.2,21.7,100.1,22.1z M98.4,31.9c0.5-0.4,0.8-0.9,0.8-1.5v-0.9c0-0.1,0-0.1-0.1-0.1h-1.9c-0.8,0-1.4,0.1-1.8,0.4
			c-0.4,0.3-0.7,0.7-0.7,1.2c0,0.5,0.2,0.8,0.5,1.1s0.8,0.4,1.3,0.4C97.3,32.5,97.9,32.3,98.4,31.9z"/>
		<path class="st1" d="M105.6,35c-0.1-0.1-0.1-0.1-0.1-0.2V17.2c0-0.1,0-0.2,0.1-0.2s0.1-0.1,0.2-0.1h3c0.1,0,0.2,0,0.2,0.1
			c0.1,0.1,0.1,0.1,0.1,0.2v17.6c0,0.1,0,0.2-0.1,0.2c-0.1,0.1-0.1,0.1-0.2,0.1h-3C105.7,35.1,105.6,35,105.6,35z"/>
		<path class="st1" d="M29.3,42.6c-0.1,0.1-0.1,0.1-0.2,0.1h-8.5c-0.1,0-0.1,0-0.1,0.1v4c0,0.1,0,0.1,0.1,0.1h5.6
			c0.1,0,0.2,0,0.2,0.1c0.1,0.1,0.1,0.1,0.1,0.2v2.5c0,0.1,0,0.2-0.1,0.2c-0.1,0.1-0.1,0.1-0.2,0.1h-5.6c-0.1,0-0.1,0-0.1,0.1v4.2
			c0,0.1,0,0.1,0.1,0.1h8.5c0.1,0,0.2,0,0.2,0.1c0.1,0.1,0.1,0.1,0.1,0.2v2.5c0,0.1,0,0.2-0.1,0.2c-0.1,0.1-0.1,0.1-0.2,0.1h-12
			c-0.1,0-0.2,0-0.2-0.1s-0.1-0.1-0.1-0.2V39.8c0-0.1,0-0.2,0.1-0.2s0.1-0.1,0.2-0.1h12c0.1,0,0.2,0,0.2,0.1
			c0.1,0.1,0.1,0.1,0.1,0.2v2.5C29.4,42.4,29.4,42.5,29.3,42.6z"/>
		<path class="st1" d="M35.1,57.5L31,44.7c0,0,0-0.1,0-0.1c0-0.2,0.1-0.2,0.3-0.2h3.4c0.2,0,0.3,0.1,0.4,0.3l2.1,7.9
			c0,0.1,0,0.1,0.1,0.1c0,0,0.1,0,0.1-0.1l2.1-7.9c0.1-0.2,0.2-0.3,0.4-0.3l3.4,0.1c0.1,0,0.2,0,0.2,0.1c0.1,0.1,0.1,0.2,0,0.3
			l-4.1,12.7c-0.1,0.2-0.2,0.3-0.3,0.3h-3.4C35.3,57.7,35.2,57.6,35.1,57.5z"/>
		<path class="st1" d="M52.9,44.7c0.9,0.4,1.6,0.9,2.1,1.6c0.5,0.7,0.7,1.4,0.7,2.3v8.8c0,0.1,0,0.2-0.1,0.2
			c-0.1,0.1-0.1,0.1-0.2,0.1h-3c-0.1,0-0.2,0-0.2-0.1c-0.1-0.1-0.1-0.1-0.1-0.2v-0.9c0-0.1,0-0.1-0.1-0.1c0,0-0.1,0-0.1,0.1
			c-0.7,1-1.9,1.4-3.5,1.4c-1.4,0-2.4-0.3-3.3-1c-0.8-0.7-1.2-1.6-1.2-2.9c0-1.3,0.5-2.4,1.4-3.1c0.9-0.7,2.3-1.1,4-1.1h2.7
			c0.1,0,0.1,0,0.1-0.1v-0.6c0-0.6-0.2-1-0.5-1.3c-0.3-0.3-0.9-0.5-1.6-0.5c-0.5,0-1,0.1-1.3,0.3c-0.4,0.2-0.6,0.5-0.7,0.8
			c-0.1,0.2-0.2,0.3-0.3,0.3l-3.1-0.4c-0.2,0-0.3-0.1-0.3-0.2c0.1-0.7,0.4-1.4,0.9-2c0.5-0.6,1.2-1,2-1.4c0.8-0.3,1.8-0.5,2.8-0.5
			C51,44.1,52,44.3,52.9,44.7z M51.3,54.6c0.5-0.4,0.8-0.9,0.8-1.5v-0.9c0-0.1,0-0.1-0.1-0.1h-1.9c-0.8,0-1.4,0.1-1.8,0.4
			c-0.4,0.3-0.7,0.7-0.7,1.2c0,0.5,0.2,0.8,0.5,1.1s0.8,0.4,1.3,0.4C50.1,55.2,50.8,55,51.3,54.6z"/>
		<path class="st1" d="M68.6,45.4c0.8,0.8,1.3,2,1.3,3.5v8.5c0,0.1,0,0.2-0.1,0.2c-0.1,0.1-0.1,0.1-0.2,0.1h-3c-0.1,0-0.2,0-0.2-0.1
			s-0.1-0.1-0.1-0.2v-7.8c0-0.7-0.2-1.3-0.6-1.7c-0.4-0.4-0.9-0.7-1.5-0.7c-0.6,0-1.2,0.2-1.5,0.7c-0.4,0.4-0.6,1-0.6,1.7v7.8
			c0,0.1,0,0.2-0.1,0.2c-0.1,0.1-0.1,0.1-0.2,0.1h-3c-0.1,0-0.2,0-0.2-0.1s-0.1-0.1-0.1-0.2V44.7c0-0.1,0-0.2,0.1-0.2
			s0.1-0.1,0.2-0.1h3c0.1,0,0.2,0,0.2,0.1c0.1,0.1,0.1,0.1,0.1,0.2v0.9c0,0.1,0,0.1,0.1,0.1c0,0,0.1,0,0.1,0c0.7-1,1.8-1.5,3.2-1.5
			C66.7,44.1,67.8,44.6,68.6,45.4z"/>
		<path class="st1" d="M80.8,44.4c0.1-0.1,0.1-0.1,0.2-0.1h3c0.1,0,0.2,0,0.2,0.1s0.1,0.1,0.1,0.2v11.9c0,2.3-0.7,3.9-2,4.9
			c-1.3,1-3,1.5-5.1,1.5c-0.6,0-1.3,0-2-0.1c-0.2,0-0.3-0.1-0.3-0.3l0.1-2.7c0-0.2,0.1-0.3,0.4-0.3c0.6,0.1,1.2,0.2,1.7,0.2
			c1.1,0,2-0.2,2.6-0.7s0.9-1.3,0.9-2.3c0-0.1,0-0.1-0.1-0.1c0,0-0.1,0-0.1,0c-0.7,0.7-1.6,1.1-2.9,1.1c-1.1,0-2.2-0.3-3.1-0.8
			s-1.6-1.4-2-2.6c-0.3-0.8-0.4-1.8-0.4-3.1c0-1.4,0.2-2.5,0.5-3.3c0.4-1.1,1-1.9,1.8-2.5s1.9-1,3-1c1.3,0,2.4,0.4,3.1,1.2
			c0,0,0.1,0,0.1,0c0,0,0.1,0,0.1-0.1v-0.6C80.7,44.6,80.7,44.5,80.8,44.4z M80.7,50.9c0-0.5,0-1-0.1-1.2c0-0.3-0.1-0.6-0.2-0.8
			c-0.2-0.5-0.4-0.8-0.8-1.1s-0.8-0.4-1.4-0.4c-0.5,0-1,0.1-1.3,0.4c-0.4,0.3-0.6,0.7-0.8,1.1c-0.2,0.5-0.4,1.2-0.4,2.1
			c0,1,0.1,1.7,0.3,2.1c0.2,0.5,0.4,0.8,0.8,1.1c0.4,0.3,0.9,0.4,1.4,0.4c0.6,0,1-0.1,1.4-0.4s0.6-0.7,0.8-1.1
			C80.6,52.5,80.7,51.8,80.7,50.9z"/>
		<path class="st1" d="M98.9,51.9c0,0.2-0.1,0.3-0.3,0.3h-8c-0.1,0-0.1,0-0.1,0.1c0.1,0.3,0.1,0.7,0.3,1c0.5,1,1.4,1.5,2.8,1.5
			c1.1,0,2-0.5,2.6-1.4c0.1-0.1,0.1-0.2,0.2-0.2c0.1,0,0.1,0,0.2,0.1l1.9,1.8c0.1,0.1,0.1,0.2,0.1,0.2c0,0,0,0.1-0.1,0.2
			c-0.6,0.7-1.3,1.3-2.2,1.7c-0.9,0.4-1.9,0.6-3,0.6c-1.5,0-2.8-0.3-3.8-1c-1-0.7-1.8-1.6-2.2-2.8c-0.4-0.9-0.5-2-0.5-3.4
			c0-1,0.1-1.8,0.4-2.5c0.4-1.2,1.1-2.2,2.1-2.9c1-0.7,2.2-1.1,3.6-1.1c1.7,0,3.1,0.5,4.2,1.5c1,1,1.7,2.3,1.9,4
			C98.9,50.3,99,51,98.9,51.9z M90.6,48.8c-0.1,0.2-0.1,0.5-0.2,0.8c0,0.1,0,0.1,0.1,0.1h4.5c0.1,0,0.1,0,0.1-0.1
			c-0.1-0.5-0.1-0.7-0.1-0.7c-0.2-0.5-0.4-0.9-0.8-1.2c-0.4-0.3-0.9-0.4-1.4-0.4C91.7,47.3,91,47.8,90.6,48.8z M91,42.6
			c0-0.1,0-0.2,0-0.3l1.4-2.6c0.1-0.2,0.2-0.2,0.4-0.2h2.6c0.1,0,0.2,0,0.2,0.1c0,0.1,0,0.2,0,0.3l-1.8,2.6
			c-0.1,0.1-0.2,0.2-0.4,0.2h-2.2C91.1,42.7,91.1,42.7,91,42.6z"/>
		<path class="st1" d="M101.2,57.6c-0.1-0.1-0.1-0.1-0.1-0.2V39.8c0-0.1,0-0.2,0.1-0.2s0.1-0.1,0.2-0.1h3c0.1,0,0.2,0,0.2,0.1
			c0.1,0.1,0.1,0.1,0.1,0.2v17.6c0,0.1,0,0.2-0.1,0.2c-0.1,0.1-0.1,0.1-0.2,0.1h-3C101.4,57.7,101.3,57.7,101.2,57.6z"/>
		<path class="st1" d="M108,42.3c-0.4-0.4-0.6-0.9-0.6-1.5c0-0.6,0.2-1.1,0.6-1.5s0.9-0.6,1.5-0.6c0.6,0,1.1,0.2,1.5,0.6
			c0.4,0.4,0.6,0.9,0.6,1.5c0,0.6-0.2,1.1-0.6,1.5c-0.4,0.4-0.9,0.6-1.5,0.6C108.9,42.8,108.4,42.6,108,42.3z M107.7,57.6
			c-0.1-0.1-0.1-0.1-0.1-0.2V44.6c0-0.1,0-0.2,0.1-0.2c0.1-0.1,0.1-0.1,0.2-0.1h3c0.1,0,0.2,0,0.2,0.1c0.1,0.1,0.1,0.1,0.1,0.2v12.8
			c0,0.1,0,0.2-0.1,0.2s-0.1,0.1-0.2,0.1h-3C107.8,57.7,107.7,57.7,107.7,57.6z"/>
		<path class="st1" d="M116.4,56.9c-1-0.7-1.7-1.6-2.2-2.9c-0.3-0.9-0.4-1.9-0.4-3.1c0-1.2,0.1-2.2,0.4-3c0.4-1.2,1.1-2.1,2.2-2.8
			c1-0.7,2.2-1,3.6-1c1.4,0,2.6,0.3,3.7,1s1.7,1.6,2.1,2.6c0.1,0.4,0.2,0.7,0.2,0.9v0.1c0,0.2-0.1,0.3-0.3,0.3l-3,0.4h-0.1
			c-0.2,0-0.3-0.1-0.3-0.3l-0.1-0.4c-0.1-0.5-0.4-0.8-0.8-1.1c-0.4-0.3-0.9-0.4-1.5-0.4c-0.6,0-1,0.1-1.4,0.4
			c-0.4,0.3-0.7,0.7-0.8,1.1c-0.2,0.5-0.3,1.2-0.3,2.1c0,0.9,0.1,1.6,0.3,2.1c0.2,0.5,0.4,0.9,0.8,1.2c0.4,0.3,0.9,0.4,1.4,0.4
			c0.5,0,1-0.1,1.4-0.4c0.4-0.3,0.7-0.7,0.8-1.2c0,0,0-0.1,0-0.2c0,0,0,0,0-0.1c0-0.2,0.1-0.3,0.4-0.3l3,0.5c0.2,0,0.3,0.1,0.3,0.3
			c0,0.1-0.1,0.4-0.2,0.8c-0.4,1.2-1.1,2.1-2.1,2.7c-1,0.7-2.3,1-3.6,1C118.6,57.9,117.4,57.6,116.4,56.9z"/>
		<path class="st1" d="M130.1,56.8c-1-0.8-1.8-1.8-2.1-3.1c-0.2-0.8-0.4-1.7-0.4-2.7c0-1,0.1-1.9,0.4-2.8c0.4-1.3,1.1-2.3,2.2-3
			c1-0.7,2.3-1.1,3.7-1.1c1.4,0,2.6,0.4,3.6,1.1s1.7,1.7,2.1,3c0.3,0.9,0.4,1.8,0.4,2.7c0,0.9-0.1,1.8-0.4,2.6
			c-0.4,1.4-1.1,2.4-2.1,3.2c-1,0.8-2.3,1.2-3.7,1.2C132.4,57.9,131.1,57.5,130.1,56.8z M135.3,54.3c0.4-0.3,0.7-0.8,0.9-1.4
			c0.1-0.6,0.2-1.2,0.2-1.8c0-0.7-0.1-1.3-0.2-1.8c-0.2-0.6-0.5-1-0.9-1.4c-0.4-0.3-0.9-0.5-1.5-0.5c-0.6,0-1.1,0.2-1.5,0.5
			c-0.4,0.3-0.7,0.8-0.8,1.4c-0.1,0.4-0.2,1-0.2,1.8c0,0.8,0.1,1.4,0.2,1.8c0.2,0.6,0.5,1.1,0.9,1.4s0.9,0.5,1.5,0.5
			C134.4,54.8,134.9,54.6,135.3,54.3z"/>
	</g>
</g>
</svg>
