<?xml version="1.0" encoding="utf-8"?>
<!-- Generator: Adobe Illustrator 24.2.1, SVG Export Plug-In . SVG Version: 6.00 Build 0)  -->
<svg version="1.1" id="Layer_1" xmlns="http://www.w3.org/2000/svg" xmlns:xlink="http://www.w3.org/1999/xlink" x="0px" y="0px"
	 viewBox="0 0 183.4 76.5" style="enable-background:new 0 0 183.4 76.5;" xml:space="preserve">
<style type="text/css">
	.st0{fill:#FFFFFF;}
	.st1{fill:#42DB8F;}
</style>
<rect x="28.4" y="2" class="st0" width="153.5" height="73.3"/>
<g>
	<g>
		<polygon class="st0" points="2,41.5 2,41.5 28.4,36.7 28.4,46.3 		"/>
	</g>
</g>
<g>
	<g>
		<path class="st1" d="M54.8,18.6c0.1-0.1,0.1-0.1,0.2-0.1h3c0.1,0,0.2,0,0.2,0.1c0.1,0.1,0.1,0.1,0.1,0.2v17.6c0,0.1,0,0.2-0.1,0.2
			c-0.1,0.1-0.1,0.1-0.2,0.1h-3c-0.1,0-0.2,0-0.2-0.1c-0.1-0.1-0.1-0.1-0.1-0.2v-7.2c0-0.1,0-0.1-0.1-0.1h-5.7c-0.1,0-0.1,0-0.1,0.1
			v7.2c0,0.1,0,0.2-0.1,0.2c-0.1,0.1-0.1,0.1-0.2,0.1h-3c-0.1,0-0.2,0-0.2-0.1C45,36.5,45,36.4,45,36.4V18.8c0-0.1,0-0.2,0.1-0.2
			c0.1-0.1,0.1-0.1,0.2-0.1h3c0.1,0,0.2,0,0.2,0.1c0.1,0.1,0.1,0.1,0.1,0.2v7c0,0.1,0,0.1,0.1,0.1h5.7c0.1,0,0.1,0,0.1-0.1v-7
			C54.7,18.7,54.7,18.6,54.8,18.6z"/>
		<path class="st1" d="M63.3,35.7c-1-0.8-1.8-1.8-2.1-3.1c-0.2-0.8-0.4-1.7-0.4-2.7s0.1-1.9,0.4-2.8c0.4-1.3,1.1-2.3,2.2-3
			c1-0.7,2.3-1.1,3.7-1.1c1.4,0,2.6,0.4,3.6,1.1s1.7,1.7,2.1,3c0.3,0.9,0.4,1.8,0.4,2.7c0,0.9-0.1,1.8-0.4,2.6
			c-0.4,1.4-1.1,2.4-2.1,3.2s-2.3,1.2-3.7,1.2S64.3,36.5,63.3,35.7z M68.5,33.2c0.4-0.3,0.7-0.8,0.9-1.4c0.1-0.6,0.2-1.2,0.2-1.8
			c0-0.7-0.1-1.3-0.2-1.8c-0.2-0.6-0.5-1-0.9-1.4c-0.4-0.3-0.9-0.5-1.5-0.5s-1.1,0.2-1.5,0.5s-0.7,0.8-0.8,1.4
			c-0.1,0.4-0.2,1-0.2,1.8s0.1,1.4,0.2,1.8c0.2,0.6,0.5,1.1,0.9,1.4s0.9,0.5,1.5,0.5C67.6,33.7,68.1,33.6,68.5,33.2z"/>
		<path class="st1" d="M77.9,36.4c-0.9-0.3-1.5-0.8-2-1.4c-0.5-0.6-0.7-1.3-0.7-2v-0.3c0-0.1,0-0.2,0.1-0.2c0.1-0.1,0.1-0.1,0.2-0.1
			h2.9c0.1,0,0.2,0,0.2,0.1c0.1,0.1,0.1,0.1,0.1,0.2l0,0c0,0.4,0.2,0.7,0.6,1s1,0.4,1.6,0.4s1.1-0.1,1.4-0.4
			c0.4-0.2,0.5-0.5,0.5-0.9c0-0.3-0.2-0.5-0.5-0.7s-0.8-0.3-1.5-0.5c-0.8-0.2-1.5-0.4-1.9-0.6c-1.1-0.4-2-0.8-2.7-1.4s-1-1.4-1-2.4
			c0-1.3,0.5-2.3,1.5-3.1c1-0.8,2.3-1.1,4-1.1c1.1,0,2.1,0.2,2.9,0.5s1.5,0.9,1.9,1.5c0.5,0.6,0.7,1.4,0.7,2.2c0,0.1,0,0.2-0.1,0.2
			c-0.1,0.1-0.1,0.1-0.2,0.1h-2.8c-0.1,0-0.2,0-0.2-0.1c-0.1-0.1-0.1-0.1-0.1-0.2c0-0.4-0.2-0.7-0.6-1s-0.9-0.4-1.5-0.4
			s-1,0.1-1.4,0.3s-0.5,0.5-0.5,0.9c0,0.3,0.2,0.6,0.5,0.8c0.4,0.2,0.9,0.4,1.8,0.5c0.2,0.1,0.4,0.1,0.7,0.2
			c0.2,0.1,0.5,0.1,0.8,0.2c1.2,0.4,2.2,0.8,2.9,1.4c0.7,0.6,1.1,1.4,1.1,2.5c0,1.3-0.5,2.3-1.5,3s-2.4,1.1-4.1,1.1
			C79.8,36.9,78.8,36.7,77.9,36.4z"/>
		<path class="st1" d="M101.1,30c0,1.2-0.2,2.3-0.5,3.3c-0.4,1.1-1,2-1.9,2.6s-1.9,1-3.2,1c-1.2,0-2.2-0.4-2.9-1.3
			c0-0.1-0.1-0.1-0.1-0.1l-0.1,0.1v5.6c0,0.1,0,0.2-0.1,0.2c-0.1,0.1-0.1,0.1-0.2,0.1h-3c-0.1,0-0.2,0-0.2-0.1
			c-0.1-0.1-0.1-0.1-0.1-0.2V23.6c0-0.1,0-0.2,0.1-0.2c0.1-0.1,0.1-0.1,0.2-0.1h3c0.1,0,0.2,0,0.2,0.1c0.1,0.1,0.1,0.1,0.1,0.2v0.9
			c0,0.1,0,0.1,0.1,0.1h0.1c0.7-1,1.7-1.4,3-1.4c1.2,0,2.2,0.3,3.1,1s1.5,1.6,1.9,2.8C100.9,27.8,101.1,28.8,101.1,30z M97.3,30
			c0-1.1-0.2-2-0.5-2.6c-0.4-0.7-1-1.1-1.9-1.1c-0.8,0-1.4,0.4-1.8,1.1c-0.4,0.6-0.5,1.5-0.5,2.6c0,1.2,0.2,2.1,0.6,2.7
			c0.4,0.7,1,1,1.8,1s1.4-0.3,1.8-1C97,32,97.3,31.1,97.3,30z"/>
		<path class="st1" d="M103.9,21.2c-0.4-0.4-0.6-0.9-0.6-1.5s0.2-1.1,0.6-1.5s0.9-0.6,1.5-0.6s1.1,0.2,1.5,0.6s0.6,0.9,0.6,1.5
			s-0.2,1.1-0.6,1.5s-0.9,0.6-1.5,0.6S104.3,21.6,103.9,21.2z M103.6,36.6c-0.1-0.1-0.1-0.1-0.1-0.2V23.6c0-0.1,0-0.2,0.1-0.2
			c0.1-0.1,0.1-0.1,0.2-0.1h3c0.1,0,0.2,0,0.2,0.1c0.1,0.1,0.1,0.1,0.1,0.2v12.8c0,0.1,0,0.2-0.1,0.2c-0.1,0.1-0.1,0.1-0.2,0.1h-3
			C103.8,36.7,103.7,36.6,103.6,36.6z"/>
		<path class="st1" d="M117.6,26.2c-0.1,0.1-0.1,0.1-0.2,0.1h-2.5c-0.1,0-0.1,0-0.1,0.1v5.5c0,0.6,0.1,1,0.4,1.3
			c0.2,0.3,0.6,0.4,1.1,0.4h0.9c0.1,0,0.2,0,0.2,0.1s0.1,0.1,0.1,0.2v2.5c0,0.2-0.1,0.3-0.3,0.3c-0.7,0-1.2,0.1-1.6,0.1
			c-1.4,0-2.5-0.2-3.2-0.7s-1.1-1.4-1.1-2.7v-7c0-0.1,0-0.1-0.1-0.1h-1.5c-0.1,0-0.2,0-0.2-0.1s-0.1-0.1-0.1-0.2v-2.3
			c0-0.1,0-0.2,0.1-0.2s0.1-0.1,0.2-0.1h1.5c0.1,0,0.1,0,0.1-0.1v-3.1c0-0.1,0-0.2,0.1-0.2s0.1-0.1,0.2-0.1h2.9c0.1,0,0.2,0,0.2,0.1
			s0.1,0.1,0.1,0.2v3.1c0,0.1,0,0.1,0.1,0.1h2.5c0.1,0,0.2,0,0.2,0.1s0.1,0.1,0.1,0.2V26C117.7,26,117.7,26.1,117.6,26.2z"/>
		<path class="st1" d="M128.3,23.7c0.9,0.4,1.6,0.9,2.1,1.6s0.7,1.4,0.7,2.3v8.8c0,0.1,0,0.2-0.1,0.2s-0.1,0.1-0.2,0.1h-3
			c-0.1,0-0.2,0-0.2-0.1c-0.1-0.1-0.1-0.1-0.1-0.2v-0.9c0-0.1,0-0.1-0.1-0.1c0,0-0.1,0-0.1,0.1c-0.7,1-1.9,1.4-3.5,1.4
			c-1.4,0-2.4-0.3-3.3-1c-0.8-0.7-1.2-1.6-1.2-2.9c0-1.3,0.5-2.4,1.4-3.1s2.3-1.1,4-1.1h2.7c0.1,0,0.1,0,0.1-0.1v-0.6
			c0-0.6-0.2-1-0.5-1.3s-0.9-0.5-1.6-0.5c-0.5,0-1,0.1-1.3,0.3c-0.4,0.2-0.6,0.5-0.7,0.8c-0.1,0.2-0.2,0.3-0.3,0.3l-3.1-0.4
			c-0.2,0-0.3-0.1-0.3-0.2c0.1-0.7,0.4-1.4,0.9-2s1.2-1,2-1.4c0.8-0.3,1.8-0.5,2.8-0.5C126.4,23.1,127.4,23.3,128.3,23.7z
			 M126.7,33.6c0.5-0.4,0.8-0.9,0.8-1.5v-0.9c0-0.1,0-0.1-0.1-0.1h-1.9c-0.8,0-1.4,0.1-1.8,0.4s-0.7,0.7-0.7,1.2s0.2,0.8,0.5,1.1
			s0.8,0.4,1.3,0.4C125.5,34.1,126.1,34,126.7,33.6z"/>
		<path class="st1" d="M133.8,36.6c-0.1-0.1-0.1-0.1-0.1-0.2V18.8c0-0.1,0-0.2,0.1-0.2c0.1-0.1,0.1-0.1,0.2-0.1h3
			c0.1,0,0.2,0,0.2,0.1c0.1,0.1,0.1,0.1,0.1,0.2v17.6c0,0.1,0,0.2-0.1,0.2c-0.1,0.1-0.1,0.1-0.2,0.1h-3
			C133.9,36.7,133.8,36.6,133.8,36.6z"/>
		<path class="st1" d="M53.2,41.2c0.1-0.1,0.1-0.1,0.2-0.1h3c0.1,0,0.2,0,0.2,0.1c0.1,0.1,0.1,0.1,0.1,0.2V59c0,0.1,0,0.2-0.1,0.2
			c-0.1,0.1-0.1,0.1-0.2,0.1h-3c-0.1,0-0.2,0-0.2-0.1c-0.1-0.1-0.1-0.1-0.1-0.2v-0.9c0-0.1,0-0.1-0.1-0.1h-0.1c-0.7,1-1.7,1.4-3,1.4
			c-1.2,0-2.3-0.3-3.1-1c-0.9-0.7-1.5-1.6-1.9-2.8c-0.3-0.9-0.4-2-0.4-3.1c0-1.2,0.2-2.3,0.5-3.2c0.4-1.1,1-2,1.9-2.6s1.9-1,3.2-1
			c1.2,0,2.2,0.4,2.9,1.3c0,0.1,0.1,0.1,0.1,0.1l0.1-0.1v-5.6C53.1,41.3,53.1,41.3,53.2,41.2z M53,52.6c0-1.2-0.2-2.1-0.6-2.7
			c-0.4-0.7-1-1-1.7-1c-0.8,0-1.4,0.3-1.8,1c-0.4,0.7-0.7,1.6-0.7,2.8c0,1,0.2,1.9,0.5,2.6c0.4,0.7,1.1,1.1,1.9,1.1
			c0.8,0,1.4-0.4,1.8-1.1C52.9,54.6,53,53.7,53,52.6z"/>
		<path class="st1" d="M71.4,53.5c0,0.2-0.1,0.3-0.3,0.3h-8c-0.1,0-0.1,0-0.1,0.1c0.1,0.3,0.1,0.7,0.3,1c0.5,1,1.4,1.5,2.8,1.5
			c1.1,0,2-0.5,2.6-1.4c0.1-0.1,0.1-0.2,0.2-0.2s0.1,0,0.2,0.1l1.9,1.8c0,0.2,0,0.3,0,0.4c0,0,0,0.1-0.1,0.2
			c-0.6,0.7-1.3,1.3-2.2,1.7c-0.9,0.4-1.9,0.6-3,0.6c-1.5,0-2.8-0.3-3.8-1s-1.8-1.6-2.2-2.8c-0.4-0.9-0.5-2-0.5-3.4
			c0-1,0.1-1.8,0.4-2.5c0.4-1.2,1.1-2.2,2.1-2.9s2.2-1.1,3.6-1.1c1.7,0,3.1,0.5,4.2,1.5c1,1,1.7,2.3,1.9,4
			C71.4,51.9,71.5,52.7,71.4,53.5z M63.1,50.4c-0.1,0.2-0.1,0.5-0.2,0.8c0,0.1,0,0.1,0.1,0.1h4.5c0.1,0,0.1,0,0.1-0.1
			c-0.1-0.5-0.1-0.7-0.1-0.7c-0.2-0.5-0.4-0.9-0.8-1.2s-0.9-0.4-1.4-0.4C64.2,48.9,63.5,49.4,63.1,50.4z"/>
		<path class="st1" d="M82,58.7c-1-0.5-1.8-1.3-2.4-2.2c-0.6-1-0.8-2.1-0.8-3.3v-6c0-1.2,0.3-2.3,0.8-3.3c0.6-1,1.3-1.7,2.4-2.2
			c1-0.5,2.2-0.8,3.6-0.8c1.3,0,2.5,0.2,3.5,0.7s1.8,1.2,2.4,2.1c0.6,0.9,0.8,2,0.8,3.2c0,0.2-0.1,0.3-0.3,0.3l-3,0.2h-0.1
			c-0.2,0-0.3-0.1-0.3-0.3c0-0.9-0.3-1.7-0.8-2.2c-0.6-0.6-1.3-0.8-2.2-0.8c-0.9,0-1.7,0.3-2.2,0.8c-0.6,0.6-0.8,1.3-0.8,2.2v6.3
			c0,0.9,0.3,1.6,0.8,2.2c0.6,0.6,1.3,0.8,2.2,0.8c0.9,0,1.7-0.3,2.2-0.8c0.6-0.6,0.8-1.3,0.8-2.2c0-0.2,0.1-0.3,0.3-0.3l3,0.1
			c0.1,0,0.2,0,0.2,0.1c0.1,0.1,0.1,0.1,0.1,0.2c0,1.2-0.3,2.3-0.8,3.2c-0.6,0.9-1.4,1.6-2.4,2.1s-2.2,0.8-3.5,0.8
			C84.2,59.5,83,59.3,82,58.7z"/>
		<path class="st1" d="M94.8,59.2c-0.1-0.1-0.1-0.1-0.1-0.2V41.4c0-0.1,0-0.2,0.1-0.2c0.1-0.1,0.1-0.1,0.2-0.1h3
			c0.1,0,0.2,0,0.2,0.1c0.1,0.1,0.1,0.1,0.1,0.2V59c0,0.1,0,0.2-0.1,0.2c-0.1,0.1-0.1,0.1-0.2,0.1h-3C94.9,59.3,94.9,59.3,94.8,59.2
			z"/>
		<path class="st1" d="M101.1,59.2c-0.1-0.1-0.1-0.1-0.1-0.2V46.3c0-0.1,0-0.2,0.1-0.2c0.1-0.1,0.1-0.1,0.2-0.1h3
			c0.1,0,0.2,0,0.2,0.1c0.1,0.1,0.1,0.1,0.1,0.2V59c0,0.1,0,0.2-0.1,0.2c-0.1,0.1-0.1,0.1-0.2,0.1h-3
			C101.2,59.3,101.1,59.3,101.1,59.2z M101.1,44.2c0-0.1,0-0.2,0-0.3l1.4-2.6c0.1-0.2,0.2-0.2,0.4-0.2h2.6c0.1,0,0.2,0,0.2,0.1
			s0,0.2,0,0.3l-1.8,2.6c-0.1,0.1-0.2,0.2-0.4,0.2h-2.2C101.2,44.3,101.1,44.3,101.1,44.2z"/>
		<path class="st1" d="M117.6,47c0.8,0.8,1.3,2,1.3,3.5V59c0,0.1,0,0.2-0.1,0.2c-0.1,0.1-0.1,0.1-0.2,0.1h-3c-0.1,0-0.2,0-0.2-0.1
			c-0.1-0.1-0.1-0.1-0.1-0.2v-7.8c0-0.7-0.2-1.3-0.6-1.7s-0.9-0.7-1.5-0.7s-1.2,0.2-1.5,0.7c-0.4,0.4-0.6,1-0.6,1.7V59
			c0,0.1,0,0.2-0.1,0.2c-0.1,0.1-0.1,0.1-0.2,0.1h-3c-0.1,0-0.2,0-0.2-0.1c-0.1-0.1-0.1-0.1-0.1-0.2V46.3c0-0.1,0-0.2,0.1-0.2
			c0.1-0.1,0.1-0.1,0.2-0.1h3c0.1,0,0.2,0,0.2,0.1c0.1,0.1,0.1,0.1,0.1,0.2v0.9c0,0.1,0,0.1,0.1,0.1h0.1c0.7-1,1.8-1.5,3.2-1.5
			C115.6,45.7,116.7,46.2,117.6,47z"/>
		<path class="st1" d="M122,43.9c-0.4-0.4-0.6-0.9-0.6-1.5s0.2-1.1,0.6-1.5s0.9-0.6,1.5-0.6s1.1,0.2,1.5,0.6
			c0.4,0.4,0.6,0.9,0.6,1.5s-0.2,1.1-0.6,1.5s-0.9,0.6-1.5,0.6C122.8,44.4,122.4,44.3,122,43.9z M121.7,59.2
			c-0.1-0.1-0.1-0.1-0.1-0.2V46.2c0-0.1,0-0.2,0.1-0.2c0.1-0.1,0.1-0.1,0.2-0.1h3c0.1,0,0.2,0,0.2,0.1c0.1,0.1,0.1,0.1,0.1,0.2V59
			c0,0.1,0,0.2-0.1,0.2s-0.1,0.1-0.2,0.1h-3C121.8,59.3,121.7,59.3,121.7,59.2z"/>
		<path class="st1" d="M130.4,58.5c-1-0.7-1.7-1.6-2.2-2.9c-0.3-0.9-0.4-1.9-0.4-3.1c0-1.2,0.1-2.2,0.4-3c0.4-1.2,1.1-2.1,2.2-2.8
			c1-0.7,2.2-1,3.6-1s2.6,0.3,3.7,1c1,0.7,1.7,1.6,2.1,2.6c0.1,0.4,0.2,0.7,0.2,0.9v0.1c0,0.2-0.1,0.3-0.3,0.3l-3,0.4h-0.1
			c-0.2,0-0.3-0.1-0.3-0.3l-0.1-0.4c-0.1-0.5-0.4-0.8-0.8-1.1s-0.9-0.4-1.5-0.4s-1,0.1-1.4,0.4s-0.7,0.7-0.8,1.1
			c-0.2,0.5-0.3,1.2-0.3,2.1s0.1,1.6,0.3,2.1s0.4,0.9,0.8,1.2c0.4,0.3,0.9,0.4,1.4,0.4s1-0.1,1.4-0.4s0.7-0.7,0.8-1.2
			c0,0,0-0.1,0-0.2c0,0,0,0,0-0.1c0-0.2,0.1-0.3,0.4-0.3l3,0.5c0.2,0,0.3,0.1,0.3,0.3c0,0.1-0.1,0.4-0.2,0.8
			c-0.4,1.2-1.1,2.1-2.1,2.7c-1,0.7-2.3,1-3.6,1C132.6,59.5,131.4,59.2,130.4,58.5z"/>
		<path class="st1" d="M150.4,46.3c0.9,0.4,1.6,0.9,2.1,1.6c0.5,0.7,0.7,1.4,0.7,2.3V59c0,0.1,0,0.2-0.1,0.2
			c-0.1,0.1-0.1,0.1-0.2,0.1h-3c-0.1,0-0.2,0-0.2-0.1s-0.1-0.1-0.1-0.2v-0.9c0-0.1,0-0.1-0.1-0.1c0,0-0.1,0-0.1,0.1
			c-0.7,1-1.9,1.4-3.5,1.4c-1.4,0-2.4-0.3-3.3-1c-0.8-0.7-1.2-1.6-1.2-2.9c0-1.3,0.5-2.4,1.4-3.1c0.9-0.7,2.3-1.1,4-1.1h2.7
			c0.1,0,0.1,0,0.1-0.1v-0.6c0-0.6-0.2-1-0.5-1.3s-0.9-0.5-1.6-0.5c-0.5,0-1,0.1-1.3,0.3c-0.4,0.2-0.6,0.5-0.7,0.8
			c-0.1,0.2-0.2,0.3-0.3,0.3l-3.1-0.4c-0.2,0-0.3-0.1-0.3-0.2c0.1-0.7,0.4-1.4,0.9-2s1.2-1,2-1.4c0.8-0.3,1.8-0.5,2.8-0.5
			C148.5,45.7,149.5,45.9,150.4,46.3z M148.8,56.2c0.5-0.4,0.8-0.9,0.8-1.5v-0.9c0-0.1,0-0.1-0.1-0.1h-1.9c-0.8,0-1.4,0.1-1.8,0.4
			c-0.4,0.3-0.7,0.7-0.7,1.2s0.2,0.8,0.5,1.1s0.8,0.4,1.3,0.4C147.6,56.8,148.2,56.6,148.8,56.2z"/>
		<path class="st1" d="M158.1,59c-0.9-0.3-1.5-0.8-2-1.4c-0.5-0.6-0.7-1.3-0.7-2v-0.3c0-0.1,0-0.2,0.1-0.2c0.1-0.1,0.1-0.1,0.2-0.1
			h2.9c0.1,0,0.2,0,0.2,0.1c0.1,0.1,0.1,0.1,0.1,0.2l0,0c0,0.4,0.2,0.7,0.6,1c0.4,0.3,1,0.4,1.6,0.4s1.1-0.1,1.4-0.4
			c0.4-0.2,0.5-0.5,0.5-0.9c0-0.3-0.2-0.5-0.5-0.7s-0.8-0.3-1.5-0.5c-0.8-0.2-1.5-0.4-1.9-0.6c-1.1-0.4-2-0.8-2.7-1.4
			c-0.7-0.6-1-1.4-1-2.4c0-1.3,0.5-2.3,1.5-3.1s2.3-1.1,4-1.1c1.1,0,2.1,0.2,2.9,0.5c0.8,0.4,1.5,0.9,1.9,1.5
			c0.5,0.6,0.7,1.4,0.7,2.2c0,0.1,0,0.2-0.1,0.2c-0.1,0.1-0.1,0.1-0.2,0.1h-2.8c-0.1,0-0.2,0-0.2-0.1c-0.1-0.1-0.1-0.1-0.1-0.2
			c0-0.4-0.2-0.7-0.6-1c-0.4-0.3-0.9-0.4-1.5-0.4s-1,0.1-1.4,0.3s-0.5,0.5-0.5,0.9c0,0.3,0.2,0.6,0.5,0.8c0.4,0.2,0.9,0.4,1.8,0.5
			c0.2,0.1,0.4,0.1,0.7,0.2s0.5,0.1,0.8,0.2c1.2,0.4,2.2,0.8,2.9,1.4c0.7,0.6,1.1,1.4,1.1,2.5c0,1.3-0.5,2.3-1.5,3s-2.4,1.1-4.1,1.1
			C160,59.5,158.9,59.3,158.1,59z"/>
	</g>
</g>
</svg>
