<?xml version="1.0" encoding="utf-8"?>
<!-- Generator: Adobe Illustrator 24.2.1, SVG Export Plug-In . SVG Version: 6.00 Build 0)  -->
<svg version="1.1" id="Layer_1" xmlns="http://www.w3.org/2000/svg" xmlns:xlink="http://www.w3.org/1999/xlink" x="0px" y="0px"
	 viewBox="0 0 450.1 146.5" style="enable-background:new 0 0 450.1 146.5;" xml:space="preserve">
<style type="text/css">
	.st0{fill:#FFFFFF;stroke:#42DB8F;stroke-width:3;stroke-linecap:round;stroke-linejoin:round;stroke-miterlimit:10;}
	.st1{fill:#42DB8F;stroke:#42DB8F;stroke-width:1.5733;stroke-linecap:round;stroke-linejoin:round;stroke-miterlimit:10;}
	.st2{fill:none;stroke:#42DB8F;stroke-width:3;stroke-miterlimit:10;}
	.st3{fill:#2525EF;}
</style>
<g>
	<g>
		<g>
			<polygon class="st0" points="25.5,3.2 7.3,26.5 7.3,141.6 427.3,141.6 445,115.9 			"/>
		</g>
		<rect x="25.5" y="3.2" class="st1" width="419.5" height="112.7"/>
		<line class="st2" x1="25.5" y1="115.9" x2="7.3" y2="141.6"/>
	</g>
</g>
<g>
	<path class="st3" d="M87.2,41.5h2.1c0.4,0,0.6,0.2,0.6,0.6v42.3c0,0.4-0.2,0.6-0.6,0.6h-2.1c-0.4,0-0.6-0.2-0.6-0.6V47.9
		c0-0.1,0-0.2-0.1-0.2c-0.1,0-0.1,0-0.2,0.2L75.4,64.7c-0.2,0.3-0.5,0.4-0.7,0.4h-1.1c-0.3,0-0.5-0.1-0.7-0.4L61.8,47.9
		c0-0.1-0.1-0.2-0.2-0.1c-0.1,0-0.1,0.1-0.1,0.2v36.4c0,0.4-0.2,0.6-0.6,0.6h-2.1c-0.4,0-0.6-0.2-0.6-0.6V42.1
		c0-0.4,0.2-0.6,0.6-0.6H61c0.3,0,0.5,0.1,0.7,0.4l12.2,18.6c0,0,0.1,0.1,0.2,0.1c0.1,0,0.1,0,0.2-0.1l12.2-18.6
		C86.7,41.6,86.9,41.5,87.2,41.5z"/>
	<path class="st3" d="M108,83.7c-2.2-1.2-3.9-2.8-5-5s-1.8-4.6-1.8-7.4V55.1c0-2.8,0.6-5.2,1.8-7.4c1.2-2.1,2.9-3.8,5-5
		c2.2-1.2,4.7-1.8,7.6-1.8c2.9,0,5.4,0.6,7.6,1.8c2.2,1.2,3.9,2.8,5.1,5c1.2,2.1,1.8,4.6,1.8,7.4v16.3c0,2.8-0.6,5.2-1.8,7.4
		c-1.2,2.1-2.9,3.8-5.1,5c-2.2,1.2-4.7,1.8-7.6,1.8C112.7,85.4,110.2,84.9,108,83.7z M123.7,79.5c2.1-2,3.1-4.7,3.1-8.1V55
		c0-3.3-1-6-3.1-8s-4.8-3.1-8.1-3.1c-3.3,0-6,1-8,3.1c-2,2.1-3,4.7-3,8v16.5c0,3.4,1,6,3,8.1c2,2,4.7,3,8,3
		C118.9,82.6,121.7,81.6,123.7,79.5z"/>
	<path class="st3" d="M168.2,41.5h2.1c0.4,0,0.6,0.2,0.6,0.6v42.3c0,0.4-0.2,0.6-0.6,0.6h-2.1c-0.3,0-0.5-0.1-0.7-0.4L144.9,48
		c0-0.1-0.1-0.2-0.2-0.2c-0.1,0-0.1,0.1-0.1,0.2v36.2c0,0.4-0.2,0.6-0.6,0.6h-2.1c-0.4,0-0.6-0.2-0.6-0.6V42.1
		c0-0.4,0.2-0.6,0.6-0.6h2.1c0.3,0,0.5,0.1,0.7,0.4l22.4,36.5c0,0.1,0.1,0.2,0.2,0.2c0.1,0,0.1-0.1,0.1-0.2V42.1
		C167.5,41.7,167.8,41.5,168.2,41.5z"/>
	<path class="st3" d="M209.4,42.1v1.7c0,0.4-0.2,0.6-0.6,0.6h-12.4c-0.2,0-0.2,0.1-0.2,0.2v39.7c0,0.4-0.2,0.6-0.6,0.6h-2.1
		c-0.4,0-0.6-0.2-0.6-0.6V44.6c0-0.2-0.1-0.2-0.2-0.2h-11.8c-0.4,0-0.6-0.2-0.6-0.6v-1.7c0-0.4,0.2-0.6,0.6-0.6h28
		C209.2,41.5,209.4,41.7,209.4,42.1z"/>
	<path class="st3" d="M245.7,44.4h-23.6c-0.2,0-0.2,0.1-0.2,0.2v16.8c0,0.2,0.1,0.2,0.2,0.2h16.7c0.4,0,0.6,0.2,0.6,0.6v1.7
		c0,0.4-0.2,0.6-0.6,0.6h-16.7c-0.2,0-0.2,0.1-0.2,0.2v17c0,0.2,0.1,0.2,0.2,0.2h23.6c0.4,0,0.6,0.2,0.6,0.6v1.7
		c0,0.4-0.2,0.6-0.6,0.6h-26.5c-0.4,0-0.6-0.2-0.6-0.6V42.1c0-0.4,0.2-0.6,0.6-0.6h26.5c0.4,0,0.6,0.2,0.6,0.6v1.7
		C246.3,44.2,246.1,44.4,245.7,44.4z"/>
	<path class="st3" d="M267.3,84.5l-13.7-42.3l-0.1-0.2c0-0.3,0.2-0.4,0.6-0.4h2.2c0.4,0,0.6,0.2,0.7,0.5l12.1,37.9
		c0,0.1,0.1,0.1,0.2,0.1c0.1,0,0.1,0,0.2-0.1l12.2-37.9c0.1-0.3,0.4-0.5,0.7-0.5h2.1c0.5,0,0.6,0.2,0.5,0.7l-13.8,42.3
		c-0.1,0.3-0.4,0.5-0.7,0.5h-2.3C267.7,85,267.5,84.8,267.3,84.5z"/>
	<path class="st3" d="M293.6,84.3V42.1c0-0.4,0.2-0.6,0.6-0.6h2.1c0.4,0,0.6,0.2,0.6,0.6v42.3c0,0.4-0.2,0.6-0.6,0.6h-2.1
		C293.8,85,293.6,84.7,293.6,84.3z"/>
	<path class="st3" d="M309.7,84.3V42.1c0-0.4,0.2-0.6,0.6-0.6h14.4c4,0,7.1,1,9.4,3.1c2.3,2.1,3.5,4.9,3.5,8.5v20.1
		c0,3.6-1.2,6.5-3.5,8.5c-2.3,2.1-5.5,3.1-9.4,3.1h-14.4C309.9,85,309.7,84.7,309.7,84.3z M313.2,82h11.7c2.9,0,5.2-0.8,6.9-2.5
		c1.7-1.6,2.5-3.9,2.6-6.7V53.5c0-2.8-0.8-5-2.5-6.7c-1.7-1.6-4-2.5-6.9-2.5h-11.7c-0.2,0-0.2,0.1-0.2,0.2v37.2
		C313,81.9,313,82,313.2,82z"/>
	<path class="st3" d="M375.2,44.4h-23.6c-0.2,0-0.2,0.1-0.2,0.2v16.8c0,0.2,0.1,0.2,0.2,0.2h16.7c0.4,0,0.6,0.2,0.6,0.6v1.7
		c0,0.4-0.2,0.6-0.6,0.6h-16.7c-0.2,0-0.2,0.1-0.2,0.2v17c0,0.2,0.1,0.2,0.2,0.2h23.6c0.4,0,0.6,0.2,0.6,0.6v1.7
		c0,0.4-0.2,0.6-0.6,0.6h-26.5c-0.4,0-0.6-0.2-0.6-0.6V42.1c0-0.4,0.2-0.6,0.6-0.6h26.5c0.4,0,0.6,0.2,0.6,0.6v1.7
		C375.8,44.2,375.6,44.4,375.2,44.4z"/>
	<path class="st3" d="M391.4,83.7c-2.2-1.2-3.9-2.8-5-5s-1.8-4.6-1.8-7.4V55.1c0-2.8,0.6-5.2,1.8-7.4c1.2-2.1,2.9-3.8,5-5
		c2.2-1.2,4.7-1.8,7.6-1.8c2.9,0,5.4,0.6,7.6,1.8c2.2,1.2,3.9,2.8,5.1,5c1.2,2.1,1.8,4.6,1.8,7.4v16.3c0,2.8-0.6,5.2-1.8,7.4
		c-1.2,2.1-2.9,3.8-5.1,5c-2.2,1.2-4.7,1.8-7.6,1.8C396.1,85.4,393.6,84.9,391.4,83.7z M407.1,79.5c2.1-2,3.1-4.7,3.1-8.1V55
		c0-3.3-1-6-3.1-8s-4.8-3.1-8.1-3.1c-3.3,0-6,1-8,3.1c-2,2.1-3,4.7-3,8v16.5c0,3.4,1,6,3,8.1c2,2,4.7,3,8,3
		C402.3,82.6,405,81.6,407.1,79.5z"/>
</g>
</svg>
