<?xml version="1.0" encoding="utf-8"?>
<!-- Generator: Adobe Illustrator 24.2.1, SVG Export Plug-In . SVG Version: 6.00 Build 0)  -->
<svg version="1.1" id="Layer_1" xmlns="http://www.w3.org/2000/svg" xmlns:xlink="http://www.w3.org/1999/xlink" x="0px" y="0px"
	 viewBox="0 0 128.6 122.5" style="enable-background:new 0 0 128.6 122.5;" xml:space="preserve">
<style type="text/css">
	.st0{fill:#42DB8F;}
	.st1{fill:#FFFFFF;}
</style>
<g>
	<rect x="1.9" y="1.9" class="st0" width="124.8" height="92.3"/>
	<g>
		<g>
			<polygon class="st0" points="62.7,120.2 62.7,120.2 57.9,93.8 67.6,93.8 			"/>
		</g>
	</g>
</g>
<g>
	<g>
		<path class="st1" d="M20,34c-1-0.4-1.8-1.1-2.4-1.9s-0.8-1.8-0.8-2.9v-0.6c0-0.1,0-0.2,0.1-0.2c0.1-0.1,0.1-0.1,0.2-0.1h3
			c0.1,0,0.2,0,0.2,0.1c0.1,0.1,0.1,0.1,0.1,0.2V29c0,0.7,0.3,1.3,1,1.8c0.6,0.5,1.5,0.7,2.6,0.7c0.9,0,1.6-0.2,2.1-0.6
			c0.5-0.4,0.7-0.9,0.7-1.4c0-0.4-0.1-0.8-0.4-1.1s-0.7-0.5-1.1-0.8c-0.5-0.2-1.2-0.5-2.3-0.9c-1.2-0.4-2.1-0.8-3-1.2
			c-0.8-0.4-1.5-1-2-1.7c-0.5-0.7-0.8-1.6-0.8-2.7c0-1,0.3-2,0.8-2.7c0.5-0.8,1.3-1.4,2.2-1.8s2.1-0.6,3.3-0.6
			c1.3,0,2.5,0.2,3.5,0.7c1,0.5,1.8,1.1,2.4,2c0.6,0.8,0.9,1.8,0.9,2.9V22c0,0.1,0,0.2-0.1,0.2c-0.1,0.1-0.1,0.1-0.2,0.1h-3
			c-0.1,0-0.2,0-0.2-0.1c-0.1-0.1-0.1-0.1-0.1-0.2v-0.2c0-0.7-0.3-1.3-0.9-1.9c-0.6-0.5-1.4-0.8-2.5-0.8c-0.8,0-1.5,0.2-1.9,0.5
			c-0.5,0.3-0.7,0.8-0.7,1.4c0,0.4,0.1,0.8,0.4,1.1c0.3,0.3,0.7,0.6,1.2,0.8c0.5,0.2,1.3,0.6,2.5,0.9c1.2,0.5,2.2,0.8,2.9,1.2
			c0.7,0.3,1.3,0.9,1.9,1.5c0.6,0.7,0.8,1.6,0.8,2.7c0,1.6-0.6,2.9-1.8,3.9s-2.8,1.4-4.9,1.4C22.3,34.7,21.1,34.4,20,34z"/>
		<path class="st1" d="M44.6,28.6c0,0.2-0.1,0.3-0.3,0.3h-8c-0.1,0-0.1,0-0.1,0.1c0.1,0.3,0.1,0.7,0.3,1c0.5,1,1.4,1.5,2.8,1.5
			c1.1,0,2-0.5,2.6-1.4c0.1-0.1,0.1-0.2,0.2-0.2c0.1,0,0.1,0,0.2,0.1l1.9,1.8c0.1,0.1,0.1,0.2,0.1,0.2c0,0,0,0.1-0.1,0.2
			c-0.6,0.7-1.3,1.3-2.2,1.7c-0.9,0.4-1.9,0.6-3,0.6c-1.5,0-2.8-0.3-3.8-1c-1-0.7-1.8-1.6-2.2-2.8c-0.4-0.9-0.5-2-0.5-3.4
			c0-1,0.1-1.8,0.4-2.5c0.4-1.2,1.1-2.2,2.1-2.9c1-0.7,2.2-1.1,3.6-1.1c1.7,0,3.1,0.5,4.2,1.5c1,1,1.7,2.3,1.9,4
			C44.6,27,44.6,27.8,44.6,28.6z M36.3,25.5c-0.1,0.2-0.1,0.5-0.2,0.8c0,0.1,0,0.1,0.1,0.1h4.5c0.1,0,0.1,0,0.1-0.1
			c-0.1-0.5-0.1-0.7-0.1-0.7c-0.2-0.5-0.4-0.9-0.8-1.2S39,24,38.4,24C37.3,24,36.6,24.5,36.3,25.5z"/>
		<path class="st1" d="M55,21.3c0.1,0.1,0.2,0.2,0.2,0.4l-0.5,3c0,0.2-0.1,0.3-0.4,0.2c-0.3-0.1-0.6-0.1-0.9-0.1
			c-0.1,0-0.3,0-0.6,0.1c-0.6,0.1-1.2,0.3-1.6,0.7s-0.6,0.9-0.6,1.6v7.1c0,0.1,0,0.2-0.1,0.2c-0.1,0.1-0.1,0.1-0.2,0.1h-3
			c-0.1,0-0.2,0-0.2-0.1c-0.1-0.1-0.1-0.1-0.1-0.2V21.4c0-0.1,0-0.2,0.1-0.2c0.1-0.1,0.1-0.1,0.2-0.1h3c0.1,0,0.2,0,0.2,0.1
			c0.1,0.1,0.1,0.1,0.1,0.2v1c0,0.1,0,0.1,0.1,0.1s0.1,0,0.1,0c0.7-1,1.7-1.6,2.9-1.6C54.1,20.9,54.6,21,55,21.3z"/>
		<path class="st1" d="M60.5,34.2l-4.2-12.8c0,0,0-0.1,0-0.1c0-0.2,0.1-0.2,0.3-0.2h3.4c0.2,0,0.3,0.1,0.4,0.3l2.1,7.9
			c0,0.1,0,0.1,0.1,0.1c0,0,0.1,0,0.1-0.1l2.1-7.9c0.1-0.2,0.2-0.3,0.4-0.3l3.4,0.1c0.1,0,0.2,0,0.2,0.1c0.1,0.1,0.1,0.2,0,0.3
			l-4.1,12.7c-0.1,0.2-0.2,0.3-0.3,0.3h-3.4C60.7,34.4,60.5,34.4,60.5,34.2z"/>
		<path class="st1" d="M71.1,19c-0.4-0.4-0.6-0.9-0.6-1.5c0-0.6,0.2-1.1,0.6-1.5s0.9-0.6,1.5-0.6c0.6,0,1.1,0.2,1.5,0.6
			s0.6,0.9,0.6,1.5c0,0.6-0.2,1.1-0.6,1.5c-0.4,0.4-0.9,0.6-1.5,0.6C72,19.6,71.5,19.4,71.1,19z M70.8,34.4
			c-0.1-0.1-0.1-0.1-0.1-0.2V21.4c0-0.1,0-0.2,0.1-0.2C70.9,21.1,71,21,71,21h3c0.1,0,0.2,0,0.2,0.1c0.1,0.1,0.1,0.1,0.1,0.2v12.8
			c0,0.1,0,0.2-0.1,0.2c-0.1,0.1-0.1,0.1-0.2,0.1h-3C71,34.4,70.9,34.4,70.8,34.4z"/>
		<path class="st1" d="M79.5,33.6c-1-0.7-1.7-1.6-2.2-2.9c-0.3-0.9-0.4-1.9-0.4-3.1c0-1.2,0.1-2.2,0.4-3c0.4-1.2,1.1-2.1,2.2-2.8
			c1-0.7,2.2-1,3.6-1c1.4,0,2.6,0.3,3.7,1c1,0.7,1.7,1.6,2.1,2.6c0.1,0.4,0.2,0.7,0.2,0.9v0.1c0,0.2-0.1,0.3-0.3,0.3l-3,0.4h-0.1
			c-0.2,0-0.3-0.1-0.3-0.3l-0.1-0.4c-0.1-0.5-0.4-0.8-0.8-1.1S83.7,24,83.1,24c-0.6,0-1,0.1-1.4,0.4c-0.4,0.3-0.7,0.7-0.8,1.1
			c-0.2,0.5-0.3,1.2-0.3,2.1s0.1,1.6,0.3,2.1c0.2,0.5,0.4,0.9,0.8,1.2s0.9,0.4,1.4,0.4c0.5,0,1-0.1,1.4-0.4c0.4-0.3,0.7-0.7,0.8-1.2
			c0,0,0-0.1,0-0.2c0,0,0,0,0-0.1c0-0.2,0.1-0.3,0.4-0.3l3,0.5c0.2,0,0.3,0.1,0.3,0.3c0,0.1-0.1,0.4-0.2,0.8
			c-0.4,1.2-1.1,2.1-2.1,2.7s-2.3,1-3.6,1C81.8,34.7,80.6,34.3,79.5,33.6z"/>
		<path class="st1" d="M91.7,19c-0.4-0.4-0.6-0.9-0.6-1.5c0-0.6,0.2-1.1,0.6-1.5s0.9-0.6,1.5-0.6c0.6,0,1.1,0.2,1.5,0.6
			s0.6,0.9,0.6,1.5c0,0.6-0.2,1.1-0.6,1.5c-0.4,0.4-0.9,0.6-1.5,0.6C92.6,19.6,92.1,19.4,91.7,19z M91.4,34.4
			c-0.1-0.1-0.1-0.1-0.1-0.2V21.4c0-0.1,0-0.2,0.1-0.2c0.1-0.1,0.1-0.1,0.2-0.1h3c0.1,0,0.2,0,0.2,0.1c0.1,0.1,0.1,0.1,0.1,0.2v12.8
			c0,0.1,0,0.2-0.1,0.2c-0.1,0.1-0.1,0.1-0.2,0.1h-3C91.6,34.4,91.5,34.4,91.4,34.4z"/>
		<path class="st1" d="M100,33.5c-1-0.8-1.8-1.8-2.1-3.1c-0.2-0.8-0.4-1.7-0.4-2.7c0-1,0.1-1.9,0.4-2.8c0.4-1.3,1.1-2.3,2.2-3
			s2.3-1.1,3.7-1.1c1.4,0,2.6,0.4,3.6,1.1s1.7,1.7,2.1,3c0.3,0.9,0.4,1.8,0.4,2.7c0,0.9-0.1,1.8-0.4,2.6c-0.4,1.4-1.1,2.4-2.1,3.2
			c-1,0.8-2.3,1.2-3.7,1.2C102.3,34.7,101.1,34.3,100,33.5z M105.2,31c0.4-0.3,0.7-0.8,0.9-1.4c0.1-0.6,0.2-1.2,0.2-1.8
			c0-0.7-0.1-1.3-0.2-1.8c-0.2-0.6-0.5-1-0.9-1.4c-0.4-0.3-0.9-0.5-1.5-0.5c-0.6,0-1.1,0.2-1.5,0.5c-0.4,0.3-0.7,0.8-0.8,1.4
			c-0.1,0.4-0.2,1-0.2,1.8c0,0.8,0.1,1.4,0.2,1.8c0.2,0.6,0.5,1.1,0.9,1.4c0.4,0.3,0.9,0.5,1.5,0.5C104.3,31.5,104.8,31.3,105.2,31z
			"/>
		<path class="st1" d="M29.5,38.9h3c0.1,0,0.2,0,0.2,0.1c0.1,0.1,0.1,0.1,0.1,0.2v17.6c0,0.1,0,0.2-0.1,0.2
			c-0.1,0.1-0.1,0.1-0.2,0.1h-3c-0.1,0-0.2,0-0.2-0.1c-0.1-0.1-0.1-0.1-0.1-0.2V45.3c0-0.1,0-0.1-0.1-0.1s-0.1,0-0.1,0.1l-2.8,4.3
			c-0.1,0.1-0.2,0.2-0.4,0.2h-1.5c-0.2,0-0.3-0.1-0.4-0.2l-2.8-4.3c0-0.1-0.1-0.1-0.1-0.1c0,0-0.1,0-0.1,0.1v11.4
			c0,0.1,0,0.2-0.1,0.2c-0.1,0.1-0.1,0.1-0.2,0.1h-3c-0.1,0-0.2,0-0.2-0.1c-0.1-0.1-0.1-0.1-0.1-0.2V39.2c0-0.1,0-0.2,0.1-0.2
			c0.1-0.1,0.1-0.1,0.2-0.1h3c0.2,0,0.3,0.1,0.4,0.2l3.9,6.1c0.1,0.1,0.1,0.1,0.2,0l3.9-6.1C29.2,39,29.3,38.9,29.5,38.9z"/>
		<path class="st1" d="M47.7,51.2c0,0.2-0.1,0.3-0.3,0.3h-8c-0.1,0-0.1,0-0.1,0.1c0.1,0.3,0.1,0.7,0.3,1c0.5,1,1.4,1.5,2.8,1.5
			c1.1,0,2-0.5,2.6-1.4c0.1-0.1,0.1-0.2,0.2-0.2c0.1,0,0.1,0,0.2,0.1l1.9,1.8c0.1,0.1,0.1,0.2,0.1,0.2c0,0,0,0.1-0.1,0.2
			c-0.6,0.7-1.3,1.3-2.2,1.7c-0.9,0.4-1.9,0.6-3,0.6c-1.5,0-2.8-0.3-3.8-1c-1-0.7-1.8-1.6-2.2-2.8c-0.4-0.9-0.5-2-0.5-3.4
			c0-1,0.1-1.8,0.4-2.5c0.4-1.2,1.1-2.2,2.1-2.9c1-0.7,2.2-1.1,3.6-1.1c1.7,0,3.1,0.5,4.2,1.5c1,1,1.7,2.3,1.9,4
			C47.7,49.7,47.8,50.4,47.7,51.2z M39.4,48.2c-0.1,0.2-0.1,0.5-0.2,0.8c0,0.1,0,0.1,0.1,0.1h4.5c0.1,0,0.1,0,0.1-0.1
			c-0.1-0.5-0.1-0.7-0.1-0.7c-0.2-0.5-0.4-0.9-0.8-1.2s-0.9-0.4-1.4-0.4C40.5,46.7,39.7,47.2,39.4,48.2z M39.8,42c0-0.1,0-0.2,0-0.3
			l1.4-2.6c0.1-0.2,0.2-0.2,0.4-0.2h2.6c0.1,0,0.2,0,0.2,0.1c0,0.1,0,0.2,0,0.3l-1.8,2.6c-0.1,0.1-0.2,0.2-0.4,0.2H40
			C39.9,42.1,39.8,42.1,39.8,42z"/>
		<path class="st1" d="M58.3,39c0.1-0.1,0.1-0.1,0.2-0.1h3c0.1,0,0.2,0,0.2,0.1c0.1,0.1,0.1,0.1,0.1,0.2v17.6c0,0.1,0,0.2-0.1,0.2
			c-0.1,0.1-0.1,0.1-0.2,0.1h-3c-0.1,0-0.2,0-0.2-0.1c-0.1-0.1-0.1-0.1-0.1-0.2v-0.9c0-0.1,0-0.1-0.1-0.1c0,0-0.1,0-0.1,0
			c-0.7,1-1.7,1.4-3,1.4c-1.2,0-2.3-0.3-3.1-1c-0.9-0.7-1.5-1.6-1.9-2.8c-0.3-0.9-0.4-2-0.4-3.1c0-1.2,0.2-2.3,0.5-3.2
			c0.4-1.1,1-2,1.9-2.6s1.9-1,3.2-1c1.2,0,2.2,0.4,2.9,1.3c0,0.1,0.1,0.1,0.1,0.1c0,0,0.1-0.1,0.1-0.1v-5.6
			C58.2,39.1,58.3,39,58.3,39z M58.2,50.4c0-1.2-0.2-2.1-0.6-2.7c-0.4-0.7-1-1-1.7-1c-0.8,0-1.4,0.3-1.8,1c-0.4,0.7-0.7,1.6-0.7,2.8
			c0,1,0.2,1.9,0.5,2.6c0.4,0.7,1.1,1.1,1.9,1.1c0.8,0,1.4-0.4,1.8-1.1C58,52.4,58.2,51.5,58.2,50.4z"/>
		<path class="st1" d="M65.2,41.6c-0.4-0.4-0.6-0.9-0.6-1.5c0-0.6,0.2-1.1,0.6-1.5s0.9-0.6,1.5-0.6c0.6,0,1.1,0.2,1.5,0.6
			s0.6,0.9,0.6,1.5c0,0.6-0.2,1.1-0.6,1.5c-0.4,0.4-0.9,0.6-1.5,0.6C66,42.2,65.5,42,65.2,41.6z M64.8,57c-0.1-0.1-0.1-0.1-0.1-0.2
			V44c0-0.1,0-0.2,0.1-0.2c0.1-0.1,0.1-0.1,0.2-0.1h3c0.1,0,0.2,0,0.2,0.1c0.1,0.1,0.1,0.1,0.1,0.2v12.8c0,0.1,0,0.2-0.1,0.2
			c-0.1,0.1-0.1,0.1-0.2,0.1h-3C65,57.1,64.9,57.1,64.8,57z"/>
		<path class="st1" d="M73.6,56.3c-1-0.7-1.7-1.6-2.2-2.9c-0.3-0.9-0.4-1.9-0.4-3.1c0-1.2,0.1-2.2,0.4-3c0.4-1.2,1.1-2.1,2.2-2.8
			c1-0.7,2.2-1,3.6-1c1.4,0,2.6,0.3,3.7,1c1,0.7,1.7,1.6,2.1,2.6c0.1,0.4,0.2,0.7,0.2,0.9v0.1c0,0.2-0.1,0.3-0.3,0.3l-3,0.4h-0.1
			c-0.2,0-0.3-0.1-0.3-0.3l-0.1-0.4c-0.1-0.5-0.4-0.8-0.8-1.1s-0.9-0.4-1.5-0.4c-0.6,0-1,0.1-1.4,0.4c-0.4,0.3-0.7,0.7-0.8,1.1
			c-0.2,0.5-0.3,1.2-0.3,2.1c0,0.9,0.1,1.6,0.3,2.1c0.2,0.5,0.4,0.9,0.8,1.2s0.9,0.4,1.4,0.4c0.5,0,1-0.1,1.4-0.4
			c0.4-0.3,0.7-0.7,0.8-1.2c0,0,0-0.1,0-0.2c0,0,0,0,0-0.1c0-0.2,0.1-0.3,0.4-0.3l3,0.5c0.2,0,0.3,0.1,0.3,0.3
			c0,0.1-0.1,0.4-0.2,0.8c-0.4,1.2-1.1,2.1-2.1,2.7s-2.3,1-3.6,1C75.8,57.3,74.6,57,73.6,56.3z"/>
		<path class="st1" d="M87.3,56.2c-1-0.8-1.8-1.8-2.1-3.1c-0.2-0.8-0.4-1.7-0.4-2.7c0-1,0.1-1.9,0.4-2.8c0.4-1.3,1.1-2.3,2.2-3
			s2.3-1.1,3.7-1.1c1.4,0,2.6,0.4,3.6,1.1s1.7,1.7,2.1,3c0.3,0.9,0.4,1.8,0.4,2.7c0,0.9-0.1,1.8-0.4,2.6c-0.4,1.4-1.1,2.4-2.1,3.2
			c-1,0.8-2.3,1.2-3.7,1.2S88.3,56.9,87.3,56.2z M92.5,53.6c0.4-0.3,0.7-0.8,0.9-1.4c0.1-0.6,0.2-1.2,0.2-1.8c0-0.7-0.1-1.3-0.2-1.8
			c-0.2-0.6-0.5-1-0.9-1.4c-0.4-0.3-0.9-0.5-1.5-0.5c-0.6,0-1.1,0.2-1.5,0.5c-0.4,0.3-0.7,0.8-0.8,1.4c-0.1,0.4-0.2,1-0.2,1.8
			c0,0.8,0.1,1.4,0.2,1.8c0.2,0.6,0.5,1.1,0.9,1.4c0.4,0.3,0.9,0.5,1.5,0.5C91.6,54.2,92.1,54,92.5,53.6z"/>
		<path class="st1" d="M17.5,79.7c-0.1-0.1-0.1-0.1-0.1-0.2V61.8c0-0.1,0-0.2,0.1-0.2c0.1-0.1,0.1-0.1,0.2-0.1h3
			c0.1,0,0.2,0,0.2,0.1c0.1,0.1,0.1,0.1,0.1,0.2v17.6c0,0.1,0,0.2-0.1,0.2c-0.1,0.1-0.1,0.1-0.2,0.1h-3
			C17.6,79.7,17.6,79.7,17.5,79.7z"/>
		<path class="st1" d="M34.3,67.4c0.8,0.8,1.3,2,1.3,3.5v8.5c0,0.1,0,0.2-0.1,0.2c-0.1,0.1-0.1,0.1-0.2,0.1h-3c-0.1,0-0.2,0-0.2-0.1
			C32,79.6,32,79.5,32,79.4v-7.8c0-0.7-0.2-1.3-0.6-1.7s-0.9-0.7-1.5-0.7c-0.6,0-1.2,0.2-1.5,0.7s-0.6,1-0.6,1.7v7.8
			c0,0.1,0,0.2-0.1,0.2c-0.1,0.1-0.1,0.1-0.2,0.1h-3c-0.1,0-0.2,0-0.2-0.1c-0.1-0.1-0.1-0.1-0.1-0.2V66.7c0-0.1,0-0.2,0.1-0.2
			c0.1-0.1,0.1-0.1,0.2-0.1h3c0.1,0,0.2,0,0.2,0.1c0.1,0.1,0.1,0.1,0.1,0.2v0.9c0,0.1,0,0.1,0.1,0.1s0.1,0,0.1,0
			c0.7-1,1.8-1.5,3.2-1.5C32.4,66.2,33.5,66.6,34.3,67.4z"/>
		<path class="st1" d="M45.8,69.2c-0.1,0.1-0.1,0.1-0.2,0.1h-2.5c-0.1,0-0.1,0-0.1,0.1V75c0,0.6,0.1,1,0.4,1.3s0.6,0.4,1.1,0.4h0.9
			c0.1,0,0.2,0,0.2,0.1c0.1,0.1,0.1,0.1,0.1,0.2v2.5c0,0.2-0.1,0.3-0.3,0.3c-0.7,0-1.2,0.1-1.6,0.1c-1.4,0-2.5-0.2-3.2-0.7
			c-0.7-0.5-1.1-1.4-1.1-2.7v-7c0-0.1,0-0.1-0.1-0.1h-1.5c-0.1,0-0.2,0-0.2-0.1c-0.1-0.1-0.1-0.1-0.1-0.2v-2.3c0-0.1,0-0.2,0.1-0.2
			c0.1-0.1,0.1-0.1,0.2-0.1h1.5c0.1,0,0.1,0,0.1-0.1v-3.1c0-0.1,0-0.2,0.1-0.2c0.1-0.1,0.1-0.1,0.2-0.1h2.9c0.1,0,0.2,0,0.2,0.1
			C43,63,43,63.1,43,63.1v3.1c0,0.1,0,0.1,0.1,0.1h2.5c0.1,0,0.2,0,0.2,0.1c0.1,0.1,0.1,0.1,0.1,0.2V69
			C45.9,69.1,45.9,69.2,45.8,69.2z"/>
		<path class="st1" d="M59.9,73.9c0,0.2-0.1,0.3-0.3,0.3h-8c-0.1,0-0.1,0-0.1,0.1c0.1,0.3,0.1,0.7,0.3,1c0.5,1,1.4,1.5,2.8,1.5
			c1.1,0,2-0.5,2.6-1.4c0.1-0.1,0.1-0.2,0.2-0.2c0.1,0,0.1,0,0.2,0.1l1.9,1.8c0.1,0.1,0.1,0.2,0.1,0.2c0,0,0,0.1-0.1,0.2
			c-0.6,0.7-1.3,1.3-2.2,1.7c-0.9,0.4-1.9,0.6-3,0.6c-1.5,0-2.8-0.3-3.8-1c-1-0.7-1.8-1.6-2.2-2.8c-0.4-0.9-0.5-2-0.5-3.4
			c0-1,0.1-1.8,0.4-2.5c0.4-1.2,1.1-2.2,2.1-2.9c1-0.7,2.2-1.1,3.6-1.1c1.7,0,3.1,0.5,4.2,1.5c1,1,1.7,2.3,1.9,4
			C59.9,72.3,59.9,73.1,59.9,73.9z M51.6,70.8c-0.1,0.2-0.1,0.5-0.2,0.8c0,0.1,0,0.1,0.1,0.1H56c0.1,0,0.1,0,0.1-0.1
			C56,71.2,56,70.9,56,71c-0.2-0.5-0.4-0.9-0.8-1.2s-0.9-0.4-1.4-0.4C52.6,69.3,51.9,69.8,51.6,70.8z"/>
		<path class="st1" d="M70.4,66.5c0.1-0.1,0.1-0.1,0.2-0.1h3c0.1,0,0.2,0,0.2,0.1c0.1,0.1,0.1,0.1,0.1,0.2v11.9c0,2.3-0.7,3.9-2,4.9
			c-1.3,1-3,1.5-5.1,1.5c-0.6,0-1.3,0-2-0.1c-0.2,0-0.3-0.1-0.3-0.3l0.1-2.7c0-0.2,0.1-0.3,0.4-0.3c0.6,0.1,1.2,0.2,1.7,0.2
			c1.1,0,2-0.2,2.6-0.7s0.9-1.3,0.9-2.3c0-0.1,0-0.1-0.1-0.1s-0.1,0-0.1,0c-0.7,0.7-1.6,1.1-2.9,1.1c-1.1,0-2.2-0.3-3.1-0.8
			c-0.9-0.5-1.6-1.4-2-2.6c-0.3-0.8-0.4-1.8-0.4-3.1c0-1.4,0.2-2.5,0.5-3.3c0.4-1.1,1-1.9,1.8-2.5c0.9-0.6,1.9-1,3-1
			c1.3,0,2.4,0.4,3.1,1.2c0,0,0.1,0,0.1,0s0.1,0,0.1-0.1v-0.6C70.3,66.6,70.4,66.5,70.4,66.5z M70.3,73c0-0.5,0-1-0.1-1.2
			c0-0.3-0.1-0.6-0.2-0.8c-0.2-0.5-0.4-0.8-0.8-1.1s-0.8-0.4-1.4-0.4c-0.5,0-1,0.1-1.3,0.4s-0.6,0.7-0.8,1.1
			c-0.2,0.5-0.4,1.2-0.4,2.1c0,1,0.1,1.7,0.3,2.1c0.2,0.5,0.4,0.8,0.8,1.1s0.9,0.4,1.4,0.4c0.6,0,1-0.1,1.4-0.4s0.6-0.7,0.8-1.1
			C70.3,74.6,70.3,73.9,70.3,73z"/>
		<path class="st1" d="M84.8,66.6c0.1,0.1,0.2,0.2,0.2,0.4l-0.5,3c0,0.2-0.1,0.3-0.4,0.2C83.7,70,83.4,70,83.1,70
			c-0.1,0-0.3,0-0.6,0.1c-0.6,0.1-1.2,0.3-1.6,0.7s-0.6,0.9-0.6,1.6v7.1c0,0.1,0,0.2-0.1,0.2c-0.1,0.1-0.1,0.1-0.2,0.1h-3
			c-0.1,0-0.2,0-0.2-0.1c-0.1-0.1-0.1-0.1-0.1-0.2V66.7c0-0.1,0-0.2,0.1-0.2c0.1-0.1,0.1-0.1,0.2-0.1h3c0.1,0,0.2,0,0.2,0.1
			c0.1,0.1,0.1,0.1,0.1,0.2v1c0,0.1,0,0.1,0.1,0.1s0.1,0,0.1,0c0.7-1,1.7-1.6,2.9-1.6C83.9,66.2,84.4,66.3,84.8,66.6z"/>
		<path class="st1" d="M94.8,66.8c0.9,0.4,1.6,0.9,2.1,1.6c0.5,0.7,0.7,1.4,0.7,2.3v8.8c0,0.1,0,0.2-0.1,0.2
			c-0.1,0.1-0.1,0.1-0.2,0.1h-3c-0.1,0-0.2,0-0.2-0.1c-0.1-0.1-0.1-0.1-0.1-0.2v-0.9c0-0.1,0-0.1-0.1-0.1s-0.1,0-0.1,0.1
			c-0.7,1-1.9,1.4-3.5,1.4c-1.4,0-2.4-0.3-3.3-1s-1.2-1.6-1.2-2.9c0-1.3,0.5-2.4,1.4-3.1c0.9-0.7,2.3-1.1,4-1.1h2.7
			c0.1,0,0.1,0,0.1-0.1v-0.6c0-0.6-0.2-1-0.5-1.3c-0.3-0.3-0.9-0.5-1.6-0.5c-0.5,0-1,0.1-1.3,0.3c-0.4,0.2-0.6,0.5-0.7,0.8
			c-0.1,0.2-0.2,0.3-0.3,0.3l-3.1-0.4c-0.2,0-0.3-0.1-0.3-0.2c0.1-0.7,0.4-1.4,0.9-2c0.5-0.6,1.2-1,2-1.4c0.8-0.3,1.8-0.5,2.8-0.5
			C92.9,66.2,93.9,66.4,94.8,66.8z M93.1,76.6c0.5-0.4,0.8-0.9,0.8-1.5v-0.9c0-0.1,0-0.1-0.1-0.1h-1.9c-0.8,0-1.4,0.1-1.8,0.4
			c-0.4,0.3-0.7,0.7-0.7,1.2c0,0.5,0.2,0.8,0.5,1.1c0.3,0.3,0.8,0.4,1.3,0.4C92,77.2,92.6,77,93.1,76.6z"/>
		<path class="st1" d="M100.2,79.7c-0.1-0.1-0.1-0.1-0.1-0.2V61.8c0-0.1,0-0.2,0.1-0.2c0.1-0.1,0.1-0.1,0.2-0.1h3
			c0.1,0,0.2,0,0.2,0.1c0.1,0.1,0.1,0.1,0.1,0.2v17.6c0,0.1,0,0.2-0.1,0.2c-0.1,0.1-0.1,0.1-0.2,0.1h-3
			C100.4,79.7,100.3,79.7,100.2,79.7z"/>
	</g>
</g>
</svg>
