<?xml version="1.0" encoding="utf-8"?>
<!-- Generator: Adobe Illustrator 24.2.1, SVG Export Plug-In . SVG Version: 6.00 Build 0)  -->
<svg version="1.1" id="Layer_1" xmlns="http://www.w3.org/2000/svg" xmlns:xlink="http://www.w3.org/1999/xlink" x="0px" y="0px"
	 viewBox="0 0 110 54.7" style="enable-background:new 0 0 110 54.7;" xml:space="preserve">
<style type="text/css">
	.st0{fill:#42DB8F;}
	.st1{fill:#FFFFFF;}
</style>
<g id="SUPERMERCADO_DISCO">
	<g>
		<rect x="0.2" y="15.3" class="st0" width="109.1" height="38.6"/>
		<g>
			<g>
				<polygon class="st0" points="54.5,1.2 54.5,1.2 57.1,15.6 51.9,15.6 				"/>
			</g>
		</g>
	</g>
	<g>
		<g>
			<path class="st1" d="M10.9,32.9c-0.5-0.2-1-0.6-1.3-1c-0.3-0.4-0.4-1-0.4-1.6V30c0-0.1,0-0.1,0.1-0.1c0.1-0.1,0.1-0.1,0.1-0.1H11
				c0.1,0,0.1,0,0.1,0.1c0.1,0.1,0.1,0.1,0.1,0.1v0.2c0,0.4,0.2,0.7,0.5,1c0.3,0.3,0.8,0.4,1.4,0.4c0.5,0,0.9-0.1,1.1-0.3
				c0.3-0.2,0.4-0.5,0.4-0.8c0-0.2-0.1-0.4-0.2-0.6c-0.2-0.2-0.4-0.3-0.6-0.4c-0.3-0.1-0.7-0.3-1.2-0.5c-0.7-0.2-1.1-0.4-1.6-0.7
				c-0.4-0.2-0.8-0.5-1.1-0.9s-0.4-0.9-0.4-1.5c0-0.5,0.2-1.1,0.4-1.5c0.3-0.4,0.7-0.8,1.2-1c0.5-0.2,1.1-0.3,1.8-0.3
				c0.7,0,1.4,0.1,1.9,0.4c0.5,0.3,1,0.6,1.3,1.1c0.3,0.5,0.5,1,0.5,1.6v0.2c0,0.1,0,0.1-0.1,0.1s-0.1,0.1-0.1,0.1h-1.6
				c-0.1,0-0.1,0-0.1-0.1s-0.1-0.1-0.1-0.1v-0.1c0-0.4-0.2-0.7-0.5-1c-0.3-0.3-0.8-0.4-1.4-0.4c-0.4,0-0.8,0.1-1,0.3
				c-0.3,0.2-0.4,0.4-0.4,0.8c0,0.2,0.1,0.4,0.2,0.6c0.2,0.2,0.4,0.3,0.7,0.4c0.3,0.1,0.7,0.3,1.4,0.5c0.7,0.3,1.2,0.4,1.6,0.7
				c0.4,0.2,0.7,0.5,1,0.8c0.3,0.4,0.4,0.9,0.4,1.5c0,0.9-0.3,1.6-1,2.1c-0.7,0.5-1.5,0.8-2.7,0.8C12.1,33.3,11.4,33.2,10.9,32.9z"
				/>
			<path class="st1" d="M22,26c0.1-0.1,0.1-0.1,0.1-0.1h1.6c0.1,0,0.1,0,0.1,0.1s0.1,0.1,0.1,0.1V33c0,0.1,0,0.1-0.1,0.1
				c-0.1,0-0.1,0.1-0.1,0.1h-1.6c-0.1,0-0.1,0-0.1-0.1C22,33,22,33,22,33v-0.4c0-0.1,0-0.1-0.1-0.1c0,0-0.1,0-0.1,0.1
				c-0.4,0.5-1,0.8-1.7,0.8c-0.7,0-1.3-0.2-1.8-0.7s-0.7-1-0.7-1.8v-4.7c0-0.1,0-0.1,0.1-0.1c0.1-0.1,0.1-0.1,0.1-0.1h1.6
				c0.1,0,0.1,0,0.1,0.1s0.1,0.1,0.1,0.1v4.2c0,0.4,0.1,0.7,0.3,0.9c0.2,0.2,0.5,0.3,0.8,0.3s0.6-0.1,0.8-0.3
				c0.2-0.2,0.3-0.4,0.4-0.8v-4.4C22,26.1,22,26,22,26z"/>
			<path class="st1" d="M32.2,29.6c0,0.7-0.1,1.2-0.3,1.8c-0.2,0.6-0.5,1.1-1,1.4c-0.5,0.3-1,0.5-1.7,0.5c-0.7,0-1.2-0.2-1.6-0.7
				c0-0.1-0.1-0.1-0.1-0.1l-0.1,0.1v3c0,0.1,0,0.1-0.1,0.1c0,0.1-0.1,0.1-0.1,0.1h-1.6c-0.1,0-0.1,0-0.1-0.1
				c-0.1-0.1-0.1-0.1-0.1-0.1v-9.5c0-0.1,0-0.1,0.1-0.1c0.1-0.1,0.1-0.1,0.1-0.1h1.6c0.1,0,0.1,0,0.1,0.1s0.1,0.1,0.1,0.1v0.5
				c0,0.1,0,0.1,0.1,0.1h0.1c0.4-0.5,0.9-0.8,1.6-0.8c0.7,0,1.2,0.2,1.7,0.5c0.5,0.4,0.8,0.9,1,1.5C32.1,28.4,32.2,28.9,32.2,29.6z
				 M30.1,29.6c0-0.6-0.1-1.1-0.3-1.4c-0.2-0.4-0.5-0.6-1-0.6c-0.4,0-0.8,0.2-1,0.6c-0.2,0.3-0.3,0.8-0.3,1.4c0,0.7,0.1,1.1,0.3,1.5
				c0.2,0.4,0.5,0.5,1,0.5c0.4,0,0.8-0.2,1-0.5C30,30.7,30.1,30.2,30.1,29.6z"/>
			<path class="st1" d="M39.9,30c0,0.1-0.1,0.2-0.2,0.2h-4.3c-0.1,0-0.1,0-0.1,0.1c0.1,0.2,0.1,0.4,0.2,0.5c0.3,0.5,0.8,0.8,1.5,0.8
				c0.6,0,1.1-0.3,1.4-0.8c0.1-0.1,0.1-0.1,0.1-0.1c0.1,0,0.1,0,0.1,0.1l1,1c0.1,0.1,0.1,0.1,0.1,0.1s0,0.1-0.1,0.1
				c-0.3,0.4-0.7,0.7-1.2,0.9c-0.5,0.2-1,0.3-1.6,0.3c-0.8,0-1.5-0.2-2.1-0.5s-1-0.9-1.2-1.5c-0.2-0.5-0.3-1.1-0.3-1.8
				c0-0.5,0.1-1,0.2-1.4c0.2-0.7,0.6-1.2,1.1-1.6c0.5-0.4,1.2-0.6,2-0.6c0.9,0,1.7,0.3,2.3,0.8c0.5,0.5,0.9,1.2,1,2.2
				C39.9,29.2,39.9,29.6,39.9,30z M35.4,28.4c-0.1,0.1-0.1,0.3-0.1,0.4c0,0.1,0,0.1,0.1,0.1h2.4c0.1,0,0.1,0,0.1-0.1
				c-0.1-0.3-0.1-0.4-0.1-0.4c-0.1-0.3-0.2-0.5-0.4-0.7c-0.2-0.2-0.5-0.2-0.8-0.2C36,27.6,35.5,27.8,35.4,28.4z"/>
			<path class="st1" d="M45.5,26c0.1,0.1,0.1,0.1,0.1,0.2l-0.3,1.6c0,0.1-0.1,0.2-0.2,0.1c-0.2-0.1-0.3-0.1-0.5-0.1
				c-0.1,0-0.2,0-0.3,0.1c-0.3,0.1-0.7,0.2-0.9,0.4c-0.2,0.2-0.4,0.5-0.4,0.9v3.9c0,0.1,0,0.1-0.1,0.1c-0.1,0.1-0.1,0.1-0.1,0.1
				h-1.6c-0.1,0-0.1,0-0.1-0.1c0-0.1-0.1-0.1-0.1-0.1v-7c0-0.1,0-0.1,0.1-0.1c0.1,0,0.1-0.1,0.1-0.1h1.6c0.1,0,0.1,0,0.1,0.1
				c0.1,0.1,0.1,0.1,0.1,0.1v0.5c0,0.1,0,0.1,0.1,0.1h0.1c0.4-0.5,0.9-0.9,1.6-0.9C45.1,25.8,45.3,25.9,45.5,26z"/>
			<path class="st1" d="M56.2,26.5c0.4,0.4,0.6,1.1,0.6,1.8V33c0,0.1,0,0.1-0.1,0.1s-0.1,0.1-0.1,0.1h-1.6c-0.1,0-0.1,0-0.1-0.1
				c-0.1,0-0.1,0-0.1-0.1v-4.2c0-0.4-0.1-0.7-0.3-0.9c-0.2-0.2-0.4-0.3-0.8-0.3c-0.3,0-0.6,0.1-0.8,0.3c-0.2,0.2-0.3,0.5-0.3,0.9V33
				c0,0.1,0,0.1-0.1,0.1c-0.1,0-0.1,0.1-0.1,0.1h-1.6c-0.1,0-0.1,0-0.1-0.1c-0.1-0.1-0.1-0.1-0.1-0.1v-4.2c0-0.4-0.1-0.7-0.3-0.9
				c-0.2-0.2-0.5-0.3-0.8-0.3c-0.3,0-0.5,0.1-0.8,0.3c-0.2,0.2-0.3,0.4-0.4,0.8V33c0,0.1,0,0.1-0.1,0.1c-0.1,0.1-0.1,0.1-0.1,0.1
				h-1.6c-0.1,0-0.1,0-0.1-0.1c0-0.1-0.1-0.1-0.1-0.1v-6.9c0-0.1,0-0.1,0.1-0.1c0.1,0,0.1-0.1,0.1-0.1h1.6c0.1,0,0.1,0,0.1,0.1
				c0.1,0.1,0.1,0.1,0.1,0.1v0.5c0,0.1,0,0.1,0.1,0.1c0,0,0.1,0,0.1-0.1c0.4-0.6,1-0.9,1.8-0.9c0.5,0,0.9,0.1,1.2,0.3
				c0.4,0.2,0.6,0.5,0.8,0.9c0.1,0.1,0.1,0.1,0.1,0c0.2-0.4,0.5-0.7,0.8-0.9c0.4-0.2,0.8-0.3,1.2-0.3C55.3,25.8,55.9,26,56.2,26.5z"
				/>
			<path class="st1" d="M64.7,30c0,0.1-0.1,0.2-0.2,0.2h-4.3c-0.1,0-0.1,0-0.1,0.1c0.1,0.2,0.1,0.4,0.2,0.5c0.3,0.5,0.8,0.8,1.5,0.8
				c0.6,0,1.1-0.3,1.4-0.8c0.1-0.1,0.1-0.1,0.1-0.1s0.1,0,0.1,0.1l1,1c0.1,0.1,0.1,0.1,0.1,0.1s0,0.1-0.1,0.1
				c-0.3,0.4-0.7,0.7-1.2,0.9c-0.5,0.2-1,0.3-1.6,0.3c-0.8,0-1.5-0.2-2.1-0.5c-0.5-0.4-1-0.9-1.2-1.5c-0.2-0.5-0.3-1.1-0.3-1.8
				c0-0.5,0.1-1,0.2-1.4c0.2-0.7,0.6-1.2,1.1-1.6c0.5-0.4,1.2-0.6,2-0.6c0.9,0,1.7,0.3,2.3,0.8c0.5,0.5,0.9,1.2,1,2.2
				C64.7,29.2,64.8,29.6,64.7,30z M60.2,28.4c-0.1,0.1-0.1,0.3-0.1,0.4c0,0.1,0,0.1,0.1,0.1h2.4c0.1,0,0.1,0,0.1-0.1
				c-0.1-0.3-0.1-0.4-0.1-0.4c-0.1-0.3-0.2-0.5-0.4-0.7c-0.2-0.2-0.5-0.2-0.8-0.2C60.8,27.6,60.4,27.8,60.2,28.4z"/>
			<path class="st1" d="M70.4,26c0.1,0.1,0.1,0.1,0.1,0.2l-0.3,1.6c0,0.1-0.1,0.2-0.2,0.1c-0.2-0.1-0.3-0.1-0.5-0.1
				c-0.1,0-0.2,0-0.3,0.1c-0.3,0.1-0.7,0.2-0.9,0.4c-0.2,0.2-0.4,0.5-0.4,0.9v3.9c0,0.1,0,0.1-0.1,0.1c-0.1,0.1-0.1,0.1-0.1,0.1
				h-1.6c-0.1,0-0.1,0-0.1-0.1c0-0.1-0.1-0.1-0.1-0.1v-7C66,26,66,26,66,26c0.1,0,0.1-0.1,0.1-0.1h1.6c0.1,0,0.1,0,0.1,0.1
				c0.1,0.1,0.1,0.1,0.1,0.1v0.5c0,0.1,0,0.1,0.1,0.1H68c0.4-0.5,0.9-0.9,1.6-0.9C69.9,25.8,70.2,25.9,70.4,26z"/>
			<path class="st1" d="M72.4,32.8c-0.5-0.4-0.9-0.9-1.2-1.6c-0.2-0.5-0.2-1-0.2-1.7s0.1-1.2,0.2-1.6c0.2-0.7,0.6-1.1,1.2-1.5
				c0.5-0.4,1.2-0.5,2-0.5c0.8,0,1.4,0.2,2,0.5c0.6,0.4,0.9,0.9,1.1,1.4c0.1,0.2,0.1,0.4,0.1,0.5v0.1c0,0.1-0.1,0.2-0.2,0.2
				l-1.6,0.2h-0.1c-0.1,0-0.2-0.1-0.2-0.2l-0.1-0.2c-0.1-0.3-0.2-0.4-0.4-0.6c-0.2-0.2-0.5-0.2-0.8-0.2s-0.5,0.1-0.8,0.2
				s-0.4,0.4-0.4,0.6C73,28.6,73,29,73,29.5c0,0.5,0.1,0.9,0.2,1.1c0.1,0.3,0.2,0.5,0.4,0.7c0.2,0.2,0.5,0.2,0.8,0.2
				s0.5-0.1,0.8-0.2s0.4-0.4,0.4-0.7c0,0,0-0.1,0-0.1c0,0,0,0,0-0.1c0-0.1,0.1-0.2,0.2-0.2l1.6,0.3c0.1,0,0.2,0.1,0.2,0.2
				c0,0.1-0.1,0.2-0.1,0.4c-0.2,0.7-0.6,1.1-1.1,1.5c-0.5,0.4-1.2,0.5-2,0.5C73.6,33.3,73,33.1,72.4,32.8z"/>
			<path class="st1" d="M83.3,26.2c0.5,0.2,0.9,0.5,1.1,0.9c0.3,0.4,0.4,0.8,0.4,1.2V33c0,0.1,0,0.1-0.1,0.1
				c-0.1,0.1-0.1,0.1-0.1,0.1H83c-0.1,0-0.1,0-0.1-0.1c-0.1-0.1-0.1-0.1-0.1-0.1v-0.5c0-0.1,0-0.1-0.1-0.1c0,0-0.1,0-0.1,0.1
				c-0.4,0.5-1,0.8-1.9,0.8c-0.8,0-1.3-0.2-1.8-0.5c-0.4-0.4-0.7-0.9-0.7-1.6c0-0.7,0.3-1.3,0.8-1.7c0.5-0.4,1.2-0.6,2.2-0.6h1.5
				c0.1,0,0.1,0,0.1-0.1v-0.3c0-0.3-0.1-0.5-0.3-0.7c-0.2-0.2-0.5-0.3-0.9-0.3c-0.3,0-0.5,0.1-0.7,0.2c-0.2,0.1-0.3,0.3-0.4,0.4
				c-0.1,0.1-0.1,0.2-0.2,0.2l-1.7-0.2c-0.1,0-0.2-0.1-0.2-0.1c0.1-0.4,0.2-0.8,0.5-1.1s0.7-0.5,1.1-0.8c0.4-0.2,1-0.3,1.5-0.3
				C82.2,25.8,82.8,25.9,83.3,26.2z M82.4,31.5c0.3-0.2,0.4-0.5,0.4-0.8v-0.5c0-0.1,0-0.1-0.1-0.1h-1c-0.4,0-0.8,0.1-1,0.2
				c-0.2,0.2-0.4,0.4-0.4,0.7c0,0.3,0.1,0.4,0.3,0.6c0.2,0.2,0.4,0.2,0.7,0.2C81.7,31.8,82.1,31.7,82.4,31.5z"/>
			<path class="st1" d="M90.7,23.4c0.1-0.1,0.1-0.1,0.1-0.1h1.6c0.1,0,0.1,0,0.1,0.1c0.1,0.1,0.1,0.1,0.1,0.1V33
				c0,0.1,0,0.1-0.1,0.1c-0.1,0.1-0.1,0.1-0.1,0.1h-1.6c-0.1,0-0.1,0-0.1-0.1c0-0.1-0.1-0.1-0.1-0.1v-0.5c0-0.1,0-0.1-0.1-0.1h-0.1
				c-0.4,0.5-0.9,0.8-1.6,0.8c-0.7,0-1.2-0.2-1.7-0.5c-0.5-0.4-0.8-0.9-1-1.5c-0.2-0.5-0.2-1.1-0.2-1.7c0-0.7,0.1-1.2,0.3-1.7
				c0.2-0.6,0.5-1.1,1-1.4c0.5-0.3,1-0.5,1.7-0.5c0.7,0,1.2,0.2,1.6,0.7c0,0.1,0.1,0.1,0.1,0.1l0.1-0.1v-3
				C90.7,23.4,90.7,23.4,90.7,23.4z M90.7,29.6c0-0.7-0.1-1.1-0.3-1.5c-0.2-0.4-0.5-0.5-0.9-0.5c-0.4,0-0.8,0.2-1,0.5
				c-0.2,0.4-0.4,0.9-0.4,1.5c0,0.5,0.1,1,0.3,1.4c0.2,0.4,0.6,0.6,1,0.6c0.4,0,0.8-0.2,1-0.6C90.6,30.7,90.7,30.2,90.7,29.6z"/>
			<path class="st1" d="M95.4,32.7c-0.5-0.4-1-1-1.1-1.7c-0.1-0.4-0.2-0.9-0.2-1.5s0.1-1,0.2-1.5c0.2-0.7,0.6-1.2,1.2-1.6
				c0.5-0.4,1.2-0.6,2-0.6s1.4,0.2,2,0.6c0.5,0.4,0.9,0.9,1.1,1.6c0.2,0.5,0.2,1,0.2,1.5c0,0.5-0.1,1-0.2,1.4
				c-0.2,0.8-0.6,1.3-1.1,1.7s-1.2,0.7-2,0.7C96.6,33.3,95.9,33.1,95.4,32.7z M98.2,31.3c0.2-0.2,0.4-0.4,0.5-0.8
				c0.1-0.3,0.1-0.7,0.1-1c0-0.4-0.1-0.7-0.1-1c-0.1-0.3-0.3-0.5-0.5-0.8c-0.2-0.2-0.5-0.3-0.8-0.3s-0.6,0.1-0.8,0.3
				c-0.2,0.2-0.4,0.4-0.4,0.8c-0.1,0.2-0.1,0.5-0.1,1c0,0.4,0.1,0.8,0.1,1c0.1,0.3,0.3,0.6,0.5,0.8c0.2,0.2,0.5,0.3,0.8,0.3
				C97.7,31.6,98,31.5,98.2,31.3z"/>
			<path class="st1" d="M9.5,45.5c-0.1-0.1-0.1-0.1-0.1-0.1v-9.5c0-0.1,0-0.1,0.1-0.1c0.1,0,0.1-0.1,0.1-0.1h3.5
				c0.7,0,1.3,0.1,1.8,0.4c0.5,0.3,0.9,0.6,1.2,1c0.3,0.4,0.4,1,0.4,1.6v3.9c0,0.6-0.2,1.1-0.4,1.6c-0.3,0.4-0.7,0.8-1.2,1
				c-0.5,0.3-1.1,0.4-1.8,0.4H9.7C9.6,45.5,9.5,45.5,9.5,45.5z M11.6,43.8h1.7c0.4,0,0.8-0.2,1-0.4s0.4-0.7,0.4-1.2v-3.3
				c0-0.5-0.1-0.9-0.4-1.2c-0.3-0.3-0.7-0.4-1.1-0.4h-1.7c-0.1,0-0.1,0-0.1,0.1v6.3C11.4,43.8,11.5,43.8,11.6,43.8z"/>
			<path class="st1" d="M18.3,37.1c-0.2-0.2-0.3-0.5-0.3-0.8c0-0.3,0.1-0.6,0.3-0.8s0.5-0.3,0.8-0.3s0.6,0.1,0.8,0.3
				s0.3,0.5,0.3,0.8c0,0.3-0.1,0.6-0.3,0.8c-0.2,0.2-0.5,0.3-0.8,0.3S18.5,37.3,18.3,37.1z M18.2,45.5c-0.1-0.1-0.1-0.1-0.1-0.1
				v-6.9c0-0.1,0-0.1,0.1-0.1c0.1-0.1,0.1-0.1,0.1-0.1h1.6c0.1,0,0.1,0,0.1,0.1c0.1,0.1,0.1,0.1,0.1,0.1v6.9c0,0.1,0,0.1-0.1,0.1
				s-0.1,0.1-0.1,0.1h-1.6C18.2,45.5,18.2,45.5,18.2,45.5z"/>
			<path class="st1" d="M22.9,45.3c-0.5-0.2-0.8-0.4-1.1-0.8c-0.3-0.3-0.4-0.7-0.4-1.1v-0.2c0-0.1,0-0.1,0.1-0.1
				c0.1-0.1,0.1-0.1,0.1-0.1h1.6c0.1,0,0.1,0,0.1,0.1c0.1,0.1,0.1,0.1,0.1,0.1l0,0c0,0.2,0.1,0.4,0.3,0.5c0.2,0.2,0.5,0.2,0.9,0.2
				s0.6-0.1,0.8-0.2c0.2-0.1,0.3-0.3,0.3-0.5c0-0.2-0.1-0.3-0.3-0.4c-0.2-0.1-0.4-0.2-0.8-0.3c-0.4-0.1-0.8-0.2-1-0.3
				c-0.6-0.2-1.1-0.4-1.5-0.8c-0.4-0.3-0.5-0.8-0.5-1.3c0-0.7,0.3-1.2,0.8-1.7c0.5-0.4,1.2-0.6,2.2-0.6c0.6,0,1.1,0.1,1.6,0.3
				c0.4,0.2,0.8,0.5,1,0.8c0.3,0.3,0.4,0.8,0.4,1.2c0,0.1,0,0.1-0.1,0.1c-0.1,0.1-0.1,0.1-0.1,0.1h-1.5c-0.1,0-0.1,0-0.1-0.1
				c-0.1-0.1-0.1-0.1-0.1-0.1c0-0.2-0.1-0.4-0.3-0.5c-0.2-0.2-0.5-0.2-0.8-0.2s-0.5,0.1-0.8,0.2s-0.2,0.4-0.2,0.6s0.1,0.3,0.3,0.4
				c0.2,0.1,0.5,0.2,1,0.3c0.1,0.1,0.2,0.1,0.4,0.1c0.1,0.1,0.3,0.1,0.4,0.1c0.7,0.2,1.2,0.4,1.6,0.8c0.4,0.3,0.6,0.8,0.6,1.4
				c0,0.7-0.3,1.2-0.8,1.6s-1.3,0.6-2.2,0.6C23.9,45.6,23.4,45.5,22.9,45.3z"/>
			<path class="st1" d="M30,45c-0.5-0.4-0.9-0.9-1.2-1.6c-0.2-0.5-0.2-1-0.2-1.7s0.1-1.2,0.2-1.6c0.2-0.7,0.6-1.1,1.2-1.5
				c0.5-0.4,1.2-0.5,2-0.5c0.8,0,1.4,0.2,2,0.5c0.5,0.4,0.9,0.9,1.1,1.4c0.1,0.2,0.1,0.4,0.1,0.5v0.1c0,0.1-0.1,0.2-0.2,0.2L33.4,41
				h-0.1c-0.1,0-0.2-0.1-0.2-0.2l-0.1-0.1c-0.1-0.3-0.2-0.4-0.4-0.6c-0.2-0.2-0.5-0.2-0.8-0.2s-0.5,0.1-0.8,0.2s-0.4,0.4-0.4,0.6
				c-0.1,0.3-0.2,0.7-0.2,1.1c0,0.5,0.1,0.9,0.2,1.1c0.1,0.3,0.2,0.5,0.4,0.7c0.2,0.2,0.5,0.2,0.8,0.2c0.3,0,0.5-0.1,0.8-0.2
				s0.4-0.4,0.4-0.7c0,0,0-0.1,0-0.1c0,0,0,0,0-0.1c0-0.1,0.1-0.2,0.2-0.2l1.6,0.3c0.1,0,0.2,0.1,0.2,0.2c0,0.1-0.1,0.2-0.1,0.4
				c-0.2,0.7-0.6,1.1-1.1,1.5c-0.5,0.4-1.2,0.5-2,0.5C31.2,45.6,30.5,45.4,30,45z"/>
			<path class="st1" d="M37.4,45c-0.5-0.4-1-1-1.1-1.7c-0.1-0.4-0.2-0.9-0.2-1.5c0-0.5,0.1-1,0.2-1.5c0.2-0.7,0.6-1.2,1.2-1.6
				c0.5-0.4,1.2-0.6,2-0.6c0.8,0,1.4,0.2,2,0.6c0.5,0.4,0.9,0.9,1.1,1.6c0.2,0.5,0.2,1,0.2,1.5c0,0.5-0.1,1-0.2,1.4
				c-0.2,0.8-0.6,1.3-1.1,1.7c-0.5,0.4-1.2,0.7-2,0.7C38.7,45.6,38,45.4,37.4,45z M40.2,43.6c0.2-0.2,0.4-0.4,0.5-0.8
				c0.1-0.3,0.1-0.7,0.1-1c0-0.4-0.1-0.7-0.1-1c-0.1-0.3-0.3-0.5-0.5-0.8c-0.2-0.2-0.5-0.3-0.8-0.3c-0.3,0-0.6,0.1-0.8,0.3
				c-0.2,0.2-0.4,0.4-0.4,0.8c-0.1,0.2-0.1,0.5-0.1,1c0,0.4,0.1,0.8,0.1,1c0.1,0.3,0.3,0.6,0.5,0.8c0.2,0.2,0.5,0.3,0.8,0.3
				C39.8,43.9,40,43.8,40.2,43.6z"/>
		</g>
	</g>
</g>
</svg>
