<svg width="110" height="110" viewBox="0 0 110 110" fill="none" xmlns="http://www.w3.org/2000/svg">
<path d="M55 105.296C27.2287 105.296 4.61353 82.6809 4.61353 54.9095C4.61353 27.1381 27.2287 4.52301 55 4.52301C82.7714 4.52301 105.387 27.1381 105.387 54.9095C105.387 82.6809 82.7714 105.296 55 105.296Z" fill="#5D8A75"/>
<path d="M55 9.22697C80.2385 9.22697 100.773 29.7615 100.773 55C100.773 80.2384 80.2385 100.773 55 100.773C29.7615 100.773 9.22698 80.2384 9.22698 55C9.22698 29.7615 29.7615 9.22697 55 9.22697ZM55 0C24.6053 0 0 24.6052 0 55C0 85.3947 24.6053 110 55 110C85.3947 110 110 85.3947 110 55C110 24.6052 85.3043 0 55 0Z" fill="#5D8A75"/>
<path d="M57.2614 24.0625C57.7138 24.4243 57.8947 24.7862 57.8042 25.3289C57.8042 26.5954 57.8042 27.7713 57.8042 29.0378C57.8042 29.8519 57.4424 30.2138 56.8091 30.2138C56.2664 30.2138 55.9045 29.7615 55.9045 29.0378C55.9045 27.7713 55.9045 26.5954 55.9045 25.3289C55.9045 24.7862 56.0855 24.3339 56.4473 24.0625H57.2614Z" fill="white"/>
<path d="M64.1366 76.3487C64.8603 77.6151 64.7698 78.8816 64.4984 80.2385C64.3175 81.324 63.3224 81.8668 62.1464 81.9572C61.8751 81.9572 61.6037 81.9572 61.3323 81.9572C61.3323 82.5905 61.3323 83.0428 61.3323 83.5855C61.3323 85.0329 60.5181 85.847 59.0708 85.847C57.533 85.847 56.0856 85.847 54.5478 85.847C53.2813 85.847 52.5576 85.1233 52.4671 83.8569C52.4671 83.2237 52.4671 82.6809 52.4671 82.0477C52.0148 81.9572 51.5625 81.9572 51.1102 81.8668C50.0247 81.6859 49.2106 80.7812 49.1201 79.6957C49.1201 78.6102 48.8487 77.5247 49.482 76.5296C49.5724 76.4391 49.482 76.1678 49.3915 76.0773C48.8487 74.8108 48.9392 73.5444 49.301 72.278C49.3915 71.9161 49.8438 71.5543 50.2056 71.2829C50.5675 71.0115 50.5675 70.8306 50.5675 70.4687C50.1152 68.0263 49.0296 66.1266 47.0395 64.6793C43.3306 61.9655 40.9787 58.347 40.0741 53.824C38.8076 47.4013 41.5214 40.6168 47.13 36.6365C47.6727 36.2747 48.2155 36.3651 48.4869 36.8174C48.7583 37.2697 48.6678 37.8125 48.1251 38.1744C46.2254 39.5313 44.6875 41.25 43.5116 43.2401C39.8027 49.8437 41.6119 58.347 47.6728 62.8701C50.1152 64.6793 51.7435 66.9408 52.2862 69.926C52.3767 70.1974 52.3767 70.4688 52.3767 70.7401H55.8142C55.8142 70.6497 55.8142 70.4687 55.8142 70.3783C55.8142 68.0263 55.8142 65.5839 55.8142 63.2319C55.8142 63.051 55.7237 62.6891 55.5428 62.5987C53.8241 60.8799 52.1958 59.2516 50.477 57.5329C46.5872 53.6431 46.5872 47.8536 50.477 43.9638C52.1053 42.3355 53.7336 40.7072 55.3619 39.079C56.357 38.0839 57.2616 38.0839 58.2566 39.079C59.8849 40.7072 61.6037 42.3355 63.232 44.0543C67.0313 47.8536 66.9408 53.6431 63.232 57.4424C61.5132 59.1612 59.7945 60.8799 58.0757 62.5987C57.8948 62.7796 57.8043 62.9605 57.8043 63.1414C57.8043 65.6743 57.8043 68.2072 57.8043 70.8306H61.1514C61.4227 69.8355 61.6037 68.9309 61.9655 68.0263C62.6892 66.1266 63.8652 64.5888 65.4935 63.3224C68.8405 60.8799 71.0116 57.6234 71.8257 53.5526C73.3635 45.773 68.3882 37.9934 60.6991 36.0033C57.5329 35.1891 54.4573 35.3701 51.4721 36.4556C51.2007 36.5461 50.7484 36.6365 50.5675 36.5461C50.2961 36.4556 50.0247 36.0938 49.9343 35.7319C49.8438 35.2796 50.1152 34.9178 50.5675 34.8273C51.8339 34.4655 53.0099 34.0132 54.2764 33.8322C59.2517 33.1086 63.6843 34.2845 67.5741 37.4507C71.2829 40.4359 73.454 44.4161 73.9063 49.2105C74.4491 55.6332 72.0066 60.699 66.9408 64.5888C64.9507 66.0362 63.6843 67.9358 63.232 70.3783C63.1415 70.8306 63.232 71.102 63.5938 71.2829C64.227 71.6447 64.5889 72.278 64.6793 73.0921C64.7698 74.7204 64.6793 75.3536 64.1366 76.3487ZM57.8043 59.9753C57.8948 59.9753 57.8948 59.9753 57.9852 60.0658C59.3422 58.7089 60.6991 57.352 62.056 55.9951C65.0412 52.9194 65.0412 48.3059 61.9655 45.2303C60.4277 43.6924 58.7994 42.0641 57.2616 40.5263C57.1711 40.4359 56.9902 40.3454 56.8997 40.1645C56.7188 40.2549 56.6283 40.4359 56.5379 40.5263C55 42.0641 53.3718 43.602 51.8339 45.2303C48.7583 48.3059 48.7583 52.9194 51.8339 55.9951C53.0099 57.2615 54.2764 58.4375 55.5428 59.704C55.6333 59.7944 55.8142 59.8849 55.9951 60.0658C55.9951 59.3421 55.9951 58.7993 55.9951 58.2566C55.9951 57.8947 55.8142 57.5329 55.6333 57.352C55.0905 56.7188 54.5478 56.2665 54.005 55.6332C53.6431 55.2714 53.6431 54.7286 54.005 54.3668C54.3668 54.0049 54.9096 54.0049 55.2714 54.3668C55.5428 54.5477 55.7237 54.8191 55.9951 55.0905C56.0856 54.4572 55.9951 54.0049 55.6333 53.6431C55.0905 53.1908 54.5478 52.5576 54.005 52.0148C53.6431 51.5625 53.6431 51.0197 54.005 50.7484C54.4573 50.3865 54.8191 50.3865 55.2714 50.7484C55.5428 50.9293 55.7237 51.2007 55.9047 51.472C55.9951 51.472 55.9951 51.3816 56.0856 51.3816C56.0856 50.477 56.0856 49.4819 56.0856 48.5773C56.0856 47.8536 56.4474 47.4013 56.9902 47.4013C57.5329 47.4013 57.9852 47.8536 57.9852 48.5773C57.9852 49.1201 57.9852 49.6628 57.9852 50.2056C58.0757 50.2056 58.0757 50.2961 58.1662 50.2961C58.3471 50.1151 58.4376 49.9342 58.6185 49.7533C59.1612 49.2105 59.6136 49.2105 60.0659 49.5724C60.4277 49.9342 60.4277 50.477 59.9754 51.0197C59.4326 51.5625 58.8898 52.1053 58.3471 52.648C57.9852 53.0099 57.9853 53.3717 58.1662 54.0049C58.4376 53.7336 58.528 53.5526 58.7089 53.3717C59.2517 52.9194 59.704 52.8289 60.1563 53.2812C60.5181 53.6431 60.5182 54.1859 60.0659 54.6382C59.5231 55.1809 58.9803 55.7237 58.4375 56.2665C58.3471 56.3569 58.1662 56.6283 58.1662 56.7188C57.8043 57.8043 57.8043 58.8898 57.8043 59.9753ZM56.8997 80.0576C58.6185 80.0576 60.3372 80.0576 62.056 80.0576C62.5987 80.0576 62.8701 79.7862 62.8701 79.2434C62.8701 78.7911 62.8701 78.3388 62.8701 77.8865C62.8701 77.4342 62.5987 77.2533 62.2369 77.1628C61.8751 77.1628 61.5132 77.1628 61.1514 77.1628C60.1563 77.1628 59.704 76.8914 59.704 76.2582C59.704 75.625 60.1563 75.3536 61.1514 75.3536C63.1415 75.3536 62.9606 75.2631 62.9606 73.5444C62.9606 72.6398 62.7797 72.5493 61.8751 72.5493C58.6185 72.5493 55.4524 72.5493 52.1958 72.5493C51.2007 72.5493 51.1102 72.6398 51.1102 73.7253C51.1102 73.9062 51.1102 74.1776 51.1102 74.3586C51.1102 75.2632 51.2912 75.3536 52.1958 75.3536C53.7336 75.3536 55.2714 75.3536 56.8093 75.3536C57.2616 75.3536 57.6234 75.4441 57.8043 75.8059C58.1662 76.4391 57.7139 77.1628 56.8997 77.1628C55.2714 77.1628 53.5527 77.1628 51.9244 77.1628C51.3816 77.1628 51.1102 77.4342 51.1102 77.977C51.1102 78.3388 51.1102 78.7007 51.1102 79.153C51.1102 79.8766 51.2912 79.9671 51.9244 79.9671C53.4622 80.0576 55.181 80.0576 56.8997 80.0576ZM54.3668 83.9474H59.4326V81.9572H54.3668V83.9474Z" fill="white"/>
<path d="M33.38 51.5625C32.7468 51.5625 32.1135 51.5625 31.4803 51.5625C30.7566 51.5625 30.3948 51.2006 30.3948 50.6579C30.3948 50.0246 30.7566 49.7533 31.4803 49.7533C32.8372 49.7533 34.1037 49.7533 35.4606 49.7533C36.1843 49.7533 36.5461 50.1151 36.5461 50.6579C36.5461 51.2006 36.0938 51.5625 35.4606 51.5625C34.6464 51.5625 34.0132 51.5625 33.38 51.5625Z" fill="white"/>
<path d="M80.3289 51.5625C79.6957 51.5625 79.0625 51.5625 78.4293 51.5625C77.7056 51.5625 77.3438 51.2006 77.3438 50.6579C77.3438 50.1151 77.7961 49.7533 78.4293 49.7533C79.7862 49.7533 81.0527 49.7533 82.4096 49.7533C83.1333 49.7533 83.4951 50.1151 83.4951 50.7483C83.4951 51.2911 83.1333 51.6529 82.4096 51.6529C81.6859 51.5625 80.9622 51.5625 80.3289 51.5625Z" fill="white"/>
<path d="M46.0443 33.1085C45.8634 33.0181 45.592 32.8371 45.4111 32.6562C44.6874 31.4802 43.9637 30.2138 43.24 28.9474C42.9687 28.4951 43.1496 27.9523 43.5114 27.6809C43.9637 27.4095 44.5065 27.5 44.7779 28.0428C45.5015 29.2187 46.2252 30.4852 46.8585 31.6612C47.3108 32.2944 46.9489 33.1085 46.0443 33.1085Z" fill="white"/>
<path d="M79.9672 37.9934C79.8767 38.1743 79.6957 38.4457 79.4244 38.6266C78.2484 39.3503 76.9819 40.074 75.8059 40.7072C75.2632 40.9786 74.7204 40.8881 74.449 40.4358C74.1777 39.9835 74.3586 39.4407 74.8109 39.1694C75.9869 38.4457 77.2533 37.722 78.4293 37.0888C79.2435 36.6365 79.9672 37.0888 79.9672 37.9934Z" fill="white"/>
<path d="M67.6645 33.1086C66.8504 33.1086 66.3981 32.3849 66.6695 31.7517C67.3932 30.4852 68.1169 29.2188 68.8405 27.9523C69.1119 27.5 69.6547 27.4096 70.0165 27.6809C70.4688 27.9523 70.6497 28.4951 70.3783 28.9474C69.6546 30.2138 68.931 31.4803 68.2073 32.6563C68.1169 32.8372 67.8455 33.0181 67.6645 33.1086Z" fill="white"/>
<path d="M38.8077 40.7073C38.6267 40.7977 38.4458 40.8882 38.2649 40.7977C38.084 40.7073 37.903 40.7073 37.8126 40.6168C36.6366 39.9836 35.5511 39.2599 34.3751 38.6267C33.7418 38.2648 33.561 37.8125 33.8323 37.2698C34.1037 36.8175 34.6465 36.6366 35.2797 36.9984C36.4557 37.6316 37.6317 38.3553 38.8077 39.079C39.1695 39.3504 39.4409 39.7122 39.26 40.1645C39.1695 40.4359 38.9886 40.6168 38.8077 40.7073Z" fill="white"/>
</svg>
