<svg width="110" height="110" viewBox="0 0 110 110" fill="none" xmlns="http://www.w3.org/2000/svg">
<path d="M110 55C110 85.3947 85.3947 110 55 110C24.6053 110 0 85.3043 0 55C0 24.6957 24.6053 0 55 0C85.3947 0 110 24.6053 110 55Z" fill="#F7B853"/>
<path d="M58.6184 70.1974V23.3388C58.6184 20.4441 56.2664 18.1826 53.4622 18.1826C50.5674 18.1826 48.3059 20.5345 48.3059 23.3388V70.1974C48.3059 71.1924 47.8536 72.1875 47.0395 72.8207C44.4161 74.8109 42.7878 78.0674 42.9688 81.6858C43.2401 87.023 47.4918 91.3651 52.8289 91.727C58.9803 92.0888 64.0461 87.2944 64.0461 81.2335C64.0461 77.8865 62.5082 74.9013 59.9753 72.9112C59.1612 72.1875 58.6184 71.2829 58.6184 70.1974Z" stroke="white" stroke-width="2.293" stroke-linecap="round" stroke-linejoin="round"/>
<path d="M53.4622 87.2039C56.8095 87.2039 59.5231 84.4904 59.5231 81.1431C59.5231 77.7957 56.8095 75.0822 53.4622 75.0822C50.1149 75.0822 47.4014 77.7957 47.4014 81.1431C47.4014 84.4904 50.1149 87.2039 53.4622 87.2039Z" stroke="white" stroke-width="2.293" stroke-linecap="round" stroke-linejoin="round"/>
<path d="M53.4622 74.5394V23.7006" stroke="white" stroke-width="2.293" stroke-linecap="round" stroke-linejoin="round"/>
<mask id="mask0_503_185" style="mask-type:luminance" maskUnits="userSpaceOnUse" x="31" y="31" width="16" height="32">
<path d="M46.3159 31.7516H31.7517V62.5082H46.3159V31.7516Z" fill="white"/>
</mask>
<g mask="url(#mask0_503_185)">
<path d="M57.8045 46.5872C57.8045 40.1645 52.7387 35.0082 46.4065 34.9178C39.9838 34.9178 34.8275 39.9835 34.7371 46.3158C34.7371 52.648 39.8933 57.8947 46.2255 57.9852C52.5578 58.0756 57.8045 53.0099 57.8045 46.5872Z" stroke="white" stroke-width="2.293" stroke-linecap="round" stroke-linejoin="round"/>
</g>
</svg>
