<svg width="110" height="110" viewBox="0 0 110 110" fill="none" xmlns="http://www.w3.org/2000/svg">
<path d="M55 105.386C27.2287 105.386 4.61353 82.7713 4.61353 55C4.61353 27.2286 27.2287 4.61346 55 4.61346C82.7714 4.61346 105.387 27.2286 105.387 55C105.387 82.7713 82.7714 105.386 55 105.386Z" fill="#E1D3B9"/>
<path d="M55 9.22697C80.2385 9.22697 100.773 29.7615 100.773 55C100.773 80.2385 80.2385 100.773 55 100.773C29.7615 100.773 9.22698 80.2385 9.22698 55C9.22698 29.7615 29.7615 9.22697 55 9.22697ZM55 0C24.6053 0 0 24.6053 0 55C0 85.3947 24.6053 110 55 110C85.3947 110 110 85.3947 110 55C110 24.6053 85.3043 0 55 0Z" fill="#E1D3B9"/>
<path d="M78.6103 55.1809C78.7007 42.0641 68.2073 31.3898 55.181 31.3898C42.0642 31.3898 31.3899 41.7928 31.2994 54.8191C31.2089 67.8454 41.7928 78.6102 54.7287 78.7006C67.8454 78.7006 78.5198 68.2072 78.6103 55.1809Z" stroke="white" stroke-width="2.293" stroke-linecap="round" stroke-linejoin="round"/>
<path d="M72.7302 55.0904C72.7302 45.2302 64.8602 37.1792 55.0904 37.1792C45.2302 37.1792 37.2697 44.9588 37.1792 54.819C37.0888 64.5888 45.0493 72.6397 54.819 72.7302C64.6792 72.8207 72.6398 64.9506 72.7302 55.0904Z" stroke="white" stroke-width="2.293" stroke-linecap="round" stroke-linejoin="round"/>
</svg>
