<svg width="110" height="110" viewBox="0 0 110 110" fill="none" xmlns="http://www.w3.org/2000/svg">
<path d="M110 55C110 85.3947 85.3947 110 55 110C24.6053 110 0 85.3947 0 55C0 24.6053 24.6053 0 55 0C85.3947 0 110 24.6053 110 55Z" fill="#2D2815"/>
<path d="M52.7384 24.7862C53.5526 25.0575 54.4572 25.2385 55.1808 25.6003C57.8042 26.8668 59.7943 28.8569 61.3322 31.3898C64.2269 36.0033 65.222 41.0691 64.7697 46.4967C64.4078 50.9293 63.0509 55 60.6085 58.7089C58.7993 61.5131 56.5378 63.9556 53.643 65.6743C53.0098 66.0362 52.5575 66.4885 52.3766 67.1217C52.0147 68.2977 51.472 69.4737 51.2006 70.6496C50.5674 73.8158 52.5575 75.2631 55.2713 75.2631C59.342 75.2631 63.0509 74.0872 66.398 71.8256C69.3831 69.8355 71.7351 67.2122 73.3634 64.046C75.0822 60.6085 75.8963 56.9901 75.6249 53.1908C75.2631 48.7582 73.7253 44.7779 70.8305 41.3404C69.3831 39.6217 67.6644 38.1743 65.6743 36.9079C65.4029 36.727 65.222 36.4556 65.041 36.1842C64.5887 35.4605 64.2269 34.7368 63.8651 33.9227L63.9555 33.8322C64.8601 34.375 65.8552 34.8273 66.7598 35.37C71.3733 38.2648 74.6299 42.3355 76.3486 47.5822C77.2532 50.3865 77.6151 53.3717 77.4341 56.3569C76.9818 62.1464 74.5394 67.1217 70.3782 71.102C66.8503 74.449 62.6891 76.3487 57.8947 76.9819C56.2664 77.1628 54.7285 77.3437 53.1003 76.8914C50.3864 76.0773 48.8486 73.8158 49.2105 71.0115C49.4818 68.9309 50.296 67.1217 51.2006 65.3125C52.2861 63.051 53.1907 60.7895 54.0049 58.4375C54.9095 55.995 55.4522 53.3717 55.6331 50.7483C55.8141 48.5773 55.8141 46.4967 55.4522 44.3256C55.2713 43.3306 54.9999 42.426 54.819 41.4309C54.7285 41.4309 54.7285 41.4309 54.6381 41.4309C54.7285 41.9737 54.9095 42.426 54.9999 42.9687C55.1808 44.6875 55.3618 46.4967 55.1808 48.2154C54.5476 55.2714 51.5624 61.5131 47.6726 67.3026C47.6726 67.3026 47.5822 67.3931 47.4917 67.4835C47.3108 66.9408 47.0394 66.4885 46.9489 66.0362C45.9539 62.87 44.8683 59.7039 44.2351 56.3569C43.6924 53.4622 43.5114 50.477 43.6924 47.4918C44.0542 41.8832 45.9539 36.9079 48.7581 32.1135C49.9341 30.1233 51.1101 28.1332 51.8338 25.9622C51.9243 25.6003 52.0147 25.2385 52.1052 24.8766H52.7384V24.7862Z" stroke="white" stroke-width="1.274" stroke-linecap="round" stroke-linejoin="round"/>
<path d="M46.2253 33.7417C45.9539 34.5559 45.6826 35.2796 45.4112 36.0937C45.3207 36.2746 45.1398 36.3651 44.9589 36.4555C41.8832 38.1743 39.4408 40.4358 37.5411 43.421C35.7319 46.2253 34.7368 49.2105 34.375 52.4671C33.9227 56.8996 34.8273 61.0608 37.0888 64.8601C37.1793 65.0411 37.2697 65.3125 37.6316 65.1315C39.8026 64.4983 41.7928 65.222 43.0592 67.1217C43.2401 67.393 43.3306 67.574 43.602 67.9358C43.0592 68.2977 42.5164 68.6595 41.8832 69.0213C42.3355 69.8355 42.8783 70.5592 43.3306 71.3733C42.7878 71.7352 42.3355 72.0065 41.7023 72.3684C41.1595 71.5542 40.7072 70.8305 40.1645 70.0164C39.5312 70.3782 38.9885 70.7401 38.4457 71.1019C38.898 71.9161 39.4408 72.6398 39.8931 73.4539C39.3503 73.8157 38.898 74.0871 38.2648 74.449C37.722 73.6348 37.2697 72.9111 36.727 72.097C36.2747 72.3684 35.8224 72.6398 35.3701 72.9111C33.6513 70.8305 33.6513 68.3881 35.3701 66.398C35.551 66.1266 35.4605 65.9457 35.3701 65.7648C34.1036 63.6842 33.199 61.4226 32.7467 58.9802C31.3898 51.9243 32.9276 45.5016 37.5411 39.893C39.7122 37.1792 42.426 35.1891 45.5921 33.7417C45.9539 33.9227 46.0444 33.8322 46.2253 33.7417Z" stroke="white" stroke-width="1.274" stroke-linecap="round" stroke-linejoin="round"/>
</svg>
