<?xml version="1.0" encoding="utf-8"?>
<!-- Generator: Adobe Illustrator 24.2.1, SVG Export Plug-In . SVG Version: 6.00 Build 0)  -->
<svg version="1.1" id="Layer_1" xmlns="http://www.w3.org/2000/svg" xmlns:xlink="http://www.w3.org/1999/xlink" x="0px" y="0px"
	 viewBox="0 0 191 80" style="enable-background:new 0 0 191 80;" xml:space="preserve">
<path d="M12,40.3l7.7,0L31.8,9.9l-9.1,0L15.9,29L9.2,9.8L0,9.8L12,40.3z"/>
<path d="M35,9.9l8.3,0l0,30.4l-8.3,0L35,9.9z"/>
<path d="M55.4,17.3l-8.9,0l0-7.4l26.1,0l0,7.4l-8.9,0l0,23.1l-8.2,0L55.4,17.3z"/>
<path d="M75.8,9.9l14.1,0c4.5,0.1,7.7,1.3,9.7,3.4c1.7,1.7,2.6,4.1,2.6,7v0.1c0,4.6-2.4,7.7-6.1,9.3l7.1,10.6l-9.5,0l-6-9.2h-0.1
	l-3.5,0l0,9.2l-8.2,0L75.8,9.9z M89.4,24.5c2.8,0,4.4-1.4,4.4-3.6v-0.1c0-2.4-1.7-3.6-4.5-3.6l-5.4,0l0,7.3L89.4,24.5z"/>
<path d="M106.4,9.9l0,30.4l8.3,0l0-30.4L106.4,9.9z"/>
<path d="M117.8,27l0-17.1l8.4,0l0,17c0,4.4,2.2,6.4,5.5,6.4c3.3,0,5.5-2,5.5-6.2l0-17.2l8.4,0l0,16.9c0,9.8-5.5,14-14,14
	C123.1,40.8,117.8,36.5,117.8,27z"/>
<path d="M148.8,9.9l8.7,0l7.1,11.7l7.1-11.7l8.7,0l0,30.4l-8.2,0l0-17.5l-7.6,11.8h-0.2l-7.5-11.8l0,17.5l-8.1,0L148.8,9.9z"/>
<path d="M0.4,65L0.4,65c0-8.5,6.4-15.1,15-15.1c5.8,0,9.5,2.5,12,6l-5.9,4.7c-1.6-2.1-3.5-3.4-6.2-3.4c-4,0-6.8,3.4-6.8,7.6V65
	c0,4.3,2.8,7.7,6.8,7.7c3,0,4.7-1.4,6.4-3.5l5.9,4.3C24.9,77.2,21.3,80,15,80C6.9,80,0.3,73.7,0.4,65z"/>
<path d="M40.5,50.4l7.6,0l12.1,29.1l-8.4,0l-2.1-5.2l-11,0l-2,5.2l-8.3,0L40.5,50.4z M47.4,68.1l-3.2-8.2L41,68.1L47.4,68.1z"/>
<path d="M63.4,50.6l12.2,0c7.2,0,11.8,3.8,11.8,10.2v0.1c0,6.8-5.2,10.4-12.2,10.4l-3.9,0l0,8.3l-7.9,0L63.4,50.6z M75,65
	c2.8,0,4.5-1.5,4.5-3.7v-0.1c0-2.5-1.7-3.8-4.5-3.8l-3.7,0l0,7.6L75,65z"/>
<path d="M90.6,50.6l0,28.9l7.9,0l0-28.9L90.6,50.6z"/>
<path d="M110.2,57.7l-8.5,0l0-7l24.9,0l0,7l-8.5,0l0,21.9l-7.9,0L110.2,57.7z"/>
<path d="M136,50.5l7.6,0l12.1,29.1l-8.4,0l-2.1-5.2l-11,0l-2,5.2l-8.3,0L136,50.5z M142.9,68.2l-3.2-8.2l-3.2,8.2L142.9,68.2z"/>
<path d="M158.9,50.8l7.9,0l0,21.9l13.8,0l0,7l-21.6,0L158.9,50.8z"/>
<path d="M176.5,6.9h7.2v7.3l6.7,6.9V0h-20.7L176.5,6.9z"/>
</svg>
