<svg width="107" height="103" viewBox="0 0 107 103" fill="none" xmlns="http://www.w3.org/2000/svg">
<g clip-path="url(#clip0_806_242)">
<path d="M30.6918 74.9131L24.5534 92.043L18.4151 74.9131H9.98987L20.9426 102.297H27.9235L38.9966 74.9131H30.6918Z" fill="#2E270E"/>
<path d="M49.5883 74.9131H42.0056V102.176H49.5883V74.9131Z" fill="#2E270E"/>
<path d="M53.0787 74.9131V102.055H73.7806V95.4207H60.6614V74.9131H53.0787Z" fill="#2E270E"/>
<path d="M91.7143 83.5987L94.7233 91.3192H88.5849L91.7143 83.5987ZM88.2239 74.6719L76.6693 102.056H84.6131L86.5388 97.2302H97.0101L98.9359 102.056H107L95.4455 74.6719H88.2239Z" fill="#2E270E"/>
<path d="M85.0945 17.4915H75.9471V3.13623H101.945V66.5891H85.0945V17.4915Z" fill="#2E270E"/>
<mask id="mask0_806_242" style="mask-type:luminance" maskUnits="userSpaceOnUse" x="7" y="2" width="64" height="64">
<path d="M7.46228 33.8978C7.46228 51.2689 21.5444 65.383 38.8762 65.383C56.2081 65.383 70.2902 51.2689 70.2902 33.8978C70.2902 16.5266 56.3284 2.4126 38.9966 2.4126C21.5444 2.4126 7.46228 16.5266 7.46228 33.8978Z" fill="white"/>
</mask>
<g mask="url(#mask0_806_242)">
<path d="M72.8177 34.8629H4.93469V32.209C6.74009 13.2696 19.2575 0 37.0708 0H40.6816C58.3745 0 73.0584 15.5616 72.8177 32.209V34.8629Z" fill="#FFBC52"/>
</g>
<mask id="mask1_806_242" style="mask-type:luminance" maskUnits="userSpaceOnUse" x="7" y="2" width="64" height="64">
<path d="M7.46228 33.8978C7.46228 51.2689 21.5444 65.383 38.8762 65.383C56.2081 65.383 70.2902 51.2689 70.2902 33.8978C70.2902 16.5266 56.3284 2.4126 38.9966 2.4126C21.5444 2.4126 7.46228 16.5266 7.46228 33.8978Z" fill="white"/>
</mask>
<g mask="url(#mask1_806_242)">
<path d="M4.93477 34.9834H72.8178V37.0342C73.0585 51.3895 58.6153 68.7606 41.1631 68.7606H36.4691C19.0169 68.64 3.24973 50.6657 4.93477 37.0342V34.9834Z" fill="#5D8D5D"/>
</g>
<mask id="mask2_806_242" style="mask-type:luminance" maskUnits="userSpaceOnUse" x="7" y="2" width="64" height="64">
<path d="M7.46228 33.8978C7.46228 51.2689 21.5444 65.383 38.8762 65.383C56.2081 65.383 70.2902 51.2689 70.2902 33.8978C70.2902 16.5266 56.3284 2.4126 38.9966 2.4126C21.5444 2.4126 7.46228 16.5266 7.46228 33.8978Z" fill="white"/>
</mask>
<g mask="url(#mask2_806_242)">
<path d="M78.1136 32.6914C78.1136 36.1898 78.9561 39.0849 71.7345 39.0849C64.874 39.0849 65.3554 36.1898 65.3554 32.6914C65.3554 29.193 68.2441 26.2979 71.7345 26.2979C75.225 26.2979 78.1136 29.193 78.1136 32.6914Z" fill="#91BFAC"/>
</g>
<mask id="mask3_806_242" style="mask-type:luminance" maskUnits="userSpaceOnUse" x="7" y="2" width="64" height="64">
<path d="M7.46228 33.8978C7.46228 51.2689 21.5444 65.383 38.8762 65.383C56.2081 65.383 70.2902 51.2689 70.2902 33.8978C70.2902 16.5266 56.3284 2.4126 38.9966 2.4126C21.5444 2.4126 7.46228 16.5266 7.46228 33.8978Z" fill="white"/>
</mask>
<g mask="url(#mask3_806_242)">
<path d="M71.7345 40.0503C68.7255 40.0503 66.7998 39.5677 65.5962 38.3614C64.2722 37.0344 64.2722 35.1043 64.2722 33.2948V32.6916C64.2722 28.5901 67.6423 25.2124 71.7345 25.2124C75.8268 25.2124 79.1969 28.5901 79.1969 32.6916C79.1969 33.0535 79.1969 33.4154 79.1969 33.6567C79.1969 35.3456 79.3172 37.1551 77.9933 38.3614C76.91 39.5677 74.9842 40.0503 71.7345 40.0503ZM71.7345 27.2632C68.8459 27.2632 66.4387 29.6758 66.4387 32.571V33.1742C66.4387 34.9837 66.4387 36.0694 67.1609 36.7932C67.883 37.517 69.4477 37.8789 71.8549 37.8789C74.3825 37.8789 75.9471 37.517 76.6693 36.7932C77.2711 36.19 77.2711 35.1043 77.2711 33.5361C77.2711 33.1742 77.2711 32.8123 77.2711 32.4504C77.0304 29.6758 74.7435 27.2632 71.7345 27.2632Z" fill="#2E270E"/>
</g>
<mask id="mask4_806_242" style="mask-type:luminance" maskUnits="userSpaceOnUse" x="7" y="2" width="64" height="64">
<path d="M7.46228 33.8978C7.46228 51.2689 21.5444 65.383 38.8762 65.383C56.2081 65.383 70.2902 51.2689 70.2902 33.8978C70.2902 16.5266 56.3284 2.4126 38.9966 2.4126C21.5444 2.4126 7.46228 16.5266 7.46228 33.8978Z" fill="white"/>
</mask>
<g mask="url(#mask4_806_242)">
<path d="M72.577 42.7042C72.577 48.7358 72.3363 53.6818 61.6242 53.6818C49.7086 53.6818 50.6715 48.7358 50.6715 42.7042C50.6715 36.6725 55.6062 31.7266 61.6242 31.7266C67.6422 31.7266 72.577 36.6725 72.577 42.7042Z" fill="#5D8D75"/>
</g>
<mask id="mask5_806_242" style="mask-type:luminance" maskUnits="userSpaceOnUse" x="7" y="2" width="64" height="64">
<path d="M7.46228 33.8978C7.46228 51.2689 21.5444 65.383 38.8762 65.383C56.2081 65.383 70.2902 51.2689 70.2902 33.8978C70.2902 16.5266 56.3284 2.4126 38.9966 2.4126C21.5444 2.4126 7.46228 16.5266 7.46228 33.8978Z" fill="white"/>
</mask>
<g mask="url(#mask5_806_242)">
<path d="M61.6243 54.6465C56.5692 54.6465 53.4398 53.8021 51.6344 51.9926C49.5883 49.9419 49.5883 47.0467 49.7087 43.9102C49.7087 43.5483 49.7087 43.0658 49.7087 42.7039C49.7087 36.0691 55.1249 30.7612 61.6243 30.7612C68.1237 30.7612 73.5399 36.1897 73.5399 42.7039C73.5399 48.3736 73.5399 54.6465 61.6243 54.6465ZM61.6243 32.812C56.2081 32.812 51.7548 37.2754 51.7548 42.7039C51.7548 43.1864 51.7548 43.5483 51.7548 44.0308C51.7548 46.926 51.7548 49.0974 53.0787 50.545C54.4027 51.9926 57.2913 52.5958 61.6243 52.5958C71.4938 52.5958 71.4938 48.4943 71.4938 42.7039C71.4938 37.2754 67.0405 32.812 61.6243 32.812Z" fill="#2E270E"/>
</g>
<mask id="mask6_806_242" style="mask-type:luminance" maskUnits="userSpaceOnUse" x="7" y="2" width="64" height="64">
<path d="M7.46228 33.8978C7.46228 51.2689 21.5444 65.383 38.8762 65.383C56.2081 65.383 70.2902 51.2689 70.2902 33.8978C70.2902 16.5266 56.3284 2.4126 38.9966 2.4126C21.5444 2.4126 7.46228 16.5266 7.46228 33.8978Z" fill="white"/>
</mask>
<g mask="url(#mask6_806_242)">
<path d="M66.5591 13.149C66.5591 19.1806 61.6243 24.1266 55.6063 24.1266C49.5883 24.1266 44.6536 19.1806 44.6536 13.149C44.6536 7.11734 49.5883 2.17139 55.6063 2.17139C61.6243 2.17139 66.5591 7.11734 66.5591 13.149Z" fill="#F29100"/>
</g>
<mask id="mask7_806_242" style="mask-type:luminance" maskUnits="userSpaceOnUse" x="7" y="2" width="64" height="64">
<path d="M7.46228 33.8978C7.46228 51.2689 21.5444 65.383 38.8762 65.383C56.2081 65.383 70.2902 51.2689 70.2902 33.8978C70.2902 16.5266 56.3284 2.4126 38.9966 2.4126C21.5444 2.4126 7.46228 16.5266 7.46228 33.8978Z" fill="white"/>
</mask>
<g mask="url(#mask7_806_242)">
<path d="M55.6063 25.0914C48.9865 25.0914 43.6907 19.6629 43.6907 13.1487C43.6907 6.63453 49.1069 1.20605 55.6063 1.20605C62.1057 1.20605 67.5219 6.63453 67.5219 13.1487C67.5219 19.6629 62.2261 25.0914 55.6063 25.0914ZM55.6063 3.25681C50.1901 3.25681 45.7368 7.72023 45.7368 13.1487C45.7368 18.5772 50.1901 23.0406 55.6063 23.0406C61.0225 23.0406 65.4758 18.5772 65.4758 13.1487C65.4758 7.72023 61.1429 3.25681 55.6063 3.25681Z" fill="#2E270E"/>
</g>
<mask id="mask8_806_242" style="mask-type:luminance" maskUnits="userSpaceOnUse" x="0" y="1" width="107" height="102">
<path d="M107 1.32715H0V102.297H107V1.32715Z" fill="white"/>
</mask>
<g mask="url(#mask8_806_242)">
<path d="M38.9966 66.4689C21.0629 66.4689 6.49939 51.8723 6.49939 33.898C6.49939 15.9237 21.0629 1.32715 38.9966 1.32715C56.9302 1.32715 71.4938 15.9237 71.4938 33.898C71.4938 51.8723 56.8099 66.4689 38.9966 66.4689ZM38.9966 3.37791C22.1462 3.37791 8.54551 17.1301 8.54551 33.898C8.54551 50.666 22.1462 64.4182 38.9966 64.4182C55.847 64.4182 69.4476 50.7866 69.4476 33.898C69.4476 17.0094 55.7266 3.37791 38.9966 3.37791Z" fill="#2E270E"/>
</g>
<mask id="mask9_806_242" style="mask-type:luminance" maskUnits="userSpaceOnUse" x="0" y="1" width="107" height="102">
<path d="M107 1.32715H0V102.297H107V1.32715Z" fill="white"/>
</mask>
<g mask="url(#mask9_806_242)">
<path d="M34.3026 33.1742C34.3026 43.3074 29.1271 48.3739 22.9888 48.3739C16.73 48.3739 11.7953 43.3074 11.7953 33.2948C11.7953 14.9586 19.2576 7.96191 23.1091 7.96191C26.9606 7.96191 34.3026 23.1617 34.3026 33.1742Z" fill="#91BFAC"/>
</g>
<mask id="mask10_806_242" style="mask-type:luminance" maskUnits="userSpaceOnUse" x="0" y="1" width="107" height="102">
<path d="M107 1.32715H0V102.297H107V1.32715Z" fill="white"/>
</mask>
<g mask="url(#mask10_806_242)">
<path d="M22.8684 49.4599C15.4061 49.4599 10.5917 43.0663 10.5917 33.295C10.712 15.3207 18.054 6.99707 22.9887 6.99707C28.1642 6.99707 35.2655 23.765 35.2655 33.295C35.2655 45.2377 28.6457 49.4599 22.8684 49.4599ZM22.9887 9.04783C20.2205 9.04783 12.7582 14.8382 12.7582 33.295C12.7582 41.9806 16.6097 47.4091 22.9887 47.4091C29.2475 47.4091 33.3397 41.86 33.3397 33.1744C33.2193 22.6793 25.757 9.04783 22.9887 9.04783Z" fill="#2E270E"/>
</g>
<mask id="mask11_806_242" style="mask-type:luminance" maskUnits="userSpaceOnUse" x="0" y="1" width="107" height="102">
<path d="M107 1.32715H0V102.297H107V1.32715Z" fill="white"/>
</mask>
<g mask="url(#mask11_806_242)">
<path d="M56.9302 25.092L41.7649 16.4064C40.9223 15.9239 39.9595 15.6826 38.8762 15.6826C37.9133 15.6826 36.9505 15.9239 35.9876 16.4064L20.8222 25.092C19.0168 26.1777 17.8132 28.1078 17.8132 30.2792V51.5106C17.8132 51.7519 17.8132 52.1138 17.9336 52.355C18.415 55.2502 20.8222 57.4216 23.7109 57.4216H36.1079C36.7097 57.301 37.1912 56.6978 37.3115 56.0946V55.3708V54.8883C37.3115 54.647 37.1912 54.5264 37.0708 54.2851L32.1361 49.4598C31.2935 48.6154 30.8121 47.5297 30.6917 46.444C30.6917 46.3234 30.6917 46.0821 30.6917 45.9615V43.5488C29.3678 43.0663 28.4049 41.86 28.1642 40.533C28.1642 40.2917 28.1642 40.1711 28.1642 39.9298C28.1642 37.7584 29.8492 36.0696 32.0157 36.0696C33.7007 36.0696 35.1451 37.1553 35.6265 38.6029C35.6265 38.7235 35.6265 38.7235 35.7469 38.8441V38.9648V39.0854C36.1079 41.1362 35.0247 42.825 33.2193 43.4282V45.9615C33.2193 46.0821 33.2193 46.0821 33.2193 46.2027C33.3397 46.6853 33.5804 47.2884 33.9415 47.6503L36.1079 49.7011C36.5894 49.9424 37.3115 49.7011 37.4319 49.0979V27.384C36.2283 26.9015 35.2654 25.6951 35.1451 24.3682C35.1451 24.1269 35.1451 24.0063 35.1451 23.765C35.1451 21.5936 36.8301 19.9048 38.9966 19.9048C40.802 19.9048 42.2463 21.1111 42.7277 22.6793V22.8V22.9206C42.7277 23.0412 42.7277 23.0412 42.7277 23.1619V23.2825C42.9685 25.2126 41.7649 26.9015 39.9595 27.384V44.0313C39.9595 44.6345 40.5613 44.9964 41.0427 44.7551L43.0888 42.9457C43.5703 42.4631 43.811 41.86 43.811 41.2568V38.8441C42.487 38.3616 41.5241 37.1553 41.2834 35.8283C41.2834 35.587 41.2834 35.4664 41.2834 35.2251C41.2834 33.0538 42.9685 31.3649 45.1349 31.3649C46.82 31.3649 48.2643 32.4506 48.7457 33.8982C48.7457 34.0188 48.7457 34.0188 48.8661 34.1395V34.2601V34.3807C49.2272 36.4315 48.1439 38.1203 46.3385 38.8441V41.3774C46.3385 42.7044 45.7367 44.0313 44.8942 44.8758H44.7739L40.0798 48.8567C39.8391 48.9773 39.8391 49.2186 39.8391 49.4598V53.4407V55.6121C39.8391 56.3359 40.3205 56.9391 41.0427 57.0597H54.1619C57.4117 57.0597 59.9392 54.4058 59.9392 51.1487V30.1586C59.9392 29.9173 59.9392 29.676 59.9392 29.4348C59.6985 27.6253 58.6153 25.9364 56.9302 25.092Z" fill="#E4D6BC"/>
</g>
<mask id="mask12_806_242" style="mask-type:luminance" maskUnits="userSpaceOnUse" x="0" y="1" width="107" height="102">
<path d="M107 1.32715H0V102.297H107V1.32715Z" fill="white"/>
</mask>
<g mask="url(#mask12_806_242)">
<path d="M58.1339 22.9207L42.9686 14.2351C40.441 12.7875 37.3116 12.7875 34.7841 14.2351L19.6187 22.9207C16.9708 24.3683 15.4061 27.2635 15.4061 30.2793V51.5107C15.4061 56.0947 19.1373 59.955 23.711 59.955H54.162C58.7357 59.955 62.4669 56.2154 62.4669 51.5107V30.2793C62.4669 27.1428 60.7818 24.3683 58.1339 22.9207ZM59.9393 51.39C59.9393 54.6471 57.2914 57.3011 54.162 57.3011H41.4039C40.5614 57.3011 39.8392 56.5773 39.8392 55.7328V53.5614V49.5806C39.8392 49.3393 39.9596 49.098 40.0799 48.9774L44.774 44.9965H44.8943C45.8572 44.0314 46.3386 42.8251 46.3386 41.4981V38.9649C48.0237 38.3617 49.2273 36.5522 48.8662 34.5014C48.6255 33.0538 47.4219 31.8475 45.8572 31.4856C43.45 31.0031 41.2835 32.9332 41.2835 35.2252C41.2835 36.9141 42.3668 38.3617 43.8111 38.8442V41.3775C43.8111 41.9807 43.5704 42.5838 43.0889 43.0664L41.1632 44.6346C40.6817 45.1171 39.8392 44.7552 39.8392 44.0314V27.5047C41.6446 27.0222 42.8482 25.0921 42.4871 23.0413C42.2464 21.4731 41.0428 20.2668 39.4781 20.0255C37.0709 19.543 34.9044 21.4731 34.9044 23.7651C34.9044 25.3333 35.8673 26.7809 37.3116 27.2635V48.8568C37.3116 49.5806 36.4691 49.9425 35.8673 49.4599L33.8212 47.5298C33.3398 47.0473 33.099 46.4441 33.099 45.8409V43.4283C34.7841 42.8251 35.9877 41.0156 35.6266 39.0855C35.3859 37.6379 34.1823 36.4316 32.6176 36.0697C30.2104 35.5871 28.0439 37.5173 28.0439 39.8093C28.0439 41.4981 29.1272 42.9457 30.5715 43.4283V45.9616C30.5715 47.2885 31.1733 48.6155 32.0158 49.4599L36.9506 54.2852C37.0709 54.4059 37.1913 54.6471 37.1913 54.8884V55.3709V55.9741C37.1913 56.8185 36.4691 57.5423 35.6266 57.5423H23.5906C20.3409 57.5423 17.8133 54.8884 17.8133 51.6313V30.2793C17.8133 28.1079 19.0169 26.1778 20.8223 25.0921L36.108 16.4065C36.9506 15.924 37.9134 15.6827 38.9967 15.6827C39.9596 15.6827 40.9224 15.924 41.8853 16.4065L57.0507 25.0921C58.8561 26.1778 60.0597 28.1079 60.0597 30.2793V51.39H59.9393Z" fill="#2E270E"/>
</g>
<mask id="mask13_806_242" style="mask-type:luminance" maskUnits="userSpaceOnUse" x="0" y="1" width="107" height="102">
<path d="M107 1.32715H0V102.297H107V1.32715Z" fill="white"/>
</mask>
<g mask="url(#mask13_806_242)">
<path d="M23.5906 33.1744C23.5906 43.3075 18.4151 48.3741 12.2767 48.3741C6.01801 48.3741 1.08325 43.4282 1.08325 33.295C1.08325 23.1618 8.42521 7.23828 12.2767 7.23828C16.2486 7.23828 23.5906 23.1618 23.5906 33.1744Z" fill="#5D8D75"/>
</g>
<mask id="mask14_806_242" style="mask-type:luminance" maskUnits="userSpaceOnUse" x="0" y="1" width="107" height="102">
<path d="M107 1.32715H0V102.297H107V1.32715Z" fill="white"/>
</mask>
<g mask="url(#mask14_806_242)">
<path d="M12.2767 49.4596C4.8144 49.4596 0 43.066 0 33.2947C0 23.7647 7.2216 6.15234 12.2767 6.15234C17.4522 6.15234 24.6738 23.4028 24.6738 33.1741C24.6738 45.2374 17.9336 49.4596 12.2767 49.4596ZM12.2767 8.32374C9.6288 8.32374 2.04612 23.041 2.04612 33.2947C2.04612 41.9803 5.89764 47.4088 12.2767 47.4088C18.5354 47.4088 22.6277 41.8597 22.6277 33.1741C22.5073 22.6791 14.9246 8.32374 12.2767 8.32374Z" fill="#2E270E"/>
</g>
<mask id="mask15_806_242" style="mask-type:luminance" maskUnits="userSpaceOnUse" x="0" y="1" width="107" height="102">
<path d="M107 1.32715H0V102.297H107V1.32715Z" fill="white"/>
</mask>
<g mask="url(#mask15_806_242)">
<path d="M13.6007 53.0784L10.9528 50.1832V33.7772C10.9528 33.0534 11.5546 32.4502 12.2767 32.4502C12.9989 32.4502 13.6007 33.0534 13.6007 33.7772V53.0784Z" fill="#282310"/>
</g>
</g>
<defs>
<clipPath id="clip0_806_242">
<rect width="107" height="102.297" fill="white"/>
</clipPath>
</defs>
</svg>
