<svg width="124" height="152" viewBox="0 0 124 152" fill="none" xmlns="http://www.w3.org/2000/svg">
<path d="M47.1496 36.1823H55.7071V3.2124H40.7734V10.3136H47.1496V36.1823Z" fill="white"/>
<path d="M19.7997 77.2679C25.3369 77.2679 29.8673 74.9008 32.7198 70.843L31.2097 69.8285C28.6928 73.3791 24.6657 75.5771 19.7997 75.5771C11.7455 75.5771 5.53715 69.3213 5.53715 61.0365C5.53715 52.7518 11.5777 46.4959 19.7997 46.4959C24.8335 46.4959 28.525 48.5249 30.8741 51.9064L32.3843 50.8919C29.6995 47.0032 25.3369 44.8052 19.7997 44.8052C10.9066 44.8052 3.69141 51.3992 3.69141 61.0365C3.69141 70.6739 10.9066 77.2679 19.7997 77.2679Z" fill="white"/>
<path d="M58.8942 75.2392H41.6114V65.6018H56.5451V63.911H41.6114V46.8343H58.223V45.1436H39.7656V76.9299H58.8942V75.2392Z" fill="white"/>
<path d="M68.2909 68.3069H72.8213C74.3315 68.3069 75.6738 68.1378 76.8484 67.9688L83.3924 77.0989H85.5737L78.5263 67.4615C83.0568 65.6017 85.2381 61.5438 85.2381 56.9788C85.2381 50.5539 81.211 45.3125 72.6535 45.3125H66.2773V77.268H68.1231V68.3069H68.2909ZM68.2909 46.8342H72.4857C80.5399 46.8342 83.3924 51.5683 83.3924 56.8097C83.3924 62.0511 80.5399 66.6161 72.4857 66.6161H68.2909V46.8342Z" fill="white"/>
<path d="M107.893 44.6362C99.0003 44.6362 91.7852 51.2302 91.7852 60.8676C91.7852 70.5049 99.0003 77.0989 107.893 77.0989C116.787 77.0989 124.002 70.5049 124.002 60.8676C124.002 51.3993 116.787 44.6362 107.893 44.6362ZM107.893 75.5772C99.6715 75.5772 93.6309 69.3214 93.6309 61.0367C93.6309 52.7519 99.6715 46.4961 107.893 46.4961C116.115 46.4961 122.156 52.7519 122.156 61.0367C121.988 69.3214 115.948 75.5772 107.893 75.5772Z" fill="white"/>
<path d="M5.36719 85.8911V107.195C5.36719 114.296 9.89764 118.185 16.106 118.185C22.1466 118.185 26.8449 114.465 26.8449 107.195V85.8911H24.9991V107.026C24.9991 113.112 21.3077 116.494 16.2738 116.494C11.0722 116.494 7.54852 113.282 7.54852 107.026V85.8911H5.36719Z" fill="white"/>
<path d="M37.7522 91.9781C37.7522 90.9637 37.5844 89.6111 37.5844 89.6111C37.5844 89.6111 38.4233 90.9637 39.0945 91.64L59.3976 118.016H59.901V85.8914H58.0553V111.591C58.0553 112.605 58.2231 113.958 58.2231 113.958C58.2231 113.958 57.3841 112.605 56.7129 111.929L36.5776 85.5532H36.0742V117.847H37.92V91.9781H37.7522Z" fill="white"/>
<path d="M67.2891 101.785C67.2891 111.422 74.5042 118.016 83.3973 118.016C92.2904 118.016 99.6734 111.422 99.6734 101.785C99.6734 92.1472 92.4582 85.5532 83.3973 85.5532C74.672 85.5532 67.2891 92.1472 67.2891 101.785ZM83.5651 87.244C91.7871 87.244 97.8277 93.4998 97.8277 101.785C97.8277 110.069 91.7871 116.325 83.5651 116.325C75.511 116.325 69.3026 110.069 69.3026 101.785C69.3026 93.4998 75.3432 87.244 83.5651 87.244Z" fill="white"/>
<path d="M112.76 89.6104L103.195 115.479H104.538L113.934 89.6104H112.76Z" fill="white"/>
<path d="M4.02734 152H115.443V125.962H4.02734V152ZM108.06 144.898L107.557 143.546H103.026L102.523 144.898H100.341L105.207 133.401H105.375L110.577 144.898H108.06ZM105.375 129.343H107.892L106.214 132.556H104.536L105.375 129.343ZM93.294 133.57L95.3075 137.29C95.8109 138.135 96.1465 139.488 96.1465 139.488C96.1465 139.488 96.6499 138.135 96.9855 137.29L98.8312 133.57H101.18L97.321 141.179V144.898H94.9719V141.348L90.6093 133.57H93.294ZM79.7026 133.57H82.0518V140.672C82.0518 142.362 82.7229 142.87 84.2331 142.87C85.7432 142.87 86.4144 142.193 86.4144 140.672V133.57H88.9313V140.841C88.9313 143.715 86.9178 145.068 84.4009 145.068C81.884 145.068 79.8704 143.715 79.8704 140.841V133.57H79.7026ZM73.1586 133.401C75.1722 133.401 76.6823 134.078 77.6891 135.768L75.8434 136.952C75.34 136.107 74.3332 135.43 73.1586 135.43C71.1451 135.43 69.8028 136.952 69.8028 139.15C69.8028 141.348 71.1451 142.87 73.1586 142.87C74.6688 142.87 75.34 142.193 76.0112 141.179L77.8569 142.362C76.8501 143.884 75.34 144.898 73.1586 144.898C69.9706 144.898 67.4536 142.362 67.4536 139.15C67.2858 135.937 69.8028 133.401 73.1586 133.401ZM55.8758 133.57H58.2249V140.672C58.2249 142.362 58.8961 142.87 60.4063 142.87C61.9164 142.87 62.5876 142.193 62.5876 140.672V133.57H64.9367V140.841C64.9367 143.715 62.9232 145.068 60.4063 145.068C57.8894 145.068 55.8758 143.715 55.8758 140.841V133.57ZM45.6404 133.57H48.8285C52.0166 133.57 53.8623 135.092 53.8623 137.797C53.8623 139.488 53.0233 140.672 51.681 141.348L54.0301 144.898H51.3454L49.4996 142.024C49.3318 142.024 48.9963 142.024 48.8285 142.024H47.9895V144.898H45.6404V133.57ZM33.8948 133.57H36.2439V140.672C36.2439 142.362 36.9151 142.87 38.4252 142.87C39.9354 142.87 40.6065 142.193 40.6065 140.672V133.57H42.9557V140.841C42.9557 143.715 40.9421 145.068 38.4252 145.068C35.9083 145.068 33.8948 143.715 33.8948 140.841V133.57ZM23.6593 133.57H28.0219C30.2033 133.57 31.21 134.923 31.21 136.445C31.21 137.459 30.5389 138.135 29.6999 138.474C31.21 138.812 32.049 139.826 32.049 141.348C32.049 143.377 30.7067 144.898 28.3575 144.898H23.8271V133.57H23.6593ZM9.56456 133.57H9.73235L15.2696 139.657L20.8068 133.57H20.9746V145.068H18.7933V140.672C18.7933 139.826 18.7933 138.643 18.7933 138.643C18.7933 138.643 18.1221 139.657 17.6187 140.164L15.4374 142.7H15.2696L13.0882 140.164C12.4171 139.657 11.7459 138.643 11.7459 138.643C11.7459 138.643 11.7459 139.826 11.7459 140.672V144.898H9.56456V133.57Z" fill="white"/>
<path d="M29.6993 141.348C29.6993 140.502 29.0281 139.826 28.0213 139.826H26.0078V142.87H28.1891C29.0281 142.87 29.6993 142.193 29.6993 141.348Z" fill="white"/>
<path d="M51.5121 137.967C51.5121 136.445 50.6732 135.769 48.8274 135.769H48.1562V140.165H48.6596C50.6732 140.165 51.5121 139.488 51.5121 137.967Z" fill="white"/>
<path d="M104.702 139.657L103.863 141.686H106.884L106.045 139.657C105.709 138.812 105.373 137.628 105.373 137.628C105.373 137.628 105.038 138.981 104.702 139.657Z" fill="white"/>
<path d="M29.0281 136.783C29.0281 136.107 28.6925 135.769 27.8536 135.769H26.0078V137.967H27.8536C28.5247 137.797 29.0281 137.29 29.0281 136.783Z" fill="white"/>
<path d="M40.7713 19.1057C40.4357 18.7676 40.1001 18.5985 39.9323 18.4294L35.4019 16.4005C35.2341 16.4005 35.2341 16.4005 35.0663 16.2314C34.8985 16.4005 34.7307 16.4005 34.5629 16.5696L32.3816 17.2459C32.3816 17.2459 32.3816 17.2459 32.2138 17.2459H32.3816L34.7307 17.0768C35.0663 17.0768 35.2341 17.0768 35.5697 17.2459C35.7375 17.415 35.9053 17.7531 35.9053 17.9222C35.9053 18.4294 35.5697 18.9367 34.8985 19.1057L32.5494 19.2748H32.3816L31.3748 19.4439L32.2138 19.613H32.3816L34.7307 19.7821C35.0663 19.7821 35.2341 19.9511 35.4019 20.1202C35.5697 20.2893 35.7375 20.6274 35.5697 20.9656C35.5697 21.3037 35.4019 21.4728 35.2341 21.6419C35.0663 21.811 34.7307 21.98 34.3951 21.811L32.2138 21.6419L31.207 21.4728L32.046 21.811H32.2138L34.3951 22.4873C34.5629 22.4873 34.7307 22.6564 34.8985 22.8254C36.2409 22.6564 37.5832 22.3182 38.7578 21.6419C39.429 21.3037 40.2679 20.7965 40.7713 19.9511C40.9391 19.7821 40.9391 19.613 40.9391 19.4439C41.1069 19.4439 40.9391 19.2748 40.7713 19.1057Z" fill="white"/>
<path d="M33.8968 14.0336L31.8832 15.0481C31.8832 15.0481 31.8832 15.0481 31.7154 15.0481H31.8832L34.0646 14.3718C34.2324 14.3718 34.2324 14.3718 34.4001 14.3718C35.5747 13.3573 36.4137 12.1738 37.0849 10.9902C37.4204 10.3139 37.756 9.29947 37.5882 8.45409C37.5882 8.28501 37.4204 8.11593 37.2527 7.94686C37.0849 7.77778 36.9171 7.77778 36.7493 7.77778C36.4137 7.60871 35.9103 7.77778 35.5747 7.77778L30.8765 8.62316C30.8765 8.96132 30.8765 9.13039 30.7087 9.46855L29.1985 11.3284V11.4975H29.3663L31.2121 9.97578C31.3798 9.8067 31.7154 9.63762 32.051 9.8067C32.3866 9.8067 32.5544 9.97578 32.7222 10.1449C32.89 10.3139 33.0578 10.6521 32.89 10.9902C32.89 11.3284 32.7222 11.4975 32.5544 11.6665L30.7087 13.1882C30.7087 13.1882 30.7087 13.1882 30.5409 13.3573L29.8697 13.8645L30.7087 13.5264H30.8765L32.89 12.1738C33.0578 12.0047 33.3934 12.0047 33.729 12.1738C34.0646 12.3428 34.2324 12.5119 34.4001 12.681C34.5679 12.8501 34.5679 13.1882 34.4001 13.5264C34.2324 13.6955 34.0646 13.8645 33.8968 14.0336Z" fill="white"/>
<path d="M20.9725 7.94676V8.79214L21.1403 7.94676V7.77768L21.3081 6.08691C21.1403 6.25599 21.1403 6.42507 20.9725 6.42507L20.8047 6.76322L20.9725 7.94676C20.9725 7.77768 20.8047 7.77768 20.9725 7.94676Z" fill="white"/>
<path d="M28.8607 3.38149C28.6929 2.53611 28.5251 1.69073 27.854 1.01442C27.6862 0.845346 27.5184 0.845346 27.3506 0.67627C27.1828 0.67627 27.015 0.67627 26.8472 0.67627C26.5116 0.845346 26.176 1.01442 25.8404 1.35258L22.6523 4.39595C22.8201 4.39595 23.1557 4.56503 23.1557 4.73411C23.3235 5.07226 23.4913 5.41041 23.4913 5.57949L23.3235 7.94656V8.11564L23.1557 8.96102L23.4913 8.11564V7.94656L24.1625 5.74857C24.3303 5.41041 24.4981 5.24134 24.6659 5.07226C24.8337 4.90318 25.1693 4.90318 25.5048 5.07226C25.8404 5.07226 26.0082 5.41041 26.176 5.57949C26.3438 5.74857 26.3438 6.08672 26.176 6.42487L25.5048 8.62287V8.79194C25.5048 8.79194 25.5048 8.62287 25.6726 8.62287L26.6794 6.59395C26.8472 6.42487 27.015 6.08672 27.3506 6.08672C27.6862 6.08672 27.854 6.08672 28.1896 6.08672C28.5251 6.42487 28.6929 7.10118 28.5251 7.60841L27.5184 9.63733V9.8064L27.1828 10.6518L27.6862 9.97548C27.6862 9.97548 27.6862 9.97548 27.854 9.8064L28.5251 8.96102V8.45379C28.5251 8.28471 28.5251 8.28471 28.5251 8.11564C29.0285 6.42487 29.1963 4.90318 28.8607 3.38149Z" fill="white"/>
<path d="M17.6203 1.69099C16.9491 1.01469 16.2779 0.507455 15.439 0.338379C15.1034 0.338379 14.9356 0.338379 14.7678 0.338379C14.6 0.338379 14.4322 0.507455 14.4322 0.676532C14.0966 1.18376 14.0966 1.52191 13.9288 1.86007C13.9288 2.19822 13.761 2.70545 13.761 3.0436C13.761 3.38176 13.5932 3.71991 13.5932 4.22714C13.5932 4.56529 13.4254 4.90345 13.4254 5.2416C13.4254 5.74883 13.2576 6.25606 13.2576 6.76329C13.2576 7.27052 13.0898 7.77775 13.0898 8.28498L14.2644 9.80666C14.2644 9.80666 14.2644 9.80666 14.4322 9.97574L14.9356 10.483L14.6 9.80666V9.63759L13.4254 7.60867C13.4254 7.27052 13.4254 7.10144 13.4254 6.76329C13.4254 6.42513 13.761 6.25606 13.9288 6.08698C14.4322 5.74883 15.1034 6.08698 15.2712 6.59421L16.2779 8.62313V8.79221L16.4457 9.13036L16.6135 8.79221V8.62313L15.9423 6.42513C15.9423 6.08698 15.9423 5.9179 15.9423 5.57975C16.1101 5.41068 16.2779 5.07252 16.6135 5.07252C16.9491 5.07252 17.1169 5.07252 17.4525 5.07252C17.6203 5.2416 17.9559 5.41068 17.9559 5.74883L18.6271 7.94682C18.6271 7.94682 18.6271 7.94682 18.6271 8.1159L18.7949 8.96128V8.1159V7.94682L18.6271 5.57975C18.6271 5.2416 18.6271 5.07252 18.7949 4.73437C18.9626 4.56529 19.2982 4.39622 19.466 4.39622C19.6338 4.39622 19.6338 4.39622 19.6338 4.39622C19.1304 3.38176 18.4593 2.3673 17.6203 1.69099Z" fill="white"/>
<path d="M5.20225 9.9755C5.37005 10.3137 5.53784 10.6518 5.70564 10.99C5.87343 11.3281 6.04123 11.4972 6.20902 11.8353C6.37681 12.1735 6.7124 12.6807 6.8802 13.188C7.04799 13.5261 7.21579 13.8643 7.55138 14.3715C7.71917 14.3715 7.71917 14.3715 7.88696 14.3715L10.0683 15.0478C10.0683 15.0478 10.0683 15.0478 10.2361 15.0478C10.2361 15.0478 10.0683 15.0478 10.0683 14.8787L8.05476 13.8643C7.55138 13.5261 7.38358 12.8498 7.71917 12.3426C7.71917 12.1735 8.05476 12.0044 8.22255 11.8353C8.55814 11.8353 8.72594 11.8353 9.06153 11.8353L11.0751 12.8498H11.2429L12.0818 13.188L11.2429 13.0189C11.2429 13.0189 11.2429 13.0189 11.0751 12.8498L9.39711 11.3281C9.22932 11.159 9.06153 10.99 9.06153 10.6518C9.06153 10.3137 9.06153 10.1446 9.22932 9.80642C9.56491 9.63735 9.7327 9.63735 10.0683 9.46827C10.4039 9.46827 10.5717 9.46827 10.9073 9.63735L12.753 11.159H12.9208L13.4242 11.8353L12.753 11.159V10.99L11.2429 9.29919C11.0751 9.13012 11.0751 8.79196 11.0751 8.45381C11.0751 8.28473 11.2429 8.11566 11.2429 7.94658C10.0683 7.27027 8.72594 6.76305 7.55138 6.59397C6.7124 6.42489 5.70564 6.42489 4.86666 6.76305C4.69887 6.93212 4.53108 7.1012 4.53108 7.1012C4.36328 7.27027 4.36328 7.43935 4.36328 7.7775C4.36328 8.28473 4.53108 8.62289 4.69887 8.96104C4.69887 9.29919 5.03446 9.63735 5.20225 9.9755Z" fill="white"/>
<path d="M6.54398 23.1638C6.71178 22.9948 6.87957 22.6566 7.21516 22.6566L9.39649 21.9803C9.39649 21.9803 9.39649 21.9803 9.56428 21.9803H9.39649L7.04737 22.1494C6.71178 22.1494 6.54398 22.1494 6.20839 21.9803C6.0406 21.8112 5.87281 21.4731 5.87281 21.304C5.87281 20.7968 6.20839 20.2895 6.87957 20.1205L9.22869 19.9514H9.39649L10.2355 19.7823L9.39649 19.6132H9.22869L6.87957 19.4442C6.54398 19.4442 6.37619 19.2751 6.20839 19.106C6.0406 18.9369 5.87281 18.5988 6.0406 18.2606C6.0406 17.9225 6.20839 17.7534 6.37619 17.5843C6.54398 17.4152 6.87957 17.2462 7.21516 17.4152L9.39649 17.2462H9.56428L10.4033 17.4152L9.56428 17.0771H9.39649L7.21516 16.4008C7.04737 16.2317 6.87957 16.2317 6.71178 15.8936C5.03383 16.0626 3.52368 16.4008 2.01353 17.2462C1.34236 17.5843 0.503383 18.0916 0 18.9369C0 19.2751 0 19.4442 0 19.6132C0 19.7823 0.167794 19.9514 0.167794 20.1205C0.503383 20.4586 0.838972 20.6277 1.00677 20.7968L5.53722 22.8257C5.87281 22.9948 6.20839 23.1638 6.54398 23.1638Z" fill="white"/>
<path d="M12.754 27.8975L13.4251 27.2212L10.7404 29.4192C10.5726 29.5883 10.2371 29.7574 9.90146 29.5883C9.56587 29.5883 9.39808 29.4192 9.23029 29.2502C8.8947 28.7429 8.8947 28.0666 9.39808 27.7285L11.2438 26.2068C11.2438 26.2068 11.2438 26.2068 11.4116 26.0377L12.0828 25.5305L9.06249 27.0522C8.55911 27.3903 7.88793 27.0522 7.72014 26.5449C7.38455 26.0377 7.72014 25.3614 8.22352 25.1923L10.0693 24.1779H10.2371L10.7404 24.0088L7.88793 24.8542C7.55234 25.0232 7.21675 24.8542 7.04896 24.6851C5.8744 25.6996 4.86763 26.8831 4.19645 28.2357C3.86086 28.912 3.52527 29.9265 3.69307 30.7719C3.69307 30.9409 3.86086 31.11 4.02866 31.2791C4.19645 31.4482 4.36425 31.4482 4.53204 31.4482C4.86763 31.6172 5.37101 31.4482 5.7066 31.4482L10.5726 30.6028C10.7404 30.6028 10.9082 30.6028 11.2438 30.4337C11.2438 30.0955 11.2438 29.9265 11.4116 29.7574L12.754 27.8975Z" fill="white"/>
<path d="M18.7931 30.2651L18.4576 31.1105V31.2796L17.7864 33.4776C17.7864 33.8157 17.4508 33.9848 17.283 34.1539C16.9474 34.1539 16.7796 34.1539 16.444 34.1539C15.9406 33.9848 15.605 33.3085 15.7728 32.8013L16.444 30.6033V30.4342C16.444 30.4342 16.444 30.4342 16.444 30.6033L15.2695 32.4631C14.9339 32.9703 14.4305 33.1394 13.9271 32.9703C13.7593 32.8013 13.4237 32.6322 13.4237 32.294C13.4237 31.9559 13.4237 31.7868 13.4237 31.4486L14.4305 29.4197V29.2507L14.7661 28.4053L14.2627 29.0816C14.2627 29.0816 14.2627 29.0816 14.0949 29.2507L12.5847 31.1105C12.417 31.2796 12.417 31.2796 12.2492 31.4486C11.9136 32.9703 11.7458 34.492 12.0814 35.8446C12.2492 36.69 12.417 37.5354 13.0881 38.2117C13.2559 38.3808 13.4237 38.3808 13.5915 38.5499C13.7593 38.5499 13.9271 38.5499 14.0949 38.5499C14.4305 38.3808 14.7661 38.2117 15.1017 37.8736L18.4576 34.492C18.4576 34.492 18.4576 34.492 18.4576 34.323C18.4576 34.1539 18.4576 33.8157 18.4576 33.4776L18.6253 31.1105V30.9414L18.7931 30.2651Z" fill="white"/>
<path d="M28.0183 29.9267L27.5149 29.4195C27.5149 29.4195 27.5149 29.4195 27.3471 29.4195L26.8438 28.7432L27.1793 29.5885V29.7576L27.8505 31.1102C27.8505 30.9412 27.8505 30.9412 27.8505 30.7721L28.0183 29.9267Z" fill="white"/>
<path d="M27.1807 33.1391C26.8451 32.97 26.6773 32.8009 26.5095 32.6319L25.5028 30.6029C25.5028 30.6029 25.5028 30.6029 25.5028 30.4339L25.1672 30.0957L25.335 30.4339V30.6029L26.0061 32.8009C26.0061 33.1391 26.0061 33.3082 26.0061 33.6463C25.8383 33.8154 25.6706 34.1535 25.335 34.1535C24.9994 34.1535 24.8316 34.1535 24.496 34.1535C24.3282 33.9845 23.9926 33.8154 23.9926 33.4772L23.3214 31.2792C23.3214 31.2792 23.3214 31.2792 23.3214 31.1102L23.1536 30.2648V31.1102V31.2792L23.3214 33.6463C23.3214 33.9845 23.3214 34.1535 23.1536 34.4917C22.9858 34.6608 22.6503 34.8298 22.4825 34.8298C22.4825 34.8298 22.4825 34.8298 22.3147 34.8298C21.8113 34.8298 21.3079 34.4917 21.3079 33.8154L21.1401 31.4483C21.1401 31.4483 21.1401 31.4483 21.1401 31.2792L20.9723 30.4339L20.8045 31.2792V31.4483L20.6367 32.8009V32.97C20.6367 33.1391 20.8045 33.4772 20.8045 33.6463C21.3079 35.168 22.3147 36.5206 23.4892 37.7041C24.1604 38.2114 24.8316 38.8877 25.6706 38.8877C25.8383 38.8877 26.0061 38.8877 26.1739 38.8877C26.3417 38.8877 26.5095 38.7186 26.5095 38.5495C26.6773 38.2114 26.8451 37.8732 27.0129 37.5351C27.1807 37.1969 27.1807 36.6897 27.1807 36.1825C27.1807 35.8443 27.3485 35.5062 27.3485 34.9989C27.3485 34.6608 27.5163 34.3226 27.5163 33.9845C27.5163 33.6463 27.6841 33.4772 27.6841 33.1391C27.5163 33.1391 27.3485 33.1391 27.1807 33.1391Z" fill="white"/>
<path d="M31.207 24.0088L31.5426 24.1779C31.5426 24.1779 31.7104 24.1779 31.7104 24.3469L33.7239 25.3614C33.7239 25.3614 33.8917 25.3614 33.8917 25.5305C33.7239 25.1923 33.5562 25.0232 33.2206 24.6851L31.207 24.0088Z" fill="white"/>
<path d="M36.2459 32.4633C36.4137 32.2942 36.5815 32.2942 36.7493 32.1251C36.9171 31.956 36.9171 31.787 36.9171 31.6179C36.9171 31.2797 36.7493 30.7725 36.5815 30.4343C36.4137 30.0962 36.2459 29.589 35.9103 29.2508C35.7425 28.9127 35.5747 28.5745 35.4069 28.2363C35.2391 27.8982 35.0713 27.7291 35.0713 27.391C34.9035 27.0528 34.7357 26.5456 34.4001 26.2074C34.4001 26.3765 34.4001 26.7147 34.2324 26.8837C33.8968 27.391 33.2256 27.56 32.89 27.391L30.8765 26.2074C30.8765 26.2074 30.8765 26.2074 30.7087 26.2074L29.8697 25.7002L30.5409 26.2074C30.5409 26.2074 30.5409 26.2074 30.7087 26.3765L32.5544 27.8982C33.0578 28.2363 33.0578 28.9127 32.7222 29.4199C32.5544 29.589 32.2188 29.758 32.051 29.758C31.7154 29.758 31.5476 29.758 31.2121 29.589L29.3663 28.0673C29.3663 28.0673 29.3663 28.0673 29.1985 28.0673L28.5273 27.2219L29.0307 27.8982V28.0673L30.5409 29.9271C30.8765 30.4343 30.8765 31.1106 30.3731 31.4488C30.3731 31.4488 30.2053 31.4488 30.2053 31.6179C31.2121 32.1251 32.3866 32.6323 33.5612 32.6323C34.4001 32.6323 35.4069 32.8014 36.2459 32.4633Z" fill="white"/>
<path d="M5.36953 12.3432L5.20173 11.8359C4.69835 13.0195 4.19496 14.3721 3.85938 15.5556C4.69835 15.3865 5.70511 15.2175 6.71188 15.0484H6.87967H7.04747C6.71188 14.5412 6.37629 14.0339 6.0407 13.6958C5.87291 13.1885 5.70511 12.6813 5.36953 12.3432Z" fill="white"/>
<path d="M12.2476 7.60868C12.2476 7.27052 12.2476 6.93237 12.4154 6.59422C12.4154 6.08699 12.5831 5.57976 12.5831 5.07253C12.5831 4.90345 12.5831 4.90345 12.5831 4.73438C11.7442 5.2416 10.7374 5.74883 9.89844 6.42514C10.7374 6.59422 11.5764 7.10145 12.2476 7.60868Z" fill="white"/>
<path d="M8.72656 31.7867C9.56553 32.463 10.4045 33.1393 11.2435 33.6465C11.2435 32.8011 11.4113 31.9557 11.5791 31.1104C11.2435 31.2794 10.7401 31.2794 10.4045 31.4485L8.72656 31.7867Z" fill="white"/>
<path d="M3.69141 22.8257C3.8592 23.8401 4.19479 24.8546 4.53038 25.8691C5.03376 25.1928 5.70494 24.5164 6.20832 24.0092C5.87273 23.8401 5.53714 23.8401 5.20156 23.6711L3.69141 22.8257Z" fill="white"/>
<path d="M19.9657 2.87451C19.7979 2.87451 19.7979 2.87451 19.9657 2.87451C20.3013 3.55082 20.6369 4.3962 20.9725 5.24158C21.1403 4.90343 21.4758 4.56528 21.6436 4.3962L22.986 3.21266C22.147 3.04359 21.308 3.04359 20.6369 3.04359C20.3013 2.87451 20.1335 2.87451 19.9657 2.87451Z" fill="white"/>
<path d="M29.5312 7.94679C29.8668 7.77772 30.3702 7.77772 30.7058 7.60864L32.3838 7.27049C31.5448 6.59418 30.7058 5.91787 29.8668 5.41064C29.8668 6.25603 29.699 7.10141 29.5312 7.94679Z" fill="white"/>
<path d="M19.4674 34.9992L18.125 36.1827C18.964 36.3518 19.8029 36.3518 20.4741 36.3518C20.6419 36.3518 20.9775 36.3518 21.1453 36.3518H21.3131C20.8097 35.6755 20.4741 34.8301 20.1385 34.1538C19.9707 34.3229 19.6352 34.661 19.4674 34.9992Z" fill="white"/>
<path d="M37.4193 16.4008C37.2515 15.3863 36.9159 14.3719 36.5803 13.3574C36.0769 14.0337 35.4057 14.71 34.9023 15.2173C35.2379 15.3863 35.5735 15.3863 35.9091 15.5554L37.4193 16.4008Z" fill="white"/>
<path d="M28.6951 32.6316C28.6951 33.1389 28.5273 33.6461 28.5273 34.1533C28.5273 34.3224 28.5273 34.3224 28.5273 34.4915C29.5341 33.9843 30.3731 33.477 31.2121 32.8007C30.3731 32.4626 29.5341 32.1244 28.8629 31.6172C28.8629 31.9553 28.6951 32.2935 28.6951 32.6316Z" fill="white"/>
<path d="M34.3984 24.6855C34.5662 25.0236 34.734 25.1927 34.9018 25.5309C35.0696 25.869 35.4052 26.3763 35.573 26.8835C35.573 27.0526 35.7408 27.0526 35.7408 27.2216C36.412 26.0381 36.7476 24.8546 37.0831 23.502C36.5798 23.8401 35.9086 24.0092 35.2374 24.0092C35.0696 24.3473 34.9018 24.6855 34.3984 24.6855Z" fill="white"/>
<path d="M25.168 10.8212C25.168 10.9903 25.3358 10.9903 25.168 10.8212C25.5036 10.9903 25.5036 10.9903 25.6714 11.1594C25.6714 11.1594 25.6714 11.1594 25.8391 11.1594C25.8391 11.1594 26.0069 11.1594 26.0069 10.9903L28.0205 7.27062C28.0205 7.10155 28.0205 7.10155 28.0205 6.93247C28.0205 6.76339 27.8527 6.76339 27.8527 6.76339C27.6849 6.59432 27.5171 6.76339 27.3493 6.93247L25.168 10.8212Z" fill="white"/>
<path d="M26.8438 11.8354C26.8438 12.0045 26.8438 12.0045 26.8438 11.8354C27.0115 12.0045 27.1793 12.1736 27.1793 12.1736C27.1793 12.1736 27.1793 12.1736 27.3471 12.1736H27.5149L30.1996 8.96111C30.1996 8.79203 30.1996 8.79203 30.1996 8.62295C30.1996 8.45388 30.1996 8.45388 30.0318 8.2848C29.864 8.2848 29.8641 8.11572 29.6963 8.11572C29.5285 8.11572 29.5285 8.11572 29.3607 8.2848L26.8438 11.8354Z" fill="white"/>
<path d="M28.1914 13.1879C28.3592 13.357 28.527 13.5261 28.527 13.6951C28.527 13.6951 28.527 13.6951 28.6948 13.6951C28.6948 13.6951 28.6948 13.6951 28.8626 13.6951L32.0507 10.9899C32.0507 10.9899 32.2185 10.8208 32.2185 10.6518C32.2185 10.4827 32.2185 10.4827 32.2185 10.3136C32.2185 10.3136 32.0507 10.1445 31.8829 10.1445C31.7151 10.1445 31.7151 10.1445 31.5473 10.1445L28.1914 13.1879Z" fill="white"/>
<path d="M30.2001 16.4005C30.0323 16.5695 30.0323 16.5695 30.2001 16.4005C30.2001 16.7386 30.2001 16.7386 30.3679 16.9077C30.3679 16.9077 30.3679 17.0768 30.5357 17.0768C30.5357 17.0768 30.5357 17.0768 30.7034 17.0768L34.7305 15.8932C34.8983 15.8932 35.0661 15.5551 35.0661 15.386C35.0661 15.2169 34.7305 15.0479 34.5627 15.0479L30.2001 16.4005Z" fill="white"/>
<path d="M30.5391 18.4291C30.5391 18.7673 30.5391 18.7673 30.5391 18.9363V19.1054C30.5391 19.1054 30.5391 19.1054 30.7069 19.1054L34.9017 18.7673C35.0695 18.7673 35.0695 18.7673 35.2373 18.5982C35.2373 18.5982 35.4051 18.4291 35.4051 18.26C35.4051 18.091 35.2373 17.9219 35.0695 17.9219L30.5391 18.4291C30.7069 18.26 30.5391 18.26 30.5391 18.4291Z" fill="white"/>
<path d="M34.9017 20.6278L30.7069 20.1206H30.5391C30.5391 20.1206 30.5391 20.1206 30.5391 20.2897C30.5391 20.4588 30.5391 20.4588 30.5391 20.6278V20.7969C30.5391 20.7969 30.5391 20.7969 30.7069 20.7969L34.9017 21.3041C35.0695 21.3041 35.2373 21.1351 35.2373 20.966C35.2373 20.966 35.0695 20.7969 34.9017 20.6278Z" fill="white"/>
<path d="M34.3976 23.5019L30.3706 22.3184H30.2028C30.2028 22.3184 30.2028 22.3184 30.035 22.4874C30.035 22.6565 30.035 22.6565 29.8672 22.8256V22.9947C29.8672 22.9947 29.8672 22.9947 30.035 23.1637L33.8943 24.3473C33.8943 24.3473 33.8943 24.3473 34.062 24.3473C34.2298 24.3473 34.3976 24.3473 34.3976 24.1782C34.3976 24.0091 34.3976 24.0091 34.3976 23.84C34.5654 23.5019 34.5654 23.5019 34.3976 23.5019Z" fill="white"/>
<path d="M33.3903 25.8686L29.8667 24.0088H29.6989C29.6989 24.0088 29.5311 24.0088 29.5311 24.1779V24.3469C29.5311 24.516 29.3633 24.516 29.3633 24.6851V24.8542C29.3633 24.8542 29.3633 25.0232 29.5311 25.0232L33.2226 27.0522H33.3903C33.3903 27.0522 33.3903 27.0522 33.5581 27.0522C33.7259 27.0522 33.7259 26.8831 33.7259 26.8831C33.7259 26.714 33.7259 26.714 33.7259 26.5449C33.5581 26.0377 33.5581 26.0377 33.3903 25.8686Z" fill="white"/>
<path d="M32.0509 28.2363L28.8628 25.7002H28.695H28.5272C28.5272 25.8693 28.3594 25.8693 28.3594 26.0383V26.2074V26.3765L31.5475 29.0817L31.7153 29.2508C31.8831 29.2508 31.8831 29.2508 32.0509 29.0817C32.2186 28.7436 32.2186 28.4054 32.0509 28.2363Z" fill="white"/>
<path d="M27.5149 27.0527C27.3471 27.0527 27.3471 27.0527 27.1793 27.0527C27.0115 27.2218 27.0115 27.2218 26.8438 27.2218C26.8438 27.2218 26.8438 27.2218 26.8438 27.3909V27.56L29.3607 30.7724L29.5285 30.9415C29.6963 30.9415 29.6963 30.9415 29.6963 30.7724C29.6963 30.7724 29.864 30.6033 29.864 30.4343C29.864 30.2652 29.864 30.2652 29.864 30.0961L27.5149 27.0527Z" fill="white"/>
<path d="M25.8391 28.2362C25.6714 28.0671 25.6714 28.0671 25.6714 28.2362L25.5036 28.4053H25.3358C25.3358 28.4053 25.3358 28.4053 25.168 28.5743V28.7434L27.0137 32.4631C27.0137 32.6322 27.1815 32.6322 27.1815 32.6322C27.1815 32.6322 27.1815 32.6322 27.3493 32.6322H27.5171C27.6849 32.4631 27.8527 32.294 27.6849 32.1249L25.8391 28.2362Z" fill="white"/>
<path d="M24.1634 29.0812C23.9956 28.9121 23.9956 28.9121 23.9956 28.9121C23.8278 28.9121 23.8278 28.9121 23.66 29.0812C23.66 29.0812 23.4922 29.0812 23.4922 29.2503V29.4193L24.6667 33.3081C24.6667 33.4772 24.8345 33.4772 24.8345 33.4772H25.0023C25.0023 33.4772 25.0023 33.4772 25.1701 33.4772C25.3379 33.4772 25.5057 33.139 25.5057 32.9699L24.1634 29.0812Z" fill="white"/>
<path d="M22.1477 29.4194C21.9799 29.4194 21.8122 29.4194 21.6444 29.4194H21.4766V29.5885L21.8122 33.6463C21.8122 33.8154 21.8122 33.8154 21.9799 33.9845L22.1477 34.1536C22.3155 34.1536 22.4833 33.9845 22.4833 33.8154L22.1477 29.4194Z" fill="white"/>
<path d="M20.1357 29.4194C19.9679 29.4194 19.8001 29.4194 19.8001 29.4194H19.6323C19.6323 29.4194 19.6323 29.4194 19.6323 29.5885L19.1289 33.6463C19.1289 33.8154 19.1289 33.8154 19.1289 33.9845C19.1289 33.9845 19.2967 34.1536 19.4645 34.1536C19.6323 34.1536 19.8001 33.9845 19.8001 33.8154L20.3035 29.7576C20.3035 29.5885 20.3035 29.4194 20.1357 29.4194Z" fill="white"/>
<path d="M18.2871 29.0812C18.1193 29.0812 18.1193 29.0812 17.9516 28.9121H17.7838C17.7838 28.9121 17.7838 28.9121 17.616 29.0812L16.4414 32.9699C16.4414 33.139 16.4414 33.139 16.4414 33.3081C16.4414 33.4772 16.6092 33.4772 16.6092 33.4772C16.6092 33.4772 16.6092 33.4772 16.777 33.4772H16.9448C17.1126 33.4772 17.1126 33.3081 17.1126 33.3081L18.2871 29.4193C18.2871 29.2503 18.2871 29.2503 18.2871 29.0812Z" fill="white"/>
<path d="M16.6142 28.405C16.4464 28.236 16.2786 28.236 16.1108 28.0669H15.943C15.943 28.0669 15.7753 28.0669 15.7753 28.236L13.7617 31.7866C13.7617 31.9557 13.7617 31.9557 13.7617 32.1247C13.7617 32.2938 13.9295 32.2938 13.9295 32.2938H14.0973C14.0973 32.2938 14.0973 32.2938 14.2651 32.2938C14.4329 32.2938 14.4329 32.1247 14.4329 32.1247L16.6142 28.405C16.6142 28.5741 16.6142 28.5741 16.6142 28.405Z" fill="white"/>
<path d="M14.9306 27.3909C14.7628 27.2218 14.7628 27.0527 14.595 27.0527H14.4273H14.2595L11.7425 30.2652C11.7425 30.2652 11.5747 30.4343 11.7425 30.6033C11.5747 30.6033 11.7425 30.7724 11.7425 30.7724L11.9103 30.9415C12.0781 30.9415 12.0781 30.9415 12.2459 30.7724L14.9306 27.3909Z" fill="white"/>
<path d="M13.5935 26.038C13.4257 25.8689 13.4257 25.8689 13.2579 25.6998V25.5308C13.2579 25.5308 13.2579 25.5308 13.0901 25.5308C12.9223 25.5308 12.9223 25.5308 12.9223 25.5308L9.7342 28.0669C9.7342 28.0669 9.56641 28.236 9.56641 28.4051C9.56641 28.5741 9.56641 28.5741 9.56641 28.7432C9.56641 28.7432 9.7342 28.9123 9.902 28.9123C10.0698 28.9123 10.0698 28.9123 10.0698 28.7432L13.5935 26.038Z" fill="white"/>
<path d="M12.4175 24.5162C12.4175 24.3471 12.4175 24.3471 12.4175 24.5162C12.4175 24.3471 12.2497 24.178 12.2497 24.178V24.0089C12.2497 24.0089 12.2497 24.0089 12.0819 23.8398H11.9141L8.39045 25.8688C8.22266 25.8688 8.22266 26.0378 8.22266 26.0378C8.22266 26.2069 8.22266 26.2069 8.22266 26.376C8.22266 26.5451 8.39045 26.5451 8.39045 26.5451C8.39045 26.5451 8.39045 26.5451 8.55824 26.5451H8.72604L12.4175 24.5162Z" fill="white"/>
<path d="M11.7451 22.8257C11.7451 22.6566 11.7451 22.6566 11.7451 22.8257C11.7451 22.6566 11.7451 22.4876 11.7451 22.4876V22.3185C11.7451 22.3185 11.7451 22.1494 11.5773 22.1494H11.4095L7.38246 23.333C7.21467 23.333 7.04688 23.6711 7.04688 23.8402C7.04688 24.0093 7.21467 24.0093 7.21467 24.0093H7.38246C7.38246 24.0093 7.38246 24.0093 7.55026 24.0093L11.7451 22.8257C11.5773 22.8257 11.5773 22.8257 11.7451 22.8257Z" fill="white"/>
<path d="M11.2412 20.7969C11.2412 20.6278 11.2412 20.4588 11.2412 20.4588V20.2897V20.1206H11.0734L6.87856 20.6278H6.71076C6.71076 20.6278 6.54297 20.7969 6.54297 20.966C6.54297 21.1351 6.71076 21.3041 6.87856 21.3041L11.2412 20.7969C11.2412 20.966 11.2412 20.966 11.2412 20.7969Z" fill="white"/>
<path d="M6.87856 18.4294L11.0734 18.9366C11.0734 18.9366 11.0734 18.9366 11.2412 18.9366C11.2412 18.9366 11.2412 18.9366 11.2412 18.7675C11.2412 18.5984 11.2412 18.5984 11.2412 18.4294V18.2603V18.0912C11.2412 18.0912 11.2412 18.0912 11.0734 18.0912L6.87856 17.584C6.71076 17.584 6.54297 17.7531 6.54297 17.9221C6.54297 18.2603 6.71076 18.4294 6.87856 18.4294Z" fill="white"/>
<path d="M7.38264 15.7242L11.4097 16.9077C11.4097 16.9077 11.4097 16.9077 11.5775 16.9077C11.5775 16.9077 11.5775 16.9077 11.7453 16.7386C11.7453 16.7386 11.7453 16.7386 11.7453 16.5695V16.4005V16.2314C11.7453 16.2314 11.7453 16.2314 11.5775 16.0623L7.71823 15.0479C7.55043 15.0479 7.38264 15.0479 7.21484 15.2169C7.21484 15.386 7.21484 15.386 7.21484 15.5551C7.21484 15.7242 7.38264 15.7242 7.38264 15.7242Z" fill="white"/>
<path d="M8.39045 13.1885L12.0819 15.2174C12.0819 15.2174 12.0819 15.2174 12.2497 15.2174C12.2497 15.2174 12.4175 15.2174 12.4175 15.0484C12.4175 14.8793 12.5853 14.8793 12.5853 14.7102V14.5411C12.5853 14.5411 12.5853 14.372 12.4175 14.372L8.72604 12.5122C8.55824 12.5122 8.39045 12.5122 8.22266 12.6813C8.22266 12.8504 8.22266 12.8504 8.22266 13.0194C8.22266 13.1885 8.39045 13.1885 8.39045 13.1885Z" fill="white"/>
<path d="M13.0874 13.5263C13.0874 13.6954 13.2552 13.6954 13.0874 13.5263C13.2552 13.6954 13.2552 13.6954 13.0874 13.5263C13.2552 13.5263 13.2552 13.5263 13.423 13.5263C13.423 13.3572 13.5908 13.3572 13.5908 13.3572V13.1881V13.019L10.4027 10.3138C10.2349 10.1447 10.0671 10.1447 9.89928 10.3138C9.73149 10.4829 9.73149 10.821 9.89928 10.821L13.0874 13.5263Z" fill="white"/>
<path d="M14.4308 12.1736C14.5986 12.1736 14.5986 12.1736 14.4308 12.1736C14.5986 12.1736 14.5986 12.1736 14.7664 12.1736L14.9342 12.0045H15.102C15.102 12.0045 15.102 12.0045 15.102 11.8354V11.6663L12.4173 8.2848C12.4173 8.2848 12.2495 8.11572 12.0817 8.11572C11.9139 8.11572 11.9139 8.11572 11.9139 8.2848C11.7461 8.45388 11.7461 8.62295 11.7461 8.79203L14.4308 12.1736Z" fill="white"/>
<path d="M16.1065 10.9901C16.1065 11.1592 16.1065 11.1592 16.1065 10.9901C16.2743 11.1592 16.2743 11.1592 16.2743 10.9901C16.2743 10.9901 16.4421 10.9901 16.4421 10.821H16.6099C16.6099 10.821 16.6099 10.821 16.7777 10.6519V10.4829L14.7641 6.93226C14.7641 6.76318 14.5963 6.76318 14.5963 6.76318C14.4285 6.76318 14.4285 6.76318 14.2607 6.76318C14.0929 6.76318 13.9251 7.10134 14.0929 7.27041L16.1065 10.9901Z" fill="white"/>
<path d="M17.2806 5.9181C17.2806 5.74902 17.1128 5.74902 17.1128 5.74902C16.945 5.74902 16.945 5.74902 16.7772 5.74902C16.6094 5.74902 16.6094 5.9181 16.6094 5.9181C16.6094 6.08718 16.6094 6.08718 16.6094 6.25625L17.7839 10.3141C17.7839 10.3141 17.7839 10.4832 17.9517 10.4832C17.9517 10.4832 17.9517 10.4832 18.1195 10.4832C18.2873 10.4832 18.2873 10.4832 18.4551 10.4832H18.6229C18.6229 10.4832 18.7907 10.4832 18.7907 10.3141V10.145L17.2806 5.9181Z" fill="white"/>
<path d="M19.8004 5.24183C19.8004 5.24183 19.6326 5.24183 19.4649 5.07275C19.2971 5.07275 19.2971 5.07275 19.1293 5.24183C19.1293 5.24183 18.9615 5.41091 19.1293 5.57998L19.4649 9.8069V9.97597C19.4649 9.97597 19.4649 9.97597 19.6326 9.97597C19.8004 9.97597 19.8004 9.97597 19.9682 9.97597H20.136H20.3038V9.8069L19.9682 5.41091C19.9682 5.41091 19.9682 5.24183 19.8004 5.24183Z" fill="white"/>
<path d="M22.4833 5.2417C22.3155 5.2417 22.3155 5.2417 22.1477 5.41078C22.1477 5.41078 21.9799 5.57985 21.9799 5.74893L21.4766 9.97584V10.1449C21.4766 10.1449 21.4766 10.1449 21.6444 10.1449C21.8122 10.1449 21.9799 10.1449 21.9799 10.1449C21.9799 10.1449 21.9799 10.1449 22.1477 10.1449C22.1477 10.1449 22.1477 10.1449 22.1477 9.97584L22.6511 5.74893C22.6511 5.57985 22.6511 5.57985 22.6511 5.41078C22.6511 5.2417 22.4833 5.2417 22.4833 5.2417Z" fill="white"/>
<path d="M23.66 10.3141C23.8278 10.3141 23.8278 10.3141 23.9956 10.4832C23.9956 10.4832 23.9956 10.4832 24.1634 10.3141L25.5057 6.25625C25.5057 6.08718 25.5057 6.08718 25.5057 5.9181C25.5057 5.74902 25.3379 5.74902 25.3379 5.74902C25.1701 5.74902 25.1701 5.74902 25.0023 5.74902C24.8345 5.74902 24.8345 5.9181 24.8345 5.9181L23.4922 10.145C23.4922 10.145 23.4922 10.145 23.66 10.3141C23.4922 10.3141 23.4922 10.3141 23.66 10.3141Z" fill="white"/>
<path d="M29.3633 14.7101C29.3633 14.8791 29.3633 14.8791 29.3633 14.7101C29.3633 14.8791 29.5311 15.0482 29.5311 15.0482V15.2173C29.5311 15.2173 29.5311 15.2173 29.6989 15.3864C29.6989 15.3864 29.6989 15.3864 29.8667 15.3864L33.5581 13.3575C33.7259 13.3575 33.7259 13.1884 33.7259 13.1884C33.7259 13.0193 33.7259 13.0193 33.7259 12.8502C33.7259 12.6812 33.5581 12.6812 33.5581 12.6812C33.3903 12.6812 33.3903 12.6812 33.2226 12.6812L29.3633 14.7101Z" fill="white"/>
<path d="M17.2821 17.5842L17.9533 17.7533C18.1211 17.7533 18.1211 17.7533 18.2889 17.5842C18.6245 17.077 19.1278 16.7388 19.799 16.5698C19.9668 16.5698 19.9668 16.4007 19.9668 16.2316V15.7244C19.9668 15.5553 19.799 15.3862 19.6312 15.3862C18.6245 15.7244 17.7855 16.4007 17.2821 17.077C17.1143 17.2461 17.1143 17.5842 17.2821 17.5842Z" fill="white"/>
<path d="M22.1481 15.3862C21.9803 15.3862 21.8125 15.5553 21.8125 15.7244V16.4007C21.8125 16.5698 21.8125 16.5698 21.9803 16.7388C22.4837 16.9079 22.9871 17.2461 23.4904 17.7533C23.4904 17.9224 23.6582 17.9224 23.826 17.9224L24.4972 17.7533C24.665 17.7533 24.8328 17.4151 24.665 17.2461C23.9938 16.2316 23.1549 15.7244 22.1481 15.3862Z" fill="white"/>
<path d="M22.4842 23.502L22.1486 22.9948C22.1486 22.8257 21.9808 22.8257 21.813 22.8257C21.3096 22.9948 20.6384 22.9948 19.9672 22.8257C19.7994 22.8257 19.7994 22.8257 19.6317 22.9948L19.2961 23.502C19.1283 23.6711 19.2961 23.8401 19.4639 24.0092C19.9672 24.1783 20.4706 24.3474 20.974 24.3474C21.4774 24.3474 21.9808 24.1783 22.4842 24.0092C22.4842 23.8401 22.4842 23.6711 22.4842 23.502Z" fill="white"/>
<path d="M25.0025 19.2749L24.3313 19.444C24.1635 19.444 24.1635 19.6131 24.1635 19.6131C24.1635 19.7821 24.1635 20.1203 24.1635 20.2894C23.9957 20.6275 23.9957 20.9657 23.6602 21.3038C23.6602 21.4729 23.6602 21.4729 23.6602 21.642L23.9957 22.1492C24.1635 22.3183 24.3313 22.3183 24.4991 22.1492C25.0025 21.4729 25.3381 20.7966 25.3381 19.9512C25.3381 19.7821 25.3381 19.444 25.3381 19.2749C25.3381 19.2749 25.1703 19.2749 25.0025 19.2749Z" fill="white"/>
<path d="M17.7838 22.3183L18.1194 21.8111C18.1194 21.642 18.1194 21.642 18.1194 21.4729C17.9516 21.1347 17.7838 20.7966 17.616 20.4584C17.616 20.2894 17.616 19.9512 17.616 19.7821C17.616 19.6131 17.616 19.6131 17.4482 19.6131L16.777 19.2749C16.6092 19.2749 16.4414 19.2749 16.4414 19.444C16.4414 19.6131 16.4414 19.7821 16.4414 20.1203C16.6092 20.9657 16.777 21.8111 17.2804 22.3183C17.4482 22.4874 17.616 22.4874 17.7838 22.3183Z" fill="white"/>
<path d="M28.354 14.7101C28.1862 14.3719 27.8506 14.2029 27.515 14.2029C27.1795 14.2029 26.8439 14.3719 26.5083 14.7101L26.1727 15.2173C25.8371 15.5555 25.8371 16.0627 26.1727 16.5699C26.3405 16.9081 26.5083 17.2462 26.6761 17.5844L23.1524 18.7679C22.8168 18.0916 22.1456 17.5844 21.3066 17.4153V13.3575C21.81 13.3575 22.1456 13.5266 22.649 13.5266C22.8168 13.5266 22.8168 13.5266 22.9846 13.5266C23.3202 13.5266 23.6558 13.3575 23.8236 13.0193L24.1592 12.5121C24.3269 12.174 24.4947 11.8358 24.3269 11.4976C24.1592 11.1595 23.9914 10.8213 23.6558 10.8213C21.9778 10.3141 20.1321 10.3141 18.2863 10.8213C17.9508 10.9904 17.6152 11.1595 17.6152 11.4976C17.4474 11.8358 17.6152 12.174 17.783 12.5121L18.1186 13.0193C18.4541 13.3575 18.7897 13.5266 19.2931 13.3575C19.6287 13.1884 20.1321 13.1884 20.4677 13.1884V16.9081C19.6287 17.0772 18.9575 17.5844 18.6219 18.2607L15.0983 17.2462C15.266 16.9081 15.4338 16.5699 15.6016 16.2318C15.9372 15.8936 15.7694 15.3864 15.6016 14.8792L15.0983 14.3719C14.9305 14.0338 14.7627 13.8647 14.4271 13.8647C14.0915 13.8647 13.7559 14.0338 13.5881 14.3719C13.2525 14.7101 12.9169 15.3864 12.5813 16.2318C12.078 17.2462 11.9102 18.4298 11.9102 19.4442C11.9102 19.7824 12.078 20.1206 12.4135 20.2896C12.5813 20.4587 12.7491 20.6278 12.9169 20.6278C13.0847 20.6278 13.0847 20.6278 13.2525 20.6278L13.7559 20.4587C14.2593 20.2896 14.5949 19.9515 14.5949 19.4442C14.5949 19.1061 14.5949 18.5989 14.7627 18.2607L18.2863 19.4442C18.2863 19.6133 18.2863 19.6133 18.2863 19.7824C18.2863 20.4587 18.6219 21.135 18.9575 21.6422L16.7762 24.5165C16.4406 24.1784 16.2728 24.0093 15.9372 23.6712C15.6016 23.333 15.0983 23.1639 14.7627 23.333L14.2593 23.5021C13.9237 23.6712 13.5881 23.8402 13.5881 24.1784C13.4203 24.5165 13.5881 24.8547 13.7559 25.1928C14.2593 25.8692 14.9305 26.5455 15.6016 27.0527C16.2728 27.5599 17.1118 28.0671 17.783 28.2362C17.9508 28.2362 17.9508 28.2362 18.1186 28.2362C18.2863 28.2362 18.6219 28.2362 18.7897 28.0671C19.1253 27.8981 19.2931 27.5599 19.2931 27.2218V26.7145C19.2931 26.2073 18.9575 25.8692 18.6219 25.7001C18.2863 25.531 17.9508 25.3619 17.6152 25.1928L19.7965 22.1495C20.1321 22.3185 20.4677 22.4876 20.9711 22.4876C21.3066 22.4876 21.81 22.3185 22.1456 22.1495L24.3269 25.1928C23.9914 25.3619 23.488 25.7001 23.1524 25.7001C22.649 25.8692 22.4812 26.2073 22.4812 26.7145V27.2218C22.4812 27.5599 22.649 27.8981 22.9846 28.0671C23.1524 28.2362 23.488 28.2362 23.6558 28.2362C23.8236 28.2362 23.8236 28.2362 23.9914 28.2362C25.1659 27.8981 26.1727 27.2218 27.1795 26.3764C27.515 26.0382 28.1862 25.1928 28.354 25.0238C28.5218 24.8547 28.5218 24.5165 28.5218 24.1784C28.5218 23.8402 28.1862 23.6712 28.0184 23.5021L27.3472 23.333C26.8439 23.1639 26.3405 23.333 26.0049 23.6712C25.8371 24.0093 25.5015 24.1784 25.3337 24.3475L23.1524 21.3041C23.6558 20.7969 23.8236 20.1206 23.8236 19.4442C23.8236 19.2752 23.8236 19.2752 23.8236 19.1061L27.3472 17.9226C27.515 18.4298 27.515 18.937 27.515 19.4442C27.515 19.9515 27.8506 20.2896 28.1862 20.4587L28.6896 20.6278C28.8574 20.6278 28.8574 20.6278 29.0252 20.6278C29.193 20.6278 29.5286 20.6278 29.6964 20.4587C30.032 20.2896 30.1998 19.9515 30.1998 19.6133C30.032 17.9226 29.3608 16.2318 28.354 14.7101Z" fill="white"/>
</svg>
