<svg width="139" height="185" viewBox="0 0 139 185" fill="none" xmlns="http://www.w3.org/2000/svg">
<mask id="mask0_638_6996" style="mask-type:luminance" maskUnits="userSpaceOnUse" x="0" y="0" width="139" height="185">
<path d="M138.423 0.265137H0V184.213H138.423V0.265137Z" fill="white"/>
</mask>
<g mask="url(#mask0_638_6996)">
<path d="M31.517 23.8122C31.517 28.7082 27.8967 32.9047 23.2116 32.9047C18.5265 32.9047 14.9062 28.9413 14.9062 23.8122C14.9062 18.9163 18.5265 14.7197 23.2116 14.7197C27.8967 14.7197 31.517 18.6831 31.517 23.8122Z" fill="#4B446E"/>
</g>
<mask id="mask1_638_6996" style="mask-type:luminance" maskUnits="userSpaceOnUse" x="0" y="0" width="139" height="185">
<path d="M138.423 0.265137H0V184.213H138.423V0.265137Z" fill="white"/>
</mask>
<g mask="url(#mask1_638_6996)">
<path d="M52.6018 43.8624H62.1849V3.76221H45.5742V12.3884H52.6018V43.8624Z" fill="#4B446E"/>
</g>
<mask id="mask2_638_6996" style="mask-type:luminance" maskUnits="userSpaceOnUse" x="0" y="0" width="139" height="185">
<path d="M138.423 0.265137H0V184.213H138.423V0.265137Z" fill="white"/>
</mask>
<g mask="url(#mask2_638_6996)">
<path d="M22.1444 93.7548C28.3202 93.7548 33.4311 90.9571 36.6255 86.0611L34.9218 84.8954C32.1534 89.3251 27.4683 91.8896 22.1444 91.8896C12.9872 91.8896 6.17255 84.4291 6.17255 74.171C6.17255 64.1459 12.9872 56.4523 22.1444 56.4523C27.6813 56.4523 31.9404 59.0168 34.4959 62.9802L36.1996 61.5814C33.2182 56.9185 28.3202 54.354 22.1444 54.354C12.1354 54.354 4.04297 62.2808 4.04297 74.171C4.04297 86.0611 12.1354 93.7548 22.1444 93.7548Z" fill="#4B446E"/>
</g>
<mask id="mask3_638_6996" style="mask-type:luminance" maskUnits="userSpaceOnUse" x="0" y="0" width="139" height="185">
<path d="M138.423 0.265137H0V184.213H138.423V0.265137Z" fill="white"/>
</mask>
<g mask="url(#mask3_638_6996)">
<path d="M65.8036 91.19H46.6374V79.2998H63.0351V77.4347H46.6374V56.6852H64.9518V54.5869H44.5078V93.2883H65.8036V91.19Z" fill="#4B446E"/>
</g>
<mask id="mask4_638_6996" style="mask-type:luminance" maskUnits="userSpaceOnUse" x="0" y="0" width="139" height="185">
<path d="M138.423 0.265137H0V184.213H138.423V0.265137Z" fill="white"/>
</mask>
<g mask="url(#mask4_638_6996)">
<path d="M76.2369 82.7969H81.135C82.8386 82.7969 84.3293 82.5638 85.6071 82.3307L93.0606 93.2883H95.6161L87.7366 81.6312C92.8476 79.2998 95.4031 74.4039 95.4031 68.8085C95.4031 60.8817 90.931 54.5869 81.3479 54.5869H74.3203V93.2883H76.4499V82.7969H76.2369ZM76.2369 56.6852H80.922C89.8662 56.6852 93.0606 62.2806 93.0606 68.8085C93.0606 75.1033 89.8662 80.6987 80.922 80.6987H76.2369V56.6852Z" fill="#4B446E"/>
</g>
<mask id="mask5_638_6996" style="mask-type:luminance" maskUnits="userSpaceOnUse" x="0" y="0" width="139" height="185">
<path d="M138.423 0.265137H0V184.213H138.423V0.265137Z" fill="white"/>
</mask>
<g mask="url(#mask5_638_6996)">
<path d="M120.535 54.1206C110.526 54.1206 102.434 62.0474 102.434 73.9376C102.434 85.8277 110.526 93.7545 120.535 93.7545C130.544 93.7545 138.636 85.8277 138.636 73.9376C138.423 62.0474 130.331 54.1206 120.535 54.1206ZM120.535 91.6563C111.378 91.6563 104.563 84.1958 104.563 73.9376C104.563 63.6794 111.378 56.2189 120.535 56.2189C129.692 56.2189 136.507 63.6794 136.507 73.9376C136.507 84.1958 129.479 91.6563 120.535 91.6563Z" fill="#4B446E"/>
</g>
<mask id="mask6_638_6996" style="mask-type:luminance" maskUnits="userSpaceOnUse" x="0" y="0" width="139" height="185">
<path d="M138.423 0.265137H0V184.213H138.423V0.265137Z" fill="white"/>
</mask>
<g mask="url(#mask6_638_6996)">
<path d="M5.96094 104.013V129.891C5.96094 138.518 11.0719 143.18 17.8866 143.18C24.7012 143.18 29.8122 138.518 29.8122 129.891V104.013H27.6826V129.658C27.6826 137.119 23.6364 141.082 17.8866 141.082C12.1367 141.082 8.09052 137.119 8.09052 129.658V104.013H5.96094Z" fill="#4B446E"/>
</g>
<mask id="mask7_638_6996" style="mask-type:luminance" maskUnits="userSpaceOnUse" x="0" y="0" width="139" height="185">
<path d="M138.423 0.265137H0V184.213H138.423V0.265137Z" fill="white"/>
</mask>
<g mask="url(#mask7_638_6996)">
<path d="M42.1666 111.473C42.1666 110.307 41.9537 108.675 41.9537 108.675C41.9537 108.675 42.8055 110.307 43.6573 111.24L66.2308 143.413H66.8697V104.013H64.9531V135.254C64.9531 136.419 65.1661 138.051 65.1661 138.051C65.1661 138.051 64.3142 136.419 63.4624 135.487L40.8889 103.546H40.25V142.714H42.1666V111.473Z" fill="#4B446E"/>
</g>
<mask id="mask8_638_6996" style="mask-type:luminance" maskUnits="userSpaceOnUse" x="0" y="0" width="139" height="185">
<path d="M138.423 0.265137H0V184.213H138.423V0.265137Z" fill="white"/>
</mask>
<g mask="url(#mask8_638_6996)">
<path d="M75.1719 123.363C75.1719 135.254 83.2643 143.18 93.2733 143.18C103.282 143.18 111.375 135.254 111.375 123.363C111.375 111.473 103.282 103.546 93.2733 103.546C83.2643 103.546 75.1719 111.706 75.1719 123.363ZM93.2733 105.645C102.43 105.645 109.245 113.105 109.245 123.363C109.245 133.388 102.43 141.082 93.2733 141.082C84.1161 141.082 77.3015 133.622 77.3015 123.363C77.5144 113.338 84.1161 105.645 93.2733 105.645Z" fill="#4B446E"/>
</g>
<mask id="mask9_638_6996" style="mask-type:luminance" maskUnits="userSpaceOnUse" x="0" y="0" width="139" height="185">
<path d="M138.423 0.265137H0V184.213H138.423V0.265137Z" fill="white"/>
</mask>
<g mask="url(#mask9_638_6996)">
<path d="M125.861 108.442L115.426 140.15H116.704L127.351 108.442H125.861Z" fill="#4B446E"/>
</g>
<mask id="mask10_638_6996" style="mask-type:luminance" maskUnits="userSpaceOnUse" x="0" y="0" width="139" height="185">
<path d="M138.423 0.265137H0V184.213H138.423V0.265137Z" fill="white"/>
</mask>
<g mask="url(#mask10_638_6996)">
<path d="M4.46875 184.213H128.836V152.739H4.46875V184.213ZM120.744 175.82L120.105 174.188H114.994L114.355 175.82H111.799L117.336 162.064H117.549L123.299 175.82H120.744ZM117.762 156.935H120.531L118.614 160.666H116.697L117.762 156.935ZM104.133 162.064L106.263 166.494C106.688 167.427 107.327 169.059 107.327 169.059C107.327 169.059 107.753 167.427 108.392 166.494L110.522 162.064H113.077L108.605 171.157V175.82H106.05V171.39L101.365 162.064H104.133ZM89.013 162.064H91.5685V170.691C91.5685 172.789 92.4203 173.488 94.124 173.488C95.8276 173.488 96.6795 172.789 96.6795 170.691V162.064H99.235V170.924C99.235 174.421 97.1054 176.053 94.124 176.053C91.1426 176.053 89.013 174.421 89.013 170.924V162.064ZM81.5595 161.831C83.902 161.831 85.3927 162.764 86.6704 164.629L84.7538 166.261C84.115 165.095 83.0502 164.396 81.7724 164.396C79.4299 164.396 77.9392 166.261 77.9392 168.825C77.9392 171.39 79.4299 173.255 81.7724 173.255C83.4761 173.255 84.3279 172.323 84.9668 171.157L86.8834 172.556C85.8186 174.421 84.115 175.587 81.5595 175.587C77.9392 175.587 75.1707 172.556 75.1707 168.592C75.1707 164.862 77.9392 161.831 81.5595 161.831ZM62.3933 162.064H64.9488V170.691C64.9488 172.789 65.8006 173.488 67.5042 173.488C69.2079 173.488 70.0597 172.789 70.0597 170.691V162.064H72.6152V170.924C72.6152 174.421 70.4857 176.053 67.5042 176.053C64.5228 176.053 62.3933 174.421 62.3933 170.924V162.064ZM51.1065 162.064H54.5138C57.9212 162.064 60.0507 163.93 60.0507 167.193C60.0507 169.292 59.1989 170.691 57.7082 171.39L60.2637 175.587H57.2823L55.1527 172.089C54.9397 172.089 54.7268 172.089 54.5138 172.089H53.662V175.587H51.1065V162.064ZM37.9031 162.064H40.4586V170.691C40.4586 172.789 41.3104 173.488 43.0141 173.488C44.7178 173.488 45.5696 172.789 45.5696 170.691V162.064H48.1251V170.924C48.1251 174.421 45.9955 176.053 43.0141 176.053C40.0327 176.053 37.9031 174.421 37.9031 170.924V162.064ZM26.4034 162.064H31.3014C33.644 162.064 34.9217 163.696 34.9217 165.562C34.9217 166.727 34.2828 167.66 33.218 168.126C34.9217 168.592 35.7735 169.758 35.7735 171.623C35.7735 173.955 34.2828 175.82 31.5144 175.82H26.4034V162.064ZM10.8575 161.831L17.2462 169.292L23.422 161.831V175.82H20.8665V170.691C20.8665 169.758 20.8665 168.359 20.8665 168.359C20.8665 168.359 20.0147 169.525 19.5888 170.224L17.0333 173.255L14.4778 170.224C13.8389 169.292 13.2 168.126 13.2 168.126C13.2 168.126 13.2 169.525 13.2 170.457V175.587H10.8575V161.831Z" fill="#4B446E"/>
</g>
<mask id="mask11_638_6996" style="mask-type:luminance" maskUnits="userSpaceOnUse" x="0" y="0" width="139" height="185">
<path d="M138.423 0.265137H0V184.213H138.423V0.265137Z" fill="white"/>
</mask>
<g mask="url(#mask11_638_6996)">
<path d="M33.222 171.391C33.222 170.225 32.5831 169.525 31.3054 169.525H29.1758V173.256H31.5183C32.3701 173.256 33.222 172.556 33.222 171.391Z" fill="#4B446E"/>
</g>
<mask id="mask12_638_6996" style="mask-type:luminance" maskUnits="userSpaceOnUse" x="0" y="0" width="139" height="185">
<path d="M138.423 0.265137H0V184.213H138.423V0.265137Z" fill="white"/>
</mask>
<g mask="url(#mask12_638_6996)">
<path d="M57.4973 167.194C57.4973 165.329 56.4325 164.396 54.5159 164.396H53.6641V169.758H54.5159C56.4325 169.758 57.4973 169.059 57.4973 167.194Z" fill="#4B446E"/>
</g>
<mask id="mask13_638_6996" style="mask-type:luminance" maskUnits="userSpaceOnUse" x="0" y="0" width="139" height="185">
<path d="M138.423 0.265137H0V184.213H138.423V0.265137Z" fill="white"/>
</mask>
<g mask="url(#mask13_638_6996)">
<path d="M116.914 169.525L116.062 171.857H119.257L118.405 169.525C117.979 168.593 117.553 166.961 117.553 166.961C117.553 166.961 117.34 168.36 116.914 169.525Z" fill="#4B446E"/>
</g>
<mask id="mask14_638_6996" style="mask-type:luminance" maskUnits="userSpaceOnUse" x="0" y="0" width="139" height="185">
<path d="M138.423 0.265137H0V184.213H138.423V0.265137Z" fill="white"/>
</mask>
<g mask="url(#mask14_638_6996)">
<path d="M32.3683 165.795C32.3683 165.095 31.9423 164.396 31.0905 164.396H28.9609V166.961H30.8776C31.9423 166.961 32.3683 166.494 32.3683 165.795Z" fill="#4B446E"/>
</g>
<mask id="mask15_638_6996" style="mask-type:luminance" maskUnits="userSpaceOnUse" x="0" y="0" width="139" height="185">
<path d="M138.423 0.265137H0V184.213H138.423V0.265137Z" fill="white"/>
</mask>
<g mask="url(#mask15_638_6996)">
<path d="M45.5716 23.1131C45.3587 22.6468 44.9328 22.4136 44.5069 22.1805L39.3959 19.616L38.97 19.3828C38.757 19.616 38.544 19.616 38.544 19.8491L36.2015 20.7817H35.9885L35.1367 21.0148H36.2015L38.757 20.7817C39.1829 20.7817 39.3959 20.7817 39.6088 21.0148C39.8218 21.2479 40.0347 21.4811 40.0347 21.9474C40.0347 22.6468 39.6088 23.3462 38.97 23.3462L36.4145 23.5793H36.2015H35.1367L36.2015 23.8125H36.4145L38.97 24.0456C39.1829 24.0456 39.6088 24.2788 39.8218 24.5119C40.0347 24.745 40.0347 25.2113 40.0347 25.4445C40.0347 25.6776 39.8218 26.1439 39.6088 26.377C39.3959 26.6102 38.97 26.6102 38.757 26.6102L36.2015 26.377L35.1367 26.1439L35.9885 26.377H36.2015L38.757 27.3096C38.97 27.3096 39.1829 27.5427 39.3959 27.7759C40.8866 27.5427 42.3773 27.0765 43.655 26.1439C44.5069 25.6776 45.3587 24.9782 45.7846 24.0456C45.9976 23.8125 45.9976 23.5793 45.9976 23.3462C45.7846 23.5793 45.7846 23.3462 45.5716 23.1131Z" fill="#CFDB6C"/>
</g>
<mask id="mask16_638_6996" style="mask-type:luminance" maskUnits="userSpaceOnUse" x="0" y="0" width="139" height="185">
<path d="M138.423 0.265137H0V184.213H138.423V0.265137Z" fill="white"/>
</mask>
<g mask="url(#mask16_638_6996)">
<path d="M32.5842 13.7872L34.7138 11.9221C34.9267 11.6889 35.1397 11.6889 35.5656 11.6889C35.7786 11.6889 36.2045 11.9221 36.4174 12.1552C36.6304 12.3884 36.6304 12.8546 36.6304 13.0878C36.6304 13.3209 36.4174 13.7872 36.2045 14.0203L34.2878 15.8855V16.1186L33.436 16.818L34.2878 16.3517H34.5008L36.8433 14.9529C37.0563 14.7198 37.4822 14.7198 37.6952 14.9529C37.9081 14.9529 38.334 15.186 38.334 15.6523C38.547 15.8855 38.547 16.3517 38.334 16.5849C38.334 16.818 38.1211 17.2843 37.6952 17.2843L35.3526 18.6832L37.6952 17.9837H37.9081C39.1859 16.818 40.2507 15.4192 40.8895 13.7872C41.3155 12.8546 41.7414 11.9221 41.5284 10.7564L41.7414 9.59066C41.5284 9.35752 41.5284 9.35752 41.1025 9.35752C40.6766 9.12438 40.2507 9.35752 39.8248 9.35752L34.5008 10.2901C34.5008 10.5232 34.5008 10.9895 34.2878 11.2226L32.5842 13.3209V13.7872Z" fill="#CFDB6C"/>
</g>
<mask id="mask17_638_6996" style="mask-type:luminance" maskUnits="userSpaceOnUse" x="0" y="0" width="139" height="185">
<path d="M138.423 0.265137H0V184.213H138.423V0.265137Z" fill="white"/>
</mask>
<g mask="url(#mask17_638_6996)">
<path d="M23.4239 9.35754V10.5232L23.6369 9.35754V9.1244L23.8498 7.25928L23.4239 7.72556L23.2109 8.19184V9.35754H23.4239Z" fill="#CFDB6C"/>
</g>
<mask id="mask18_638_6996" style="mask-type:luminance" maskUnits="userSpaceOnUse" x="0" y="0" width="139" height="185">
<path d="M138.423 0.265137H0V184.213H138.423V0.265137Z" fill="white"/>
</mask>
<g mask="url(#mask18_638_6996)">
<path d="M32.1565 3.76179C31.9436 2.82922 31.7306 1.66352 30.8788 0.964098C30.6658 0.730957 30.4528 0.730957 30.2399 0.730957C30.0269 0.730957 29.814 0.730957 29.601 0.730957C29.1751 0.964098 28.7492 1.19724 28.5362 1.43038L25.1289 5.16063C25.3419 5.16063 25.5548 5.39377 25.7678 5.62691C25.9807 5.86005 25.9807 6.32633 25.9807 6.55947V9.5903V9.82344V10.756L26.1937 9.82344V9.5903L27.0455 7.02575C27.0455 6.79261 27.2585 6.32633 27.6844 6.32633C27.8974 6.09319 28.3233 6.09319 28.5362 6.32633C28.7492 6.32633 29.1751 6.55947 29.1751 7.02575C29.3881 7.2589 29.3881 7.72518 29.1751 7.95832L28.3233 10.5229L29.814 7.95832C29.814 7.72518 30.2399 7.49204 30.4528 7.2589C30.6658 7.2589 31.0917 7.2589 31.3047 7.2589C31.9436 7.49204 32.1565 8.4246 31.7306 8.89088L30.4528 11.4554V11.6886L30.0269 12.6211L30.6658 11.9217H30.8788L31.7306 10.9891L31.9436 10.2897V9.5903C32.5824 7.72518 32.5824 5.86005 32.1565 3.76179Z" fill="#CFDB6C"/>
</g>
<mask id="mask19_638_6996" style="mask-type:luminance" maskUnits="userSpaceOnUse" x="0" y="0" width="139" height="185">
<path d="M138.423 0.265137H0V184.213H138.423V0.265137Z" fill="white"/>
</mask>
<g mask="url(#mask19_638_6996)">
<path d="M19.5933 1.89712C18.9545 1.1977 18.1026 0.498277 17.2508 0.265137C16.8249 0.265137 16.6119 0.265137 16.6119 0.265137L15.9731 0.731418C15.7601 1.1977 15.7601 1.66398 15.5471 2.13026C15.5471 2.59654 15.3342 3.06282 15.3342 3.76225C15.3342 4.22853 15.1212 4.69481 15.1212 5.16109C15.1212 5.62737 14.9083 5.86051 14.9083 6.32679C14.9083 6.79308 14.9083 7.25936 14.6953 7.95878C14.6953 8.42506 14.6953 9.12448 14.6953 9.8239L16.186 11.689H16.399V11.4559L15.1212 9.12448C14.9083 8.6582 14.9083 8.42506 14.9083 7.95878C14.9083 7.72564 15.1212 7.25936 15.5471 7.25936C16.186 7.02622 16.8249 7.25936 17.0378 7.95878L18.3156 10.5233V10.7565L18.5286 11.2227V10.5233V10.2902L17.6767 7.4925C17.6767 7.25936 17.6767 6.79308 17.6767 6.55993C17.8897 6.32679 18.1026 6.09365 18.3156 5.86051C18.5286 5.86051 18.9545 5.86051 19.1674 5.86051C19.3804 6.09365 19.5933 6.32679 19.8063 6.55993L20.6581 9.59076V9.8239L20.8711 10.7565V9.8239V9.59076L20.6581 6.79308C20.6581 6.55993 20.6581 6.09365 20.8711 5.86051C21.084 5.62737 21.297 5.39423 21.7229 5.39423H21.9359C21.51 3.99539 20.6581 2.82968 19.5933 1.89712Z" fill="#CFDB6C"/>
</g>
<mask id="mask20_638_6996" style="mask-type:luminance" maskUnits="userSpaceOnUse" x="0" y="0" width="139" height="185">
<path d="M138.423 0.265137H0V184.213H138.423V0.265137Z" fill="white"/>
</mask>
<g mask="url(#mask20_638_6996)">
<path d="M5.74838 11.9222C5.96134 12.3885 6.1743 12.8548 6.38726 13.0879C6.60021 13.5542 6.81317 14.0205 6.81317 14.2536C7.02613 14.7199 7.23909 15.1862 7.45204 15.8856C7.87796 16.3519 8.09092 16.8182 8.51683 17.2844H8.94275L11.2853 18.217H11.4982L11.9242 18.4501L11.4982 17.9839H11.2853L8.94275 16.585C8.51683 16.3519 8.30388 15.6524 8.51683 14.953C8.72979 14.7199 8.94275 14.4867 9.15571 14.2536C9.36866 14.2536 9.79458 14.2536 10.0075 14.2536L12.3501 15.6524H12.563V15.4193L10.6464 13.7873C10.2205 13.5542 10.2205 13.0879 10.2205 12.8548C10.2205 12.6216 10.2205 12.1553 10.4335 11.9222C10.6464 11.6891 10.8594 11.4559 11.2853 11.4559C11.7112 11.4559 11.9242 11.4559 12.1371 11.6891L14.0537 13.5542H14.2667V13.321L12.563 11.2228C12.3501 10.7565 12.3501 10.5234 12.3501 10.2902C12.3501 9.82393 12.563 9.59079 12.563 9.59079C11.2853 8.65823 9.79458 8.19194 8.30388 7.9588C7.45204 7.72566 6.38726 7.72566 5.53542 8.19194C5.32247 8.19194 5.10951 8.42508 4.89655 8.65823C4.89655 8.89137 4.68359 9.12451 4.68359 9.35765C4.68359 9.82393 4.89655 10.2902 4.89655 10.7565C5.32247 10.9896 5.53542 11.4559 5.74838 11.9222Z" fill="#CFDB6C"/>
</g>
<mask id="mask21_638_6996" style="mask-type:luminance" maskUnits="userSpaceOnUse" x="0" y="0" width="139" height="185">
<path d="M138.423 0.265137H0V184.213H138.423V0.265137Z" fill="white"/>
</mask>
<g mask="url(#mask21_638_6996)">
<path d="M7.24056 28.009C7.45352 27.7759 7.66648 27.5427 7.87944 27.3096L10.4349 26.6102H10.6479L11.4997 26.377H10.4349L7.87944 26.6102C7.45352 26.6102 7.24056 26.6102 7.02761 26.377C6.81465 26.1439 6.60169 25.9108 6.60169 25.4445C6.60169 24.745 7.02761 24.0456 7.66648 24.0456L10.222 23.8125H10.4349H11.4997L10.4349 23.3462H10.222L7.66648 23.1131C7.45352 23.1131 7.02761 22.8799 6.81465 22.6468C6.60169 22.4136 6.60169 21.9474 6.60169 21.7142C6.60169 21.4811 6.81465 21.0148 7.02761 20.7817C7.24056 20.5485 7.66648 20.5485 7.87944 20.5485L10.4349 20.7817H10.6479H11.4997L10.6479 20.5485H10.4349L8.09239 19.8491C7.87944 19.8491 7.66648 19.616 7.45352 19.3828C5.5369 19.3828 3.83324 20.0822 2.34254 21.0148C1.4907 21.2479 0.638873 21.9474 0.212958 22.8799C0 23.1131 0 23.3462 0 23.5793C0 23.8125 0 24.0456 0.212958 24.2788C0.425915 24.745 0.851831 24.9782 1.27775 25.2113L6.38873 27.5427C6.60169 27.7759 7.02761 27.7759 7.24056 28.009Z" fill="#CFDB6C"/>
</g>
<mask id="mask22_638_6996" style="mask-type:luminance" maskUnits="userSpaceOnUse" x="0" y="0" width="139" height="185">
<path d="M138.423 0.265137H0V184.213H138.423V0.265137Z" fill="white"/>
</mask>
<g mask="url(#mask22_638_6996)">
<path d="M14.2669 33.8371L14.9058 32.9045L11.9244 35.4691C11.7114 35.7022 11.2855 35.7022 11.0725 35.7022C10.8596 35.7022 10.4337 35.4691 10.2207 35.2359C9.79478 34.7697 9.79478 33.8371 10.4337 33.3708L12.3503 31.5057V31.2726L13.2021 30.5731L10.0077 32.4383C9.36887 32.6714 8.73 32.4383 8.51704 31.972C8.30408 31.2726 8.51704 30.5731 8.94295 30.34L11.2855 28.9411H11.4984L11.9244 28.708L8.73 29.6406C8.30408 29.6406 8.09112 29.6406 7.87816 29.4074C6.38746 30.5731 5.32267 32.2051 4.6838 33.8371C4.25788 34.7697 3.83197 35.7022 4.04493 36.8679C4.04493 37.1011 4.04493 37.3342 4.25788 37.5674C4.47084 37.8005 4.47084 37.8005 4.89676 37.8005C5.32267 38.0336 5.74859 37.8005 6.1745 37.8005L11.4984 36.8679C11.7114 36.8679 11.9244 36.8679 12.1373 36.6348C12.1373 36.4017 12.1373 35.9354 12.3503 35.7022L14.2669 33.8371Z" fill="#CFDB6C"/>
</g>
<mask id="mask23_638_6996" style="mask-type:luminance" maskUnits="userSpaceOnUse" x="0" y="0" width="139" height="185">
<path d="M138.423 0.265137H0V184.213H138.423V0.265137Z" fill="white"/>
</mask>
<g mask="url(#mask23_638_6996)">
<path d="M20.8687 36.6354L20.6558 37.5679V37.8011L19.8039 40.3656C19.8039 40.5988 19.591 41.065 19.1651 41.065C18.9521 41.2982 18.5262 41.2982 18.3132 41.065C17.6744 40.8319 17.2484 40.1325 17.4614 39.4331L18.3132 36.6354L17.0355 39.4331C16.6096 39.8993 15.9707 40.1325 15.3318 39.8993C15.1189 39.6662 14.9059 39.4331 14.9059 39.1999C14.9059 38.9668 14.9059 38.5005 14.9059 38.2674L16.1837 35.7028V35.4697L16.6096 34.5371L15.9707 35.2365H15.7577L14.267 37.5679L13.8411 38.0342C13.4152 39.8993 13.4152 41.7645 13.6282 43.3965C13.8411 44.329 14.0541 45.4947 14.9059 46.1941C15.1189 46.4273 15.3318 46.4273 15.5448 46.4273C15.7577 46.4273 15.9707 46.4273 16.1837 46.4273C16.6096 46.1941 17.0355 45.961 17.2484 45.7279L21.0817 41.5313C20.8687 41.2982 20.8687 40.8319 20.8687 40.5988L21.0817 37.8011V37.5679L20.8687 36.6354Z" fill="#CFDB6C"/>
</g>
<mask id="mask24_638_6996" style="mask-type:luminance" maskUnits="userSpaceOnUse" x="0" y="0" width="139" height="185">
<path d="M138.423 0.265137H0V184.213H138.423V0.265137Z" fill="white"/>
</mask>
<g mask="url(#mask24_638_6996)">
<path d="M35.5626 29.4079L37.9052 30.8068H38.1181C37.9052 30.5737 37.6922 30.1074 37.4793 29.8742L35.1367 29.1748L35.5626 29.4079Z" fill="#CFDB6C"/>
</g>
<mask id="mask25_638_6996" style="mask-type:luminance" maskUnits="userSpaceOnUse" x="0" y="0" width="139" height="185">
<path d="M138.423 0.265137H0V184.213H138.423V0.265137Z" fill="white"/>
</mask>
<g mask="url(#mask25_638_6996)">
<path d="M40.0358 35.2361C39.8229 34.7698 39.6099 34.5367 39.3969 34.0704C39.184 33.8372 39.184 33.371 38.971 33.1378C38.7581 32.6715 38.5451 32.2053 38.3322 31.739C38.3322 31.9721 38.3322 32.2053 38.1192 32.4384C37.9062 33.1378 37.0544 33.371 36.6285 32.9047L34.286 31.5058H34.073L33.2212 31.0396L33.86 31.739V31.9721L35.7767 33.8372C36.2026 34.3035 36.4155 35.0029 35.9896 35.7024C35.7767 35.9355 35.5637 36.1686 35.1378 36.1686C34.9248 36.1686 34.4989 36.1686 34.286 35.9355L32.3693 34.0704H32.1564L31.7305 32.9047L32.3693 33.8372V34.0704L34.073 36.1686C34.4989 36.6349 34.4989 37.5675 33.86 38.0338L33.6471 38.2669C34.9248 38.9663 36.2026 39.4326 37.4803 39.6658C38.3322 39.8989 39.3969 39.8989 40.2488 39.4326C40.4617 39.1995 40.6747 39.1995 40.6747 38.9663C40.6747 38.7332 40.8877 38.5001 40.8877 38.2669C40.8877 37.8006 40.6747 37.3343 40.6747 36.8681C40.4617 36.1686 40.2488 35.7024 40.0358 35.2361Z" fill="#CFDB6C"/>
</g>
<mask id="mask26_638_6996" style="mask-type:luminance" maskUnits="userSpaceOnUse" x="0" y="0" width="139" height="185">
<path d="M138.423 0.265137H0V184.213H138.423V0.265137Z" fill="white"/>
</mask>
<g mask="url(#mask26_638_6996)">
<path d="M31.3051 36.1689L30.6662 35.4694L30.0273 34.77L30.4533 35.4694V35.7026L31.3051 37.3346V36.8683V36.1689Z" fill="#CFDB6C"/>
</g>
<mask id="mask27_638_6996" style="mask-type:luminance" maskUnits="userSpaceOnUse" x="0" y="0" width="139" height="185">
<path d="M138.423 0.265137H0V184.213H138.423V0.265137Z" fill="white"/>
</mask>
<g mask="url(#mask27_638_6996)">
<path d="M30.2385 40.1323C30.0256 40.1323 29.5997 39.8992 29.5997 39.4329L28.3219 36.8684L28.9608 39.6661C28.9608 39.8992 28.9608 40.3655 28.9608 40.5986C28.7478 40.8318 28.5349 41.0649 28.3219 41.298C28.109 41.298 27.683 41.298 27.4701 41.298C27.2571 41.0649 27.0442 40.8318 26.8312 40.5986L26.1923 37.8009V37.5678L25.9794 36.6352V37.5678V37.8009L26.1923 40.5986C26.1923 40.8318 26.1923 41.298 25.9794 41.5312C25.7664 41.7643 25.5535 41.9975 25.1276 41.9975H24.9146C24.2757 41.9975 23.8498 41.5312 23.8498 40.8318L23.4239 38.0341L23.2109 39.6661V39.8992C23.2109 40.1323 23.4239 40.3655 23.4239 40.5986C24.0628 42.4637 25.1276 44.0957 26.4053 45.4946C27.0442 46.194 27.896 46.8934 28.9608 47.1266C29.1738 47.1266 29.3867 47.1266 29.5997 47.1266L30.0256 46.6603C30.2385 46.194 30.4515 45.7277 30.4515 45.4946C30.4515 45.0283 30.6645 44.562 30.6645 43.8626C30.6645 43.3963 30.8774 42.93 30.8774 42.4637C30.8774 41.9975 31.0904 41.7643 31.0904 41.298C31.0904 41.0649 31.0904 40.5986 31.3033 40.1323C30.8774 40.1323 30.4515 40.1323 30.2385 40.1323Z" fill="#CFDB6C"/>
</g>
<mask id="mask28_638_6996" style="mask-type:luminance" maskUnits="userSpaceOnUse" x="0" y="0" width="139" height="185">
<path d="M138.423 0.265137H0V184.213H138.423V0.265137Z" fill="white"/>
</mask>
<g mask="url(#mask28_638_6996)">
<path d="M5.96147 14.7202L5.74852 14.2539C5.10964 15.6528 4.68373 17.2847 4.25781 18.6836C5.3226 18.2173 6.38739 18.2173 7.45218 17.9842H7.66514H7.87809C7.45218 17.5179 7.02626 17.0516 6.81331 16.3522C6.60035 15.8859 6.38739 15.4196 5.96147 14.7202Z" fill="#4B446E"/>
</g>
<mask id="mask29_638_6996" style="mask-type:luminance" maskUnits="userSpaceOnUse" x="0" y="0" width="139" height="185">
<path d="M138.423 0.265137H0V184.213H138.423V0.265137Z" fill="white"/>
</mask>
<g mask="url(#mask29_638_6996)">
<path d="M13.6278 9.12455C13.6278 8.65827 13.6278 8.19199 13.6278 7.95885C13.6278 7.25943 13.8408 6.79314 13.8408 6.09372V5.62744C12.776 6.32686 11.7112 6.79314 10.8594 7.72571C11.9242 7.95885 12.989 8.42513 13.6278 9.12455Z" fill="#4B446E"/>
</g>
<mask id="mask30_638_6996" style="mask-type:luminance" maskUnits="userSpaceOnUse" x="0" y="0" width="139" height="185">
<path d="M138.423 0.265137H0V184.213H138.423V0.265137Z" fill="white"/>
</mask>
<g mask="url(#mask30_638_6996)">
<path d="M9.79688 38.5002C10.6487 39.4328 11.5005 40.1322 12.5653 40.8316C12.5653 39.899 12.7783 38.7333 12.9912 37.8008C12.5653 38.0339 12.1394 38.0339 11.7135 38.0339L9.79688 38.5002Z" fill="#4B446E"/>
</g>
<mask id="mask31_638_6996" style="mask-type:luminance" maskUnits="userSpaceOnUse" x="0" y="0" width="139" height="185">
<path d="M138.423 0.265137H0V184.213H138.423V0.265137Z" fill="white"/>
</mask>
<g mask="url(#mask31_638_6996)">
<path d="M4.04297 27.543C4.25593 28.7087 4.68184 29.8744 5.10776 31.0401C5.74663 30.1075 6.3855 29.4081 7.02438 28.9418C6.59846 28.7087 6.3855 28.7087 5.95959 28.4755L4.04297 27.543Z" fill="#4B446E"/>
</g>
<mask id="mask32_638_6996" style="mask-type:luminance" maskUnits="userSpaceOnUse" x="0" y="0" width="139" height="185">
<path d="M138.423 0.265137H0V184.213H138.423V0.265137Z" fill="white"/>
</mask>
<g mask="url(#mask32_638_6996)">
<path d="M22.1484 3.2959C22.5744 4.22846 23.0003 5.16102 23.4262 6.09359C23.6391 5.62731 24.0651 5.39416 24.278 5.16102L25.5558 3.52904C24.491 3.2959 23.6391 3.2959 22.7873 3.2959C22.7873 3.2959 22.3614 3.2959 22.1484 3.2959Z" fill="#4B446E"/>
</g>
<mask id="mask33_638_6996" style="mask-type:luminance" maskUnits="userSpaceOnUse" x="0" y="0" width="139" height="185">
<path d="M138.423 0.265137H0V184.213H138.423V0.265137Z" fill="white"/>
</mask>
<g mask="url(#mask33_638_6996)">
<path d="M33.0078 9.59089C33.4337 9.35775 33.8596 9.35775 34.2856 9.35775L36.2022 8.89147C35.3503 7.9589 34.4985 7.25948 33.4337 6.56006C33.4337 7.49262 33.2208 8.65832 33.0078 9.59089Z" fill="#4B446E"/>
</g>
<mask id="mask34_638_6996" style="mask-type:luminance" maskUnits="userSpaceOnUse" x="0" y="0" width="139" height="185">
<path d="M138.423 0.265137H0V184.213H138.423V0.265137Z" fill="white"/>
</mask>
<g mask="url(#mask34_638_6996)">
<path d="M21.7212 42.2304L20.2305 43.8624C21.2953 44.0955 22.1471 44.0955 22.9989 44.0955C23.2119 44.0955 23.4248 44.0955 23.8507 44.0955H24.0637C23.4248 43.163 22.9989 42.2304 22.786 41.2979C22.1471 41.531 21.9341 41.9973 21.7212 42.2304Z" fill="#4B446E"/>
</g>
<mask id="mask35_638_6996" style="mask-type:luminance" maskUnits="userSpaceOnUse" x="0" y="0" width="139" height="185">
<path d="M138.423 0.265137H0V184.213H138.423V0.265137Z" fill="white"/>
</mask>
<g mask="url(#mask35_638_6996)">
<path d="M41.7392 19.6158C41.5263 18.4501 41.1003 17.2844 40.6744 16.1187C40.0356 17.0512 39.3967 17.7506 38.7578 18.2169C39.1837 18.4501 39.3967 18.4501 39.8226 18.6832L41.7392 19.6158Z" fill="#4B446E"/>
</g>
<mask id="mask36_638_6996" style="mask-type:luminance" maskUnits="userSpaceOnUse" x="0" y="0" width="139" height="185">
<path d="M138.423 0.265137H0V184.213H138.423V0.265137Z" fill="white"/>
</mask>
<g mask="url(#mask36_638_6996)">
<path d="M32.1583 39.4328C32.1583 40.1322 31.9453 40.5985 31.9453 41.2979V41.7642C33.0101 41.0648 34.0749 40.5985 34.9267 39.6659C34.0749 39.1997 33.2231 38.7334 32.3712 38.2671C32.1583 38.7334 32.1583 39.1997 32.1583 39.4328Z" fill="#4B446E"/>
</g>
<mask id="mask37_638_6996" style="mask-type:luminance" maskUnits="userSpaceOnUse" x="0" y="0" width="139" height="185">
<path d="M138.423 0.265137H0V184.213H138.423V0.265137Z" fill="white"/>
</mask>
<g mask="url(#mask37_638_6996)">
<path d="M38.5469 29.8737C38.7598 30.1069 38.9728 30.5731 39.1857 31.0394C39.3987 31.5057 39.6117 32.2051 40.0376 32.6714L40.2505 33.1377C40.8894 31.7388 41.5283 30.34 41.7412 28.708C40.8894 28.9411 40.2505 29.1743 39.3987 29.1743C39.1857 29.4074 38.9728 29.6406 38.5469 29.8737Z" fill="#4B446E"/>
</g>
<mask id="mask38_638_6996" style="mask-type:luminance" maskUnits="userSpaceOnUse" x="0" y="0" width="139" height="185">
<path d="M138.423 0.265137H0V184.213H138.423V0.265137Z" fill="white"/>
</mask>
<g mask="url(#mask38_638_6996)">
<path d="M28.7501 13.0876L30.8797 8.65795L31.0927 8.4248H30.8797H30.6668L28.3242 12.8545L28.7501 13.0876Z" fill="white"/>
</g>
<mask id="mask39_638_6996" style="mask-type:luminance" maskUnits="userSpaceOnUse" x="0" y="0" width="139" height="185">
<path d="M138.423 0.265137H0V184.213H138.423V0.265137Z" fill="white"/>
</mask>
<g mask="url(#mask39_638_6996)">
<path d="M30.4512 14.4866L33.4326 10.5232L33.6456 10.29H33.4326H33.2197L30.2383 14.2534L30.4512 14.4866Z" fill="white"/>
</g>
<mask id="mask40_638_6996" style="mask-type:luminance" maskUnits="userSpaceOnUse" x="0" y="0" width="139" height="185">
<path d="M138.423 0.265137H0V184.213H138.423V0.265137Z" fill="white"/>
</mask>
<g mask="url(#mask40_638_6996)">
<path d="M35.7767 12.6216H35.5637H35.3508L31.7305 15.8856L31.9434 16.3518L35.7767 13.0879V12.8547V12.6216Z" fill="white"/>
</g>
<mask id="mask41_638_6996" style="mask-type:luminance" maskUnits="userSpaceOnUse" x="0" y="0" width="139" height="185">
<path d="M138.423 0.265137H0V184.213H138.423V0.265137Z" fill="white"/>
</mask>
<g mask="url(#mask41_638_6996)">
<path d="M38.3315 18.4502L33.8594 19.849L34.0723 20.3153L38.5444 18.9165V18.6833L38.3315 18.4502Z" fill="white"/>
</g>
<mask id="mask42_638_6996" style="mask-type:luminance" maskUnits="userSpaceOnUse" x="0" y="0" width="139" height="185">
<path d="M138.423 0.265137H0V184.213H138.423V0.265137Z" fill="white"/>
</mask>
<g mask="url(#mask42_638_6996)">
<path d="M38.9741 21.7139L34.2891 22.1801V22.6464L38.9741 22.1801H39.1871V21.947L38.9741 21.7139Z" fill="white"/>
</g>
<mask id="mask43_638_6996" style="mask-type:luminance" maskUnits="userSpaceOnUse" x="0" y="0" width="139" height="185">
<path d="M138.423 0.265137H0V184.213H138.423V0.265137Z" fill="white"/>
</mask>
<g mask="url(#mask43_638_6996)">
<path d="M38.9741 25.2114L34.2891 24.7451V25.2114L38.9741 25.6777L39.1871 25.4445L38.9741 25.2114Z" fill="white"/>
</g>
<mask id="mask44_638_6996" style="mask-type:luminance" maskUnits="userSpaceOnUse" x="0" y="0" width="139" height="185">
<path d="M138.423 0.265137H0V184.213H138.423V0.265137Z" fill="white"/>
</mask>
<g mask="url(#mask44_638_6996)">
<path d="M38.3315 28.475L34.0723 27.0762L33.8594 27.5425L38.3315 28.9413C38.3315 28.9413 38.5444 28.9413 38.5444 28.7082L38.3315 28.475Z" fill="white"/>
</g>
<mask id="mask45_638_6996" style="mask-type:luminance" maskUnits="userSpaceOnUse" x="0" y="0" width="139" height="185">
<path d="M138.423 0.265137H0V184.213H138.423V0.265137Z" fill="white"/>
</mask>
<g mask="url(#mask45_638_6996)">
<path d="M37.267 31.5062L33.2208 29.1748L33.0078 29.6411L37.054 31.9725H37.4799L37.267 31.5062Z" fill="white"/>
</g>
<mask id="mask46_638_6996" style="mask-type:luminance" maskUnits="userSpaceOnUse" x="0" y="0" width="139" height="185">
<path d="M138.423 0.265137H0V184.213H138.423V0.265137Z" fill="white"/>
</mask>
<g mask="url(#mask46_638_6996)">
<path d="M35.5637 34.3038L32.1564 31.2729L31.7305 31.5061L35.3508 34.7701H35.5637V34.3038Z" fill="white"/>
</g>
<mask id="mask47_638_6996" style="mask-type:luminance" maskUnits="userSpaceOnUse" x="0" y="0" width="139" height="185">
<path d="M138.423 0.265137H0V184.213H138.423V0.265137Z" fill="white"/>
</mask>
<g mask="url(#mask47_638_6996)">
<path d="M30.4512 32.9048L30.2383 33.1379L33.0067 37.1013H33.2197H33.4326V36.8682L30.4512 32.9048Z" fill="white"/>
</g>
<mask id="mask48_638_6996" style="mask-type:luminance" maskUnits="userSpaceOnUse" x="0" y="0" width="139" height="185">
<path d="M138.423 0.265137H0V184.213H138.423V0.265137Z" fill="white"/>
</mask>
<g mask="url(#mask48_638_6996)">
<path d="M28.7501 34.3037L28.3242 34.5369L30.4538 38.9665H30.6668L30.8797 38.7334L28.7501 34.3037Z" fill="white"/>
</g>
<mask id="mask49_638_6996" style="mask-type:luminance" maskUnits="userSpaceOnUse" x="0" y="0" width="139" height="185">
<path d="M138.423 0.265137H0V184.213H138.423V0.265137Z" fill="white"/>
</mask>
<g mask="url(#mask49_638_6996)">
<path d="M26.4062 35.2358L27.684 40.1318L27.897 40.3649L28.1099 39.8987L26.8322 35.2358H26.4062Z" fill="white"/>
</g>
<mask id="mask50_638_6996" style="mask-type:luminance" maskUnits="userSpaceOnUse" x="0" y="0" width="139" height="185">
<path d="M138.423 0.265137H0V184.213H138.423V0.265137Z" fill="white"/>
</mask>
<g mask="url(#mask50_638_6996)">
<path d="M24.2773 35.7026L24.7033 40.8317L24.9162 41.0649L25.1292 40.5986L24.7033 35.7026H24.2773Z" fill="white"/>
</g>
<mask id="mask51_638_6996" style="mask-type:luminance" maskUnits="userSpaceOnUse" x="0" y="0" width="139" height="185">
<path d="M138.423 0.265137H0V184.213H138.423V0.265137Z" fill="white"/>
</mask>
<g mask="url(#mask51_638_6996)">
<path d="M21.9337 35.7026L21.5078 40.5986V40.8317H21.7208H21.9337L22.3596 35.7026H21.9337Z" fill="white"/>
</g>
<mask id="mask52_638_6996" style="mask-type:luminance" maskUnits="userSpaceOnUse" x="0" y="0" width="139" height="185">
<path d="M138.423 0.265137H0V184.213H138.423V0.265137Z" fill="white"/>
</mask>
<g mask="url(#mask52_638_6996)">
<path d="M19.8051 35.2358L18.5273 39.8987V40.1318H18.7403H18.9533L20.231 35.2358H19.8051Z" fill="white"/>
</g>
<mask id="mask53_638_6996" style="mask-type:luminance" maskUnits="userSpaceOnUse" x="0" y="0" width="139" height="185">
<path d="M138.423 0.265137H0V184.213H138.423V0.265137Z" fill="white"/>
</mask>
<g mask="url(#mask53_638_6996)">
<path d="M17.8874 34.3037L15.7578 38.7334V38.9665H16.1837L18.3133 34.5369L17.8874 34.3037Z" fill="white"/>
</g>
<mask id="mask54_638_6996" style="mask-type:luminance" maskUnits="userSpaceOnUse" x="0" y="0" width="139" height="185">
<path d="M138.423 0.265137H0V184.213H138.423V0.265137Z" fill="white"/>
</mask>
<g mask="url(#mask54_638_6996)">
<path d="M16.1845 32.9048L13.2031 36.635V36.8682V37.1013H13.4161H13.629L16.3975 33.1379L16.1845 32.9048Z" fill="white"/>
</g>
<mask id="mask55_638_6996" style="mask-type:luminance" maskUnits="userSpaceOnUse" x="0" y="0" width="139" height="185">
<path d="M138.423 0.265137H0V184.213H138.423V0.265137Z" fill="white"/>
</mask>
<g mask="url(#mask55_638_6996)">
<path d="M14.6906 31.0396L11.0703 34.3035V34.5367L11.2833 34.7698V34.5367L14.9036 31.5058L14.6906 31.0396Z" fill="white"/>
</g>
<mask id="mask56_638_6996" style="mask-type:luminance" maskUnits="userSpaceOnUse" x="0" y="0" width="139" height="185">
<path d="M138.423 0.265137H0V184.213H138.423V0.265137Z" fill="white"/>
</mask>
<g mask="url(#mask56_638_6996)">
<path d="M13.4173 28.9414L9.37109 31.2728V31.506V31.7391H9.58405L13.6302 29.4077L13.4173 28.9414Z" fill="white"/>
</g>
<mask id="mask57_638_6996" style="mask-type:luminance" maskUnits="userSpaceOnUse" x="0" y="0" width="139" height="185">
<path d="M138.423 0.265137H0V184.213H138.423V0.265137Z" fill="white"/>
</mask>
<g mask="url(#mask57_638_6996)">
<path d="M12.7788 26.8433L8.30671 28.2421L8.09375 28.7084H8.30671H8.51967L12.7788 27.3095V26.8433Z" fill="white"/>
</g>
<mask id="mask58_638_6996" style="mask-type:luminance" maskUnits="userSpaceOnUse" x="0" y="0" width="139" height="185">
<path d="M138.423 0.265137H0V184.213H138.423V0.265137Z" fill="white"/>
</mask>
<g mask="url(#mask58_638_6996)">
<path d="M12.353 24.5117L7.66797 24.978V25.2111L7.88093 25.4443L12.353 24.978V24.5117Z" fill="white"/>
</g>
<mask id="mask59_638_6996" style="mask-type:luminance" maskUnits="userSpaceOnUse" x="0" y="0" width="139" height="185">
<path d="M138.423 0.265137H0V184.213H138.423V0.265137Z" fill="white"/>
</mask>
<g mask="url(#mask59_638_6996)">
<path d="M12.566 22.1801L7.88093 21.7139H7.66797L7.88093 22.1801L12.353 22.6464L12.566 22.1801Z" fill="white"/>
</g>
<mask id="mask60_638_6996" style="mask-type:luminance" maskUnits="userSpaceOnUse" x="0" y="0" width="139" height="185">
<path d="M138.423 0.265137H0V184.213H138.423V0.265137Z" fill="white"/>
</mask>
<g mask="url(#mask60_638_6996)">
<path d="M12.9898 19.8493L8.51765 18.2173L8.30469 18.4504V18.6836L12.7768 20.3156L12.9898 19.8493Z" fill="white"/>
</g>
<mask id="mask61_638_6996" style="mask-type:luminance" maskUnits="userSpaceOnUse" x="0" y="0" width="139" height="185">
<path d="M138.423 0.265137H0V184.213H138.423V0.265137Z" fill="white"/>
</mask>
<g mask="url(#mask61_638_6996)">
<path d="M13.8432 17.7506L9.58405 15.4192V15.186L9.37109 15.4192V15.6523L13.6302 18.2169L13.8432 17.7506Z" fill="white"/>
</g>
<mask id="mask62_638_6996" style="mask-type:luminance" maskUnits="userSpaceOnUse" x="0" y="0" width="139" height="185">
<path d="M138.423 0.265137H0V184.213H138.423V0.265137Z" fill="white"/>
</mask>
<g mask="url(#mask62_638_6996)">
<path d="M15.1165 15.8856L11.4962 12.6216H11.0703V12.8547L14.6906 16.1187L15.1165 15.8856Z" fill="white"/>
</g>
<mask id="mask63_638_6996" style="mask-type:luminance" maskUnits="userSpaceOnUse" x="0" y="0" width="139" height="185">
<path d="M138.423 0.265137H0V184.213H138.423V0.265137Z" fill="white"/>
</mask>
<g mask="url(#mask63_638_6996)">
<path d="M16.3994 14.4868L16.6123 14.2537L13.6309 10.0571H13.418V10.5234L16.3994 14.4868Z" fill="white"/>
</g>
<mask id="mask64_638_6996" style="mask-type:luminance" maskUnits="userSpaceOnUse" x="0" y="0" width="139" height="185">
<path d="M138.423 0.265137H0V184.213H138.423V0.265137Z" fill="white"/>
</mask>
<g mask="url(#mask64_638_6996)">
<path d="M18.1022 13.0878L18.5281 12.8547L16.3986 8.42503L16.1856 8.19189H15.9727V8.65818L18.1022 13.0878Z" fill="white"/>
</g>
<mask id="mask65_638_6996" style="mask-type:luminance" maskUnits="userSpaceOnUse" x="0" y="0" width="139" height="185">
<path d="M138.423 0.265137H0V184.213H138.423V0.265137Z" fill="white"/>
</mask>
<g mask="url(#mask65_638_6996)">
<path d="M20.4419 12.155L19.1642 7.25902L18.9512 7.02588H18.7383V7.25902L20.016 12.155H20.4419Z" fill="white"/>
</g>
<mask id="mask66_638_6996" style="mask-type:luminance" maskUnits="userSpaceOnUse" x="0" y="0" width="139" height="185">
<path d="M138.423 0.265137H0V184.213H138.423V0.265137Z" fill="white"/>
</mask>
<g mask="url(#mask66_638_6996)">
<path d="M22.5745 11.6894L22.1486 6.56029L21.9356 6.32715H21.7227V6.56029L22.1486 11.6894H22.5745Z" fill="white"/>
</g>
<mask id="mask67_638_6996" style="mask-type:luminance" maskUnits="userSpaceOnUse" x="0" y="0" width="139" height="185">
<path d="M138.423 0.265137H0V184.213H138.423V0.265137Z" fill="white"/>
</mask>
<g mask="url(#mask67_638_6996)">
<path d="M24.7033 11.6894L25.3421 6.56029L25.1292 6.32715L24.7033 6.56029L24.2773 11.6894H24.7033Z" fill="white"/>
</g>
<mask id="mask68_638_6996" style="mask-type:luminance" maskUnits="userSpaceOnUse" x="0" y="0" width="139" height="185">
<path d="M138.423 0.265137H0V184.213H138.423V0.265137Z" fill="white"/>
</mask>
<g mask="url(#mask68_638_6996)">
<path d="M26.8322 12.3881L28.3229 7.25902L28.1099 7.02588H27.897V7.25902L26.4062 12.155L26.8322 12.3881Z" fill="white"/>
</g>
<mask id="mask69_638_6996" style="mask-type:luminance" maskUnits="userSpaceOnUse" x="0" y="0" width="139" height="185">
<path d="M138.423 0.265137H0V184.213H138.423V0.265137Z" fill="white"/>
</mask>
<g mask="url(#mask69_638_6996)">
<path d="M37.4799 15.6521L37.267 15.4189H37.054L33.0078 17.7504L33.2208 18.2166L37.267 15.8852L37.4799 15.6521Z" fill="white"/>
</g>
<mask id="mask70_638_6996" style="mask-type:luminance" maskUnits="userSpaceOnUse" x="0" y="0" width="139" height="185">
<path d="M138.423 0.265137H0V184.213H138.423V0.265137Z" fill="white"/>
</mask>
<g mask="url(#mask70_638_6996)">
<path d="M28.1114 13.0877L28.3244 13.3209L28.5373 13.554H28.7503L28.9632 13.3209L31.0928 8.65804V8.19176L30.8798 7.72548C30.6669 7.49234 30.241 7.72548 30.028 7.95862L27.8984 12.6214L28.1114 13.0877Z" fill="#4B446E"/>
</g>
<mask id="mask71_638_6996" style="mask-type:luminance" maskUnits="userSpaceOnUse" x="0" y="0" width="139" height="185">
<path d="M138.423 0.265137H0V184.213H138.423V0.265137Z" fill="white"/>
</mask>
<g mask="url(#mask71_638_6996)">
<path d="M29.8125 14.2534L30.0255 14.4865L30.2384 14.7197L30.4514 14.9528L30.8773 14.7197L33.8587 10.7563V10.29L33.6457 10.0569L33.2198 9.82373L33.0069 10.0569L30.0255 14.0203L29.8125 14.2534Z" fill="#4B446E"/>
</g>
<mask id="mask72_638_6996" style="mask-type:luminance" maskUnits="userSpaceOnUse" x="0" y="0" width="139" height="185">
<path d="M138.423 0.265137H0V184.213H138.423V0.265137Z" fill="white"/>
</mask>
<g mask="url(#mask72_638_6996)">
<path d="M31.5195 15.8855V16.1187L31.7325 16.5849H31.9454H32.1584L35.9916 13.321L36.2046 12.8547L35.9916 12.3884L35.5657 12.1553L35.1398 12.3884L31.5195 15.6524V15.8855Z" fill="#4B446E"/>
</g>
<mask id="mask73_638_6996" style="mask-type:luminance" maskUnits="userSpaceOnUse" x="0" y="0" width="139" height="185">
<path d="M138.423 0.265137H0V184.213H138.423V0.265137Z" fill="white"/>
</mask>
<g mask="url(#mask73_638_6996)">
<path d="M33.6484 19.8493V20.0824L33.8614 20.5487L34.0744 20.7818H34.2873L38.7594 19.383C38.9724 19.383 39.1853 18.9167 39.1853 18.6836C39.1853 18.4504 38.7594 18.2173 38.5465 18.2173L33.6484 19.8493Z" fill="#4B446E"/>
</g>
<mask id="mask74_638_6996" style="mask-type:luminance" maskUnits="userSpaceOnUse" x="0" y="0" width="139" height="185">
<path d="M138.423 0.265137H0V184.213H138.423V0.265137Z" fill="white"/>
</mask>
<g mask="url(#mask74_638_6996)">
<path d="M34.0742 21.9472V22.1804V22.6467V23.1129H34.2872L38.9722 22.6467L39.3982 22.4135L39.6111 21.9472C39.6111 21.7141 39.3982 21.481 38.9722 21.481L34.2872 21.9472H34.0742Z" fill="#4B446E"/>
</g>
<mask id="mask75_638_6996" style="mask-type:luminance" maskUnits="userSpaceOnUse" x="0" y="0" width="139" height="185">
<path d="M138.423 0.265137H0V184.213H138.423V0.265137Z" fill="white"/>
</mask>
<g mask="url(#mask75_638_6996)">
<path d="M38.9722 24.7451L34.2872 24.2788H34.0742V24.7451V25.2114V25.4445L34.2872 25.6777L38.9722 26.1439C39.1852 26.1439 39.6111 25.9108 39.6111 25.6777L39.3982 25.2114L38.9722 24.7451Z" fill="#4B446E"/>
</g>
<mask id="mask76_638_6996" style="mask-type:luminance" maskUnits="userSpaceOnUse" x="0" y="0" width="139" height="185">
<path d="M138.423 0.265137H0V184.213H138.423V0.265137Z" fill="white"/>
</mask>
<g mask="url(#mask76_638_6996)">
<path d="M34.0725 26.6099H33.8595L33.6466 26.843L33.4336 27.3093V27.5424L33.6466 27.7756L38.1187 29.1744H38.3316C38.5446 29.1744 38.7575 29.1744 38.7575 28.7081V28.2418H38.5446L34.0725 26.6099Z" fill="#4B446E"/>
</g>
<mask id="mask77_638_6996" style="mask-type:luminance" maskUnits="userSpaceOnUse" x="0" y="0" width="139" height="185">
<path d="M138.423 0.265137H0V184.213H138.423V0.265137Z" fill="white"/>
</mask>
<g mask="url(#mask77_638_6996)">
<path d="M33.4357 28.9411L33.2228 28.708L33.0098 28.9411L32.7969 29.1743V29.4074V29.6406V29.8737L36.8431 32.2051L37.269 32.4383L37.6949 31.972V31.5057L37.4819 31.2726L33.4357 28.9411Z" fill="#4B446E"/>
</g>
<mask id="mask78_638_6996" style="mask-type:luminance" maskUnits="userSpaceOnUse" x="0" y="0" width="139" height="185">
<path d="M138.423 0.265137H0V184.213H138.423V0.265137Z" fill="white"/>
</mask>
<g mask="url(#mask78_638_6996)">
<path d="M32.3714 30.8066H31.9454L31.7325 31.0398L31.5195 31.2729V31.5061V31.7392L35.1398 35.0032L35.3528 35.2363H35.5657L35.7787 35.0032L35.9916 34.5369L35.7787 34.0706L32.3714 30.8066Z" fill="#4B446E"/>
</g>
<mask id="mask79_638_6996" style="mask-type:luminance" maskUnits="userSpaceOnUse" x="0" y="0" width="139" height="185">
<path d="M138.423 0.265137H0V184.213H138.423V0.265137Z" fill="white"/>
</mask>
<g mask="url(#mask79_638_6996)">
<path d="M30.8773 32.6716L30.4514 32.4385L30.2384 32.6716L30.0255 32.9048L29.8125 33.1379L30.0255 33.371L32.7939 37.3344L33.2198 37.5676L33.6457 37.3344L33.8587 37.1013L33.6457 36.635L30.8773 32.6716Z" fill="#4B446E"/>
</g>
<mask id="mask80_638_6996" style="mask-type:luminance" maskUnits="userSpaceOnUse" x="0" y="0" width="139" height="185">
<path d="M138.423 0.265137H0V184.213H138.423V0.265137Z" fill="white"/>
</mask>
<g mask="url(#mask80_638_6996)">
<path d="M28.9651 34.0705L28.7522 33.8374L28.5392 34.0705H28.3262H28.1133V34.3037V34.77L30.2429 39.1996L30.4558 39.4328H30.6688H30.8817L31.0947 38.9665V38.5002L28.9651 34.0705Z" fill="#4B446E"/>
</g>
<mask id="mask81_638_6996" style="mask-type:luminance" maskUnits="userSpaceOnUse" x="0" y="0" width="139" height="185">
<path d="M138.423 0.265137H0V184.213H138.423V0.265137Z" fill="white"/>
</mask>
<g mask="url(#mask81_638_6996)">
<path d="M27.0453 34.77H26.8323H26.4064L25.9805 35.2363V35.4694L27.2582 40.1323L27.4712 40.5985H27.6841H27.8971C28.11 40.5985 28.323 40.1323 28.323 39.8991L27.0453 34.77Z" fill="#4B446E"/>
</g>
<mask id="mask82_638_6996" style="mask-type:luminance" maskUnits="userSpaceOnUse" x="0" y="0" width="139" height="185">
<path d="M138.423 0.265137H0V184.213H138.423V0.265137Z" fill="white"/>
</mask>
<g mask="url(#mask82_638_6996)">
<path d="M24.9143 35.4692H24.7014H24.2755L24.0625 35.7024V35.9355L24.4884 40.8315L24.7014 41.2978L25.1273 41.5309C25.3402 41.5309 25.5532 41.2978 25.5532 40.8315L25.1273 35.9355L24.9143 35.4692Z" fill="#4B446E"/>
</g>
<mask id="mask83_638_6996" style="mask-type:luminance" maskUnits="userSpaceOnUse" x="0" y="0" width="139" height="185">
<path d="M138.423 0.265137H0V184.213H138.423V0.265137Z" fill="white"/>
</mask>
<g mask="url(#mask83_638_6996)">
<path d="M22.5746 35.4692H22.1487H21.9357L21.7228 35.7024L21.2969 40.5983L21.5098 41.0646C21.5098 41.2978 21.7228 41.2978 21.9357 41.2978C22.1487 41.2978 22.3617 41.0646 22.5746 40.8315L23.0005 35.9355V35.7024L22.5746 35.4692Z" fill="#4B446E"/>
</g>
<mask id="mask84_638_6996" style="mask-type:luminance" maskUnits="userSpaceOnUse" x="0" y="0" width="139" height="185">
<path d="M138.423 0.265137H0V184.213H138.423V0.265137Z" fill="white"/>
</mask>
<g mask="url(#mask84_638_6996)">
<path d="M20.4441 35.0032L20.0182 34.77H19.8052L19.5923 35.0032L18.1016 39.8991L18.3145 40.3654L18.5275 40.5985H18.7404H18.9534L19.1664 40.1323L20.6571 35.4694V35.2363L20.4441 35.0032Z" fill="#4B446E"/>
</g>
<mask id="mask85_638_6996" style="mask-type:luminance" maskUnits="userSpaceOnUse" x="0" y="0" width="139" height="185">
<path d="M138.423 0.265137H0V184.213H138.423V0.265137Z" fill="white"/>
</mask>
<g mask="url(#mask85_638_6996)">
<path d="M18.7433 34.3037L18.5303 34.0705L18.1044 33.8374H17.8914L17.6785 34.0705L15.5489 38.5002L15.3359 38.9665L15.7619 39.1996L15.9748 39.4328H16.1878L16.4007 38.9665L18.5303 34.5368L18.7433 34.3037Z" fill="#4B446E"/>
</g>
<mask id="mask86_638_6996" style="mask-type:luminance" maskUnits="userSpaceOnUse" x="0" y="0" width="139" height="185">
<path d="M138.423 0.265137H0V184.213H138.423V0.265137Z" fill="white"/>
</mask>
<g mask="url(#mask86_638_6996)">
<path d="M16.8235 33.1379L16.6106 32.9048L16.3976 32.6716V32.4385H16.1847L15.9717 32.6716L12.9903 36.4019L12.7773 36.8681L12.9903 37.3344L13.4162 37.5676L13.8421 37.3344L16.8235 33.371V33.1379Z" fill="#4B446E"/>
</g>
<mask id="mask87_638_6996" style="mask-type:luminance" maskUnits="userSpaceOnUse" x="0" y="0" width="139" height="185">
<path d="M138.423 0.265137H0V184.213H138.423V0.265137Z" fill="white"/>
</mask>
<g mask="url(#mask87_638_6996)">
<path d="M15.3335 31.5061L15.1205 31.2729L14.9076 31.0398V30.8066H14.6946H14.4817L10.8614 34.0706L10.6484 34.3038L10.8614 34.77L11.0744 35.0032H11.2873H11.5003L15.1205 31.7392L15.3335 31.5061Z" fill="#4B446E"/>
</g>
<mask id="mask88_638_6996" style="mask-type:luminance" maskUnits="userSpaceOnUse" x="0" y="0" width="139" height="185">
<path d="M138.423 0.265137H0V184.213H138.423V0.265137Z" fill="white"/>
</mask>
<g mask="url(#mask88_638_6996)">
<path d="M14.0563 29.6406V29.4074L13.8433 29.1743V28.9411L13.6304 28.708H13.4174L9.15827 31.0394L8.94531 31.5057V31.972L9.37123 32.2051H9.58419H9.79714L13.8433 29.8737L14.0563 29.6406Z" fill="#4B446E"/>
</g>
<mask id="mask89_638_6996" style="mask-type:luminance" maskUnits="userSpaceOnUse" x="0" y="0" width="139" height="185">
<path d="M138.423 0.265137H0V184.213H138.423V0.265137Z" fill="white"/>
</mask>
<g mask="url(#mask89_638_6996)">
<path d="M13.2028 27.5424V27.3093V27.0761V26.843L12.9899 26.6099H12.7769L8.30482 28.0087C8.09186 28.0087 7.87891 28.475 7.87891 28.7081L8.09186 29.1744H8.30482H8.51778L13.2028 27.5424Z" fill="#4B446E"/>
</g>
<mask id="mask90_638_6996" style="mask-type:luminance" maskUnits="userSpaceOnUse" x="0" y="0" width="139" height="185">
<path d="M138.423 0.265137H0V184.213H138.423V0.265137Z" fill="white"/>
</mask>
<g mask="url(#mask90_638_6996)">
<path d="M12.7772 25.2114V24.9782V24.7451V24.5119L12.5642 24.2788H12.3513L7.66622 24.7451L7.2403 24.9782L7.02734 25.4445C7.02734 25.6777 7.2403 25.9108 7.66622 25.9108L12.3513 25.4445L12.7772 25.2114Z" fill="#4B446E"/>
</g>
<mask id="mask91_638_6996" style="mask-type:luminance" maskUnits="userSpaceOnUse" x="0" y="0" width="139" height="185">
<path d="M138.423 0.265137H0V184.213H138.423V0.265137Z" fill="white"/>
</mask>
<g mask="url(#mask91_638_6996)">
<path d="M7.6642 22.4138L12.3493 22.88H12.5622L12.7752 22.6469V22.4138V22.1806V21.9475L12.5622 21.7143L7.87715 21.248C7.45124 21.248 7.23828 21.4812 7.23828 21.7143L7.45124 22.1806L7.6642 22.4138Z" fill="#4B446E"/>
</g>
<mask id="mask92_638_6996" style="mask-type:luminance" maskUnits="userSpaceOnUse" x="0" y="0" width="139" height="185">
<path d="M138.423 0.265137H0V184.213H138.423V0.265137Z" fill="white"/>
</mask>
<g mask="url(#mask92_638_6996)">
<path d="M8.30671 19.1496L12.7788 20.5484H12.9918L13.2047 20.3153L13.4177 19.849V19.6159L12.9918 19.3827L8.51967 17.9839C8.30671 17.9839 8.09375 18.217 8.09375 18.4502V18.9164L8.30671 19.1496Z" fill="#4B446E"/>
</g>
<mask id="mask93_638_6996" style="mask-type:luminance" maskUnits="userSpaceOnUse" x="0" y="0" width="139" height="185">
<path d="M138.423 0.265137H0V184.213H138.423V0.265137Z" fill="white"/>
</mask>
<g mask="url(#mask93_638_6996)">
<path d="M13.4177 18.4504H13.6306L13.8436 18.2172L14.0566 17.751V17.5178L10.0104 15.1864C9.7974 14.9533 9.37148 15.1864 9.15852 15.4196C8.94556 15.6527 9.15852 16.119 9.37148 16.3521L13.4177 18.4504Z" fill="#4B446E"/>
</g>
<mask id="mask94_638_6996" style="mask-type:luminance" maskUnits="userSpaceOnUse" x="0" y="0" width="139" height="185">
<path d="M138.423 0.265137H0V184.213H138.423V0.265137Z" fill="white"/>
</mask>
<g mask="url(#mask94_638_6996)">
<path d="M14.4831 16.3522L14.909 16.5853L15.122 16.3522L15.335 16.119V15.8859V15.4196L11.7147 12.1557C11.5017 11.9225 11.0758 12.1557 10.8628 12.3888C10.6499 12.6219 10.6499 12.8551 10.8628 13.0882L14.4831 16.3522Z" fill="#4B446E"/>
</g>
<mask id="mask95_638_6996" style="mask-type:luminance" maskUnits="userSpaceOnUse" x="0" y="0" width="139" height="185">
<path d="M138.423 0.265137H0V184.213H138.423V0.265137Z" fill="white"/>
</mask>
<g mask="url(#mask95_638_6996)">
<path d="M15.9711 14.7199L16.1841 14.9531H16.3971L16.61 14.7199H16.823L17.0359 14.2536V14.0205L14.0545 9.82396C14.0545 9.59082 13.8416 9.59082 13.6286 9.59082L13.2027 9.82396C12.9897 10.0571 12.9897 10.5234 13.2027 10.7565L15.9711 14.7199Z" fill="#4B446E"/>
</g>
<mask id="mask96_638_6996" style="mask-type:luminance" maskUnits="userSpaceOnUse" x="0" y="0" width="139" height="185">
<path d="M138.423 0.265137H0V184.213H138.423V0.265137Z" fill="white"/>
</mask>
<g mask="url(#mask96_638_6996)">
<path d="M17.8894 13.3214L18.1024 13.5546H18.3153L18.5283 13.3214H18.7412V13.0883V12.8552L16.6117 8.19236L16.3987 7.95921L16.1857 7.72607L15.7598 7.95921L15.5469 8.19236V8.65864L17.8894 13.3214Z" fill="#4B446E"/>
</g>
<mask id="mask97_638_6996" style="mask-type:luminance" maskUnits="userSpaceOnUse" x="0" y="0" width="139" height="185">
<path d="M138.423 0.265137H0V184.213H138.423V0.265137Z" fill="white"/>
</mask>
<g mask="url(#mask97_638_6996)">
<path d="M19.1682 6.7932L18.7423 6.56006L18.3164 7.02634V7.49262L19.5942 12.3886L19.8071 12.6217H20.0201L20.446 12.3886H20.6589V11.9223L19.3812 7.02634L19.1682 6.7932Z" fill="#4B446E"/>
</g>
<mask id="mask98_638_6996" style="mask-type:luminance" maskUnits="userSpaceOnUse" x="0" y="0" width="139" height="185">
<path d="M138.423 0.265137H0V184.213H138.423V0.265137Z" fill="white"/>
</mask>
<g mask="url(#mask98_638_6996)">
<path d="M22.3617 6.09349L21.9357 5.86035L21.5098 6.09349L21.2969 6.55977L21.7228 11.6889L21.9357 11.922L22.1487 12.1551H22.5746L22.7876 11.922L23.0005 11.6889L22.3617 6.55977V6.09349Z" fill="#4B446E"/>
</g>
<mask id="mask99_638_6996" style="mask-type:luminance" maskUnits="userSpaceOnUse" x="0" y="0" width="139" height="185">
<path d="M138.423 0.265137H0V184.213H138.423V0.265137Z" fill="white"/>
</mask>
<g mask="url(#mask99_638_6996)">
<path d="M25.1273 6.09375H24.7014L24.4884 6.56003L24.0625 11.6891V11.9223L24.2755 12.1554H24.7014H24.9143L25.1273 11.6891L25.5532 6.56003L25.3402 6.09375H25.1273Z" fill="#4B446E"/>
</g>
<mask id="mask100_638_6996" style="mask-type:luminance" maskUnits="userSpaceOnUse" x="0" y="0" width="139" height="185">
<path d="M138.423 0.265137H0V184.213H138.423V0.265137Z" fill="white"/>
</mask>
<g mask="url(#mask100_638_6996)">
<path d="M26.4083 12.3883L26.8342 12.6215H27.0471L27.2601 12.3883L28.5378 7.49239V7.02611L28.1119 6.79297H27.899L27.4731 7.02611L26.1953 11.9221V12.3883H26.4083Z" fill="#4B446E"/>
</g>
<mask id="mask101_638_6996" style="mask-type:luminance" maskUnits="userSpaceOnUse" x="0" y="0" width="139" height="185">
<path d="M138.423 0.265137H0V184.213H138.423V0.265137Z" fill="white"/>
</mask>
<g mask="url(#mask101_638_6996)">
<path d="M32.582 17.7506L32.795 17.9837V18.45L33.0079 18.6831H33.2209H33.4339L37.4801 16.1186L37.693 15.8855V15.4192L37.4801 15.186H37.0541L32.795 17.5174L32.582 17.7506Z" fill="#4B446E"/>
</g>
<mask id="mask102_638_6996" style="mask-type:luminance" maskUnits="userSpaceOnUse" x="0" y="0" width="139" height="185">
<path d="M138.423 0.265137H0V184.213H138.423V0.265137Z" fill="white"/>
</mask>
<g mask="url(#mask102_638_6996)">
<path d="M22.3603 19.849V19.1495C22.3603 18.9164 22.1474 18.6833 21.9344 18.9164C20.8696 19.1495 20.0178 19.849 19.3789 20.7815L19.5919 21.2478L20.2307 21.4809H20.6567C21.0826 21.0147 21.5085 20.5484 22.1474 20.3152L22.3603 19.849Z" fill="#E7EA9E"/>
</g>
<mask id="mask103_638_6996" style="mask-type:luminance" maskUnits="userSpaceOnUse" x="0" y="0" width="139" height="185">
<path d="M138.423 0.265137H0V184.213H138.423V0.265137Z" fill="white"/>
</mask>
<g mask="url(#mask103_638_6996)">
<path d="M27.0458 21.2474L27.2588 20.7811C26.6199 19.8486 25.5551 19.1492 24.7033 18.916C24.4903 18.916 24.2773 18.916 24.2773 19.1492V19.8486L24.4903 20.0817C25.1292 20.3149 25.5551 20.7811 25.981 21.2474H26.4069H27.0458Z" fill="#E7EA9E"/>
</g>
<mask id="mask104_638_6996" style="mask-type:luminance" maskUnits="userSpaceOnUse" x="0" y="0" width="139" height="185">
<path d="M138.423 0.265137H0V184.213H138.423V0.265137Z" fill="white"/>
</mask>
<g mask="url(#mask104_638_6996)">
<path d="M24.4912 27.543H24.0653C23.4265 27.7761 22.7876 27.7761 22.1487 27.543H21.7228L21.2969 28.2424L21.5098 28.7087C21.9357 28.9418 22.5746 28.9418 23.0005 28.9418C23.6394 28.9418 24.0653 28.9418 24.4912 28.7087L24.7042 28.2424L24.4912 27.543Z" fill="#E7EA9E"/>
</g>
<mask id="mask105_638_6996" style="mask-type:luminance" maskUnits="userSpaceOnUse" x="0" y="0" width="139" height="185">
<path d="M138.423 0.265137H0V184.213H138.423V0.265137Z" fill="white"/>
</mask>
<g mask="url(#mask105_638_6996)">
<path d="M27.686 23.3457L26.8342 23.5788L26.6212 23.812C26.6212 24.0451 26.6212 24.5114 26.6212 24.5114C26.6212 24.9777 26.4083 25.444 26.1953 25.6771V26.1434L26.6212 26.8428H27.0471C27.4731 26.1434 27.899 25.2108 27.899 24.2783C27.899 24.0451 27.899 23.812 27.899 23.5788L27.686 23.3457Z" fill="#E7EA9E"/>
</g>
<mask id="mask106_638_6996" style="mask-type:luminance" maskUnits="userSpaceOnUse" x="0" y="0" width="139" height="185">
<path d="M138.423 0.265137H0V184.213H138.423V0.265137Z" fill="white"/>
</mask>
<g mask="url(#mask106_638_6996)">
<path d="M20.018 24.5114C20.018 24.2783 20.018 24.0451 20.018 23.812L19.8051 23.5788L18.9533 23.3457L18.5273 23.5788C18.5273 23.812 18.5273 24.0451 18.5273 24.2783C18.5273 25.2108 18.9533 26.1434 19.3792 26.8428H19.8051L20.231 26.1434V25.9103C20.231 25.444 20.018 24.9777 20.018 24.5114Z" fill="#E7EA9E"/>
</g>
<mask id="mask107_638_6996" style="mask-type:luminance" maskUnits="userSpaceOnUse" x="0" y="0" width="139" height="185">
<path d="M138.423 0.265137H0V184.213H138.423V0.265137Z" fill="white"/>
</mask>
<g mask="url(#mask107_638_6996)">
<path d="M31.7304 17.5175C31.5175 17.0512 31.0916 17.0512 30.6657 16.8181C30.2397 16.8181 29.8138 17.0512 29.6009 17.2843L29.175 17.7506C28.962 18.2169 28.749 18.9163 29.175 19.3826C29.3879 19.8489 29.6009 20.082 29.8138 20.5483L25.7676 21.9472C25.3417 21.0146 24.4899 20.5483 23.6381 20.3152V16.1186C24.064 16.1186 24.7028 16.3518 25.1288 16.3518H25.5547C25.9806 16.3518 26.4065 16.1186 26.6195 15.8855L27.0454 15.4192C27.2583 14.9529 27.2583 14.4867 27.2583 14.2535C27.0454 13.7872 26.8324 13.5541 26.4065 13.321C24.4899 12.6215 22.3603 12.6215 20.4437 13.321C20.0178 13.321 19.8048 13.5541 19.5919 14.0204C19.3789 14.4867 19.5919 14.9529 19.8048 15.1861L20.2307 15.6524C20.4437 16.3518 20.8696 16.5849 21.5085 16.3518C21.9344 16.1186 22.3603 16.1186 22.7862 16.1186V20.5483C21.9344 20.7815 21.0826 21.2477 20.6566 22.1803L16.8234 20.7815C17.0364 20.3152 17.2493 20.082 17.4623 19.6158C17.6752 19.1495 17.6752 18.45 17.4623 17.9838L16.8234 17.2843C16.8234 17.0512 16.3975 16.8181 15.9716 16.8181C15.5457 16.8181 15.3327 17.0512 15.1197 17.2843C14.9068 17.7506 14.4809 18.6832 14.055 19.3826C13.629 20.7815 13.2031 22.1803 13.2031 23.346C13.2031 23.8123 13.4161 24.2786 13.629 24.5117C13.842 24.7448 14.055 24.7448 14.4809 24.7448H14.9068L15.5457 24.5117C15.9716 24.2786 16.3975 23.8123 16.3975 23.346C16.3975 22.8797 16.3975 22.4134 16.6104 21.9472L20.4437 23.346V23.8123C20.4437 24.7448 20.6566 25.4443 21.2955 26.1437L18.953 29.8739C18.5271 29.6408 18.3141 29.1745 18.1012 28.9414C17.8882 28.4751 17.2493 28.242 16.8234 28.4751L15.9716 28.242C15.5457 28.4751 15.3327 28.7082 15.1197 29.1745C14.9068 29.6408 15.1197 30.1071 15.3327 30.3402C15.9716 31.2728 16.6104 31.9722 17.4623 32.6716C18.3141 33.371 19.1659 33.8373 20.0178 34.0705H20.4437C20.6566 34.0705 20.8696 34.0705 21.0826 33.8373C21.5085 33.6042 21.7214 33.1379 21.7214 32.6716V31.9722C21.7214 31.5059 21.5085 30.8065 20.8696 30.8065C20.4437 30.5734 20.0178 30.3402 19.8048 30.1071L22.1473 26.3768C22.5733 26.61 22.9992 26.61 23.4251 26.61C23.851 26.61 24.2769 26.3768 24.7028 26.3768L27.2583 30.1071C26.8324 30.3402 26.4065 30.5734 25.9806 30.8065C25.5547 31.0396 25.1288 31.5059 25.1288 31.9722V32.6716C25.1288 33.1379 25.3417 33.6042 25.5547 33.8373C25.7676 34.0705 25.9806 34.0705 26.1935 34.0705H26.6195C27.8972 33.6042 29.175 32.9048 30.2397 31.9722C30.6657 31.5059 31.3045 30.5734 31.5175 30.3402C31.7304 30.1071 31.7304 29.6408 31.7304 29.4077C31.7304 29.1745 31.3045 28.7082 31.0916 28.7082L30.2397 28.4751C29.8138 28.242 29.175 28.4751 28.749 28.9414C28.5361 29.1745 28.1102 29.6408 27.8972 29.8739L25.3417 25.9105C25.7676 25.4443 26.1935 24.5117 26.1935 23.5791V23.1129L30.2397 21.714C30.4527 22.1803 30.4527 22.8797 30.4527 23.5791C30.4527 24.0454 30.8786 24.7448 31.3045 24.7448L31.9434 24.978H32.3693C32.5823 24.978 32.7952 24.978 33.0082 24.7448C33.4341 24.5117 33.4341 24.0454 33.4341 23.5791C33.4341 21.714 32.7952 19.3826 31.7304 17.5175Z" fill="#CFDB6C"/>
</g>
</svg>
