<svg width="45" height="45" viewBox="0 0 45 45" fill="none" xmlns="http://www.w3.org/2000/svg">
<g clip-path="url(#clip0_996_10959)">
<g clip-path="url(#clip1_996_10959)">
<path d="M18.8058 7.52784H17.4043V6.00586H20.7259V13.0998H18.8058V7.52784Z" fill="white"/>
<path d="M9.08203 18.439C9.08203 16.3513 10.7048 14.9297 12.7019 14.9297C13.9395 14.9297 14.9173 15.3936 15.5096 16.2311L15.1876 16.4621C14.6675 15.7463 13.8255 15.3023 12.7019 15.3023C10.8815 15.3023 9.51848 16.6439 9.51848 18.439C9.51848 20.2341 10.8815 21.5748 12.7019 21.5748C13.7937 21.5748 14.7089 21.1312 15.2712 20.3544L15.5931 20.5764C14.9691 21.4536 13.929 21.9479 12.7019 21.9479C10.7048 21.9483 9.08203 20.5267 9.08203 18.439Z" fill="white"/>
<path d="M17.1645 15.0107H21.2935V15.3734H17.5896V19.0441H20.9078V19.4067H17.5896V21.5044H21.4388V21.8675H17.1641V15.0107H17.1645Z" fill="white"/>
<path d="M27.4187 21.8675H26.9091L25.4326 19.9109C25.1718 19.9715 24.8707 20.0013 24.5473 20.0013H23.5495V21.867H23.123V15.0107H24.5478C26.4622 15.0107 27.3674 16.1194 27.3674 17.5112C27.3674 18.5196 26.8782 19.3869 25.8486 19.7798L27.4187 21.8675ZM24.5065 19.6387C26.296 19.6387 26.93 18.6403 26.93 17.5112C26.93 16.3817 26.296 15.3734 24.5065 15.3734H23.55V19.6387H24.5065Z" fill="white"/>
<path d="M28.7598 18.439C28.7598 16.3513 30.3826 14.9297 32.3796 14.9297C34.3766 14.9297 35.9994 16.3518 35.9994 18.439C35.9994 20.5267 34.3766 21.9483 32.3796 21.9483C30.3826 21.9483 28.7598 20.5267 28.7598 18.439ZM35.562 18.439C35.562 16.6439 34.199 15.3023 32.3791 15.3023C30.5592 15.3023 29.1962 16.6439 29.1962 18.439C29.1962 20.2341 30.5592 21.5748 32.3791 21.5748C34.199 21.5748 35.562 20.2341 35.562 18.439Z" fill="white"/>
<path d="M9.48828 28.3561V23.7783H9.91476V28.3263C9.91476 29.6471 10.705 30.3534 11.87 30.3534C13.0245 30.3534 13.8361 29.6475 13.8361 28.3263V23.7783H14.2621V28.3561C14.2621 29.8994 13.2221 30.716 11.8695 30.716C10.507 30.716 9.48828 29.8994 9.48828 28.3561Z" fill="white"/>
<path d="M17.0183 25.029C16.8829 24.8576 16.6963 24.5755 16.6963 24.5755C16.6963 24.5755 16.7276 24.8884 16.7276 25.0896V30.6359H16.332V23.6982H16.4565L20.9815 29.3852C21.1163 29.5566 21.3039 29.8392 21.3039 29.8392C21.3039 29.8392 21.2726 29.5263 21.2726 29.3246V23.7787H21.6677V30.7164H21.5428L17.0183 25.029Z" fill="white"/>
<path d="M23.3301 27.2076C23.3301 25.1203 24.9524 23.6982 26.9494 23.6982C28.9465 23.6982 30.5688 25.1203 30.5688 27.2076C30.5688 29.2953 28.9465 30.7164 26.9494 30.7164C24.9524 30.7164 23.3301 29.2953 23.3301 27.2076ZM30.1318 27.2076C30.1318 25.4124 28.7698 24.0713 26.9494 24.0713C25.1291 24.0713 23.7661 25.412 23.7661 27.2076C23.7661 29.0022 25.1291 30.3438 26.9494 30.3438C28.7703 30.3438 30.1318 29.0022 30.1318 27.2076Z" fill="white"/>
<path d="M33.4685 24.5723H33.7463L31.6377 30.1622H31.3594L33.4685 24.5723Z" fill="white"/>
<path d="M12.7092 10.2556C13.0987 10.2556 13.4144 9.94087 13.4144 9.55261C13.4144 9.16435 13.0987 8.84961 12.7092 8.84961C12.3197 8.84961 12.0039 9.16435 12.0039 9.55261C12.0039 9.94087 12.3197 10.2556 12.7092 10.2556Z" fill="white"/>
<path d="M13.7969 9.55936V12.9357C15.233 12.4774 16.2731 11.1367 16.2731 9.55273C16.2731 9.38373 16.2603 9.21804 16.2375 9.05566H14.3017C14.0229 9.05614 13.7969 9.28148 13.7969 9.55936Z" fill="white"/>
<path d="M11.6208 9.54622V6.16992C10.1846 6.62865 9.14453 7.96885 9.14453 9.55284C9.14453 9.72185 9.15735 9.88754 9.18015 10.0499H11.1159C11.3947 10.0499 11.6208 9.82458 11.6208 9.54622Z" fill="white"/>
<path d="M12.7158 8.46879H16.1034C15.6436 7.03675 14.2987 6 12.7096 6C12.5401 6 12.3738 6.01278 12.2109 6.03551V7.96509C12.2109 8.24345 12.437 8.46879 12.7158 8.46879Z" fill="white"/>
<path d="M12.7035 10.6367H9.31641C9.7766 12.0683 11.1211 13.105 12.7102 13.105C12.8797 13.105 13.0459 13.0922 13.2088 13.0695V11.1399C13.2084 10.8621 12.9823 10.6367 12.7035 10.6367Z" fill="white"/>
<path d="M27.9216 34.3594H27.7715V35.3516H27.9216C28.3281 35.3516 28.5176 35.1945 28.5176 34.8574C28.5176 34.5175 28.3286 34.3594 27.9216 34.3594Z" fill="white"/>
<path d="M30.6303 34.335C30.1768 34.335 29.8477 34.6791 29.8477 35.153C29.8477 35.6269 30.1768 35.971 30.6303 35.971C31.082 35.971 31.4097 35.6269 31.4097 35.153C31.4097 34.6791 31.082 34.335 30.6303 34.335Z" fill="white"/>
<path d="M11.2864 34.3594H11.0879V35.9472H11.2864C11.8292 35.9472 12.128 35.665 12.128 35.1533C12.128 34.6415 11.8288 34.3594 11.2864 34.3594Z" fill="white"/>
<path d="M9 32.4102V38.0001H33.747V32.4102H9ZM11.3105 36.381H10.6076V33.9255H11.3105C12.0946 33.9255 12.6217 34.4188 12.6217 35.153C12.6212 35.8873 12.0946 36.381 11.3105 36.381ZM14.7047 36.381H13.0501V33.9255H14.6567V34.3591H13.5302V35.1549H14.5285V35.5819H13.5302V35.9469H14.7047V36.381ZM16.7293 36.381H15.1644V33.9255H15.6446V35.9469H16.7293V36.381V36.381ZM20.1853 35.8868C19.9625 36.2253 19.5997 36.4118 19.1632 36.4118C18.4433 36.4118 17.9004 35.8707 17.9004 35.153C17.9004 34.4373 18.4433 33.8976 19.1632 33.8976C19.6006 33.8976 19.9331 34.0623 20.1506 34.388L20.181 34.4335L19.8077 34.7L19.7754 34.6498C19.6438 34.4463 19.432 34.3383 19.1632 34.3383C18.714 34.3383 18.3877 34.6811 18.3877 35.153C18.3877 35.6269 18.714 35.9711 19.1632 35.9711C19.442 35.9711 19.6538 35.8589 19.8105 35.6274L19.8428 35.5796L20.2152 35.8409L20.1853 35.8868ZM22.2364 36.381H20.5818V33.9255H22.1885V34.3591H21.0619V35.1549H22.0602V35.5819H21.0619V35.9469H22.2364V36.381ZM24.686 36.4047H24.5592L23.2466 34.9954C23.2133 34.9599 23.1763 34.9168 23.1416 34.8761C23.1454 34.9272 23.1483 34.9821 23.1483 35.0323V36.3806H22.6957V33.9009H22.8258L24.1385 35.3069C24.1703 35.341 24.2064 35.3831 24.2401 35.4238C24.2363 35.3713 24.2334 35.3164 24.2334 35.27V33.925H24.686V36.4047ZM26.9248 34.3591H26.2267V36.381H25.7499V34.3591H25.0522V33.9255H26.9248V34.3591ZM28.5234 36.381L28.104 35.768C28.048 35.7737 27.9919 35.7784 27.935 35.7784H27.7706V36.381H27.2905V33.9255H27.935C28.6046 33.9255 29.0045 34.2739 29.0045 34.8572C29.0045 35.2151 28.8558 35.4726 28.5623 35.6236L29.0833 36.381H28.5234ZM30.6301 36.4118C29.9063 36.4118 29.3607 35.8707 29.3607 35.153C29.3607 34.4354 29.9063 33.8943 30.6301 33.8943C31.352 33.8943 31.8962 34.4354 31.8962 35.153C31.8962 35.8707 31.352 36.4118 30.6301 36.4118Z" fill="white"/>
</g>
</g>
<defs>
<clipPath id="clip0_996_10959">
<rect width="44.5049" height="44.5049" fill="white"/>
</clipPath>
<clipPath id="clip1_996_10959">
<rect width="27" height="32" fill="white" transform="translate(9 6)"/>
</clipPath>
</defs>
</svg>
