<svg width="45" height="45" viewBox="0 0 45 45" fill="none" xmlns="http://www.w3.org/2000/svg">
<g clip-path="url(#clip0_996_11086)">
<g clip-path="url(#clip1_996_11086)">
<path d="M18.8204 13.1812H20.7394V6.11035H17.4199V7.62717H18.8204V13.1812Z" fill="white"/>
<path d="M12.7192 22.0005C13.945 22.0005 14.9856 21.5074 15.6094 20.6342L15.2866 20.413C14.7264 21.1861 13.8111 21.6295 12.7192 21.6295C10.9009 21.6295 9.53833 20.2927 9.53833 18.5032C9.53833 16.7146 10.9009 15.3768 12.7192 15.3768C13.8424 15.3768 14.6846 15.8194 15.204 16.5337L15.5268 16.3023C14.9334 15.4668 13.9573 15.0059 12.7192 15.0059C10.7233 15.0059 9.10156 16.4226 9.10156 18.5032C9.10156 20.5828 10.7233 22.0005 12.7192 22.0005Z" fill="white"/>
<path d="M21.4495 21.5581H17.6041V19.4674H20.9188V19.1057H17.6041V15.4468H21.3043V15.0859H17.1777V21.9199H21.4495V21.5581Z" fill="white"/>
<path d="M23.561 20.0606H24.5571C24.8808 20.0606 25.1818 20.0312 25.441 19.9706L26.9175 21.9199H27.4265L25.8579 19.8402C26.8852 19.4472 27.3742 18.5832 27.3742 17.5788C27.3742 16.1914 26.4694 15.0859 24.5571 15.0859H23.1328V21.9208H23.561V20.0606V20.0606ZM23.561 15.4468H24.5162C26.3041 15.4468 26.9375 16.4522 26.9375 17.5788C26.9375 18.7044 26.3032 19.6988 24.5162 19.6988H23.561V15.4468Z" fill="white"/>
<path d="M32.3833 15.0059C30.3884 15.0059 28.7676 16.4226 28.7676 18.5032C28.7676 20.5837 30.3884 22.0014 32.3833 22.0014C34.3801 22.0014 36.0009 20.5846 36.0009 18.5032C35.9999 16.4226 34.3801 15.0059 32.3833 15.0059ZM32.3833 21.6295C30.564 21.6295 29.2034 20.2927 29.2034 18.5032C29.2034 16.7146 30.564 15.3768 32.3833 15.3768C34.2025 15.3768 35.5641 16.7137 35.5641 18.5032C35.5632 20.2927 34.2016 21.6295 32.3833 21.6295Z" fill="white"/>
<path d="M9.50781 23.8252V28.3885C9.50781 29.9264 10.5266 30.7408 11.8882 30.7408C13.2384 30.7408 14.2791 29.9273 14.2791 28.3885V23.8252H13.8527V28.3582C13.8527 29.6748 13.0428 30.3782 11.8892 30.3782C10.7251 30.3782 9.93509 29.6748 9.93509 28.3582V23.8252H9.50781Z" fill="white"/>
<path d="M21.5538 30.7406H21.6782V23.825H21.2841V29.3533C21.2841 29.5553 21.3154 29.8665 21.3154 29.8665C21.3154 29.8665 21.1274 29.5847 20.9936 29.4139L16.472 23.7451H16.3477V30.6598H16.7436V25.1325C16.7436 24.9305 16.7113 24.6183 16.7113 24.6183C16.7113 24.6183 16.8993 24.9002 17.0341 25.071L21.5538 30.7406Z" fill="white"/>
<path d="M23.3418 27.2424C23.3418 29.3229 24.9635 30.7397 26.9584 30.7397C28.9552 30.7397 30.576 29.3229 30.576 27.2424C30.576 25.1618 28.9552 23.7441 26.9584 23.7441C24.9626 23.7441 23.3418 25.1618 23.3418 27.2424ZM26.9575 24.116C28.7758 24.116 30.1383 25.4529 30.1383 27.2424C30.1383 29.031 28.7748 30.3687 26.9575 30.3687C25.1392 30.3687 23.7786 29.0319 23.7786 27.2424C23.7786 25.4538 25.1402 24.116 26.9575 24.116Z" fill="white"/>
<path d="M33.4721 24.6172L31.3633 30.1886H31.6415L33.7503 24.6172H33.4721Z" fill="white"/>
<path d="M10.917 12.7891C11.0443 12.2841 11.1858 11.7809 11.2674 11.264C11.3738 10.635 11.4345 9.9969 11.4326 9.35602C11.4554 8.71422 11.3908 8.07334 11.3063 7.43246L11.3538 7.42328C11.501 8.05498 11.632 8.69678 11.6738 9.34868C11.7251 10.0006 11.7118 10.6571 11.651 11.3099C11.5988 11.8791 11.5304 12.4539 11.3709 13.0067C11.8438 13.1967 12.3565 13.3023 12.8797 13.3023C13.0487 13.3023 13.2148 13.2876 13.38 13.2674C13.7048 12.3924 13.8833 11.454 13.8833 10.4753C13.8833 8.74177 13.3857 7.23964 12.5635 6.00195C10.673 6.14886 9 7.5913 9 9.63239C9 11.0326 9.80043 12.1684 10.917 12.7891Z" fill="white"/>
<path d="M20.0815 34.9372C20.0815 34.5919 19.8887 34.4561 19.4719 34.4561H19.3086V35.4119H19.4719C19.8954 35.4109 20.0815 35.2815 20.0815 34.9372Z" fill="white"/>
<path d="M15.6571 35.677C15.6571 35.4796 15.5195 35.3428 15.2821 35.3428H14.832V36.0149H15.3115C15.5242 36.0149 15.6571 35.8781 15.6571 35.677Z" fill="white"/>
<path d="M26.9154 35.2356C26.9154 34.7792 26.6591 34.4561 26.0979 34.4561H25.8672V36.016H26.0979C26.6591 36.0151 26.9154 35.6919 26.9154 35.2356Z" fill="white"/>
<path d="M23.9716 35.3354C23.8975 35.1628 23.8197 34.8965 23.8197 34.8965C23.8197 34.8965 23.7456 35.1628 23.6706 35.3354L23.4883 35.7596H24.1539L23.9716 35.3354Z" fill="white"/>
<path d="M15.5138 34.6856C15.5138 34.5451 15.4208 34.4561 15.2613 34.4561H14.834V34.9161H15.2356C15.4018 34.9151 15.5138 34.8252 15.5138 34.6856Z" fill="white"/>
<path d="M9.19922 38.0002H34.4531V32.4287H9.19922V38.0002ZM30.8668 34.0135H31.5657C32.2721 34.0135 32.6956 34.3403 32.6956 34.9371C32.6956 35.3182 32.5209 35.5587 32.2085 35.6956L32.7326 36.4576H32.1306L31.7147 35.8397C31.6663 35.8471 31.6141 35.8507 31.5657 35.8507H31.3872V36.4576H30.8668V34.0135V34.0135ZM29.1159 33.9813C29.8442 33.9813 30.4244 34.513 30.4244 35.2356C30.4244 35.9582 29.8452 36.4898 29.1159 36.4898C28.3877 36.4898 27.8075 35.9582 27.8075 35.2356C27.8075 34.513 28.3877 33.9813 29.1159 33.9813ZM25.3474 34.0135H26.1241C26.9008 34.0135 27.4543 34.513 27.4543 35.2356C27.4543 35.9582 26.9046 36.4576 26.1241 36.4576H25.3474V34.0135ZM23.85 33.9914L25.0056 36.4567H24.4596L24.3409 36.1803H23.3154L23.1968 36.4567H22.6954L23.8063 33.9914H23.85ZM20.8885 34.0135H22.8502V34.4551H22.1295V36.4567H21.6092V34.4551H20.8885V34.0135V34.0135ZM18.7882 34.0135H19.4871C20.1935 34.0135 20.617 34.3403 20.617 34.9371C20.617 35.3182 20.4423 35.5587 20.1299 35.6956L20.654 36.4576H20.052L19.6361 35.8397C19.5877 35.8471 19.5355 35.8507 19.4871 35.8507H19.3086V36.4576H18.7882V34.0135V34.0135ZM16.5806 34.0135H18.2527V34.4551H17.101V35.231H18.116V35.6625H17.101V36.0151H18.3049V36.4567H16.5806V34.0135ZM14.3142 34.0135H15.2912C15.7631 34.0135 16.0271 34.3009 16.0271 34.6461C16.0271 34.8729 15.8894 35.0271 15.6701 35.0951C16.0157 35.174 16.1828 35.3971 16.1828 35.702C16.1828 36.1372 15.8628 36.4567 15.3358 36.4567H14.3142V34.0135ZM13.2583 34.0135H13.7787V36.4567H13.2583V34.0135ZM11.1628 34.0135H11.6831V36.0151H12.8273V36.4567H11.1628V34.0135Z" fill="white"/>
<path d="M32.1596 34.9372C32.1596 34.5919 31.9669 34.4561 31.55 34.4561H31.3867V35.4119H31.55C31.9735 35.4109 32.1596 35.2815 32.1596 34.9372Z" fill="white"/>
<path d="M29.1147 36.0402C29.5752 36.0402 29.8876 35.6912 29.8876 35.2349C29.8876 34.7786 29.5752 34.4297 29.1147 34.4297C28.6542 34.4297 28.3418 34.7786 28.3418 35.2349C28.3418 35.6922 28.6542 36.0402 29.1147 36.0402Z" fill="white"/>
<path d="M16.3935 8.04843C15.7858 6.85849 14.5201 6.08539 13.1367 6C13.7795 7.04763 14.2011 8.26696 14.3264 9.63503C14.7024 9.21267 15.3567 8.61403 16.3935 8.04843Z" fill="white"/>
<path d="M14.3646 10.3554C14.3646 10.3958 14.3684 10.4353 14.3684 10.4757C14.3684 11.4113 14.2146 12.313 13.9316 13.1613C15.5107 12.7399 16.7735 11.393 16.7735 9.63099C16.7735 9.22149 16.7032 8.83769 16.5807 8.48145C15.1252 9.28484 14.507 10.136 14.3646 10.3554Z" fill="white"/>
</g>
</g>
<defs>
<clipPath id="clip0_996_11086">
<rect width="44.5049" height="44.5049" fill="white"/>
</clipPath>
<clipPath id="clip1_996_11086">
<rect width="27" height="32" fill="white" transform="translate(9 6)"/>
</clipPath>
</defs>
</svg>
