<svg width="45" height="45" viewBox="0 0 45 45" fill="none" xmlns="http://www.w3.org/2000/svg">
<g clip-path="url(#clip0_996_10830)">
<path d="M10.5873 8.54297C10.409 8.70086 10.2341 8.86201 10.068 9.03211C9.3917 9.72391 8.83093 10.5248 8.40039 11.4078L12.3803 15.3877L8.42074 19.3472C8.85454 20.2278 9.41693 21.0303 10.0941 21.7262C10.2601 21.8963 10.4343 22.0591 10.6125 22.217L17.4369 15.3926L10.5873 8.54297Z" fill="white"/>
<path d="M31.5039 24.4744H36.4043V6.31348H27.9277V10.2103H31.5039V24.4744Z" fill="white"/>
<path d="M17.3944 10.1752C20.1136 10.1752 22.2231 12.1228 22.2231 15.3596C22.2231 18.5948 20.1136 20.6124 17.3944 20.6124C16.5699 20.6124 15.8033 20.4146 15.131 20.0565L11.9609 23.2266C13.5594 24.222 15.4476 24.7876 17.3944 24.7876C22.5829 24.7876 27.3392 20.8557 27.3392 15.3596C27.3392 9.82686 22.5829 6 17.3944 6C15.4395 6 13.5439 6.55507 11.9414 7.54149L15.1212 10.7213C15.7951 10.3681 16.5659 10.1752 17.3944 10.1752Z" fill="white"/>
<path d="M13.7688 30.1734C13.5271 29.9959 13.2341 29.8454 12.889 29.7209C12.5439 29.5963 12.1581 29.4889 11.7316 29.3961C11.4761 29.3391 11.2645 29.2846 11.0968 29.2309C10.93 29.178 10.7981 29.1243 10.7021 29.0714C10.606 29.0177 10.5385 28.9599 10.4994 28.8956C10.4604 28.8321 10.4408 28.7572 10.4408 28.6718V28.6506C10.4408 28.5155 10.5027 28.4024 10.6272 28.3096C10.7517 28.2176 10.9381 28.1712 11.1872 28.1712C11.5208 28.1712 11.8676 28.2339 12.2273 28.3576C12.5862 28.4821 12.9362 28.6652 13.278 28.907L14.3125 27.4412C13.9071 27.1124 13.4538 26.8633 12.9525 26.6957C12.4511 26.5272 11.8806 26.4434 11.2409 26.4434C10.7932 26.4434 10.3912 26.502 10.0355 26.6192C9.67985 26.7364 9.37627 26.9016 9.12397 27.114C8.87166 27.3272 8.67959 27.5787 8.54774 27.8701C8.41589 28.1606 8.35078 28.4805 8.35078 28.828V28.8492C8.35078 29.2325 8.42322 29.554 8.56972 29.8128C8.7154 30.0716 8.9148 30.2881 9.1671 30.4623C9.41941 30.6365 9.71647 30.7781 10.0575 30.888C10.3985 30.9978 10.768 31.0988 11.1668 31.1915C11.4224 31.2485 11.6307 31.303 11.7911 31.3568C11.9514 31.4105 12.0792 31.465 12.1752 31.522C12.2712 31.5789 12.3372 31.6375 12.3722 31.6978C12.408 31.758 12.4259 31.8272 12.4259 31.9053V31.9265C12.4259 32.0901 12.3526 32.2162 12.2069 32.3049C12.0613 32.3936 11.8497 32.4376 11.5721 32.4376C10.7045 32.4376 9.89797 32.1389 9.15164 31.5415L8 32.9202C8.46228 33.3353 8.99375 33.6462 9.59439 33.8537C10.195 34.0613 10.8299 34.1646 11.4981 34.1646C11.953 34.1646 12.3657 34.1093 12.7352 33.9994C13.1047 33.8895 13.4213 33.73 13.6841 33.52C13.947 33.3109 14.1513 33.0569 14.297 32.7591C14.4427 32.4612 14.5159 32.1202 14.5159 31.7368V31.7157C14.5159 31.3681 14.4516 31.0678 14.3238 30.8163C14.1961 30.5657 14.0105 30.3508 13.7688 30.1734Z" fill="white"/>
<path d="M18.056 29.2924L16.5211 26.5732H14.1641L17.0004 31.2441V34.0381H19.0799V31.2124L21.9171 26.5732H19.6024L18.056 29.2924Z" fill="white"/>
<path d="M27.2502 30.5189L24.1721 26.5732H22.2383V34.0381H24.2746V29.9427L27.4707 34.0381H29.2873V26.5732H27.2502V30.5189Z" fill="white"/>
<path d="M35.1218 31.3932C35.0078 31.5283 34.8923 31.6512 34.7751 31.7611C34.6579 31.8718 34.5334 31.967 34.4015 32.0492C34.2697 32.1314 34.124 32.1933 33.9645 32.2356C33.8041 32.2779 33.6283 32.2999 33.4362 32.2999C33.1734 32.2999 32.9333 32.2486 32.7168 32.1452C32.4995 32.0419 32.3131 31.9019 32.1568 31.7236C32.0006 31.5462 31.8777 31.3346 31.789 31.0888C31.7002 30.8438 31.6555 30.5826 31.6555 30.3051V30.2839C31.6555 30.0137 31.6994 29.7581 31.789 29.5164C31.8777 29.2747 32.0006 29.0647 32.1568 28.8873C32.3131 28.7099 32.4995 28.5691 32.7168 28.4657C32.9333 28.3623 33.1734 28.3111 33.4362 28.3111C33.7984 28.3111 34.1077 28.3892 34.3641 28.5455C34.6196 28.7017 34.8548 28.915 35.0681 29.1852L36.625 27.9798C36.4614 27.7527 36.2751 27.5427 36.0651 27.3507C35.8551 27.1586 35.6207 26.9934 35.3611 26.855C35.1014 26.7167 34.815 26.61 34.5024 26.5352C34.1899 26.4603 33.8416 26.4229 33.4574 26.4229C32.8885 26.4229 32.3644 26.5221 31.8842 26.7215C31.404 26.9209 30.9897 27.196 30.6414 27.5476C30.293 27.8992 30.0196 28.3119 29.8202 28.7847C29.6208 29.2576 29.5215 29.7638 29.5215 30.3042V30.3254C29.5215 30.8797 29.6224 31.394 29.8251 31.8661C30.0277 32.3389 30.3012 32.7475 30.6463 33.0926C30.9914 33.4377 31.3983 33.7054 31.8671 33.8975C32.3367 34.0896 32.8372 34.1856 33.3711 34.1856C33.783 34.1856 34.1549 34.1433 34.4853 34.0579C34.8158 33.9724 35.1145 33.8552 35.3814 33.7063C35.6484 33.5573 35.886 33.3791 36.096 33.1732C36.306 32.9673 36.4997 32.7434 36.6771 32.5017L35.1218 31.3932Z" fill="white"/>
<path d="M9.17197 36.1143L8.20508 38.2133H8.45087L8.70236 37.6623H9.85644L10.1047 38.2133H10.3619L9.39497 36.1143H9.17197ZM8.79595 37.4539L9.28103 36.391L9.76284 37.4539H8.79595Z" fill="white"/>
<path d="M13.6811 37.2706C13.5688 37.1795 13.3946 37.1078 13.1586 37.0558C13.0414 37.0322 12.9454 37.0069 12.8705 36.9801C12.7956 36.9532 12.737 36.9231 12.6947 36.8905C12.6524 36.858 12.6231 36.8214 12.6068 36.7815C12.5905 36.7416 12.5824 36.6968 12.5824 36.6472C12.5824 36.5992 12.593 36.5544 12.6141 36.5129C12.6353 36.4714 12.6654 36.4356 12.7053 36.4055C12.7443 36.3754 12.7924 36.3517 12.8477 36.3338C12.9031 36.3159 12.9657 36.307 13.0341 36.307C13.1432 36.307 13.2481 36.3249 13.3474 36.3607C13.4475 36.3965 13.5468 36.4543 13.6461 36.5332L13.7853 36.3517C13.6762 36.2671 13.5639 36.2036 13.4475 36.1621C13.3312 36.1198 13.1952 36.0986 13.0398 36.0986C12.9389 36.0986 12.8461 36.1133 12.7614 36.1418C12.6768 36.1703 12.6027 36.2101 12.5401 36.2606C12.4774 36.3111 12.4286 36.3713 12.3944 36.4413C12.3602 36.5105 12.3431 36.587 12.3431 36.6708C12.3431 36.7579 12.3569 36.8336 12.3854 36.897C12.4139 36.9605 12.457 37.0167 12.5156 37.0639C12.5742 37.1119 12.6491 37.1526 12.7387 37.186C12.829 37.2202 12.9348 37.2495 13.0561 37.2755C13.1676 37.2991 13.2587 37.3243 13.3312 37.3504C13.4028 37.3764 13.4589 37.4049 13.4996 37.4367C13.5403 37.4684 13.5688 37.5034 13.5851 37.5425C13.6014 37.5815 13.6095 37.6255 13.6095 37.6751C13.6095 37.7825 13.5664 37.8688 13.4809 37.9347C13.3946 38.0007 13.2807 38.0332 13.1366 38.0332C12.9893 38.0332 12.8591 38.0088 12.746 37.96C12.6328 37.9111 12.5205 37.8371 12.4098 37.7386L12.2617 37.9111C12.3887 38.0235 12.523 38.1073 12.663 38.161C12.8038 38.2147 12.9584 38.2416 13.1285 38.2416C13.2335 38.2416 13.3303 38.2277 13.4191 38.2001C13.5078 38.1724 13.5843 38.1325 13.6469 38.0804C13.7096 38.0292 13.7593 37.9665 13.7951 37.8924C13.8309 37.8192 13.8488 37.737 13.8488 37.6483C13.8496 37.4879 13.7934 37.3618 13.6811 37.2706Z" fill="white"/>
<path d="M17.4889 37.3408C17.4889 37.5687 17.4311 37.7404 17.3164 37.856C17.2016 37.9707 17.0453 38.0285 16.85 38.0285C16.6457 38.0285 16.487 37.9683 16.3731 37.847C16.2591 37.7257 16.2022 37.5524 16.2022 37.3261V36.1297H15.9629V37.3416C15.9629 37.4881 15.9841 37.6183 16.0264 37.7314C16.0687 37.8446 16.1289 37.9398 16.2071 38.0155C16.2852 38.092 16.378 38.1498 16.4862 38.188C16.5945 38.2271 16.7141 38.2458 16.8451 38.2458C16.9786 38.2458 17.0991 38.2263 17.2073 38.188C17.3156 38.149 17.4083 38.0912 17.4857 38.0139C17.5638 37.9365 17.6232 37.8405 17.6663 37.7249C17.7087 37.6102 17.7298 37.4759 17.7298 37.3229V36.1289H17.4905V37.3408H17.4889Z" fill="white"/>
<path d="M21.5161 37.799L20.1797 36.1289H19.9551V38.2133H20.1887V36.5041L21.5584 38.2133H21.7489V36.1289H21.5161V37.799Z" fill="white"/>
<path d="M25.3603 37.9528C25.2553 38.0057 25.13 38.0318 24.9843 38.0318C24.8671 38.0318 24.7589 38.0098 24.6588 37.965C24.5587 37.9203 24.4716 37.8592 24.3983 37.7819C24.3243 37.7046 24.2673 37.6134 24.2258 37.5084C24.1843 37.4034 24.1639 37.2903 24.1639 37.169C24.1639 37.0478 24.1843 36.9355 24.2258 36.8313C24.2673 36.7271 24.3251 36.636 24.3983 36.5586C24.4724 36.4813 24.5587 36.4211 24.6588 36.3771C24.7589 36.3332 24.8671 36.3112 24.9843 36.3112C25.13 36.3112 25.2545 36.3381 25.3587 36.3918C25.4629 36.4455 25.5605 36.5139 25.6509 36.5969L25.8145 36.4243C25.7616 36.3747 25.707 36.3299 25.6509 36.2892C25.5947 36.2485 25.5329 36.2136 25.4661 36.1851C25.3994 36.1566 25.327 36.1338 25.2496 36.1183C25.1715 36.102 25.0844 36.0947 24.9876 36.0947C24.8321 36.0947 24.6889 36.1232 24.557 36.1794C24.426 36.2355 24.3129 36.3137 24.2176 36.4113C24.1224 36.5098 24.0484 36.6237 23.9946 36.7548C23.9409 36.8858 23.9141 37.0258 23.9141 37.1747C23.9141 37.3253 23.9409 37.4661 23.9946 37.5971C24.0484 37.7282 24.1224 37.8421 24.2176 37.9382C24.3129 38.0342 24.4244 38.1107 24.5538 38.166C24.6832 38.2214 24.8248 38.2491 24.9778 38.2491C25.0747 38.2491 25.1626 38.2401 25.2415 38.2222C25.3204 38.2043 25.3937 38.1799 25.4629 38.1481C25.5312 38.1164 25.5955 38.0781 25.655 38.0334C25.7144 37.9886 25.7713 37.939 25.8259 37.8828L25.668 37.7306C25.5679 37.8258 25.4653 37.8999 25.3603 37.9528Z" fill="white"/>
<path d="M28.1651 36.1289H27.9258V38.2124H28.1651V36.1289Z" fill="white"/>
<path d="M32.2175 36.4136C32.1222 36.3151 32.0091 36.2378 31.8764 36.18C31.7438 36.1222 31.5973 36.0938 31.4353 36.0938C31.2734 36.0938 31.1261 36.123 30.9926 36.1816C30.8591 36.2402 30.7452 36.3192 30.6499 36.4185C30.5547 36.5178 30.4815 36.6325 30.4286 36.7628C30.3757 36.893 30.3496 37.0305 30.3496 37.1754C30.3496 37.3203 30.3757 37.4578 30.4269 37.588C30.4782 37.7183 30.5515 37.8322 30.6467 37.9307C30.7419 38.0292 30.855 38.1065 30.9877 38.1643C31.1204 38.222 31.2669 38.2505 31.4288 38.2505C31.5908 38.2505 31.7381 38.2212 31.8716 38.1626C32.005 38.104 32.119 38.0251 32.2142 37.9258C32.3094 37.8265 32.3827 37.7117 32.4356 37.5823C32.4885 37.4521 32.5145 37.3146 32.5145 37.1697C32.5145 37.0248 32.4885 36.8873 32.4372 36.7571C32.3859 36.626 32.3127 36.5113 32.2175 36.4136ZM32.2044 37.5091C32.1629 37.6133 32.106 37.7044 32.0335 37.7817C31.9611 37.8591 31.8732 37.9201 31.7715 37.9649C31.6697 38.0096 31.5582 38.0316 31.437 38.0316C31.3157 38.0316 31.2042 38.0088 31.1024 37.9632C31.0007 37.9177 30.912 37.8558 30.8371 37.7785C30.7622 37.7012 30.7045 37.61 30.663 37.505C30.6214 37.4 30.6011 37.2877 30.6011 37.1689C30.6011 37.0501 30.6214 36.9386 30.663 36.8344C30.7045 36.7302 30.7614 36.639 30.8339 36.5617C30.9063 36.4844 30.9942 36.4234 31.0959 36.3786C31.1977 36.3338 31.3092 36.3119 31.4304 36.3119C31.5517 36.3119 31.6632 36.3347 31.7649 36.3802C31.8667 36.4258 31.9554 36.4877 32.0303 36.565C32.1051 36.6423 32.1629 36.7335 32.2044 36.8384C32.2459 36.9434 32.2663 37.0558 32.2663 37.1746C32.2663 37.2934 32.2459 37.4049 32.2044 37.5091Z" fill="white"/>
<path d="M31.8842 35.6234L31.6416 35.5127L31.3535 35.9449H31.5415L31.8842 35.6234Z" fill="white"/>
<path d="M36.2399 36.1289V37.799L34.9035 36.1289H34.6797V38.2133H34.9125V36.5041L36.2822 38.2133H36.4735V36.1289H36.2399Z" fill="white"/>
</g>
<defs>
<clipPath id="clip0_996_10830">
<rect width="44.5049" height="44.5049" fill="white"/>
</clipPath>
</defs>
</svg>
