<svg width="45" height="45" viewBox="0 0 45 45" fill="none" xmlns="http://www.w3.org/2000/svg">
	<g>
	<path fill="#FFFFFF" d="M17.4,21c-1.5,0-3,0-4.5,0c-1.1,0-1.8-0.7-1.8-1.8c0-0.1,0-0.2,0-0.3c-0.1-0.7,0-1.2,0.6-1.7
		c0.9-0.8,1.1-1.9,1.2-3c0.1-1,0-2-0.3-3c-0.1-0.2,0-0.3,0.2-0.5c1.2-0.7,2.4-1.4,3.6-2c0.6-0.3,1.2-0.3,1.8,0
		c1.5,0.8,3,1.7,4.5,2.5c0.7,0.4,1,0.9,1,1.7c0,2.1,0,4.2,0,6.2c0,1.1-0.7,1.8-1.8,1.8C20.4,21,18.9,21,17.4,21L17.4,21z M14.9,12.2
		C14.9,12.2,14.9,12.2,14.9,12.2c0.3,0,0.6,0,0.9,0.1c3,0.5,5.1,2.8,5.5,5.9c0,0.4,0.2,0.5,0.5,0.5c0.3,0,0.5-0.2,0.4-0.6
		c0-0.4-0.1-0.8-0.2-1.1c-0.8-3.5-4.2-6-7.7-5.7c-0.4,0-0.5,0.2-0.5,0.5c0,0.3,0.2,0.5,0.6,0.5C14.5,12.2,14.7,12.2,14.9,12.2
		L14.9,12.2z M14.9,13.3c-0.1,0-0.3,0-0.4,0c-0.4,0-0.6,0.2-0.6,0.5c0,0.3,0.3,0.5,0.7,0.5c2.1-0.1,4,1.3,4.5,3.4
		c0.1,0.2,0.1,0.5,0.1,0.7c0.1,0.3,0.3,0.4,0.5,0.4c0.3,0,0.4-0.2,0.4-0.5c0-0.2,0-0.3,0-0.5C19.8,15.3,17.6,13.3,14.9,13.3
		L14.9,13.3z M14.8,17.4c-0.7,0-1.3,0.6-1.3,1.3c0,0.7,0.6,1.3,1.3,1.3c0.7,0,1.3-0.6,1.3-1.3C16.1,18,15.5,17.4,14.8,17.4z
		 M14.8,15.3c0,0-0.1,0-0.2,0c-0.4,0-0.6,0.2-0.6,0.5c0,0.3,0.2,0.5,0.6,0.5c1.4,0,2.2,0.8,2.5,2.1c0.1,0.3,0.3,0.6,0.6,0.5
		c0.3,0,0.5-0.3,0.4-0.7C18,16.6,16.5,15.4,14.8,15.3z"/>
	<path fill="#FFFFFF" d="M9.7,17.6c0-1,0-1.9,0-2.8c0-0.4,0-0.7,0-1.1c0-0.3-0.1-0.5-0.4-0.5c-0.3,0-0.4,0.2-0.4,0.5
		c0,1.2,0,2.3,0,3.5c0,0.1,0,0.3,0,0.5c-0.6,0-1-0.3-1.4-0.6c-0.8-0.8-1.1-1.8-1.2-2.9c-0.2-2,0.4-3.8,1.2-5.5
		c0.3-0.7,0.8-1.4,1.2-2.1c0,0,0.1-0.1,0.1-0.1c0.5-0.6,0.7-0.6,1.2,0c0.8,1,1.3,2.1,1.7,3.2c0.6,1.5,0.9,3,0.8,4.6
		c-0.1,0.9-0.4,1.8-1,2.6C10.8,17.2,10.3,17.5,9.7,17.6z"/>
	<path fill="#FFFFFF" d="M23.2,10.5c-0.1,0-0.2-0.1-0.3-0.1c-1-0.6-2-1.1-2.9-1.7c-0.1-0.1-0.3-0.3-0.3-0.4c-0.3-1.1,0-2.1,0.9-2.8
		c0.1-0.1,0.3-0.1,0.4-0.1C22.6,6,24,7.2,25.1,8.7c0.1,0.1,0.1,0.3,0,0.3c-0.4,0.7-1,1.2-1.8,1.4C23.3,10.5,23.3,10.5,23.2,10.5
		L23.2,10.5z"/>
	<path fill="#FFFFFF" d="M13.1,5.8c2.2-1.1,4.4-1.4,6.8-0.8c-0.3,0.5-0.6,0.9-0.8,1.5c-0.2,0.5-0.2,1-0.3,1.6
		c-1.3-0.9-2.5-0.4-3.7,0.5C14.6,7.5,14.1,6.5,13.1,5.8L13.1,5.8z"/>
	<path fill="#FFFFFF" d="M24.5,19.4v-5.9c0.8,0.1,1.5,0.4,2,1c0.1,0.1,0.1,0.3,0.1,0.4c-0.2,1.6-0.7,3-1.7,4.3
		C24.8,19.3,24.7,19.4,24.5,19.4C24.5,19.4,24.5,19.4,24.5,19.4L24.5,19.4z"/>
	<path fill="#FFFFFF" d="M22.1,21.7c-2.7,1.7-6.6,1.7-9.3,0H22.1z"/>
	<path fill="#FFFFFF" d="M12.4,10c-0.4-0.9-0.7-1.8-1.2-2.8C11.6,7,12,6.7,12.3,6.5c0.3-0.2,0.5-0.1,0.8,0.1c0.6,0.6,1,1.4,1.4,2.2
		C13.8,9.2,13.1,9.6,12.4,10L12.4,10z"/>
	<path fill="#FFFFFF" d="M25.2,12.9c-0.2,0-0.5-0.1-0.7-0.1c-0.1-0.4-0.1-0.7-0.2-1c-0.1-0.3-0.3-0.6-0.4-0.8
		c0.6-0.5,1.2-0.9,1.8-1.4c0.2,0.5,0.4,1.1,0.6,1.7c0,0.1,0,0.2-0.1,0.2C25.7,11.9,25.4,12.3,25.2,12.9L25.2,12.9z"/>
	<path fill="#FFFFFF" d="M25.8,13.1c0.2-0.3,0.4-0.6,0.6-1c0,0,0.1,0,0.1,0c0,0.5,0.1,0.9,0.2,1.5C26.4,13.5,26.1,13.3,25.8,13.1
		L25.8,13.1z"/>
	<path fill="#FFFFFF" d="M9.7,18.2c0.2,0,0.4-0.1,0.6-0.1v1.2C10,19.1,9.7,18.6,9.7,18.2z"/>
	<path fill="#FFFFFF" d="M13.4,31.3l-1.9-5.2H9l3.3,8.2h2.1l3.3-8.2h-2.5L13.4,31.3z"/>
	<path fill="#FFFFFF" d="M20.9,26.2h-2.3v8.2h2.3V26.2z"/>
	<path fill="#FFFFFF" d="M24.3,26.2H22v8.2h6.2v-2h-4V26.2z"/>
	<path fill="#FFFFFF" d="M34.8,26.1h-2.2l-3.5,8.2h2.4l0.6-1.5h3.2l0.6,1.5h2.4L34.8,26.1L34.8,26.1z M32.8,31.1l0.9-2.3l0.9,2.3
		H32.8z"/>
	<path fill="#FFFFFF" d="M31.7,23.7h5.1V4.6h-7.9v4.3h2.7V23.7z"/>
	<path fill="#FFFFFF" d="M12.2,39.8h-0.6L11.3,39H9.9l-0.3,0.7H9.1l1.3-3h0.5L12.2,39.8z M10.6,37.4l-0.5,1.2h1L10.6,37.4L10.6,37.4
		z"/>
	<path fill="#FFFFFF" d="M13.9,37.7c0,0,0.1,0.1,0.1,0.1c0.1,0,0.1,0.1,0.2,0.1c0.1,0,0.2,0.1,0.4,0.1c0.2,0,0.3,0.1,0.4,0.1
		s0.2,0.1,0.3,0.2c0.1,0.1,0.1,0.1,0.2,0.2c0,0.1,0.1,0.2,0.1,0.3c0,0.1,0,0.3-0.1,0.4c-0.1,0.1-0.1,0.2-0.2,0.3
		c-0.1,0.1-0.2,0.1-0.3,0.2c-0.1,0-0.3,0.1-0.4,0.1c-0.2,0-0.4,0-0.7-0.1c-0.2-0.1-0.4-0.2-0.6-0.4l0.3-0.4c0.1,0.1,0.3,0.2,0.4,0.3
		c0.1,0.1,0.3,0.1,0.5,0.1c0.2,0,0.3,0,0.4-0.1c0.1-0.1,0.1-0.2,0.1-0.3c0-0.1,0-0.1,0-0.1c0,0-0.1-0.1-0.1-0.1c0,0-0.1-0.1-0.2-0.1
		c-0.1,0-0.2-0.1-0.3-0.1c-0.2,0-0.3-0.1-0.4-0.1c-0.1,0-0.2-0.1-0.3-0.2c-0.1-0.1-0.1-0.1-0.2-0.2c0-0.1-0.1-0.2-0.1-0.4
		c0-0.1,0-0.2,0.1-0.4c0-0.1,0.1-0.2,0.2-0.3c0.1-0.1,0.2-0.1,0.3-0.2c0.1,0,0.3-0.1,0.4-0.1c0.2,0,0.4,0,0.6,0.1
		c0.2,0.1,0.3,0.2,0.5,0.3l-0.3,0.4c-0.1-0.1-0.3-0.2-0.4-0.2c-0.1-0.1-0.3-0.1-0.4-0.1c-0.2,0-0.3,0-0.4,0.1
		c-0.1,0.1-0.1,0.2-0.1,0.3C13.9,37.6,13.9,37.7,13.9,37.7L13.9,37.7z"/>
	<path fill="#FFFFFF" d="M19.5,38.5c0,0.2,0,0.4-0.1,0.6s-0.1,0.3-0.3,0.4c-0.1,0.1-0.2,0.2-0.4,0.2c-0.2,0.1-0.3,0.1-0.5,0.1
		c-0.2,0-0.4,0-0.5-0.1c-0.2-0.1-0.3-0.1-0.4-0.2c-0.1-0.1-0.2-0.2-0.3-0.4C17,38.9,17,38.7,17,38.5v-1.7h0.5v1.7
		c0,0.3,0.1,0.5,0.2,0.6c0.1,0.1,0.3,0.2,0.6,0.2c0.2,0,0.4-0.1,0.6-0.2c0.1-0.1,0.2-0.3,0.2-0.6v-1.7h0.5L19.5,38.5L19.5,38.5z"/>
	<path fill="#FFFFFF" d="M23.1,36.8h0.5v3h-0.4l-1.6-2.1v2.1H21v-3h0.5l1.6,2V36.8z"/>
	<path fill="#FFFFFF" d="M27.5,39.5c-0.1,0.1-0.2,0.1-0.3,0.2c-0.1,0-0.2,0.1-0.3,0.1c-0.1,0-0.2,0-0.4,0c-0.2,0-0.4,0-0.6-0.1
		c-0.2-0.1-0.3-0.2-0.5-0.3c-0.1-0.1-0.2-0.3-0.3-0.5c-0.1-0.2-0.1-0.4-0.1-0.6c0-0.2,0-0.4,0.1-0.6c0.1-0.2,0.2-0.3,0.3-0.5
		c0.1-0.1,0.3-0.2,0.5-0.3c0.2-0.1,0.4-0.1,0.6-0.1c0.1,0,0.3,0,0.4,0c0.1,0,0.2,0.1,0.3,0.1c0.1,0,0.2,0.1,0.3,0.1
		c0.1,0.1,0.2,0.1,0.2,0.2l-0.3,0.4c-0.1-0.1-0.2-0.2-0.4-0.3c-0.1-0.1-0.3-0.1-0.5-0.1c-0.1,0-0.3,0-0.4,0.1
		c-0.1,0.1-0.2,0.1-0.3,0.2c-0.1,0.1-0.2,0.2-0.2,0.3c0,0.1-0.1,0.3-0.1,0.4c0,0.1,0,0.3,0.1,0.4c0,0.1,0.1,0.2,0.2,0.3
		c0.1,0.1,0.2,0.2,0.3,0.2c0.1,0.1,0.3,0.1,0.4,0.1c0.2,0,0.3,0,0.5-0.1c0.1-0.1,0.3-0.2,0.4-0.3l0.3,0.3
		C27.7,39.4,27.6,39.4,27.5,39.5L27.5,39.5z"/>
	<path fill="#FFFFFF" d="M29.7,36.8v3h-0.5v-3H29.7z"/>
	<path fill="#FFFFFF" d="M34.2,38.9c-0.1,0.2-0.2,0.3-0.3,0.5c-0.1,0.1-0.3,0.3-0.5,0.3c-0.2,0.1-0.4,0.1-0.6,0.1
		c-0.2,0-0.4,0-0.6-0.1c-0.2-0.1-0.4-0.2-0.5-0.3c-0.1-0.1-0.2-0.3-0.3-0.5c-0.1-0.2-0.1-0.4-0.1-0.6c0-0.2,0-0.4,0.1-0.6
		c0.1-0.2,0.2-0.3,0.3-0.5c0.1-0.1,0.3-0.3,0.5-0.3c0.2-0.1,0.4-0.1,0.6-0.1c0.2,0,0.4,0,0.6,0.1c0.2,0.1,0.4,0.2,0.5,0.3
		c0.1,0.1,0.2,0.3,0.3,0.5c0.1,0.2,0.1,0.4,0.1,0.6C34.3,38.5,34.2,38.7,34.2,38.9z M33.7,37.9c0-0.1-0.1-0.2-0.2-0.3
		c-0.1-0.1-0.2-0.2-0.3-0.2c-0.1-0.1-0.3-0.1-0.4-0.1c-0.1,0-0.3,0-0.4,0.1c-0.1,0.1-0.2,0.1-0.3,0.2c-0.1,0.1-0.2,0.2-0.2,0.3
		c0,0.1-0.1,0.3-0.1,0.4c0,0.1,0,0.3,0.1,0.4c0,0.1,0.1,0.2,0.2,0.3c0.1,0.1,0.2,0.2,0.3,0.2c0.1,0.1,0.3,0.1,0.4,0.1
		c0.1,0,0.3,0,0.4-0.1c0.1-0.1,0.2-0.1,0.3-0.2c0.1-0.1,0.2-0.2,0.2-0.3c0-0.1,0.1-0.3,0.1-0.4C33.7,38.1,33.7,38,33.7,37.9
		L33.7,37.9z M32.5,36.6l0.4-0.7l0.5,0.2l-0.5,0.5L32.5,36.6L32.5,36.6z"/>
	<path fill="#FFFFFF" d="M37.8,36.8h0.5v3h-0.4l-1.6-2.1v2.1h-0.5v-3h0.5l1.6,2V36.8z"/>
</g>
</svg>
