<svg width="45" height="45" viewBox="0 0 45 45" fill="none" xmlns="http://www.w3.org/2000/svg">
<g clip-path="url(#clip0_996_11026)">
<path d="M12.8778 34.1677L10.9894 28.9053H8.41211L11.7852 37.2797H13.9241L17.2972 28.9053H14.7671L12.8778 34.1677Z" fill="#FCFCFC"/>
<path d="M20.5388 28.9053H18.2227V37.2209H20.5388V28.9053Z" fill="#FCFCFC"/>
<path d="M23.9394 28.9053H21.6348V37.2209H27.9657V35.2015H23.9394V28.9053Z" fill="#FCFCFC"/>
<path d="M34.6014 28.8457H32.3796L28.8398 37.2201H31.263L31.8565 35.7354H35.0638L35.6698 37.2201H38.1411L34.6014 28.8457ZM32.5338 33.9424L33.4722 31.5781L34.399 33.9424H32.5338Z" fill="#FCFCFC"/>
<path d="M31.4106 26.3907H36.6008V7H28.6445V11.3626H31.4106V26.3907Z" fill="#FCFCFC"/>
<path d="M21.9482 24.323H12.6344C12.5525 24.323 12.4725 24.3181 12.3926 24.3104C13.8185 25.1997 15.5007 25.7152 17.3005 25.7152C19.107 25.7152 20.793 25.1959 22.2228 24.3018C22.1322 24.3124 22.0417 24.323 21.9482 24.323Z" fill="#FCFCFC"/>
<path d="M25.7324 15.7372C26.0513 15.8808 26.3461 16.0677 26.6092 16.2912C26.6034 15.7314 26.5465 15.1842 26.4463 14.6523C26.0773 14.8961 25.8105 15.2834 25.7324 15.7372Z" fill="#FCFCFC"/>
<path d="M12.2322 12.5465L14.3219 11.3547C13.635 9.86905 12.8305 8.78516 12.4037 8.78516C12.08 8.78516 11.5375 9.04915 10.9941 9.69852C11.4768 10.531 11.921 11.5744 12.2611 12.6419C12.2505 12.6101 12.2418 12.5783 12.2322 12.5465Z" fill="#FCFCFC"/>
<path d="M14.8711 11.0398L16.0436 10.3712C16.8115 9.93377 17.7653 9.93377 18.5332 10.3712L19.8069 11.0967C19.7067 10.7623 19.6508 10.4088 19.6508 10.0426C19.6508 9.1312 19.99 8.29973 20.543 7.65806C19.5323 7.28039 18.4388 7.07324 17.298 7.07324C15.6621 7.07324 14.1244 7.49909 12.7871 8.24289C13.4847 8.56083 14.2468 9.66978 14.8711 11.0398Z" fill="#FCFCFC"/>
<path d="M20.737 11.6283L23.191 13.0272C23.2141 13.0407 23.2353 13.058 23.2584 13.0715C23.2777 13.0715 23.2969 13.0744 23.3162 13.0744C24.2016 13.0744 24.9975 12.691 25.5515 12.083C24.5928 10.2534 23.0455 8.78026 21.1619 7.91699C20.6204 8.46424 20.2852 9.21478 20.2852 10.0434C20.2852 10.6253 20.4528 11.1668 20.737 11.6283Z" fill="#FCFCFC"/>
<path d="M24.4864 15.2677V15.4257C24.7051 15.4401 24.919 15.4738 25.1252 15.5259C25.2707 14.8601 25.712 14.3071 26.3006 14.0007C26.1802 13.5488 26.027 13.1105 25.843 12.6875C25.3237 13.1837 24.6599 13.5296 23.9199 13.6529C24.2793 14.1048 24.4864 14.6713 24.4864 15.2677Z" fill="#FCFCFC"/>
<path d="M24.486 21.7508C24.486 21.8712 24.4754 21.9888 24.459 22.1044C24.5303 22.1024 24.5929 22.0967 24.6613 22.0938C25.7356 20.7064 26.4273 19.0097 26.5786 17.1608C26.0709 16.5452 25.328 16.1299 24.486 16.0615V21.7508Z" fill="#FCFCFC"/>
<path d="M19.5621 17.9303V18.6992C19.5621 19.1048 19.3955 19.4989 19.1035 19.7812L19.0852 19.7985L17.6641 21.0096C17.6082 21.0568 17.5764 21.1261 17.5764 21.1994V22.4326V23.1003C17.5764 23.3228 17.7306 23.5098 17.9377 23.5589H21.9429C22.9285 23.5589 23.7301 22.7419 23.7301 21.7389V15.2558C23.7301 15.1758 23.7243 15.0968 23.7147 15.0187C23.6386 14.459 23.3091 13.9609 22.8177 13.6805L18.1603 11.0252C17.8915 10.872 17.5899 10.7949 17.2874 10.7949C16.9858 10.7949 16.6843 10.872 16.4145 11.0252L12.4498 13.2864C12.7341 14.3183 12.9065 15.3386 12.9065 16.1788C12.9065 18.6472 11.9806 20.0394 10.8438 20.6887V21.7514C10.8438 21.842 10.8505 21.9297 10.863 22.0164C10.995 22.8883 11.7369 23.5579 12.629 23.5579H16.428C16.6245 23.5107 16.7729 23.3412 16.7883 23.135V22.9124V22.7775C16.7835 22.713 16.7565 22.6523 16.7103 22.607L15.1919 21.1445C14.9356 20.8959 14.7756 20.5625 14.74 20.2099C14.7342 20.1559 14.7304 20.102 14.7304 20.048V19.2927C14.3296 19.1491 14.029 18.7946 13.9634 18.3629C13.9538 18.3013 13.948 18.2377 13.948 18.1741C13.948 17.5257 14.475 16.9987 15.1235 16.9987C15.6331 16.9987 16.0657 17.3243 16.2295 17.7781C16.2305 17.78 16.2314 17.7829 16.2324 17.7849C16.2401 17.807 16.2478 17.8292 16.2546 17.8523C16.2594 17.8687 16.2632 17.8851 16.2671 17.9014C16.2709 17.9159 16.2748 17.9303 16.2777 17.9448C16.2777 17.9458 16.2787 17.9467 16.2787 17.9477C16.4 18.5576 16.0445 19.1058 15.5204 19.2936V20.0615C15.5204 20.0846 15.5214 20.1078 15.5243 20.1309C15.5435 20.2947 15.6187 20.4488 15.7381 20.5644L16.402 21.2042C16.5609 21.2957 16.7729 21.1926 16.7893 21.0009V14.3915C16.4155 14.2345 16.1389 13.8896 16.0792 13.4762C16.0696 13.4165 16.0648 13.3558 16.0648 13.2941C16.0648 12.6457 16.5918 12.1187 17.2402 12.1187C17.7797 12.1187 18.2345 12.4848 18.3723 12.981C18.3761 12.9955 18.38 13.0099 18.3829 13.0244C18.3867 13.0398 18.3906 13.0552 18.3935 13.0716C18.3944 13.0754 18.3954 13.0793 18.3963 13.0831C18.4002 13.1024 18.4021 13.1217 18.4041 13.141C18.406 13.1544 18.4079 13.167 18.4098 13.1805C18.4725 13.7672 18.1015 14.2788 17.5774 14.4349V19.5104C17.5774 19.6964 17.7672 19.8072 17.9233 19.7407L18.564 19.1954C18.6979 19.0614 18.775 18.8765 18.775 18.6867V17.9313C18.3742 17.7877 18.0736 17.4332 18.0081 17.0016C17.9984 16.9399 17.9927 16.8773 17.9927 16.8127C17.9927 16.1643 18.5197 15.6373 19.1681 15.6373C19.6778 15.6373 20.1104 15.9629 20.2732 16.4177C20.2741 16.4196 20.2741 16.4216 20.2751 16.4225C20.2828 16.4456 20.2905 16.4688 20.2973 16.4919C20.3021 16.5073 20.3059 16.5227 20.3098 16.5391C20.3136 16.5545 20.3175 16.569 20.3204 16.5844C20.3204 16.5853 20.3204 16.5863 20.3213 16.5873C20.4418 17.1943 20.0872 17.7434 19.5621 17.9303Z" fill="#FCFCFC"/>
<path d="M10.1037 21C9.91578 21.0549 9.72694 21.0848 9.53906 21.105V21.5261C9.73657 21.8247 9.94564 22.1157 10.1759 22.3893C10.1239 22.1841 10.0931 21.9712 10.0931 21.7496V21.0029C10.0969 21.0029 10.0998 21.001 10.1037 21Z" fill="#FCFCFC"/>
<path d="M8.73624 16.3598C8.73624 16.1382 8.91641 15.958 9.138 15.958C9.3596 15.958 9.53977 16.1382 9.53977 16.3598V20.4795C11.2143 20.2473 12.2741 18.6123 12.2741 16.1786C12.2741 12.9655 9.94346 8.55762 9.12162 8.55762C8.32869 8.55762 6 13.0695 6 16.2037C6 18.6778 7.03765 20.2782 8.73624 20.4863V16.3598V16.3598Z" fill="#FCFCFC"/>
</g>
<defs>
<clipPath id="clip0_996_11026">
<rect width="44.5049" height="44.5049" fill="white"/>
</clipPath>
</defs>
</svg>
