<svg width="106" height="64" viewBox="0 0 106 64" fill="none" xmlns="http://www.w3.org/2000/svg">
<g clip-path="url(#clip0_2388_784)">
<path d="M104.6 57.35C104.601 58.1173 104.451 58.8773 104.158 59.5864C103.865 60.2956 103.435 60.9399 102.892 61.4824C102.35 62.025 101.706 62.4551 100.996 62.7481C100.287 63.0412 99.5273 63.1913 98.76 63.19H6.33001C4.78288 63.1874 3.30002 62.5709 2.20697 61.476C1.11392 60.381 0.500006 58.8971 0.500009 57.35V6.35C0.498694 5.58308 0.648449 4.82341 0.940723 4.11437C1.233 3.40532 1.66207 2.76079 2.20343 2.21757C2.7448 1.67434 3.38786 1.24307 4.0959 0.948368C4.80394 0.653668 5.56309 0.501312 6.33001 0.5H98.78C100.322 0.505272 101.799 1.12014 102.89 2.21046C103.98 3.30078 104.595 4.77806 104.6 6.32V57.35Z" fill="#FFE500"/>
<path d="M98.78 63.69H6.33001C4.65027 63.6873 3.04023 63.0182 1.85341 61.8295C0.666595 60.6408 5.81012e-06 59.0297 7.89958e-06 57.35V6.35C-0.00130636 5.51742 0.161382 4.69273 0.478783 3.92302C0.796184 3.15332 1.26208 2.45366 1.84988 1.86401C2.43767 1.27436 3.13585 0.806256 3.90455 0.486429C4.67326 0.166601 5.49743 0.00131218 6.33001 0H98.78C100.458 -8.34918e-06 102.068 0.665208 103.256 1.84987C104.444 3.03452 105.115 4.642 105.12 6.32V57.32C105.123 58.1547 104.961 58.9818 104.643 59.7539C104.326 60.5259 103.86 61.2279 103.271 61.8195C102.682 62.4112 101.982 62.8809 101.212 63.2019C100.441 63.5228 99.6147 63.6887 98.78 63.69ZM6.33001 1C4.91814 0.999997 3.56394 1.56018 2.56466 2.55758C1.56538 3.55499 1.00266 4.90813 1.00001 6.32V57.32C1.00001 58.7345 1.56124 60.0913 2.56052 61.0924C3.5598 62.0936 4.91549 62.6574 6.33001 62.66H98.78C100.195 62.6574 101.552 62.0939 102.553 61.093C103.554 60.0922 104.117 58.7354 104.12 57.32V6.32C104.115 4.90721 103.55 3.55409 102.549 2.55697C101.548 1.55985 100.193 0.99999 98.78 1H6.33001Z" fill="#FFE500"/>
<path d="M99.8697 27.3099C93.1497 24.4999 84.6897 24.0799 78.8697 25.9599C78.4597 26.0899 78.0597 26.2399 77.6797 26.3799L78.3397 26.8399L78.4397 26.9199L78.8697 27.2899C79.9673 28.3541 80.8322 29.6344 81.4097 31.0499C82.1082 32.8222 82.448 34.7154 82.4097 36.6199C82.3966 37.8024 82.1766 38.9734 81.7597 40.0799C81.3676 41.125 80.8753 42.1297 80.2897 43.0799L80.2197 43.1699C79.833 43.7866 79.373 44.3541 78.8497 44.8599C78.4878 45.2209 78.1001 45.5551 77.6897 45.8599C78.0697 45.9899 78.4497 46.1199 78.8497 46.2199C85.8451 47.9209 93.2005 47.35 99.8497 44.5899V37.9899C99.8497 37.9899 86.3997 41.9899 86.3997 35.8799C86.3997 30.8199 99.3997 33.8799 99.8497 33.8799L99.8697 27.3099Z" fill="black"/>
<path d="M29.6791 26.7598C22.9591 24.4998 15.4491 23.5798 9.37915 27.8798C4.37915 31.3798 3.94915 40.0898 9.20915 43.7398C14.9791 47.8198 22.1391 47.9598 29.3891 45.2298L30.4391 47.0598H44.3191V24.8398H30.4391L29.6791 26.7598ZM25.9491 38.6898C23.5691 38.6898 21.6491 37.4998 21.6491 36.0098C21.6491 34.5198 23.5691 33.3098 25.9491 33.3098C28.3291 33.3098 30.2491 34.5298 30.2491 36.0098C30.2491 37.4898 28.3291 38.6898 25.9491 38.6898Z" fill="black"/>
<path d="M76.8305 27.76C74.1695 25.9293 71.0555 24.8671 67.8305 24.69C63.6204 24.6256 59.4353 25.348 55.4905 26.82V24.15V15.98H40.7305V23.82H45.1905C45.5061 23.82 45.8088 23.9454 46.0319 24.1685C46.2551 24.3917 46.3805 24.6944 46.3805 25.01V47.1L54.6005 47.05L55.5505 45.12C57.5989 45.8819 59.7151 46.4478 61.8705 46.81C63.6099 47.055 65.3639 47.1819 67.1205 47.19C70.9605 47.19 76.2305 45.97 78.5205 42.26C79.6967 40.3691 80.3617 38.2051 80.4505 35.98C80.4005 32.19 79.1205 29.65 76.8305 27.76ZM60.1305 38.69C57.7305 38.69 55.7905 37.5 55.7905 36.01C55.7905 34.52 57.7305 33.31 60.1305 33.31C62.5305 33.31 64.4805 34.53 64.4805 36.01C64.4805 37.49 62.5405 38.69 60.1305 38.69Z" fill="black"/>
</g>
<defs>
<clipPath id="clip0_2388_784">
<rect width="105.12" height="63.68" fill="white"/>
</clipPath>
</defs>
</svg>
