<?xml version="1.0" encoding="utf-8"?>
<!-- Generator: Adobe Illustrator 25.2.3, SVG Export Plug-In . SVG Version: 6.00 Build 0)  -->
<svg version="1.1" id="Layer_1" xmlns="http://www.w3.org/2000/svg" xmlns:xlink="http://www.w3.org/1999/xlink" x="0px" y="0px"
	 viewBox="0 0 720.7 60" style="enable-background:new 0 0 720.7 60;" xml:space="preserve">
<g>
	<path d="M0,58.8h46.5l1-17.3h-3.2c-3,8.9-4.4,13.5-14.2,13.5c-7.7,0-10.2-0.8-10.2-6.1V30.7h7.9c5.2,0,6.3,1.4,7.7,7.5h3.1V18.9
		h-3.1c-1.4,6.1-2.4,7.5-7.7,7.5h-7.9V8.1c0-2.4,0.6-3,2.9-3H29c8.5,0,10,3.3,12.6,11.5h3.1V1.2H0v3.1c5.9,0.3,6.6,0.7,6.6,4.9v41.4
		c0,4.3-0.7,4.7-6.6,4.9V58.8z M52.3,58.8H97l1-16.7h-3.1c-3,8.3-4.1,12.9-13.5,12.9c-7,0-9.3-0.8-9.3-6.1V9.3
		c0-4.2,0.7-4.6,7.6-4.9V1.2H52.3v3.1c5.9,0.3,6.5,0.7,6.5,4.9v41.4c0,4.3-0.7,4.7-6.5,4.9V58.8z M118.3,58.8h26.4v-3.1
		c-5.9-0.2-6.6-0.7-6.6-4.9V9.3c0-4.2,0.7-4.6,6.6-4.9V1.2h-26.4v3.1c5.9,0.3,6.5,0.7,6.5,4.9v41.4c0,4.3-0.7,4.7-6.5,4.9V58.8z
		 M149.8,58.8h20.1v-3.1l-4.7-0.4c-2.3-0.2-3.2-1.5-3.4-4.4c-0.4-3-0.4-6.2-0.4-13V12.4h0.3c10.2,15.4,20.2,30.8,30.1,46.3h9.1V22.2
		c0-6.8,0.1-10,0.4-12.9c0.3-2.9,1.1-4.2,3-4.4l2.9-0.4V1.2h-20.1v3.1l4.7,0.4c2.3,0.2,3.2,1.5,3.5,4.5c0.3,3,0.4,6.1,0.4,12.9v18.6
		h-0.4c-8.8-13.2-17.6-26.4-26.2-39.6h-19.7v3.1c5.9,0.3,6.6,0.7,6.6,4.9v28.5c0,6.8-0.1,10.1-0.4,13c-0.2,2.9-1.1,4.2-3,4.4
		l-2.9,0.4L149.8,58.8z M211,58.8h19.9v-3.1l-4.5-0.4c-2.3-0.2-3.2-1.5-3.5-4.4c-0.3-3-0.4-6.2-0.4-13V9.5h0.3l17.9,47.8h5L263,9.5
		h0.2v41.2c0,4.3-0.7,4.7-6.5,4.9v3.1h25.8v-3.1c-5.9-0.2-6.6-0.7-6.6-4.9V9.3c0-4.2,0.7-4.6,6.6-4.9V1.2h-21.6
		c-1.4,4-4.3,12.2-6.5,18.3L247.3,39H247l-9.9-25.5c-1.4-3.7-3.3-8.7-4.4-12.2h-22v3.1c5.9,0.3,6.6,0.7,6.6,4.9v28.5
		c0,6.8-0.1,10.1-0.4,13s-1.1,4.2-3,4.4l-2.9,0.4L211,58.8z M288.7,30c0,18.8,9.3,30,28.4,30s28.4-11.2,28.4-30
		c0-18.8-9.3-30-28.4-30S288.7,11.2,288.7,30z M303.4,30c0-10.1,1.5-26.2,13.7-26.2c12.2,0,13.7,16.1,13.7,26.2
		c0,10-1.5,26.2-13.7,26.2C305,56.2,303.4,40.1,303.4,30L303.4,30z M351.7,58.8h27.4c9.5,0,15.3-1.7,18.7-4.5
		c3.4-2.7,4.7-6.7,4.7-11.2c0-9.2-6.8-13.8-14.5-15V28c8.1-1.8,12.3-6.1,12.3-12.9c0-10.1-8-13.8-21.2-13.8h-27.4v3.1
		c5.9,0.3,6.6,0.7,6.6,4.9v41.4c0,4.3-0.7,4.7-6.6,4.9L351.7,58.8z M371.6,49.6V30.3h4.2c8.3,0,12.2,5.9,12.2,12.9
		c0,8.9-4.6,11.8-10.4,11.8C373.4,55,371.6,53.6,371.6,49.6L371.6,49.6z M371.6,26.4V8.1c0-2.8,1.5-3,4.8-3
		c7.5,0,10.5,4.4,10.5,10.6c0,6.1-3.3,10.7-11.2,10.7H371.6z M408.5,58.8h26.4v-3.1c-5.9-0.2-6.6-0.7-6.6-4.9V9.3
		c0-4.2,0.7-4.6,6.6-4.9V1.2h-26.4v3.1c5.9,0.3,6.5,0.7,6.5,4.9v41.4c0,4.3-0.7,4.7-6.5,4.9L408.5,58.8z M440.4,58.8h44.8l1-16.7
		H483c-3,8.3-4,12.9-13.5,12.9c-6.9,0-9.2-0.8-9.2-6.1V9.3c0-4.2,0.7-4.6,7.5-4.9V1.2h-27.4v3.1c5.9,0.3,6.6,0.7,6.6,4.9v41.4
		c0,4.3-0.7,4.7-6.6,4.9L440.4,58.8z M489,58.8h26.4v-3.1c-5.9-0.2-6.5-0.7-6.5-4.9V9.3c0-4.2,0.7-4.6,6.5-4.9V1.2H489v3.1
		c5.9,0.3,6.6,0.7,6.6,4.9v41.4c0,4.3-0.7,4.7-6.6,4.9L489,58.8z M515.8,58.8h19.5v-3.1l-5-0.4c-1.8-0.2-1.9-1.2-1.5-3
		c1-4.5,2.5-9,4-13.8h16.1l4.3,13.8c0.6,1.7,0.4,2.8-1.4,3l-4.9,0.5v3.1h26.3v-3.1c-4.3-0.1-5.4-0.6-6.5-4L550.4,1.2h-10.5l-9.6,28
		c-3,8.5-5.8,17-7.7,22c-1.4,3.5-2.3,4.1-6.8,4.3L515.8,58.8z M534.1,34.3l6.8-21.5h0.2l6.5,21.5H534.1z M574.4,58.8h26.5v-3.1
		c-5.9-0.2-6.6-0.7-6.6-4.9V32.3h3.8c4.2,0,6.5,2,7.5,6.5c0.7,2.9,1.4,7.4,2.7,11.6c2,6.2,5.6,8.3,14.3,8.3h6.2v-3.1
		c-1.5-0.1-2.9-0.8-3.9-1.8c-2.1-2.1-3.3-5.2-4.1-9.5c-1.1-6.6-2.7-12.1-11.3-14.2v-0.2c8.2-1.1,14-6.5,14-13.7
		c0-4.3-1.1-7.8-4.2-10.6c-3.1-2.7-7.9-4.3-16-4.3h-28.8v3.1c5.9,0.3,6.6,0.7,6.6,4.9v41.4c0,4.3-0.7,4.7-6.6,4.9V58.8z M594.2,28.5
		V8.3c0-2.3,0.8-3.2,5.3-3.2c5.6,0,9.9,3,9.9,11.5c0,6.9-2.7,11.9-11,11.9L594.2,28.5z M631.2,58.8h26.4v-3.1
		c-5.9-0.2-6.5-0.7-6.5-4.9V9.3c0-4.2,0.7-4.6,6.5-4.9V1.2h-26.4v3.1c5.9,0.3,6.6,0.7,6.6,4.9v41.4c0,4.3-0.7,4.7-6.6,4.9
		L631.2,58.8z M663.9,30c0,18.8,9.3,30,28.4,30s28.4-11.2,28.4-30c0-18.8-9.3-30-28.4-30S663.9,11.2,663.9,30L663.9,30z M678.6,30
		c0-10.1,1.5-26.2,13.7-26.2S706,19.9,706,30c0,10-1.5,26.2-13.7,26.2C680.2,56.2,678.6,40.1,678.6,30L678.6,30z"/>
</g>
</svg>
