<svg width="281" height="39" viewBox="0 0 281 39" fill="none" xmlns="http://www.w3.org/2000/svg">
<g clip-path="url(#clip0_2184_403)">
<path d="M0 38.3755V32.7595H3.70549C5.71264 32.7595 6.79341 32.4475 6.79341 30.5755V8.73555C6.79341 7.01955 5.86703 6.70755 3.70549 6.70755H0V0.935547H46.3187V16.0675H38.9077V13.7275C38.9077 8.89155 35.8198 6.70755 31.1879 6.70755H25.1665C23.1593 6.70755 22.0786 7.01955 22.0786 8.73555V16.6915H25.3209C27.1736 16.6915 27.9456 15.7555 27.9456 14.0395V10.9195H34.5846V28.5475H27.9456V24.6475C27.9456 23.0875 27.0192 22.1515 25.1665 22.1515H22.0786V30.5755C22.0786 32.4475 22.8505 32.7595 24.8577 32.7595H30.4159C35.9742 32.7595 39.3709 31.0435 39.3709 24.9595V22.6195H46.7819V38.3755H0Z" fill="#005790"/>
<path d="M48.789 38.3755V32.7595H52.4945C54.5016 32.7595 55.5824 31.8235 55.5824 30.1075V9.04755C55.5824 7.33155 54.656 6.39555 52.4945 6.39555H48.789V0.935547H78.5874V6.55155H73.9555C71.9483 6.55155 70.8676 7.33155 70.8676 9.20355V30.2635C70.8676 32.6035 71.3308 32.9155 74.7275 32.9155H78.7417C83.3736 32.9155 86.7703 30.5755 86.7703 24.9595V21.5275H94.4901V38.3755C94.6445 38.3755 48.789 38.3755 48.789 38.3755Z" fill="#005790"/>
<path d="M146.367 23.3995H135.559V30.1075C135.559 31.8235 136.486 32.7595 138.647 32.7595H143.897V38.3755H113.172V32.7595H116.877C118.885 32.7595 119.965 31.8235 119.965 30.1075V10.2955C119.965 7.79955 119.193 6.55155 117.032 6.55155H113.172V0.935547H142.353C155.785 0.935547 162.424 4.36755 162.424 11.8555C162.424 19.3435 157.484 23.3995 146.367 23.3995ZM140.191 6.23955H139.11C137.103 6.23955 135.559 7.17555 135.559 8.89155V17.6275H139.574C143.742 17.6275 146.058 15.5995 146.058 11.6995C146.058 8.57955 143.742 6.23955 140.191 6.23955Z" fill="#005790"/>
<path d="M179.408 38.3755V32.7595H184.194C186.047 32.7595 186.819 31.6675 186.201 30.4195L185.12 27.9235H168.909L167.828 30.1075C167.056 31.9795 167.828 32.7595 170.144 32.7595H173.849V38.3755H153.469V32.7595H154.704C156.557 32.7595 158.41 32.2915 159.182 30.7315L173.232 0.935547H188.208L201.795 29.9515C202.567 31.6675 203.802 32.6035 205.964 32.6035H207.508V38.2195L179.408 38.3755ZM177.246 10.1395L171.534 22.4635H182.65L177.246 10.1395Z" fill="#005790"/>
<path d="M209.052 38.3755V32.7595H213.375C215.382 32.7595 215.845 32.4475 215.845 30.5755V9.51555C215.845 7.79955 214.919 6.55155 212.757 6.55155H209.052V0.935547H237.769V6.55155H233.909C231.902 6.55155 231.439 7.33155 231.439 9.20355V30.2635C231.439 31.9795 232.365 32.9155 234.527 32.9155H237.769V38.5315L209.052 38.3755Z" fill="#005790"/>
<path d="M262.009 38.8438C254.753 38.8438 250.584 36.9718 248.114 36.9718C247.033 36.9718 246.415 37.9078 246.415 38.3758H240.085V24.0238H247.187V25.1158C247.187 30.2638 252.282 32.6038 258.613 32.6038C264.48 32.6038 267.413 31.1998 267.413 28.8598C267.413 26.8318 266.178 25.7398 259.693 24.6478L250.275 22.9318C244.408 21.8398 239.776 18.2518 239.776 12.3238C239.776 4.05576 248.886 0.155762 258.921 0.155762C265.406 0.155762 267.722 2.02776 269.575 2.02776C271.273 2.02776 271.736 1.40376 271.736 0.623762H278.375V13.7278H270.964V12.6358C270.964 8.26776 266.796 6.23976 261.237 6.23976C256.451 6.23976 253.363 6.70776 253.363 9.04776C253.363 10.7638 254.444 11.6998 259.539 12.6358L269.266 14.5078C275.596 15.7558 280.537 18.7198 280.537 25.1158C280.691 35.4118 271.273 38.8438 262.009 38.8438Z" fill="#005790"/>
</g>
<defs>
<clipPath id="clip0_2184_403">
<rect width="281" height="39" fill="white"/>
</clipPath>
</defs>
</svg>
