<svg width="26" height="36" viewBox="0 0 26 36" fill="none" xmlns="http://www.w3.org/2000/svg">
<path d="M2.80312 19.2358L12.9241 35.3965C13.0161 35.5439 13.172 35.6281 13.3419 35.6281H13.349C13.519 35.6281 13.6748 35.5369 13.7669 35.3895L23.6258 19.0744C24.7519 17.2148 25.3468 15.0746 25.3468 12.8922C25.3468 6.23983 19.8791 0.82251 13.1649 0.82251C6.45063 0.82251 0.98291 6.23983 0.98291 12.8922C0.98291 15.1377 1.61326 17.3341 2.80312 19.2358ZM13.1649 1.79089C19.3408 1.79089 24.3624 6.77314 24.3624 12.8922C24.3624 14.8921 23.817 16.8499 22.7759 18.5692L13.3349 34.1966L3.64594 18.7235C2.54107 16.9552 1.9603 14.9412 1.9603 12.8922C1.9603 6.77314 6.9889 1.79089 13.1649 1.79089Z" fill="white"/>
<path d="M13.1647 7.20361C9.96712 7.20361 7.36377 9.80696 7.36377 13.0045C7.36377 16.2021 9.96712 18.8055 13.1647 18.8055C16.3623 18.8055 18.9656 16.2021 18.9656 13.0045C18.9656 9.80696 16.3623 7.20361 13.1647 7.20361ZM13.1647 17.8292C10.5048 17.8292 8.34002 15.6645 8.34002 13.0045C8.34002 10.3446 10.5048 8.17987 13.1647 8.17987C15.8176 8.17987 17.9823 10.3446 17.9823 13.0045C17.9823 15.6645 15.8176 17.8292 13.1647 17.8292Z" fill="white"/>
</svg>
