<?xml version="1.0" encoding="utf-8"?>
<!-- Generator: Adobe Illustrator 24.2.1, SVG Export Plug-In . SVG Version: 6.00 Build 0)  -->
<svg version="1.1" id="Layer_1" xmlns="http://www.w3.org/2000/svg" xmlns:xlink="http://www.w3.org/1999/xlink" x="0px" y="0px"
	 viewBox="0 0 200 200" style="enable-background:new 0 0 200 200;" xml:space="preserve">
<style type="text/css">
	.st0{fill:#0D213B;}
</style>
<g>
	<path class="st0" d="M173.9,192.8h-46.7c-3.1,0-5.5-2.5-5.5-5.5v-57.1c0-12.2-10-22.2-22.2-22.2s-22.2,10-22.2,22.2v57.1
		c0,3.1-2.5,5.5-5.5,5.5H25.1c-3.1,0-5.5-2.5-5.5-5.5V65c0-1.8,0.9-3.5,2.4-4.5l74-51.9c1.9-1.3,4.4-1.3,6.3,0l74.9,51.9
		c1.5,1,2.4,2.7,2.4,4.6v122.2C179.5,190.3,177,192.8,173.9,192.8L173.9,192.8z M132.8,181.7h35.6V67.9L99.1,19.9l-68.4,48v113.8
		h35.6v-51.6c0-18.4,14.9-33.3,33.3-33.3s33.3,14.9,33.3,33.3L132.8,181.7z"/>
</g>
</svg>
