<svg width="72" height="72" viewBox="0 0 72 72" fill="none" xmlns="http://www.w3.org/2000/svg">
<path d="M50.5 33V33.5H51H62.5V62.5H39.5V51V50.5H39H33H32.5V51V62.5H9.5V21.5H21H21.5V21V9.5H50.5V33ZM21 57.5H21.5V57V51V50.5H21H15H14.5V51V57V57.5H15H21ZM21 45.5H21.5V45V39V38.5H21H15H14.5V39V45V45.5H15H21ZM21 33.5H21.5V33V27V26.5H21H15H14.5V27V33V33.5H15H21ZM33 45.5H33.5V45V39V38.5H33H27H26.5V39V45V45.5H27H33ZM33 33.5H33.5V33V27V26.5H33H27H26.5V27V33V33.5H27H33ZM33 21.5H33.5V21V15V14.5H33H27H26.5V15V21V21.5H27H33ZM45 45.5H45.5V45V39V38.5H45H39H38.5V39V45V45.5H39H45ZM45 33.5H45.5V33V27V26.5H45H39H38.5V27V33V33.5H39H45ZM45 21.5H45.5V21V15V14.5H45H39H38.5V15V21V21.5H39H45ZM57 57.5H57.5V57V51V50.5H57H51H50.5V51V57V57.5H51H57ZM57 45.5H57.5V45V39V38.5H57H51H50.5V39V45V45.5H51H57Z" fill="#317DE0" stroke="#317DE0"/>
</svg>
