<svg width="72" height="72" viewBox="0 0 72 72" fill="none" xmlns="http://www.w3.org/2000/svg">
<path d="M68.2911 35.8853L56.9982 47.2911L51.3536 41.6464L51 41.2929L50.6464 41.6464L45 47.2929L39.3536 41.6464L39.2071 41.5H39H37.95H37.5959L37.4784 41.834C35.0866 48.6302 28.6112 53.5 21 53.5C11.3461 53.5 3.5 45.6539 3.5 36C3.5 26.3461 11.3461 18.5 21 18.5C28.6112 18.5 35.0866 23.3698 37.4784 30.166L37.5959 30.5H37.95H62.7958L68.2911 35.8853ZM11.5 36C11.5 41.2261 15.7739 45.5 21 45.5C26.2261 45.5 30.5 41.2261 30.5 36C30.5 30.7739 26.2261 26.5 21 26.5C15.7739 26.5 11.5 30.7739 11.5 36Z" fill="#317DE0" stroke="#317DE0"/>
</svg>
