<svg width="44" height="44" viewBox="0 0 44 44" fill="none" xmlns="http://www.w3.org/2000/svg">
<circle cx="22" cy="22" r="21.5" stroke="white"/>
<path d="M32.8206 17.2474C32.8365 17.4753 32.8365 17.7031 32.8365 17.933C32.8365 24.9392 27.4706 33.0195 17.659 33.0195V33.0153C14.7606 33.0195 11.9224 32.1943 9.48242 30.6383C9.90387 30.6887 10.3274 30.7139 10.7521 30.7149C13.154 30.717 15.4873 29.9159 17.377 28.4408C15.0944 28.3977 13.0927 26.9184 12.3935 24.7587C13.1931 24.9119 14.017 24.8804 14.8018 24.6673C12.3132 24.1675 10.5228 21.9942 10.5228 19.4701V19.4029C11.2643 19.8135 12.0946 20.0413 12.9438 20.0665C10.6 18.5094 9.87747 15.41 11.2929 12.9868C14.0011 16.2993 17.997 18.3131 22.2865 18.5262C21.8566 16.6847 22.4439 14.7549 23.8297 13.4603C25.9781 11.4528 29.3571 11.5557 31.3767 13.6903C32.5714 13.4561 33.7163 13.0204 34.7642 12.403C34.3659 13.6304 33.5326 14.673 32.4192 15.3355C33.4766 15.2116 34.5096 14.9302 35.4824 14.5008C34.7663 15.5675 33.8642 16.4967 32.8206 17.2474Z" fill="white"/>
</svg>
