<svg width="72" height="72" viewBox="0 0 72 72" fill="none" xmlns="http://www.w3.org/2000/svg">
<path d="M49.2008 14.4002V15.6002H50.4008H55.8008C58.1208 15.6002 60.0008 17.5057 60.0008 19.8002V59.4002C60.0008 61.6947 58.1208 63.6002 55.8008 63.6002H16.2008C13.8807 63.6002 12.0008 61.6947 12.0008 59.4002V19.8002C12.0008 17.5057 13.8807 15.6002 16.2008 15.6002H21.6008H22.8008V14.4002V8.4002H25.8008V14.4002V15.6002H27.0008H45.0008H46.2008V14.4002V8.4002H49.2008V14.4002ZM55.8008 60.6002H57.0008V59.4002V32.4002V31.2002H55.8008H16.2008H15.0008V32.4002V59.4002V60.6002H16.2008H55.8008ZM25.8008 42.0002H22.8008V39.0002H25.8008V42.0002ZM37.5008 42.0002H34.5008V39.0002H37.5008V42.0002ZM49.2008 42.0002H46.2008V39.0002H49.2008V42.0002ZM25.8008 52.8002H22.8008V49.8002H25.8008V52.8002ZM37.5008 52.8002H34.5008V49.8002H37.5008V52.8002ZM49.2008 52.8002H46.2008V49.8002H49.2008V52.8002Z" fill="#317DE0" stroke="#317DE0" stroke-width="2.4"/>
</svg>
