<svg width="268" height="40" viewBox="0 0 268 40" fill="none" xmlns="http://www.w3.org/2000/svg">
<g clip-path="url(#clip0_2184_402)">
<path d="M65.592 28.1098V23.6122C65.592 15.9877 70.784 12.0635 77.7634 12.0635C84.7428 12.0635 89.9706 15.9877 89.9706 23.6122V28.1098C89.9706 36.0568 84.8144 39.6944 77.7634 39.6944C70.7123 39.6944 65.592 36.0613 65.592 28.1098ZM81.719 27.8589V23.8675C81.719 19.8358 80.6169 17.8961 77.7634 17.8961C74.9098 17.8961 73.8078 19.8403 73.8078 23.8675V27.8589C73.8078 31.8862 74.9098 33.9021 77.7634 33.9021C80.6169 33.9021 81.719 31.8862 81.719 27.8589Z" fill="#D2072A"/>
<path d="M158.833 27.9127V23.5271C158.833 16.0952 163.716 12.2695 170.274 12.2695C176.832 12.2695 181.747 16.0907 181.747 23.5271V27.9127C181.747 35.6626 176.899 39.2016 170.274 39.2016C163.648 39.2016 158.833 35.6626 158.833 27.9127ZM173.992 27.6663V23.7734C173.992 19.8492 172.957 17.9543 170.274 17.9543C167.591 17.9543 166.556 19.8492 166.556 23.7734V27.6663C166.556 31.595 167.591 33.5571 170.274 33.5571C172.957 33.5571 173.992 31.5905 173.992 27.6663Z" fill="#004884"/>
<path d="M215.918 27.9127V23.5271C215.918 16.0952 220.801 12.2695 227.359 12.2695C233.917 12.2695 238.831 16.0907 238.831 23.5271V27.9127C238.831 35.6626 233.984 39.2016 227.359 39.2016C220.733 39.2016 215.918 35.6626 215.918 27.9127ZM231.073 27.6663V23.7734C231.073 19.8492 230.038 17.9543 227.359 17.9543C224.68 17.9543 223.641 19.8492 223.641 23.7734V27.6663C223.641 31.595 224.676 33.5571 227.359 33.5571C230.042 33.5571 231.073 31.5905 231.073 27.6663Z" fill="#004884"/>
<path d="M107.652 38.955L98.9883 25.6592V38.955H92.3404V12.5112H98.1551L106.819 25.807V12.5112H113.467V38.955H107.652Z" fill="#004884"/>
<path d="M115.653 38.955V12.5112H134.441V18.308H122.628V22.725H132.649V28.5217H122.628V33.1627H134.441V38.955H115.653Z" fill="#004884"/>
<path d="M214.005 12.5112H207.035V38.955H214.005V12.5112Z" fill="#004884"/>
<path d="M249.686 39.1792C245.493 39.1792 242.066 38.4355 239.293 35.6895L243.602 31.5278C245.027 32.9031 247.527 33.3869 249.722 33.3869C252.378 33.3869 253.646 32.5313 253.646 31.0082C253.646 30.3765 253.494 29.8569 253.108 29.4492C252.763 29.1177 252.186 28.8579 251.299 28.7459L247.988 28.3024C245.565 27.9709 243.714 27.187 242.482 25.964C241.21 24.7007 240.597 22.9178 240.597 20.6511C240.597 15.8219 244.368 12.2964 250.604 12.2964C254.528 12.2964 257.494 13.1878 259.841 15.4546L255.608 19.5401C253.874 17.8692 251.608 17.9811 250.412 17.9811C248.064 17.9811 247.101 19.2803 247.101 20.4316C247.101 20.7675 247.218 21.2469 247.639 21.6545C247.984 21.9905 248.561 22.322 249.525 22.434L252.835 22.8775C255.299 23.2134 257.068 23.9571 258.224 25.0681C259.689 26.4433 260.262 28.4099 260.262 30.8603C260.262 36.2449 255.451 39.1792 249.677 39.1792" fill="#004884"/>
<path d="M7.1229 33.3601H10.3707V18.3978H6.84515V12.5742H18.7433V33.3601H21.9866V39.0314H7.1229V33.3601Z" fill="#D2072A"/>
<path d="M21.5432 33.3601H24.3654V18.3978H21.261V12.5742H30.9506C31.3717 12.5742 31.8914 15.2306 32.2184 17.3764C33.6295 14.2585 36.4517 11.9604 40.3087 11.9604C45.1065 11.9604 48.4439 15.6876 48.4439 22.9402V33.3601H51.0332V39.0269H40.0713V24.0602C40.0713 20.9468 38.9424 19.3117 36.4965 19.3117C34.0506 19.3117 32.8276 21.0498 32.7335 23.3972V33.3556H35.4617V39.0224H21.5387V33.3556L21.5432 33.3601Z" fill="#D2072A"/>
<path d="M50.4507 12.5739H53.5552V11.2972C53.5552 4.45218 57.6004 0.675781 63.7152 0.675781C65.8341 0.675781 67.2452 1.08344 68.4189 1.54485L67.1959 8.03147C66.6315 7.82541 65.973 7.62382 64.9381 7.62382C63.2448 7.62382 61.9278 8.59592 61.9278 11.2524V12.5784H67.1018V18.5006H61.9278V33.3643H65.1263V39.0311H50.733V33.3643H53.5552V18.5006H50.4507V12.5784V12.5739Z" fill="#D2072A"/>
<path d="M8.92346 5.54962C8.92346 8.17921 11.0558 10.3116 13.6899 10.3116C16.324 10.3116 18.4518 8.17921 18.4518 5.54962C18.4518 2.92003 16.3195 0.783203 13.6899 0.783203C11.0603 0.783203 8.92346 2.91555 8.92346 5.54962Z" fill="#D2072A"/>
<path d="M157.166 23.6838H146.307V29.055H149.734C149.51 32.0564 148.476 33.5527 146.245 33.5527C143.691 33.5527 142.71 31.5905 142.71 27.6618V23.769C142.71 19.8403 143.696 17.9498 146.245 17.9498C148.104 17.9498 149.125 18.9622 149.546 21.0229H156.965C156.033 15.2351 151.795 12.2695 146.245 12.2695C140.004 12.2695 135.359 16.0907 135.359 23.5271V27.9127C135.359 35.6626 140 39.2061 146.245 39.2061C152.489 39.2061 157.162 35.6626 157.162 27.9127V23.6838H157.166Z" fill="#004884"/>
<path d="M197.784 29.0594C197.56 32.0608 196.525 33.5571 194.299 33.5571C191.745 33.5571 190.764 31.5905 190.764 27.6662V23.7734C190.764 19.8491 191.745 17.9542 194.299 17.9542C196.158 17.9542 197.179 18.9666 197.6 21.0273H205.019C204.087 15.2395 199.849 12.2739 194.299 12.2739C188.058 12.2739 183.413 16.0951 183.413 23.5315V27.9171C183.413 35.667 188.058 39.206 194.299 39.206C200.539 39.206 204.736 36.0119 205.175 29.0639H197.788L197.784 29.0594Z" fill="#004884"/>
</g>
<defs>
<clipPath id="clip0_2184_402">
<rect width="267.116" height="39" fill="white" transform="translate(0 0.362305)"/>
</clipPath>
</defs>
</svg>
