<svg width="44" height="44" viewBox="0 0 44 44" fill="none" xmlns="http://www.w3.org/2000/svg">
<circle cx="22" cy="22" r="21.5" stroke="#317DE0"/>
<path fill-rule="evenodd" clip-rule="evenodd" d="M20.429 17.969H24.143V19.819C24.678 18.755 26.05 17.799 28.111 17.799C32.062 17.799 33 19.917 33 23.803V31H29V24.688C29 22.475 28.465 21.227 27.103 21.227C25.214 21.227 24.429 22.572 24.429 24.687V31H20.429V17.969V17.969ZM13.57 30.83H17.57V17.799H13.57V30.83V30.83ZM18.143 13.55C18.1431 13.8853 18.0767 14.2172 17.9474 14.5266C17.8181 14.8359 17.6287 15.1165 17.39 15.352C16.9064 15.8326 16.2518 16.1017 15.57 16.1C14.8894 16.0995 14.2363 15.8312 13.752 15.353C13.5142 15.1167 13.3254 14.8358 13.1963 14.5264C13.0673 14.217 13.0006 13.8852 13 13.55C13 12.873 13.27 12.225 13.753 11.747C14.2369 11.2682 14.8902 10.9997 15.571 11C16.253 11 16.907 11.269 17.39 11.747C17.872 12.225 18.143 12.873 18.143 13.55Z" fill="#317DE0"/>
</svg>
