<?xml version="1.0" encoding="utf-8"?>
<!-- Generator: Adobe Illustrator 24.2.1, SVG Export Plug-In . SVG Version: 6.00 Build 0)  -->
<svg version="1.1" id="Layer_1" xmlns="http://www.w3.org/2000/svg" xmlns:xlink="http://www.w3.org/1999/xlink" x="0px" y="0px"
	 viewBox="0 0 44 44" style="enable-background:new 0 0 44 44;" xml:space="preserve">
<style type="text/css">
	.st0{fill:none;stroke:#0D213B;}
	.st1{fill-rule:evenodd;clip-rule:evenodd;fill:#0D213B;}
</style>
<circle class="st0" cx="22" cy="22" r="21.5"/>
<path class="st1" d="M20.4,18h3.7v1.9c0.5-1.1,1.9-2,4-2c4,0,4.9,2.1,4.9,6V31h-4v-6.3c0-2.2-0.5-3.5-1.9-3.5
	c-1.9,0-2.7,1.3-2.7,3.5V31h-4V18L20.4,18z M13.6,30.8h4v-13h-4V30.8L13.6,30.8z M18.1,13.6c0,0.3-0.1,0.7-0.2,1
	c-0.1,0.3-0.3,0.6-0.6,0.8c-0.5,0.5-1.1,0.7-1.8,0.7c-0.7,0-1.3-0.3-1.8-0.7c-0.2-0.2-0.4-0.5-0.6-0.8c-0.1-0.3-0.2-0.6-0.2-1
	c0-0.7,0.3-1.3,0.8-1.8c0.5-0.5,1.1-0.7,1.8-0.7c0.7,0,1.3,0.3,1.8,0.7C17.9,12.2,18.1,12.9,18.1,13.6z"/>
</svg>
