<svg width="115" height="48" viewBox="0 0 115 48" fill="none" xmlns="http://www.w3.org/2000/svg">
<path d="M7.2131 24.1928L11.8035 24.2008L19.0715 5.93112L13.6411 5.92235L9.5691 17.4029L5.53237 5.91038L0 5.90161L7.2131 24.1928Z" fill="white"/>
<path d="M20.9942 5.93408L25.9666 5.94206L25.9392 24.2014L20.9668 24.1942L20.9942 5.93408Z" fill="white"/>
<path d="M33.2418 10.3604L27.8867 10.3525L27.8938 5.90747L43.549 5.9314L43.5419 10.3772L38.1876 10.3684L38.1672 24.2011L33.2207 24.1931L33.2418 10.3604Z" fill="white"/>
<path d="M45.4689 5.93091L53.9078 5.94367C56.6363 5.98833 58.5218 6.71733 59.7186 7.96318C60.7617 9.00164 61.295 10.403 61.2935 12.192V12.2447C61.288 15.0187 59.8331 16.8579 57.6136 17.8142L61.8613 24.1471L56.1501 24.1384L52.5643 18.6358H52.5126L50.3958 18.6318L50.3871 24.1296L45.4414 24.1216L45.4689 5.93091ZM53.6647 14.6973C55.3478 14.6996 56.3179 13.8702 56.3195 12.5485V12.4959C56.3218 11.0706 55.3038 10.3432 53.6459 10.34L50.4075 10.3344L50.4005 14.6917L53.6647 14.6973Z" fill="white"/>
<path d="M63.8147 5.92391L63.7871 24.1401L68.7587 24.1479L68.7863 5.93169L63.8147 5.92391Z" fill="white"/>
<path d="M70.7031 16.2035L70.7267 5.92407L75.7493 5.93205L75.7257 16.1069C75.721 18.7262 77.0198 19.9729 79.0088 19.9761C80.9977 19.9785 82.2988 18.7885 82.3036 16.2473L82.3192 5.92966L87.3434 5.93763L87.3277 16.0998C87.3191 21.9597 84.0258 24.5216 78.9515 24.5136C73.8772 24.5064 70.6945 21.8815 70.7031 16.2035Z" fill="white"/>
<path d="M89.2911 5.93091L94.5184 5.93888L98.7661 12.9721L103.035 5.95244L108.262 5.96042L108.234 24.207L103.313 24.1998L103.329 13.6803L98.7544 20.7773H98.6524L94.1239 13.717L94.109 24.2006L89.2637 24.1934L89.2911 5.93091Z" fill="white"/>
<path d="M0.214853 39.0215V38.972C0.222696 33.9201 4.05238 29.964 9.21457 29.9712C12.696 29.9768 14.9344 31.4659 16.441 33.5987L12.8819 36.3902C11.9094 35.1508 10.7902 34.3564 9.15888 34.3532C6.77151 34.35 5.08842 36.403 5.08529 38.929V38.9784C5.08136 41.5786 6.75896 43.6116 9.14476 43.6156C10.9227 43.6188 11.9706 42.779 12.9948 41.5172L16.5477 44.099C14.9367 46.3498 12.7674 48.0056 8.99261 48C4.12218 47.9928 0.207795 44.1971 0.214853 39.0215Z" fill="white"/>
<path d="M24.3075 30.2185L28.8619 30.2249L36.093 47.6962L31.0273 47.6882L29.7905 44.5903L23.215 44.5808L21.9931 47.6746L17.0254 47.6675L24.3075 30.2185ZM28.4321 40.848L26.5396 35.9181L24.6087 40.8424L28.4321 40.848Z" fill="white"/>
<path d="M38.0388 30.3638L45.3444 30.3741C49.6541 30.3805 52.4273 32.6393 52.4211 36.4773V36.5268C52.4148 40.6128 49.3184 42.7632 45.0817 42.756L42.7445 42.752L42.7374 47.705L38.0137 47.6987L38.0388 30.3638ZM44.9907 38.9921C46.6707 38.9945 47.6941 38.1052 47.6965 36.7429V36.6935C47.6989 35.2083 46.6777 34.4139 44.9735 34.4108L42.7571 34.4068L42.7508 38.9881L44.9907 38.9921Z" fill="white"/>
<path d="M54.3703 30.3885L54.3438 47.7234L59.0918 47.7309L59.1184 30.396L54.3703 30.3885Z" fill="white"/>
<path d="M66.1331 34.6166L61.0195 34.6094L61.0258 30.3989L75.9775 30.4213L75.9712 34.6318L70.8577 34.6246L70.838 47.7498L66.1135 47.7418L66.1331 34.6166Z" fill="white"/>
<path d="M81.5888 30.3074L86.1431 30.3146L93.3743 47.7842L88.3085 47.7771L87.0717 44.6784L80.4962 44.6688L79.2743 47.7627L74.3066 47.7555L81.5888 30.3074ZM85.7133 40.9377L83.8208 36.007L81.8899 40.9321L85.7133 40.9377Z" fill="white"/>
<path d="M95.3181 30.4509L100.043 30.4581L100.023 43.5833L108.278 43.5961L108.271 47.8058L95.293 47.7858L95.3181 30.4509Z" fill="white"/>
<path d="M105.879 4.11399H110.19V8.49756L114.235 12.6107V0H101.834L105.879 4.11399Z" fill="white"/>
</svg>
