<?xml version="1.0" encoding="utf-8"?>
<!-- Generator: Adobe Illustrator 24.2.1, SVG Export Plug-In . SVG Version: 6.00 Build 0)  -->
<svg version="1.1" id="Layer_1" xmlns="http://www.w3.org/2000/svg" xmlns:xlink="http://www.w3.org/1999/xlink" x="0px" y="0px"
	 viewBox="0 0 44 44" style="enable-background:new 0 0 44 44;" xml:space="preserve">
<style type="text/css">
	.st0{fill:none;stroke:#FFFFFF;}
	.st1{fill:#FFFFFF;}
</style>
<circle class="st0" cx="22" cy="22" r="21.5"/>
<path class="st1" d="M31.6,20.5c-2,0-3.9-0.6-5.5-1.8v8.1c0,4.1-3.3,7.3-7.3,7.3s-7.3-3.3-7.3-7.3c0-4.1,3.3-7.3,7.3-7.3
	c0.3,0,0.7,0,1,0.1v4.1C18,23,16.1,24,15.5,25.8C15,27.5,16,29.4,17.7,30c1.8,0.6,3.7-0.4,4.2-2.2c0.1-0.3,0.2-0.7,0.2-1V11h4
	c0,0.3,0,0.7,0.1,1l0,0c0.3,1.5,1.2,2.8,2.4,3.6c0.9,0.6,1.9,0.9,3,0.9V20.5z"/>
</svg>
