<svg width="222" height="38" viewBox="0 0 222 38" fill="none" xmlns="http://www.w3.org/2000/svg">
<path fill-rule="evenodd" clip-rule="evenodd" d="M188.075 25.8594H219.022C220.078 25.8594 220.943 26.7088 220.943 27.7466V34.229C220.943 35.2668 220.078 36.1162 219.022 36.1162H188.075C187.019 36.1162 186.154 35.2668 186.154 34.229V27.7466C186.154 26.7088 187.019 25.8594 188.075 25.8594Z" fill="#565755"/>
<path fill-rule="evenodd" clip-rule="evenodd" d="M188.682 17.8041C188.886 19.5013 189.533 21.0261 190.853 22.222C192.364 23.5919 194.284 24.0804 196.305 24.0804C198.633 24.0804 200.736 23.4386 202.465 21.8691C204.088 20.397 204.881 18.5896 204.881 16.4182C204.881 14.2467 204.157 12.5958 202.652 11.1445C201.122 9.66918 199.288 8.98422 197.149 8.98422C195.577 8.98422 193.209 9.65641 192.038 10.6671L193.573 3.75363H202.512V1.73389H192.017L189.889 12.4409L192.002 12.8593C192.45 12.2845 193.023 11.8358 193.7 11.5133C194.566 11.1014 195.52 10.9433 196.478 10.9433C198.087 10.9433 199.603 11.36 200.804 12.4441C201.968 13.4947 202.492 14.8551 202.492 16.3974C202.492 17.9398 201.956 19.3624 200.791 20.4609C199.621 21.5657 198.165 22.0575 196.549 22.0575C195.138 22.0575 193.855 21.6567 192.78 20.7483C191.846 19.9579 191.275 18.952 191.015 17.8025H188.683L188.682 17.8041Z" fill="black"/>
<path fill-rule="evenodd" clip-rule="evenodd" d="M207.697 4.91449C212.562 4.91449 216.507 8.78953 216.507 13.5699C216.507 18.3502 212.562 22.2252 207.697 22.2252C202.831 22.2252 198.886 18.3502 198.886 13.5699C198.886 8.78953 202.831 4.91449 207.697 4.91449ZM207.697 3.04004C213.616 3.04004 218.415 7.75491 218.415 13.5699C218.415 19.3848 213.616 24.0997 207.697 24.0997C201.778 24.0997 196.979 19.3848 196.979 13.5699C196.979 7.75491 201.778 3.04004 207.697 3.04004Z" fill="black"/>
<path d="M214.613 13.3144C214.613 12.976 214.504 12.8067 214.286 12.8067C214.206 12.8067 214.137 12.8323 214.076 12.8818C214.016 12.9312 213.985 12.9983 213.984 13.0813C213.994 13.2155 214.06 13.3256 214.182 13.4102C214.33 13.5044 214.481 13.6018 214.634 13.7024C214.788 13.803 214.917 13.9084 215.021 14.0202C215.125 14.1319 215.183 14.2565 215.199 14.3938C215.235 14.7147 215.177 14.9542 215.022 15.1123C214.868 15.2719 214.67 15.3565 214.426 15.3693C214.117 15.3789 213.873 15.3214 213.691 15.1953C213.511 15.0691 213.418 14.8328 213.415 14.488C213.425 14.4018 213.431 14.3363 213.431 14.2932H213.974C213.974 14.3187 213.974 14.3379 213.972 14.3507C213.972 14.3634 213.969 14.381 213.969 14.4018C213.969 14.4241 213.966 14.4449 213.963 14.464C213.963 14.777 214.081 14.9382 214.315 14.9478C214.38 14.9398 214.432 14.9302 214.475 14.9175C214.518 14.9047 214.557 14.868 214.592 14.8089C214.626 14.7498 214.642 14.6844 214.642 14.6125C214.642 14.4497 214.554 14.3091 214.377 14.1894C214.247 14.108 214.124 14.0265 214.002 13.9451C213.881 13.8637 213.781 13.787 213.701 13.7136C213.621 13.6418 213.553 13.5507 213.499 13.4454C213.446 13.3384 213.421 13.217 213.43 13.0797C213.452 12.6343 213.711 12.4012 214.202 12.3772C214.817 12.3565 215.126 12.6375 215.126 13.2202V13.3112H214.609L214.613 13.3144ZM211.658 13.356V14.3938C211.658 14.7594 211.793 14.943 212.061 14.943C212.329 14.943 212.446 14.7594 212.446 14.3938V13.4023C212.446 13.2745 212.422 13.1452 212.37 13.0111C212.32 12.877 212.217 12.8099 212.061 12.8067C211.93 12.8035 211.829 12.8498 211.761 12.9456C211.692 13.0414 211.658 13.1771 211.658 13.356ZM213.009 14.1383C213.004 14.4161 212.983 14.6365 212.945 14.8025C212.908 14.967 212.82 15.1059 212.684 15.2176C212.547 15.3294 212.339 15.3853 212.063 15.3853C211.643 15.3853 211.38 15.2831 211.275 15.0787C211.169 14.8744 211.11 14.579 211.101 14.1926V13.7535C211.101 13.7535 211.097 13.7328 211.093 13.7072C211.096 13.6593 211.099 13.5955 211.102 13.5172C211.106 13.439 211.117 13.3368 211.133 13.2139C211.149 13.0909 211.174 12.9823 211.203 12.8881C211.232 12.7939 211.266 12.7205 211.302 12.6662C211.419 12.5257 211.535 12.4379 211.65 12.4012C211.765 12.3644 211.904 12.3453 212.063 12.3453C212.346 12.3453 212.555 12.4139 212.695 12.5497C212.835 12.6854 212.923 12.8466 212.957 13.0318C212.991 13.217 213.009 13.4326 213.009 13.6769V14.1383ZM208.975 12.2463C208.975 12.1265 209.02 12.0196 209.111 11.9254C209.202 11.8312 209.311 11.7849 209.438 11.7849C209.508 11.7849 209.601 11.8056 209.714 11.8471C209.828 11.8886 209.906 11.9126 209.947 11.9174C210.052 11.9174 210.119 11.8631 210.145 11.7529H210.394C210.342 12.0483 210.207 12.2016 209.986 12.2144C209.908 12.2191 209.809 12.2 209.687 12.1553C209.565 12.1106 209.469 12.0882 209.399 12.0882C209.35 12.0882 209.315 12.101 209.292 12.1249C209.269 12.1489 209.246 12.1888 209.22 12.2447H208.975V12.2463ZM208.754 12.4411H209.324L209.875 13.8333L210.143 14.6684C210.108 14.2102 210.083 13.8828 210.07 13.6865C210.057 13.4901 210.051 13.2873 210.051 13.0813V12.4411H210.598V15.3102H210.036L209.454 13.902L209.214 13.1356C209.235 13.4134 209.253 13.6833 209.271 13.9467C209.287 14.2102 209.295 14.4209 209.295 14.5822V15.3102H208.756V12.4411H208.754ZM207.639 14.1607L207.465 13.1995L207.418 12.7604H207.41L207.368 13.1995L207.169 14.1607H207.639ZM207.057 12.4411H207.798L208.45 15.3102H207.863L207.727 14.5886H207.09L206.939 15.3102H206.363L207.054 12.4411H207.057Z" fill="black"/>
<path d="M188.791 30.2466C188.791 30.2642 188.807 30.2737 188.841 30.2737C188.864 30.2737 188.97 30.2578 189.156 30.2274C189.343 30.1971 189.514 30.1811 189.667 30.1779C189.496 30.2242 189.35 30.2705 189.226 30.3168C189.103 30.3631 188.978 30.4158 188.846 30.4733C188.716 30.5308 188.622 30.5691 188.565 30.5883C188.508 30.6074 188.459 30.617 188.417 30.617C188.285 30.617 188.219 30.534 188.219 30.3663C188.219 29.9352 188.329 29.6319 188.552 29.4563C188.643 29.386 188.788 29.3014 188.987 29.2024C189.187 29.105 189.413 29.0124 189.665 28.9246C189.917 28.8368 190.195 28.7617 190.497 28.6979C190.8 28.634 191.099 28.6021 191.393 28.6021C191.687 28.6021 191.973 28.6452 192.226 28.7314C192.48 28.8176 192.691 28.9389 192.862 29.0954C193.033 29.2519 193.164 29.4419 193.255 29.6686C193.346 29.8953 193.393 30.1492 193.393 30.4302C193.393 30.8597 193.267 31.2764 193.015 31.6788C192.763 32.0827 192.426 32.4388 192.007 32.7469C191.588 33.0551 191.113 33.2994 190.587 33.4798C190.06 33.6602 189.54 33.7496 189.028 33.7496C188.932 33.7496 188.857 33.74 188.801 33.7193C188.745 33.6985 188.706 33.6586 188.682 33.5995C188.659 33.5405 188.648 33.451 188.648 33.3345C188.648 33.1892 188.659 33.071 188.682 32.98C188.705 32.889 188.744 32.7836 188.799 32.6639C189.171 31.8544 189.818 30.8342 190.741 29.6063C190.554 29.6271 190.351 29.6654 190.128 29.7229C189.906 29.7804 189.696 29.8426 189.496 29.9113C189.296 29.9799 189.129 30.0454 188.992 30.1093C188.856 30.1731 188.788 30.2178 188.788 30.2466H188.791ZM190.856 29.584C190.856 29.584 190.861 29.6175 190.873 29.6702C190.882 29.7229 190.889 29.7676 190.889 29.8059C190.889 29.865 190.858 29.9464 190.798 30.0518C190.738 30.1572 190.618 30.344 190.439 30.6138C190.26 30.8836 190.107 31.1184 189.982 31.3227C189.855 31.5255 189.706 31.7873 189.532 32.1067C189.478 32.2089 189.441 32.2775 189.42 32.3126C189.399 32.3478 189.366 32.4068 189.321 32.4883C189.275 32.5697 189.243 32.6399 189.221 32.6974C189.2 32.7565 189.191 32.7996 189.191 32.8299C189.191 32.8954 189.228 32.9417 189.301 32.9689C189.374 32.996 189.48 33.0088 189.616 33.0088C189.967 33.0088 190.34 32.9465 190.733 32.8204C191.126 32.6942 191.495 32.5202 191.84 32.2967C192.184 32.0731 192.46 31.8209 192.667 31.5383C192.873 31.2557 192.977 30.9619 192.977 30.6553C192.977 30.3057 192.847 30.0358 192.586 29.8458C192.324 29.6574 191.945 29.5616 191.446 29.5616C191.237 29.5616 191.04 29.5696 190.856 29.584Z" fill="white"/>
<path d="M193.435 32.5315V32.6273C193.435 32.7774 193.472 32.894 193.547 32.977C193.622 33.06 193.721 33.1031 193.841 33.1031C193.961 33.1031 194.1 33.0744 194.235 33.0153C194.369 32.9562 194.506 32.8796 194.639 32.7838C194.774 32.688 194.938 32.5571 195.132 32.3958V32.6273C194.839 32.9722 194.566 33.2373 194.309 33.4209C194.054 33.6045 193.794 33.6971 193.531 33.6971C193.3 33.6971 193.118 33.6093 192.985 33.4336C192.85 33.258 192.783 33.0185 192.783 32.7136C192.783 32.4469 192.847 32.2058 192.973 31.9887C193.1 31.7715 193.307 31.5432 193.594 31.3005C193.791 31.1361 193.986 31.0115 194.179 30.9269C194.373 30.8423 194.547 30.8008 194.699 30.8008C194.821 30.8008 194.917 30.8279 194.989 30.8822C195.06 30.9365 195.096 31.0179 195.096 31.1281C195.096 31.2878 195.036 31.4474 194.914 31.6055C194.792 31.7636 194.607 31.9216 194.358 32.0781C194.109 32.2346 193.802 32.3846 193.438 32.5299L193.435 32.5315ZM193.474 32.2841C193.706 32.1946 193.906 32.0845 194.07 31.9536C194.236 31.821 194.358 31.6949 194.436 31.5751C194.514 31.4538 194.555 31.366 194.555 31.3101C194.555 31.2542 194.527 31.2223 194.473 31.2223C194.426 31.2223 194.352 31.251 194.246 31.3101C194.142 31.3692 194.035 31.4442 193.927 31.5384C193.82 31.6326 193.724 31.7428 193.638 31.8689C193.554 31.9967 193.497 32.134 193.471 32.2841H193.474Z" fill="white"/>
<path fill-rule="evenodd" clip-rule="evenodd" d="M200.967 27.799C200.694 27.7734 200.491 27.7766 200.219 27.7798C199.803 27.7846 199.979 27.716 199.745 27.89C199.584 28.4744 199.709 29.1194 199.67 29.6511C199.654 29.8587 199.629 29.8826 199.671 30.1413C199.772 30.7528 199.605 30.4143 199.608 31.2382L199.587 32.822C199.667 33.0471 199.65 33.3537 199.541 33.5517C199.87 34.1424 199.116 34.1967 200.804 34.2111C201.332 34.2159 202.223 34.2606 202.722 34.176C202.75 34.085 202.704 34.1616 202.772 34.0339C202.847 33.8934 202.811 33.9684 202.868 33.8902C202.863 33.5197 202.909 33.2324 202.613 33.0887C202.407 32.9881 202.249 33.119 201.875 33.0583L201.547 33.0056C201.074 33.218 200.868 32.9961 200.811 32.6113C200.788 32.4628 200.856 31.7108 200.924 31.5527C201.053 31.2797 200.807 31.4457 201.21 31.3803C201.264 31.3707 201.48 31.3866 201.544 31.3914C201.839 31.4074 201.896 31.4266 202.194 31.3723L202.285 31.1887V30.4239C201.919 30.2818 201.397 30.3249 200.947 30.2626C200.765 29.9417 200.764 29.2376 200.885 28.9007L202.184 28.8639L202.205 28.8703C202.832 28.8288 202.712 28.6133 202.689 27.989L202.241 27.7319L202.051 27.7415C201.976 27.791 201.082 27.8485 200.968 27.8038M195.548 27.8501C195.409 28.1247 195.482 28.2796 195.55 28.6165C195.881 29.6112 195.756 29.3557 195.896 30.2897L196.275 31.8736C196.34 32.3766 196.439 33.2627 196.642 33.6778L196.691 34.0945C197.06 34.243 197.151 34.243 197.603 34.2031L197.776 34.2382C198.238 33.855 198.092 33.689 198.313 32.7246L198.693 31.2206C198.62 30.3345 199.389 28.5462 199.2 27.8213L198.253 27.7383C197.77 28.5127 197.731 30.0598 197.476 31.0226C197.391 31.3403 197.494 31.227 197.344 31.4361C197.235 31.2413 197.17 30.5819 197.188 30.2802C197.144 30.2227 197.12 30.2195 197.076 30.1029C197.066 30.079 197.052 30.0071 197.047 29.9784C197.026 29.8698 197.014 29.6367 196.996 29.5154L196.897 29.1497L196.821 28.8208C196.653 28.4983 196.701 28.4025 196.634 27.9618L196.52 27.8086C195.99 27.8054 196.033 27.716 195.55 27.8517L195.548 27.8501ZM204.017 27.8102L203.359 27.8245C203.187 28.1471 203.289 29.7852 203.185 30.2993C203.328 30.4494 203.239 30.4494 203.227 30.7464C203.227 30.7464 203.268 31.9582 203.166 32.1099L203.205 32.1498L203.255 34.1073C203.361 34.152 203.409 34.1824 203.593 34.2127L203.741 34.2095C204.163 34.1201 204.139 34.2957 204.462 34.1408C204.523 33.4399 204.488 32.9689 204.521 32.351C204.565 32.1307 204.506 32.0764 204.54 31.872C204.581 31.6197 204.599 31.6692 204.844 31.6645L204.978 32.1291C205.239 32.4213 205.134 32.5697 205.249 32.9178C205.371 33.1126 205.477 33.483 205.477 33.7209L205.737 34.2462L206.496 34.2015L206.822 34.1392C206.978 33.4591 206.452 32.9881 206.466 32.4069C206.307 32.2249 206.312 32.1993 206.224 31.8433L206.091 31.3834C206.231 31.2142 206.304 31.1743 206.401 31.0513C206.523 30.8997 206.546 30.7751 206.658 30.6027C206.743 30.2482 206.83 29.8618 206.788 29.4627C206.765 29.2519 206.717 29.1306 206.663 28.9566L206.606 28.6819C206.606 28.6724 206.601 28.642 206.601 28.634C206.601 28.6261 206.598 28.6021 206.595 28.5861L206.496 28.4871C206.167 28.1279 206.346 28.2317 205.854 27.9411C205.837 27.9315 205.81 27.9139 205.797 27.906C205.784 27.898 205.758 27.8852 205.74 27.8708C205.504 27.8804 205.522 27.8597 205.299 27.8182C204.992 27.783 204.748 27.7703 204.552 27.8006C204.453 27.8166 204.324 27.8581 204.225 27.8645C203.856 27.8884 204.097 27.914 204.016 27.8118L204.017 27.8102ZM205.286 30.2897C205.254 30.384 205.4 30.3728 205.113 30.5053C204.981 30.566 204.841 30.5532 204.677 30.55L204.519 30.4047L204.516 28.8751L205.171 28.8528C205.321 29.0204 205.649 29.2072 205.472 29.9768C205.405 30.2674 205.306 30.2706 205.286 30.2882V30.2897ZM207.326 31.7012L207.337 32.0939C207.35 32.2217 207.331 32.854 207.324 33.0775C207.303 33.788 207.359 33.665 207.464 34.1871C207.591 34.2223 207.729 34.2175 207.935 34.1951C208.272 34.16 208.111 34.1951 208.493 34.2031L208.935 34.2111H209.097C209.214 34.1424 209.089 34.1664 209.291 34.1361C209.301 34.1361 209.531 34.1329 209.603 34.1265L210.303 33.8902C210.39 33.7768 210.505 33.6108 210.612 33.4399C210.661 33.3186 210.645 33.309 210.721 33.1845C210.862 32.9513 210.802 33.0727 210.888 32.9881C210.83 32.6208 210.906 32.351 210.895 32.0429C210.882 31.6533 210.752 31.508 210.966 31.2397L210.845 30.0327C210.918 29.5729 210.797 29.0715 210.745 28.6787C210.49 28.5127 210.728 28.7011 210.534 28.4504C210.443 28.3323 210.537 28.4153 210.393 28.2668C210.342 28.2157 210.092 28.0193 210.021 27.9698C209.531 27.9539 209.762 27.9155 209.379 27.8054C209.114 27.7303 209.042 27.7782 208.755 27.7511C208.412 27.8788 207.827 27.7447 207.454 27.8692C207.259 28.2588 207.334 29.4499 207.342 29.98L207.324 31.698L207.326 31.7012ZM208.735 33.0743L208.618 31.5192L208.615 30.7161L208.642 30.162L208.639 29.2727C208.54 29.1561 208.621 29.2982 208.55 29.0827C208.722 28.9486 208.698 28.8767 208.891 28.8368C209.08 28.7969 209.258 28.8959 209.26 28.8959L209.39 28.9566C209.806 29.4132 209.514 32.2249 209.504 32.9945L208.733 33.0743H208.735ZM212.124 28.3818L211.968 29.2248L211.943 29.4148L211.787 29.8331C211.771 30.0024 211.782 30.1844 211.766 30.3281C211.75 30.4718 211.773 30.4223 211.725 30.5356C211.638 30.748 211.673 30.6458 211.565 30.7384C211.691 31.2334 211.48 31.5734 211.425 31.9199C211.373 32.2488 211.441 32.1291 211.348 32.4963C211.301 32.6783 211.274 32.9976 211.192 33.1366C211.139 33.3888 211.213 33.3824 211.059 33.4351C211.072 33.804 211.01 33.7401 211.124 34.1281L211.433 34.2223C211.721 34.1792 211.672 34.1233 211.846 34.2079L212.132 34.2526C212.356 33.9764 212.28 34.1871 212.33 33.796C212.364 33.5373 212.372 33.4048 212.423 33.1701C212.444 32.7917 212.546 32.822 212.915 32.814L213.416 32.8428C213.495 32.9577 213.456 32.8955 213.497 33.0743L213.653 34.045L213.681 34.1488C214.123 34.2398 214.443 34.3101 214.812 34.045C214.908 33.5006 214.639 32.8907 214.595 32.4133C214.547 31.9008 214.387 31.31 214.303 30.7272C214.253 30.3488 214.137 30.3967 214.01 29.3254C213.968 28.9645 213.95 28.8671 213.859 28.5047C213.858 28.4967 213.824 28.3482 213.811 28.3035C213.804 28.2812 213.799 28.2604 213.791 28.2381C213.785 28.2173 213.778 28.1966 213.77 28.1758L213.596 27.8166L212.668 27.8086L212.27 27.8597C212.127 28.0672 212.163 28.1247 212.124 28.3786V28.3818ZM212.993 30.0008C213.147 30.2929 213.281 31.3834 213.146 31.6836L212.666 31.599C212.679 31.3707 212.714 30.9619 212.741 30.7336L212.991 29.9992L212.993 30.0008ZM215.493 27.8134C215.338 27.9762 215.428 27.7527 215.343 28.0912L215.306 30.5532L215.319 31.2126C215.296 31.5048 215.341 31.5607 215.322 31.872C215.302 32.1945 215.298 32.5139 215.296 32.8364C215.293 33.5229 215.065 34.1568 215.881 34.2382L216.208 34.1967C216.604 34.2366 216.705 34.2127 217.08 34.168C217.321 34.1392 217.638 34.1185 217.912 34.0163C218.481 33.8024 218.654 33.4447 218.784 32.8364C218.905 32.434 218.94 29.2631 218.678 28.7155C218.364 28.0561 217.547 27.7671 217.004 27.7591L216.646 27.8118C216.375 27.8182 216.315 27.7671 216.074 27.7846C215.829 27.8006 215.78 27.8277 215.493 27.815V27.8134ZM217.036 28.8624C217.417 28.8432 217.441 28.9134 217.521 29.2807C217.565 29.485 217.583 29.7469 217.571 29.9624C217.548 30.4303 217.579 30.8262 217.539 31.3052L217.542 32.1051L217.453 32.9817L216.789 33.0583C216.568 32.9673 216.629 32.8188 216.622 32.5171C216.617 32.2855 216.625 32.0524 216.629 31.8209L216.672 31.1759C216.502 31.0194 216.591 31.1966 216.58 30.8917C216.575 30.7639 216.59 30.6873 216.598 30.5484C216.617 30.2482 216.588 29.9576 216.622 29.6623L216.619 29.4691C216.58 29.2152 216.567 29.2695 216.528 29.0188L216.672 28.9007C216.711 28.8767 216.72 28.8528 216.825 28.8272C217.02 28.7793 216.924 28.8017 217.038 28.8639L217.036 28.8624Z" fill="white"/>
<path d="M25.9739 28.8928V2.37744H20.3866V30.0248C20.5068 33.6684 21.9029 34.2623 21.9029 34.2623C23.9018 36.049 26.4615 35.9308 26.4615 35.9308H33.271V31.5129H28.0477C25.5628 31.3341 25.9756 28.8928 25.9756 28.8928H25.9739ZM11.9389 29.5474C12.0006 31.7029 9.20206 31.869 9.20206 31.869C6.27998 31.6917 6.53351 29.5474 6.53351 29.5474V2.43492H1.05664V29.7263C1.05664 33.3107 2.14714 33.6668 2.14714 33.6668C4.63204 36.7164 9.32232 36.3587 9.32232 36.3587C14.6675 36.1192 16.3139 33.7849 16.3139 33.7849C17.6465 32.2985 17.5864 30.3809 17.5864 30.3809V2.43492H11.9372V29.5474H11.9389ZM93.6856 2.43492H88.0982L80.6809 36.049H86.4519L87.9178 28.8337H93.7473L95.2019 36.049H101.105L93.6856 2.43492ZM88.6589 24.6138L90.8935 13.9451L92.8909 24.6138H88.6589ZM31.3907 6.85442H36.8562V35.8717H42.4452V6.85442H47.922V2.43492H31.3907V6.85442ZM69.0104 20.5344L65.5439 2.61534H58.3703L58.2485 35.9899H63.6636V17.9032L67.2406 35.9899H70.8274L74.172 17.4864V35.9308H79.4555V2.61534H72.2332L69.0088 20.5344H69.0104ZM49.9828 35.9308H55.4596V2.67601H49.9828V35.9308Z" fill="black"/>
<path d="M114.583 16.9306H108.809V2.36926H103.305V35.9897H108.809V21.3341H114.583V35.8731H120.184V2.42674H114.583V16.9306ZM161.512 23.6988C161.512 23.6988 161.626 21.2272 159.38 19.9866C159.38 19.9866 161.75 19.027 161.925 16.9306V6.65304C161.925 6.65304 161.691 2.65665 157.266 2.48422H145.285V35.9897H150.884V21.4507C150.884 21.4507 153.664 21.4507 154.721 22.257C154.721 22.257 156.011 22.6817 156.071 25.3928L156.095 34.3036C156.095 34.3036 156.167 35.45 157.01 35.9306L162.515 35.8731C162.515 35.8731 161.576 34.7938 161.517 33.6969L161.514 23.6972L161.512 23.6988ZM155.07 17.2196L150.882 17.2292V6.29539L155.013 6.31136C156.52 6.26665 156.398 7.8138 156.398 7.8138L156.422 15.524C156.46 17.1972 155.07 17.218 155.07 17.218V17.2196ZM139.428 3.44539C137.666 1.9222 134.887 1.62842 132.714 1.62842C126.234 1.62842 124.666 5.3438 124.666 5.3438C123.286 7.00111 123.316 11.2849 123.316 11.2849V28.1039C123.08 33.6362 127.739 35.5714 127.739 35.5714C136.002 37.5847 139.426 34.2797 139.426 34.2797C142.127 32.3238 142.09 28.2779 142.09 28.2779V9.64354C141.914 5.16657 139.426 3.4438 139.426 3.4438L139.428 3.44539ZM135.181 31.1231C135.181 31.1231 131.716 32.6814 129.816 30.4318C129.816 30.4318 128.879 29.6031 128.937 26.9511L128.879 11.526C128.879 11.526 128.77 9.61321 129.725 8.18741C130.905 6.42632 132.397 6.64027 133.161 6.64027C133.925 6.64027 135.335 6.9117 136.179 8.64245C136.179 8.64245 136.728 10.2359 136.728 11.5851V26.9527C136.728 26.9527 136.883 29.7788 135.181 31.1263V31.1231ZM176.402 2.43472H170.815L163.397 36.0488H169.168L170.633 28.8335H176.464L177.918 36.0488H183.819L176.404 2.43472H176.402ZM171.374 24.6136L173.61 13.9449L175.607 24.6136H171.374Z" fill="#B21218"/>
</svg>
