<svg width="44" height="44" viewBox="0 0 44 44" fill="none" xmlns="http://www.w3.org/2000/svg">
<circle cx="22" cy="22" r="21.5" stroke="#317DE0"/>
<path d="M32.5512 16.96C32.3599 15.9044 31.4487 15.1356 30.3912 14.8956C28.8087 14.56 25.8799 14.32 22.7112 14.32C19.5443 14.32 16.5687 14.56 14.9843 14.8956C13.9287 15.1356 13.0156 15.8556 12.8243 16.96C12.6312 18.16 12.4399 19.84 12.4399 22C12.4399 24.16 12.6312 25.84 12.8712 27.04C13.0643 28.0956 13.9756 28.8644 15.0312 29.1044C16.7112 29.44 19.5912 29.68 22.7599 29.68C25.9287 29.68 28.8087 29.44 30.4887 29.1044C31.5443 28.8644 32.4556 28.1444 32.6487 27.04C32.8399 25.84 33.0799 24.1112 33.1287 22C33.0312 19.84 32.7912 18.16 32.5512 16.96ZM20.1199 25.36V18.64L25.9756 22L20.1199 25.36Z" fill="#317DE0"/>
</svg>
