<?xml version="1.0" encoding="utf-8"?>
<!-- Generator: Adobe Illustrator 21.0.0, SVG Export Plug-In . SVG Version: 6.00 Build 0)  -->
<svg version="1.1" id="Capa_1" xmlns="http://www.w3.org/2000/svg" xmlns:xlink="http://www.w3.org/1999/xlink" x="0px" y="0px"
	 viewBox="0 0 247 87.9" style="enable-background:new 0 0 247 87.9;" xml:space="preserve">
<style type="text/css">
	.st0{fill:#4CB9AA;stroke:#4CC0AD;stroke-miterlimit:10;}
	.st1{stroke:#000000;stroke-width:0.8714;stroke-miterlimit:10;}
	.st2{fill:#4CC0AD;}
	.st3{fill:#FFFFFF;}
</style>
<g>
	<path class="st0" d="M191.7,46.7h-1.3c0-0.3-0.1-0.8-0.1-1.5c-0.6,1.2-1.5,1.7-2.9,1.7c-0.9,0-1.6-0.2-2.1-0.7
		c-0.5-0.5-0.7-1.1-0.7-1.8c0-0.8,0.4-1.5,1.1-2.1s1.9-0.8,3.6-0.8c0.2,0,0.6,0,1.1,0c0-0.7-0.1-1.1-0.2-1.4
		c-0.1-0.3-0.3-0.5-0.6-0.7s-0.8-0.3-1.3-0.3c-1.3,0-2.1,0.5-2.3,1.5l-1.2-0.2c0.3-1.5,1.5-2.3,3.7-2.3c1.1,0,2,0.3,2.4,0.8
		c0.5,0.5,0.7,1.4,0.7,2.6v3.5C191.5,45.7,191.6,46.2,191.7,46.7z M190.3,42.6c-0.5,0-0.9,0-1.2,0c-1,0-1.8,0.2-2.4,0.5
		c-0.6,0.3-0.8,0.8-0.8,1.5c0,0.4,0.2,0.8,0.5,1c0.3,0.3,0.7,0.4,1.3,0.4c0.8,0,1.4-0.3,1.9-0.9c0.5-0.6,0.8-1.2,0.8-2
		C190.3,43,190.3,42.8,190.3,42.6z"/>
	<path class="st0" d="M195.4,46.7h-1.3V35.5h1.3V46.7z"/>
	<path class="st1" d="M203.5,44.3l1.2,0.2c-0.2,0.7-0.6,1.3-1.3,1.8c-0.6,0.5-1.4,0.7-2.2,0.7c-1.1,0-2.1-0.4-2.8-1.2
		c-0.7-0.8-1.1-1.8-1.1-3.1c0-1.3,0.4-2.4,1.1-3.2c0.7-0.8,1.6-1.2,2.7-1.2c1.1,0,2,0.4,2.6,1.1c0.7,0.8,1,1.9,1,3.4h-6
		c0,1.3,0.3,2.1,0.8,2.5c0.5,0.4,1.1,0.7,1.7,0.7C202.3,45.9,203,45.3,203.5,44.3z M203.4,41.7c0-0.5-0.1-0.9-0.2-1.2
		c-0.1-0.4-0.4-0.7-0.7-0.9c-0.3-0.3-0.7-0.4-1.2-0.4c-0.6,0-1.2,0.2-1.6,0.7c-0.4,0.5-0.7,1.1-0.8,1.9H203.4z"/>
	<path class="st1" d="M205.6,44.6l1.2-0.3c0.3,1,1.1,1.6,2.6,1.6c0.5,0,1-0.1,1.4-0.4c0.4-0.2,0.6-0.6,0.6-1c0-0.7-0.5-1.1-1.4-1.2
		l-1.8-0.3c-0.7-0.1-1.2-0.4-1.6-0.8c-0.4-0.4-0.6-0.9-0.6-1.5c0-0.7,0.3-1.3,0.8-1.7c0.6-0.5,1.3-0.7,2.2-0.7
		c1.8,0,2.9,0.7,3.3,2.1l-1.2,0.3c-0.3-0.9-1-1.3-2.1-1.3c-0.5,0-1,0.1-1.3,0.3c-0.3,0.2-0.5,0.5-0.5,0.9c0,0.6,0.4,1,1.3,1.2
		l1.6,0.3c1.7,0.3,2.5,1.1,2.5,2.5c0,0.8-0.3,1.4-0.9,1.9c-0.6,0.5-1.5,0.7-2.5,0.7C207.3,47,206.1,46.2,205.6,44.6z"/>
	<path class="st1" d="M218.4,45.8v1c-0.5,0.1-0.8,0.1-1.2,0.1c-1.6,0-2.4-0.8-2.4-2.5v-5h-1.5v-1h1.5l0.1-2.1l1.2-0.1v2.2h1.9v1H216
		v5.2c0,0.9,0.4,1.3,1.3,1.3C217.6,45.9,218,45.9,218.4,45.8z"/>
	<path class="st1" d="M226.3,46.7H225c0-0.3-0.1-0.8-0.1-1.5c-0.6,1.2-1.5,1.7-2.9,1.7c-0.9,0-1.6-0.2-2.1-0.7
		c-0.5-0.5-0.7-1.1-0.7-1.8c0-0.8,0.4-1.5,1.1-2.1c0.7-0.5,1.9-0.8,3.6-0.8c0.2,0,0.6,0,1.1,0c0-0.7-0.1-1.1-0.2-1.4
		c-0.1-0.3-0.3-0.5-0.6-0.7c-0.3-0.2-0.8-0.3-1.3-0.3c-1.3,0-2.1,0.5-2.3,1.5l-1.2-0.2c0.3-1.5,1.5-2.3,3.7-2.3c1.1,0,2,0.3,2.4,0.8
		c0.5,0.5,0.7,1.4,0.7,2.6v3.5C226.1,45.7,226.2,46.2,226.3,46.7z M224.9,42.6c-0.5,0-0.9,0-1.2,0c-1,0-1.8,0.2-2.4,0.5
		c-0.6,0.3-0.8,0.8-0.8,1.5c0,0.4,0.2,0.8,0.5,1c0.3,0.3,0.7,0.4,1.3,0.4c0.8,0,1.4-0.3,1.9-0.9c0.5-0.6,0.8-1.2,0.8-2
		C224.9,43,224.9,42.8,224.9,42.6z"/>
	<path class="st1" d="M232.5,45.8v1c-0.5,0.1-0.9,0.1-1.2,0.1c-1.6,0-2.4-0.8-2.4-2.5v-5h-1.5v-1h1.5l0.1-2.1l1.2-0.1v2.2h1.9v1
		h-1.9v5.2c0,0.9,0.4,1.3,1.3,1.3C231.8,45.9,232.1,45.9,232.5,45.8z"/>
	<path class="st1" d="M239.1,44.3l1.2,0.2c-0.2,0.7-0.6,1.3-1.3,1.8c-0.6,0.5-1.4,0.7-2.2,0.7c-1.1,0-2.1-0.4-2.8-1.2
		c-0.7-0.8-1.1-1.8-1.1-3.1c0-1.3,0.4-2.4,1.1-3.2c0.7-0.8,1.6-1.2,2.7-1.2c1.1,0,2,0.4,2.6,1.1c0.7,0.8,1,1.9,1,3.4h-6
		c0,1.3,0.3,2.1,0.8,2.5c0.5,0.4,1.1,0.7,1.7,0.7C237.9,45.9,238.6,45.3,239.1,44.3z M239,41.7c0-0.5-0.1-0.9-0.2-1.2
		c-0.1-0.4-0.4-0.7-0.7-0.9c-0.3-0.3-0.7-0.4-1.2-0.4c-0.6,0-1.2,0.2-1.6,0.7c-0.4,0.5-0.7,1.1-0.8,1.9H239z"/>
	<g>
		<polygon class="st2" points="85.8,62.5 29,85.8 3.2,26.4 60,3 		"/>
		<path class="st1" d="M96.2,43.8l1.2,0.2c-0.2,0.9-0.5,1.6-1.1,2.2C95.7,46.7,95,47,94.2,47c-1.1,0-2-0.4-2.6-1.3
			c-0.6-0.8-0.9-1.9-0.9-3.1c0-1.3,0.3-2.3,1-3.2c0.6-0.8,1.5-1.3,2.6-1.3c0.9,0,1.6,0.3,2.2,0.8c0.5,0.5,0.9,1.2,1,2.1l-1.2,0.2
			c-0.2-1.4-0.9-2.1-2-2.1c-0.7,0-1.3,0.3-1.6,0.9c-0.4,0.6-0.6,1.4-0.6,2.4c0,1.1,0.2,1.9,0.6,2.5c0.4,0.6,0.9,0.9,1.6,0.9
			C95.3,45.9,96,45.2,96.2,43.8z"/>
		<path class="st1" d="M102.2,47c-1.1,0-2-0.4-2.7-1.3c-0.6-0.8-1-1.9-1-3.1c0-1.3,0.4-2.4,1.1-3.2c0.7-0.8,1.6-1.2,2.7-1.2
			c1.1,0,2.1,0.4,2.7,1.2c0.7,0.8,1,1.9,1,3.1c0,1.3-0.4,2.4-1.1,3.2C104.2,46.6,103.3,47,102.2,47z M102.3,45.9
			c0.7,0,1.2-0.3,1.7-0.8c0.4-0.5,0.7-1.4,0.7-2.5c0-1.2-0.2-2-0.7-2.5c-0.5-0.5-1-0.8-1.6-0.8c-0.6,0-1.2,0.3-1.6,0.8
			c-0.4,0.5-0.7,1.4-0.7,2.5c0,1.2,0.2,2.1,0.7,2.6C101.1,45.6,101.6,45.9,102.3,45.9z"/>
		<path class="st1" d="M119.1,46.7h-1.3v-5.2c0-0.5,0-0.9-0.1-1.2c-0.1-0.3-0.3-0.5-0.5-0.7c-0.3-0.2-0.6-0.3-1-0.3
			c-0.5,0-1,0.2-1.4,0.7c-0.5,0.5-0.7,1.1-0.7,2.1v4.7h-1.3v-5.5c0-0.7-0.2-1.2-0.5-1.5c-0.3-0.3-0.7-0.5-1.1-0.5
			c-0.5,0-1,0.2-1.4,0.7c-0.4,0.5-0.6,1.1-0.6,1.8v5h-1.2v-8.3h1.1V40c0.6-1.2,1.5-1.8,2.6-1.8c0.6,0,1.1,0.2,1.5,0.6
			c0.4,0.4,0.7,0.9,0.8,1.4c0.6-1.3,1.4-2,2.6-2c0.6,0,1.1,0.2,1.5,0.5c0.4,0.3,0.7,0.7,0.8,1.1c0.1,0.4,0.2,1,0.2,1.8V46.7z"/>
		<path class="st1" d="M128.2,46.7H127v-1.6c-0.6,1.2-1.5,1.8-2.6,1.8c-0.8,0-1.5-0.3-2-0.8c-0.5-0.6-0.7-1.4-0.7-2.4v-5.3h1.3v5.3
			c0,0.8,0.2,1.4,0.5,1.7c0.3,0.3,0.7,0.5,1.1,0.5c0.4,0,0.8-0.1,1.1-0.4c0.3-0.2,0.6-0.6,0.8-1c0.2-0.4,0.3-0.9,0.3-1.4v-4.7h1.3
			V46.7z"/>
		<path class="st1" d="M137.3,46.7h-1.2v-5.3c0-0.8-0.2-1.3-0.5-1.6c-0.3-0.3-0.7-0.5-1.2-0.5c-0.7,0-1.2,0.3-1.7,0.8
			c-0.4,0.5-0.7,1.2-0.7,2.1v4.6h-1.3v-8.3h1.2v1.5c0.7-1.2,1.6-1.8,2.6-1.8c0.6,0,1.1,0.2,1.6,0.5c0.4,0.3,0.7,0.7,0.9,1.1
			s0.2,1.1,0.2,2.2V46.7z"/>
		<path class="st1" d="M141.3,35.5v1.4h-1.4v-1.4H141.3z M141.2,38.4v8.3h-1.3v-8.3H141.2z"/>
		<path class="st1" d="M150.3,35.5v11.2h-1.2v-1.4c-0.6,1.1-1.5,1.7-2.6,1.7c-1,0-1.8-0.4-2.4-1.2c-0.6-0.8-0.9-1.8-0.9-3.1
			c0-1.3,0.3-2.3,0.9-3.2c0.6-0.8,1.4-1.3,2.5-1.3c1,0,1.8,0.5,2.4,1.4v-4.1H150.3z M149,41.6c0-0.7-0.2-1.3-0.7-1.8
			c-0.4-0.4-1-0.7-1.6-0.7c-0.6,0-1.2,0.3-1.6,0.9c-0.4,0.6-0.6,1.4-0.6,2.4c0,1.1,0.2,2,0.6,2.5c0.4,0.6,0.9,0.9,1.6,0.9
			c0.6,0,1.1-0.3,1.6-0.8c0.5-0.5,0.7-1.1,0.7-1.8V41.6z"/>
		<path class="st1" d="M159.4,46.7h-1.3c0-0.3-0.1-0.8-0.1-1.5c-0.6,1.2-1.5,1.7-2.9,1.7c-0.9,0-1.6-0.2-2.1-0.7
			c-0.5-0.5-0.7-1.1-0.7-1.8c0-0.8,0.4-1.5,1.1-2.1s1.9-0.8,3.6-0.8c0.2,0,0.6,0,1.1,0c0-0.7-0.1-1.1-0.2-1.4
			c-0.1-0.3-0.3-0.5-0.6-0.7c-0.3-0.2-0.8-0.3-1.3-0.3c-1.3,0-2.1,0.5-2.3,1.5l-1.2-0.2c0.3-1.5,1.5-2.3,3.7-2.3
			c1.1,0,2,0.3,2.4,0.8c0.5,0.5,0.7,1.4,0.7,2.6v3.5C159.2,45.7,159.3,46.2,159.4,46.7z M158,42.6c-0.5,0-0.9,0-1.2,0
			c-1,0-1.8,0.2-2.4,0.5c-0.6,0.3-0.8,0.8-0.8,1.5c0,0.4,0.2,0.8,0.5,1c0.3,0.3,0.7,0.4,1.3,0.4c0.8,0,1.4-0.3,1.9-0.9
			c0.5-0.6,0.8-1.2,0.8-2C158,43,158,42.8,158,42.6z"/>
		<path class="st1" d="M168.3,35.5v11.2h-1.2v-1.4c-0.6,1.1-1.5,1.7-2.6,1.7c-1,0-1.8-0.4-2.4-1.2c-0.6-0.8-0.9-1.8-0.9-3.1
			c0-1.3,0.3-2.3,0.9-3.2c0.6-0.8,1.4-1.3,2.5-1.3c1,0,1.8,0.5,2.4,1.4v-4.1H168.3z M167,41.6c0-0.7-0.2-1.3-0.7-1.8
			c-0.4-0.4-1-0.7-1.6-0.7c-0.6,0-1.2,0.3-1.6,0.9c-0.4,0.6-0.6,1.4-0.6,2.4c0,1.1,0.2,2,0.6,2.5c0.4,0.6,0.9,0.9,1.6,0.9
			c0.6,0,1.1-0.3,1.6-0.8c0.5-0.5,0.7-1.1,0.7-1.8V41.6z"/>
		<path class="st0" d="M172.2,46.7h-1.3v-8.3h1.1v1.9c0.4-0.9,0.8-1.5,1.2-1.8c0.4-0.3,0.8-0.4,1.2-0.4c0.1,0,0.3,0,0.5,0v1.2h-0.3
			c-0.7,0-1.3,0.3-1.8,0.8c-0.5,0.5-0.7,1.2-0.8,2.1V46.7z"/>
		<path class="st0" d="M181.9,44.3l1.2,0.2c-0.2,0.7-0.6,1.3-1.3,1.8c-0.6,0.5-1.4,0.7-2.2,0.7c-1.1,0-2.1-0.4-2.8-1.2
			c-0.7-0.8-1.1-1.8-1.1-3.1c0-1.3,0.4-2.4,1.1-3.2c0.7-0.8,1.6-1.2,2.7-1.2c1.1,0,2,0.4,2.6,1.1c0.7,0.8,1,1.9,1,3.4h-6
			c0,1.3,0.3,2.1,0.8,2.5c0.5,0.4,1.1,0.7,1.7,0.7C180.7,45.9,181.5,45.3,181.9,44.3z M181.8,41.7c0-0.5-0.1-0.9-0.2-1.2
			c-0.1-0.4-0.4-0.7-0.7-0.9c-0.3-0.3-0.7-0.4-1.2-0.4c-0.6,0-1.2,0.2-1.6,0.7c-0.4,0.5-0.7,1.1-0.8,1.9H181.8z"/>
		<g>
			<path d="M94.5,55.4V56h-3.5v-6h0.8v5.3H94.5z"/>
			<path d="M98.7,56H98c0-0.1-0.1-0.4-0.1-0.8c-0.3,0.6-0.8,0.9-1.5,0.9c-0.5,0-0.9-0.1-1.1-0.4c-0.3-0.3-0.4-0.6-0.4-0.9
				c0-0.4,0.2-0.8,0.6-1.1c0.4-0.3,1-0.4,1.9-0.4c0.1,0,0.3,0,0.6,0c0-0.3,0-0.6-0.1-0.8c-0.1-0.2-0.2-0.3-0.3-0.4
				c-0.2-0.1-0.4-0.1-0.7-0.1c-0.7,0-1.1,0.3-1.2,0.8L95,52.7c0.2-0.8,0.8-1.2,1.9-1.2c0.6,0,1,0.1,1.3,0.4c0.3,0.3,0.4,0.7,0.4,1.4
				v1.9C98.6,55.5,98.6,55.8,98.7,56z M98,53.8c-0.3,0-0.5,0-0.6,0c-0.5,0-1,0.1-1.3,0.3c-0.3,0.2-0.4,0.4-0.4,0.8
				c0,0.2,0.1,0.4,0.2,0.6c0.2,0.2,0.4,0.2,0.7,0.2c0.4,0,0.8-0.1,1-0.5c0.3-0.3,0.4-0.7,0.4-1.1C98,54,98,53.9,98,53.8z"/>
			<path d="M108.1,56h-0.7v-2.7c0-0.3,0-0.5-0.1-0.6c0-0.1-0.1-0.3-0.3-0.4c-0.2-0.1-0.3-0.2-0.5-0.2c-0.3,0-0.5,0.1-0.8,0.4
				c-0.2,0.2-0.4,0.6-0.4,1.1V56h-0.7v-2.9c0-0.4-0.1-0.7-0.3-0.8c-0.2-0.2-0.4-0.2-0.6-0.2c-0.3,0-0.5,0.1-0.8,0.4
				c-0.2,0.3-0.3,0.6-0.3,1V56h-0.7v-4.4h0.6v0.8c0.3-0.6,0.8-1,1.4-1c0.3,0,0.6,0.1,0.8,0.3c0.2,0.2,0.4,0.5,0.4,0.7
				c0.3-0.7,0.8-1.1,1.4-1.1c0.3,0,0.6,0.1,0.8,0.3c0.2,0.2,0.4,0.4,0.4,0.6c0.1,0.2,0.1,0.5,0.1,0.9V56z"/>
			<path d="M112.4,54.7l0.6,0.1c-0.1,0.4-0.3,0.7-0.7,0.9c-0.3,0.2-0.7,0.4-1.2,0.4c-0.6,0-1.1-0.2-1.5-0.6c-0.4-0.4-0.6-1-0.6-1.7
				c0-0.7,0.2-1.3,0.6-1.7c0.4-0.4,0.9-0.6,1.5-0.6c0.6,0,1,0.2,1.4,0.6c0.4,0.4,0.5,1,0.5,1.8h-3.2c0,0.7,0.1,1.1,0.4,1.3
				c0.3,0.2,0.6,0.3,0.9,0.3C111.8,55.6,112.2,55.3,112.4,54.7z M112.4,53.4c0-0.2,0-0.5-0.1-0.7c-0.1-0.2-0.2-0.4-0.4-0.5
				c-0.2-0.1-0.4-0.2-0.7-0.2c-0.3,0-0.6,0.1-0.9,0.4c-0.2,0.2-0.4,0.6-0.4,1H112.4z"/>
			<path d="M114.8,51.6v4.6c0,0.5-0.1,0.9-0.4,1.1c-0.2,0.2-0.5,0.3-0.9,0.3c-0.2,0-0.4,0-0.6-0.1v-0.5c0.2,0,0.4,0.1,0.5,0.1
				c0.3,0,0.4-0.1,0.6-0.2c0.1-0.1,0.2-0.3,0.2-0.6v-4.6H114.8z M114.9,50.1v0.8h-0.8v-0.8H114.9z"/>
			<path d="M117.8,56.2c-0.6,0-1.1-0.2-1.4-0.7c-0.3-0.4-0.5-1-0.5-1.7c0-0.7,0.2-1.3,0.6-1.7c0.4-0.4,0.9-0.6,1.4-0.6
				c0.6,0,1.1,0.2,1.4,0.7c0.4,0.4,0.5,1,0.5,1.7c0,0.7-0.2,1.2-0.6,1.7C118.9,55.9,118.4,56.2,117.8,56.2z M117.8,55.6
				c0.3,0,0.6-0.1,0.9-0.4c0.2-0.3,0.4-0.7,0.4-1.3c0-0.6-0.1-1.1-0.4-1.3c-0.2-0.3-0.5-0.4-0.9-0.4c-0.3,0-0.6,0.1-0.9,0.4
				c-0.2,0.3-0.4,0.7-0.4,1.3c0,0.6,0.1,1.1,0.4,1.4C117.2,55.5,117.5,55.6,117.8,55.6z"/>
			<path d="M121.5,56h-0.7v-4.4h0.6v1c0.2-0.5,0.4-0.8,0.6-0.9c0.2-0.1,0.4-0.2,0.7-0.2c0.1,0,0.2,0,0.3,0v0.7h-0.1
				c-0.4,0-0.7,0.1-0.9,0.4c-0.3,0.3-0.4,0.7-0.4,1.1V56z"/>
			<path d="M126.7,50.1v0.8H126v-0.8H126.7z M126.7,51.6V56H126v-4.4H126.7z"/>
			<path d="M131.5,56h-0.6v-2.8c0-0.4-0.1-0.7-0.3-0.9c-0.2-0.2-0.4-0.2-0.6-0.2c-0.3,0-0.6,0.1-0.9,0.4c-0.2,0.3-0.4,0.6-0.4,1.1
				V56h-0.7v-4.4h0.6v0.8c0.4-0.6,0.8-0.9,1.4-0.9c0.3,0,0.6,0.1,0.8,0.3c0.2,0.2,0.4,0.4,0.5,0.6c0.1,0.2,0.1,0.6,0.1,1.2V56z"/>
			<path d="M134.7,51.6v0.5h-1V56H133v-3.9h-0.7v-0.5h0.7c0-0.7,0.1-1.2,0.4-1.4c0.3-0.2,0.6-0.3,1-0.3c0.2,0,0.4,0,0.6,0.1v0.5
				c-0.1,0-0.3-0.1-0.4-0.1c-0.3,0-0.5,0.1-0.7,0.2c-0.1,0.1-0.2,0.4-0.2,0.7v0.2H134.7z"/>
			<path d="M137,56.2c-0.6,0-1.1-0.2-1.4-0.7c-0.3-0.4-0.5-1-0.5-1.7c0-0.7,0.2-1.3,0.6-1.7c0.4-0.4,0.9-0.6,1.4-0.6
				c0.6,0,1.1,0.2,1.4,0.7c0.4,0.4,0.5,1,0.5,1.7c0,0.7-0.2,1.2-0.6,1.7C138,55.9,137.6,56.2,137,56.2z M137,55.6
				c0.3,0,0.6-0.1,0.9-0.4c0.2-0.3,0.4-0.7,0.4-1.3c0-0.6-0.1-1.1-0.4-1.3c-0.2-0.3-0.5-0.4-0.9-0.4c-0.3,0-0.6,0.1-0.9,0.4
				c-0.2,0.3-0.4,0.7-0.4,1.3c0,0.6,0.1,1.1,0.4,1.4C136.4,55.5,136.7,55.6,137,55.6z"/>
			<path d="M140.7,56H140v-4.4h0.6v1c0.2-0.5,0.4-0.8,0.6-0.9c0.2-0.1,0.4-0.2,0.7-0.2c0.1,0,0.2,0,0.3,0v0.7h-0.1
				c-0.4,0-0.7,0.1-0.9,0.4c-0.3,0.3-0.4,0.7-0.4,1.1V56z"/>
			<path d="M148.9,56h-0.7v-2.7c0-0.3,0-0.5-0.1-0.6c0-0.1-0.1-0.3-0.3-0.4c-0.2-0.1-0.3-0.2-0.5-0.2c-0.3,0-0.5,0.1-0.8,0.4
				c-0.2,0.2-0.4,0.6-0.4,1.1V56h-0.7v-2.9c0-0.4-0.1-0.7-0.3-0.8c-0.2-0.2-0.4-0.2-0.6-0.2c-0.3,0-0.5,0.1-0.8,0.4
				c-0.2,0.3-0.3,0.6-0.3,1V56H143v-4.4h0.6v0.8c0.3-0.6,0.8-1,1.4-1c0.3,0,0.6,0.1,0.8,0.3c0.2,0.2,0.4,0.5,0.4,0.7
				c0.3-0.7,0.8-1.1,1.4-1.1c0.3,0,0.6,0.1,0.8,0.3c0.2,0.2,0.4,0.4,0.4,0.6c0.1,0.2,0.1,0.5,0.1,0.9V56z"/>
			<path d="M153.7,56H153c0-0.1-0.1-0.4-0.1-0.8c-0.3,0.6-0.8,0.9-1.5,0.9c-0.5,0-0.9-0.1-1.1-0.4c-0.3-0.3-0.4-0.6-0.4-0.9
				c0-0.4,0.2-0.8,0.6-1.1c0.4-0.3,1-0.4,1.9-0.4c0.1,0,0.3,0,0.6,0c0-0.3,0-0.6-0.1-0.8c-0.1-0.2-0.2-0.3-0.3-0.4
				c-0.2-0.1-0.4-0.1-0.7-0.1c-0.7,0-1.1,0.3-1.2,0.8l-0.6-0.1c0.2-0.8,0.8-1.2,1.9-1.2c0.6,0,1,0.1,1.3,0.4
				c0.3,0.3,0.4,0.7,0.4,1.4v1.9C153.6,55.5,153.6,55.8,153.7,56z M152.9,53.8c-0.3,0-0.5,0-0.6,0c-0.5,0-1,0.1-1.3,0.3
				c-0.3,0.2-0.4,0.4-0.4,0.8c0,0.2,0.1,0.4,0.2,0.6c0.2,0.2,0.4,0.2,0.7,0.2c0.4,0,0.8-0.1,1-0.5c0.3-0.3,0.4-0.7,0.4-1.1
				C152.9,54,152.9,53.9,152.9,53.8z"/>
			<path d="M157.6,54.5l0.6,0.1c-0.1,0.5-0.3,0.9-0.6,1.1c-0.3,0.3-0.7,0.4-1.1,0.4c-0.6,0-1.1-0.2-1.4-0.7c-0.3-0.4-0.5-1-0.5-1.6
				c0-0.7,0.2-1.2,0.5-1.7c0.3-0.4,0.8-0.7,1.4-0.7c0.5,0,0.9,0.1,1.2,0.4c0.3,0.3,0.5,0.7,0.5,1.1l-0.6,0.1
				c-0.1-0.7-0.5-1.1-1.1-1.1c-0.4,0-0.7,0.2-0.9,0.5c-0.2,0.3-0.3,0.7-0.3,1.2c0,0.6,0.1,1,0.3,1.3c0.2,0.3,0.5,0.5,0.9,0.5
				C157.1,55.6,157.4,55.2,157.6,54.5z"/>
			<path d="M159.8,50.1v0.8h-0.7v-0.8H159.8z M159.8,51.6V56h-0.7v-4.4H159.8z"/>
			<path d="M162.8,56.2c-0.6,0-1.1-0.2-1.4-0.7c-0.3-0.4-0.5-1-0.5-1.7c0-0.7,0.2-1.3,0.6-1.7c0.4-0.4,0.9-0.6,1.4-0.6
				c0.6,0,1.1,0.2,1.4,0.7c0.4,0.4,0.5,1,0.5,1.7c0,0.7-0.2,1.2-0.6,1.7C163.8,55.9,163.4,56.2,162.8,56.2z M162.8,55.6
				c0.3,0,0.6-0.1,0.9-0.4c0.2-0.3,0.4-0.7,0.4-1.3c0-0.6-0.1-1.1-0.4-1.3c-0.2-0.3-0.5-0.4-0.9-0.4c-0.3,0-0.6,0.1-0.9,0.4
				c-0.2,0.3-0.4,0.7-0.4,1.3c0,0.6,0.1,1.1,0.4,1.4C162.2,55.5,162.5,55.6,162.8,55.6z M164.1,50.1l-1.8,0.8l-0.2-0.4l1.7-1
				L164.1,50.1z"/>
			<path d="M169.3,56h-0.6v-2.8c0-0.4-0.1-0.7-0.3-0.9c-0.2-0.2-0.4-0.2-0.6-0.2c-0.3,0-0.6,0.1-0.9,0.4c-0.2,0.3-0.4,0.6-0.4,1.1
				V56h-0.7v-4.4h0.6v0.8c0.4-0.6,0.8-0.9,1.4-0.9c0.3,0,0.6,0.1,0.8,0.3c0.2,0.2,0.4,0.4,0.5,0.6c0.1,0.2,0.1,0.6,0.1,1.2V56z"/>
			<path d="M171.6,55.1v1h-1v-1H171.6z"/>
			<path d="M178.7,55.4V56h-3.5v-6h0.8v5.3H178.7z"/>
			<path d="M183,56h-0.7c0-0.1-0.1-0.4-0.1-0.8c-0.3,0.6-0.8,0.9-1.5,0.9c-0.5,0-0.9-0.1-1.1-0.4c-0.3-0.3-0.4-0.6-0.4-0.9
				c0-0.4,0.2-0.8,0.6-1.1c0.4-0.3,1-0.4,1.9-0.4c0.1,0,0.3,0,0.6,0c0-0.3,0-0.6-0.1-0.8c-0.1-0.2-0.2-0.3-0.3-0.4
				c-0.2-0.1-0.4-0.1-0.7-0.1c-0.7,0-1.1,0.3-1.2,0.8l-0.6-0.1c0.2-0.8,0.8-1.2,1.9-1.2c0.6,0,1,0.1,1.3,0.4
				c0.3,0.3,0.4,0.7,0.4,1.4v1.9C182.9,55.5,182.9,55.8,183,56z M182.2,53.8c-0.3,0-0.5,0-0.6,0c-0.5,0-1,0.1-1.3,0.3
				c-0.3,0.2-0.5,0.4-0.5,0.8c0,0.2,0.1,0.4,0.2,0.6c0.2,0.2,0.4,0.2,0.7,0.2c0.4,0,0.8-0.1,1-0.5c0.3-0.3,0.4-0.7,0.4-1.1
				C182.2,54,182.2,53.9,182.2,53.8z"/>
			<path d="M192.4,56h-0.7v-2.7c0-0.3,0-0.5-0.1-0.6c0-0.1-0.1-0.3-0.3-0.4c-0.2-0.1-0.3-0.2-0.5-0.2c-0.3,0-0.5,0.1-0.8,0.4
				c-0.2,0.2-0.4,0.6-0.4,1.1V56h-0.7v-2.9c0-0.4-0.1-0.7-0.3-0.8c-0.2-0.2-0.4-0.2-0.6-0.2c-0.3,0-0.5,0.1-0.8,0.4
				c-0.2,0.3-0.3,0.6-0.3,1V56h-0.7v-4.4h0.6v0.8c0.3-0.6,0.8-1,1.4-1c0.3,0,0.6,0.1,0.8,0.3c0.2,0.2,0.4,0.5,0.4,0.7
				c0.3-0.7,0.8-1.1,1.4-1.1c0.3,0,0.6,0.1,0.8,0.3c0.2,0.2,0.4,0.4,0.4,0.6c0.1,0.2,0.1,0.5,0.1,0.9V56z"/>
			<path d="M196.7,54.7l0.6,0.1c-0.1,0.4-0.3,0.7-0.7,0.9c-0.3,0.2-0.7,0.4-1.2,0.4c-0.6,0-1.1-0.2-1.5-0.6c-0.4-0.4-0.6-1-0.6-1.7
				c0-0.7,0.2-1.3,0.6-1.7c0.4-0.4,0.9-0.6,1.5-0.6c0.6,0,1,0.2,1.4,0.6c0.3,0.4,0.5,1,0.5,1.8h-3.2c0,0.7,0.1,1.1,0.4,1.3
				c0.3,0.2,0.6,0.3,0.9,0.3C196,55.6,196.4,55.3,196.7,54.7z M196.6,53.4c0-0.2,0-0.5-0.1-0.7c-0.1-0.2-0.2-0.4-0.4-0.5
				c-0.2-0.1-0.4-0.2-0.7-0.2c-0.3,0-0.6,0.1-0.9,0.4c-0.2,0.2-0.4,0.6-0.4,1H196.6z"/>
			<path d="M199.1,51.6v4.6c0,0.5-0.1,0.9-0.4,1.1c-0.2,0.2-0.5,0.3-0.9,0.3c-0.2,0-0.4,0-0.6-0.1v-0.5c0.2,0,0.4,0.1,0.5,0.1
				c0.3,0,0.4-0.1,0.6-0.2c0.1-0.1,0.2-0.3,0.2-0.6v-4.6H199.1z M199.1,50.1v0.8h-0.8v-0.8H199.1z"/>
			<path d="M202,56.2c-0.6,0-1.1-0.2-1.4-0.7c-0.3-0.4-0.5-1-0.5-1.7c0-0.7,0.2-1.3,0.6-1.7c0.4-0.4,0.9-0.6,1.4-0.6
				c0.6,0,1.1,0.2,1.4,0.7c0.4,0.4,0.5,1,0.5,1.7c0,0.7-0.2,1.2-0.6,1.7C203.1,55.9,202.6,56.2,202,56.2z M202.1,55.6
				c0.3,0,0.6-0.1,0.9-0.4c0.2-0.3,0.4-0.7,0.4-1.3c0-0.6-0.1-1.1-0.4-1.3c-0.2-0.3-0.5-0.4-0.9-0.4c-0.3,0-0.6,0.1-0.9,0.4
				c-0.2,0.3-0.4,0.7-0.4,1.3c0,0.6,0.1,1.1,0.4,1.4C201.4,55.5,201.7,55.6,202.1,55.6z"/>
			<path d="M205.8,56h-0.7v-4.4h0.6v1c0.2-0.5,0.4-0.8,0.6-0.9c0.2-0.1,0.4-0.2,0.7-0.2c0.1,0,0.2,0,0.3,0v0.7h-0.1
				c-0.4,0-0.7,0.1-0.9,0.4c-0.3,0.3-0.4,0.7-0.4,1.1V56z"/>
			<path d="M213.7,50.1v6h-0.6v-0.8c-0.3,0.6-0.8,0.9-1.4,0.9c-0.5,0-0.9-0.2-1.3-0.6c-0.3-0.4-0.5-1-0.5-1.6c0-0.7,0.2-1.2,0.5-1.7
				c0.3-0.5,0.8-0.7,1.3-0.7c0.5,0,1,0.2,1.3,0.7v-2.2H213.7z M213,53.3c0-0.4-0.1-0.7-0.4-0.9c-0.2-0.2-0.5-0.3-0.8-0.3
				c-0.3,0-0.6,0.2-0.8,0.5c-0.2,0.3-0.3,0.7-0.3,1.3c0,0.6,0.1,1,0.3,1.3c0.2,0.3,0.5,0.5,0.8,0.5c0.3,0,0.6-0.1,0.8-0.4
				c0.2-0.3,0.4-0.6,0.4-0.9V53.3z"/>
			<path d="M218,54.7l0.6,0.1c-0.1,0.4-0.3,0.7-0.7,0.9c-0.3,0.2-0.7,0.4-1.2,0.4c-0.6,0-1.1-0.2-1.5-0.6c-0.4-0.4-0.6-1-0.6-1.7
				c0-0.7,0.2-1.3,0.6-1.7c0.4-0.4,0.9-0.6,1.5-0.6c0.6,0,1,0.2,1.4,0.6c0.4,0.4,0.5,1,0.5,1.8h-3.2c0,0.7,0.1,1.1,0.4,1.3
				c0.3,0.2,0.6,0.3,0.9,0.3C217.4,55.6,217.8,55.3,218,54.7z M217.9,53.4c0-0.2,0-0.5-0.1-0.7c-0.1-0.2-0.2-0.4-0.4-0.5
				c-0.2-0.1-0.4-0.2-0.7-0.2c-0.3,0-0.6,0.1-0.9,0.4c-0.2,0.2-0.4,0.6-0.4,1H217.9z"/>
			<path d="M222.3,54.5l0.6,0.1c-0.1,0.5-0.3,0.9-0.6,1.1c-0.3,0.3-0.7,0.4-1.1,0.4c-0.6,0-1.1-0.2-1.4-0.7c-0.3-0.4-0.5-1-0.5-1.6
				c0-0.7,0.2-1.2,0.5-1.7c0.3-0.4,0.8-0.7,1.4-0.7c0.5,0,0.9,0.1,1.2,0.4c0.3,0.3,0.5,0.7,0.5,1.1l-0.6,0.1
				c-0.1-0.7-0.5-1.1-1.1-1.1c-0.4,0-0.7,0.2-0.9,0.5c-0.2,0.3-0.3,0.7-0.3,1.2c0,0.6,0.1,1,0.3,1.3c0.2,0.3,0.5,0.5,0.9,0.5
				C221.8,55.6,222.2,55.2,222.3,54.5z"/>
			<path d="M224.6,50.1v0.8h-0.7v-0.8H224.6z M224.6,51.6V56h-0.7v-4.4H224.6z"/>
			<path d="M225.3,54.9l0.7-0.1c0.1,0.6,0.6,0.8,1.4,0.8c0.3,0,0.5-0.1,0.7-0.2c0.2-0.1,0.3-0.3,0.3-0.5c0-0.3-0.3-0.6-0.8-0.7
				l-0.9-0.2c-0.4-0.1-0.7-0.2-0.9-0.4c-0.2-0.2-0.3-0.5-0.3-0.8c0-0.4,0.1-0.7,0.4-0.9c0.3-0.2,0.7-0.4,1.2-0.4
				c1,0,1.5,0.4,1.8,1.1l-0.6,0.1c-0.2-0.5-0.6-0.7-1.1-0.7c-0.3,0-0.5,0.1-0.7,0.2c-0.2,0.1-0.3,0.3-0.3,0.5c0,0.3,0.2,0.5,0.7,0.6
				l0.9,0.2c0.9,0.2,1.3,0.6,1.3,1.3c0,0.4-0.2,0.7-0.5,1c-0.3,0.2-0.8,0.4-1.3,0.4C226.2,56.2,225.6,55.7,225.3,54.9z"/>
			<path d="M230.8,50.1v0.8h-0.7v-0.8H230.8z M230.8,51.6V56h-0.7v-4.4H230.8z"/>
			<path d="M233.7,56.2c-0.6,0-1.1-0.2-1.4-0.7c-0.3-0.4-0.5-1-0.5-1.7c0-0.7,0.2-1.3,0.6-1.7c0.4-0.4,0.9-0.6,1.4-0.6
				c0.6,0,1.1,0.2,1.4,0.7c0.4,0.4,0.5,1,0.5,1.7c0,0.7-0.2,1.2-0.6,1.7C234.8,55.9,234.3,56.2,233.7,56.2z M233.8,55.6
				c0.3,0,0.6-0.1,0.9-0.4c0.2-0.3,0.4-0.7,0.4-1.3c0-0.6-0.1-1.1-0.4-1.3c-0.2-0.3-0.5-0.4-0.9-0.4c-0.3,0-0.6,0.1-0.9,0.4
				c-0.2,0.3-0.4,0.7-0.4,1.3c0,0.6,0.1,1.1,0.4,1.4C233.1,55.5,233.4,55.6,233.8,55.6z M235.1,50.1l-1.8,0.8l-0.2-0.4l1.7-1
				L235.1,50.1z"/>
			<path d="M240.3,56h-0.6v-2.8c0-0.4-0.1-0.7-0.3-0.9c-0.2-0.2-0.4-0.2-0.6-0.2c-0.3,0-0.6,0.1-0.9,0.4c-0.2,0.3-0.4,0.6-0.4,1.1
				V56h-0.7v-4.4h0.6v0.8c0.4-0.6,0.8-0.9,1.4-0.9c0.3,0,0.6,0.1,0.8,0.3c0.2,0.2,0.4,0.4,0.5,0.6c0.1,0.2,0.1,0.6,0.1,1.2V56z"/>
			<path d="M242.5,55.1v1h-1v-1H242.5z"/>
		</g>
		<g>
			<path class="st3" d="M33.8,43.6L27.4,44c-0.1-3.7-1.5-5.5-4.3-5.5c-3.2,0-4.8,2.8-4.8,8.5c0,3.3,0.4,5.5,1.3,6.6
				c0.9,1.2,2.1,1.7,3.6,1.7c2.5,0,4.1-1.6,4.6-4.9l5.9,0.4c-0.4,3.1-1.5,5.5-3.5,7.1c-1.9,1.6-4.3,2.4-7.1,2.4
				c-3.4,0-6.2-1.2-8.4-3.6c-2.2-2.4-3.2-5.7-3.2-9.8c0-3.9,1-7.1,3.1-9.6c2.1-2.5,4.9-3.8,8.5-3.8C29.4,33.5,33,36.8,33.8,43.6z"/>
			<path class="st3" d="M43.4,49.6v10.3h-6.1v-26h11.4c2.1,0,3.8,0.2,5.1,0.7c1.3,0.5,2.3,1.4,3.2,2.7c0.8,1.3,1.3,2.8,1.3,4.4
				c0,3.1-1.5,5.4-4.5,6.7l4.8,11.5h-6.7l-4-10.3H43.4z M43.4,38.5v6.6h3.7c1.2,0,2.1-0.1,2.7-0.3c0.6-0.2,1-0.6,1.5-1.1
				c0.4-0.6,0.6-1.3,0.6-2c0-0.7-0.2-1.4-0.6-1.9c-0.4-0.6-0.9-0.9-1.4-1.1c-0.5-0.1-1.5-0.2-2.9-0.2H43.4z"/>
			<path class="st3" d="M81.5,38.8H69.1v5.3h9.7v4.9h-9.7v5.7h12.4v5.1H62.9v-26h18.6V38.8z"/>
		</g>
	</g>
</g>
</svg>
