<svg width="268" height="39" viewBox="0 0 268 39" fill="none" xmlns="http://www.w3.org/2000/svg">
<g clip-path="url(#clip0_2649_220)">
<path d="M65.592 27.7456V23.2479C65.592 15.6234 70.784 11.6992 77.7634 11.6992C84.7428 11.6992 89.9706 15.6234 89.9706 23.2479V27.7456C89.9706 35.6926 84.8145 39.3301 77.7634 39.3301C70.7124 39.3301 65.592 35.6971 65.592 27.7456ZM81.719 27.4947V23.5033C81.719 19.4715 80.617 17.5318 77.7634 17.5318C74.9098 17.5318 73.8078 19.476 73.8078 23.5033V27.4947C73.8078 31.522 74.9098 33.5378 77.7634 33.5378C80.617 33.5378 81.719 31.522 81.719 27.4947Z" fill="#D2072A"/>
<path d="M158.833 27.5494V23.1638C158.833 15.7319 163.716 11.9062 170.274 11.9062C176.832 11.9062 181.747 15.7274 181.747 23.1638V27.5494C181.747 35.2993 176.899 38.8383 170.274 38.8383C163.648 38.8383 158.833 35.2993 158.833 27.5494ZM173.992 27.303V23.4102C173.992 19.4859 172.957 17.591 170.274 17.591C167.591 17.591 166.556 19.4859 166.556 23.4102V27.303C166.556 31.2317 167.591 33.1939 170.274 33.1939C172.957 33.1939 173.992 31.2273 173.992 27.303Z" fill="#004884"/>
<path d="M215.918 27.5494V23.1638C215.918 15.7319 220.801 11.9062 227.359 11.9062C233.917 11.9062 238.831 15.7274 238.831 23.1638V27.5494C238.831 35.2993 233.984 38.8383 227.359 38.8383C220.733 38.8383 215.918 35.2993 215.918 27.5494ZM231.073 27.303V23.4102C231.073 19.4859 230.038 17.591 227.359 17.591C224.68 17.591 223.641 19.4859 223.641 23.4102V27.303C223.641 31.2317 224.676 33.1939 227.359 33.1939C230.042 33.1939 231.073 31.2273 231.073 27.303Z" fill="#004884"/>
<path d="M107.652 38.5922L98.9882 25.2964V38.5922H92.3403V12.1484H98.155L106.819 25.4442V12.1484H113.467V38.5922H107.652Z" fill="#004884"/>
<path d="M115.653 38.5922V12.1484H134.441V17.9452H122.628V22.3622H132.649V28.1589H122.628V32.7999H134.441V38.5922H115.653Z" fill="#004884"/>
<path d="M214.005 12.1484H207.035V38.5922H214.005V12.1484Z" fill="#004884"/>
<path d="M249.686 38.8164C245.493 38.8164 242.066 38.0727 239.293 35.3267L243.602 31.165C245.027 32.5403 247.527 33.0241 249.722 33.0241C252.378 33.0241 253.646 32.1685 253.646 30.6454C253.646 30.0137 253.494 29.4941 253.108 29.0864C252.763 28.7549 252.186 28.4951 251.299 28.3831L247.988 27.9396C245.565 27.6081 243.714 26.8242 242.483 25.6012C241.21 24.3379 240.597 22.555 240.597 20.2883C240.597 15.4591 244.368 11.9336 250.604 11.9336C254.528 11.9336 257.494 12.8251 259.841 15.0918L255.608 19.1773C253.874 17.5064 251.608 17.6183 250.412 17.6183C248.064 17.6183 247.101 18.9175 247.101 20.0688C247.101 20.4047 247.218 20.8841 247.639 21.2917C247.984 21.6277 248.562 21.9592 249.525 22.0712L252.835 22.5147C255.299 22.8507 257.068 23.5943 258.224 24.7053C259.689 26.0805 260.263 28.0471 260.263 30.4975C260.263 35.8822 255.451 38.8164 249.677 38.8164" fill="#004884"/>
<path d="M7.12296 32.9968H10.3708V18.0346H6.84521V12.2109H18.7433V32.9968H21.9867V38.6681H7.12296V32.9968Z" fill="#D2072A"/>
<path d="M21.5432 32.9973H24.3654V18.035H21.261V12.2114H30.9506C31.3717 12.2114 31.8914 14.8678 32.2184 17.0136C33.6295 13.8957 36.4517 11.5977 40.3087 11.5977C45.1065 11.5977 48.4439 15.3248 48.4439 22.5774V32.9973H51.0332V38.6641H40.0713V23.6974C40.0713 20.584 38.9424 18.9489 36.4965 18.9489C34.0506 18.9489 32.8276 20.687 32.7335 23.0344V32.9928H35.4617V38.6596H21.5387V32.9928L21.5432 32.9973Z" fill="#D2072A"/>
<path d="M50.4507 12.2106H53.5551V10.9339C53.5551 4.0889 57.6003 0.3125 63.7151 0.3125C65.834 0.3125 67.2451 0.720155 68.4188 1.18157L67.1959 7.66819C66.6314 7.46212 65.9729 7.26054 64.9381 7.26054C63.2448 7.26054 61.9277 8.23264 61.9277 10.8891V12.2151H67.1018V18.1373H61.9277V33.001H65.1262V38.6678H50.7329V33.001H53.5551V18.1373H50.4507V12.2151V12.2106Z" fill="#D2072A"/>
<path d="M8.92334 5.18829C8.92334 7.81788 11.0557 9.95023 13.6898 9.95023C16.3238 9.95023 18.4517 7.81788 18.4517 5.18829C18.4517 2.5587 16.3193 0.421875 13.6898 0.421875C11.0602 0.421875 8.92334 2.55422 8.92334 5.18829Z" fill="#D2072A"/>
<path d="M157.166 23.3206H146.307V28.6917H149.734C149.51 31.6932 148.475 33.1894 146.245 33.1894C143.691 33.1894 142.71 31.2273 142.71 27.2986V23.4057C142.71 19.477 143.696 17.5865 146.245 17.5865C148.104 17.5865 149.125 18.5989 149.546 20.6596H156.965C156.033 14.8718 151.795 11.9062 146.245 11.9062C140.004 11.9062 135.359 15.7274 135.359 23.1638V27.5494C135.359 35.2993 140 38.8428 146.245 38.8428C152.489 38.8428 157.162 35.2993 157.162 27.5494V23.3206H157.166Z" fill="#004884"/>
<path d="M197.784 28.6957C197.56 31.6971 196.525 33.1933 194.299 33.1933C191.745 33.1933 190.764 31.2267 190.764 27.3025V23.4096C190.764 19.4854 191.745 17.5904 194.299 17.5904C196.158 17.5904 197.179 18.6028 197.6 20.6635H205.019C204.087 14.8757 199.849 11.9102 194.299 11.9102C188.058 11.9102 183.413 15.7314 183.413 23.1677V27.5533C183.413 35.3032 188.058 38.8422 194.299 38.8422C200.539 38.8422 204.736 35.6482 205.175 28.7001H197.788L197.784 28.6957Z" fill="#004884"/>
</g>
<defs>
<clipPath id="clip0_2649_220">
<rect width="267.116" height="39" fill="white"/>
</clipPath>
</defs>
</svg>
