<svg width="162" height="16" viewBox="0 0 162 16" fill="none" xmlns="http://www.w3.org/2000/svg">
<g clip-path="url(#clip0_124_443)">
<path d="M58.8 0H47V7.8H58.8V0Z" fill="#2525F4"/>
<path d="M47.1 0H35.3V7.8H47.1V0Z" fill="#2525F4"/>
<path d="M35.3 0H23.5V7.8H35.3V0Z" fill="#2525F4"/>
<path d="M11.8 0H0V7.8H11.8V0Z" fill="#2525F4"/>
<path d="M162.1 0H150.3V7.8H162.1V0Z" fill="#2525F4"/>
<path d="M140.4 0H128.6V7.8H140.4V0Z" fill="#2525F4"/>
<path d="M128.7 0H116.9V7.8H128.7V0Z" fill="#2525F4"/>
<path d="M105.2 0H93.3999V7.8H105.2V0Z" fill="#2525F4"/>
<path d="M93.3999 7.80005H81.5999V15.6H93.3999V7.80005Z" fill="#2525F4"/>
<path d="M81.6999 0H69.8999V7.8H81.6999V0Z" fill="#2525F4"/>
</g>
<defs>
<clipPath id="clip0_124_443">
<rect width="162" height="15.7" fill="white"/>
</clipPath>
</defs>
</svg>
