<svg width="139" height="14" viewBox="0 0 139 14" fill="none" xmlns="http://www.w3.org/2000/svg">
<path d="M50.5997 0.50293H40.5552V7.1425H50.5997V0.50293Z" fill="#00D888"/>
<path d="M40.6404 0.50293H30.5959V7.1425H40.6404V0.50293Z" fill="#00D888"/>
<path d="M30.5957 0.50293H20.5513V7.1425H30.5957V0.50293Z" fill="#00D888"/>
<path d="M10.5921 0.50293H0.547607V7.1425H10.5921V0.50293Z" fill="#00D888"/>
<path d="M138.531 0.50293H128.487V7.1425H138.531V0.50293Z" fill="#00D888"/>
<path d="M120.06 0.50293H110.015V7.1425H120.06V0.50293Z" fill="#00D888"/>
<path d="M110.1 0.50293H100.056V7.1425H110.1V0.50293Z" fill="#00D888"/>
<path d="M90.0965 0.50293H80.052V7.1425H90.0965V0.50293Z" fill="#00D888"/>
<path d="M80.052 7.14258H70.0076V13.7821H80.052V7.14258Z" fill="#00D888"/>
<path d="M70.0928 0.50293H60.0483V7.1425H70.0928V0.50293Z" fill="#00D888"/>
</svg>
