<svg width="84" height="91" viewBox="0 0 84 91" fill="none" xmlns="http://www.w3.org/2000/svg">
<path d="M61.157 24.1262C61.157 23.1443 60.3154 22.443 59.4738 22.3027C58.4919 22.3027 57.6503 23.004 57.6503 23.9859C57.6503 24.9678 58.4919 25.6691 59.3335 25.8094C60.3154 25.9497 61.157 25.1081 61.157 24.1262ZM77.5684 43.343C78.6906 43.343 79.8128 43.343 80.9349 43.343C82.0571 43.343 82.8986 42.6416 82.8986 41.6597C82.8986 40.6779 82.0571 39.8362 80.9349 39.8362C78.6906 39.8362 76.306 39.8362 74.0617 39.8362C72.9396 39.8362 72.0979 40.5376 72.0979 41.5195C72.0979 42.5013 72.9396 43.343 74.0617 43.343C75.3241 43.343 76.4463 43.343 77.5684 43.343ZM5.47042 39.8362C4.34827 39.8362 3.08585 39.8362 1.96371 39.8362C0.841559 39.8362 0 40.5376 0 41.5195C0 42.5013 0.841559 43.343 1.96371 43.343C4.208 43.343 6.45233 43.343 8.8369 43.343C10.0993 43.343 10.8007 42.6416 10.8007 41.5195C10.8007 40.5376 9.95904 39.8362 8.8369 39.8362C7.71475 39.8362 6.59257 39.8362 5.47042 39.8362ZM13.1852 70.9758C13.7463 70.6953 14.1671 70.6953 14.4476 70.4148C16.2711 68.7316 18.0946 66.9081 19.7778 65.2248C20.4792 64.5235 20.3389 63.5416 19.6376 62.8403C18.9362 62.1389 17.9543 61.9987 17.253 62.7C15.4295 64.3832 13.606 66.2067 11.9228 68.0302C11.6423 68.451 11.502 69.2926 11.7825 69.8537C12.063 70.2745 12.7644 70.555 13.1852 70.9758ZM20.6195 19.2168C20.3389 18.6557 20.0584 18.0946 19.7778 17.8141C18.0946 16.1309 16.4114 14.4476 14.7282 12.9047C14.0268 12.2034 12.9047 12.2034 12.2034 12.9047C11.502 13.606 11.502 14.5879 12.2034 15.4295C12.7644 15.9906 13.3255 16.5517 13.8865 17.1128C15.0087 18.2349 16.1309 19.357 17.253 20.3389C17.8141 20.9 18.6557 21.1805 19.357 20.7597C19.7778 20.3389 20.0584 19.7779 20.6195 19.2168ZM64.3832 61.9987C63.8221 62.4195 63.261 62.8403 62.9805 63.2611C62.5597 63.9624 62.8403 64.6638 63.4014 65.2248C65.0846 66.7678 66.6275 68.451 68.3108 69.994C69.1524 70.8356 70.2745 70.8356 70.9758 70.1342C71.6771 69.4329 71.6772 68.451 70.8356 67.6094C69.1524 65.9262 67.6093 64.3832 65.7859 62.7C65.5053 62.5597 64.9442 62.4195 64.3832 61.9987ZM71.3966 14.4476C71.3966 13.4658 70.9758 12.9047 70.2745 12.6242C69.4329 12.3436 68.7315 12.4839 68.1704 13.045C66.4872 14.5879 64.9443 16.2711 63.261 17.8141C62.4194 18.6557 62.4195 19.6376 63.1208 20.3389C63.8221 21.0403 64.9442 21.0403 65.7859 20.1987C67.4691 18.6557 69.012 17.1128 70.6953 15.4295C71.1161 15.149 71.2563 14.7282 71.3966 14.4476ZM43.3429 5.89127C43.3429 4.62886 43.3429 3.36644 43.3429 1.96376C43.3429 0.701342 42.6416 0 41.5194 0C40.3973 0 39.696 0.84161 39.696 1.96376C39.696 4.48859 39.696 7.01342 39.696 9.53825C39.696 10.8007 40.3973 11.502 41.5194 11.502C42.6416 11.502 43.3429 10.6604 43.3429 9.53825C43.3429 8.41611 43.3429 7.15369 43.3429 5.89127ZM43.3429 57.5101C44.0442 57.5101 44.6054 57.5101 45.3067 57.5101C52.3201 57.5101 58.492 53.0215 60.596 46.5691C61.5779 43.7638 61.4376 40.8181 61.2973 37.8725C61.2973 36.8906 60.4557 36.3295 59.4738 36.3295C58.2114 36.3295 56.949 36.3295 55.5463 36.3295C50.7771 36.4698 46.8496 38.2933 43.6235 41.8C42.7818 42.7819 42.0805 43.7638 41.3792 44.7456C41.3792 44.7456 41.3791 44.7456 41.2389 44.7456C41.0986 44.6054 40.9584 44.4651 40.9584 44.1846C38.8544 40.6778 35.7685 38.2933 31.841 37.0309C29.0356 36.049 26.0899 36.1893 23.1443 36.3295C22.1624 36.3295 21.6013 37.1711 21.6013 38.153C21.6013 39.5557 21.6013 40.9584 21.6013 42.3611C21.8818 49.7953 28.0536 56.3879 35.6281 57.2295C36.8906 57.3698 38.2933 57.3698 39.5557 57.5101V58.4919C39.5557 61.0168 39.5557 63.5416 39.5557 65.9262C39.5557 67.1886 40.257 67.8899 41.3792 67.8899C42.5013 67.8899 43.2027 67.0483 43.2027 65.9262C43.2027 65.6456 43.2027 65.2248 43.2027 64.9443C43.3429 62.5597 43.3429 60.0349 43.3429 57.5101Z" fill="#00DC8C"/>
<path d="M32.6827 79.6724C33.384 83.7402 37.3115 86.8261 41.6599 86.6859C45.8679 86.6859 49.6551 83.4597 50.2162 79.6724H32.6827ZM40.1169 90.1926C39.4155 90.0523 38.7142 89.912 38.0128 89.6315C32.6826 88.0885 28.8954 83.3194 28.8954 77.9892C28.8954 73.9214 28.8954 69.7134 28.8954 65.6456C28.8954 65.0845 28.7551 64.804 28.194 64.5234C19.0766 59.1932 14.4478 51.4785 14.4478 41.0986C14.4478 29.3161 23.2847 18.6556 35.3478 15.8503C41.5196 14.4476 47.4108 15.1489 53.1618 17.6738C54.4242 18.2348 54.8451 19.2167 54.4243 20.1986C54.0035 21.1805 52.8813 21.461 51.6189 20.8999C45.0263 17.9543 38.2934 17.814 31.7008 20.7597C23.0041 24.6872 17.5336 33.3838 18.0947 42.6416C18.6558 51.3382 23.0041 57.7906 30.8592 61.8583C31.9813 62.4194 32.5424 63.1207 32.5424 64.5234C32.5424 68.3107 32.5424 72.0979 32.5424 76.0255H50.637V75.0436C50.637 71.3966 50.637 67.7496 50.637 64.2429C50.637 63.1208 51.0578 62.5597 52.0397 61.9986C60.7363 57.3697 65.0846 50.216 65.0846 40.5375C65.0846 37.4516 64.2431 34.506 62.8404 31.7006C62.7001 31.2798 62.4196 30.7187 62.4196 30.2979C62.4196 29.4563 62.9807 28.8952 63.8223 28.755C64.6639 28.6147 65.5055 28.8952 65.9263 29.7369C66.7679 31.8409 67.6095 33.9449 68.1706 36.0489C70.5551 47.4107 65.3652 58.4919 54.9854 64.3832C54.4243 64.6637 54.284 64.9442 54.284 65.6456C54.284 69.5731 54.284 73.3603 54.284 77.2879C54.284 83.8805 50.076 88.7899 43.4833 90.0523C43.3431 90.0523 43.2028 90.1926 43.2028 90.1926H40.1169Z" fill="#00DC8C"/>
<path d="M39.5558 51.3382C39.2753 45.0261 33.2437 38.8543 25.2484 39.9764C24.4068 48.8133 31.5604 53.7227 37.0309 53.863C35.7685 52.6006 34.6463 51.6187 33.5242 50.4966C32.4021 49.3744 32.1216 48.3925 32.9632 47.5509C33.8048 46.7093 34.7867 46.8496 36.0491 47.9717C37.1712 49.0939 38.4337 50.216 39.5558 51.3382ZM45.8679 53.5825C46.0082 53.7227 46.0081 53.7227 46.1484 53.863C53.1618 53.4422 58.7725 46.8496 57.6504 39.8362C49.9356 39.4154 43.0625 45.0261 43.4833 51.1979C43.7638 50.9174 44.0444 50.7771 44.1847 50.4966C45.3068 49.3744 46.2887 48.3925 47.4108 47.2704C48.2524 46.569 49.2343 46.569 49.9356 47.2704C50.637 47.9717 50.637 48.9536 49.9356 49.655C49.2343 50.4966 48.3927 51.1979 47.6914 51.8992C47.1303 52.6006 46.5692 53.1617 45.8679 53.5825ZM43.343 57.51C43.343 60.1751 43.343 62.5596 43.343 65.0845C43.343 65.365 43.343 65.7858 43.343 66.0664C43.343 67.3288 42.6417 68.0301 41.5195 68.0301C40.3974 68.0301 39.696 67.1885 39.696 66.0664C39.696 63.5415 39.696 61.0167 39.696 58.6321V57.6503C38.2934 57.51 37.031 57.51 35.7685 57.3697C28.194 56.5281 22.0222 49.9355 21.7417 42.5013C21.7417 41.0986 21.7417 39.6959 21.7417 38.2932C21.7417 37.3113 22.443 36.4697 23.2846 36.4697C26.2303 36.4697 29.1759 36.1892 31.9813 37.1711C35.9088 38.4335 38.9947 40.818 41.0987 44.3247C41.239 44.465 41.3793 44.6053 41.3793 44.8858C41.3793 44.8858 41.3792 44.8858 41.5195 44.8858C42.2209 43.9039 42.9223 42.9221 43.7639 41.9402C46.8498 38.4335 50.9176 36.61 55.6867 36.4697C56.9491 36.4697 58.2115 36.4697 59.6142 36.4697C60.5961 36.4697 61.4377 37.0308 61.4377 38.0127C61.4377 40.9583 61.5779 43.7637 60.7363 46.7093C58.492 53.1617 52.4604 57.6503 45.447 57.6503C44.6054 57.51 44.0443 57.51 43.343 57.51Z" fill="#00DC8C"/>
<path d="M43.3432 5.89114C43.3432 7.15356 43.3432 8.41598 43.3432 9.67839C43.3432 10.9408 42.6419 11.6421 41.5198 11.6421C40.3976 11.6421 39.6963 10.8005 39.6963 9.67839C39.6963 7.15356 39.6963 4.62873 39.6963 2.1039C39.6963 0.84148 40.3976 0.140137 41.5198 0.140137C42.6419 0.140137 43.3432 0.981748 43.3432 2.1039C43.3432 3.22604 43.3432 4.62873 43.3432 5.89114Z" fill="#00DC8C"/>
<path d="M71.3968 14.448C71.2565 14.7285 71.1163 15.1493 70.6955 15.5701C69.1525 17.1131 67.4693 18.7963 65.7861 20.3393C64.9445 21.1809 63.8224 21.1809 63.121 20.4795C62.4197 19.7782 62.4196 18.7963 63.2612 17.9547C64.9445 16.2715 66.4874 14.7285 68.1706 13.1856C68.7317 12.6245 69.4331 12.4842 70.2747 12.7648C70.976 12.905 71.3968 13.4661 71.3968 14.448Z" fill="#00DC8C"/>
<path d="M64.3834 61.9985C65.0848 62.2791 65.5056 62.5596 65.9264 62.8401C67.6097 64.3831 69.2928 66.0663 70.9761 67.7495C71.8177 68.5912 71.8177 69.573 71.1164 70.2744C70.415 70.9757 69.2929 70.9757 68.4513 70.1341C66.768 68.5912 65.2251 66.9079 63.5419 65.365C62.9808 64.8039 62.7003 64.1026 63.1211 63.4012C63.2613 62.8401 63.8224 62.5596 64.3834 61.9985Z" fill="#00DC8C"/>
<path d="M20.6196 19.2168C20.1988 19.7778 19.9182 20.3389 19.3572 20.6195C18.6558 21.0403 17.9545 20.7597 17.2531 20.1986C16.131 19.0765 15.0088 17.9544 13.8866 16.8322C13.3256 16.2711 12.7646 15.7101 12.2035 15.149C11.5022 14.3074 11.5022 13.3255 12.2035 12.6242C12.9048 11.9228 14.027 11.9228 14.7283 12.6242C16.4115 14.3074 18.0947 15.8503 19.7779 17.5335C20.0585 18.2349 20.1988 18.6557 20.6196 19.2168Z" fill="#00DC8C"/>
<path d="M13.1852 70.9757C12.7644 70.5549 12.0631 70.2744 11.7825 69.8536C11.6423 69.2925 11.6423 68.4509 11.9229 68.0301C13.6061 66.2066 15.4296 64.3831 17.2531 62.6999C17.9544 61.9985 18.9363 62.1388 19.6376 62.8401C20.339 63.5415 20.3389 64.5234 19.7779 65.0844C18.0946 66.9079 16.2712 68.5911 14.4477 70.2744C14.3074 70.5549 13.7463 70.6952 13.1852 70.9757Z" fill="#00DC8C"/>
<path d="M5.47042 39.8364C6.59257 39.8364 7.71475 39.8364 8.83689 39.8364C9.95904 39.8364 10.8007 40.5378 10.8007 41.5196C10.8007 42.5015 9.95904 43.3431 8.83689 43.3431C6.5926 43.3431 4.34827 43.3431 1.96371 43.3431C0.701291 43.3431 0 42.6418 0 41.5196C0 40.5378 0.841559 39.8364 1.96371 39.8364C3.08585 39.8364 4.34827 39.8364 5.47042 39.8364Z" fill="#00DC8C"/>
<path d="M77.5685 43.3431C76.4463 43.3431 75.3241 43.3431 74.202 43.3431C72.9396 43.3431 72.2383 42.6418 72.2383 41.5196C72.2383 40.5378 73.0798 39.8364 74.202 39.8364C76.4463 39.8364 78.6906 39.8364 81.0752 39.8364C82.3376 39.8364 83.039 40.5378 83.039 41.6599C83.039 42.6418 82.1973 43.3431 81.0752 43.3431C79.953 43.3431 78.8309 43.3431 77.5685 43.3431Z" fill="#00DC8C"/>
<path d="M61.1573 24.1259C61.1573 25.1078 60.3158 25.9494 59.3339 25.8092C58.352 25.8092 57.6506 24.9676 57.6506 23.9857C57.6506 23.0038 58.4922 22.1622 59.4741 22.3025C60.456 22.4427 61.1573 23.2843 61.1573 24.1259Z" fill="#00DC8C"/>
<path d="M45.8683 53.5829C46.4294 53.0218 47.1307 52.601 47.6918 52.0399C48.5334 51.3386 49.2347 50.6372 49.936 49.7956C50.6374 48.954 50.6374 47.9722 49.936 47.4111C49.2347 46.7097 48.2528 46.7097 47.4112 47.4111C46.2891 48.393 45.1669 49.5151 44.185 50.6373C43.9045 50.9178 43.7642 51.0581 43.4837 51.3386C43.0629 45.1668 49.936 39.556 57.6508 39.9768C58.7729 46.9903 53.1622 53.5829 46.1487 54.0037C46.0085 53.7232 46.0085 53.7232 45.8683 53.5829Z" fill="#2020F9"/>
<path d="M46.0083 53.4425C46.5694 53.0217 47.2707 52.4607 47.8318 52.0398C48.6734 51.3385 49.3748 50.6372 50.0761 49.7956C50.7775 49.0942 50.7775 48.1123 50.0761 47.411C49.3748 46.7096 48.3928 46.7096 47.5512 47.411C46.4291 48.3929 45.4472 49.515 44.3251 50.4969C44.0445 50.7774 43.9042 50.9177 43.6237 51.1982C43.2029 45.1667 49.9358 39.6962 57.5103 40.117C58.6325 46.9902 53.162 53.4425 46.2888 53.8633C46.1486 53.5828 46.0083 53.5828 46.0083 53.4425Z" stroke="#00DC8C" stroke-width="0.711161" stroke-miterlimit="10"/>
<path d="M39.556 51.3384C38.2936 50.076 37.1714 48.9538 36.0493 47.8317C34.7869 46.7095 33.805 46.429 32.9634 47.4109C32.1217 48.2525 32.262 49.2344 33.5244 50.3565C34.6465 51.4787 35.7687 52.6008 37.0311 53.723C31.5606 53.5827 24.407 48.6733 25.2486 39.8364C33.2439 38.8545 39.4157 45.0263 39.556 51.3384Z" fill="#2020F9"/>
<path d="M39.4154 51.1978C38.153 50.0756 37.0309 48.9535 36.049 47.8313C34.9269 46.7092 33.8047 46.5689 32.9631 47.4105C32.1215 48.2521 32.2617 49.234 33.5241 50.3562C34.6463 51.4783 35.7684 52.4602 37.0308 53.7226C31.7006 53.5823 24.6873 48.8132 25.5289 40.1166C33.2437 38.9944 39.2751 45.026 39.4154 51.1978Z" stroke="#00DC8C" stroke-width="0.711161" stroke-miterlimit="10"/>
</svg>
