<svg width="72" height="71" viewBox="0 0 72 71" fill="none" xmlns="http://www.w3.org/2000/svg">
<path d="M22.7235 17.4174H4.34832C4.34832 19.3812 4.20805 21.3449 4.34832 23.3087C4.90939 27.5168 8.55638 30.7429 12.9047 30.8832C17.253 31.0235 21.4611 28.2181 22.3027 24.01C22.7235 22.0463 22.7235 19.802 22.7235 17.4174ZM67.7497 4.2322H67.3289C63.2611 4.2322 59.1933 4.2322 55.1255 4.2322C46.9899 4.2322 40.5376 10.6846 40.3973 18.5396C40.3973 21.4852 40.3973 24.4309 40.3973 27.3765C40.3973 27.5168 40.3973 27.657 40.3973 27.7973C40.3973 27.7973 40.5376 27.7973 40.5376 27.9376C40.6779 27.7973 40.8181 27.5168 40.9584 27.3765C44.6054 23.7295 48.3926 20.0825 52.0396 16.5758C52.1799 16.4356 52.4604 16.155 52.6007 16.0147C53.302 15.4537 54.2839 15.4537 54.9852 15.8745C55.8268 16.2953 56.1074 17.1369 55.9671 17.9785C55.8268 18.5396 55.5463 18.9604 55.1255 19.3812C51.3383 23.0282 47.551 26.8154 43.7638 30.4624C43.6235 30.6027 43.4832 30.7429 43.2027 31.0235C46.4289 31.0235 49.3745 31.0235 52.3201 31.0235C53.4423 31.0235 54.4242 30.8832 55.5463 30.7429C61.7181 29.7611 66.9081 24.4309 67.3289 18.3993C67.8899 13.6302 67.7497 9.00133 67.7497 4.2322ZM0.140266 14.8926C0.561072 13.6302 1.54295 13.2094 2.80537 13.3496C3.36644 13.3496 3.92752 13.3496 4.62886 13.3496V12.508C4.62886 9.14159 4.62886 5.63488 4.62886 2.26844C4.62886 0.585218 6.31208 -0.39666 7.85503 0.444951C8.55637 0.865756 8.83691 1.5671 8.83691 2.40871C8.83691 5.77515 8.83691 9.14159 8.83691 12.508V13.3496H18.2349V12.3678C18.2349 9.00133 18.2349 5.63488 18.2349 2.26844C18.2349 0.44495 19.9181 -0.536929 21.4611 0.304682C22.3027 0.725487 22.443 1.42683 22.443 2.40871C22.443 5.77515 22.443 9.00133 22.443 12.3678V13.3496C23.1443 13.3496 23.8456 13.3496 24.547 13.3496C26.2302 13.3496 27.0718 14.1913 27.0718 15.7342C27.0718 18.259 27.2121 20.6436 26.9315 23.1684C26.5107 28.9194 22.1624 33.6886 16.4114 34.8107C15.8503 34.951 15.7101 35.0913 15.7101 35.6523C15.7101 42.806 15.7101 49.9597 15.7101 57.1134C15.7101 62.4436 19.7779 66.3711 25.1081 66.3711C37.3114 66.3711 49.655 66.3711 61.8584 66.3711C65.2248 66.3711 67.8899 63.8463 67.7497 60.6201C67.7497 57.6745 65.3651 55.2899 62.4195 55.1496C60.1752 55.0094 57.9309 55.1496 55.6866 55.1496C52.3201 55.1496 49.094 55.1496 45.7275 55.1496C38.8544 54.8691 33.2436 49.5389 32.6825 42.9463C32.402 39.159 33.3839 35.9329 35.7685 32.9872C35.9087 32.7067 36.049 32.2859 36.049 32.0053C36.049 27.7973 36.049 23.449 36.049 19.2409C36.049 10.6846 41.6597 3.53086 50.0758 1.28656C51.6188 0.865757 53.302 0.725489 54.9852 0.58522C59.7544 0.444952 64.6638 0.58522 69.4329 0.58522C70.9758 0.58522 71.8174 1.42683 71.8174 2.82952C71.8174 7.45837 71.8174 12.2275 71.8174 16.8564C71.8174 26.2543 64.804 33.9691 55.2658 35.2315C54.2839 35.3718 53.302 35.3718 52.4604 35.3718C48.2523 35.3718 44.0443 35.3718 39.8362 35.3718C39.2752 35.3718 38.8544 35.5121 38.5738 36.0731C36.4698 39.2993 36.1893 42.5255 37.8725 45.8919C39.696 49.3986 42.7819 51.0819 46.8497 51.0819C51.7591 51.0819 56.6685 51.0819 61.7181 51.0819C66.4873 51.0819 70.2745 53.8872 71.5369 58.2356C73.2201 63.8463 69.4329 69.5973 63.4013 70.5792C63.2611 70.5792 63.1208 70.7194 62.9805 70.7194H23.4248C22.5832 70.5792 21.6013 70.2986 20.7597 70.1584C15.149 68.4751 11.502 63.4255 11.3617 57.5342C11.3617 50.3805 11.3617 43.2268 11.3617 36.0731C11.3617 35.6523 11.3617 35.3718 10.8007 35.2315C5.3302 33.9691 1.96376 30.7429 0.420804 25.4127C0.280536 24.8517 0.140268 24.2906 0 23.7295V14.8926H0.140266Z" fill="#00DC8C"/>
<path d="M67.7497 4.23207C67.7497 9.00119 68.0302 13.6301 67.7497 18.2589C67.3289 24.2905 62.1389 29.6207 55.9671 30.6025C54.845 30.7428 53.8631 30.8831 52.7409 30.8831C49.7953 30.8831 46.7094 30.8831 43.6235 30.8831C43.904 30.6025 44.0443 30.4623 44.1846 30.322C47.9718 26.675 51.7591 23.028 55.5463 19.2408C55.9671 18.82 56.2476 18.3992 56.3879 17.8381C56.6684 16.9965 56.2476 16.2952 55.406 15.7341C54.7047 15.3133 53.7228 15.3133 53.0215 15.8743C52.7409 16.0146 52.6007 16.2952 52.4604 16.4354C48.8134 20.0824 45.0262 23.7294 41.3792 27.2361C41.2389 27.3764 41.0987 27.6569 40.9584 27.7972C40.9584 27.7972 40.8181 27.7972 40.8181 27.6569C40.8181 27.5166 40.8181 27.3764 40.8181 27.2361C40.8181 24.2905 40.8181 21.3448 40.8181 18.3992C40.9584 10.5441 47.4107 4.0918 55.5463 4.0918C59.6141 4.0918 63.6819 4.0918 67.7497 4.0918V4.23207Z" fill="#2020F9"/>
</svg>
