<svg width="43" height="87" viewBox="0 0 43 87" fill="none" xmlns="http://www.w3.org/2000/svg">
<path d="M36.6694 21.2643C36.1083 21.2643 35.5472 21.2643 34.9861 21.2643C34.0042 21.2643 33.3029 22.1059 33.1626 22.9475C33.1626 23.9294 33.864 24.771 34.8459 24.771C36.1083 24.771 37.2304 24.771 38.4928 24.771C39.4747 24.771 40.1761 23.9294 40.1761 22.9475C40.1761 21.9656 39.4747 21.2643 38.3526 21.2643C37.9318 21.2643 37.2304 21.2643 36.6694 21.2643ZM36.8096 44.8294C37.3707 44.8294 37.9318 44.8294 38.4928 44.8294C39.4747 44.6891 40.1761 43.9877 40.3163 43.0059C40.3163 42.024 39.615 41.3227 38.6331 41.1824C37.511 41.1824 36.2485 41.1824 35.1264 41.1824C34.0042 41.1824 33.4432 42.024 33.3029 43.0059C33.3029 43.9877 34.0042 44.6891 35.1264 44.8294C35.5472 44.8294 36.1083 44.8294 36.8096 44.8294ZM38.072 34.8703C39.0539 34.8703 40.1761 34.8703 41.158 34.8703C42.2801 34.8703 42.9814 34.169 42.9814 33.1871C42.9814 32.2052 42.2801 31.3636 41.158 31.3636C39.1942 31.3636 37.0901 31.3636 35.1264 31.3636C34.0042 31.3636 33.3029 32.0649 33.3029 33.0468C33.3029 34.169 34.0042 34.8703 35.1264 34.8703C36.1083 34.8703 37.0902 34.8703 38.072 34.8703ZM38.072 14.8119C39.0539 14.8119 40.0358 14.8119 41.0177 14.8119C42.1398 14.8119 42.9814 14.1106 42.9814 12.9884C42.9814 12.0065 42.2801 11.1649 41.158 11.1649C39.0539 11.1649 37.0901 11.1649 34.9861 11.1649C33.864 11.1649 33.1626 12.0065 33.1626 12.9884C33.1626 13.9703 34.0042 14.6716 35.1264 14.6716C36.2485 14.9522 37.0902 14.8119 38.072 14.8119ZM31.0586 29.1193C31.0586 22.9475 31.0586 16.7757 31.0586 10.7441C31.0586 9.90251 31.0586 9.20117 30.9183 8.35956C30.0767 3.16963 24.7465 -0.61762 19.4163 0.0837227C13.9459 0.785065 10.1586 4.99312 10.1586 10.4636C10.1586 23.0878 10.1586 35.7119 10.1586 48.3361C10.1586 48.8971 10.0184 49.318 9.45728 49.7388C3.84654 53.3857 0.62035 58.5757 0.0592759 65.1683C-0.922603 77.7924 10.4392 88.1723 23.3438 86.4891C31.9002 85.367 38.7734 79.1951 40.7371 70.779C42.5606 62.7837 39.0539 54.2273 31.76 49.7388C31.1989 49.4582 31.0586 49.0374 31.0586 48.4763C31.0586 42.024 31.0586 35.5716 31.0586 29.1193Z" fill="#00DC8C"/>
<path d="M27.4116 30.1012C27.4116 23.6488 27.4116 17.3367 27.4116 10.8844C27.4116 10.3233 27.4116 9.76225 27.2713 9.34144C26.7103 4.85285 21.8009 2.18775 17.5928 4.15151C14.7875 5.41392 13.6653 7.79849 13.6653 10.7441C13.6653 23.6488 13.6653 36.5535 13.6653 49.4582C13.6653 50.7206 13.2445 51.5622 12.1224 52.1233C5.10895 56.0508 1.88277 64.3267 4.40761 71.7609C7.07271 79.3354 14.7875 83.9643 22.9231 82.8421C30.0767 81.8602 35.8277 76.3898 37.0901 69.6569C38.4928 62.5032 35.1264 55.63 28.8143 52.1233C27.6922 51.5622 27.2713 50.7206 27.2713 49.4582C27.4116 43.1461 27.4116 36.5535 27.4116 30.1012ZM31.0586 29.1193C31.0586 35.5716 31.0586 42.024 31.0586 48.4763C31.0586 49.0374 31.1989 49.4582 31.76 49.7388C39.0539 54.2273 42.7009 62.7837 40.7371 70.779C38.7734 79.1951 31.9002 85.367 23.3438 86.4891C10.4391 88.1723 -0.922603 77.6522 0.0592759 65.1683C0.62035 58.5757 3.70627 53.3857 9.45728 49.7388C10.0184 49.318 10.1586 49.0374 10.1586 48.3361C10.1586 35.7119 10.1586 23.0878 10.1586 10.4636C10.1586 4.99312 13.9459 0.785065 19.4163 0.0837227C24.7465 -0.61762 30.0767 3.16963 30.9183 8.35956C31.0586 9.20117 31.0586 9.90251 31.0586 10.7441C31.0586 16.7757 31.0586 22.9475 31.0586 29.1193Z" fill="#00DC8C"/>
<path d="M38.0722 14.8119C37.0904 14.8119 36.1085 14.8119 35.1266 14.8119C34.0044 14.8119 33.1628 14.1105 33.1628 13.1287C33.1628 12.1468 33.8642 11.3052 34.9863 11.3052C37.0903 11.3052 39.0541 11.3052 41.1582 11.3052C42.2803 11.3052 42.9816 12.1468 42.9816 13.1287C42.9816 14.1105 42.14 14.8119 41.0179 14.9522C40.036 14.9522 39.0541 14.8119 38.0722 14.8119Z" fill="#00DC8C"/>
<path d="M38.0721 34.87C37.0902 34.87 36.1083 34.87 35.1265 34.87C34.0043 34.87 33.303 34.1687 33.303 33.0465C33.303 32.0646 34.0043 31.3633 35.1265 31.3633C37.0902 31.3633 39.1943 31.3633 41.158 31.3633C42.2802 31.3633 43.1218 32.2049 42.9815 33.1868C42.9815 34.1686 42.2802 34.87 41.158 34.87C40.1761 34.87 39.054 34.87 38.0721 34.87Z" fill="#00DC8C"/>
<path d="M36.8097 44.8291C36.2486 44.8291 35.6875 44.8291 35.1265 44.8291C34.0043 44.6888 33.303 43.9875 33.303 43.0056C33.303 42.0237 34.0043 41.3224 35.1265 41.1821C36.2486 41.1821 37.511 41.1821 38.6332 41.1821C39.615 41.1821 40.3164 42.0237 40.3164 43.0056C40.3164 43.9875 39.615 44.6888 38.4929 44.8291C37.9318 44.8291 37.3708 44.8291 36.8097 44.8291Z" fill="#00DC8C"/>
<path d="M36.6696 21.2642C37.2306 21.2642 37.7917 21.2642 38.3528 21.2642C39.3347 21.2642 40.1763 22.1058 40.1763 22.9474C40.1763 23.9293 39.4749 24.7709 38.493 24.7709C37.2306 24.7709 36.1085 24.7709 34.8461 24.7709C33.8642 24.7709 33.1628 23.9293 33.1628 22.9474C33.1628 21.9655 33.8642 21.2642 34.9863 21.2642C35.5474 21.2642 36.1085 21.2642 36.6696 21.2642Z" fill="#00DC8C"/>
<path d="M18.8553 57.8743C13.2446 60.2589 10.86 63.6253 11.8419 68.3945C12.6835 72.322 16.3305 75.4079 20.5386 75.4079C24.8869 75.4079 28.6741 72.6025 29.5157 68.5347C29.9366 66.4307 29.7963 64.467 28.8144 62.6435C27.552 60.1186 25.3077 58.5757 22.6426 57.8743V56.6119V11.5857C22.6426 9.76226 22.0815 8.92065 20.8191 8.92065C19.5567 8.92065 18.9956 9.76226 18.9956 11.5857C18.9956 26.7347 18.9956 41.7435 18.9956 56.8925V57.8743H18.8553ZM27.4117 30.1012C27.4117 36.5535 27.4117 43.0059 27.4117 49.4582C27.4117 50.7206 27.8325 51.422 28.9547 52.1233C35.2668 55.63 38.6332 62.5032 37.2305 69.6569C35.9681 76.3898 30.2171 81.8602 23.0634 82.8421C15.0681 83.9643 7.21308 79.3354 4.54798 71.9012C1.88288 64.467 5.10905 56.0508 12.2627 52.2636C13.3849 51.7025 13.8057 50.8609 13.8057 49.5985C13.8057 36.6938 13.8057 23.7891 13.8057 10.8844C13.8057 7.93877 14.9278 5.69447 17.7332 4.29179C21.801 2.32803 26.8506 4.99313 27.4117 9.48172C27.4117 10.0428 27.552 10.6039 27.552 11.0247C27.4117 17.3368 27.4117 23.7891 27.4117 30.1012Z" fill="#F2F2F2"/>
<path d="M15.3486 66.5707C15.3486 69.3761 17.7332 71.7607 20.6788 71.7607C23.6244 71.7607 26.009 69.3761 26.009 66.5707C26.009 63.7654 23.6244 61.3808 20.6788 61.3808C17.7332 61.3808 15.3486 63.7654 15.3486 66.5707ZM18.8553 57.8741V56.8922C18.8553 41.7432 18.8553 26.7345 18.8553 11.5855C18.8553 9.76202 19.4164 8.92041 20.6788 8.92041C21.9412 8.92041 22.5023 9.76202 22.5023 11.5855V56.752V57.8741C25.3076 58.5754 27.4116 60.1184 28.6741 62.6432C29.6559 64.4667 29.9365 66.5707 29.3754 68.5345C28.5338 72.6023 24.7466 75.4077 20.3982 75.4077C16.1902 75.4077 12.5432 72.3218 11.7016 68.3942C10.86 63.6251 13.1043 60.2587 18.8553 57.8741Z" fill="#00DC8C"/>
<path d="M15.3486 66.5708C15.3486 63.7654 17.7332 61.3809 20.6789 61.3809C23.6245 61.3809 26.009 63.7654 26.009 66.5708C26.009 69.3762 23.6245 71.7607 20.6789 71.7607C17.7332 71.7607 15.3486 69.3762 15.3486 66.5708Z" fill="#2020F9"/>
<path d="M15.4888 66.5707C15.4888 63.7653 17.8734 61.521 20.6787 61.521C23.4841 61.521 25.8686 63.7653 25.8686 66.5707C25.8686 69.376 23.4841 71.6203 20.6787 71.6203C17.7331 71.6203 15.4888 69.376 15.4888 66.5707Z" stroke="#00DC8C" stroke-width="0.711161" stroke-miterlimit="10"/>
</svg>
