<svg width="103" height="100" viewBox="0 0 103 100" fill="none" xmlns="http://www.w3.org/2000/svg">
<path d="M51.5326 72.9939C38.6279 72.9939 28.248 62.7543 28.248 50.2704C28.248 37.6462 38.6279 27.5469 51.5326 27.5469" fill="#2020F9"/>
<path d="M51.533 72.8539C38.7685 72.8539 28.3887 62.7546 28.3887 50.2707C28.3887 37.7868 38.7685 27.6875 51.533 27.6875" stroke="#00DC8C" stroke-width="0.711161" stroke-miterlimit="10"/>
<path d="M70.6094 31.755L85.8986 16.8866M17.1671 83.7946L32.4564 68.9262M78.6047 50.4107H100.206M3 50.4107H24.6013M70.6094 68.9262L85.8986 83.7946M17.1671 16.8866L32.4564 31.755M51.5329 76.6409V97.6812M51.5329 3V24.0403" stroke="#00DC8C" stroke-width="4.20805" stroke-miterlimit="10" stroke-linecap="round"/>
<path d="M73.9757 50.2704C73.9757 62.3335 64.0167 72.012 51.673 72.012C39.3294 72.012 29.3704 62.3335 29.3704 50.2704C29.3704 38.2073 39.3294 28.5288 51.673 28.5288C64.0167 28.5288 73.9757 38.2073 73.9757 50.2704Z" stroke="#00DC8C" stroke-width="4.74668" stroke-miterlimit="10" stroke-linecap="round"/>
</svg>
