<svg width="191" height="80" viewBox="0 0 191 80" fill="none" xmlns="http://www.w3.org/2000/svg">
<path d="M12.0218 40.3203L19.6725 40.3336L31.7859 9.88414L22.7352 9.86953L15.9485 29.0038L9.22062 9.84958L0 9.83496L12.0218 40.3203Z" fill="#2525F4"/>
<path d="M34.99 9.88965L43.2773 9.90295L43.2317 40.3352L34.9443 40.3232L34.99 9.88965Z" fill="#2525F4"/>
<path d="M55.4034 17.2668L46.4783 17.2536L46.4901 9.84521L72.5821 9.8851L72.5703 17.2948L63.6464 17.2801L63.6124 40.3346L55.3683 40.3213L55.4034 17.2668Z" fill="#2525F4"/>
<path d="M75.7812 9.88477L89.846 9.90603C94.3935 9.98047 97.536 11.1955 99.5307 13.2719C101.269 15.0027 102.158 17.3383 102.156 20.3199V20.4078C102.146 25.0311 99.7215 28.0964 96.0224 29.6903L103.102 40.2451L93.5832 40.2306L87.6069 31.0596H87.5207L83.9927 31.0529L83.9782 40.2159L75.7354 40.2026L75.7812 9.88477ZM89.4409 24.4954C92.246 24.4993 93.8629 23.1169 93.8655 20.9141V20.8264C93.8694 18.4509 92.1727 17.2386 89.4095 17.2333L84.0122 17.2239L84.0005 24.4861L89.4409 24.4954Z" fill="#2525F4"/>
<path d="M106.358 9.87354L106.312 40.2339L114.598 40.2469L114.644 9.8865L106.358 9.87354Z" fill="#2525F4"/>
<path d="M117.839 27.0059L117.878 9.87354L126.249 9.88684L126.21 26.8449C126.202 31.2104 128.366 33.2883 131.681 33.2936C134.996 33.2976 137.165 31.3143 137.173 27.0789L137.199 9.88285L145.572 9.89614L145.546 26.8331C145.532 36.5996 140.043 40.8694 131.586 40.8561C123.129 40.8441 117.824 36.4693 117.839 27.0059Z" fill="#2525F4"/>
<path d="M148.818 9.88477L157.53 9.89805L164.61 21.6201L171.725 9.92065L180.436 9.93395L180.39 40.3449L172.188 40.3329L172.215 22.8004L164.59 34.6288H164.42L156.873 22.8616L156.848 40.3343L148.772 40.3223L148.818 9.88477Z" fill="#2525F4"/>
<path d="M0.358414 65.0355V64.953C0.371486 56.5332 6.7543 49.9397 15.358 49.9517C21.1603 49.961 24.891 52.4428 27.402 55.9975L21.4702 60.65C19.8493 58.5843 17.984 57.2603 15.2651 57.255C11.2862 57.2497 8.48103 60.6713 8.47581 64.8814V64.9637C8.46926 69.2974 11.2653 72.6857 15.2416 72.6924C18.2048 72.6977 19.9513 71.298 21.6583 69.195L27.5798 73.498C24.8948 77.2494 21.2793 80.009 14.988 79.9997C6.87063 79.9877 0.346651 73.6615 0.358414 65.0355Z" fill="#2525F4"/>
<path d="M40.5123 50.3633L48.103 50.3739L60.1548 79.4928L51.712 79.4795L49.6507 74.3163L38.6915 74.3005L36.655 79.4568L28.3755 79.445L40.5123 50.3633ZM47.3867 68.0791L44.2325 59.8626L41.0143 68.0698L47.3867 68.0791Z" fill="#2525F4"/>
<path d="M63.3975 50.6064L75.5736 50.6236C82.7564 50.6343 87.3784 54.3989 87.3681 60.7956V60.8781C87.3576 67.6881 82.1969 71.2721 75.1357 71.2601L71.2404 71.2535L71.2286 79.5085L63.3557 79.498L63.3975 50.6064ZM74.9841 64.987C77.7841 64.991 79.4897 63.5088 79.4937 61.2383V61.156C79.4977 58.6806 77.7957 57.3566 74.9554 57.3515L71.2614 57.3448L71.2509 64.9803L74.9841 64.987Z" fill="#2525F4"/>
<path d="M90.6172 50.6475L90.573 79.539L98.4863 79.5515L98.5307 50.66L90.6172 50.6475Z" fill="#2525F4"/>
<path d="M110.222 57.6941L101.699 57.6821L101.71 50.6646L126.629 50.7019L126.619 57.7194L118.096 57.7074L118.063 79.5827L110.189 79.5694L110.222 57.6941Z" fill="#2525F4"/>
<path d="M135.981 50.5122L143.572 50.5242L155.624 79.6402L147.181 79.6284L145.119 74.4639L134.16 74.4479L132.124 79.6044L123.844 79.5924L135.981 50.5122ZM142.855 68.2294L139.701 60.0115L136.483 68.22L142.855 68.2294Z" fill="#2525F4"/>
<path d="M158.864 50.7515L166.739 50.7635L166.705 72.6388L180.464 72.6601L180.452 79.6763L158.822 79.643L158.864 50.7515Z" fill="#2525F4"/>
<path d="M176.465 6.85665H183.65V14.1626L190.392 21.0178V0H169.723L176.465 6.85665Z" fill="#2525F4"/>
</svg>
