<svg width="176" height="84" viewBox="0 0 176 84" fill="none" xmlns="http://www.w3.org/2000/svg">
<path d="M11.662 62.9881C10.4643 61.5968 9.89697 59.5731 9.89697 56.9802V8.85366C9.89697 6.19753 10.4643 4.17381 11.662 2.84575C12.8597 1.45444 14.4987 0.758789 16.5789 0.758789C18.6591 0.758789 20.2981 1.45444 21.4958 2.84575C22.6935 4.17381 23.3239 6.19753 23.3239 8.85366V56.9802C23.3239 59.6363 22.6935 61.66 21.5589 62.9881C20.3612 64.3794 18.7222 65.075 16.642 65.075C14.4987 65.075 12.8597 64.3794 11.662 62.9881ZM20.172 56.9802V8.85366C20.172 5.56512 18.9743 3.92085 16.5789 3.92085C14.1835 3.92085 12.9858 5.56512 12.9858 8.85366V56.9802C12.9858 60.2687 14.1835 61.913 16.5789 61.913C18.9743 61.913 20.172 60.2687 20.172 56.9802Z" fill="white"/>
<path d="M16.5788 65.834C14.2464 65.834 12.4183 65.0751 11.0945 63.4941C9.77075 61.9763 9.14038 59.7629 9.14038 56.9803V8.85376C9.14038 6.07115 9.83379 3.85771 11.0945 2.33992C12.4183 0.822135 14.2464 0 16.5788 0C18.9111 0 20.7392 0.758894 22.063 2.33992C23.3868 3.85771 24.0172 6.07115 24.0172 8.85376V56.9803C24.0172 59.7629 23.3238 61.9763 22.063 63.4941C20.7392 65.0119 18.9111 65.834 16.5788 65.834ZM16.5788 1.45455C14.6877 1.45455 13.2378 2.02372 12.1662 3.28854C11.0945 4.55336 10.5272 6.38736 10.5272 8.85376V56.9803C10.5272 59.4467 11.0945 61.2807 12.1662 62.5455C13.2378 63.7471 14.6877 64.3795 16.5788 64.3795C18.4699 64.3795 19.9197 63.8103 20.9914 62.5455C22.063 61.2807 22.6303 59.4467 22.6303 56.9803V8.85376C22.6303 6.38736 22.063 4.55336 20.9914 3.28854C19.9197 2.02372 18.4699 1.45455 16.5788 1.45455ZM16.5788 62.672C14.6246 62.672 12.2922 61.6601 12.2922 56.9803V8.85376C12.2922 4.17392 14.6246 3.16206 16.5788 3.16206C18.5329 3.16206 20.8653 4.17392 20.8653 8.85376V56.9803C20.9283 61.6601 18.5329 62.672 16.5788 62.672ZM16.5788 4.6166C15.318 4.6166 13.7421 5.05929 13.7421 8.85376V56.9803C13.7421 60.7747 15.3811 61.2174 16.5788 61.2174C17.8395 61.2174 19.4154 60.7747 19.4154 56.9803V8.85376C19.4785 5.05929 17.8395 4.6166 16.5788 4.6166Z" fill="white"/>
<path d="M38.2637 2.08673H37.5703L34.3554 18.7824H31.0144L34.6075 1.64404H40.9112V64.6955H37.7594V8.85353L38.2637 2.08673Z" fill="white"/>
<path d="M41.5416 65.455H36.9399V8.6644L34.8597 19.4786H30.0688L33.9772 0.885742H41.6047V65.455H41.5416ZM38.3898 64.0004H40.0918V2.34029H38.8941L38.3898 8.85413V64.0004ZM31.8339 18.0241H33.662L36.6878 2.34029H35.1118L31.8339 18.0241Z" fill="white"/>
<path d="M72.1777 1.64404L76.149 59.32L76.3381 64.2528H77.0316L77.2207 59.32L81.192 1.64404H84.3439L79.6791 64.6955H73.7536L69.0889 1.64404H72.1777Z" fill="white"/>
<path d="M80.3094 65.4547H73.0601L68.2693 0.94873H72.871L76.6532 56.6009L80.4355 0.94873H85.0372L80.3094 65.4547ZM77.7879 64.0001H78.9856L83.5243 2.40328H81.8223L77.914 59.3835L77.7879 64.0001ZM74.3839 64.0001H75.5816L75.3925 59.3203L71.4842 2.34004H69.7822L74.3839 64.0001Z" fill="white"/>
<path d="M171.209 64.6955L167.238 7.01954L167.049 2.08673H166.355L166.166 7.01954L162.195 64.6955H159.043L163.708 1.64404H169.633L174.298 64.6955H171.209Z" fill="white"/>
<path d="M175.118 65.4547H170.516L166.734 9.80249L162.951 65.4547H158.35L163.14 0.94873H170.39L175.118 65.4547ZM171.903 64.0001H173.605L169.066 2.40328H167.868L168.057 7.08312L171.903 64.0001ZM159.863 64.0001H161.565L165.473 7.01988L165.662 2.40328H164.464L159.863 64.0001Z" fill="white"/>
<path d="M99.7249 1.64404V64.6955H96.573V1.64404H99.7249Z" fill="white"/>
<path d="M100.418 65.455H95.8167V0.885742H100.418V65.455ZM97.2665 64.0004H98.9685V2.34029H97.2665V64.0004Z" fill="white"/>
<path d="M114.16 63.5575C112.963 62.1662 112.332 60.1425 112.332 57.4231V43.0674H115.484V57.4231C115.484 59.1939 115.799 60.5219 116.43 61.2808C117.06 62.0397 117.943 62.4824 119.14 62.4824C120.212 62.4824 121.095 62.1029 121.725 61.4073C122.355 60.7116 122.67 59.6365 122.67 58.2452C122.67 56.7907 122.229 54.1346 121.41 50.2768C120.59 46.4191 119.203 40.601 117.375 32.9488C115.547 25.1701 114.16 19.5416 113.404 15.9369C112.585 12.3322 112.206 9.86575 112.206 8.47444C112.206 6.07128 112.837 4.17405 114.034 2.84598C115.232 1.51792 116.871 0.822266 118.951 0.822266C120.905 0.822266 122.481 1.51792 123.742 2.90922C124.94 4.30053 125.507 6.32425 125.507 8.98037V22.3875H122.355V8.91713C122.355 7.14638 122.04 5.88156 121.473 5.05942C120.842 4.23729 120.023 3.85784 118.951 3.85784C117.817 3.85784 116.934 4.23729 116.304 4.99618C115.673 5.75508 115.358 6.89342 115.358 8.34796C115.358 9.61279 115.736 12.0792 116.556 15.6839C117.375 19.2887 118.636 24.5377 120.275 31.3045C122.229 39.5891 123.679 45.7235 124.562 49.7077C125.444 53.6919 125.885 56.5377 125.885 58.1188C125.885 60.3954 125.255 62.2294 124.12 63.4942C122.923 64.8223 121.284 65.4547 119.266 65.4547C117.06 65.5812 115.358 64.8856 114.16 63.5575Z" fill="white"/>
<path d="M119.14 66.34C116.808 66.34 114.98 65.5811 113.593 64C112.269 62.4823 111.576 60.2688 111.576 57.3597V42.3716H116.178V57.423C116.178 59.0672 116.43 60.2056 116.934 60.838C117.438 61.4704 118.132 61.7234 119.077 61.7234C119.96 61.7234 120.59 61.4704 121.094 60.9012C121.599 60.3321 121.851 59.4467 121.851 58.2451C121.851 56.8538 121.41 54.2609 120.59 50.4032C119.771 46.5455 118.384 40.7273 116.556 33.0751C114.728 25.4229 113.404 19.668 112.584 16.0633C111.765 12.3953 111.324 9.86562 111.324 8.41107C111.324 5.81819 112.017 3.79447 113.341 2.27668C114.728 0.758894 116.556 0 118.762 0C120.968 0 122.733 0.822135 124.057 2.40316C125.381 3.92095 126.011 6.13439 126.011 8.98024V23.1463H121.41V8.917C121.41 7.33597 121.158 6.19763 120.653 5.50198C120.212 4.86957 119.582 4.55336 118.699 4.55336C117.754 4.55336 117.123 4.80633 116.619 5.43874C116.115 6.07115 115.862 7.01977 115.862 8.34783C115.862 9.54941 116.241 11.9526 117.06 15.5573C117.88 19.1621 119.14 24.4111 120.779 31.1779C122.733 39.3992 124.183 45.5969 125.066 49.6443C125.948 53.755 126.39 56.5376 126.39 58.2451C126.39 60.7115 125.696 62.672 124.435 64.1265C123.175 65.5811 121.347 66.34 119.14 66.34ZM113.026 43.8261V57.423C113.026 59.9526 113.593 61.8498 114.665 63.0514C115.736 64.253 117.186 64.8854 119.077 64.8854C120.905 64.8854 122.355 64.3162 123.364 63.1147C124.435 61.9131 124.94 60.2688 124.94 58.1819C124.94 56.6008 124.499 53.8182 123.679 49.8973C122.796 45.9131 121.347 39.7154 119.392 31.4941C117.754 24.7273 116.493 19.4783 115.673 15.8735C114.854 12.1423 114.413 9.6759 114.413 8.34783C114.413 6.70356 114.791 5.3755 115.547 4.49012C116.304 3.5415 117.375 3.09882 118.762 3.09882C120.086 3.09882 121.094 3.60475 121.851 4.6166C122.544 5.56522 122.923 6.95653 122.923 8.85376V21.5652H124.625V8.917C124.625 6.4506 124.057 4.55336 122.986 3.28854C121.914 2.02372 120.527 1.45455 118.762 1.45455C116.934 1.45455 115.484 2.02372 114.413 3.2253C113.341 4.42688 112.774 6.13439 112.774 8.34783C112.774 9.6759 113.152 12.1423 113.971 15.6838C114.791 19.2885 116.115 25.0435 117.943 32.6957C119.771 40.3479 121.158 46.2293 121.977 50.0237C122.86 54.0079 123.238 56.6641 123.238 58.1819C123.238 59.7629 122.86 60.9645 122.103 61.7866C121.347 62.672 120.275 63.1147 119.014 63.1147C117.564 63.1147 116.493 62.6087 115.736 61.6601C114.98 60.7115 114.602 59.3202 114.602 57.3597V43.8261H113.026Z" fill="white"/>
<path d="M140.762 8.91683V58.3714C140.762 61.0908 141.834 62.4188 143.914 62.4188C145.994 62.4188 147.066 61.0908 147.066 58.3714V43.0671H150.218V58.3714C150.218 60.6481 149.65 62.4188 148.516 63.6837C147.381 64.9485 145.868 65.5809 143.914 65.5809C142.023 65.5809 140.447 64.9485 139.312 63.6837C138.178 62.4188 137.61 60.6481 137.61 58.3714V1.26465H140.762V5.75477H150.218V8.91683H140.762Z" fill="white"/>
<path d="M143.914 66.3396C141.771 66.3396 140.069 65.644 138.808 64.1894C137.547 62.7981 136.917 60.8377 136.917 58.3713V0.568848H141.518V5.05897H150.974V9.67557H141.518V58.3713C141.518 61.3436 142.779 61.723 143.914 61.723C145.049 61.723 146.309 61.3436 146.309 58.3713V42.3713H150.911V58.4345C150.911 60.9009 150.281 62.8614 149.02 64.2527C147.696 65.5807 145.994 66.3396 143.914 66.3396ZM138.304 2.02339V58.4345C138.304 60.5215 138.808 62.1657 139.816 63.2408C140.825 64.3792 142.149 64.8851 143.851 64.8851C145.553 64.8851 146.877 64.3159 147.885 63.2408C148.894 62.1025 149.398 60.5215 149.398 58.4345V43.8258H147.696V58.4345C147.696 62.6084 145.301 63.2408 143.851 63.2408C142.401 63.2408 140.006 62.6084 140.006 58.4345V8.22103H149.461V6.51352H140.006V2.02339H138.304Z" fill="white"/>
<path d="M22.4414 19.478H0.756592V22.3871H22.4414V19.478Z" fill="white"/>
<path d="M23.1347 23.0829H0V18.7192H23.1347V23.0829ZM1.44986 21.6283H21.6848V20.237H1.44986V21.6283Z" fill="white"/>
<path d="M15.192 77.2808H15.8854C15.9484 77.2808 15.9484 77.2808 15.9484 77.344V83.6049C15.9484 83.6681 15.9484 83.6681 15.8854 83.6681H15.192C15.1289 83.6681 15.1289 83.6681 15.1289 83.6049V78.8618C15.1289 78.8618 15.1289 78.8618 15.1289 78.7986L13.8051 80.8223C13.8051 80.8855 13.7421 80.8855 13.6791 80.8855H13.3008C13.2378 80.8855 13.2378 80.8855 13.1748 80.8223L11.851 78.8618C11.851 78.8618 11.851 78.8618 11.851 78.925V83.6049C11.851 83.6681 11.851 83.6681 11.7879 83.6681H11.0945C11.0315 83.6681 11.0315 83.6681 11.0315 83.6049V77.344C11.0315 77.2808 11.0315 77.2808 11.0945 77.2808H11.7879C11.851 77.2808 11.851 77.2808 11.914 77.344L13.553 79.7472L15.1289 77.344C15.1289 77.344 15.1289 77.2808 15.192 77.2808Z" fill="white"/>
<path d="M30.8883 83.5416C30.5731 83.3519 30.258 83.0989 30.0688 82.7827C29.8797 82.4665 29.7537 82.0871 29.7537 81.6444V79.431C29.7537 78.9883 29.8797 78.6088 30.0688 78.2926C30.258 77.9764 30.5101 77.7235 30.8883 77.5337C31.2035 77.344 31.6448 77.2808 32.086 77.2808C32.5273 77.2808 32.9686 77.344 33.2837 77.5337C33.5989 77.7235 33.9141 77.9764 34.1032 78.2926C34.2923 78.6088 34.4184 78.9883 34.4184 79.431V81.6444C34.4184 82.0871 34.2923 82.4665 34.1032 82.7827C33.9141 83.0989 33.662 83.3519 33.2837 83.5416C32.9686 83.7314 32.5273 83.7946 32.086 83.7946C31.5817 83.8578 31.2035 83.7314 30.8883 83.5416ZM33.0316 82.7195C33.2837 82.4665 33.4098 82.1503 33.4098 81.7076V79.4942C33.4098 79.0515 33.2837 78.7353 33.0316 78.4823C32.7794 78.2294 32.4643 78.1029 32.023 78.1029C31.5817 78.1029 31.2666 78.2294 31.0144 78.4823C30.7623 78.7353 30.6362 79.1148 30.6362 79.4942V81.7076C30.6362 82.1503 30.7623 82.4665 31.0144 82.7195C31.2666 82.9725 31.5817 83.0989 32.023 83.0989C32.4643 83.0989 32.7794 82.9725 33.0316 82.7195Z" fill="white"/>
<path d="M52.0059 77.2808H52.6993C52.7624 77.2808 52.7624 77.2808 52.7624 77.344V83.6049C52.7624 83.6681 52.7624 83.6681 52.6993 83.6681H52.0059C51.9429 83.6681 51.9429 83.6681 51.8798 83.6049L48.9801 78.925C48.9801 78.925 48.9801 78.925 48.9801 78.9883V83.6681C48.9801 83.7314 48.9801 83.7314 48.9171 83.7314H48.2237C48.1606 83.7314 48.1606 83.7314 48.1606 83.6681V77.4072C48.1606 77.344 48.1606 77.344 48.2237 77.344H48.9171C48.9801 77.344 48.9801 77.344 49.0432 77.4072L51.8798 82.0871C51.8798 82.0871 51.8798 82.0871 51.8798 82.0238V77.344C51.9429 77.344 51.9429 77.2808 52.0059 77.2808Z" fill="white"/>
<path d="M70.9801 77.4073V77.9765C70.9801 78.0397 70.9801 78.0397 70.917 78.0397H69.152C69.152 78.0397 69.089 78.0397 69.089 78.103V83.6682C69.089 83.7314 69.089 83.7314 69.0259 83.7314H68.3325C68.2695 83.7314 68.2695 83.7314 68.2695 83.6682V78.103C68.2695 78.103 68.2695 78.0397 68.2064 78.0397H66.5044C66.4414 78.0397 66.4414 78.0397 66.4414 77.9765V77.4073C66.4414 77.3441 66.4414 77.3441 66.5044 77.3441H70.917C70.917 77.2808 70.9801 77.3441 70.9801 77.4073Z" fill="white"/>
<path d="M88.6934 78.0397H85.4155C85.4155 78.0397 85.3524 78.0397 85.3524 78.1029V80.0634C85.3524 80.0634 85.3524 80.1266 85.4155 80.1266H87.6848C87.7479 80.1266 87.7479 80.1266 87.7479 80.1899V80.759C87.7479 80.8223 87.7479 80.8223 87.6848 80.8223H85.4155C85.4155 80.8223 85.3524 80.8223 85.3524 80.8855V82.9092C85.3524 82.9092 85.3524 82.9725 85.4155 82.9725H88.6934C88.7564 82.9725 88.7565 82.9725 88.7565 83.0357V83.6049C88.7565 83.6681 88.7564 83.6681 88.6934 83.6681H84.596C84.533 83.6681 84.533 83.6681 84.533 83.6049V77.344C84.533 77.2808 84.533 77.2808 84.596 77.2808H88.6934C88.7564 77.2808 88.7565 77.2808 88.7565 77.344V77.9132C88.8195 78.0397 88.7564 78.0397 88.6934 78.0397Z" fill="white"/>
<path d="M104.137 83.6681L102.183 77.4072V77.344C102.183 77.2808 102.183 77.2808 102.246 77.2808H103.003C103.066 77.2808 103.066 77.2808 103.129 77.344L104.642 82.4665L106.155 77.344C106.155 77.2808 106.218 77.2808 106.281 77.2808H107.037C107.1 77.2808 107.1 77.344 107.1 77.4072L105.146 83.6681C105.146 83.7314 105.083 83.7314 105.02 83.7314H104.264C104.201 83.7314 104.137 83.7314 104.137 83.6681Z" fill="white"/>
<path d="M120.59 83.6679V77.407C120.59 77.3437 120.59 77.3438 120.653 77.3438H121.347C121.41 77.3438 121.41 77.3437 121.41 77.407V83.6679C121.41 83.7311 121.41 83.7311 121.347 83.7311H120.653C120.653 83.7311 120.59 83.7311 120.59 83.6679Z" fill="white"/>
<path d="M135.467 83.6679V77.407C135.467 77.3437 135.467 77.3438 135.53 77.3438H137.736C138.367 77.3438 138.871 77.5335 139.249 77.8497C139.627 78.1659 139.817 78.6086 139.817 79.1777V81.9604C139.817 82.5295 139.627 82.9722 139.249 83.2884C138.871 83.6046 138.367 83.7943 137.736 83.7943H135.53C135.467 83.7311 135.467 83.7311 135.467 83.6679ZM136.35 82.9722H137.799C138.178 82.9722 138.43 82.8457 138.619 82.656C138.808 82.4663 138.934 82.1501 138.934 81.7706V79.241C138.934 78.8615 138.808 78.6086 138.619 78.3556C138.43 78.1659 138.115 78.0394 137.736 78.0394H136.287C136.287 78.0394 136.223 78.0394 136.223 78.1026L136.35 82.9722Z" fill="white"/>
<path d="M157.782 78.0397H154.504C154.504 78.0397 154.441 78.0397 154.441 78.1029V80.0634C154.441 80.0634 154.441 80.1266 154.504 80.1266H156.774C156.837 80.1266 156.837 80.1266 156.837 80.1899V80.759C156.837 80.8223 156.837 80.8223 156.774 80.8223H154.504C154.504 80.8223 154.441 80.8223 154.441 80.8855V82.9092C154.441 82.9092 154.441 82.9725 154.504 82.9725H157.782C157.845 82.9725 157.845 82.9725 157.845 83.0357V83.6049C157.845 83.6681 157.845 83.6681 157.782 83.6681H153.685C153.622 83.6681 153.622 83.6681 153.622 83.6049V77.344C153.622 77.2808 153.622 77.2808 153.685 77.2808H157.782C157.845 77.2808 157.845 77.2808 157.845 77.344V77.9132C157.908 78.0397 157.845 78.0397 157.782 78.0397Z" fill="white"/>
<path d="M172.47 83.5416C172.155 83.3519 171.84 83.0989 171.65 82.7827C171.461 82.4665 171.335 82.0871 171.335 81.6444V79.431C171.335 78.9883 171.461 78.6088 171.65 78.2926C171.84 77.9764 172.092 77.7235 172.47 77.5337C172.785 77.344 173.226 77.2808 173.668 77.2808C174.109 77.2808 174.55 77.344 174.865 77.5337C175.18 77.7235 175.496 77.9764 175.685 78.2926C175.874 78.6088 176 78.9883 176 79.431V81.6444C176 82.0871 175.874 82.4665 175.685 82.7827C175.496 83.0989 175.244 83.3519 174.865 83.5416C174.55 83.7314 174.109 83.7946 173.668 83.7946C173.226 83.8578 172.848 83.7314 172.47 83.5416ZM174.676 82.7195C174.928 82.4665 175.054 82.1503 175.054 81.7076V79.4942C175.054 79.0515 174.928 78.7353 174.676 78.4823C174.424 78.2294 174.109 78.1029 173.668 78.1029C173.226 78.1029 172.911 78.2294 172.659 78.4823C172.407 78.7353 172.281 79.1148 172.281 79.4942V81.7076C172.281 82.1503 172.407 82.4665 172.659 82.7195C172.911 82.9725 173.226 83.0989 173.668 83.0989C174.109 83.0989 174.424 82.9725 174.676 82.7195Z" fill="white"/>
</svg>
