<svg width="223" height="106" viewBox="0 0 223 106" fill="none" xmlns="http://www.w3.org/2000/svg">
<path d="M14.7499 79.664C13.2351 77.9044 12.5176 75.3449 12.5176 72.0655V11.1975C12.5176 7.83812 13.2351 5.27862 14.7499 3.59895C16.2647 1.8393 18.3376 0.959473 20.9686 0.959473C23.5995 0.959473 25.6724 1.8393 27.1872 3.59895C28.702 5.27862 29.4993 7.83812 29.4993 11.1975V72.0655C29.4993 75.4249 28.702 77.9844 27.267 79.664C25.7522 81.4237 23.6793 82.3035 21.0483 82.3035C18.3376 82.3035 16.2647 81.4237 14.7499 79.664ZM25.513 72.0655V11.1975C25.513 7.03828 23.9982 4.95869 20.9686 4.95869C17.939 4.95869 16.4242 7.03828 16.4242 11.1975V72.0655C16.4242 76.2247 17.939 78.3043 20.9686 78.3043C23.9982 78.3043 25.513 76.2247 25.513 72.0655Z" fill="#2525F4"/>
<path d="M20.9683 83.2636C18.0184 83.2636 15.7063 82.3038 14.0321 80.3042C12.3578 78.3846 11.5605 75.5852 11.5605 72.0658V11.1978C11.5605 7.67849 12.4375 4.87904 14.0321 2.95942C15.7063 1.0398 18.0184 0 20.9683 0C23.9181 0 26.2302 0.959812 27.9045 2.95942C29.5787 4.87904 30.376 7.67849 30.376 11.1978V72.0658C30.376 75.5852 29.499 78.3846 27.9045 80.3042C26.2302 82.2239 23.9181 83.2636 20.9683 83.2636ZM20.9683 1.83964C18.5765 1.83964 16.7428 2.5595 15.3874 4.15918C14.0321 5.75887 13.3145 8.07841 13.3145 11.1978V72.0658C13.3145 75.1852 14.0321 77.5048 15.3874 79.1045C16.7428 80.6242 18.5765 81.424 20.9683 81.424C23.3601 81.424 25.1938 80.7042 26.5491 79.1045C27.9045 77.5048 28.622 75.1852 28.622 72.0658V11.1978C28.622 8.07841 27.9045 5.75887 26.5491 4.15918C25.1938 2.5595 23.3601 1.83964 20.9683 1.83964ZM20.9683 79.2644C18.4967 79.2644 15.5469 77.9847 15.5469 72.0658V11.1978C15.5469 5.27896 18.4967 3.99921 20.9683 3.99921C23.4398 3.99921 26.3897 5.27896 26.3897 11.1978V72.0658C26.4694 77.9847 23.4398 79.2644 20.9683 79.2644ZM20.9683 5.83885C19.3737 5.83885 17.3806 6.39874 17.3806 11.1978V72.0658C17.3806 76.8649 19.4535 77.4248 20.9683 77.4248C22.5628 77.4248 24.5559 76.8649 24.5559 72.0658V11.1978C24.6357 6.39874 22.5628 5.83885 20.9683 5.83885Z" fill="#2525F4"/>
<path d="M48.3936 2.63948H47.5166L43.4506 23.7553H39.2251L43.7695 2.07959H51.7421V81.8239H47.7558V11.1978L48.3936 2.63948Z" fill="#2525F4"/>
<path d="M52.5395 82.7841H46.7195V10.9582L44.0885 24.6355H38.0293L42.9723 1.12012H52.6192V82.7841H52.5395ZM48.5532 80.9444H50.7058V2.95976H49.191L48.5532 11.1981V80.9444ZM40.2616 22.7959H42.5737L46.4006 2.95976H44.4074L40.2616 22.7959Z" fill="#2525F4"/>
<path d="M91.287 2.07959L96.3097 75.0253L96.5489 81.264H97.4259L97.6651 75.0253L102.688 2.07959H106.674L100.774 81.8239H93.2801L87.3804 2.07959H91.287Z" fill="#2525F4"/>
<path d="M101.571 82.7837H92.403L86.3438 1.19971H92.1638L96.9474 71.5859L101.731 1.19971H107.551L101.571 82.7837ZM98.3824 80.944H99.8972L105.638 3.03935H103.485L98.5419 75.1052L98.3824 80.944ZM94.0772 80.944H95.592L95.3528 75.0252L90.4098 2.95936H88.2572L94.0772 80.944Z" fill="#2525F4"/>
<path d="M216.537 81.8239L211.514 8.87825L211.275 2.63948H210.398L210.158 8.87825L205.136 81.8239H201.149L207.049 2.07959H214.543L220.443 81.8239H216.537Z" fill="#2525F4"/>
<path d="M221.48 82.7837H215.66L210.876 12.3975L206.092 82.7837H200.272L206.332 1.19971H215.5L221.48 82.7837ZM217.414 80.944H219.566L213.826 3.03935H212.311L212.55 8.95818L217.414 80.944ZM202.186 80.944H204.338L209.282 8.8782L209.521 3.03935H208.006L202.186 80.944Z" fill="#2525F4"/>
<path d="M126.127 2.07959V81.8239H122.141V2.07959H126.127Z" fill="#2525F4"/>
<path d="M127.004 82.7841H121.184V1.12012H127.004V82.7841ZM123.018 80.9444H125.17V2.95976H123.018V80.9444Z" fill="#2525F4"/>
<path d="M144.385 80.3845C142.87 78.6248 142.073 76.0653 142.073 72.626V54.4695H146.059V72.626C146.059 74.8655 146.457 76.5452 147.255 77.505C148.052 78.4648 149.168 79.0247 150.683 79.0247C152.038 79.0247 153.155 78.5448 153.952 77.665C154.749 76.7852 155.148 75.4254 155.148 73.6658C155.148 71.8261 154.59 68.4668 153.553 63.5878C152.517 58.7087 150.763 51.3502 148.451 41.6721C146.139 31.834 144.385 24.7154 143.428 20.1563C142.391 15.5972 141.913 12.4778 141.913 10.7181C141.913 7.67874 142.71 5.27921 144.225 3.59954C145.74 1.91987 147.813 1.04004 150.444 1.04004C152.915 1.04004 154.908 1.91987 156.503 3.67952C158.018 5.43918 158.735 7.99867 158.735 11.358V28.3147H154.749V11.278C154.749 9.03847 154.35 7.43878 153.633 6.39899C152.836 5.35919 151.799 4.87929 150.444 4.87929C149.009 4.87929 147.893 5.35919 147.095 6.319C146.298 7.27881 145.899 8.71853 145.899 10.5582C145.899 12.1579 146.378 15.2772 147.414 19.8363C148.451 24.3955 150.045 31.0342 152.118 39.5925C154.59 50.0704 156.423 57.8289 157.539 62.8679C158.656 67.9069 159.214 71.5062 159.214 73.5058C159.214 76.3852 158.416 78.7048 156.981 80.3045C155.467 81.9842 153.394 82.784 150.842 82.784C148.052 82.944 145.899 82.0641 144.385 80.3845Z" fill="#2525F4"/>
<path d="M150.683 83.9035C147.733 83.9035 145.421 82.9437 143.667 80.9441C141.993 79.0245 141.116 76.225 141.116 72.5458V53.5895H146.936V72.6257C146.936 74.7053 147.255 76.1451 147.893 76.9449C148.53 77.7447 149.407 78.0647 150.603 78.0647C151.719 78.0647 152.517 77.7447 153.154 77.0249C153.792 76.305 154.111 75.1852 154.111 73.6655C154.111 71.9059 153.553 68.6265 152.517 63.7475C151.48 58.8684 149.726 51.5099 147.414 41.8318C145.102 32.1537 143.428 24.8751 142.391 20.316C141.355 15.6769 140.797 12.4776 140.797 10.6379C140.797 7.35856 141.674 4.79906 143.348 2.87943C145.102 0.959811 147.414 0 150.205 0C152.995 0 155.227 1.0398 156.902 3.0394C158.576 4.95903 159.373 7.75848 159.373 11.3578V29.2743H153.553V11.2778C153.553 9.27818 153.234 7.83846 152.596 6.95863C152.038 6.15879 151.241 5.75887 150.125 5.75887C148.929 5.75887 148.132 6.07881 147.494 6.87865C146.856 7.67849 146.537 8.87826 146.537 10.5579C146.537 12.0776 147.016 15.117 148.052 19.6761C149.088 24.2352 150.683 30.8739 152.756 39.4323C155.227 49.8302 157.061 57.6687 158.177 62.7877C159.293 67.9866 159.851 71.506 159.851 73.6655C159.851 76.7849 158.974 79.2644 157.38 81.1041C155.785 82.9437 153.473 83.9035 150.683 83.9035ZM142.949 55.4291V72.6257C142.949 75.8251 143.667 78.2246 145.022 79.7443C146.378 81.264 148.211 82.0639 150.603 82.0639C152.915 82.0639 154.749 81.344 156.025 79.8243C157.38 78.3046 158.018 76.225 158.018 73.5855C158.018 71.5859 157.46 68.0666 156.423 63.1076C155.307 58.0686 153.473 50.2301 151.002 39.8322C148.929 31.2739 147.334 24.6352 146.298 20.0761C145.262 15.357 144.703 12.2376 144.703 10.5579C144.703 8.47834 145.182 6.79867 146.139 5.67888C147.095 4.47912 148.451 3.91923 150.205 3.91923C151.879 3.91923 153.154 4.5591 154.111 5.83885C154.988 7.03862 155.467 8.79827 155.467 11.1978V27.2746H157.619V11.2778C157.619 8.1584 156.902 5.75887 155.546 4.15918C154.191 2.5595 152.437 1.83964 150.205 1.83964C147.893 1.83964 146.059 2.5595 144.703 4.0792C143.348 5.5989 142.631 7.75848 142.631 10.5579C142.631 12.2376 143.109 15.357 144.145 19.8361C145.182 24.3952 146.856 31.6738 149.168 41.3519C151.48 51.03 153.234 58.4685 154.271 63.2676C155.387 68.3066 155.865 71.6659 155.865 73.5855C155.865 75.5852 155.387 77.1049 154.43 78.1447C153.473 79.2644 152.118 79.8243 150.523 79.8243C148.69 79.8243 147.334 79.1845 146.378 77.9847C145.421 76.7849 144.943 75.0253 144.943 72.5458V55.4291H142.949Z" fill="#2525F4"/>
<path d="M178.029 11.2777V73.8254C178.029 77.2648 179.384 78.9444 182.015 78.9444C184.646 78.9444 186.001 77.2648 186.001 73.8254V54.4692H189.988V73.8254C189.988 76.7049 189.27 78.9444 187.835 80.5441C186.4 82.1438 184.487 82.9436 182.015 82.9436C179.623 82.9436 177.63 82.1438 176.195 80.5441C174.76 78.9444 174.042 76.7049 174.042 73.8254V1.59961H178.029V7.2785H189.988V11.2777H178.029Z" fill="#2525F4"/>
<path d="M182.015 83.9034C179.304 83.9034 177.152 83.0236 175.557 81.1839C173.963 79.4243 173.166 76.9448 173.166 73.8254V0.719727H178.986V6.39861H190.945V12.2375H178.986V73.8254C178.986 77.5846 180.58 78.0645 182.015 78.0645C183.45 78.0645 185.045 77.5846 185.045 73.8254V53.5893H190.865V73.9054C190.865 77.0247 190.068 79.5043 188.473 81.2639C186.799 82.9436 184.646 83.9034 182.015 83.9034ZM174.92 2.55937V73.9054C174.92 76.5448 175.557 78.6244 176.833 79.9842C178.109 81.4239 179.783 82.0638 181.935 82.0638C184.088 82.0638 185.762 81.3439 187.038 79.9842C188.314 78.5444 188.951 76.5448 188.951 73.9054V55.429H186.799V73.9054C186.799 79.1843 183.769 79.9842 181.935 79.9842C180.102 79.9842 177.072 79.1843 177.072 73.9054V10.3978H189.031V8.23825H177.072V2.55937H174.92Z" fill="#2525F4"/>
<path d="M28.3824 24.6348H0.956543V28.314H28.3824V24.6348Z" fill="#2525F4"/>
<path d="M29.2596 29.1942H0V23.6753H29.2596V29.1942ZM1.83371 27.3546H27.4259V25.5949H1.83371V27.3546Z" fill="#2525F4"/>
<path d="M19.2141 97.7407H20.0911C20.1708 97.7407 20.1708 97.7407 20.1708 97.8207V105.739C20.1708 105.819 20.1708 105.819 20.0911 105.819H19.2141C19.1344 105.819 19.1344 105.819 19.1344 105.739V99.7403C19.1344 99.7403 19.1344 99.7403 19.1344 99.6603L17.4601 102.22C17.4601 102.3 17.3804 102.3 17.3007 102.3H16.8223C16.7426 102.3 16.7426 102.3 16.6628 102.22L14.9886 99.7403C14.9886 99.7403 14.9886 99.7403 14.9886 99.8203V105.739C14.9886 105.819 14.9886 105.819 14.9089 105.819H14.0319C13.9521 105.819 13.9521 105.819 13.9521 105.739V97.8207C13.9521 97.7407 13.9521 97.7407 14.0319 97.7407H14.9089C14.9886 97.7407 14.9886 97.7407 15.0683 97.8207L17.1412 100.86L19.1344 97.8207C19.1344 97.8207 19.1344 97.7407 19.2141 97.7407Z" fill="#2525F4"/>
<path d="M39.0659 105.659C38.6673 105.419 38.2687 105.099 38.0295 104.699C37.7903 104.299 37.6309 103.82 37.6309 103.26V100.46C37.6309 99.9003 37.7903 99.4204 38.0295 99.0205C38.2687 98.6206 38.5876 98.3006 39.0659 98.0607C39.4646 97.8207 40.0227 97.7407 40.5807 97.7407C41.1388 97.7407 41.6969 97.8207 42.0955 98.0607C42.4942 98.3006 42.8928 98.6206 43.132 99.0205C43.3712 99.4204 43.5306 99.9003 43.5306 100.46V103.26C43.5306 103.82 43.3712 104.299 43.132 104.699C42.8928 105.099 42.5739 105.419 42.0955 105.659C41.6969 105.899 41.1388 105.979 40.5807 105.979C39.9429 106.059 39.4646 105.899 39.0659 105.659ZM41.7766 104.619C42.0955 104.299 42.255 103.9 42.255 103.34V100.54C42.255 99.9803 42.0955 99.5804 41.7766 99.2604C41.4577 98.9405 41.0591 98.7805 40.501 98.7805C39.9429 98.7805 39.5443 98.9405 39.2254 99.2604C38.9065 99.5804 38.747 100.06 38.747 100.54V103.34C38.747 103.9 38.9065 104.299 39.2254 104.619C39.5443 104.939 39.9429 105.099 40.501 105.099C41.0591 105.099 41.4577 104.939 41.7766 104.619Z" fill="#2525F4"/>
<path d="M65.7744 97.7407H66.6514C66.7312 97.7407 66.7312 97.7407 66.7312 97.8207V105.739C66.7312 105.819 66.7312 105.819 66.6514 105.819H65.7744C65.6947 105.819 65.6947 105.819 65.615 105.739L61.9476 99.8203C61.9476 99.8203 61.9476 99.8203 61.9476 99.9003V105.819C61.9476 105.899 61.9476 105.899 61.8678 105.899H60.9909C60.9111 105.899 60.9111 105.899 60.9111 105.819V97.9007C60.9111 97.8207 60.9111 97.8207 60.9909 97.8207H61.8678C61.9476 97.8207 61.9476 97.8207 62.0273 97.9007L65.615 103.82C65.615 103.82 65.615 103.82 65.615 103.74V97.8207C65.6947 97.8207 65.6947 97.7407 65.7744 97.7407Z" fill="#2525F4"/>
<path d="M89.772 97.9007V98.6206C89.772 98.7006 89.772 98.7006 89.6923 98.7006H87.46C87.46 98.7006 87.3802 98.7006 87.3802 98.7805V105.819C87.3802 105.899 87.3802 105.899 87.3005 105.899H86.4235C86.3438 105.899 86.3438 105.899 86.3438 105.819V98.7805C86.3438 98.7805 86.3438 98.7006 86.2641 98.7006H84.1115C84.0317 98.7006 84.0317 98.7006 84.0317 98.6206V97.9007C84.0317 97.8207 84.0317 97.8207 84.1115 97.8207H89.6923C89.6923 97.7407 89.772 97.8207 89.772 97.9007Z" fill="#2525F4"/>
<path d="M112.175 98.7005H108.029C108.029 98.7005 107.95 98.7005 107.95 98.7805V101.26C107.95 101.26 107.95 101.34 108.029 101.34H110.899C110.979 101.34 110.979 101.34 110.979 101.42V102.14C110.979 102.22 110.979 102.22 110.899 102.22H108.029C108.029 102.22 107.95 102.22 107.95 102.3V104.859C107.95 104.859 107.95 104.939 108.029 104.939H112.175C112.255 104.939 112.255 104.939 112.255 105.019V105.739C112.255 105.819 112.255 105.819 112.175 105.819H106.993C106.913 105.819 106.913 105.819 106.913 105.739V97.8207C106.913 97.7407 106.913 97.7407 106.993 97.7407H112.175C112.255 97.7407 112.255 97.7407 112.255 97.8207V98.5406C112.334 98.7005 112.255 98.7005 112.175 98.7005Z" fill="#2525F4"/>
<path d="M131.708 105.819L129.236 97.9007V97.8207C129.236 97.7407 129.236 97.7407 129.316 97.7407H130.273C130.352 97.7407 130.352 97.7407 130.432 97.8207L132.346 104.299L134.259 97.8207C134.259 97.7407 134.339 97.7407 134.419 97.7407H135.375C135.455 97.7407 135.455 97.8207 135.455 97.9007L132.983 105.819C132.983 105.899 132.904 105.899 132.824 105.899H131.867C131.788 105.899 131.708 105.899 131.708 105.819Z" fill="#2525F4"/>
<path d="M152.517 105.819V97.9008C152.517 97.8208 152.517 97.8208 152.596 97.8208H153.473C153.553 97.8208 153.553 97.8208 153.553 97.9008V105.819C153.553 105.899 153.553 105.899 153.473 105.899H152.596C152.596 105.899 152.517 105.899 152.517 105.819Z" fill="#2525F4"/>
<path d="M171.332 105.819V97.9008C171.332 97.8208 171.332 97.8208 171.412 97.8208H174.202C174.999 97.8208 175.637 98.0608 176.116 98.4607C176.594 98.8606 176.833 99.4205 176.833 100.14V103.66C176.833 104.38 176.594 104.939 176.116 105.339C175.637 105.739 174.999 105.979 174.202 105.979H171.412C171.332 105.899 171.332 105.899 171.332 105.819ZM172.448 104.939H174.282C174.76 104.939 175.079 104.779 175.318 104.539C175.558 104.3 175.717 103.9 175.717 103.42V100.22C175.717 99.7404 175.558 99.4205 175.318 99.1005C175.079 98.8606 174.681 98.7006 174.202 98.7006H172.368C172.368 98.7006 172.289 98.7006 172.289 98.7806L172.448 104.939Z" fill="#2525F4"/>
<path d="M199.555 98.7005H195.41C195.41 98.7005 195.33 98.7005 195.33 98.7805V101.26C195.33 101.26 195.33 101.34 195.41 101.34H198.28C198.36 101.34 198.36 101.34 198.36 101.42V102.14C198.36 102.22 198.36 102.22 198.28 102.22H195.41C195.41 102.22 195.33 102.22 195.33 102.3V104.859C195.33 104.859 195.33 104.939 195.41 104.939H199.555C199.635 104.939 199.635 104.939 199.635 105.019V105.739C199.635 105.819 199.635 105.819 199.555 105.819H194.373C194.293 105.819 194.293 105.819 194.293 105.739V97.8207C194.293 97.7407 194.293 97.7407 194.373 97.7407H199.555C199.635 97.7407 199.635 97.7407 199.635 97.8207V98.5406C199.715 98.7005 199.635 98.7005 199.555 98.7005Z" fill="#2525F4"/>
<path d="M218.131 105.659C217.733 105.419 217.334 105.099 217.095 104.699C216.856 104.299 216.696 103.82 216.696 103.26V100.46C216.696 99.9003 216.856 99.4204 217.095 99.0205C217.334 98.6206 217.653 98.3006 218.131 98.0607C218.53 97.8207 219.088 97.7407 219.646 97.7407C220.204 97.7407 220.762 97.8207 221.161 98.0607C221.56 98.3006 221.958 98.6206 222.197 99.0205C222.437 99.4204 222.596 99.9003 222.596 100.46V103.26C222.596 103.82 222.437 104.299 222.197 104.699C221.958 105.099 221.639 105.419 221.161 105.659C220.762 105.899 220.204 105.979 219.646 105.979C219.088 106.059 218.61 105.899 218.131 105.659ZM220.922 104.619C221.241 104.299 221.4 103.9 221.4 103.34V100.54C221.4 99.9803 221.241 99.5804 220.922 99.2604C220.603 98.9405 220.204 98.7805 219.646 98.7805C219.088 98.7805 218.689 98.9405 218.371 99.2604C218.052 99.5804 217.892 100.06 217.892 100.54V103.34C217.892 103.9 218.052 104.299 218.371 104.619C218.689 104.939 219.088 105.099 219.646 105.099C220.204 105.099 220.603 104.939 220.922 104.619Z" fill="#2525F4"/>
</svg>
