<svg width="294" height="289" viewBox="0 0 294 289" fill="none" xmlns="http://www.w3.org/2000/svg">
<g clip-path="url(#clip0_124_210)">
<path d="M166.4 269L118.4 249.3V182.8L167.3 202.6L166.4 269Z" stroke="#42DB8F" stroke-width="1.0117" stroke-miterlimit="10" stroke-linecap="round" stroke-linejoin="round"/>
<path d="M166.4 268.7L214.2 247.4V181.2L167.3 202.6L166.4 268.7Z" stroke="#42DB8F" stroke-width="1.0117" stroke-miterlimit="10" stroke-linecap="round" stroke-linejoin="round"/>
<path d="M167.3 202.6L118.4 182.8L167.3 161.7L214.2 181.2L167.3 202.6Z" stroke="#42DB8F" stroke-width="1.0117" stroke-miterlimit="10" stroke-linecap="round" stroke-linejoin="round"/>
<path d="M165.5 174.5L117.4 154.8V21.7L166.3 41.4L165.5 174.5Z" fill="#42DB8F" stroke="#2525EF" stroke-width="1.0117" stroke-miterlimit="10" stroke-linecap="round" stroke-linejoin="round"/>
<path d="M165.5 174.2L213.3 152.9V20.1L166.3 41.4L165.5 174.2Z" fill="#42DB8F" stroke="#2525EF" stroke-width="1.0117" stroke-miterlimit="10" stroke-linecap="round" stroke-linejoin="round"/>
<path d="M166.3 41.4L117.4 21.7L166.3 0.5L213.3 20.1L166.3 41.4Z" fill="#42DB8F" stroke="#2525EF" stroke-width="1.0117" stroke-miterlimit="10" stroke-linecap="round" stroke-linejoin="round"/>
<path d="M293.3 267.9C293.2 267.5 293.1 267.1 292.9 266.8L265.7 189.4L238.5 266.8C238.3 267.1 238.2 267.5 238.1 267.9V268C238.1 268.1 238.1 268.2 238.1 268.3C238.1 272.9 250.5 276.6 265.7 276.6C280.9 276.6 293.3 272.9 293.3 268.3C293.3 268 293.3 268 293.3 267.9Z" fill="#42DB8F" stroke="#2525EF" stroke-width="1.0117" stroke-miterlimit="10" stroke-linecap="round" stroke-linejoin="round"/>
<path d="M48.6 287.6L0.5 267.9V175.1L49.4 194.8L48.6 287.6Z" fill="#42DB8F" stroke="#2525EF" stroke-width="1.0117" stroke-miterlimit="10" stroke-linecap="round" stroke-linejoin="round"/>
<path d="M48.6001 287.3L96.4001 266V173.5L49.4001 194.8L48.6001 287.3Z" fill="#42DB8F" stroke="#2525EF" stroke-width="1.0117" stroke-miterlimit="10" stroke-linecap="round" stroke-linejoin="round"/>
<path d="M49.4 194.8L0.5 175.1L49.4 153.9L96.4 173.5L49.4 194.8Z" fill="#42DB8F" stroke="#2525EF" stroke-width="1.0117" stroke-miterlimit="10" stroke-linecap="round" stroke-linejoin="round"/>
</g>
<defs>
<clipPath id="clip0_124_210">
<rect width="293.8" height="288.1" fill="white"/>
</clipPath>
</defs>
</svg>
