<svg width="150" height="194" viewBox="0 0 150 194" fill="none" xmlns="http://www.w3.org/2000/svg">
<g clip-path="url(#clip0_333_18)">
<path d="M149.3 185.6C149.2 185.2 149.1 184.9 149 184.6L126 119.3L103.1 184.6C102.9 184.9 102.8 185.2 102.8 185.5V185.6C102.8 185.7 102.8 185.8 102.8 185.8C102.8 189.7 113.2 192.8 126.1 192.8C139 192.8 149.4 189.6 149.4 185.8C149.3 185.7 149.3 185.6 149.3 185.6Z" fill="#00FF8E" stroke="#2525EF" stroke-width="0.8537" stroke-miterlimit="10" stroke-linecap="round" stroke-linejoin="round"/>
<path d="M41.4999 161.3L0.899902 144.6V18.2L42.1999 34.9L41.4999 161.3Z" fill="#2525EF"/>
<path d="M41.4999 161.3L0.899902 144.6V18.2L42.1999 34.9L41.4999 161.3Z" stroke="#00FF8E" stroke-width="0.703" stroke-miterlimit="10"/>
<path d="M41.5 161L81.8 143V16.8999L42.2 34.8999L41.5 161Z" fill="#2525EF"/>
<path d="M41.5 161L81.8 143V16.8999L42.2 34.8999L41.5 161Z" stroke="#00FF8E" stroke-width="0.703" stroke-miterlimit="10"/>
<path d="M42.1999 34.8999L0.899902 18.1999L42.1999 0.399902L81.7999 16.8999L42.1999 34.8999Z" fill="#2525EF"/>
<path d="M42.1999 34.8999L0.899902 18.1999L42.1999 0.399902L81.7999 16.8999L42.1999 34.8999Z" stroke="#00FF8E" stroke-width="0.703" stroke-miterlimit="10"/>
</g>
<defs>
<clipPath id="clip0_333_18">
<rect width="149.7" height="193.3" fill="white"/>
</clipPath>
</defs>
</svg>
