<svg width="124" height="149" viewBox="0 0 124 149" fill="none" xmlns="http://www.w3.org/2000/svg">
<path d="M44.831 6.97184H38.3926V0H53.6541V32.9359H44.831V6.97184Z" fill="white"/>
<path d="M0.476562 57.6983C0.476562 48.082 7.86887 41.3506 17.1689 41.3506C22.8919 41.3506 27.4227 43.5143 30.0458 47.3608L28.615 48.3224C26.2304 44.9567 22.415 43.0334 17.1689 43.0334C8.82272 43.0334 2.62272 49.2841 2.62272 57.4579C2.62272 65.8722 8.82272 71.8824 17.1689 71.8824C22.1766 71.8824 26.4689 69.7187 28.8535 66.1126L30.2843 67.0743C27.4227 71.1612 22.6535 73.3249 16.9304 73.3249C7.86887 73.8057 0.476562 67.3147 0.476562 57.6983Z" fill="white"/>
<path d="M37.4385 41.8311H56.2769V43.5139H39.3462V60.3425H54.6077V62.0253H39.3462V71.8821H56.9923V73.5649H37.4385V41.8311Z" fill="white"/>
<path d="M84.4152 73.5649H82.0306L75.3536 64.4294C74.1613 64.6698 72.7306 64.9102 71.2998 64.9102H66.769V73.5649H64.8613V41.8311H71.2998C80.1229 41.8311 84.1767 46.8796 84.1767 53.3707C84.1767 57.9384 82.0306 62.0253 77.2613 63.9486L84.4152 73.5649ZM71.0613 63.2274C79.169 63.2274 82.269 58.6596 82.269 53.3707C82.269 48.0817 79.4075 43.5139 71.0613 43.5139H66.769V63.2274H71.0613Z" fill="white"/>
<path d="M90.6152 57.6983C90.6152 48.082 98.0075 41.3506 107.308 41.3506C116.608 41.3506 124 47.8416 124 57.6983C124 67.3147 116.608 74.0461 107.308 74.0461C98.0075 74.0461 90.6152 67.3147 90.6152 57.6983ZM121.615 57.6983C121.615 49.2841 115.415 43.2738 107.069 43.2738C98.7229 43.2738 92.5229 49.5245 92.5229 57.6983C92.5229 66.1126 98.7229 72.1228 107.069 72.1228C115.415 72.1228 121.615 65.8722 121.615 57.6983Z" fill="white"/>
<path d="M2.146 103.616V82.4601H4.05369V103.376C4.05369 109.386 7.63061 112.752 13.1152 112.752C18.3614 112.752 22.1768 109.386 22.1768 103.376V82.2197H24.0845V103.376C24.0845 110.588 19.3152 114.194 13.1152 114.194C6.91523 114.434 2.146 110.828 2.146 103.616Z" fill="white"/>
<path d="M36.723 88.2296C36.0077 87.5084 35.2923 86.0659 35.2923 86.0659C35.2923 86.0659 35.5307 87.5084 35.5307 88.47V114.194H33.623V81.979H34.1L54.8461 108.424C55.5615 109.145 56.2769 110.588 56.2769 110.588C56.2769 110.588 56.0384 109.145 56.0384 108.184V82.4598H57.9461V114.675H57.4692L36.723 88.2296Z" fill="white"/>
<path d="M65.5767 98.3268C65.5767 88.7104 72.969 81.979 82.269 81.979C91.3305 81.979 98.9613 88.47 98.9613 98.3268C98.9613 107.943 91.569 114.675 82.269 114.675C72.969 114.434 65.5767 107.943 65.5767 98.3268ZM96.8151 98.3268C96.8151 89.9125 90.6151 83.9023 82.269 83.9023C73.9228 83.9023 67.7228 90.1529 67.7228 98.3268C67.7228 106.741 73.9228 112.751 82.269 112.751C90.6151 112.751 96.8151 106.501 96.8151 98.3268Z" fill="white"/>
<path d="M112.077 86.0664H113.269L103.731 112.03H102.3L112.077 86.0664Z" fill="white"/>
<path d="M16.9307 19.7134C18.6 19.7134 20.2692 18.2709 20.2692 16.3476C20.2692 14.6648 18.8384 12.9819 16.9307 12.9819C15.2615 12.9819 13.5923 14.4244 13.5923 16.3476C13.8307 18.2709 15.2615 19.7134 16.9307 19.7134Z" fill="white"/>
<path d="M21.9385 16.5883V32.2149C28.6154 30.0512 33.3846 23.8006 33.3846 16.3479C33.3846 15.6267 33.3846 14.9055 33.1462 13.9438H24.3231C22.8923 14.1843 21.9385 15.1459 21.9385 16.5883Z" fill="white"/>
<path d="M11.923 16.3477V0.721191C5.48456 2.88487 0.715332 9.13548 0.715332 16.3477C0.715332 17.0689 0.715332 17.7902 0.953794 18.7518H9.77687C10.9692 18.7518 11.923 17.7902 11.923 16.3477Z" fill="white"/>
<path d="M16.9305 11.5396H32.4305C30.5228 4.80816 24.3228 0 16.9305 0C16.2151 0 15.4997 0 14.5459 0.240408V9.13551C14.7844 10.3376 15.7382 11.5396 16.9305 11.5396Z" fill="white"/>
<path d="M16.9307 21.3965H1.43066C3.57682 28.1279 9.77682 32.9361 16.9307 32.9361C17.646 32.9361 18.3614 32.9361 19.3153 32.6957V23.8006C19.3153 22.5985 18.123 21.3965 16.9307 21.3965Z" fill="white"/>
<path d="M86.5616 131.263H85.8462V135.83H86.5616C88.4693 135.83 89.1847 135.109 89.1847 133.426C89.4231 131.984 88.4693 131.263 86.5616 131.263Z" fill="white"/>
<path d="M98.9617 131.263C96.8155 131.263 95.3848 132.946 95.3848 135.109C95.3848 137.273 96.8155 138.956 98.9617 138.956C101.108 138.956 102.539 137.273 102.539 135.109C102.539 132.946 101.108 131.263 98.9617 131.263Z" fill="white"/>
<path d="M10.4924 131.263H9.53857V138.715H10.4924C12.877 138.715 14.3078 137.513 14.3078 135.109C14.3078 132.705 12.877 131.263 10.4924 131.263Z" fill="white"/>
<path d="M0 148.332H113.269V122.368H0V148.332ZM10.4923 140.639H7.39231V129.34H10.7308C14.3077 129.34 16.6923 131.503 16.6923 135.109C16.6923 138.715 14.0692 140.639 10.4923 140.639ZM26.2308 140.639H18.6V129.34H25.9923V131.263H20.7462V134.869H25.2769V137.033H20.7462V138.715H26.2308V140.639ZM35.2923 140.639H28.1385V129.34H30.2846V138.715H35.2923V140.639ZM51.2692 138.475C50.3154 140.158 48.6461 140.879 46.5 140.879C43.1615 140.879 40.7769 138.475 40.7769 135.109C40.7769 131.744 43.1615 129.34 46.5 129.34C48.4077 129.34 50.0769 130.061 51.0308 131.503L51.2692 131.744L49.6 132.946L49.3615 132.705C48.6462 131.744 47.6923 131.263 46.5 131.263C44.3538 131.263 42.9231 132.946 42.9231 135.109C42.9231 137.273 44.3538 138.956 46.5 138.956C47.6923 138.956 48.6462 138.475 49.3615 137.273L49.6 137.033L51.2692 138.475ZM60.5692 140.639H52.9385V129.34H60.3308V131.263H55.0846V134.869H59.6154V137.033H55.0846V138.715H60.5692V140.639ZM71.7769 140.879H71.3L65.3385 134.388C65.1 134.148 65.1 133.907 64.8615 133.907C64.8615 134.148 64.8615 134.388 64.8615 134.628V140.879H62.7154V129.34H63.1923L69.1538 135.831C69.3923 136.071 69.3923 136.071 69.6308 136.311C69.6308 136.071 69.6308 135.831 69.6308 135.59V129.34H71.7769V140.879ZM82.0308 131.263H78.9308V140.639H76.7846V131.263H73.6846V129.34H82.2692V131.263H82.0308ZM89.4231 140.639L87.5154 137.754C87.2769 137.754 87.0385 137.754 86.8 137.754H86.0846V140.639H83.9385V129.34H86.8C89.9 129.34 91.8077 131.022 91.8077 133.667C91.8077 135.35 91.0923 136.552 89.6615 137.273L92.0461 140.879H89.4231V140.639ZM98.9615 140.879C95.6231 140.879 93.2384 138.475 93.2384 135.109C93.2384 131.744 95.6231 129.34 98.9615 129.34C102.3 129.34 104.685 131.744 104.685 135.109C104.685 138.475 102.3 140.879 98.9615 140.879Z" fill="white"/>
</svg>
