<svg width="191" height="80" viewBox="0 0 191 80" fill="none" xmlns="http://www.w3.org/2000/svg">
<path d="M12.0218 40.3213L19.6725 40.3346L31.7859 9.88512L22.7352 9.8705L15.9485 29.0048L9.22062 9.85055L0 9.83594L12.0218 40.3213Z" fill="#E71D72"/>
<path d="M34.991 9.89062L43.2783 9.90392L43.2326 40.3362L34.9453 40.3242L34.991 9.89062Z" fill="#E71D72"/>
<path d="M55.4017 17.2673L46.4766 17.2541L46.4884 9.8457L72.5804 9.88559L72.5686 17.2953L63.6447 17.2806L63.6107 40.3351L55.3666 40.3218L55.4017 17.2673Z" fill="#E71D72"/>
<path d="M75.7802 9.88477L89.845 9.90603C94.3926 9.98047 97.5351 11.1955 99.5297 13.2719C101.268 15.0027 102.157 17.3383 102.155 20.3199V20.4078C102.145 25.0311 99.7206 28.0964 96.0214 29.6903L103.101 40.2451L93.5822 40.2306L87.6059 31.0596H87.5197L83.9917 31.0529L83.9772 40.2159L75.7344 40.2026L75.7802 9.88477ZM89.4399 24.4954C92.2451 24.4993 93.8619 23.1169 93.8646 20.9141V20.8264C93.8684 18.4509 92.1717 17.2386 89.4086 17.2333L84.0112 17.2239L83.9996 24.4861L89.4399 24.4954Z" fill="#E71D72"/>
<path d="M106.358 9.87305L106.312 40.2334L114.598 40.2464L114.645 9.88601L106.358 9.87305Z" fill="#E71D72"/>
<path d="M117.836 27.0054L117.875 9.87305L126.246 9.88635L126.207 26.8444C126.199 31.2099 128.364 33.2878 131.679 33.2931C134.994 33.2971 137.162 31.3138 137.17 27.0784L137.196 9.88236L145.57 9.89565L145.544 26.8326C145.529 36.5991 140.04 40.8689 131.583 40.8556C123.126 40.8436 117.822 36.4688 117.836 27.0054Z" fill="#E71D72"/>
<path d="M148.819 9.88477L157.531 9.89805L164.611 21.6201L171.726 9.92065L180.437 9.93395L180.391 40.3449L172.189 40.3329L172.216 22.8004L164.591 34.6288H164.421L156.874 22.8616L156.849 40.3343L148.773 40.3223L148.819 9.88477Z" fill="#E71D72"/>
<path d="M0.359391 65.035V64.9525C0.372463 56.5327 6.75527 49.9392 15.3589 49.9512C21.1613 49.9605 24.892 52.4424 27.403 55.997L21.4711 60.6495C19.8503 58.5839 17.985 57.2599 15.2661 57.2545C11.2872 57.2492 8.48201 60.6709 8.47679 64.8809V64.9632C8.47024 69.2969 11.2662 72.6852 15.2426 72.6919C18.2058 72.6972 19.9523 71.2975 21.6593 69.1945L27.5808 73.4975C24.8958 77.2489 21.2803 80.0085 14.989 79.9992C6.87161 79.9872 0.347628 73.661 0.359391 65.035Z" fill="#E71D72"/>
<path d="M40.5118 50.3633L48.1025 50.3739L60.1543 79.4928L51.7115 79.4795L49.6502 74.3163L38.691 74.3005L36.6545 79.4568L28.375 79.445L40.5118 50.3633ZM47.3862 68.0791L44.232 59.8626L41.0138 68.0698L47.3862 68.0791Z" fill="#E71D72"/>
<path d="M63.4012 50.6055L75.5772 50.6226C82.7601 50.6333 87.3821 54.398 87.3717 60.7946V60.8771C87.3612 67.6871 82.2006 71.2711 75.1394 71.2591L71.244 71.2525L71.2322 79.5075L63.3594 79.497L63.4012 50.6055ZM74.9877 64.986C77.7877 64.99 79.4934 63.5078 79.4974 61.2373V61.155C79.5014 58.6796 77.7994 57.3556 74.959 57.3505L71.265 57.3438L71.2545 64.9793L74.9877 64.986Z" fill="#E71D72"/>
<path d="M90.6145 50.6484L90.5703 79.54L98.4837 79.5525L98.528 50.6609L90.6145 50.6484Z" fill="#E71D72"/>
<path d="M110.226 57.6936L101.703 57.6816L101.714 50.6641L126.633 50.7014L126.623 57.7189L118.1 57.7069L118.067 79.5822L110.193 79.5689L110.226 57.6936Z" fill="#E71D72"/>
<path d="M135.981 50.5117L143.571 50.5237L155.623 79.6397L147.18 79.6279L145.119 74.4634L134.16 74.4474L132.123 79.6039L123.844 79.5919L135.981 50.5117ZM142.855 68.2289L139.701 60.0111L136.483 68.2196L142.855 68.2289Z" fill="#E71D72"/>
<path d="M158.862 50.752L166.737 50.764L166.704 72.6393L180.462 72.6606L180.45 79.6768L158.82 79.6435L158.862 50.752Z" fill="#E71D72"/>
<path d="M176.468 6.85665H183.653V14.1626L190.395 21.0178V0H169.727L176.468 6.85665Z" fill="#E71D72"/>
</svg>
