<svg width="137" height="163" viewBox="0 0 137 163" fill="none" xmlns="http://www.w3.org/2000/svg">
<path d="M49.2626 7.66126H42.1875V0H58.9582V36.1929H49.2626V7.66126Z" fill="#E71D72"/>
<path d="M0.523438 63.4038C0.523438 52.8365 8.64675 45.4395 18.8664 45.4395C25.1554 45.4395 30.1342 47.8171 33.0167 52.044L31.4444 53.1007C28.824 49.4022 24.6313 47.2887 18.8664 47.2887C9.69492 47.2887 2.88182 54.1574 2.88182 63.1396C2.88182 72.386 9.69492 78.9905 18.8664 78.9905C24.3693 78.9905 29.0861 76.6129 31.7065 72.6501L33.2787 73.7069C30.1342 78.198 24.8934 80.5756 18.6044 80.5756C8.64675 81.104 0.523438 73.9711 0.523438 63.4038Z" fill="#E71D72"/>
<path d="M41.1406 45.9668H61.842V47.8161H43.237V66.3088H60.0077V68.158H43.237V78.9895H62.6281V80.8388H41.1406V45.9668Z" fill="#E71D72"/>
<path d="M92.7609 80.8388H90.1405L82.8033 70.7999C81.4931 71.064 79.9208 71.3282 78.3486 71.3282H73.3698V80.8388H71.2734V45.9668H78.3486C88.0441 45.9668 92.4989 51.5146 92.4989 58.6475C92.4989 63.667 90.1405 68.158 84.8996 70.2715L92.7609 80.8388ZM78.0865 69.479C86.996 69.479 90.4025 64.4595 90.4025 58.6475C90.4025 52.8355 87.258 47.8161 78.0865 47.8161H73.3698V69.479H78.0865Z" fill="#E71D72"/>
<path d="M99.5781 63.4038C99.5781 52.8365 107.701 45.4395 117.921 45.4395C128.141 45.4395 136.264 52.5724 136.264 63.4038C136.264 73.9711 128.141 81.3681 117.921 81.3681C107.701 81.3681 99.5781 73.9711 99.5781 63.4038ZM133.644 63.4038C133.644 54.1574 126.831 47.5529 117.659 47.5529C108.488 47.5529 101.674 54.4216 101.674 63.4038C101.674 72.6501 108.488 79.2547 117.659 79.2547C126.831 79.2547 133.644 72.386 133.644 63.4038Z" fill="#E71D72"/>
<path d="M2.35938 113.862V90.6138H4.45571V113.598C4.45571 120.202 8.38635 123.901 14.4133 123.901C20.1783 123.901 24.3709 120.202 24.3709 113.598V90.3496H26.4673V113.598C26.4673 121.523 21.2264 125.486 14.4133 125.486C7.60022 125.75 2.35938 121.787 2.35938 113.862Z" fill="#E71D72"/>
<path d="M40.3519 96.9547C39.5657 96.1621 38.7796 94.577 38.7796 94.577C38.7796 94.577 39.0416 96.1621 39.0416 97.2188V125.486H36.9453V90.0859H37.4694L60.2671 119.146C61.0532 119.938 61.8393 121.524 61.8393 121.524C61.8393 121.524 61.5773 119.938 61.5773 118.882V90.6143H63.6736V126.015H63.1496L40.3519 96.9547Z" fill="#E71D72"/>
<path d="M72.0625 108.05C72.0625 97.483 80.1858 90.0859 90.4055 90.0859C100.363 90.0859 108.748 97.2188 108.748 108.05C108.748 118.618 100.625 126.015 90.4055 126.015C80.1858 125.75 72.0625 118.618 72.0625 108.05ZM106.39 108.05C106.39 98.8039 99.577 92.1994 90.4055 92.1994C81.234 92.1994 74.4209 99.0681 74.4209 108.05C74.4209 117.297 81.234 123.901 90.4055 123.901C99.577 123.901 106.39 117.032 106.39 108.05Z" fill="#E71D72"/>
<path d="M123.158 94.5762H124.468L113.986 123.108H112.414L123.158 94.5762Z" fill="#E71D72"/>
<path d="M18.6061 21.6627C20.4404 21.6627 22.2747 20.0776 22.2747 17.9642C22.2747 16.1149 20.7024 14.2656 18.6061 14.2656C16.7718 14.2656 14.9375 15.8507 14.9375 17.9642C15.1995 20.0776 16.7718 21.6627 18.6061 21.6627Z" fill="#E71D72"/>
<path d="M24.1094 18.2283V35.4001C31.4466 33.0224 36.6874 26.1537 36.6874 17.9641C36.6874 17.1715 36.6874 16.379 36.4254 15.3223H26.7298C25.1575 15.5864 24.1094 16.6432 24.1094 18.2283Z" fill="#E71D72"/>
<path d="M13.1051 17.9648V0.792969C6.02991 3.1706 0.789062 10.0393 0.789062 17.9648C0.789062 18.7573 0.789062 19.5499 1.0511 20.6066H10.7467C12.0569 20.6066 13.1051 19.5499 13.1051 17.9648Z" fill="#E71D72"/>
<path d="M18.6048 12.6807H35.6376C33.5412 5.28363 26.7281 0 18.6048 0C17.8187 0 17.0325 0 15.9844 0.264181V10.0389C16.2464 11.3598 17.2946 12.6807 18.6048 12.6807Z" fill="#E71D72"/>
<path d="M18.6031 23.5117H1.57031C3.92869 30.9088 10.7418 36.1924 18.6031 36.1924C19.3892 36.1924 20.1753 36.1924 21.2235 35.9283V26.1535C21.2235 24.8326 19.9133 23.5117 18.6031 23.5117Z" fill="#E71D72"/>
<path d="M95.1221 144.242H94.3359V149.262H95.1221C97.2184 149.262 98.0045 148.469 98.0045 146.62C98.2666 145.035 97.2184 144.242 95.1221 144.242Z" fill="#E71D72"/>
<path d="M108.751 144.242C106.393 144.242 104.82 146.091 104.82 148.469C104.82 150.847 106.393 152.696 108.751 152.696C111.109 152.696 112.682 150.847 112.682 148.469C112.682 146.091 111.109 144.242 108.751 144.242Z" fill="#E71D72"/>
<path d="M11.5325 144.242H10.4844V152.432H11.5325C14.153 152.432 15.7252 151.111 15.7252 148.469C15.7252 145.827 14.153 144.242 11.5325 144.242Z" fill="#E71D72"/>
<path d="M0 163H124.47V134.469H0V163ZM11.5299 154.547H8.12331V142.13H11.7919C15.7225 142.13 18.343 144.508 18.343 148.47C18.343 152.433 15.4605 154.547 11.5299 154.547ZM28.8247 154.547H20.4393V142.13H28.5626V144.243H22.7977V148.206H27.7765V150.584H22.7977V152.433H28.8247V154.547ZM38.7823 154.547H30.921V142.13H33.2794V152.433H38.7823V154.547ZM56.3391 152.169C55.2909 154.018 53.4566 154.811 51.0983 154.811C47.4297 154.811 44.8092 152.169 44.8092 148.47C44.8092 144.772 47.4297 142.13 51.0983 142.13C53.1946 142.13 55.0289 142.923 56.0771 144.508L56.3391 144.772L54.5048 146.093L54.2428 145.829C53.4566 144.772 52.4085 144.243 51.0983 144.243C48.7399 144.243 47.1676 146.093 47.1676 148.47C47.1676 150.848 48.7399 152.697 51.0983 152.697C52.4085 152.697 53.4566 152.169 54.2428 150.848L54.5048 150.584L56.3391 152.169ZM66.5588 154.547H58.1734V142.13H66.2967V144.243H60.5318V148.206H65.5106V150.584H60.5318V152.433H66.5588V154.547ZM78.8748 154.811H78.3507L71.7996 147.678C71.5376 147.414 71.5376 147.149 71.2755 147.149C71.2755 147.414 71.2755 147.678 71.2755 147.942V154.811H68.9171V142.13H69.4412L75.9923 149.263C76.2543 149.527 76.2543 149.527 76.5164 149.791C76.5164 149.527 76.5164 149.263 76.5164 148.999V142.13H78.8748V154.811ZM90.1426 144.243H86.736V154.547H84.3776V144.243H80.9711V142.13H90.4046V144.243H90.1426ZM98.2659 154.547L96.1696 151.376C95.9075 151.376 95.6455 151.376 95.3834 151.376H94.5973V154.547H92.2389V142.13H95.3834C98.79 142.13 100.886 143.979 100.886 146.885C100.886 148.735 100.1 150.055 98.5279 150.848L101.148 154.811H98.2659V154.547ZM108.748 154.811C105.079 154.811 102.459 152.169 102.459 148.47C102.459 144.772 105.079 142.13 108.748 142.13C112.416 142.13 115.037 144.772 115.037 148.47C115.037 152.169 112.416 154.811 108.748 154.811Z" fill="#E71D72"/>
</svg>
