<svg width="193" height="46" viewBox="0 0 193 46" fill="none" xmlns="http://www.w3.org/2000/svg">
<g clip-path="url(#clip0_2694_1396)">
<path d="M32.5674 17.2974L30.6608 17.8777C29.0437 12.1955 26.2149 8.94772 21.3072 8.94772H14.8982C14.4912 14.2507 14.3752 19.5715 14.5508 24.8868L18.8244 24.6552C21.7125 24.6552 22.9242 22.5096 23.6177 19.379H25.2347V32.5403H23.6177C22.9284 29.3525 21.7125 27.2082 18.8244 27.0338L14.5508 26.9753C14.5508 31.6712 14.6087 35.6723 14.8982 38.1068C15.1877 41.5861 16.1114 43.1473 18.5942 43.4988L20.9033 43.7304V45.2371H0V43.7372L1.73146 43.5056C4.15637 43.1582 5.13929 41.5984 5.42741 38.1136C5.94741 29.9477 5.94741 21.7577 5.42741 13.5919C5.13929 9.99806 4.15775 8.55128 1.73146 8.25702L0 7.96685V6.39746H32.5095L32.5674 17.2974Z" fill="black"/>
<path d="M77.3173 25.1852C73.5635 22.6336 69.5215 23.7357 68.7123 25.1852C68.3837 30.1281 68.4035 35.0875 68.7716 40.0277C68.9439 42.3436 69.5794 43.334 71.3109 43.507L73.6214 43.7386V45.2453H56.4141V43.7386L57.7416 43.507C59.4152 43.334 59.9942 42.3477 60.11 40.0277C60.5718 34.7035 60.5718 29.35 60.11 24.0259C59.9942 21.5315 59.4207 20.6051 57.7416 20.3735L56.4141 20.1991V19.1556L68.7123 16.7198L68.5455 23.2167C71.4322 16.4909 77.1491 15.679 80.2633 17.4759L77.3173 25.1852Z" fill="black"/>
<path d="M127.554 27.9086C127.726 24.0818 126.976 18.5726 123.916 18.5726C120.799 18.5726 119.066 23.7344 119.008 28.1402L127.554 27.9086ZM124.667 16.7171C132.347 16.7171 136.043 22.5152 136.099 30.1115H118.835C118.778 36.8372 122.242 41.9391 128.709 41.9391C130.956 42.0067 133.151 41.2655 134.886 39.8534L135.694 40.7798C134.393 42.4516 132.711 43.7958 130.785 44.7028C128.858 45.6098 126.742 46.0539 124.609 45.9988C116.178 45.9988 110.346 40.025 110.346 31.6182C110.346 24.0233 115.141 16.7171 124.667 16.7171ZM99.7795 30.8062C99.6058 24.7766 97.469 20.0235 93.3691 20.0235C92.3791 20.0356 91.4002 20.2321 90.4838 20.6025C90.4838 30.2272 90.5982 41.1271 90.8284 43.7373C91.5025 43.9396 92.2043 44.0375 92.9087 44.0275C96.8914 44.0275 99.7795 38.2281 99.7795 30.813M108.327 30.3499C108.327 39.8588 102.494 46.0042 92.6206 46.0042C89.1336 45.954 85.6642 45.5061 82.2813 44.6692C82.5708 40.8424 82.5708 17.1858 82.2813 12.7228C81.9932 10.4069 81.3576 9.30069 79.6261 9.0691L78.4709 8.9533V7.90432L90.6534 5.58838C90.5955 7.55965 90.481 12.7215 90.481 18.8029C92.5422 17.6544 94.8699 17.055 97.236 17.0632C103.588 17.0632 108.324 22.6296 108.324 30.3417M36.9539 31.3839C36.9539 38.457 38.8011 44.255 42.555 44.255C46.5969 44.255 47.7522 38.5742 47.7522 31.3839C47.7522 24.1935 45.96 18.5699 42.1511 18.5699C38.1091 18.5699 36.9539 24.0791 36.9539 31.3839ZM56.4703 31.2694C56.4703 39.3875 51.2731 45.9974 41.976 45.9974C32.854 45.9974 28.2344 39.7308 28.2344 31.5024C28.2344 23.4429 33.4316 16.7158 42.7273 16.7158C51.8507 16.7158 56.4703 23.0369 56.4703 31.2694Z" fill="black"/>
<path d="M157.691 25.358L156.247 25.7667C154.868 20.8964 152.551 18.8093 149.259 18.8093C148.722 18.7887 148.187 18.8811 147.689 19.0803C147.191 19.2795 146.741 19.5811 146.37 19.9649C145.999 20.3488 145.715 20.8062 145.536 21.3069C145.358 21.8076 145.289 22.34 145.334 22.869C145.334 25.2449 147.239 26.5228 152.378 28.6671C157.114 30.4653 159.077 32.6668 159.077 36.4936C159.077 42.3515 154.631 46.0039 147.298 46.0039C143.968 45.9908 140.665 45.4016 137.539 44.2629L137.25 36.1475L138.629 35.8574C140.707 41.4224 143.364 43.5095 146.828 43.5095C147.423 43.5443 148.018 43.4569 148.577 43.2529C149.135 43.0489 149.645 42.7327 150.074 42.3242C150.502 41.9157 150.84 41.4238 151.067 40.8796C151.294 40.3354 151.404 39.7507 151.39 39.1623C151.39 36.9581 150.177 35.683 145.501 33.9419C141.055 32.4366 137.994 30.4639 137.994 25.5923C137.994 20.7806 142.094 16.7209 149.081 16.7209C151.91 16.6467 154.723 17.1605 157.339 18.229L157.691 25.358Z" fill="black"/>
<path d="M145.503 8.86469C145.503 8.79953 145.517 8.7351 145.543 8.67532C145.569 8.61554 145.607 8.56166 145.655 8.51694C145.703 8.47222 145.76 8.4376 145.822 8.41518C145.884 8.39276 145.95 8.38301 146.016 8.38651C146.082 8.38282 146.148 8.39243 146.21 8.41476C146.272 8.43709 146.329 8.47168 146.377 8.51642C146.425 8.56116 146.463 8.61511 146.489 8.67499C146.516 8.73486 146.53 8.79941 146.53 8.86469C146.529 8.92957 146.515 8.99361 146.488 9.05294C146.462 9.11226 146.423 9.16564 146.375 9.20983C146.327 9.25403 146.27 9.28812 146.209 9.31005C146.147 9.33198 146.081 9.34129 146.016 9.33741C145.95 9.3411 145.885 9.33165 145.823 9.30963C145.761 9.28761 145.705 9.25349 145.657 9.20931C145.609 9.16514 145.571 9.11183 145.544 9.0526C145.518 8.99337 145.504 8.92945 145.503 8.86469ZM145.212 12.5348L145.363 12.4939C145.555 12.4421 145.58 12.4135 145.58 12.1656V10.3796C145.58 10.1316 145.55 10.1153 145.387 10.0049L145.195 9.87825V9.76382L146.472 9.62759L146.531 9.66709C146.519 9.84556 146.508 10.0526 146.508 10.3305V12.1751C146.508 12.434 146.531 12.4571 146.724 12.5034L146.876 12.5443V12.6996H145.213L145.212 12.5348Z" fill="black"/>
<path d="M147.049 12.5401L147.201 12.4993C147.392 12.4475 147.416 12.4189 147.416 12.1709V10.3795C147.416 10.1316 147.387 10.1138 147.223 10.0049L147.031 9.87816V9.75964L148.261 9.62341L148.324 9.66292L148.313 10.0321H148.335C148.656 9.78422 149.048 9.64137 149.455 9.62341C149.56 9.6111 149.666 9.62276 149.766 9.6575C149.865 9.69224 149.955 9.74913 150.029 9.82378C150.103 9.89842 150.158 9.98883 150.191 10.088C150.224 10.1872 150.233 10.2925 150.219 10.3958V12.1669C150.219 12.4202 150.242 12.4489 150.428 12.4952L150.58 12.536V12.6913H148.953V12.536L149.091 12.502C149.266 12.4557 149.282 12.438 149.282 12.1682V10.6206C149.282 10.2691 149.154 10.1602 148.88 10.1602C148.697 10.1656 148.515 10.1907 148.338 10.2351V12.1709C148.338 12.4434 148.356 12.4584 148.53 12.5047L148.668 12.5388V12.6941H147.041L147.049 12.5401Z" fill="black"/>
<path d="M152.435 12.1888V11.2665L152.166 11.2883C151.869 11.3114 151.711 11.445 151.711 11.8591C151.711 12.2337 151.88 12.355 152.108 12.355C152.173 12.3601 152.237 12.3472 152.295 12.3178C152.353 12.2885 152.401 12.2438 152.435 12.1888ZM150.797 12.0035C150.797 11.4967 151.187 11.2719 151.846 11.1166L152.435 10.9722V10.4709C152.435 9.99272 152.341 9.84832 152.021 9.84832C151.846 9.84832 151.788 9.89464 151.776 10.0554C151.747 10.4191 151.624 10.5635 151.321 10.5635C151.064 10.5635 150.924 10.4273 150.924 10.2052C150.924 9.83742 151.402 9.62354 152.213 9.62354C152.942 9.62354 153.367 9.84696 153.367 10.4123V12.009C153.367 12.2215 153.39 12.3087 153.504 12.3659C153.592 12.4024 153.685 12.4218 153.78 12.4231V12.5593C153.581 12.6982 153.342 12.7691 153.099 12.761C152.761 12.761 152.556 12.6343 152.493 12.4095H152.464C152.369 12.5241 152.248 12.6154 152.112 12.6764C151.975 12.7374 151.826 12.7663 151.676 12.761C151.125 12.761 150.802 12.4885 150.802 12.0008" fill="black"/>
<path d="M127.309 11.1808H128.3L127.817 9.77488H127.786L127.309 11.1808ZM126.195 12.5349L126.341 12.4954C126.517 12.4437 126.569 12.3864 126.738 11.9137L127.91 8.7041H128.493L129.7 11.9301C129.858 12.3565 129.922 12.4546 130.09 12.5063L130.212 12.5349V12.6971H128.27V12.5349L128.434 12.4954C128.586 12.4559 128.644 12.3864 128.644 12.2652C128.626 12.1211 128.589 11.9799 128.533 11.8456L128.387 11.4369H127.228L127.09 11.8456C127.042 11.9716 127.012 12.1037 127.002 12.238C127.002 12.3987 127.072 12.445 127.253 12.4913L127.417 12.5309V12.693H126.198L126.195 12.5349Z" fill="black"/>
<path d="M131.651 12.1251C131.69 12.3717 131.756 12.4752 131.941 12.4943L132.185 12.5188V12.6782H130.359V12.5188L130.497 12.4943C130.674 12.4766 130.736 12.3717 130.748 12.1251V10.4276C130.736 10.1633 130.674 10.0639 130.497 10.0394L130.359 10.0217V9.91131L131.644 9.65247V10.3418C131.952 9.62931 132.558 9.54212 132.885 9.73285L132.572 10.5502C132.441 10.4423 132.276 10.3831 132.106 10.3831C131.936 10.3831 131.771 10.4423 131.64 10.5502L131.651 12.1251Z" fill="black"/>
<path d="M134.772 10.6157C134.772 10.0162 134.65 9.84459 134.382 9.84459C134.115 9.84459 133.992 10.0176 133.992 10.5693C133.992 11.1688 134.113 11.3309 134.382 11.3309C134.651 11.3309 134.772 11.1688 134.772 10.6157ZM135.35 13.0815C135.35 12.8281 135.198 12.7014 134.837 12.7014H133.858C133.783 12.744 133.721 12.8062 133.679 12.8811C133.637 12.956 133.617 13.0408 133.62 13.1264C133.62 13.467 133.824 13.6863 134.36 13.6863C135.036 13.6863 135.35 13.4561 135.35 13.0815ZM132.914 13.2381C132.914 12.9657 133.177 12.76 133.649 12.6564V12.636C133.511 12.6203 133.384 12.5552 133.291 12.453C133.199 12.3508 133.147 12.2186 133.147 12.0815C133.163 11.9412 133.212 11.8064 133.29 11.6881C133.368 11.5698 133.473 11.4713 133.596 11.4004V11.3772C133.455 11.3121 133.335 11.2077 133.252 11.0765C133.17 10.9454 133.127 10.7933 133.131 10.6388C133.131 9.98219 133.701 9.63071 134.384 9.63071C134.63 9.62543 134.874 9.67186 135.1 9.76694C135.279 9.59413 135.515 9.49188 135.765 9.47949C135.981 9.47949 136.132 9.58303 136.132 9.7901C136.132 9.96856 136.056 10.1184 135.846 10.1184C135.78 10.1235 135.714 10.1056 135.66 10.0678C135.606 10.03 135.567 9.97462 135.55 9.91135C135.498 9.80236 135.369 9.81326 135.229 9.88274V9.90045C135.351 9.96478 135.454 10.0601 135.527 10.1767C135.599 10.2933 135.639 10.427 135.642 10.5639C135.642 11.2205 135.072 11.5611 134.389 11.5611C134.185 11.5626 133.981 11.5294 133.788 11.463C133.714 11.5283 133.669 11.6189 133.66 11.7164C133.66 11.8309 133.741 11.9126 133.951 11.9126H134.971C135.522 11.9126 135.957 12.0856 135.957 12.6905C135.957 13.3539 135.391 13.9166 134.243 13.9166C133.38 13.9166 132.92 13.6686 132.92 13.2354" fill="black"/>
<path d="M137.153 10.8499L138.15 10.7981C138.15 10.1006 138.056 9.84448 137.707 9.84448C137.41 9.84448 137.177 10.1169 137.156 10.8471M136.235 11.1877C136.225 10.9854 136.257 10.7832 136.329 10.5935C136.401 10.4037 136.511 10.2305 136.653 10.0844C136.795 9.93822 136.966 9.82224 137.155 9.74351C137.343 9.66478 137.547 9.62497 137.752 9.62651C138.557 9.62651 139.057 10.0243 139.075 11.0665H137.145C137.163 12.0119 137.524 12.2708 138.124 12.2708C138.424 12.2702 138.719 12.1947 138.981 12.0514V12.2422C138.821 12.4084 138.629 12.5407 138.416 12.6308C138.202 12.721 137.973 12.7672 137.741 12.7666C137.53 12.7843 137.318 12.7549 137.12 12.6806C136.922 12.6063 136.744 12.489 136.598 12.3374C136.453 12.1858 136.343 12.0037 136.279 11.8047C136.214 11.6057 136.195 11.3948 136.224 11.1877" fill="black"/>
<path d="M139.307 12.5401L139.459 12.4993C139.65 12.4475 139.674 12.4189 139.674 12.1709V10.3795C139.674 10.1316 139.645 10.1138 139.481 10.0049L139.289 9.87816V9.75964L140.519 9.62341L140.584 9.66292L140.571 10.0321H140.595C140.916 9.78398 141.307 9.6411 141.714 9.62341C141.819 9.6111 141.925 9.62276 142.025 9.6575C142.124 9.69224 142.214 9.74913 142.288 9.82378C142.362 9.89842 142.418 9.98883 142.45 10.088C142.483 10.1872 142.493 10.2925 142.478 10.3958V12.1669C142.478 12.4202 142.501 12.4489 142.687 12.4952L142.837 12.536V12.6913H141.211V12.536L141.349 12.502C141.522 12.4557 141.54 12.438 141.54 12.1682V10.6206C141.54 10.2691 141.412 10.1602 141.138 10.1602C140.954 10.1656 140.772 10.1907 140.595 10.2351V12.1709C140.595 12.4434 140.612 12.4584 140.786 12.5047L140.924 12.5388V12.6941H139.297L139.307 12.5401Z" fill="black"/>
<path d="M143.321 11.9708V10.0459H142.953V9.90963C143.176 9.82902 143.379 9.70044 143.546 9.53318C143.713 9.36591 143.84 9.16413 143.918 8.94238H144.25V9.70801H145.025L144.951 10.0486H144.25V11.915C144.25 12.2024 144.337 12.3237 144.629 12.3237C144.769 12.3194 144.907 12.3021 145.043 12.2719V12.4326C144.792 12.6598 144.461 12.7818 144.121 12.7732C144.011 12.7906 143.898 12.7821 143.792 12.7484C143.686 12.7146 143.59 12.6566 143.511 12.579C143.432 12.5014 143.373 12.4065 143.338 12.302C143.304 12.1975 143.294 12.0863 143.312 11.9776" fill="black"/>
<path d="M177.802 15.3623H176.621L175.656 12.8105H171.797L170.889 15.3623H169.702L173.193 6.25977H174.298L177.802 15.3623ZM175.307 11.8521L173.879 7.97363C173.832 7.84668 173.786 7.64355 173.739 7.36426H173.714C173.672 7.6224 173.623 7.82552 173.568 7.97363L172.152 11.8521H175.307ZM185.673 15.3623H184.403L182.88 12.8105C182.74 12.5736 182.605 12.3726 182.474 12.2075C182.342 12.0382 182.207 11.9007 182.067 11.7949C181.932 11.6891 181.784 11.613 181.623 11.5664C181.466 11.5156 181.289 11.4902 181.09 11.4902H180.214V15.3623H179.147V6.25977H181.864C182.262 6.25977 182.628 6.31055 182.962 6.41211C183.301 6.50944 183.593 6.65967 183.838 6.86279C184.088 7.06592 184.283 7.31982 184.422 7.62451C184.562 7.92497 184.632 8.27832 184.632 8.68457C184.632 9.00195 184.583 9.29395 184.486 9.56055C184.393 9.82292 184.257 10.0578 184.08 10.2651C183.906 10.4725 183.694 10.6502 183.445 10.7983C183.199 10.9422 182.922 11.0544 182.613 11.1348V11.1602C182.766 11.2279 182.897 11.3062 183.007 11.395C183.121 11.4797 183.229 11.5812 183.331 11.6997C183.432 11.8182 183.532 11.9536 183.629 12.106C183.73 12.2541 183.843 12.4276 183.965 12.6265L185.673 15.3623ZM180.214 7.22461V10.5254H181.661C181.928 10.5254 182.173 10.4852 182.397 10.4048C182.626 10.3244 182.823 10.2101 182.988 10.062C183.153 9.90967 183.282 9.72559 183.375 9.50977C183.468 9.28971 183.515 9.04427 183.515 8.77344C183.515 8.28678 183.356 7.90804 183.039 7.63721C182.725 7.36214 182.271 7.22461 181.674 7.22461H180.214Z" fill="black"/>
</g>
<defs>
<clipPath id="clip0_2694_1396">
<rect width="193" height="46" fill="white"/>
</clipPath>
</defs>
</svg>
