<svg width="237" height="32" viewBox="0 0 237 32" fill="none" xmlns="http://www.w3.org/2000/svg">
<g clip-path="url(#clip0_2694_1381)">
<path d="M0 31.0969V28.9961H3.84804V2.73124H0V0.640137H15.3874V2.73124H11.1487V29.0025H12.054C17.1096 29.0025 21.143 27.2072 21.143 20.2761V18.9639H23.0457V31.0839L0 31.0969Z" fill="#006998"/>
<path d="M52.6234 29.2771L41.182 0.959961H38.3007L28.4516 26.698C28.1556 27.5309 27.6835 28.2229 27.0967 28.6839C26.5099 29.145 25.8353 29.3539 25.1607 29.2836H24.3828V31.3844H33.6193V29.2836H31.949C30.98 29.2836 30.1383 29.122 30.1383 27.6999C30.1721 27.2372 30.2889 26.7931 30.4783 26.4071L31.7956 22.8858H41.784L44.2911 29.2755H40.6024V31.3763H55.8234V29.2755H52.6246L52.6234 29.2771ZM32.5947 20.8109L36.6222 10.4685H36.9503L40.9837 20.8109H32.5947Z" fill="#006998"/>
<path d="M70.5156 31.0964V28.9956H71.6299C72.9685 28.9956 74.2267 28.5221 74.2267 25.888V6.13404C74.1615 5.15646 73.8191 4.25277 73.2731 3.61661C72.727 2.98045 72.0206 2.66245 71.3053 2.73075H70.649V0.639648H81.7646L94.0205 18.6338H94.109V5.1903C94.109 3.53067 93.068 2.73237 91.1581 2.73237H90.0037V0.639648H99.5034V2.73075H98.5709C96.6044 2.73075 95.797 3.97022 95.797 5.05456V31.0964H92.623L75.9784 6.57036H75.8911V26.1239C75.8911 28.5883 76.8484 29.0069 79.2528 29.0069H79.9964V31.1077L70.5156 31.0964Z" fill="#006998"/>
<path d="M127.277 29.2771L115.852 0.959961H112.96L103.102 26.698C102.809 27.5329 102.337 28.2267 101.75 28.6882C101.163 29.1496 100.488 29.3572 99.8127 29.2836H99.0312V31.3844H108.298V29.2836H106.594C105.634 29.2836 104.795 29.122 104.795 27.6999C104.831 27.2392 104.946 26.7964 105.129 26.4071L106.455 22.8988H116.457L118.943 29.2884H115.256V31.3892H130.471V29.2884H127.277V29.2771ZM107.266 20.8109L111.279 10.4685H111.624L115.637 20.8109H107.266Z" fill="#006998"/>
<path d="M154.28 0.820927V11.6239H152.392C151.683 7.22675 149.769 2.07656 145.132 2.07656C139.332 2.07817 138.135 8.35471 138.135 16.0501C138.135 23.4401 139.212 29.7958 144.991 29.7958C149.506 29.7958 152.555 25.8334 152.555 20.423H154.542C154.542 27.8566 150.21 32.0032 144.605 32.0032C137.424 31.9968 130.125 24.9268 130.125 16.0501C130.125 7.30593 137.186 0 144.018 0C149.102 0 150.891 2.57267 151.826 2.57267C152.761 2.57267 152.988 1.74528 153.024 0.822543H154.278L154.28 0.820927Z" fill="#006998"/>
<path d="M158.102 31.0969V28.9961H161.953V2.73124H158.102V0.640137H173.109V2.73124H169.241V29.0025H173.109V31.1033L158.102 31.0969Z" fill="#006998"/>
<path d="M190.509 0C183.426 0 176.258 7.0102 176.258 15.9984C176.258 24.9866 183.426 31.9968 190.509 31.9968C197.552 31.9968 204.845 25.0027 204.845 15.9984C204.845 6.99404 197.552 0 190.509 0ZM190.54 29.9299C184.93 29.9299 184.196 23.0506 184.196 16.0032C184.196 8.91708 184.955 2.07656 190.54 2.07656C196.17 2.07656 196.896 8.86375 196.896 16.0032C196.898 23.0975 196.172 29.9299 190.54 29.9299Z" fill="#006998"/>
<path d="M207.094 31.0964V28.9956H208.214C209.545 28.9956 210.803 28.5221 210.803 25.888V6.13404C210.735 5.1546 210.391 4.25011 209.842 3.61407C209.294 2.97804 208.586 2.66099 207.869 2.73075H207.212V0.639648H218.326L230.573 18.6338H230.682V5.1903C230.682 3.53067 229.643 2.73237 227.732 2.73237H226.57V0.639648H236.077V2.73075H235.132C233.18 2.73075 232.349 3.97022 232.349 5.05456V31.0964H229.18L212.532 6.57036H212.453V26.1239C212.453 28.5883 213.397 29.0069 215.813 29.0069H216.56V31.1077L207.094 31.0964Z" fill="#006998"/>
</g>
<defs>
<clipPath id="clip0_2694_1381">
<rect width="236.076" height="32" fill="white"/>
</clipPath>
</defs>
</svg>
