<?xml version="1.0" encoding="utf-8"?>
<!-- Generator: Adobe Illustrator 24.2.1, SVG Export Plug-In . SVG Version: 6.00 Build 0)  -->
<svg version="1.1" id="Layer_1" xmlns="http://www.w3.org/2000/svg" xmlns:xlink="http://www.w3.org/1999/xlink" x="0px" y="0px"
	 viewBox="0 0 105.3 30.8" style="enable-background:new 0 0 105.3 30.8;" xml:space="preserve">
<style type="text/css">
	.st0{fill:#282319;}
	.st1{display:none;}
	.st2{display:inline;fill:#2E270E;}
	.st3{display:inline;fill:none;stroke:#D1BEAC;stroke-width:1.1861;}
	.st4{display:inline;fill:#E2D4BA;}
	.st5{display:inline;}
	.st6{fill:#2E270E;}
	.st7{fill:none;stroke:#D1BEAC;stroke-width:1.1861;}
	.st8{fill:#E2D4BA;}
	.st9{fill:#FFFFFF;}
	.st10{font-family:'Gotham-Bold';}
	.st11{font-size:9.1066px;}
	.st12{font-family:'Gotham-Book';}
</style>
<path class="st0" d="M99.8,28.8H27.4c-2.3,0-4.1-1.9-4.1-4.1V6.7c0-2.3,1.9-4.1,4.1-4.1h72.4c2.3,0,4.1,1.9,4.1,4.1v17.9
	C104,26.9,102.1,28.8,99.8,28.8z"/>
<g id="sanatorio" class="st1">
	<path class="st2" d="M14.4,2.6c7.1,0,12.9,5.8,12.9,12.9s-5.8,12.9-12.9,12.9c-7.1,0-12.9-5.8-12.9-12.9S7.3,2.6,14.4,2.6"/>
	<ellipse transform="matrix(0.7071 -0.7071 0.7071 0.7071 -6.7539 14.7199)" class="st3" cx="14.4" cy="15.5" rx="12.9" ry="12.9"/>
	<path class="st4" d="M14.4,9.8c3.1,0,5.7,2.5,5.7,5.7c0,3.1-2.5,5.7-5.7,5.7c-3.1,0-5.7-2.5-5.7-5.7C8.7,12.4,11.3,9.8,14.4,9.8"/>
	<g class="st5">
		<path class="st6" d="M35.4,12.2l0.8-1c0.6,0.5,1.2,0.8,1.9,0.8c0.6,0,0.9-0.2,0.9-0.6v0c0-0.4-0.2-0.5-1.3-0.8
			c-1.3-0.3-2.1-0.7-2.1-1.9v0c0-1.2,0.9-1.9,2.2-1.9c0.9,0,1.7,0.3,2.4,0.8l-0.7,1.1c-0.6-0.4-1.1-0.6-1.7-0.6S37,8.1,37,8.4v0
			c0,0.4,0.3,0.6,1.4,0.8c1.3,0.3,2,0.8,2,1.9v0c0,1.3-1,2-2.3,2C37.1,13.2,36.1,12.9,35.4,12.2z"/>
		<path class="st6" d="M40.7,11.7L40.7,11.7c0-1.1,0.8-1.6,2-1.6c0.5,0,0.8,0.1,1.2,0.2v-0.1c0-0.6-0.4-0.9-1-0.9
			c-0.5,0-0.9,0.1-1.3,0.3l-0.3-1.1c0.5-0.2,1.1-0.4,1.9-0.4c0.8,0,1.3,0.2,1.6,0.5c0.4,0.4,0.5,0.9,0.5,1.6v2.8h-1.3v-0.5
			c-0.3,0.4-0.8,0.6-1.5,0.6C41.4,13.2,40.7,12.7,40.7,11.7z M43.8,11.4v-0.2c-0.2-0.1-0.5-0.2-0.9-0.2c-0.6,0-1,0.2-1,0.7v0
			c0,0.4,0.3,0.6,0.8,0.6C43.4,12.2,43.8,11.9,43.8,11.4z"/>
		<path class="st6" d="M45.8,8.2h1.4v0.7c0.3-0.4,0.7-0.8,1.4-0.8c1,0,1.7,0.7,1.7,1.8v3.2h-1.4v-2.7c0-0.7-0.3-1-0.8-1
			c-0.5,0-0.9,0.3-0.9,1v2.7h-1.4V8.2z"/>
		<path class="st6" d="M50.6,11.7L50.6,11.7c0-1.1,0.8-1.6,2-1.6c0.5,0,0.8,0.1,1.2,0.2v-0.1c0-0.6-0.4-0.9-1-0.9
			c-0.5,0-0.9,0.1-1.3,0.3l-0.3-1.1c0.5-0.2,1.1-0.4,1.9-0.4c0.8,0,1.3,0.2,1.6,0.5c0.4,0.4,0.5,0.9,0.5,1.6v2.8h-1.3v-0.5
			c-0.3,0.4-0.8,0.6-1.5,0.6C51.4,13.2,50.6,12.7,50.6,11.7z M53.8,11.4v-0.2c-0.2-0.1-0.5-0.2-0.9-0.2c-0.6,0-1,0.2-1,0.7v0
			c0,0.4,0.3,0.6,0.8,0.6C53.4,12.2,53.8,11.9,53.8,11.4z"/>
		<path class="st6" d="M56,11.7V9.4h-0.6V8.2H56V7h1.4v1.2h1.1v1.2h-1.1v2.1c0,0.3,0.1,0.5,0.4,0.5c0.3,0,0.5-0.1,0.7-0.2v1.1
			c-0.3,0.2-0.6,0.3-1.1,0.3C56.6,13.2,56,12.8,56,11.7z"/>
		<path class="st6" d="M58.8,10.7L58.8,10.7c0-1.4,1.1-2.6,2.7-2.6c1.5,0,2.6,1.1,2.6,2.5v0c0,1.4-1.1,2.5-2.7,2.5
			C59.9,13.2,58.8,12.1,58.8,10.7z M62.7,10.7L62.7,10.7c0-0.7-0.5-1.4-1.3-1.4c-0.8,0-1.3,0.6-1.3,1.3v0c0,0.7,0.5,1.3,1.3,1.3
			C62.2,12,62.7,11.4,62.7,10.7z"/>
		<path class="st6" d="M64.5,8.2h1.4v1c0.3-0.7,0.7-1.1,1.6-1.1v1.4h-0.1c-0.9,0-1.5,0.6-1.5,1.7v1.8h-1.4V8.2z"/>
		<path class="st6" d="M67.8,6.4h1.5v1.2h-1.5V6.4z M67.9,8.2h1.4v4.9h-1.4V8.2z"/>
		<path class="st6" d="M69.8,10.7L69.8,10.7c0-1.4,1.1-2.6,2.7-2.6c1.5,0,2.6,1.1,2.6,2.5v0c0,1.4-1.1,2.5-2.7,2.5
			C70.9,13.2,69.8,12.1,69.8,10.7z M73.7,10.7L73.7,10.7c0-0.7-0.5-1.4-1.3-1.4c-0.8,0-1.3,0.6-1.3,1.3v0c0,0.7,0.5,1.3,1.3,1.3
			C73.2,12,73.7,11.4,73.7,10.7z"/>
	</g>
	<g class="st5">
		<path class="st6" d="M35.9,17.1h0.7l2.3,3.5l2.3-3.5H42v6.4h-0.7v-5.2L39,21.7h0l-2.3-3.4v5.2h-0.7V17.1z"/>
		<path class="st6" d="M45.3,22.9c0.6,0,1.1-0.3,1.5-0.7l0.4,0.4c-0.5,0.5-1,0.9-1.9,0.9c-1.3,0-2.3-1-2.3-2.5c0-1.4,1-2.5,2.3-2.5
			c1.4,0,2.2,1.1,2.2,2.5c0,0.1,0,0.1,0,0.2h-3.7C43.7,22.4,44.4,22.9,45.3,22.9z M46.6,20.8c-0.1-0.9-0.6-1.6-1.5-1.6
			c-0.8,0-1.4,0.7-1.5,1.6H46.6z M45.7,16.7l0.7,0.3l-1,1h-0.5L45.7,16.7z"/>
		<path class="st6" d="M47.8,21.1L47.8,21.1c0-1.6,1.1-2.5,2.2-2.5c0.9,0,1.4,0.5,1.8,1v-2.8h0.7v6.6h-0.7v-0.9
			c-0.4,0.6-0.9,1-1.8,1C48.9,23.5,47.8,22.7,47.8,21.1z M51.8,21.1L51.8,21.1c0-1.1-0.8-1.8-1.7-1.8c-0.9,0-1.7,0.7-1.7,1.8v0
			c0,1.1,0.8,1.8,1.7,1.8C51,22.9,51.8,22.2,51.8,21.1z"/>
		<path class="st6" d="M53.6,16.9h0.8v0.8h-0.8V16.9z M53.6,18.7h0.7v4.7h-0.7V18.7z"/>
		<path class="st6" d="M55.1,21.1L55.1,21.1c0-1.3,1-2.5,2.4-2.5c0.9,0,1.4,0.4,1.9,0.8L58.9,20c-0.4-0.4-0.8-0.7-1.4-0.7
			c-1,0-1.7,0.8-1.7,1.8v0c0,1,0.7,1.8,1.7,1.8c0.6,0,1.1-0.3,1.4-0.7l0.4,0.4c-0.5,0.5-1,0.9-1.9,0.9
			C56.1,23.6,55.1,22.4,55.1,21.1z"/>
		<path class="st6" d="M59.6,21.1L59.6,21.1c0-1.3,1-2.5,2.5-2.5c1.4,0,2.5,1.1,2.5,2.4v0c0,1.3-1,2.5-2.5,2.5
			C60.7,23.6,59.6,22.4,59.6,21.1z M63.8,21.1L63.8,21.1c0-1-0.8-1.9-1.7-1.9c-1,0-1.7,0.8-1.7,1.8v0c0,1,0.7,1.8,1.7,1.8
			C63.1,22.9,63.8,22.1,63.8,21.1z"/>
		<path class="st6" d="M67.6,17.1h0.7v6.4h-0.7V17.1z"/>
		<path class="st6" d="M69.6,18.7h0.7v0.8c0.3-0.5,0.8-0.9,1.6-0.9c1.1,0,1.8,0.8,1.8,1.9v2.9H73v-2.8c0-0.9-0.5-1.4-1.3-1.4
			c-0.8,0-1.4,0.6-1.4,1.5v2.7h-0.7V18.7z"/>
		<path class="st6" d="M74.9,22.2v-2.8h-0.7v-0.6h0.7v-1.4h0.7v1.4h1.5v0.6h-1.5v2.8c0,0.6,0.3,0.8,0.8,0.8c0.2,0,0.4,0,0.7-0.2v0.6
			c-0.2,0.1-0.5,0.2-0.8,0.2C75.5,23.5,74.9,23.2,74.9,22.2z"/>
		<path class="st6" d="M79.7,22.9c0.6,0,1.1-0.3,1.5-0.7l0.4,0.4c-0.5,0.5-1,0.9-1.9,0.9c-1.3,0-2.4-1-2.4-2.5c0-1.4,1-2.5,2.3-2.5
			c1.4,0,2.2,1.1,2.2,2.5c0,0.1,0,0.1,0,0.2h-3.7C78.2,22.4,78.9,22.9,79.7,22.9z M81.1,20.8c-0.1-0.9-0.6-1.6-1.5-1.6
			c-0.8,0-1.4,0.7-1.5,1.6H81.1z"/>
		<path class="st6" d="M82.4,24.3l0.3-0.5c0.5,0.4,1.1,0.6,1.8,0.6c1,0,1.7-0.6,1.7-1.7v-0.6c-0.4,0.5-1,1-1.8,1
			c-1.1,0-2.2-0.8-2.2-2.2v0c0-1.4,1.1-2.2,2.2-2.2c0.9,0,1.5,0.4,1.8,0.9v-0.8H87v3.9c0,0.7-0.2,1.3-0.6,1.7
			c-0.4,0.4-1,0.6-1.8,0.6C83.8,24.9,83.1,24.7,82.4,24.3z M86.3,20.9L86.3,20.9c0-1-0.8-1.6-1.7-1.6s-1.6,0.6-1.6,1.6v0
			c0,0.9,0.8,1.6,1.6,1.6C85.5,22.5,86.3,21.8,86.3,20.9z"/>
		<path class="st6" d="M88,18.7h0.7V20c0.3-0.8,1-1.3,1.9-1.3v0.8h-0.1c-1,0-1.9,0.7-1.9,2.2v1.9H88V18.7z"/>
		<path class="st6" d="M90.6,22.1L90.6,22.1c0-1,0.8-1.6,2-1.6c0.6,0,1,0.1,1.4,0.2v-0.1c0-0.8-0.5-1.3-1.4-1.3
			c-0.6,0-1,0.1-1.4,0.3L91,19.1c0.5-0.2,1-0.4,1.7-0.4c0.7,0,1.2,0.2,1.5,0.5c0.3,0.3,0.5,0.8,0.5,1.4v2.9H94v-0.7
			c-0.3,0.4-0.9,0.8-1.7,0.8C91.4,23.5,90.6,23,90.6,22.1z M94,21.7v-0.4c-0.3-0.1-0.8-0.2-1.4-0.2c-0.9,0-1.4,0.4-1.4,0.9v0
			c0,0.6,0.5,0.9,1.2,0.9C93.3,23,94,22.5,94,21.7z"/>
		<path class="st6" d="M95.7,16.8h0.7v6.6h-0.7V16.8z"/>
	</g>
</g>
<g id="Universidad" class="st1">
	<path class="st2" d="M14.4,2.6c7.1,0,12.9,5.8,12.9,12.9s-5.8,12.9-12.9,12.9c-7.1,0-12.9-5.8-12.9-12.9S7.3,2.6,14.4,2.6"/>
	<ellipse transform="matrix(0.7071 -0.7071 0.7071 0.7071 -6.7539 14.7199)" class="st3" cx="14.4" cy="15.5" rx="12.9" ry="12.9"/>
	<path class="st4" d="M14.4,9.8c3.1,0,5.7,2.5,5.7,5.7c0,3.1-2.5,5.7-5.7,5.7c-3.1,0-5.7-2.5-5.7-5.7C8.7,12.4,11.3,9.8,14.4,9.8"/>
	<g class="st5">
		<path class="st6" d="M35.7,10.4V6.7h1.4v3.6c0,1,0.5,1.6,1.4,1.6s1.4-0.5,1.4-1.5V6.7h1.4v3.6c0,1.9-1.1,2.9-2.8,2.9
			C36.8,13.2,35.7,12.2,35.7,10.4z"/>
		<path class="st6" d="M42,8.2h1.4v0.7c0.3-0.4,0.7-0.8,1.4-0.8c1,0,1.7,0.7,1.7,1.8v3.2h-1.4v-2.7c0-0.7-0.3-1-0.8-1
			s-0.9,0.3-0.9,1v2.7H42V8.2z"/>
		<path class="st6" d="M47.2,6.4h1.5v1.2h-1.5V6.4z M47.2,8.2h1.4v4.9h-1.4V8.2z"/>
		<path class="st6" d="M48.9,8.2h1.5l1.1,3.3l1.1-3.3H54l-1.9,4.9h-1.3L48.9,8.2z"/>
		<path class="st6" d="M54,10.7L54,10.7c0-1.4,1-2.6,2.4-2.6c1.6,0,2.4,1.3,2.4,2.7c0,0.1,0,0.2,0,0.4h-3.4c0.1,0.6,0.6,1,1.2,1
			c0.5,0,0.8-0.1,1.2-0.5l0.8,0.7c-0.5,0.6-1.1,0.9-2,0.9C55.1,13.2,54,12.2,54,10.7z M57.5,10.3c-0.1-0.6-0.4-1-1-1
			c-0.6,0-0.9,0.4-1.1,1H57.5z"/>
		<path class="st6" d="M59.3,8.2h1.4v1c0.3-0.7,0.7-1.1,1.6-1.1v1.4h-0.1c-0.9,0-1.5,0.6-1.5,1.7v1.8h-1.4V8.2z"/>
		<path class="st6" d="M62.2,12.5l0.6-0.9c0.5,0.4,1.1,0.6,1.5,0.6c0.4,0,0.6-0.1,0.6-0.4v0c0-0.3-0.5-0.4-1-0.6
			c-0.7-0.2-1.5-0.5-1.5-1.5v0c0-1,0.8-1.5,1.8-1.5c0.6,0,1.3,0.2,1.8,0.6l-0.5,1c-0.5-0.3-1-0.5-1.3-0.5c-0.3,0-0.5,0.1-0.5,0.3v0
			c0,0.3,0.5,0.4,1,0.6c0.7,0.2,1.5,0.6,1.5,1.4v0c0,1.1-0.8,1.6-1.9,1.6C63.6,13.2,62.9,13,62.2,12.5z"/>
		<path class="st6" d="M66.7,6.4h1.5v1.2h-1.5V6.4z M66.7,8.2h1.4v4.9h-1.4V8.2z"/>
		<path class="st6" d="M68.6,10.7L68.6,10.7c0-1.6,1.1-2.5,2.2-2.5c0.7,0,1.2,0.3,1.5,0.7V6.4h1.4v6.6h-1.4v-0.7
			c-0.3,0.5-0.8,0.8-1.5,0.8C69.7,13.2,68.6,12.3,68.6,10.7z M72.4,10.7L72.4,10.7c0-0.8-0.5-1.4-1.2-1.4c-0.6,0-1.2,0.5-1.2,1.3v0
			c0,0.8,0.5,1.3,1.2,1.3C71.8,12,72.4,11.5,72.4,10.7z"/>
		<path class="st6" d="M74.2,11.7L74.2,11.7c0-1.1,0.8-1.6,2-1.6c0.5,0,0.8,0.1,1.2,0.2v-0.1c0-0.6-0.4-0.9-1-0.9
			c-0.5,0-0.9,0.1-1.3,0.3l-0.3-1.1c0.5-0.2,1.1-0.4,1.9-0.4c0.8,0,1.3,0.2,1.6,0.5c0.4,0.4,0.5,0.9,0.5,1.6v2.8h-1.3v-0.5
			c-0.3,0.4-0.8,0.6-1.5,0.6C74.9,13.2,74.2,12.7,74.2,11.7z M77.3,11.4v-0.2c-0.2-0.1-0.5-0.2-0.9-0.2c-0.6,0-1,0.2-1,0.7v0
			c0,0.4,0.3,0.6,0.8,0.6C76.9,12.2,77.3,11.9,77.3,11.4z"/>
		<path class="st6" d="M79.1,10.7L79.1,10.7c0-1.6,1.1-2.5,2.2-2.5c0.7,0,1.2,0.3,1.5,0.7V6.4h1.4v6.6h-1.4v-0.7
			c-0.3,0.5-0.8,0.8-1.5,0.8C80.2,13.2,79.1,12.3,79.1,10.7z M82.8,10.7L82.8,10.7c0-0.8-0.5-1.4-1.2-1.4c-0.6,0-1.2,0.5-1.2,1.3v0
			c0,0.8,0.5,1.3,1.2,1.3C82.3,12,82.8,11.5,82.8,10.7z"/>
	</g>
	<g class="st5">
		<path class="st6" d="M35.7,20.3L35.7,20.3c0-1.8,1.3-3.3,3.2-3.3c1.2,0,1.8,0.4,2.5,1l-0.5,0.5c-0.5-0.5-1.1-0.9-2-0.9
			c-1.4,0-2.5,1.1-2.5,2.6v0c0,1.5,1.1,2.6,2.5,2.6c0.9,0,1.4-0.3,2.1-0.9l0.5,0.5c-0.7,0.7-1.4,1.1-2.6,1.1
			C37,23.6,35.7,22.1,35.7,20.3z"/>
		<path class="st6" d="M41.6,22.1L41.6,22.1c0-1,0.8-1.6,2-1.6c0.6,0,1,0.1,1.4,0.2v-0.1c0-0.8-0.5-1.3-1.4-1.3
			c-0.6,0-1,0.1-1.4,0.3l-0.2-0.6c0.5-0.2,1-0.4,1.7-0.4c0.7,0,1.2,0.2,1.5,0.5c0.3,0.3,0.5,0.8,0.5,1.4v2.9h-0.7v-0.7
			c-0.3,0.4-0.9,0.8-1.7,0.8C42.5,23.5,41.6,23,41.6,22.1z M45.1,21.7v-0.4c-0.3-0.1-0.8-0.2-1.4-0.2c-0.9,0-1.4,0.4-1.4,0.9v0
			c0,0.6,0.5,0.9,1.2,0.9C44.4,23,45.1,22.5,45.1,21.7z"/>
		<path class="st6" d="M46.9,22.2v-2.8h-0.7v-0.6h0.7v-1.4h0.7v1.4h1.5v0.6h-1.5v2.8c0,0.6,0.3,0.8,0.8,0.8c0.2,0,0.4,0,0.7-0.2v0.6
			c-0.2,0.1-0.5,0.2-0.8,0.2C47.5,23.5,46.9,23.2,46.9,22.2z"/>
		<path class="st6" d="M49.5,21.1L49.5,21.1c0-1.3,1-2.5,2.5-2.5c1.4,0,2.5,1.1,2.5,2.4v0c0,1.3-1,2.5-2.5,2.5
			C50.6,23.6,49.5,22.4,49.5,21.1z M53.7,21.1L53.7,21.1c0-1-0.8-1.9-1.7-1.9c-1,0-1.7,0.8-1.7,1.8v0c0,1,0.7,1.8,1.7,1.8
			C53,22.9,53.7,22.1,53.7,21.1z M52.6,16.7l0.7,0.3l-1,1h-0.5L52.6,16.7z"/>
		<path class="st6" d="M55.2,16.8h0.7v6.6h-0.7V16.8z"/>
		<path class="st6" d="M57,16.9h0.8v0.8H57V16.9z M57.1,18.7h0.7v4.7h-0.7V18.7z"/>
		<path class="st6" d="M58.6,21.1L58.6,21.1c0-1.3,1-2.5,2.4-2.5c0.9,0,1.4,0.4,1.9,0.8L62.4,20c-0.4-0.4-0.8-0.7-1.4-0.7
			c-1,0-1.7,0.8-1.7,1.8v0c0,1,0.7,1.8,1.7,1.8c0.6,0,1.1-0.3,1.4-0.7l0.4,0.4c-0.5,0.5-1,0.9-1.9,0.9
			C59.6,23.6,58.6,22.4,58.6,21.1z"/>
		<path class="st6" d="M63.2,22.1L63.2,22.1c0-1,0.8-1.6,2-1.6c0.6,0,1,0.1,1.4,0.2v-0.1c0-0.8-0.5-1.3-1.4-1.3
			c-0.6,0-1,0.1-1.4,0.3l-0.2-0.6c0.5-0.2,1-0.4,1.7-0.4c0.7,0,1.2,0.2,1.5,0.5c0.3,0.3,0.5,0.8,0.5,1.4v2.9h-0.7v-0.7
			c-0.3,0.4-0.9,0.8-1.7,0.8C64.1,23.5,63.2,23,63.2,22.1z M66.6,21.7v-0.4c-0.3-0.1-0.8-0.2-1.4-0.2c-0.9,0-1.4,0.4-1.4,0.9v0
			c0,0.6,0.5,0.9,1.2,0.9C65.9,23,66.6,22.5,66.6,21.7z"/>
		<path class="st6" d="M70.2,21.1L70.2,21.1c0-1.6,1.1-2.5,2.2-2.5c0.9,0,1.4,0.5,1.8,1v-2.8H75v6.6h-0.7v-0.9c-0.4,0.6-0.9,1-1.8,1
			C71.3,23.5,70.2,22.7,70.2,21.1z M74.3,21.1L74.3,21.1c0-1.1-0.8-1.8-1.7-1.8c-0.9,0-1.7,0.7-1.7,1.8v0c0,1.1,0.8,1.8,1.7,1.8
			C73.5,22.9,74.3,22.2,74.3,21.1z"/>
		<path class="st6" d="M78.1,22.9c0.6,0,1.1-0.3,1.5-0.7l0.4,0.4c-0.5,0.5-1,0.9-1.9,0.9c-1.3,0-2.4-1-2.4-2.5c0-1.4,1-2.5,2.3-2.5
			c1.4,0,2.2,1.1,2.2,2.5c0,0.1,0,0.1,0,0.2h-3.7C76.5,22.4,77.2,22.9,78.1,22.9z M79.4,20.8c-0.1-0.9-0.6-1.6-1.5-1.6
			c-0.8,0-1.4,0.7-1.5,1.6H79.4z"/>
		<path class="st6" d="M80.9,16.8h0.7v6.6h-0.7V16.8z"/>
		<path class="st6" d="M84.9,20.8v-3.7h0.7v3.7c0,1.4,0.7,2.2,1.9,2.2c1.2,0,1.9-0.7,1.9-2.1v-3.7h0.7v3.7c0,1.9-1.1,2.8-2.7,2.8
			C86,23.5,84.9,22.6,84.9,20.8z"/>
		<path class="st6" d="M91.3,18.7H92V20c0.3-0.8,1-1.3,1.9-1.3v0.8h-0.1c-1,0-1.9,0.7-1.9,2.2v1.9h-0.7V18.7z"/>
		<path class="st6" d="M94.3,21.7v-2.9H95v2.8c0,0.9,0.5,1.4,1.3,1.4c0.8,0,1.4-0.6,1.4-1.5v-2.7h0.7v4.7h-0.7v-0.8
			c-0.3,0.5-0.8,0.9-1.6,0.9C95,23.5,94.3,22.8,94.3,21.7z"/>
		<path class="st6" d="M99.4,24.3l0.3-0.5c0.5,0.4,1.1,0.6,1.8,0.6c1,0,1.7-0.6,1.7-1.7v-0.6c-0.4,0.5-1,1-1.8,1
			c-1.1,0-2.2-0.8-2.2-2.2v0c0-1.4,1.1-2.2,2.2-2.2c0.9,0,1.5,0.4,1.8,0.9v-0.8h0.7v3.9c0,0.7-0.2,1.3-0.6,1.7
			c-0.4,0.4-1,0.6-1.8,0.6C100.8,24.9,100.1,24.7,99.4,24.3z M103.3,20.9L103.3,20.9c0-1-0.8-1.6-1.7-1.6s-1.6,0.6-1.6,1.6v0
			c0,0.9,0.8,1.6,1.6,1.6C102.4,22.5,103.3,21.8,103.3,20.9z"/>
		<path class="st6" d="M104.9,21.7v-2.9h0.7v2.8c0,0.9,0.5,1.4,1.3,1.4c0.8,0,1.4-0.6,1.4-1.5v-2.7h0.7v4.7h-0.7v-0.8
			c-0.3,0.5-0.8,0.9-1.6,0.9C105.6,23.5,104.9,22.8,104.9,21.7z"/>
		<path class="st6" d="M109.7,22.1L109.7,22.1c0-1,0.8-1.6,2-1.6c0.6,0,1,0.1,1.4,0.2v-0.1c0-0.8-0.5-1.3-1.4-1.3
			c-0.6,0-1,0.1-1.4,0.3l-0.2-0.6c0.5-0.2,1-0.4,1.7-0.4c0.7,0,1.2,0.2,1.5,0.5c0.3,0.3,0.5,0.8,0.5,1.4v2.9h-0.7v-0.7
			c-0.3,0.4-0.9,0.8-1.7,0.8C110.6,23.5,109.7,23,109.7,22.1z M113.2,21.7v-0.4c-0.3-0.1-0.8-0.2-1.4-0.2c-0.9,0-1.4,0.4-1.4,0.9v0
			c0,0.6,0.5,0.9,1.2,0.9C112.5,23,113.2,22.5,113.2,21.7z"/>
		<path class="st6" d="M114.3,24.7l0.2-0.6c0.2,0.1,0.4,0.2,0.7,0.2c0.4,0,0.7-0.2,1-0.9l-2.1-4.7h0.8l1.7,3.9l1.5-3.9h0.7l-2,4.9
			c-0.4,1-0.9,1.3-1.6,1.3C114.9,24.9,114.6,24.8,114.3,24.7z"/>
	</g>
</g>
<g id="Hospital" class="st1">
	<path class="st2" d="M14.4,2.6c7.1,0,12.9,5.8,12.9,12.9s-5.8,12.9-12.9,12.9c-7.1,0-12.9-5.8-12.9-12.9S7.3,2.6,14.4,2.6"/>
	<ellipse transform="matrix(0.7071 -0.7071 0.7071 0.7071 -6.7539 14.7199)" class="st3" cx="14.4" cy="15.5" rx="12.9" ry="12.9"/>
	<path class="st4" d="M14.4,9.8c3.1,0,5.7,2.5,5.7,5.7c0,3.1-2.5,5.7-5.7,5.7c-3.1,0-5.7-2.5-5.7-5.7C8.7,12.4,11.3,9.8,14.4,9.8"/>
	<g class="st5">
		<path class="st6" d="M35.8,6.7h1.4v2.5h2.6V6.7h1.4v6.4h-1.4v-2.6h-2.6v2.6h-1.4V6.7z"/>
		<path class="st6" d="M41.8,10.7L41.8,10.7c0-1.4,1.1-2.6,2.7-2.6c1.5,0,2.6,1.1,2.6,2.5v0c0,1.4-1.1,2.5-2.7,2.5
			C42.9,13.2,41.8,12.1,41.8,10.7z M45.7,10.7L45.7,10.7c0-0.7-0.5-1.4-1.3-1.4c-0.8,0-1.3,0.6-1.3,1.3v0c0,0.7,0.5,1.3,1.3,1.3
			C45.2,12,45.7,11.4,45.7,10.7z"/>
		<path class="st6" d="M47.2,12.5l0.6-0.9c0.5,0.4,1.1,0.6,1.5,0.6c0.4,0,0.6-0.1,0.6-0.4v0c0-0.3-0.5-0.4-1-0.6
			c-0.7-0.2-1.5-0.5-1.5-1.5v0c0-1,0.8-1.5,1.8-1.5c0.6,0,1.3,0.2,1.8,0.6l-0.5,1c-0.5-0.3-1-0.5-1.3-0.5c-0.3,0-0.5,0.1-0.5,0.3v0
			c0,0.3,0.5,0.4,1,0.6c0.7,0.2,1.5,0.6,1.5,1.4v0c0,1.1-0.8,1.6-1.9,1.6C48.6,13.2,47.8,13,47.2,12.5z"/>
		<path class="st6" d="M51.6,8.2H53v0.7c0.3-0.5,0.8-0.8,1.5-0.8c1.1,0,2.2,0.9,2.2,2.5v0c0,1.6-1.1,2.5-2.2,2.5
			c-0.7,0-1.2-0.3-1.5-0.7v2.1h-1.4V8.2z M55.3,10.7L55.3,10.7c0-0.8-0.5-1.4-1.2-1.4S53,9.8,53,10.6v0c0,0.8,0.5,1.3,1.2,1.3
			S55.3,11.5,55.3,10.7z"/>
		<path class="st6" d="M57.2,6.4h1.5v1.2h-1.5V6.4z M57.3,8.2h1.4v4.9h-1.4V8.2z"/>
		<path class="st6" d="M59.6,11.7V9.4h-0.6V8.2h0.6V7H61v1.2h1.1v1.2H61v2.1c0,0.3,0.1,0.5,0.4,0.5c0.3,0,0.5-0.1,0.7-0.2v1.1
			c-0.3,0.2-0.6,0.3-1.1,0.3C60.2,13.2,59.6,12.8,59.6,11.7z"/>
		<path class="st6" d="M62.4,11.7L62.4,11.7c0-1.1,0.8-1.6,2-1.6c0.5,0,0.8,0.1,1.2,0.2v-0.1c0-0.6-0.4-0.9-1-0.9
			c-0.5,0-0.9,0.1-1.3,0.3l-0.3-1.1c0.5-0.2,1.1-0.4,1.9-0.4c0.8,0,1.3,0.2,1.6,0.5c0.4,0.4,0.5,0.9,0.5,1.6v2.8h-1.3v-0.5
			c-0.3,0.4-0.8,0.6-1.5,0.6C63.1,13.2,62.4,12.7,62.4,11.7z M65.5,11.4v-0.2c-0.2-0.1-0.5-0.2-0.9-0.2c-0.6,0-1,0.2-1,0.7v0
			c0,0.4,0.3,0.6,0.8,0.6C65.1,12.2,65.5,11.9,65.5,11.4z"/>
		<path class="st6" d="M67.6,6.4H69v6.6h-1.4V6.4z"/>
	</g>
	<g class="st5">
		<path class="st6" d="M35.5,21.1L35.5,21.1c0-1.6,1.1-2.5,2.2-2.5c0.9,0,1.4,0.5,1.8,1v-2.8h0.7v6.6h-0.7v-0.9
			c-0.4,0.6-0.9,1-1.8,1C36.7,23.5,35.5,22.7,35.5,21.1z M39.6,21.1L39.6,21.1c0-1.1-0.8-1.8-1.7-1.8c-0.9,0-1.7,0.7-1.7,1.8v0
			c0,1.1,0.8,1.8,1.7,1.8C38.8,22.9,39.6,22.2,39.6,21.1z"/>
		<path class="st6" d="M43.4,22.9c0.6,0,1.1-0.3,1.5-0.7l0.4,0.4c-0.5,0.5-1,0.9-1.9,0.9c-1.3,0-2.4-1-2.4-2.5c0-1.4,1-2.5,2.3-2.5
			c1.4,0,2.2,1.1,2.2,2.5c0,0.1,0,0.1,0,0.2h-3.7C41.9,22.4,42.6,22.9,43.4,22.9z M44.8,20.8c-0.1-0.9-0.6-1.6-1.5-1.6
			c-0.8,0-1.4,0.7-1.5,1.6H44.8z"/>
		<path class="st6" d="M48.2,20.3L48.2,20.3c0-1.8,1.3-3.3,3.2-3.3c1.2,0,1.8,0.4,2.5,1l-0.5,0.5c-0.5-0.5-1.1-0.9-2-0.9
			c-1.4,0-2.5,1.1-2.5,2.6v0c0,1.5,1.1,2.6,2.5,2.6c0.9,0,1.4-0.3,2.1-0.9l0.5,0.5c-0.7,0.7-1.4,1.1-2.6,1.1
			C49.6,23.6,48.2,22.1,48.2,20.3z"/>
		<path class="st6" d="M54.6,16.8h0.7v6.6h-0.7V16.8z"/>
		<path class="st6" d="M56.5,18.7h0.7v4.7h-0.7V18.7z M57.4,16.7l0.7,0.3l-1,1h-0.5L57.4,16.7z"/>
		<path class="st6" d="M58.3,18.7H59v0.8c0.3-0.5,0.8-0.9,1.6-0.9c1.1,0,1.8,0.8,1.8,1.9v2.9h-0.7v-2.8c0-0.9-0.5-1.4-1.3-1.4
			c-0.8,0-1.4,0.6-1.4,1.5v2.7h-0.7V18.7z"/>
		<path class="st6" d="M63.4,16.9h0.8v0.8h-0.8V16.9z M63.4,18.7h0.7v4.7h-0.7V18.7z"/>
		<path class="st6" d="M64.9,21.1L64.9,21.1c0-1.3,1-2.5,2.4-2.5c0.9,0,1.4,0.4,1.9,0.8L68.8,20c-0.4-0.4-0.8-0.7-1.4-0.7
			c-1,0-1.7,0.8-1.7,1.8v0c0,1,0.7,1.8,1.7,1.8c0.6,0,1.1-0.3,1.4-0.7l0.4,0.4c-0.5,0.5-1,0.9-1.9,0.9C66,23.6,64.9,22.4,64.9,21.1z
			"/>
		<path class="st6" d="M69.5,22.1L69.5,22.1c0-1,0.8-1.6,2-1.6c0.6,0,1,0.1,1.4,0.2v-0.1c0-0.8-0.5-1.3-1.4-1.3
			c-0.6,0-1,0.1-1.4,0.3l-0.2-0.6c0.5-0.2,1-0.4,1.7-0.4c0.7,0,1.2,0.2,1.5,0.5c0.3,0.3,0.5,0.8,0.5,1.4v2.9H73v-0.7
			c-0.3,0.4-0.9,0.8-1.7,0.8C70.4,23.5,69.5,23,69.5,22.1z M73,21.7v-0.4c-0.3-0.1-0.8-0.2-1.4-0.2c-0.9,0-1.4,0.4-1.4,0.9v0
			c0,0.6,0.5,0.9,1.2,0.9C72.3,23,73,22.5,73,21.7z"/>
		<path class="st6" d="M74.2,22.8l0.4-0.5c0.5,0.4,1.1,0.6,1.6,0.6c0.6,0,1-0.3,1-0.7v0c0-0.5-0.6-0.7-1.2-0.8
			c-0.7-0.2-1.6-0.5-1.6-1.3v0c0-0.8,0.7-1.3,1.6-1.3c0.6,0,1.2,0.2,1.7,0.5l-0.3,0.5c-0.4-0.3-0.9-0.5-1.4-0.5
			c-0.6,0-0.9,0.3-0.9,0.7v0c0,0.4,0.6,0.6,1.2,0.8c0.7,0.2,1.5,0.5,1.5,1.3v0c0,0.9-0.7,1.4-1.7,1.4C75.5,23.5,74.7,23.3,74.2,22.8
			z"/>
	</g>
</g>
<g id="Shopping" class="st1">
	<path class="st2" d="M14.4,2.6c7.1,0,12.9,5.8,12.9,12.9s-5.8,12.9-12.9,12.9c-7.1,0-12.9-5.8-12.9-12.9S7.3,2.6,14.4,2.6"/>
	<ellipse transform="matrix(0.7071 -0.7071 0.7071 0.7071 -6.7539 14.7199)" class="st3" cx="14.4" cy="15.5" rx="12.9" ry="12.9"/>
	<path class="st4" d="M14.4,9.8c3.1,0,5.7,2.5,5.7,5.7c0,3.1-2.5,5.7-5.7,5.7c-3.1,0-5.7-2.5-5.7-5.7C8.7,12.4,11.3,9.8,14.4,9.8"/>
	<g class="st5">
		<path class="st6" d="M35.4,12.2l0.8-1c0.6,0.5,1.2,0.8,1.9,0.8c0.6,0,0.9-0.2,0.9-0.6v0c0-0.4-0.2-0.5-1.3-0.8
			c-1.3-0.3-2.1-0.7-2.1-1.9v0c0-1.2,0.9-1.9,2.2-1.9c0.9,0,1.7,0.3,2.4,0.8l-0.7,1.1c-0.6-0.4-1.1-0.6-1.7-0.6S37,8.1,37,8.4v0
			c0,0.4,0.3,0.6,1.4,0.8c1.3,0.3,2,0.8,2,1.9v0c0,1.3-1,2-2.3,2C37.1,13.2,36.1,12.9,35.4,12.2z"/>
		<path class="st6" d="M40.9,6.4h1.4v2.5c0.3-0.4,0.7-0.8,1.4-0.8c1,0,1.7,0.7,1.7,1.8v3.2H44v-2.7c0-0.7-0.3-1-0.8-1
			c-0.5,0-0.9,0.3-0.9,1v2.7h-1.4V6.4z"/>
		<path class="st6" d="M45.8,10.7L45.8,10.7c0-1.4,1.1-2.6,2.7-2.6c1.5,0,2.6,1.1,2.6,2.5v0c0,1.4-1.1,2.5-2.7,2.5
			C47,13.2,45.8,12.1,45.8,10.7z M49.8,10.7L49.8,10.7c0-0.7-0.5-1.4-1.3-1.4c-0.8,0-1.3,0.6-1.3,1.3v0c0,0.7,0.5,1.3,1.3,1.3
			C49.3,12,49.8,11.4,49.8,10.7z"/>
		<path class="st6" d="M51.6,8.2H53v0.7c0.3-0.5,0.8-0.8,1.5-0.8c1.1,0,2.2,0.9,2.2,2.5v0c0,1.6-1.1,2.5-2.2,2.5
			c-0.7,0-1.2-0.3-1.5-0.7v2.1h-1.4V8.2z M55.3,10.7L55.3,10.7c0-0.8-0.5-1.4-1.2-1.4c-0.6,0-1.2,0.5-1.2,1.3v0
			c0,0.8,0.5,1.3,1.2,1.3C54.8,12,55.3,11.5,55.3,10.7z"/>
		<path class="st6" d="M57.2,8.2h1.4v0.7c0.3-0.5,0.8-0.8,1.5-0.8c1.1,0,2.2,0.9,2.2,2.5v0c0,1.6-1.1,2.5-2.2,2.5
			c-0.7,0-1.2-0.3-1.5-0.7v2.1h-1.4V8.2z M60.9,10.7L60.9,10.7c0-0.8-0.5-1.4-1.2-1.4c-0.6,0-1.2,0.5-1.2,1.3v0
			c0,0.8,0.5,1.3,1.2,1.3C60.4,12,60.9,11.5,60.9,10.7z"/>
		<path class="st6" d="M62.8,6.4h1.5v1.2h-1.5V6.4z M62.9,8.2h1.4v4.9h-1.4V8.2z"/>
		<path class="st6" d="M65,8.2h1.4v0.7c0.3-0.4,0.7-0.8,1.4-0.8c1,0,1.7,0.7,1.7,1.8v3.2h-1.4v-2.7c0-0.7-0.3-1-0.8-1
			c-0.5,0-0.9,0.3-0.9,1v2.7H65V8.2z"/>
		<path class="st6" d="M70.2,14.1l0.5-1c0.5,0.3,1,0.4,1.6,0.4c0.9,0,1.4-0.5,1.4-1.3v-0.2c-0.4,0.5-0.9,0.8-1.6,0.8
			c-1.1,0-2.2-0.8-2.2-2.3v0c0-1.5,1-2.3,2.2-2.3c0.8,0,1.2,0.3,1.6,0.7V8.2h1.4V12c0,0.9-0.2,1.5-0.6,1.9c-0.5,0.5-1.2,0.7-2.1,0.7
			C71.6,14.6,70.8,14.4,70.2,14.1z M73.7,10.4L73.7,10.4c0-0.7-0.5-1.1-1.2-1.1c-0.7,0-1.2,0.5-1.2,1.1v0c0,0.7,0.5,1.1,1.2,1.1
			C73.2,11.6,73.7,11.1,73.7,10.4z"/>
	</g>
	<g class="st5">
		<path class="st6" d="M37.6,17.7h-2.1v-0.7h5v0.7h-2.1v5.7h-0.7V17.7z"/>
		<path class="st6" d="M41.2,18.7h0.7V20c0.3-0.8,1-1.3,1.9-1.3v0.8h-0.1c-1,0-1.9,0.7-1.9,2.2v1.9h-0.7V18.7z"/>
		<path class="st6" d="M46.4,22.9c0.6,0,1.1-0.3,1.5-0.7l0.4,0.4c-0.5,0.5-1,0.9-1.9,0.9c-1.3,0-2.4-1-2.4-2.5c0-1.4,1-2.5,2.3-2.5
			c1.4,0,2.2,1.1,2.2,2.5c0,0.1,0,0.1,0,0.2h-3.7C44.9,22.4,45.6,22.9,46.4,22.9z M47.8,20.8c-0.1-0.9-0.6-1.6-1.5-1.6
			c-0.8,0-1.4,0.7-1.5,1.6H47.8z"/>
		<path class="st6" d="M48.8,22.8l0.4-0.5c0.5,0.4,1.1,0.6,1.6,0.6c0.6,0,1-0.3,1-0.7v0c0-0.5-0.6-0.7-1.2-0.8
			C49.8,21.1,49,20.9,49,20v0c0-0.8,0.7-1.3,1.6-1.3c0.6,0,1.2,0.2,1.7,0.5L52,19.7c-0.4-0.3-0.9-0.5-1.4-0.5
			c-0.6,0-0.9,0.3-0.9,0.7v0c0,0.4,0.6,0.6,1.2,0.8c0.7,0.2,1.5,0.5,1.5,1.3v0c0,0.9-0.7,1.4-1.7,1.4C50.1,23.5,49.3,23.3,48.8,22.8
			z"/>
		<path class="st6" d="M55.2,20.3L55.2,20.3c0-1.8,1.3-3.3,3.2-3.3c1.2,0,1.8,0.4,2.5,1l-0.5,0.5c-0.5-0.5-1.1-0.9-2-0.9
			c-1.4,0-2.5,1.1-2.5,2.6v0c0,1.5,1.1,2.6,2.5,2.6c0.9,0,1.4-0.3,2.1-0.9l0.5,0.5c-0.7,0.7-1.4,1.1-2.6,1.1
			C56.6,23.6,55.2,22.1,55.2,20.3z"/>
		<path class="st6" d="M61.6,18.7h0.7V20c0.3-0.8,1-1.3,1.9-1.3v0.8h-0.1c-1,0-1.9,0.7-1.9,2.2v1.9h-0.7V18.7z"/>
		<path class="st6" d="M64.6,21.7v-2.9h0.7v2.8c0,0.9,0.5,1.4,1.3,1.4c0.8,0,1.4-0.6,1.4-1.5v-2.7h0.7v4.7h-0.7v-0.8
			c-0.3,0.5-0.8,0.9-1.6,0.9C65.3,23.5,64.6,22.8,64.6,21.7z"/>
		<path class="st6" d="M69.5,21.1L69.5,21.1c0-1.3,1-2.5,2.4-2.5c0.9,0,1.4,0.4,1.9,0.8L73.3,20c-0.4-0.4-0.8-0.7-1.4-0.7
			c-1,0-1.7,0.8-1.7,1.8v0c0,1,0.7,1.8,1.7,1.8c0.6,0,1.1-0.3,1.4-0.7l0.4,0.4c-0.5,0.5-1,0.9-1.9,0.9
			C70.5,23.6,69.5,22.4,69.5,21.1z"/>
		<path class="st6" d="M76.5,22.9c0.6,0,1.1-0.3,1.5-0.7l0.4,0.4c-0.5,0.5-1,0.9-1.9,0.9c-1.3,0-2.4-1-2.4-2.5c0-1.4,1-2.5,2.3-2.5
			c1.4,0,2.2,1.1,2.2,2.5c0,0.1,0,0.1,0,0.2h-3.7C75,22.4,75.7,22.9,76.5,22.9z M77.9,20.8c-0.1-0.9-0.6-1.6-1.5-1.6
			c-0.8,0-1.4,0.7-1.5,1.6H77.9z"/>
		<path class="st6" d="M78.9,22.8l0.4-0.5c0.5,0.4,1.1,0.6,1.6,0.6c0.6,0,1-0.3,1-0.7v0c0-0.5-0.6-0.7-1.2-0.8
			c-0.7-0.2-1.6-0.5-1.6-1.3v0c0-0.8,0.7-1.3,1.6-1.3c0.6,0,1.2,0.2,1.7,0.5l-0.3,0.5c-0.4-0.3-0.9-0.5-1.4-0.5
			c-0.6,0-0.9,0.3-0.9,0.7v0c0,0.4,0.6,0.6,1.2,0.8c0.7,0.2,1.5,0.5,1.5,1.3v0c0,0.9-0.7,1.4-1.7,1.4C80.2,23.5,79.4,23.3,78.9,22.8
			z"/>
	</g>
</g>
<g id="Facultad">
	<path class="st6" d="M14.4,2.6c7.1,0,12.9,5.8,12.9,12.9s-5.8,12.9-12.9,12.9c-7.1,0-12.9-5.8-12.9-12.9S7.3,2.6,14.4,2.6"/>
	<ellipse transform="matrix(0.7071 -0.7071 0.7071 0.7071 -6.7539 14.7199)" class="st7" cx="14.4" cy="15.5" rx="12.9" ry="12.9"/>
	<path class="st8" d="M14.4,9.8c3.1,0,5.7,2.5,5.7,5.7c0,3.1-2.5,5.7-5.7,5.7c-3.1,0-5.7-2.5-5.7-5.7C8.7,12.4,11.3,9.8,14.4,9.8"/>
	<g>
		<path class="st9" d="M35.8,6.7h4.9V8h-3.5v1.4h3v1.3h-3v2.5h-1.4V6.7z"/>
		<path class="st9" d="M40.8,11.7L40.8,11.7c0-1.1,0.8-1.6,2-1.6c0.5,0,0.8,0.1,1.2,0.2v-0.1c0-0.6-0.4-0.9-1-0.9
			c-0.5,0-0.9,0.1-1.3,0.3l-0.3-1.1c0.5-0.2,1.1-0.4,1.9-0.4c0.8,0,1.3,0.2,1.6,0.5c0.4,0.4,0.5,0.9,0.5,1.6v2.8H44v-0.5
			c-0.3,0.4-0.8,0.6-1.5,0.6C41.6,13.2,40.8,12.7,40.8,11.7z M44,11.4v-0.2c-0.2-0.1-0.5-0.2-0.9-0.2c-0.6,0-1,0.2-1,0.7v0
			c0,0.4,0.3,0.6,0.8,0.6C43.5,12.2,44,11.9,44,11.4z"/>
		<path class="st9" d="M45.7,10.7L45.7,10.7c0-1.4,1.1-2.6,2.6-2.6c0.9,0,1.5,0.3,1.9,0.8l-0.8,0.9c-0.3-0.3-0.6-0.5-1.1-0.5
			c-0.7,0-1.2,0.6-1.2,1.3v0c0,0.7,0.5,1.3,1.2,1.3c0.5,0,0.8-0.2,1.1-0.5l0.8,0.8c-0.5,0.5-1,0.9-2,0.9
			C46.8,13.2,45.7,12.1,45.7,10.7z"/>
		<path class="st9" d="M50.6,11.4V8.2H52v2.7c0,0.7,0.3,1,0.8,1s0.9-0.3,0.9-1V8.2H55v4.9h-1.4v-0.7c-0.3,0.4-0.7,0.8-1.4,0.8
			C51.2,13.2,50.6,12.5,50.6,11.4z"/>
		<path class="st9" d="M55.8,6.4h1.4v6.6h-1.4V6.4z"/>
		<path class="st9" d="M58.2,11.7V9.4h-0.6V8.2h0.6V7h1.4v1.2h1.1v1.2h-1.1v2.1c0,0.3,0.1,0.5,0.4,0.5c0.3,0,0.5-0.1,0.7-0.2v1.1
			c-0.3,0.2-0.6,0.3-1.1,0.3C58.8,13.2,58.2,12.8,58.2,11.7z"/>
		<path class="st9" d="M60.9,11.7L60.9,11.7c0-1.1,0.8-1.6,2-1.6c0.5,0,0.8,0.1,1.2,0.2v-0.1c0-0.6-0.4-0.9-1-0.9
			c-0.5,0-0.9,0.1-1.3,0.3l-0.3-1.1c0.5-0.2,1.1-0.4,1.9-0.4c0.8,0,1.3,0.2,1.6,0.5c0.4,0.4,0.5,0.9,0.5,1.6v2.8h-1.3v-0.5
			c-0.3,0.4-0.8,0.6-1.5,0.6C61.7,13.2,60.9,12.7,60.9,11.7z M64.1,11.4v-0.2c-0.2-0.1-0.5-0.2-0.9-0.2c-0.6,0-1,0.2-1,0.7v0
			c0,0.4,0.3,0.6,0.8,0.6C63.7,12.2,64.1,11.9,64.1,11.4z"/>
		<path class="st9" d="M65.8,10.7L65.8,10.7c0-1.6,1.1-2.5,2.2-2.5c0.7,0,1.2,0.3,1.5,0.7V6.4H71v6.6h-1.4v-0.7
			c-0.3,0.5-0.8,0.8-1.5,0.8C66.9,13.2,65.8,12.3,65.8,10.7z M69.6,10.7L69.6,10.7c0-0.8-0.5-1.4-1.2-1.4c-0.6,0-1.2,0.5-1.2,1.3v0
			c0,0.8,0.5,1.3,1.2,1.3C69.1,12,69.6,11.5,69.6,10.7z"/>
	</g>
	<g>
		<path class="st9" d="M35.5,21.1L35.5,21.1c0-1.6,1.1-2.5,2.2-2.5c0.9,0,1.4,0.5,1.8,1v-2.8h0.7v6.6h-0.7v-0.9
			c-0.4,0.6-0.9,1-1.8,1C36.7,23.5,35.5,22.7,35.5,21.1z M39.6,21.1L39.6,21.1c0-1.1-0.8-1.8-1.7-1.8c-0.9,0-1.7,0.7-1.7,1.8v0
			c0,1.1,0.8,1.8,1.7,1.8C38.8,22.9,39.6,22.2,39.6,21.1z"/>
		<path class="st9" d="M43.4,22.9c0.6,0,1.1-0.3,1.5-0.7l0.4,0.4c-0.5,0.5-1,0.9-1.9,0.9c-1.3,0-2.4-1-2.4-2.5c0-1.4,1-2.5,2.3-2.5
			c1.4,0,2.2,1.1,2.2,2.5c0,0.1,0,0.1,0,0.2h-3.7C41.9,22.4,42.6,22.9,43.4,22.9z M44.8,20.8c-0.1-0.9-0.6-1.6-1.5-1.6
			c-0.8,0-1.4,0.7-1.5,1.6H44.8z"/>
		<path class="st9" d="M48.2,20.3L48.2,20.3c0-1.8,1.3-3.3,3.3-3.3s3.2,1.5,3.2,3.3v0c0,1.8-1.3,3.3-3.3,3.3S48.2,22,48.2,20.3z
			 M54,20.3L54,20.3c0-1.5-1.1-2.7-2.5-2.7S49,18.8,49,20.2v0c0,1.4,1.1,2.6,2.5,2.6S54,21.7,54,20.3z"/>
		<path class="st9" d="M55.3,21.1L55.3,21.1c0-1.6,1.1-2.5,2.2-2.5c0.9,0,1.4,0.5,1.8,1v-2.8h0.7v6.6h-0.7v-0.9
			c-0.4,0.6-0.9,1-1.8,1C56.4,23.5,55.3,22.7,55.3,21.1z M59.4,21.1L59.4,21.1c0-1.1-0.8-1.8-1.7-1.8c-0.9,0-1.7,0.7-1.7,1.8v0
			c0,1.1,0.8,1.8,1.7,1.8C58.6,22.9,59.4,22.2,59.4,21.1z"/>
		<path class="st9" d="M60.8,21.1L60.8,21.1c0-1.3,1-2.5,2.5-2.5c1.4,0,2.4,1.1,2.4,2.4v0c0,1.3-1,2.5-2.5,2.5
			C61.8,23.6,60.8,22.4,60.8,21.1z M65,21.1L65,21.1c0-1-0.8-1.9-1.8-1.9c-1,0-1.7,0.8-1.7,1.8v0c0,1,0.7,1.8,1.7,1.8
			C64.3,22.9,65,22.1,65,21.1z"/>
		<path class="st9" d="M66.4,18.7h0.7v0.8c0.3-0.5,0.8-0.9,1.6-0.9c1.1,0,1.8,0.8,1.8,1.9v2.9h-0.7v-2.8c0-0.9-0.5-1.4-1.3-1.4
			c-0.8,0-1.4,0.6-1.4,1.5v2.7h-0.7V18.7z"/>
		<path class="st9" d="M71.8,22.2v-2.8h-0.7v-0.6h0.7v-1.4h0.7v1.4H74v0.6h-1.5v2.8c0,0.6,0.3,0.8,0.8,0.8c0.2,0,0.4,0,0.7-0.2v0.6
			c-0.2,0.1-0.5,0.2-0.8,0.2C72.3,23.5,71.8,23.2,71.8,22.2z"/>
		<path class="st9" d="M74.4,21.1L74.4,21.1c0-1.3,1-2.5,2.5-2.5c1.4,0,2.5,1.1,2.5,2.4v0c0,1.3-1,2.5-2.5,2.5
			C75.4,23.6,74.4,22.4,74.4,21.1z M78.6,21.1L78.6,21.1c0-1-0.8-1.9-1.7-1.9c-1,0-1.7,0.8-1.7,1.8v0c0,1,0.7,1.8,1.7,1.8
			C77.8,22.9,78.6,22.1,78.6,21.1z"/>
		<path class="st9" d="M80.1,16.8h0.7v6.6h-0.7V16.8z"/>
		<path class="st9" d="M81.6,21.1L81.6,21.1c0-1.3,1-2.5,2.5-2.5c1.4,0,2.5,1.1,2.5,2.4v0c0,1.3-1,2.5-2.5,2.5
			C82.6,23.6,81.6,22.4,81.6,21.1z M85.8,21.1L85.8,21.1c0-1-0.8-1.9-1.7-1.9c-1,0-1.7,0.8-1.7,1.8v0c0,1,0.7,1.8,1.7,1.8
			C85,22.9,85.8,22.1,85.8,21.1z"/>
		<path class="st9" d="M87.1,24.3l0.3-0.5c0.5,0.4,1.1,0.6,1.8,0.6c1,0,1.7-0.6,1.7-1.7v-0.6c-0.4,0.5-1,1-1.8,1
			c-1.1,0-2.2-0.8-2.2-2.2v0c0-1.4,1.1-2.2,2.2-2.2c0.9,0,1.5,0.4,1.8,0.9v-0.8h0.7v3.9c0,0.7-0.2,1.3-0.6,1.7
			c-0.4,0.4-1,0.6-1.8,0.6C88.5,24.9,87.8,24.7,87.1,24.3z M91,20.9L91,20.9c0-1-0.8-1.6-1.7-1.6s-1.6,0.6-1.6,1.6v0
			c0,0.9,0.8,1.6,1.6,1.6C90.2,22.5,91,21.8,91,20.9z"/>
		<path class="st9" d="M92.8,18.7h0.7v4.7h-0.7V18.7z M93.7,16.7l0.7,0.3l-1,1h-0.5L93.7,16.7z"/>
		<path class="st9" d="M94.2,22.1L94.2,22.1c0-1,0.8-1.6,2-1.6c0.6,0,1,0.1,1.4,0.2v-0.1c0-0.8-0.5-1.3-1.4-1.3
			c-0.6,0-1,0.1-1.4,0.3l-0.2-0.6c0.5-0.2,1-0.4,1.7-0.4c0.7,0,1.2,0.2,1.5,0.5c0.3,0.3,0.5,0.8,0.5,1.4v2.9h-0.7v-0.7
			c-0.3,0.4-0.9,0.8-1.7,0.8C95.1,23.5,94.2,23,94.2,22.1z M97.7,21.7v-0.4c-0.3-0.1-0.8-0.2-1.4-0.2c-0.9,0-1.4,0.4-1.4,0.9v0
			c0,0.6,0.5,0.9,1.2,0.9C97,23,97.7,22.5,97.7,21.7z"/>
	</g>
</g>
<g id="Hospital_britanico" class="st1">
	<path class="st2" d="M14.4,2.6c7.1,0,12.9,5.8,12.9,12.9s-5.8,12.9-12.9,12.9c-7.1,0-12.9-5.8-12.9-12.9S7.3,2.6,14.4,2.6"/>
	<ellipse transform="matrix(0.7071 -0.7071 0.7071 0.7071 -6.7539 14.7199)" class="st3" cx="14.4" cy="15.5" rx="12.9" ry="12.9"/>
	<path class="st4" d="M14.4,9.8c3.1,0,5.7,2.5,5.7,5.7c0,3.1-2.5,5.7-5.7,5.7c-3.1,0-5.7-2.5-5.7-5.7C8.7,12.4,11.3,9.8,14.4,9.8"/>
	<text transform="matrix(1 0 0 1 35.0385 13.0991)" class="st2 st10 st11">Hospital</text>
	<text transform="matrix(1 0 0 1 35.0385 23.4448)" class="st2 st12 st11">Británico</text>
</g>
<g id="parque_batlle" class="st1">
	<path class="st2" d="M14.4,2.6c7.1,0,12.9,5.8,12.9,12.9s-5.8,12.9-12.9,12.9c-7.1,0-12.9-5.8-12.9-12.9S7.3,2.6,14.4,2.6"/>
	<ellipse transform="matrix(0.7071 -0.7071 0.7071 0.7071 -6.7539 14.7199)" class="st3" cx="14.4" cy="15.5" rx="12.9" ry="12.9"/>
	<path class="st4" d="M14.4,9.8c3.1,0,5.7,2.5,5.7,5.7c0,3.1-2.5,5.7-5.7,5.7c-3.1,0-5.7-2.5-5.7-5.7C8.7,12.4,11.3,9.8,14.4,9.8"/>
	<text transform="matrix(1 0 0 1 35.0385 18.7684)" class="st2 st10 st11">Parque Batlle</text>
</g>
<g id="estadio" class="st1">
	<path class="st2" d="M14.4,2.6c7.1,0,12.9,5.8,12.9,12.9s-5.8,12.9-12.9,12.9c-7.1,0-12.9-5.8-12.9-12.9S7.3,2.6,14.4,2.6"/>
	<ellipse transform="matrix(0.7071 -0.7071 0.7071 0.7071 -6.7539 14.7199)" class="st3" cx="14.4" cy="15.5" rx="12.9" ry="12.9"/>
	<path class="st4" d="M14.4,9.8c3.1,0,5.7,2.5,5.7,5.7c0,3.1-2.5,5.7-5.7,5.7c-3.1,0-5.7-2.5-5.7-5.7C8.7,12.4,11.3,9.8,14.4,9.8"/>
	<text transform="matrix(1 0 0 1 35.0385 13.0991)" class="st2 st10 st11">Estadio</text>
	<text transform="matrix(1 0 0 1 35.0385 23.4448)" class="st2 st12 st11">Centenario</text>
</g>
<g id="sanatorio_americano" class="st1">
	<path class="st2" d="M14.4,2.6c7.1,0,12.9,5.8,12.9,12.9s-5.8,12.9-12.9,12.9c-7.1,0-12.9-5.8-12.9-12.9S7.3,2.6,14.4,2.6"/>
	<ellipse transform="matrix(0.7071 -0.7071 0.7071 0.7071 -6.7539 14.7199)" class="st3" cx="14.4" cy="15.5" rx="12.9" ry="12.9"/>
	<path class="st4" d="M14.4,9.8c3.1,0,5.7,2.5,5.7,5.7c0,3.1-2.5,5.7-5.7,5.7c-3.1,0-5.7-2.5-5.7-5.7C8.7,12.4,11.3,9.8,14.4,9.8"/>
	<text transform="matrix(1 0 0 1 35.0385 13.0991)" class="st2 st10 st11">Sanatorio</text>
	<text transform="matrix(1 0 0 1 35.0385 23.4448)" class="st2 st12 st11">Americano</text>
</g>
</svg>
