<?xml version="1.0" encoding="utf-8"?>
<!-- Generator: Adobe Illustrator 24.2.1, SVG Export Plug-In . SVG Version: 6.00 Build 0)  -->
<svg version="1.1" id="Layer_1" xmlns="http://www.w3.org/2000/svg" xmlns:xlink="http://www.w3.org/1999/xlink" x="0px" y="0px"
	 viewBox="0 0 160.1 27.8" style="enable-background:new 0 0 160.1 27.8;" xml:space="preserve">
<style type="text/css">
	.st0{fill:#2E270E;}
</style>
<g>
	<path class="st0" d="M3.2,4h4.3l4.8,7.7L17,4h4.3v18.1h-4V10.3L12.3,18h-0.1l-5-7.7v11.7H3.2V4z"/>
	<path class="st0" d="M24.6,15.2L24.6,15.2c0-4,3.2-7.3,7.5-7.3c4.3,0,7.5,3.2,7.5,7.2v0.1c0,4-3.2,7.2-7.5,7.2
		C27.8,22.4,24.6,19.2,24.6,15.2z M35.7,15.2L35.7,15.2c0-2.1-1.5-3.9-3.6-3.9c-2.3,0-3.6,1.7-3.6,3.8v0.1c0,2,1.5,3.8,3.6,3.8
		C34.4,19,35.7,17.3,35.7,15.2z"/>
	<path class="st0" d="M42.4,8.2h3.9v2C47.3,9,48.4,8,50.4,8c3,0,4.7,2,4.7,5.2v9h-3.9v-7.7c0-1.9-0.9-2.8-2.4-2.8s-2.5,1-2.5,2.8
		v7.7h-3.9V8.2z"/>
	<path class="st0" d="M59.2,18.2v-6.6h-1.7V8.2h1.7V4.7h3.9v3.5h3.3v3.4h-3.3v5.9c0,0.9,0.4,1.3,1.3,1.3c0.7,0,1.4-0.2,1.9-0.5v3.2
		c-0.8,0.5-1.8,0.8-3.1,0.8C60.8,22.3,59.2,21.4,59.2,18.2z"/>
	<path class="st0" d="M68.6,15.2L68.6,15.2c0-4,2.8-7.3,6.9-7.3c4.6,0,6.8,3.6,6.8,7.5c0,0.3,0,0.7-0.1,1h-9.7
		c0.4,1.8,1.6,2.7,3.4,2.7c1.3,0,2.3-0.4,3.4-1.4l2.3,2c-1.3,1.6-3.2,2.6-5.7,2.6C71.7,22.4,68.6,19.5,68.6,15.2z M78.4,14.1
		c-0.2-1.8-1.3-3-2.9-3c-1.6,0-2.7,1.2-3,3H78.4z"/>
	<path class="st0" d="M83.9,8.2h4.2l3.1,9.3l3.1-9.3h4.1l-5.5,14h-3.6L83.9,8.2z"/>
	<path class="st0" d="M100.8,3.2h4.1v3.5h-4.1V3.2z M100.9,8.2h3.9v13.9h-3.9V8.2z"/>
	<path class="st0" d="M107.9,15.2L107.9,15.2c0-4.7,3-7.2,6.3-7.2c2.1,0,3.4,1,4.3,2.1V3.2h3.9v18.9h-3.9v-2c-1,1.3-2.3,2.3-4.3,2.3
		C111,22.4,107.9,19.8,107.9,15.2z M118.6,15.2L118.6,15.2c0-2.4-1.5-3.9-3.4-3.9c-1.8,0-3.4,1.5-3.4,3.8v0.1c0,2.3,1.6,3.8,3.4,3.8
		C117,19,118.6,17.5,118.6,15.2z"/>
	<path class="st0" d="M125.3,15.2L125.3,15.2c0-4,2.8-7.3,6.9-7.3c4.6,0,6.8,3.6,6.8,7.5c0,0.3,0,0.7-0.1,1h-9.7
		c0.4,1.8,1.6,2.7,3.4,2.7c1.3,0,2.3-0.4,3.4-1.4l2.3,2c-1.3,1.6-3.2,2.6-5.7,2.6C128.4,22.4,125.3,19.5,125.3,15.2z M135.1,14.1
		c-0.2-1.8-1.3-3-2.9-3c-1.6,0-2.7,1.2-3,3H135.1z"/>
	<path class="st0" d="M141.2,15.2L141.2,15.2c0-4,3.2-7.3,7.5-7.3c4.3,0,7.5,3.2,7.5,7.2v0.1c0,4-3.2,7.2-7.5,7.2
		C144.3,22.4,141.2,19.2,141.2,15.2z M152.3,15.2L152.3,15.2c0-2.1-1.5-3.9-3.6-3.9c-2.3,0-3.6,1.7-3.6,3.8v0.1c0,2,1.5,3.8,3.6,3.8
		C150.9,19,152.3,17.3,152.3,15.2z"/>
</g>
</svg>
