<?xml version="1.0" encoding="utf-8"?>
<!-- Generator: Adobe Illustrator 24.2.1, SVG Export Plug-In . SVG Version: 6.00 Build 0)  -->
<svg version="1.1" id="Layer_1" xmlns="http://www.w3.org/2000/svg" xmlns:xlink="http://www.w3.org/1999/xlink" x="0px" y="0px"
	 viewBox="0 0 103.7 30.8" style="enable-background:new 0 0 103.7 30.8;" xml:space="preserve">
<style type="text/css">
	.st0{fill:#282319;}
	.st1{fill:#2E270E;}
	.st2{fill:none;stroke:#D1BEAC;stroke-width:1.1861;}
	.st3{fill:#E2D4BA;}
	.st4{fill:#FFFFFF;}
	.st5{display:none;}
	.st6{display:inline;fill:#2E270E;}
	.st7{display:inline;fill:none;stroke:#D1BEAC;stroke-width:1.1861;}
	.st8{display:inline;fill:#E2D4BA;}
	.st9{font-family:'Gotham-Bold';}
	.st10{font-size:9.1066px;}
	.st11{display:inline;}
	.st12{font-family:'Gotham-Book';}
</style>
<path class="st0" d="M98.6,28.8H27.4c-2.3,0-4.1-1.9-4.1-4.1V6.7c0-2.3,1.9-4.1,4.1-4.1h71.2c2.3,0,4.1,1.9,4.1,4.1v17.9
	C102.7,26.9,100.9,28.8,98.6,28.8z"/>
<g id="sanatorio">
	<path class="st1" d="M14.4,2.6c7.1,0,12.9,5.8,12.9,12.9s-5.8,12.9-12.9,12.9c-7.1,0-12.9-5.8-12.9-12.9S7.3,2.6,14.4,2.6"/>
	<ellipse transform="matrix(0.7071 -0.7071 0.7071 0.7071 -6.7539 14.7199)" class="st2" cx="14.4" cy="15.5" rx="12.9" ry="12.9"/>
	<path class="st3" d="M14.4,9.8c3.1,0,5.7,2.5,5.7,5.7c0,3.1-2.5,5.7-5.7,5.7c-3.1,0-5.7-2.5-5.7-5.7C8.7,12.4,11.3,9.8,14.4,9.8"/>
	<g>
		<path class="st4" d="M35.4,12.2l0.8-1c0.6,0.5,1.2,0.8,1.9,0.8c0.6,0,0.9-0.2,0.9-0.6v0c0-0.4-0.2-0.5-1.3-0.8
			c-1.3-0.3-2.1-0.7-2.1-1.9v0c0-1.2,0.9-1.9,2.2-1.9c0.9,0,1.7,0.3,2.4,0.8l-0.7,1.1c-0.6-0.4-1.1-0.6-1.7-0.6S37,8.1,37,8.4v0
			c0,0.4,0.3,0.6,1.4,0.8c1.3,0.3,2,0.8,2,1.9v0c0,1.3-1,2-2.3,2C37.1,13.2,36.1,12.9,35.4,12.2z"/>
		<path class="st4" d="M40.7,11.7L40.7,11.7c0-1.1,0.8-1.6,2-1.6c0.5,0,0.8,0.1,1.2,0.2v-0.1c0-0.6-0.4-0.9-1-0.9
			c-0.5,0-0.9,0.1-1.3,0.3l-0.3-1.1c0.5-0.2,1.1-0.4,1.9-0.4c0.8,0,1.3,0.2,1.6,0.5c0.4,0.4,0.5,0.9,0.5,1.6v2.8h-1.3v-0.5
			c-0.3,0.4-0.8,0.6-1.5,0.6C41.4,13.2,40.7,12.7,40.7,11.7z M43.8,11.4v-0.2c-0.2-0.1-0.5-0.2-0.9-0.2c-0.6,0-1,0.2-1,0.7v0
			c0,0.4,0.3,0.6,0.8,0.6C43.4,12.2,43.8,11.9,43.8,11.4z"/>
		<path class="st4" d="M45.8,8.2h1.4v0.7c0.3-0.4,0.7-0.8,1.4-0.8c1,0,1.7,0.7,1.7,1.8v3.2h-1.4v-2.7c0-0.7-0.3-1-0.8-1
			c-0.5,0-0.9,0.3-0.9,1v2.7h-1.4V8.2z"/>
		<path class="st4" d="M50.6,11.7L50.6,11.7c0-1.1,0.8-1.6,2-1.6c0.5,0,0.8,0.1,1.2,0.2v-0.1c0-0.6-0.4-0.9-1-0.9
			c-0.5,0-0.9,0.1-1.3,0.3l-0.3-1.1c0.5-0.2,1.1-0.4,1.9-0.4c0.8,0,1.3,0.2,1.6,0.5c0.4,0.4,0.5,0.9,0.5,1.6v2.8h-1.3v-0.5
			c-0.3,0.4-0.8,0.6-1.5,0.6C51.4,13.2,50.6,12.7,50.6,11.7z M53.8,11.4v-0.2c-0.2-0.1-0.5-0.2-0.9-0.2c-0.6,0-1,0.2-1,0.7v0
			c0,0.4,0.3,0.6,0.8,0.6C53.4,12.2,53.8,11.9,53.8,11.4z"/>
		<path class="st4" d="M56,11.7V9.4h-0.6V8.2H56V7h1.4v1.2h1.1v1.2h-1.1v2.1c0,0.3,0.1,0.5,0.4,0.5c0.3,0,0.5-0.1,0.7-0.2v1.1
			c-0.3,0.2-0.6,0.3-1.1,0.3C56.6,13.2,56,12.8,56,11.7z"/>
		<path class="st4" d="M58.8,10.7L58.8,10.7c0-1.4,1.1-2.6,2.7-2.6c1.5,0,2.6,1.1,2.6,2.5v0c0,1.4-1.1,2.5-2.7,2.5
			C59.9,13.2,58.8,12.1,58.8,10.7z M62.7,10.7L62.7,10.7c0-0.7-0.5-1.4-1.3-1.4c-0.8,0-1.3,0.6-1.3,1.3v0c0,0.7,0.5,1.3,1.3,1.3
			C62.2,12,62.7,11.4,62.7,10.7z"/>
		<path class="st4" d="M64.5,8.2h1.4v1c0.3-0.7,0.7-1.1,1.6-1.1v1.4h-0.1c-0.9,0-1.5,0.6-1.5,1.7v1.8h-1.4V8.2z"/>
		<path class="st4" d="M67.8,6.4h1.5v1.2h-1.5V6.4z M67.9,8.2h1.4v4.9h-1.4V8.2z"/>
		<path class="st4" d="M69.8,10.7L69.8,10.7c0-1.4,1.1-2.6,2.7-2.6c1.5,0,2.6,1.1,2.6,2.5v0c0,1.4-1.1,2.5-2.7,2.5
			C70.9,13.2,69.8,12.1,69.8,10.7z M73.7,10.7L73.7,10.7c0-0.7-0.5-1.4-1.3-1.4c-0.8,0-1.3,0.6-1.3,1.3v0c0,0.7,0.5,1.3,1.3,1.3
			C73.2,12,73.7,11.4,73.7,10.7z"/>
	</g>
	<g>
		<path class="st4" d="M35.9,17.1h0.7l2.3,3.5l2.3-3.5H42v6.4h-0.7v-5.2L39,21.7h0l-2.3-3.4v5.2h-0.7V17.1z"/>
		<path class="st4" d="M45.3,22.9c0.6,0,1.1-0.3,1.5-0.7l0.4,0.4c-0.5,0.5-1,0.9-1.9,0.9c-1.3,0-2.3-1-2.3-2.5c0-1.4,1-2.5,2.3-2.5
			c1.4,0,2.2,1.1,2.2,2.5c0,0.1,0,0.1,0,0.2h-3.7C43.7,22.4,44.4,22.9,45.3,22.9z M46.6,20.8c-0.1-0.9-0.6-1.6-1.5-1.6
			c-0.8,0-1.4,0.7-1.5,1.6H46.6z M45.7,16.7l0.7,0.3l-1,1h-0.5L45.7,16.7z"/>
		<path class="st4" d="M47.8,21.1L47.8,21.1c0-1.6,1.1-2.5,2.2-2.5c0.9,0,1.4,0.5,1.8,1v-2.8h0.7v6.6h-0.7v-0.9
			c-0.4,0.6-0.9,1-1.8,1C48.9,23.5,47.8,22.7,47.8,21.1z M51.8,21.1L51.8,21.1c0-1.1-0.8-1.8-1.7-1.8c-0.9,0-1.7,0.7-1.7,1.8v0
			c0,1.1,0.8,1.8,1.7,1.8C51,22.9,51.8,22.2,51.8,21.1z"/>
		<path class="st4" d="M53.6,16.9h0.8v0.8h-0.8V16.9z M53.6,18.7h0.7v4.7h-0.7V18.7z"/>
		<path class="st4" d="M55.1,21.1L55.1,21.1c0-1.3,1-2.5,2.4-2.5c0.9,0,1.4,0.4,1.9,0.8L58.9,20c-0.4-0.4-0.8-0.7-1.4-0.7
			c-1,0-1.7,0.8-1.7,1.8v0c0,1,0.7,1.8,1.7,1.8c0.6,0,1.1-0.3,1.4-0.7l0.4,0.4c-0.5,0.5-1,0.9-1.9,0.9
			C56.1,23.6,55.1,22.4,55.1,21.1z"/>
		<path class="st4" d="M59.6,21.1L59.6,21.1c0-1.3,1-2.5,2.5-2.5c1.4,0,2.5,1.1,2.5,2.4v0c0,1.3-1,2.5-2.5,2.5
			C60.7,23.6,59.6,22.4,59.6,21.1z M63.8,21.1L63.8,21.1c0-1-0.8-1.9-1.7-1.9c-1,0-1.7,0.8-1.7,1.8v0c0,1,0.7,1.8,1.7,1.8
			C63.1,22.9,63.8,22.1,63.8,21.1z"/>
		<path class="st4" d="M67.6,17.1h0.7v6.4h-0.7V17.1z"/>
		<path class="st4" d="M69.6,18.7h0.7v0.8c0.3-0.5,0.8-0.9,1.6-0.9c1.1,0,1.8,0.8,1.8,1.9v2.9H73v-2.8c0-0.9-0.5-1.4-1.3-1.4
			c-0.8,0-1.4,0.6-1.4,1.5v2.7h-0.7V18.7z"/>
		<path class="st4" d="M74.9,22.2v-2.8h-0.7v-0.6h0.7v-1.4h0.7v1.4h1.5v0.6h-1.5v2.8c0,0.6,0.3,0.8,0.8,0.8c0.2,0,0.4,0,0.7-0.2v0.6
			c-0.2,0.1-0.5,0.2-0.8,0.2C75.5,23.5,74.9,23.2,74.9,22.2z"/>
		<path class="st4" d="M79.7,22.9c0.6,0,1.1-0.3,1.5-0.7l0.4,0.4c-0.5,0.5-1,0.9-1.9,0.9c-1.3,0-2.4-1-2.4-2.5c0-1.4,1-2.5,2.3-2.5
			c1.4,0,2.2,1.1,2.2,2.5c0,0.1,0,0.1,0,0.2h-3.7C78.2,22.4,78.9,22.9,79.7,22.9z M81.1,20.8c-0.1-0.9-0.6-1.6-1.5-1.6
			c-0.8,0-1.4,0.7-1.5,1.6H81.1z"/>
		<path class="st4" d="M82.4,24.3l0.3-0.5c0.5,0.4,1.1,0.6,1.8,0.6c1,0,1.7-0.6,1.7-1.7v-0.6c-0.4,0.5-1,1-1.8,1
			c-1.1,0-2.2-0.8-2.2-2.2v0c0-1.4,1.1-2.2,2.2-2.2c0.9,0,1.5,0.4,1.8,0.9v-0.8H87v3.9c0,0.7-0.2,1.3-0.6,1.7
			c-0.4,0.4-1,0.6-1.8,0.6C83.8,24.9,83.1,24.7,82.4,24.3z M86.3,20.9L86.3,20.9c0-1-0.8-1.6-1.7-1.6s-1.6,0.6-1.6,1.6v0
			c0,0.9,0.8,1.6,1.6,1.6C85.5,22.5,86.3,21.8,86.3,20.9z"/>
		<path class="st4" d="M88,18.7h0.7V20c0.3-0.8,1-1.3,1.9-1.3v0.8h-0.1c-1,0-1.9,0.7-1.9,2.2v1.9H88V18.7z"/>
		<path class="st4" d="M90.6,22.1L90.6,22.1c0-1,0.8-1.6,2-1.6c0.6,0,1,0.1,1.4,0.2v-0.1c0-0.8-0.5-1.3-1.4-1.3
			c-0.6,0-1,0.1-1.4,0.3L91,19.1c0.5-0.2,1-0.4,1.7-0.4c0.7,0,1.2,0.2,1.5,0.5c0.3,0.3,0.5,0.8,0.5,1.4v2.9H94v-0.7
			c-0.3,0.4-0.9,0.8-1.7,0.8C91.4,23.5,90.6,23,90.6,22.1z M94,21.7v-0.4c-0.3-0.1-0.8-0.2-1.4-0.2c-0.9,0-1.4,0.4-1.4,0.9v0
			c0,0.6,0.5,0.9,1.2,0.9C93.3,23,94,22.5,94,21.7z"/>
		<path class="st4" d="M95.7,16.8h0.7v6.6h-0.7V16.8z"/>
	</g>
</g>
<g id="Universidad" class="st5">
	<path class="st6" d="M14.4,2.6c7.1,0,12.9,5.8,12.9,12.9s-5.8,12.9-12.9,12.9c-7.1,0-12.9-5.8-12.9-12.9S7.3,2.6,14.4,2.6"/>
	<ellipse transform="matrix(0.7071 -0.7071 0.7071 0.7071 -6.7539 14.7199)" class="st7" cx="14.4" cy="15.5" rx="12.9" ry="12.9"/>
	<path class="st8" d="M14.4,9.8c3.1,0,5.7,2.5,5.7,5.7c0,3.1-2.5,5.7-5.7,5.7c-3.1,0-5.7-2.5-5.7-5.7C8.7,12.4,11.3,9.8,14.4,9.8"/>
	<text transform="matrix(1 0 0 1 35.0385 13.0991)" class="st6 st9 st10">Universidad</text>
	<text transform="matrix(1 0 0 1 35.0385 23.4448)" class="st11"><tspan x="0" y="0" class="st1 st12 st10">C</tspan><tspan x="6.2" y="0" class="st1 st12 st10">a</tspan><tspan x="10.9" y="0" class="st1 st12 st10">tóli</tspan><tspan x="23.1" y="0" class="st1 st12 st10">c</tspan><tspan x="27.7" y="0" class="st1 st12 st10">a del Ur</tspan><tspan x="58.6" y="0" class="st1 st12 st10">u</tspan><tspan x="63.7" y="0" class="st1 st12 st10">g</tspan><tspan x="69.2" y="0" class="st1 st12 st10">u</tspan><tspan x="74.2" y="0" class="st1 st12 st10">a</tspan><tspan x="78.8" y="0" class="st1 st12 st10">y</tspan></text>
</g>
<g id="Hospital" class="st5">
	<path class="st6" d="M14.4,2.6c7.1,0,12.9,5.8,12.9,12.9s-5.8,12.9-12.9,12.9c-7.1,0-12.9-5.8-12.9-12.9S7.3,2.6,14.4,2.6"/>
	<ellipse transform="matrix(0.7071 -0.7071 0.7071 0.7071 -6.7539 14.7199)" class="st7" cx="14.4" cy="15.5" rx="12.9" ry="12.9"/>
	<path class="st8" d="M14.4,9.8c3.1,0,5.7,2.5,5.7,5.7c0,3.1-2.5,5.7-5.7,5.7c-3.1,0-5.7-2.5-5.7-5.7C8.7,12.4,11.3,9.8,14.4,9.8"/>
	<text transform="matrix(1 0 0 1 35.0385 13.0991)" class="st6 st9 st10">Hospital</text>
	<text transform="matrix(1 0 0 1 35.0385 23.4448)" class="st6 st12 st10">de Clínicas</text>
</g>
<g id="Shopping" class="st5">
	<path class="st6" d="M14.4,2.6c7.1,0,12.9,5.8,12.9,12.9s-5.8,12.9-12.9,12.9c-7.1,0-12.9-5.8-12.9-12.9S7.3,2.6,14.4,2.6"/>
	<ellipse transform="matrix(0.7071 -0.7071 0.7071 0.7071 -6.7539 14.7199)" class="st7" cx="14.4" cy="15.5" rx="12.9" ry="12.9"/>
	<path class="st8" d="M14.4,9.8c3.1,0,5.7,2.5,5.7,5.7c0,3.1-2.5,5.7-5.7,5.7c-3.1,0-5.7-2.5-5.7-5.7C8.7,12.4,11.3,9.8,14.4,9.8"/>
	<text transform="matrix(1 0 0 1 35.0385 13.0991)" class="st6 st9 st10">Shopping</text>
	<text transform="matrix(1 0 0 1 35.0385 23.4448)" class="st6 st12 st10">Tres Cruces</text>
</g>
<g id="Facultad" class="st5">
	<path class="st6" d="M14.4,2.6c7.1,0,12.9,5.8,12.9,12.9s-5.8,12.9-12.9,12.9c-7.1,0-12.9-5.8-12.9-12.9S7.3,2.6,14.4,2.6"/>
	<ellipse transform="matrix(0.7071 -0.7071 0.7071 0.7071 -6.7539 14.7199)" class="st7" cx="14.4" cy="15.5" rx="12.9" ry="12.9"/>
	<path class="st8" d="M14.4,9.8c3.1,0,5.7,2.5,5.7,5.7c0,3.1-2.5,5.7-5.7,5.7c-3.1,0-5.7-2.5-5.7-5.7C8.7,12.4,11.3,9.8,14.4,9.8"/>
	<text transform="matrix(1 0 0 1 35.0385 13.0991)" class="st6 st9 st10">Facultad</text>
	<text transform="matrix(1 0 0 1 35.0385 23.4448)" class="st6 st12 st10">de Odontología</text>
</g>
<g id="Hospital_britanico" class="st5">
	<path class="st6" d="M14.4,2.6c7.1,0,12.9,5.8,12.9,12.9s-5.8,12.9-12.9,12.9c-7.1,0-12.9-5.8-12.9-12.9S7.3,2.6,14.4,2.6"/>
	<ellipse transform="matrix(0.7071 -0.7071 0.7071 0.7071 -6.7539 14.7199)" class="st7" cx="14.4" cy="15.5" rx="12.9" ry="12.9"/>
	<path class="st8" d="M14.4,9.8c3.1,0,5.7,2.5,5.7,5.7c0,3.1-2.5,5.7-5.7,5.7c-3.1,0-5.7-2.5-5.7-5.7C8.7,12.4,11.3,9.8,14.4,9.8"/>
	<text transform="matrix(1 0 0 1 35.0385 13.0991)" class="st6 st9 st10">Hospital</text>
	<text transform="matrix(1 0 0 1 35.0385 23.4448)" class="st6 st12 st10">Británico</text>
</g>
<g id="parque_batlle" class="st5">
	<path class="st6" d="M14.4,2.6c7.1,0,12.9,5.8,12.9,12.9s-5.8,12.9-12.9,12.9c-7.1,0-12.9-5.8-12.9-12.9S7.3,2.6,14.4,2.6"/>
	<ellipse transform="matrix(0.7071 -0.7071 0.7071 0.7071 -6.7539 14.7199)" class="st7" cx="14.4" cy="15.5" rx="12.9" ry="12.9"/>
	<path class="st8" d="M14.4,9.8c3.1,0,5.7,2.5,5.7,5.7c0,3.1-2.5,5.7-5.7,5.7c-3.1,0-5.7-2.5-5.7-5.7C8.7,12.4,11.3,9.8,14.4,9.8"/>
	<text transform="matrix(1 0 0 1 35.0385 18.7684)" class="st6 st9 st10">Parque Batlle</text>
</g>
<g id="estadio" class="st5">
	<path class="st6" d="M14.4,2.6c7.1,0,12.9,5.8,12.9,12.9s-5.8,12.9-12.9,12.9c-7.1,0-12.9-5.8-12.9-12.9S7.3,2.6,14.4,2.6"/>
	<ellipse transform="matrix(0.7071 -0.7071 0.7071 0.7071 -6.7539 14.7199)" class="st7" cx="14.4" cy="15.5" rx="12.9" ry="12.9"/>
	<path class="st8" d="M14.4,9.8c3.1,0,5.7,2.5,5.7,5.7c0,3.1-2.5,5.7-5.7,5.7c-3.1,0-5.7-2.5-5.7-5.7C8.7,12.4,11.3,9.8,14.4,9.8"/>
	<text transform="matrix(1 0 0 1 35.0385 13.0991)" class="st6 st9 st10">Estadio</text>
	<text transform="matrix(1 0 0 1 35.0385 23.4448)" class="st6 st12 st10">Centenario</text>
</g>
<g id="sanatorio_americano" class="st5">
	<path class="st6" d="M14.4,2.6c7.1,0,12.9,5.8,12.9,12.9s-5.8,12.9-12.9,12.9c-7.1,0-12.9-5.8-12.9-12.9S7.3,2.6,14.4,2.6"/>
	<ellipse transform="matrix(0.7071 -0.7071 0.7071 0.7071 -6.7539 14.7199)" class="st7" cx="14.4" cy="15.5" rx="12.9" ry="12.9"/>
	<path class="st8" d="M14.4,9.8c3.1,0,5.7,2.5,5.7,5.7c0,3.1-2.5,5.7-5.7,5.7c-3.1,0-5.7-2.5-5.7-5.7C8.7,12.4,11.3,9.8,14.4,9.8"/>
	<text transform="matrix(1 0 0 1 35.0385 13.0991)" class="st6 st9 st10">Sanatorio</text>
	<text transform="matrix(1 0 0 1 35.0385 23.4448)" class="st6 st12 st10">Americano</text>
</g>
</svg>
