<svg width="124" height="160" viewBox="0 0 124 160" fill="none" xmlns="http://www.w3.org/2000/svg">
<path d="M44.8348 35.892H53.5996V0.535156H38.4297V8.21366H44.8348V35.892Z" fill="white"/>
<path d="M17.0257 79.9997C22.588 79.9997 27.3076 77.4997 30.173 73.214L28.656 72.1426C26.1277 76.0712 21.9138 78.214 16.8572 78.214C8.59803 78.214 2.36152 71.6069 2.36152 62.4998C2.36152 53.3928 8.59803 46.7857 16.8572 46.7857C21.9138 46.7857 25.7906 48.9285 28.1503 52.4999L29.6673 51.4285C26.9705 47.3214 22.4195 45 16.8572 45C7.75526 45 0.338867 52.1428 0.338867 62.4998C0.338867 72.8569 7.92381 79.9997 17.0257 79.9997Z" fill="white"/>
<path d="M56.8023 77.8562H39.2727V67.3205H54.4425V65.5348H39.2727V47.3207H56.1281V45.3564H37.25V79.6419H56.8023V77.8562Z" fill="white"/>
<path d="M66.4098 70.3569H70.9607C72.4777 70.3569 73.8262 70.1783 75.006 69.8211L81.7482 79.6425H84.108L77.0287 69.2854C81.7482 67.3212 83.9394 63.0355 83.9394 58.0355C83.9394 51.0713 79.8941 45.5356 71.1293 45.5356H64.5557V79.6425H66.5783V70.3569H66.4098ZM66.4098 47.3213H70.7922C78.8828 47.3213 81.9168 52.3213 81.9168 58.0355C81.9168 63.7498 79.0513 68.5712 70.7922 68.5712H66.4098V47.3213Z" fill="white"/>
<path d="M106.695 45C97.5931 45 90.1768 52.1428 90.1768 62.4998C90.1768 72.8569 97.5931 79.9997 106.695 79.9997C115.797 79.9997 123.213 72.8569 123.213 62.4998C123.213 52.1428 115.797 45 106.695 45ZM106.695 78.214C98.4359 78.214 92.1994 71.6069 92.1994 62.4998C92.1994 53.3928 98.4359 46.7857 106.695 46.7857C114.954 46.7857 121.191 53.3928 121.191 62.4998C121.191 71.6069 114.954 78.214 106.695 78.214Z" fill="white"/>
<path d="M2.36035 89.106V111.963C2.36035 119.641 7.07987 123.749 13.1478 123.749C19.3843 123.749 24.1039 119.641 24.1039 111.963V89.106H22.0812V111.784C22.0812 118.391 18.373 121.963 13.1478 121.963C7.75409 121.963 4.21445 118.391 4.21445 111.784V89.106H2.36035Z" fill="white"/>
<path d="M57.3082 123.749H57.8138V89.1067H55.9597V116.785C55.9597 117.856 56.1283 119.285 56.1283 119.285C56.1283 119.285 55.2855 117.856 54.6113 116.964L34.0477 88.7495H33.542V123.392H35.3961V95.7137C35.3961 94.6423 35.2275 93.2138 35.2275 93.2138C35.2275 93.2138 36.0703 94.6423 36.7445 95.5352L57.3082 123.749Z" fill="white"/>
<path d="M65.3984 106.249C65.3984 116.606 72.8148 123.749 81.9168 123.749C91.0187 123.749 98.4351 116.606 98.4351 106.249C98.4351 95.8923 91.0187 88.7495 81.9168 88.7495C72.8148 88.7495 65.3984 95.8923 65.3984 106.249ZM81.9168 90.5352C90.1759 90.5352 96.4124 97.1423 96.4124 106.249C96.4124 115.356 90.1759 121.964 81.9168 121.964C73.6576 121.964 67.4211 115.356 67.4211 106.249C67.4211 97.1423 73.6576 90.5352 81.9168 90.5352Z" fill="white"/>
<path d="M111.751 93.0352L102.144 120.892H103.323L112.931 93.0352H111.751Z" fill="white"/>
<path d="M8.76483 33.9284C9.27049 31.4284 9.94471 28.9285 10.2818 26.2499C10.7875 23.0357 11.1246 20 10.956 16.7857C11.1246 13.5715 10.956 10.3572 10.4504 7.14294H10.6189C11.2931 10.3572 11.9674 13.5715 12.1359 16.7857C12.3045 20 12.3045 23.3928 11.9674 26.6071C11.7988 29.4642 11.4617 32.3213 10.6189 35.1784C12.8101 36.0713 15.1699 36.607 17.5297 36.607C18.3724 36.607 19.0466 36.607 19.8894 36.4284C21.4064 31.9641 22.2492 27.3213 22.2492 22.4999C22.2492 13.75 20.058 6.25009 16.1812 0.178711C7.58495 0.714421 0 8.03579 0 18.2143C0 25.1785 3.7082 30.8927 8.76483 33.9284Z" fill="white"/>
<path d="M60.1742 146.607L59.5 148.393H62.1969L61.5227 146.607C61.1855 145.893 60.8484 144.643 60.8484 144.643C60.8484 144.643 60.5113 145.893 60.1742 146.607Z" fill="white"/>
<path d="M26.4625 146.786H24.6084V149.822H26.4625C27.3053 149.822 27.8109 149.286 27.8109 148.393C27.9795 147.322 27.3053 146.786 26.4625 146.786Z" fill="white"/>
<path d="M69.9512 142.857H69.1084V149.643H69.9512C72.1424 149.643 73.1537 148.215 73.1537 146.25C73.1537 144.286 72.1424 142.857 69.9512 142.857Z" fill="white"/>
<path d="M43.3197 142.857H42.6455V147.143H43.3197C45.0053 147.143 45.848 146.607 45.848 145C45.6795 143.393 45.0053 142.857 43.3197 142.857Z" fill="white"/>
<path d="M27.3053 143.75C27.3053 143.214 26.9682 142.679 26.2939 142.679H24.6084V144.643H26.2939C26.9682 144.822 27.3053 144.464 27.3053 143.75Z" fill="white"/>
<path d="M91.8617 142.857H91.1875V147.143H91.8617C93.5473 147.143 94.39 146.607 94.39 145C94.2215 143.393 93.5473 142.857 91.8617 142.857Z" fill="white"/>
<path d="M0.842773 132.143V160H105.346V132.143H0.842773ZM16.5183 151.607H9.77616V140.893H11.7988V149.643H16.3498V151.607H16.5183ZM20.3951 151.607H18.3724V140.893H20.3951V151.607ZM26.6316 151.607H22.5863V140.893H26.463C28.3171 140.893 29.497 142.143 29.497 143.75C29.497 144.822 28.9914 145.357 27.98 145.714C29.3285 146.072 30.0027 146.964 30.0027 148.393C30.0027 150.179 28.8228 151.607 26.6316 151.607ZM38.5989 151.607H31.6882V140.893H38.4304V142.857H33.7109V146.25H37.7562V148.214H33.7109V149.821H38.5989V151.607ZM45.5097 151.607L43.8241 148.929C43.6556 148.929 43.487 148.929 43.1499 148.929H42.4757V151.607H40.453V140.893H43.3185C46.1839 140.893 47.8694 142.322 47.8694 145C47.8694 146.607 47.1952 147.679 45.8468 148.393L47.8694 151.786H45.5097V151.607ZM53.9374 151.607H51.9147V142.857H48.8808V140.893H56.8028V142.857H53.9374V151.607ZM63.3764 151.607L62.8708 150.357H58.8255L58.3198 151.607H56.2972L60.6796 140.714H60.8481L65.5676 151.607H63.3764ZM69.9501 151.607H66.7475V140.893H69.9501C73.1526 140.893 75.3438 143.036 75.3438 146.25C75.3438 149.464 73.1526 151.607 69.9501 151.607ZM82.086 151.786C79.2206 151.786 76.8608 149.464 76.8608 146.25C76.8608 143.036 79.2206 140.714 82.086 140.714C84.9514 140.714 87.3112 143.036 87.3112 146.25C87.3112 149.464 84.9514 151.786 82.086 151.786ZM94.0533 151.607L92.3678 148.929C92.1992 148.929 92.0307 148.929 91.6936 148.929H91.0194V151.607H88.9967V140.893H91.8621C94.7276 140.893 96.4131 142.322 96.4131 145C96.4131 146.607 95.7389 147.679 94.3904 148.393L96.4131 151.786H94.0533V151.607Z" fill="white"/>
<path d="M82.0867 142.679C80.2326 142.679 79.0527 144.286 79.0527 146.25C79.0527 148.214 80.2326 149.822 82.0867 149.822C83.9408 149.822 85.1207 148.214 85.1207 146.25C85.1207 144.286 83.9408 142.679 82.0867 142.679Z" fill="white"/>
<path d="M33.7117 10.1785C31.0148 4.28568 25.1154 0.35714 18.8789 0C21.7443 5.17853 23.767 11.2499 24.2726 18.2141C25.9582 16.0713 28.9922 13.0356 33.7117 10.1785Z" fill="white"/>
<path d="M35.3967 18.2142C35.3967 16.0714 35.2281 14.1071 34.5539 12.5C27.9803 16.4285 25.1148 20.7142 24.4406 21.7856C24.4406 21.9642 24.4406 22.1428 24.4406 22.3213C24.4406 26.9642 23.7664 31.4284 22.418 35.7141C29.6658 33.7498 35.3967 26.9642 35.3967 18.2142Z" fill="white"/>
</svg>
