<svg width="191" height="81" viewBox="0 0 191 81" fill="none" xmlns="http://www.w3.org/2000/svg">
<path d="M12.0218 40.3955L19.6725 40.4088L31.7859 9.95934L22.7352 9.94472L15.9485 29.079L9.22062 9.92477L0 9.91016L12.0218 40.3955Z" fill="#9CA845"/>
<path d="M34.99 9.96484L43.2773 9.97814L43.2317 40.4104L34.9443 40.3984L34.99 9.96484Z" fill="#9CA845"/>
<path d="M55.4037 17.3417L46.4785 17.3286L46.4904 9.92017L72.5824 9.96005L72.5705 17.3697L63.6467 17.3551L63.6127 40.4096L55.3685 40.3962L55.4037 17.3417Z" fill="#9CA845"/>
<path d="M75.7812 9.95996L89.846 9.98123C94.3935 10.0557 97.536 11.2707 99.5307 13.3471C101.269 15.0778 102.158 17.4134 102.156 20.3951V20.483C102.146 25.1063 99.7215 28.1716 96.0224 29.7655L103.102 40.3203L93.5832 40.3058L87.6069 31.1348H87.5207L83.9927 31.1281L83.9782 40.2911L75.7354 40.2778L75.7812 9.95996ZM89.4409 24.5706C92.246 24.5745 93.8629 23.1921 93.8655 20.9893V20.9016C93.8694 18.5261 92.1727 17.3138 89.4095 17.3084L84.0122 17.2991L84.0005 24.5613L89.4409 24.5706Z" fill="#9CA845"/>
<path d="M106.358 9.94873L106.312 40.3091L114.598 40.3221L114.645 9.9617L106.358 9.94873Z" fill="#9CA845"/>
<path d="M117.839 27.0811L117.878 9.94873L126.249 9.96203L126.21 26.9201C126.202 31.2856 128.367 33.3635 131.682 33.3688C134.997 33.3728 137.165 31.3895 137.173 27.1541L137.199 9.95805L145.573 9.97133L145.547 26.9083C145.532 36.6748 140.043 40.9446 131.586 40.9313C123.129 40.9193 117.825 36.5445 117.839 27.0811Z" fill="#9CA845"/>
<path d="M148.818 9.95996L157.53 9.97324L164.61 21.6953L171.725 9.99584L180.436 10.0091L180.39 40.4201L172.188 40.4081L172.215 22.8756L164.59 34.704H164.42L156.873 22.9368L156.848 40.4095L148.772 40.3975L148.818 9.95996Z" fill="#9CA845"/>
<path d="M0.358414 65.1107V65.0282C0.371486 56.6084 6.7543 50.0149 15.358 50.0269C21.1603 50.0362 24.891 52.518 27.402 56.0727L21.4702 60.7252C19.8493 58.6595 17.984 57.3355 15.2651 57.3302C11.2862 57.3249 8.48103 60.7465 8.47581 64.9565V65.0389C8.46926 69.3726 11.2653 72.7609 15.2416 72.7676C18.2048 72.7729 19.9513 71.3732 21.6583 69.2702L27.5798 73.5732C24.8948 77.3246 21.2793 80.0842 14.988 80.0749C6.87063 80.0629 0.346651 73.7367 0.358414 65.1107Z" fill="#9CA845"/>
<path d="M40.5128 50.4385L48.1035 50.4491L60.1553 79.568L51.7125 79.5547L49.6512 74.3915L38.692 74.3757L36.6555 79.532L28.376 79.5202L40.5128 50.4385ZM47.3872 68.1543L44.233 59.9378L41.0148 68.145L47.3872 68.1543Z" fill="#9CA845"/>
<path d="M63.3973 50.6816L75.5733 50.6988C82.7561 50.7095 87.3782 54.4741 87.3678 60.8708V60.9533C87.3573 67.7633 82.1966 71.3473 75.1355 71.3353L71.2401 71.3286L71.2283 79.5837L63.3555 79.5732L63.3973 50.6816ZM74.9838 65.0621C77.7838 65.0661 79.4895 63.584 79.4935 61.3135V61.2311C79.4975 58.7558 77.7955 57.4318 74.9551 57.4266L71.2611 57.42L71.2506 65.0555L74.9838 65.0621Z" fill="#9CA845"/>
<path d="M90.6174 50.7227L90.5732 79.6142L98.4866 79.6267L98.5309 50.7352L90.6174 50.7227Z" fill="#9CA845"/>
<path d="M110.222 57.7695L101.699 57.7575L101.71 50.74L126.629 50.7773L126.619 57.7948L118.096 57.7828L118.063 79.6582L110.189 79.6448L110.222 57.7695Z" fill="#9CA845"/>
<path d="M135.982 50.5874L143.572 50.5994L155.624 79.7154L147.181 79.7036L145.12 74.5391L134.161 74.5231L132.124 79.6796L123.845 79.6676L135.982 50.5874ZM142.856 68.3046L139.702 60.0867L136.484 68.2952L142.856 68.3046Z" fill="#9CA845"/>
<path d="M158.864 50.8267L166.739 50.8387L166.706 72.714L180.464 72.7353L180.452 79.7515L158.822 79.7182L158.864 50.8267Z" fill="#9CA845"/>
<path d="M176.465 6.93185H183.65V14.2378L190.392 21.093V0.0751953H169.724L176.465 6.93185Z" fill="#9CA845"/>
</svg>
