<svg width="141" height="172" viewBox="0 0 141 172" fill="none" xmlns="http://www.w3.org/2000/svg">
<path d="M51.2661 38.5888H61.2879V0.61377H43.9424V8.74579H51.2661V38.5888Z" fill="#9CA845"/>
<path d="M19.4274 86.0002C25.826 86.0002 31.2995 83.3151 34.5373 78.6353L32.8413 77.4079C29.9118 81.5506 25.1322 83.9288 19.4274 83.9288C9.94518 83.9288 2.85278 76.7174 2.85278 67.1277C2.85278 57.5381 9.94518 50.3267 19.4274 50.3267C25.2863 50.3267 29.6806 52.7049 32.3787 56.5408L34.0748 55.3133C30.9911 50.787 25.9031 48.332 19.4274 48.332C9.02008 48.4087 0.540039 56.0038 0.540039 67.2045C0.540039 78.4052 9.02008 86.0002 19.4274 86.0002Z" fill="#9CA845"/>
<path d="M64.9884 83.6216H44.9446V72.3442H62.2131V70.4263H44.9446V50.7866H64.2946V48.792H42.709V85.5395H64.9884V83.6216Z" fill="#9CA845"/>
<path d="M76.0121 75.5662H81.1772C82.8732 75.5662 84.415 75.4128 85.8027 75.1059L93.5118 85.6162H96.1329L88.0383 74.4155C93.4347 72.2674 95.9787 67.6644 95.9787 62.2942C95.9787 54.8526 91.2761 48.8687 81.2543 48.8687H73.8535V85.6162H76.0892V75.5662H76.0121ZM76.0121 50.7866H81.023C90.3511 50.7866 93.666 56.1568 93.666 62.2174C93.666 68.2781 90.3511 73.6483 81.023 73.6483H76.0121V50.7866Z" fill="#9CA845"/>
<path d="M122.113 48.4087C111.706 48.4087 103.226 56.0037 103.226 67.2044C103.226 78.4051 111.706 86.0001 122.113 86.0001C132.52 86.0001 141 78.4051 141 67.2044C141 56.0037 132.52 48.4087 122.113 48.4087ZM122.113 84.0055C112.631 84.0055 105.538 76.7941 105.538 67.2044C105.538 57.6148 112.631 50.4033 122.113 50.4033C131.595 50.4033 138.688 57.6148 138.688 67.2044C138.688 76.7941 131.595 84.0055 122.113 84.0055Z" fill="#9CA845"/>
<path d="M2.62109 95.8198V120.369C2.62109 128.655 7.94039 133.028 15.0328 133.028C22.0481 133.028 27.5216 128.655 27.5216 120.369V95.8198H25.2859V120.216C25.2859 127.274 21.0459 131.033 15.0328 131.033C8.94258 131.033 4.85674 127.274 4.85674 120.216V95.8198H2.62109Z" fill="#9CA845"/>
<path d="M65.5277 132.951H66.1444V95.8197H64.063V125.509C64.063 126.583 64.2171 128.271 64.2171 128.271C64.2171 128.271 63.2149 126.737 62.5211 125.816L38.9312 95.3594H38.3145V132.491H40.3959V102.801C40.3959 101.727 40.2417 100.039 40.2417 100.039C40.2417 100.039 41.2439 101.573 41.9377 102.494L65.5277 132.951Z" fill="#9CA845"/>
<path d="M74.8555 114.155C74.8555 125.356 83.3355 132.951 93.7428 132.951C104.15 132.951 112.63 125.356 112.63 114.155C112.63 102.954 104.15 95.3594 93.7428 95.3594C83.3355 95.3594 74.8555 102.954 74.8555 114.155ZM93.7428 97.354C103.225 97.354 110.317 104.565 110.317 114.155C110.317 123.745 103.225 130.956 93.7428 130.956C84.2606 130.956 77.1682 123.745 77.1682 114.155C77.1682 104.565 84.2606 97.354 93.7428 97.354Z" fill="#9CA845"/>
<path d="M127.817 100.039L116.793 129.959H118.258L129.282 100.039H127.817Z" fill="#9CA845"/>
<path d="M132.905 142.003H1.00195V171.923H132.905V142.003Z" fill="#9CA845"/>
<path d="M10.0219 36.5174C10.7157 33.8323 11.4095 31.0705 11.8721 28.3087C12.4117 24.9331 12.7201 21.4808 12.7201 18.0285C12.8742 14.5763 12.4888 11.124 12.0262 7.67172L12.2575 7.595C13.0284 10.9706 13.7223 14.4228 13.9535 17.9518C14.1848 21.4808 14.1848 25.0098 13.7993 28.4621C13.491 31.5308 13.1826 34.5995 12.3346 37.5914C14.8015 38.5888 17.4997 39.2025 20.1979 39.2025C21.0459 39.2025 21.971 39.1258 22.819 39.0491C24.515 34.3693 25.4401 29.306 25.4401 24.0125C25.4401 14.7297 22.819 6.59768 18.579 0C8.71132 0.767172 0 8.51561 0 19.4862C0 27.0812 4.16293 33.1418 10.0219 36.5174Z" fill="#697D46"/>
<path d="M14.0302 150.519H11.2549V163.714H19.9662V161.336H14.0302V150.519Z" fill="white"/>
<path d="M24.9003 150.519H22.2021V163.638H24.9003V150.519Z" fill="white"/>
<path d="M34.8453 156.349C36.0017 155.966 36.6955 155.122 36.6955 153.971C36.6955 152.13 35.3079 150.596 32.841 150.596H27.7529V163.714H33.0722C35.8475 163.714 37.4664 162.027 37.4664 159.648C37.5435 157.961 36.6184 156.81 34.8453 156.349ZM30.4511 152.897H32.6868C33.5348 152.897 33.9973 153.358 33.9973 154.125C33.9973 154.892 33.3806 155.352 32.5326 155.352H30.4511V152.897ZM32.9951 161.336H30.5282V157.73H32.841C34.0744 157.73 34.7682 158.498 34.7682 159.495C34.7682 160.569 34.0744 161.336 32.9951 161.336Z" fill="white"/>
<path d="M42.3231 159.418H47.5653V157.117H42.3231V152.897H48.3363V150.519H39.5479V163.714H48.5675V161.336H42.3231V159.418Z" fill="white"/>
<path d="M60.6706 155.506C60.6706 152.284 58.435 150.519 54.7346 150.519H51.1113V163.638H53.8095V160.339H54.7346C54.9659 160.339 55.2743 160.339 55.5055 160.262L57.6641 163.561H60.8248L58.1266 159.495C59.7456 158.881 60.6706 157.577 60.6706 155.506ZM54.6575 158.037H53.8095V152.897H54.6575C56.8161 152.897 57.8183 153.664 57.8183 155.506C57.8954 157.347 56.8932 158.037 54.6575 158.037Z" fill="white"/>
<path d="M72.3117 150.519H62.0586V152.897H65.8361V163.714H68.5343V152.897H72.3117V150.519Z" fill="white"/>
<path d="M77.3229 150.442L71.541 163.714H74.1621L74.7788 162.257H80.0982L80.7149 163.714H83.5673L77.5541 150.442H77.3229ZM79.1731 159.955H75.7039L76.629 157.654C77.0145 156.733 77.4 155.276 77.4 155.276C77.4 155.276 77.7854 156.733 78.1709 157.654L79.1731 159.955Z" fill="white"/>
<path d="M89.4257 150.519H85.3398V163.638H89.4257C93.5115 163.638 96.3639 160.953 96.3639 157.04C96.3639 153.127 93.5115 150.519 89.4257 150.519ZM89.2715 161.336H88.038V152.974H89.2715C92.201 152.974 93.5115 154.738 93.5115 157.193C93.5886 159.572 92.201 161.336 89.2715 161.336Z" fill="white"/>
<path d="M105.075 150.366C101.298 150.366 98.2139 153.204 98.2139 157.117C98.2139 161.029 101.22 163.868 105.075 163.868C108.852 163.868 111.936 161.029 111.936 157.117C111.859 153.204 108.852 150.366 105.075 150.366ZM105.075 161.413C102.685 161.413 101.066 159.572 101.066 157.117C101.066 154.662 102.685 152.821 105.075 152.821C107.465 152.821 109.084 154.662 109.084 157.117C109.084 159.572 107.465 161.413 105.075 161.413Z" fill="white"/>
<path d="M121.187 159.572C122.806 158.805 123.731 157.577 123.731 155.506C123.731 152.284 121.496 150.519 117.795 150.519H114.172V163.638H116.87V160.339H117.795C118.026 160.339 118.335 160.339 118.566 160.262L120.725 163.561H123.885L121.187 159.572ZM117.795 158.037H116.947V152.897H117.795C119.954 152.897 120.956 153.664 120.956 155.506C120.956 157.347 119.954 158.037 117.795 158.037Z" fill="white"/>
<path d="M38.6231 11.0473C35.4624 4.60303 28.8325 0.460303 21.5859 0C24.978 5.60036 27.1365 12.198 27.8303 19.5629C29.7576 17.2614 33.2267 14.0393 38.6231 11.0473Z" fill="#F1EA38"/>
<path d="M40.6276 19.4861C40.6276 17.2613 40.2421 15.1899 39.6254 13.272C31.9934 17.6449 28.7555 22.2479 27.9846 23.3986C27.9846 23.6288 27.9846 23.8589 27.9846 24.0124C27.9846 29.0757 27.2137 33.9089 25.6719 38.4352C33.9977 36.2104 40.6276 28.999 40.6276 19.4861Z" fill="#9CA845"/>
</svg>
