<svg width="111" height="106" viewBox="0 0 111 106" fill="none" xmlns="http://www.w3.org/2000/svg">
<g clip-path="url(#clip0_760_19)">
<path d="M23.8048 95.037L17.2517 76.729H8.2915L19.9264 105.806H27.4156L39.0505 76.729H30.3578L23.8048 95.037Z" fill="white"/>
<path d="M50.2843 76.729H42.2603V105.672H50.2843V76.729Z" fill="white"/>
<path d="M61.9192 76.729H54.0288V105.672H75.8276V98.6717H61.9192V76.729Z" fill="white"/>
<path d="M98.8301 76.46H91.2072L78.9036 105.672H87.3289L89.3349 100.557H100.435L102.575 105.672H111L98.8301 76.46ZM91.6084 94.2295L94.818 86.0178L98.0277 94.2295H91.6084Z" fill="white"/>
<path d="M87.73 67.9791H105.784V0.535645H78.2349V15.7474H87.73V67.9791Z" fill="white"/>
<path d="M55.0987 60.7098H22.8686C22.6011 60.7098 22.3336 60.7098 22.0662 60.7098C27.0144 63.806 32.765 65.556 39.0505 65.556C45.336 65.556 51.0866 63.806 56.0348 60.5752C55.7674 60.7098 55.3662 60.7098 55.0987 60.7098Z" fill="white"/>
<path d="M68.2048 30.9592C69.2747 31.4977 70.3446 32.1708 71.2807 32.8439C71.2807 30.9592 71.0133 28.94 70.7458 27.1899C69.4085 27.9976 68.4723 29.3438 68.2048 30.9592Z" fill="white"/>
<path d="M21.5312 19.7859L28.7529 15.6128C26.3457 10.4973 23.5373 6.72803 22.0662 6.72803C20.9963 6.72803 19.124 7.67035 17.2517 9.95885C18.8565 12.9204 20.4613 16.4205 21.665 20.1898C21.5312 20.0552 21.5312 19.9206 21.5312 19.7859Z" fill="white"/>
<path d="M30.6252 14.5357L34.6372 12.2472C37.3119 10.7664 40.5216 10.7664 43.1963 12.2472L47.6095 14.8049C47.2083 13.5934 47.0746 12.3818 47.0746 11.1702C47.0746 7.93942 48.2782 5.11245 50.1505 2.82395C46.6734 1.47778 42.9288 0.804688 38.9168 0.804688C33.2999 0.804688 27.9505 2.28548 23.2698 4.84322C25.8107 5.92016 28.4854 9.82407 30.6252 14.5357Z" fill="white"/>
<path d="M50.953 16.6899L59.3783 21.5361C59.512 21.5361 59.512 21.6707 59.6457 21.6707C59.7795 21.6707 59.7795 21.6707 59.7795 21.6707C62.8554 21.6707 65.5301 20.3246 67.5361 18.1707C64.1927 11.8437 58.8433 6.72819 52.424 3.7666C50.5518 5.65125 49.3481 8.3436 49.3481 11.1706C49.3481 13.1898 49.8831 15.0745 50.953 16.6899Z" fill="white"/>
<path d="M63.9252 29.3437V29.8822C64.7276 29.8822 65.3963 30.0168 66.1987 30.2861C66.7336 27.9976 68.2047 26.1129 70.2108 25.036C69.8096 23.4206 69.2746 21.9398 68.6059 20.459C66.8674 22.209 64.4602 23.4206 61.9192 23.8244C63.1228 25.3052 63.9252 27.1899 63.9252 29.3437Z" fill="white"/>
<path d="M63.9252 51.8251C63.9252 52.2289 63.9252 52.6328 63.7915 53.0366C64.059 53.0366 64.1927 53.0366 64.4602 53.0366C68.2048 48.1904 70.612 42.2672 71.1469 35.9402C69.4084 33.7863 66.8674 32.3055 63.9252 32.1709V51.8251Z" fill="white"/>
<path d="M46.8072 38.498V41.1904C46.8072 42.5365 46.2722 44.0173 45.2023 44.9597L40.2541 49.1328C40.1204 49.2674 39.9867 49.5367 39.9867 49.8059V54.1137V56.4022C39.9867 57.2099 40.5216 57.8829 41.1903 58.0176H54.965C58.3084 58.0176 61.1168 55.1906 61.1168 51.6905V29.2094C61.1168 28.9402 61.1168 28.6709 61.1168 28.4017C60.8493 26.517 59.7795 24.767 58.0409 23.6901L41.9927 14.4015C41.0566 13.863 39.9867 13.5938 38.9168 13.5938C37.8469 13.5938 36.777 13.863 35.8409 14.4015L22.1999 22.2093C23.1361 25.844 23.8047 29.344 23.8047 32.3056C23.8047 40.9211 20.5951 45.7674 16.7168 47.9212V51.5559C16.7168 51.8252 16.7168 52.229 16.7168 52.4982C17.118 55.5944 19.7927 57.8829 22.8686 57.8829H35.9746C36.6433 57.7483 37.1782 57.0752 37.1782 56.4022V55.5945V55.1906C37.1782 54.9214 37.0445 54.7867 36.9108 54.6521L31.6951 49.5367C30.759 48.729 30.224 47.5174 30.0903 46.3058C30.0903 46.1712 30.0903 45.902 30.0903 45.7674V43.075C28.7529 42.5365 27.6831 41.325 27.4156 39.8442C27.4156 39.575 27.4156 39.4403 27.4156 39.1711C27.4156 36.8826 29.2879 35.1326 31.4276 35.1326C33.1662 35.1326 34.6373 36.2095 35.306 37.8249C35.306 37.9595 35.306 37.9595 35.4397 38.0942V38.2288V38.3634C35.8409 40.5173 34.6373 42.4019 32.765 43.075V45.7674C32.765 45.902 32.765 45.902 32.765 46.0366C32.765 46.5751 33.0325 47.1135 33.5674 47.5174L35.8409 49.8059C36.3758 50.0751 37.1782 49.8059 37.1782 49.1328V26.2478C35.8409 25.7093 34.9048 24.4978 34.771 23.017C34.771 22.7478 34.771 22.6131 34.771 22.3439C34.771 20.0554 36.6433 18.3054 38.7831 18.3054C40.6554 18.3054 42.2602 19.5169 42.6614 21.267V21.4016V21.5362V21.6708V21.8054C42.9288 23.8247 41.5915 25.5747 39.8529 26.1132V43.7481C39.8529 44.4212 40.5216 44.825 41.0566 44.5558L43.3301 42.6712C43.7313 42.2673 43.9987 41.5942 43.9987 40.9211V38.2288C42.6614 37.6903 41.5915 36.4787 41.324 34.998C41.324 34.7287 41.324 34.5941 41.324 34.3249C41.324 32.0364 43.1963 30.2863 45.3361 30.2863C47.0746 30.2863 48.5457 31.3633 49.2144 32.9787C49.2144 33.1133 49.2144 33.1133 49.3481 33.2479V33.3825V33.5172C49.8831 35.9403 48.6795 37.9595 46.8072 38.498Z" fill="white"/>
<path d="M14.1759 49.2671C13.5073 49.4017 12.8386 49.5363 12.1699 49.6709V51.1517C12.8386 52.2287 13.5073 53.171 14.3097 54.1133C14.1759 53.4402 14.0422 52.6325 14.0422 51.8248L14.1759 49.2671Z" fill="white"/>
<path d="M9.49518 33.1132C9.49518 32.3055 10.1639 31.767 10.8325 31.767C11.6349 31.767 12.1699 32.4401 12.1699 33.1132V47.3826C17.9205 46.5749 21.6651 40.921 21.6651 32.4401C21.6651 21.2668 13.641 5.92041 10.8325 5.92041C8.0241 5.92041 0 21.6707 0 32.5747C0 41.1902 3.61084 46.7095 9.49518 47.5173V33.1132Z" fill="white"/>
</g>
<defs>
<clipPath id="clip0_760_19">
<rect width="111" height="105.271" fill="white" transform="translate(0 0.535645)"/>
</clipPath>
</defs>
</svg>
