<svg width="116" height="127" viewBox="0 0 116 127" fill="none" xmlns="http://www.w3.org/2000/svg">
<g clip-path="url(#clip0_2584_314)">
<path d="M40.4106 58.9859C35.0102 58.9859 29.6152 58.9913 24.2148 58.9859C20.3199 58.9805 17.6633 56.3759 17.5651 52.4989C17.5542 52.1509 17.587 51.8029 17.5597 51.4603C17.3742 49.0406 17.7179 47.1211 19.8999 45.2941C23.1347 42.5807 24.0075 38.4808 24.4057 34.3809C24.7548 30.7594 24.3402 27.1924 23.5002 23.6743C23.3092 22.8858 23.3747 22.4563 24.1602 22.0158C28.5296 19.5907 32.85 17.0839 37.203 14.6262C39.385 13.3918 41.6052 13.3973 43.7872 14.6316C49.1549 17.6658 54.5117 20.7271 59.8794 23.7667C62.2468 25.1098 63.4087 27.1271 63.4033 29.8514C63.3924 37.3607 63.4142 44.8699 63.3924 52.3738C63.3815 56.3269 60.6976 58.975 56.7428 58.9805C51.2987 58.9859 45.8601 58.9805 40.416 58.9805L40.4106 58.9859ZM31.4971 27.4806C31.4971 27.4806 31.4971 27.4262 31.5026 27.399C32.5827 27.5078 33.6737 27.5458 34.7429 27.7307C45.6419 29.6447 53.2352 37.8011 54.4462 48.8557C54.588 50.1607 55.2045 50.7371 56.35 50.6447C57.4301 50.5522 58.0847 49.7583 57.9538 48.5403C57.801 47.1646 57.6156 45.7835 57.321 44.4295C54.599 31.9503 42.0089 22.6901 29.4515 23.8972C28.1587 24.0223 27.4823 24.6476 27.5096 25.6971C27.5368 26.6867 28.3714 27.4262 29.5443 27.4697C30.1989 27.4969 30.848 27.4697 31.5026 27.4697L31.4971 27.4806ZM31.6335 31.1999C31.1535 31.1999 30.6734 31.1836 30.1989 31.1999C28.7642 31.2488 28.006 31.9013 28.0278 33.0595C28.0496 34.2341 28.9551 34.9029 30.4171 34.8267C38.0977 34.4244 45.0037 39.6444 46.6402 47.1102C46.8365 47.9966 46.8965 48.9101 47.082 49.8018C47.2893 50.8023 48.0039 51.2917 48.9803 51.1993C49.9459 51.1068 50.5786 50.5305 50.5786 49.481C50.5786 48.9209 50.5677 48.35 50.4914 47.7954C49.1931 38.4427 41.0761 31.3032 31.639 31.2053L31.6335 31.1999ZM31.0717 46.0608C28.3987 46.088 26.244 48.2576 26.2767 50.8839C26.3095 53.4994 28.546 55.6907 31.148 55.6581C33.8046 55.6255 35.9211 53.4722 35.8993 50.8078C35.8829 48.1271 33.7555 46.0336 31.0717 46.0608ZM31.1535 38.6657C31.0117 38.6711 30.7935 38.6766 30.5753 38.6983C29.217 38.8288 28.5242 39.4868 28.5733 40.596C28.6169 41.6944 29.3533 42.2762 30.7389 42.3143C35.6811 42.4448 38.8395 45.1581 39.6141 49.9378C39.816 51.1721 40.6779 51.9497 41.687 51.8083C42.7126 51.6669 43.3126 50.7099 43.1762 49.443C42.5271 43.3964 37.4103 38.7799 31.1535 38.6657Z" fill="white"/>
<path d="M12.5956 46.6927C12.5956 43.1474 12.5956 39.8142 12.5956 36.4755C12.5956 35.1325 12.612 33.7839 12.5847 32.4409C12.5683 31.511 12.1647 30.7824 11.15 30.7661C10.0699 30.7443 9.63354 31.4567 9.63354 32.4735C9.63354 36.6387 9.63354 40.8038 9.63354 44.9745C9.63354 45.4856 9.63354 45.9967 9.63354 46.6764C7.56066 46.5079 5.92416 45.7357 4.52224 44.4579C1.462 41.663 0.425551 37.9926 0.0982527 34.0558C-0.485429 27.0087 1.59837 20.4999 4.40768 14.1978C5.5805 11.5606 7.21699 9.12998 8.64074 6.60694C8.72802 6.45469 8.84803 6.32963 8.95713 6.19369C10.6209 4.17635 11.5046 4.13285 13.152 6.16106C15.9449 9.60848 17.7615 13.5942 19.2943 17.7105C21.2908 23.0774 22.6491 28.5693 22.0436 34.3658C21.689 37.7914 20.7344 41.005 18.3615 43.6314C16.8614 45.2898 15.0231 46.3502 12.5956 46.6927Z" fill="white"/>
<path d="M61.3194 21.1363C61.0739 21.0222 60.7139 20.8753 60.3811 20.685C56.8299 18.6677 53.2678 16.6721 49.7494 14.5949C49.2639 14.3122 48.8057 13.6869 48.6802 13.1431C47.7692 9.13017 48.8602 5.68275 51.8768 2.8824C52.1605 2.61596 52.8478 2.50177 53.2133 2.64858C59.4265 5.16618 64.4342 9.20086 68.2145 14.7254C68.4272 15.0408 68.5145 15.6716 68.3399 15.987C66.9326 18.5426 64.756 20.1793 61.9685 21.0222C61.8049 21.0711 61.6249 21.082 61.3139 21.1309L61.3194 21.1363Z" fill="white"/>
<path d="M25.1257 4.26303C33.0027 0.157659 41.1033 -0.804792 49.504 1.38655C48.5439 3.16464 47.3711 4.80135 46.7602 6.62837C46.1547 8.42277 46.1165 10.4075 45.811 12.4248C41.0379 9.12966 36.6903 11.0817 32.3918 14.0779C30.4007 10.4292 28.6878 6.70994 25.1312 4.26303H25.1257Z" fill="white"/>
<path d="M66.1306 53.2066V32.0762C69.1581 32.261 71.5692 33.4519 73.4894 35.5943C73.7676 35.9097 73.7949 36.5676 73.7348 37.0461C73.0366 42.6958 71.051 47.856 67.6907 52.4671C67.3634 52.913 66.8179 53.2012 66.3761 53.5655C66.2943 53.4458 66.2124 53.3262 66.1361 53.2066H66.1306Z" fill="white"/>
<path d="M57.6208 61.5215C47.8074 67.7421 33.7717 67.6333 24.231 61.5215H57.6208Z" fill="white"/>
<path d="M22.5726 19.5528C21.2034 16.2087 19.8833 12.9679 18.4214 9.39001C19.5724 8.55262 20.8434 7.5358 22.2126 6.66035C23.2218 6.01328 24.1873 6.30691 25.0274 7.14973C27.313 9.42807 28.7477 12.2393 30.2259 15.2082C27.6239 16.6872 25.0765 18.1336 22.5726 19.5583V19.5528Z" fill="white"/>
<path d="M68.651 29.9944C67.8109 29.8856 67.0145 29.7769 66.2726 29.679C65.9944 28.4012 65.8635 27.1832 65.4544 26.063C65.0562 24.9809 64.3797 24.0022 63.9597 23.23C66.0217 21.5879 68.1328 19.9131 70.3966 18.1133C71.1057 19.9838 71.9185 22.0664 72.6659 24.1707C72.7422 24.3828 72.5186 24.8504 72.3004 24.9918C70.4675 26.1772 69.311 27.8411 68.6565 29.9998L68.651 29.9944Z" fill="white"/>
<path d="M70.6803 30.613C71.4658 29.4276 72.2186 28.2912 72.9659 27.1602C73.135 27.22 73.2986 27.2798 73.4677 27.3396C73.6423 29.0198 73.8169 30.7055 74.0132 32.6521C72.8132 31.918 71.8804 31.3471 70.6748 30.613H70.6803Z" fill="white"/>
<path d="M12.7538 49.08C13.3975 48.9495 14.063 48.8081 14.8431 48.6504V53.0168C13.6375 52.3479 12.552 50.3741 12.7538 49.08Z" fill="white"/>
<path d="M26.0093 96.4726L19.2779 77.7891H10.0972L22.1145 107.527H29.7351L41.7524 77.7891H32.7353L26.0093 96.4726Z" fill="white"/>
<path d="M53.2951 77.7891H45.0417V107.315H53.2951V77.7891Z" fill="white"/>
<path d="M65.4053 77.7891H57.1956V107.315H79.7519V100.143H65.4053V77.7891Z" fill="white"/>
<path d="M103.388 77.5781H95.473L82.8611 107.316H91.4963L93.6128 102.042H105.041L107.201 107.316H116.006L103.394 77.5781H103.388ZM96.0239 95.6744L99.3678 87.2788L102.668 95.6744H96.0239Z" fill="white"/>
<path d="M92.0255 68.856H110.518V0H82.1738V15.4917H92.0255V68.856Z" fill="white"/>
<path d="M21.738 126.815H19.7524L18.6669 124.238H13.6047L12.5028 126.815H10.5771L15.2848 116.07H17.0304L21.738 126.815ZM16.1249 118.311L14.292 122.579H17.9795L16.1303 118.311H16.1249Z" fill="white"/>
<path d="M28.0385 119.487C28.1094 119.639 28.2404 119.78 28.4313 119.911C28.6222 120.041 28.8786 120.166 29.2113 120.275C29.5441 120.389 29.9641 120.503 30.4769 120.623C31.0388 120.764 31.5352 120.922 31.9716 121.096C32.408 121.27 32.768 121.482 33.0516 121.727C33.3353 121.977 33.5535 122.265 33.7008 122.597C33.8481 122.929 33.9244 123.315 33.9244 123.761C33.9244 124.266 33.8317 124.723 33.6462 125.12C33.4608 125.517 33.1989 125.854 32.8662 126.126C32.5334 126.398 32.1298 126.61 31.6661 126.751C31.2024 126.893 30.6842 126.963 30.1223 126.963C29.2986 126.963 28.5077 126.822 27.7549 126.545C27.0021 126.267 26.3038 125.838 25.6602 125.256L26.7893 123.913C27.3076 124.359 27.8367 124.701 28.3658 124.94C28.895 125.18 29.5005 125.299 30.1714 125.299C30.7496 125.299 31.2133 125.18 31.557 124.935C31.9006 124.69 32.0697 124.364 32.0697 123.945C32.0697 123.75 32.037 123.581 31.9716 123.429C31.9061 123.277 31.7806 123.135 31.6061 123.01C31.4261 122.885 31.1806 122.765 30.8697 122.651C30.5587 122.537 30.1496 122.423 29.6532 122.303C29.0804 122.173 28.5731 122.026 28.1258 121.863C27.6785 121.7 27.3076 121.499 27.0075 121.254C26.7075 121.009 26.4784 120.715 26.3202 120.367C26.162 120.025 26.0802 119.601 26.0802 119.101C26.0802 118.633 26.1729 118.209 26.3529 117.828C26.533 117.448 26.7839 117.121 27.1057 116.844C27.4276 116.567 27.8094 116.36 28.2567 116.213C28.704 116.066 29.195 115.99 29.7241 115.99C30.5096 115.99 31.2133 116.104 31.8406 116.333C32.468 116.561 33.0571 116.893 33.6081 117.333L32.5989 118.753C32.1079 118.399 31.6224 118.127 31.1479 117.937C30.6678 117.747 30.1823 117.654 29.6968 117.654C29.1459 117.654 28.7204 117.779 28.4149 118.029C28.1094 118.279 27.9567 118.579 27.9567 118.937C27.9567 119.149 27.9949 119.334 28.0658 119.487H28.0385Z" fill="white"/>
<path d="M48.08 122.2C48.08 122.994 47.9709 123.69 47.7527 124.288C47.5345 124.886 47.2236 125.386 46.8254 125.789C46.4272 126.191 45.9472 126.49 45.3798 126.686C44.8125 126.882 44.1797 126.985 43.476 126.985C42.7724 126.985 42.1559 126.887 41.5941 126.686C41.0322 126.49 40.5522 126.191 40.1594 125.794C39.7612 125.397 39.4557 124.908 39.243 124.321C39.0302 123.739 38.9211 123.059 38.9211 122.287V116.143H40.7867V122.211C40.7867 123.206 41.0268 123.962 41.5123 124.484C41.9923 125 42.6578 125.261 43.5142 125.261C44.3707 125.261 45.0144 125.011 45.4998 124.516C45.9799 124.016 46.2254 123.277 46.2254 122.292V116.148H48.091V122.2H48.08Z" fill="white"/>
<path d="M61.0793 116.146H62.9449V126.815H61.3739L55.4825 119.224V126.815H53.6169V116.146H55.3571L61.0793 123.525V116.146Z" fill="white"/>
<path d="M77.095 125.898C76.795 126.126 76.4731 126.327 76.124 126.49C75.7803 126.659 75.3985 126.784 74.9839 126.871C74.5693 126.958 74.1166 127.002 73.6147 127.002C72.8292 127.002 72.1037 126.86 71.4436 126.577C70.7836 126.295 70.2054 125.903 69.7253 125.414C69.2453 124.924 68.8634 124.337 68.5852 123.668C68.3125 123 68.1707 122.276 68.1707 121.504C68.1707 120.732 68.307 120.025 68.5743 119.356C68.8416 118.688 69.2235 118.1 69.7144 117.595C70.2054 117.094 70.7836 116.697 71.46 116.404C72.1364 116.11 72.8783 115.969 73.6911 115.969C74.182 115.969 74.6239 116.012 75.0276 116.088C75.4312 116.165 75.8022 116.284 76.1349 116.431C76.4731 116.578 76.7841 116.752 77.0677 116.958C77.3514 117.16 77.6241 117.383 77.8805 117.627L76.675 119.014C76.244 118.617 75.7912 118.296 75.3112 118.051C74.8312 117.807 74.2857 117.687 73.6747 117.687C73.1674 117.687 72.6928 117.785 72.2619 117.986C71.8309 118.182 71.4545 118.454 71.1382 118.796C70.8218 119.139 70.5763 119.536 70.4017 119.993C70.2272 120.449 70.1399 120.944 70.1399 121.472C70.1399 121.999 70.2272 122.494 70.4017 122.956C70.5763 123.418 70.8218 123.821 71.1382 124.169C71.4545 124.511 71.8309 124.783 72.2619 124.984C72.6928 125.18 73.1674 125.283 73.6747 125.283C74.3293 125.283 74.8857 125.158 75.3549 124.908C75.824 124.658 76.2877 124.321 76.7459 123.897L77.9514 125.115C77.6787 125.408 77.3896 125.669 77.0895 125.898H77.095Z" fill="white"/>
<path d="M84.8575 116.146V126.815H82.9919V116.146H84.8575Z" fill="white"/>
<path d="M100.988 123.602C100.715 124.271 100.322 124.858 99.8259 125.364C99.324 125.864 98.7349 126.267 98.053 126.56C97.3711 126.854 96.6183 127.001 95.7892 127.001C94.96 127.001 94.2072 126.854 93.5254 126.566C92.8435 126.278 92.2544 125.881 91.7689 125.386C91.2779 124.886 90.8961 124.304 90.6233 123.635C90.3506 122.966 90.2087 122.254 90.2087 121.503C90.2087 120.753 90.3451 120.041 90.6233 119.372C90.8961 118.703 91.2834 118.116 91.7852 117.61C92.2871 117.104 92.8762 116.707 93.5581 116.414C94.24 116.12 94.9928 115.973 95.8219 115.973C96.6511 115.973 97.4039 116.12 98.0857 116.408C98.7676 116.697 99.3567 117.094 99.8422 117.588C100.333 118.089 100.715 118.67 100.988 119.339C101.261 120.008 101.402 120.72 101.402 121.471C101.402 122.221 101.266 122.933 100.988 123.602ZM99.1604 120.024C98.9803 119.562 98.7349 119.16 98.413 118.812C98.0912 118.464 97.7093 118.192 97.2566 117.991C96.8038 117.79 96.3183 117.686 95.7892 117.686C95.2601 117.686 94.7746 117.784 94.3272 117.985C93.8854 118.181 93.5035 118.453 93.1872 118.795C92.8708 119.138 92.6253 119.535 92.4453 119.997C92.2653 120.459 92.178 120.949 92.178 121.471C92.178 121.993 92.2653 122.477 92.4453 122.944C92.6253 123.407 92.8708 123.809 93.1926 124.157C93.5145 124.505 93.8963 124.777 94.3491 124.978C94.8018 125.179 95.2873 125.283 95.8165 125.283C96.3456 125.283 96.8311 125.185 97.2784 124.983C97.7257 124.782 98.1021 124.516 98.4185 124.173C98.7349 123.831 98.9803 123.434 99.1604 122.972C99.3404 122.509 99.4277 122.02 99.4277 121.498C99.4277 120.976 99.3404 120.492 99.1604 120.03V120.024ZM95.1455 115.261L96.7656 112.76L98.4458 113.505L96.5802 115.256H95.1455V115.261Z" fill="white"/>
<path d="M114.091 116.146H115.956V126.815H114.385L108.494 119.224V126.815H106.628V116.146H108.369L114.091 123.525V116.146Z" fill="white"/>
</g>
<defs>
<clipPath id="clip0_2584_314">
<rect width="116" height="127" fill="white"/>
</clipPath>
</defs>
</svg>
