<svg width="110" height="110" viewBox="0 0 110 110" fill="none" xmlns="http://www.w3.org/2000/svg">
<path d="M55 105.296C27.2287 105.296 4.61353 82.6813 4.61353 54.9099C4.61353 27.1386 27.2287 4.52344 55 4.52344C82.7714 4.52344 105.387 27.1386 105.387 54.9099C105.387 82.6813 82.7714 105.296 55 105.296Z" fill="white"/>
<path d="M55 9.22697C80.2385 9.22697 100.773 29.7615 100.773 55C100.773 80.2384 80.2385 100.773 55 100.773C29.7615 100.773 9.22698 80.2384 9.22698 55C9.22698 29.7615 29.7615 9.22697 55 9.22697ZM55 0C24.6053 0 0 24.6052 0 55C0 85.3947 24.6053 110 55 110C85.3947 110 110 85.3947 110 55C110 24.6052 85.3043 0 55 0Z" fill="white"/>
<path d="M57.2614 24.0625C57.7138 24.4243 57.8947 24.7862 57.8042 25.329C57.8042 26.5954 57.8042 27.7714 57.8042 29.0378C57.8042 29.852 57.4424 30.2138 56.8091 30.2138C56.2664 30.2138 55.9045 29.7615 55.9045 29.0378C55.9045 27.7714 55.9045 26.5954 55.9045 25.329C55.9045 24.7862 56.0855 24.3339 56.4473 24.0625H57.2614Z" fill="#B8D66C"/>
<path d="M64.1366 76.3476C64.8603 77.614 64.7698 78.8805 64.4984 80.2374C64.3175 81.3229 63.3224 81.8657 62.1464 81.9561C61.8751 81.9561 61.6037 81.9561 61.3323 81.9561C61.3323 82.5894 61.3323 83.0417 61.3323 83.5844C61.3323 85.0318 60.5181 85.8459 59.0708 85.8459C57.533 85.8459 56.0856 85.8459 54.5478 85.8459C53.2813 85.8459 52.5576 85.1222 52.4671 83.8558C52.4671 83.2226 52.4671 82.6798 52.4671 82.0466C52.0148 81.9561 51.5625 81.9561 51.1102 81.8657C50.0247 81.6848 49.2106 80.7801 49.1201 79.6946C49.1201 78.6091 48.8487 77.5236 49.482 76.5285C49.5724 76.438 49.482 76.1667 49.3915 76.0762C48.8487 74.8097 48.9392 73.5433 49.301 72.2769C49.3915 71.915 49.8438 71.5532 50.2056 71.2818C50.5675 71.0104 50.5675 70.8295 50.5675 70.4676C50.1152 68.0252 49.0296 66.1255 47.0395 64.6782C43.3306 61.9644 40.9787 58.3459 40.0741 53.8229C38.8076 47.4002 41.5214 40.6157 47.13 36.6354C47.6727 36.2736 48.2155 36.364 48.4869 36.8163C48.7583 37.2686 48.6678 37.8114 48.1251 38.1733C46.2254 39.5302 44.6875 41.2489 43.5116 43.239C39.8027 49.8426 41.6119 58.3459 47.6728 62.869C50.1152 64.6782 51.7435 66.9397 52.2862 69.9249C52.3767 70.1963 52.3767 70.4677 52.3767 70.739H55.8142C55.8142 70.6486 55.8142 70.4676 55.8142 70.3772C55.8142 68.0252 55.8142 65.5828 55.8142 63.2308C55.8142 63.0499 55.7237 62.688 55.5428 62.5976C53.8241 60.8788 52.1958 59.2505 50.477 57.5318C46.5872 53.642 46.5872 47.8525 50.477 43.9627C52.1053 42.3344 53.7336 40.7061 55.3619 39.0779C56.357 38.0828 57.2616 38.0828 58.2566 39.0779C59.8849 40.7061 61.6037 42.3344 63.232 44.0532C67.0313 47.8525 66.9408 53.642 63.232 57.4413C61.5132 59.1601 59.7945 60.8788 58.0757 62.5976C57.8948 62.7785 57.8043 62.9594 57.8043 63.1403C57.8043 65.6732 57.8043 68.2061 57.8043 70.8295H61.1514C61.4227 69.8344 61.6037 68.9298 61.9655 68.0252C62.6892 66.1255 63.8652 64.5877 65.4935 63.3213C68.8405 60.8788 71.0116 57.6223 71.8257 53.5515C73.3635 45.7719 68.3882 37.9923 60.6991 36.0022C57.5329 35.188 54.4573 35.369 51.4721 36.4545C51.2007 36.545 50.7484 36.6354 50.5675 36.545C50.2961 36.4545 50.0247 36.0927 49.9343 35.7308C49.8438 35.2785 50.1152 34.9167 50.5675 34.8262C51.8339 34.4644 53.0099 34.0121 54.2764 33.8311C59.2517 33.1075 63.6843 34.2834 67.5741 37.4496C71.2829 40.4348 73.454 44.415 73.9063 49.2094C74.4491 55.6321 72.0066 60.6979 66.9408 64.5877C64.9507 66.0351 63.6843 67.9347 63.232 70.3772C63.1415 70.8295 63.232 71.1009 63.5938 71.2818C64.227 71.6436 64.5889 72.2769 64.6793 73.091C64.7698 74.7193 64.6793 75.3525 64.1366 76.3476ZM57.8043 59.9742C57.8948 59.9742 57.8948 59.9742 57.9852 60.0647C59.3422 58.7078 60.6991 57.3509 62.056 55.994C65.0412 52.9183 65.0412 48.3048 61.9655 45.2292C60.4277 43.6913 58.7994 42.063 57.2616 40.5252C57.1711 40.4348 56.9902 40.3443 56.8997 40.1634C56.7188 40.2538 56.6283 40.4348 56.5379 40.5252C55 42.063 53.3718 43.6009 51.8339 45.2292C48.7583 48.3048 48.7583 52.9183 51.8339 55.994C53.0099 57.2604 54.2764 58.4364 55.5428 59.7029C55.6333 59.7933 55.8142 59.8838 55.9951 60.0647C55.9951 59.341 55.9951 58.7982 55.9951 58.2555C55.9951 57.8936 55.8142 57.5318 55.6333 57.3509C55.0905 56.7177 54.5478 56.2654 54.005 55.6321C53.6431 55.2703 53.6431 54.7275 54.005 54.3657C54.3668 54.0038 54.9096 54.0038 55.2714 54.3657C55.5428 54.5466 55.7237 54.818 55.9951 55.0894C56.0856 54.4561 55.9951 54.0038 55.6333 53.642C55.0905 53.1897 54.5478 52.5565 54.005 52.0137C53.6431 51.5614 53.6431 51.0186 54.005 50.7473C54.4573 50.3854 54.8191 50.3854 55.2714 50.7473C55.5428 50.9282 55.7237 51.1996 55.9047 51.4709C55.9951 51.4709 55.9951 51.3805 56.0856 51.3805C56.0856 50.4759 56.0856 49.4808 56.0856 48.5762C56.0856 47.8525 56.4474 47.4002 56.9902 47.4002C57.5329 47.4002 57.9852 47.8525 57.9852 48.5762C57.9852 49.119 57.9852 49.6617 57.9852 50.2045C58.0757 50.2045 58.0757 50.295 58.1662 50.295C58.3471 50.114 58.4376 49.9331 58.6185 49.7522C59.1612 49.2094 59.6136 49.2094 60.0659 49.5713C60.4277 49.9331 60.4277 50.4759 59.9754 51.0186C59.4326 51.5614 58.8898 52.1042 58.3471 52.6469C57.9852 53.0088 57.9853 53.3706 58.1662 54.0038C58.4376 53.7325 58.528 53.5515 58.7089 53.3706C59.2517 52.9183 59.704 52.8279 60.1563 53.2802C60.5181 53.642 60.5182 54.1848 60.0659 54.6371C59.5231 55.1798 58.9803 55.7226 58.4375 56.2654C58.3471 56.3558 58.1662 56.6272 58.1662 56.7177C57.8043 57.8032 57.8043 58.8887 57.8043 59.9742ZM56.8997 80.0565C58.6185 80.0565 60.3372 80.0565 62.056 80.0565C62.5987 80.0565 62.8701 79.7851 62.8701 79.2423C62.8701 78.79 62.8701 78.3377 62.8701 77.8854C62.8701 77.4331 62.5987 77.2522 62.2369 77.1617C61.8751 77.1617 61.5132 77.1617 61.1514 77.1617C60.1563 77.1617 59.704 76.8903 59.704 76.2571C59.704 75.6239 60.1563 75.3525 61.1514 75.3525C63.1415 75.3525 62.9606 75.2621 62.9606 73.5433C62.9606 72.6387 62.7797 72.5482 61.8751 72.5482C58.6185 72.5482 55.4524 72.5482 52.1958 72.5482C51.2007 72.5482 51.1102 72.6387 51.1102 73.7242C51.1102 73.9052 51.1102 74.1765 51.1102 74.3575C51.1102 75.2621 51.2912 75.3525 52.1958 75.3525C53.7336 75.3525 55.2714 75.3525 56.8093 75.3525C57.2616 75.3525 57.6234 75.443 57.8043 75.8048C58.1662 76.438 57.7139 77.1617 56.8997 77.1617C55.2714 77.1617 53.5527 77.1617 51.9244 77.1617C51.3816 77.1617 51.1102 77.4331 51.1102 77.9759C51.1102 78.3377 51.1102 78.6996 51.1102 79.1519C51.1102 79.8755 51.2912 79.966 51.9244 79.966C53.4622 80.0565 55.181 80.0565 56.8997 80.0565ZM54.3668 83.9463H59.4326V81.9561H54.3668V83.9463Z" fill="#B8D66C"/>
<path d="M33.38 51.5631C32.7468 51.5631 32.1135 51.5631 31.4803 51.5631C30.7566 51.5631 30.3948 51.2013 30.3948 50.6585C30.3948 50.0253 30.7566 49.7539 31.4803 49.7539C32.8372 49.7539 34.1037 49.7539 35.4606 49.7539C36.1843 49.7539 36.5461 50.1157 36.5461 50.6585C36.5461 51.2013 36.0938 51.5631 35.4606 51.5631C34.6464 51.5631 34.0132 51.5631 33.38 51.5631Z" fill="#B8D66C"/>
<path d="M80.3289 51.5631C79.6957 51.5631 79.0625 51.5631 78.4293 51.5631C77.7056 51.5631 77.3438 51.2013 77.3438 50.6585C77.3438 50.1157 77.7961 49.7539 78.4293 49.7539C79.7862 49.7539 81.0527 49.7539 82.4096 49.7539C83.1333 49.7539 83.4951 50.1157 83.4951 50.749C83.4951 51.2917 83.1333 51.6536 82.4096 51.6536C81.6859 51.5631 80.9622 51.5631 80.3289 51.5631Z" fill="#B8D66C"/>
<path d="M46.0443 33.1071C45.8634 33.0166 45.592 32.8357 45.4111 32.6548C44.6874 31.4788 43.9637 30.2123 43.24 28.9459C42.9687 28.4936 43.1496 27.9508 43.5114 27.6794C43.9637 27.4081 44.5065 27.4985 44.7779 28.0413C45.5015 29.2173 46.2252 30.4837 46.8585 31.6597C47.3108 32.2929 46.9489 33.1071 46.0443 33.1071Z" fill="#B8D66C"/>
<path d="M79.9672 37.9922C79.8767 38.1731 79.6957 38.4445 79.4244 38.6254C78.2484 39.3491 76.9819 40.0728 75.8059 40.706C75.2632 40.9774 74.7204 40.8869 74.449 40.4346C74.1777 39.9823 74.3586 39.4396 74.8109 39.1682C75.9869 38.4445 77.2533 37.7208 78.4293 37.0876C79.2435 36.6353 79.9672 37.0876 79.9672 37.9922Z" fill="#B8D66C"/>
<path d="M67.6645 33.1076C66.8504 33.1076 66.3981 32.3839 66.6695 31.7507C67.3932 30.4843 68.1169 29.2178 68.8405 27.9514C69.1119 27.4991 69.6547 27.4086 70.0165 27.68C70.4688 27.9514 70.6497 28.4941 70.3783 28.9465C69.6546 30.2129 68.931 31.4793 68.2073 32.6553C68.1169 32.8362 67.8455 33.0172 67.6645 33.1076Z" fill="#B8D66C"/>
<path d="M38.8077 40.7061C38.6267 40.7965 38.4458 40.887 38.2649 40.7965C38.084 40.7061 37.903 40.7061 37.8126 40.6156C36.6366 39.9824 35.5511 39.2587 34.3751 38.6255C33.7418 38.2636 33.561 37.8113 33.8323 37.2686C34.1037 36.8163 34.6465 36.6353 35.2797 36.9972C36.4557 37.6304 37.6317 38.3541 38.8077 39.0778C39.1695 39.3492 39.4409 39.711 39.26 40.1633C39.1695 40.4347 38.9886 40.6156 38.8077 40.7061Z" fill="#B8D66C"/>
</svg>
