<svg width="110" height="110" viewBox="0 0 110 110" fill="none" xmlns="http://www.w3.org/2000/svg">
<path d="M55 105.386C27.2287 105.386 4.61353 82.7711 4.61353 54.9998C4.61353 27.2284 27.2287 4.61328 55 4.61328C82.7714 4.61328 105.387 27.2284 105.387 54.9998C105.387 82.7711 82.7714 105.386 55 105.386Z" fill="white"/>
<path d="M55 9.22697C80.2385 9.22697 100.773 29.7615 100.773 55C100.773 80.2385 80.2385 100.773 55 100.773C29.7615 100.773 9.22698 80.2385 9.22698 55C9.22698 29.7615 29.7615 9.22697 55 9.22697ZM55 0C24.6053 0 0 24.6053 0 55C0 85.3947 24.6053 110 55 110C85.3947 110 110 85.3947 110 55C110 24.6053 85.3043 0 55 0Z" fill="white"/>
<path d="M78.6103 55.1817C78.7007 42.065 68.2073 31.3906 55.181 31.3906C42.0642 31.3906 31.3899 41.7936 31.2994 54.8199C31.2089 67.8462 41.7928 78.611 54.7287 78.7015C67.8454 78.7015 78.5198 68.208 78.6103 55.1817Z" fill="white" stroke="#00424B" stroke-width="2.293" stroke-linecap="round" stroke-linejoin="round"/>
<path d="M72.7302 55.0909C72.7302 45.2307 64.8602 37.1797 55.0904 37.1797C45.2302 37.1797 37.2697 44.9593 37.1792 54.8195C37.0888 64.5892 45.0493 72.6402 54.819 72.7307C64.6792 72.8211 72.6398 64.9511 72.7302 55.0909Z" fill="white" stroke="#00424B" stroke-width="2.293" stroke-linecap="round" stroke-linejoin="round"/>
</svg>
