<svg width="110" height="110" viewBox="0 0 110 110" fill="none" xmlns="http://www.w3.org/2000/svg">
<path d="M110 55C110 85.3947 85.3947 110 55 110C24.6053 110 0 85.3947 0 55C0 24.6053 24.6053 0 55 0C85.3947 0 110 24.6053 110 55Z" fill="white"/>
<path d="M52.7384 24.7852C53.5526 25.0565 54.4572 25.2375 55.1808 25.5993C57.8042 26.8657 59.7943 28.8559 61.3322 31.3888C64.2269 36.0023 65.222 41.0681 64.7697 46.4957C64.4078 50.9283 63.0509 54.999 60.6085 58.7079C58.7993 61.5121 56.5378 63.9546 53.643 65.6733C53.0098 66.0352 52.5575 66.4875 52.3766 67.1207C52.0147 68.2967 51.472 69.4727 51.2006 70.6486C50.5674 73.8148 52.5575 75.2621 55.2713 75.2621C59.342 75.2621 63.0509 74.0861 66.398 71.8246C69.3831 69.8345 71.7351 67.2111 73.3634 64.045C75.0822 60.6075 75.8963 56.9891 75.6249 53.1898C75.2631 48.7572 73.7253 44.7769 70.8305 41.3394C69.3831 39.6207 67.6644 38.1733 65.6743 36.9069C65.4029 36.7259 65.222 36.4546 65.041 36.1832C64.5887 35.4595 64.2269 34.7358 63.8651 33.9217L63.9555 33.8312C64.8601 34.374 65.8552 34.8263 66.7598 35.369C71.3733 38.2638 74.6299 42.3345 76.3486 47.5812C77.2532 50.3855 77.6151 53.3707 77.4341 56.3559C76.9818 62.1454 74.5394 67.1207 70.3782 71.1009C66.8503 74.448 62.6891 76.3477 57.8947 76.9809C56.2664 77.1618 54.7285 77.3427 53.1003 76.8904C50.3864 76.0763 48.8486 73.8148 49.2105 71.0105C49.4818 68.9299 50.296 67.1207 51.2006 65.3115C52.2861 63.05 53.1907 60.7884 54.0049 58.4365C54.9095 55.994 55.4522 53.3707 55.6331 50.7473C55.8141 48.5763 55.8141 46.4957 55.4522 44.3246C55.2713 43.3296 54.9999 42.425 54.819 41.4299C54.7285 41.4299 54.7285 41.4299 54.6381 41.4299C54.7285 41.9727 54.9095 42.425 54.9999 42.9677C55.1808 44.6865 55.3618 46.4957 55.1808 48.2144C54.5476 55.2704 51.5624 61.5121 47.6726 67.3016C47.6726 67.3016 47.5822 67.3921 47.4917 67.4825C47.3108 66.9398 47.0394 66.4875 46.9489 66.0352C45.9539 62.869 44.8683 59.7029 44.2351 56.3559C43.6924 53.4611 43.5114 50.4759 43.6924 47.4907C44.0542 41.8822 45.9539 36.9069 48.7581 32.1125C49.9341 30.1223 51.1101 28.1322 51.8338 25.9611C51.9243 25.5993 52.0147 25.2375 52.1052 24.8756H52.7384V24.7852Z" stroke="#9AAA6A" stroke-width="1.274" stroke-linecap="round" stroke-linejoin="round"/>
<path d="M46.2253 33.7422C45.9539 34.5563 45.6826 35.28 45.4112 36.0942C45.3207 36.2751 45.1398 36.3655 44.9589 36.456C41.8832 38.1748 39.4408 40.4363 37.5411 43.4215C35.7319 46.2257 34.7368 49.2109 34.375 52.4675C33.9227 56.9001 34.8273 61.0613 37.0888 64.8606C37.1793 65.0415 37.2697 65.3129 37.6316 65.132C39.8026 64.4988 41.7928 65.2224 43.0592 67.1221C43.2401 67.3935 43.3306 67.5744 43.602 67.9363C43.0592 68.2981 42.5164 68.66 41.8832 69.0218C42.3355 69.8359 42.8783 70.5596 43.3306 71.3738C42.7878 71.7356 42.3355 72.007 41.7023 72.3688C41.1595 71.5547 40.7072 70.831 40.1645 70.0169C39.5312 70.3787 38.9885 70.7405 38.4457 71.1024C38.898 71.9165 39.4408 72.6402 39.8931 73.4544C39.3503 73.8162 38.898 74.0876 38.2648 74.4494C37.722 73.6353 37.2697 72.9116 36.727 72.0974C36.2747 72.3688 35.8224 72.6402 35.3701 72.9116C33.6513 70.831 33.6513 68.3886 35.3701 66.3984C35.551 66.1271 35.4605 65.9461 35.3701 65.7652C34.1036 63.6846 33.199 61.4231 32.7467 58.9807C31.3898 51.9248 32.9276 45.5021 37.5411 39.8935C39.7122 37.1797 42.426 35.1896 45.5921 33.7422C45.9539 33.9231 46.0444 33.8326 46.2253 33.7422Z" stroke="#9AAA6A" stroke-width="1.274" stroke-linecap="round" stroke-linejoin="round"/>
</svg>
