<svg width="110" height="110" viewBox="0 0 110 110" fill="none" xmlns="http://www.w3.org/2000/svg">
<path d="M110 55C110 85.3947 85.3947 110 55 110C24.6053 110 0 85.3043 0 55C0 24.6957 24.6053 0 55 0C85.3947 0 110 24.6053 110 55Z" fill="white"/>
<path d="M58.6184 70.1984V23.3398C58.6184 20.4451 56.2664 18.1836 53.4622 18.1836C50.5674 18.1836 48.3059 20.5356 48.3059 23.3398V70.1984C48.3059 71.1935 47.8536 72.1885 47.0395 72.8218C44.4161 74.8119 42.7878 78.0685 42.9688 81.6869C43.2401 87.024 47.4918 91.3662 52.8289 91.728C58.9803 92.0898 64.0461 87.2954 64.0461 81.2346C64.0461 77.8875 62.5082 74.9023 59.9753 72.9122C59.1612 72.1885 58.6184 71.2839 58.6184 70.1984Z" stroke="#F7B853" stroke-width="2.293" stroke-linecap="round" stroke-linejoin="round"/>
<path d="M53.4622 87.2037C56.8095 87.2037 59.5231 84.4902 59.5231 81.1429C59.5231 77.7956 56.8095 75.082 53.4622 75.082C50.1149 75.082 47.4014 77.7956 47.4014 81.1429C47.4014 84.4902 50.1149 87.2037 53.4622 87.2037Z" stroke="#F7B853" stroke-width="2.293" stroke-linecap="round" stroke-linejoin="round"/>
<path d="M53.4622 74.538V23.6992" stroke="#F7B853" stroke-width="2.293" stroke-linecap="round" stroke-linejoin="round"/>
<mask id="mask0_2548_155" style="mask-type:luminance" maskUnits="userSpaceOnUse" x="31" y="31" width="16" height="32">
<path d="M46.3159 31.75H31.7517V62.5066H46.3159V31.75Z" fill="white"/>
</mask>
<g mask="url(#mask0_2548_155)">
<path d="M57.8045 46.5874C57.8045 40.1647 52.7387 35.0084 46.4065 34.918C39.9838 34.918 34.8275 39.9838 34.7371 46.316C34.7371 52.6482 39.8933 57.8949 46.2255 57.9854C52.5578 58.0759 57.8045 53.0101 57.8045 46.5874Z" stroke="#F7B853" stroke-width="2.293" stroke-linecap="round" stroke-linejoin="round"/>
</g>
</svg>
