<svg width="111" height="120" viewBox="0 0 111 120" fill="none" xmlns="http://www.w3.org/2000/svg">
<g clip-path="url(#clip0_2584_412)">
<mask id="mask0_2584_412" style="mask-type:luminance" maskUnits="userSpaceOnUse" x="9" y="3" width="63" height="62">
<path d="M9.21643 34.2643C9.21643 51.2337 23.1822 64.9876 40.4132 64.9876C57.6441 64.9876 71.6099 51.2337 71.6099 34.2643C71.6099 17.2949 57.6397 3.54102 40.4088 3.54102C23.1778 3.54102 9.21643 17.2949 9.21643 34.2643Z" fill="white"/>
</mask>
<g mask="url(#mask0_2584_412)">
<path d="M73.9654 35.1992H6.62366V32.5809C8.48254 14.1357 20.9015 1.17383 38.5147 1.17383H42.0699C59.6832 1.17383 74.1456 16.3818 73.961 32.5809V35.1992H73.9654Z" fill="#7EC4E2"/>
<path d="M6.62361 35.2461H73.9653V37.2585C74.1499 51.2115 59.9292 68.1376 42.6104 68.1376H37.9786C20.6641 68.1376 4.95369 50.5839 6.62361 37.2585V35.2461Z" fill="#09672F"/>
<path d="M79.274 33.027C79.274 36.4676 80.1529 39.2591 72.9458 39.2591C66.1607 39.2591 66.6133 36.4676 66.6133 33.027C66.6133 29.5864 69.4478 26.7949 72.9458 26.7949C76.4439 26.7949 79.274 29.5864 79.274 33.027Z" fill="#56AFB1"/>
<path d="M72.9459 40.2713C69.9532 40.2713 68.024 39.7433 66.8858 38.6137C65.5543 37.2894 65.5675 35.4284 65.585 33.628V33.0221C65.585 29.0275 68.8897 25.7773 72.9459 25.7773C77.002 25.7773 80.3023 29.0275 80.3023 33.0221C80.3023 33.3597 80.3111 33.6886 80.3199 34.0089C80.3638 35.6621 80.4078 37.3673 79.1729 38.618C78.0435 39.7562 76.1231 40.2669 72.9459 40.2669M72.9459 27.8028C70.0235 27.8028 67.6417 30.1441 67.6417 33.0221C67.6417 33.2299 67.6417 33.4376 67.6417 33.641C67.6285 35.3895 67.6549 36.4974 68.3492 37.1855C69.0567 37.8866 70.6036 38.2458 72.9503 38.2458C75.4244 38.2458 77.024 37.8996 77.7051 37.2072C78.3072 36.6013 78.3116 35.6188 78.272 34.0651C78.2632 33.7276 78.2545 33.377 78.2545 33.0265C78.2545 30.1485 75.877 27.8071 72.9547 27.8071" fill="#00424B"/>
<path d="M73.7369 42.808C73.7369 48.7069 73.438 53.4891 62.8912 53.4891C51.1007 53.4891 52.0499 48.7069 52.0499 42.808C52.0499 36.9092 56.9058 32.127 62.8912 32.127C68.8765 32.127 73.7369 36.9092 73.7369 42.808Z" fill="#91A772"/>
<path d="M62.8911 54.4966C57.9165 54.4966 54.7613 53.6656 52.9683 51.8782C50.9424 49.8615 50.9776 47.0267 51.0127 44.0232C51.0171 43.625 51.0215 43.2182 51.0215 42.8071C51.0215 36.3586 56.3477 31.1133 62.8955 31.1133C69.4434 31.1133 74.7695 36.3586 74.7695 42.8071C74.7695 48.2861 74.7695 54.4966 62.8955 54.4966M62.8911 33.1387C57.4771 33.1387 53.0738 37.4752 53.0738 42.8071C53.0738 43.2269 53.0694 43.638 53.065 44.0492C53.0342 46.8363 53.0078 49.0435 54.4273 50.4587C55.7896 51.8176 58.5581 52.4755 62.8911 52.4755C72.7085 52.4755 72.7085 48.4203 72.7085 42.8071C72.7085 37.1939 68.3052 33.1387 62.8911 33.1387Z" fill="#00424B"/>
<path d="M67.8174 13.9795C67.8174 19.8783 62.9614 24.6606 56.9761 24.6606C50.9907 24.6606 46.1304 19.8783 46.1304 13.9795C46.1304 8.08066 50.9863 3.30273 56.9761 3.30273C62.9658 3.30273 67.8174 8.08499 67.8174 13.9838" fill="#F7B853"/>
<path d="M56.9761 25.6743C50.4326 25.6743 45.1021 20.429 45.1021 13.9848C45.1021 7.54068 50.4282 2.29102 56.9761 2.29102C63.5239 2.29102 68.8501 7.53635 68.8501 13.9848C68.8501 20.4333 63.5239 25.6743 56.9761 25.6743ZM56.9761 4.31211C51.562 4.31211 47.1587 8.6486 47.1587 13.9805C47.1587 19.3124 51.562 23.6489 56.9761 23.6489C62.3901 23.6489 66.7934 19.3124 66.7934 13.9805C66.7934 8.6486 62.3901 4.31211 56.9761 4.31211Z" fill="#00424B"/>
</g>
<path d="M40.4088 65.9953C22.6417 65.9953 8.18811 51.7481 8.18811 34.2377C8.18811 16.7273 22.6417 2.48438 40.4088 2.48438C58.1759 2.48438 72.6339 16.7316 72.6339 34.242C72.6339 51.7524 58.1759 65.9997 40.4088 65.9997M40.4088 4.5098C23.7755 4.5098 10.2404 17.8482 10.2404 34.242C10.2404 50.6359 23.7711 63.9742 40.4088 63.9742C57.0465 63.9742 70.5772 50.6359 70.5772 34.242C70.5772 17.8482 57.0465 4.5098 40.4088 4.5098Z" fill="#00424B"/>
<path d="M35.7506 33.5415C35.7506 43.3873 30.6617 48.373 24.505 48.373C18.3483 48.373 13.3605 43.4695 13.3605 33.6237C13.3605 15.7931 20.7872 8.95508 24.5533 8.95508C28.526 8.95508 35.7462 23.7 35.7462 33.5458" fill="#9BC663"/>
<path d="M24.505 49.3847C17.109 49.3847 12.3322 43.1959 12.3322 33.6228C12.3322 16.1037 19.6271 7.94141 24.5533 7.94141C27.9108 7.94141 31.2814 14.3682 32.5734 17.1337C35.2057 22.7513 36.7745 28.8881 36.7745 33.5449C36.7745 45.2387 30.1651 49.3891 24.505 49.3891M24.5533 9.96251C21.8375 9.96251 14.3888 15.5714 14.3888 33.6228C14.3888 42.0967 18.2648 47.3636 24.505 47.3636C30.7452 47.3636 34.7223 41.9409 34.7223 33.5449C34.7223 23.3312 27.2779 9.96683 24.5577 9.96683" fill="#00424B"/>
<path d="M59.1339 23.5398L44.0475 15.0702C41.5602 13.6723 38.4708 13.6767 35.9835 15.0702L20.8971 23.5398C18.3131 24.994 16.7047 27.7335 16.7047 30.6894V51.3678C16.7047 55.8904 20.3961 59.5733 24.9269 59.5733H55.0997C59.6348 59.5733 63.3263 55.8947 63.3263 51.3678V30.6894C63.3263 27.7291 61.7179 24.9896 59.1339 23.5398Z" fill="#00424B"/>
<path d="M60.8917 51.6528C60.8917 54.8554 58.2945 57.4607 55.1041 57.4607H24.9313C21.7408 57.4607 19.1437 54.8554 19.1437 51.6528V30.9744C19.1437 28.8754 20.2775 26.9322 22.1056 25.9065L37.192 17.4369C38.0621 16.9479 39.0421 16.7012 40.0177 16.7012C40.9933 16.7012 41.9732 16.9435 42.8434 17.4369L57.9298 25.9065C59.7579 26.9322 60.8917 28.8754 60.8917 30.9744V51.6528Z" fill="#F2ECE8"/>
<path d="M24.4039 32.7319C24.4039 42.5777 19.3151 47.5634 13.1583 47.5634C7.00158 47.5634 2.01819 42.6599 2.01819 32.8098C2.01819 22.9596 9.39221 7.41406 13.1627 7.41406C17.1354 7.41406 24.4083 22.8861 24.4083 32.7319" fill="#91A772"/>
<path d="M13.1627 48.5751C5.76672 48.5751 0.989868 42.3863 0.989868 32.8132C0.989868 23.24 8.14416 6.40039 13.1627 6.40039C18.1813 6.40039 25.4322 23.1967 25.4322 32.7309C25.4322 44.4247 18.8229 48.5751 13.1627 48.5751ZM13.1627 8.42582C10.5919 8.42582 3.04651 22.8159 3.04651 32.8132C3.04651 41.2871 6.92248 46.554 13.1627 46.554C19.4029 46.554 23.38 41.1313 23.38 32.7353C23.38 22.4869 15.8258 8.43014 13.1627 8.43014" fill="#00424B"/>
<path d="M14.5162 52.1116L11.9103 49.2552V33.3244C11.9103 32.6147 12.4948 32.0391 13.2111 32.0391C13.9274 32.0391 14.5162 32.6147 14.5162 33.3244V52.1116Z" fill="#00424B"/>
<path d="M33.0567 74.1523L26.9352 90.94L20.818 74.1523H12.4684L23.3976 100.868H30.3234L41.2525 74.1523H33.0567Z" fill="black"/>
<path d="M51.7467 74.1484H44.2408V100.678H51.7467V74.1484Z" fill="black"/>
<path d="M55.2931 74.1523V100.678H75.8067V94.2378H62.7594V74.1523H55.2931Z" fill="black"/>
<path d="M93.644 82.6791L96.6455 90.2226H90.603L93.644 82.6791ZM90.102 73.9629L78.6323 100.679H86.481L88.4058 95.9396H98.7944L100.759 100.679H108.761L97.2915 73.9629H90.0977H90.102Z" fill="black"/>
<path d="M86.9687 18.1898H78.0083V4.27148H103.782V66.1292H86.9687V18.1898Z" fill="black"/>
<path d="M30.8639 39.2155C29.9718 39.2804 29.2951 40.0465 29.361 40.925C29.4269 41.8036 30.2091 42.4657 31.0968 42.4051C35.4211 42.0979 39.1828 45.3091 39.4948 49.5634C39.5475 50.2775 40.2902 50.9266 41.0944 50.9743C41.1032 50.9743 41.112 50.9743 41.1252 50.9743H41.1515C42.0436 50.9093 42.7204 50.1433 42.6544 49.2604C42.2194 43.2923 36.9284 38.7827 30.8683 39.2155M43.4235 36.7357C39.8156 33.637 35.1794 32.1179 30.3673 32.4598C29.4753 32.5247 28.7985 33.2907 28.8644 34.1693C28.9303 35.0478 29.7082 35.71 30.6003 35.6494C34.5378 35.3681 38.339 36.6145 41.2921 39.1549C44.2057 41.6651 45.9459 45.1317 46.1876 48.9315C46.2184 49.36 46.4162 49.7495 46.7414 50.0265C47.0138 50.2558 47.3478 50.39 47.7038 50.4116C47.7741 50.416 47.8488 50.4116 47.9191 50.4116C48.3541 50.3813 48.7497 50.1866 49.0353 49.8663C49.3209 49.5461 49.4572 49.1306 49.422 48.7065C49.1188 44.054 46.9875 39.8041 43.4191 36.7357M56.1369 48.2304C55.6622 41.7776 52.6784 35.9004 47.7257 31.6808C42.7731 27.4611 36.4362 25.3924 29.8883 25.8598C28.9963 25.9248 28.3195 26.6908 28.3854 27.5693C28.4162 27.9718 28.6579 28.3657 29.0666 28.6686C29.4093 28.9196 29.8268 29.0711 30.1213 29.0494C41.8766 28.2185 52.1334 36.9564 52.9816 48.5334C53.0123 48.9618 53.1969 49.3383 53.4957 49.5937C53.7418 49.8057 54.0582 49.9269 54.4054 49.9442C54.4801 49.9486 54.5592 49.9442 54.6339 49.9442C55.526 49.8793 56.2028 49.1133 56.1369 48.2347M34.5114 46.8758C32.6964 45.3264 29.9411 45.5255 28.3678 47.3129C26.799 49.1003 26.9967 51.8139 28.8117 53.3632C29.5631 54.0037 30.4816 54.3456 31.4045 54.3976C32.7096 54.4711 34.0324 53.9734 34.9508 52.9261C36.5241 51.1387 36.3219 48.4252 34.507 46.8758" fill="#00424B"/>
<path d="M22.9757 118.523H21.1783L20.1984 116.221H15.6193L14.6261 118.523H12.8815L17.1398 108.924H18.7174L22.9757 118.523ZM17.9044 110.923L16.2433 114.736H19.5743L17.9 110.923H17.9044Z" fill="black"/>
<path d="M28.7721 111.97C28.838 112.104 28.9523 112.234 29.1237 112.351C29.295 112.472 29.5323 112.58 29.8312 112.68C30.13 112.779 30.5123 112.883 30.9738 112.996C31.4835 113.121 31.9318 113.264 32.3229 113.42C32.714 113.571 33.0436 113.762 33.2985 113.987C33.5577 114.207 33.7511 114.467 33.8873 114.761C34.0192 115.056 34.0895 115.402 34.0895 115.804C34.0895 116.259 34.006 116.661 33.8346 117.016C33.6632 117.371 33.4303 117.67 33.1271 117.912C32.8238 118.159 32.4635 118.345 32.0372 118.47C31.6154 118.596 31.1495 118.661 30.6398 118.661C29.8927 118.661 29.1808 118.535 28.4996 118.289C27.8185 118.038 27.1857 117.657 26.6056 117.137L27.6295 115.939C28.0997 116.337 28.5743 116.644 29.0533 116.856C29.5323 117.068 30.0773 117.176 30.6837 117.176C31.2111 117.176 31.6285 117.068 31.9362 116.847C32.2438 116.631 32.3976 116.332 32.3976 115.965C32.3976 115.791 32.3668 115.636 32.3053 115.501C32.2438 115.363 32.1339 115.237 31.9713 115.125C31.8087 115.012 31.589 114.904 31.3077 114.805C31.0265 114.705 30.6573 114.601 30.2047 114.489C29.6862 114.372 29.2291 114.238 28.8248 114.095C28.4249 113.948 28.0865 113.766 27.8141 113.55C27.5416 113.333 27.3351 113.069 27.1901 112.762C27.045 112.455 26.9747 112.078 26.9747 111.632C26.9747 111.217 27.0582 110.836 27.2208 110.494C27.3834 110.152 27.6119 109.862 27.8976 109.616C28.1876 109.373 28.5304 109.183 28.9391 109.049C29.3434 108.919 29.7872 108.85 30.2662 108.85C30.9738 108.85 31.6154 108.953 32.1822 109.157C32.7491 109.36 33.2809 109.659 33.7775 110.048L32.8678 111.312C32.4239 110.996 31.9889 110.754 31.5538 110.585C31.1188 110.416 30.6837 110.334 30.2399 110.334C29.7433 110.334 29.3566 110.447 29.0797 110.667C28.8029 110.892 28.6666 111.161 28.6666 111.477C28.6666 111.667 28.6974 111.831 28.7633 111.966" fill="black"/>
<path d="M46.9918 114.394C46.9918 115.104 46.8907 115.722 46.693 116.259C46.4952 116.796 46.214 117.241 45.858 117.601C45.4977 117.96 45.0626 118.228 44.5529 118.406C44.0431 118.583 43.4674 118.67 42.8302 118.67C42.193 118.67 41.6393 118.583 41.1295 118.406C40.6197 118.228 40.1891 117.964 39.8287 117.609C39.4684 117.254 39.1959 116.817 38.9982 116.294C38.8048 115.774 38.7081 115.164 38.7081 114.476V108.988H40.3956V114.407C40.3956 115.298 40.6154 115.973 41.0504 116.436C41.4855 116.9 42.0875 117.133 42.8566 117.133C43.6256 117.133 44.2145 116.908 44.6495 116.467C45.0846 116.021 45.3043 115.359 45.3043 114.48V108.993H46.9918V114.398V114.394Z" fill="black"/>
<path d="M58.8439 108.988H60.527V118.522H59.1075L53.7814 111.741V118.522H52.0939V108.988H53.6671L58.8439 115.58V108.988Z" fill="black"/>
<path d="M73.4205 117.696C73.1481 117.899 72.858 118.077 72.5416 118.228C72.2296 118.38 71.8868 118.492 71.5133 118.57C71.1398 118.648 70.7267 118.687 70.274 118.687C69.5665 118.687 68.9117 118.561 68.3097 118.306C67.712 118.051 67.1935 117.705 66.754 117.263C66.3146 116.822 65.9718 116.302 65.7257 115.705C65.4796 115.108 65.3522 114.463 65.3522 113.771C65.3522 113.078 65.4752 112.451 65.7169 111.849C65.963 111.252 66.3058 110.724 66.7452 110.278C67.1847 109.832 67.712 109.473 68.3229 109.218C68.9293 108.958 69.6017 108.828 70.34 108.828C70.7838 108.828 71.1837 108.867 71.5485 108.936C71.9132 109.01 72.2472 109.109 72.5504 109.244C72.8536 109.373 73.1349 109.534 73.3942 109.711C73.6534 109.893 73.8951 110.092 74.128 110.308L73.0338 111.546C72.6471 111.191 72.234 110.905 71.8033 110.689C71.3727 110.473 70.8761 110.36 70.3224 110.36C69.861 110.36 69.4347 110.447 69.0436 110.624C68.6525 110.802 68.3141 111.04 68.0284 111.347C67.7428 111.65 67.5187 112.009 67.3649 112.416C67.2067 112.823 67.1276 113.264 67.1276 113.736C67.1276 114.208 67.2067 114.649 67.3649 115.065C67.5187 115.476 67.7428 115.839 68.0284 116.146C68.3141 116.454 68.6525 116.696 69.0436 116.874C69.4347 117.051 69.861 117.138 70.3224 117.138C70.9113 117.138 71.421 117.025 71.8429 116.804C72.2648 116.579 72.6866 116.281 73.0997 115.9L74.194 116.99C73.9479 117.254 73.6842 117.488 73.4117 117.692" fill="black"/>
<path d="M80.5353 108.988H78.8478V118.522H80.5353V108.988Z" fill="black"/>
<path d="M95.2173 115.649C94.9712 116.246 94.6196 116.774 94.167 117.22C93.7144 117.666 93.1826 118.025 92.563 118.289C91.9478 118.553 91.2622 118.683 90.5151 118.683C89.7681 118.683 89.0869 118.553 88.4673 118.294C87.8477 118.034 87.3203 117.683 86.8765 117.238C86.4326 116.792 86.0898 116.272 85.8394 115.671C85.5889 115.069 85.4658 114.437 85.4658 113.762C85.4658 113.087 85.5889 112.455 85.8394 111.858C86.0898 111.261 86.437 110.733 86.8897 110.287C87.3423 109.837 87.874 109.482 88.4937 109.218C89.1133 108.954 89.7944 108.824 90.5415 108.824C91.2886 108.824 91.9697 108.954 92.5894 109.214C93.2046 109.473 93.7363 109.824 94.1802 110.27C94.624 110.715 94.9668 111.235 95.2173 111.836C95.4678 112.434 95.5908 113.07 95.5908 113.741C95.5908 114.411 95.4678 115.048 95.2173 115.649ZM93.5649 112.455C93.4023 112.044 93.1782 111.681 92.8882 111.373C92.5981 111.066 92.2466 110.819 91.8423 110.638C91.438 110.456 90.9941 110.365 90.5151 110.365C90.0361 110.365 89.5967 110.451 89.1968 110.629C88.7969 110.806 88.4497 111.049 88.1685 111.352C87.8828 111.655 87.6587 112.014 87.4961 112.429C87.3335 112.84 87.2544 113.282 87.2544 113.745C87.2544 114.208 87.3335 114.645 87.4961 115.061C87.6587 115.472 87.8828 115.835 88.1729 116.143C88.4629 116.45 88.8101 116.697 89.2144 116.878C89.6187 117.06 90.0625 117.151 90.5415 117.151C91.0205 117.151 91.46 117.064 91.8599 116.887C92.2598 116.71 92.6069 116.472 92.8882 116.164C93.1738 115.861 93.3979 115.502 93.5605 115.087C93.7231 114.675 93.8022 114.234 93.8022 113.771C93.8022 113.308 93.7231 112.871 93.5605 112.455" fill="black"/>
<path d="M107.166 108.988H108.854V118.522H107.43L102.104 111.741V118.522H100.416V108.988H101.989L107.166 115.58V108.988Z" fill="black"/>
<path d="M89.9395 108.141L91.4116 105.895L92.9409 106.565L91.2446 108.141H89.9395Z" fill="black"/>
</g>
<defs>
<clipPath id="clip0_2584_412">
<rect width="107.864" height="116.202" fill="white" transform="translate(0.989868 2.48438)"/>
</clipPath>
</defs>
</svg>
