<svg width="191" height="80" viewBox="0 0 191 80" fill="none" xmlns="http://www.w3.org/2000/svg">
<path d="M12.0218 40.3213L19.6725 40.3346L31.7859 9.88512L22.7352 9.8705L15.9485 29.0048L9.22062 9.85055L0 9.83594L12.0218 40.3213Z" fill="#00424B"/>
<path d="M34.99 9.89062L43.2773 9.90392L43.2317 40.3362L34.9443 40.3242L34.99 9.89062Z" fill="#00424B"/>
<path d="M55.4034 17.2653L46.4783 17.2521L46.4901 9.84375L72.5821 9.88363L72.5703 17.2933L63.6464 17.2786L63.6124 40.3331L55.3683 40.3198L55.4034 17.2653Z" fill="#00424B"/>
<path d="M75.7812 9.88281L89.846 9.90408C94.3935 9.97851 97.536 11.1935 99.5307 13.2699C101.269 15.0007 102.158 17.3363 102.156 20.318V20.4058C102.146 25.0291 99.7215 28.0945 96.0224 29.6883L103.102 40.2431L93.5832 40.2286L87.6069 31.0576H87.5207L83.9927 31.051L83.9782 40.214L75.7354 40.2006L75.7812 9.88281ZM89.4409 24.4935C92.246 24.4973 93.8629 23.115 93.8655 20.9121V20.8245C93.8694 18.449 92.1727 17.2366 89.4095 17.2313L84.0122 17.222L84.0005 24.4841L89.4409 24.4935Z" fill="#00424B"/>
<path d="M106.358 9.875L106.312 40.2353L114.598 40.2483L114.644 9.88797L106.358 9.875Z" fill="#00424B"/>
<path d="M117.839 27.0074L117.878 9.875L126.249 9.8883L126.21 26.8464C126.202 31.2119 128.366 33.2897 131.681 33.2951C134.996 33.2991 137.165 31.3157 137.173 27.0804L137.199 9.88432L145.572 9.8976L145.546 26.8346C145.532 36.6011 140.043 40.8709 131.586 40.8576C123.129 40.8456 117.824 36.4707 117.839 27.0074Z" fill="#00424B"/>
<path d="M148.818 9.88281L157.53 9.8961L164.61 21.6181L171.725 9.9187L180.436 9.932L180.39 40.343L172.188 40.331L172.215 22.7985L164.59 34.6268H164.42L156.873 22.8596L156.848 40.3323L148.772 40.3203L148.818 9.88281Z" fill="#00424B"/>
<path d="M0.358414 65.037V64.9545C0.371486 56.5346 6.7543 49.9411 15.358 49.9531C21.1603 49.9625 24.891 52.4443 27.402 55.999L21.4702 60.6515C19.8493 58.5858 17.984 57.2618 15.2651 57.2565C11.2862 57.2511 8.48103 60.6728 8.47581 64.8828V64.9652C8.46926 69.2988 11.2653 72.6872 15.2416 72.6938C18.2048 72.6992 19.9513 71.2995 21.6583 69.1965L27.5798 73.4995C24.8948 77.2508 21.2793 80.0105 14.988 80.0012C6.87063 79.9892 0.346651 73.663 0.358414 65.037Z" fill="#00424B"/>
<path d="M40.5123 50.3633L48.103 50.3739L60.1548 79.4928L51.712 79.4795L49.6507 74.3163L38.6915 74.3005L36.655 79.4568L28.3755 79.445L40.5123 50.3633ZM47.3867 68.0791L44.2325 59.8626L41.0143 68.0698L47.3867 68.0791Z" fill="#00424B"/>
<path d="M63.3975 50.6055L75.5736 50.6226C82.7564 50.6333 87.3784 54.398 87.3681 60.7946V60.8771C87.3576 67.6871 82.1969 71.2711 75.1357 71.2591L71.2404 71.2525L71.2286 79.5075L63.3557 79.497L63.3975 50.6055ZM74.9841 64.986C77.7841 64.99 79.4897 63.5078 79.4937 61.2373V61.155C79.4977 58.6796 77.7957 57.3556 74.9554 57.3505L71.2614 57.3438L71.2509 64.9793L74.9841 64.986Z" fill="#00424B"/>
<path d="M90.6172 50.6484L90.573 79.54L98.4863 79.5525L98.5307 50.6609L90.6172 50.6484Z" fill="#00424B"/>
<path d="M110.222 57.6936L101.699 57.6816L101.71 50.6641L126.629 50.7014L126.619 57.7189L118.096 57.7069L118.063 79.5822L110.189 79.5689L110.222 57.6936Z" fill="#00424B"/>
<path d="M135.981 50.5117L143.572 50.5237L155.624 79.6397L147.181 79.6279L145.119 74.4634L134.16 74.4474L132.124 79.6039L123.844 79.5919L135.981 50.5117ZM142.855 68.2289L139.701 60.0111L136.483 68.2196L142.855 68.2289Z" fill="#00424B"/>
<path d="M158.864 50.75L166.739 50.762L166.705 72.6374L180.464 72.6587L180.452 79.6749L158.822 79.6415L158.864 50.75Z" fill="#00424B"/>
<path d="M176.465 6.85665H183.65V14.1626L190.392 21.0178V0H169.723L176.465 6.85665Z" fill="#00424B"/>
</svg>
