<svg width="193" height="46" viewBox="0 0 193 46" fill="none" xmlns="http://www.w3.org/2000/svg">
<g clip-path="url(#clip0_2649_267)">
<path d="M32.5674 17.2983L30.6608 17.8787C29.0437 12.1965 26.2149 8.94869 21.3072 8.94869H14.8982C14.4912 14.2516 14.3752 19.5725 14.5508 24.8878L18.8244 24.6562C21.7125 24.6562 22.9242 22.5106 23.6177 19.38H25.2347V32.5413H23.6177C22.9284 29.3535 21.7125 27.2092 18.8244 27.0348L14.5508 26.9762C14.5508 31.6721 14.6087 35.6733 14.8982 38.1077C15.1877 41.5871 16.1114 43.1483 18.5942 43.4998L20.9033 43.7314V45.2381H0V43.7382L1.73146 43.5066C4.15637 43.1592 5.13929 41.5993 5.42741 38.1145C5.94741 29.9487 5.94741 21.7587 5.42741 13.5928C5.13929 9.99904 4.15775 8.55226 1.73146 8.258L0 7.96783V6.39844H32.5095L32.5674 17.2983Z" fill="black"/>
<path d="M77.3171 25.1862C73.5632 22.6346 69.5213 23.7367 68.712 25.1862C68.3834 30.129 68.4032 35.0885 68.7713 40.0286C68.9436 42.3446 69.5792 43.335 71.3107 43.508L73.6211 43.7396V45.2463H56.4138V43.7396L57.7414 43.508C59.415 43.335 59.994 42.3487 60.1098 40.0286C60.5715 34.7045 60.5715 29.351 60.1098 24.0269C59.994 21.5325 59.4205 20.6061 57.7414 20.3745L56.4138 20.2001V19.1566L68.712 16.7207L68.5452 23.2176C71.432 16.4919 77.1489 15.6799 80.2631 17.4768L77.3171 25.1862Z" fill="black"/>
<path d="M127.552 27.91C127.725 24.0833 126.975 18.5741 123.914 18.5741C120.797 18.5741 119.064 23.7359 119.007 28.1416L127.552 27.91ZM124.666 16.7186C132.346 16.7186 136.042 22.5166 136.098 30.1129H118.834C118.776 36.8387 122.241 41.9406 128.708 41.9406C130.954 42.0082 133.15 41.267 134.885 39.8548L135.693 40.7812C134.392 42.453 132.71 43.7973 130.784 44.7043C128.857 45.6113 126.741 46.0554 124.608 46.0003C116.176 46.0003 110.345 40.0265 110.345 31.6196C110.345 24.0247 115.14 16.7186 124.666 16.7186ZM99.7783 30.8077C99.6046 24.7781 97.4678 20.025 93.3679 20.025C92.3779 20.0371 91.399 20.2335 90.4825 20.6039C90.4825 30.2287 90.597 41.1286 90.8272 43.7388C91.5013 43.9411 92.203 44.039 92.9075 44.029C96.8901 44.029 99.7783 38.2296 99.7783 30.8145M108.325 30.3513C108.325 39.8603 102.493 46.0057 92.6194 46.0057C89.1324 45.9555 85.663 45.5075 82.2801 44.6706C82.5696 40.8439 82.5696 17.1873 82.2801 12.7243C81.9919 10.4084 81.3564 9.30216 79.6249 9.07056L78.4697 8.95477V7.90578L90.6521 5.58984C90.5942 7.56112 90.4798 12.7229 90.4798 18.8043C92.5409 17.6559 94.8686 17.0564 97.2348 17.0646C103.587 17.0646 108.323 22.6311 108.323 30.3431M36.9526 31.3853C36.9526 38.4585 38.7999 44.2565 42.5538 44.2565C46.5957 44.2565 47.751 38.5756 47.751 31.3853C47.751 24.195 45.9588 18.5714 42.1498 18.5714C38.1079 18.5714 36.9526 24.0806 36.9526 31.3853ZM56.469 31.2709C56.469 39.3889 51.2719 45.9989 41.9748 45.9989C32.8528 45.9989 28.2332 39.7322 28.2332 31.5038C28.2332 23.4444 33.4304 16.7173 42.7261 16.7173C51.8495 16.7173 56.469 23.0384 56.469 31.2709Z" fill="black"/>
<path d="M157.695 25.359L156.25 25.7677C154.872 20.8974 152.554 18.8103 149.262 18.8103C148.725 18.7897 148.19 18.882 147.692 19.0813C147.194 19.2805 146.745 19.582 146.374 19.9659C146.003 20.3498 145.718 20.8072 145.54 21.3079C145.361 21.8085 145.292 22.341 145.337 22.87C145.337 25.2459 147.243 26.5237 152.382 28.668C157.117 30.4663 159.08 32.6678 159.08 36.4945C159.08 42.3525 154.634 46.0049 147.302 46.0049C143.971 45.9918 140.668 45.4026 137.543 44.2638L137.253 36.1485L138.632 35.8583C140.711 41.4234 143.367 43.5105 146.832 43.5105C147.426 43.5453 148.021 43.4579 148.58 43.2539C149.139 43.0499 149.648 42.7336 150.077 42.3252C150.506 41.9167 150.844 41.4248 151.07 40.8806C151.297 40.3364 151.407 39.7516 151.393 39.1633C151.393 36.9591 150.18 35.684 145.504 33.9429C141.058 32.4376 137.998 30.4649 137.998 25.5933C137.998 20.7816 142.098 16.7219 149.084 16.7219C151.913 16.6477 154.727 17.1615 157.342 18.23L157.695 25.359Z" fill="black"/>
<path d="M145.5 8.86566C145.5 8.8005 145.514 8.73608 145.54 8.6763C145.566 8.61652 145.605 8.56264 145.653 8.51792C145.701 8.4732 145.757 8.43858 145.819 8.41616C145.881 8.39374 145.947 8.38398 146.013 8.38749C146.079 8.38379 146.145 8.3934 146.207 8.41574C146.269 8.43807 146.326 8.47266 146.374 8.5174C146.422 8.56214 146.46 8.61609 146.487 8.67596C146.513 8.73584 146.527 8.80038 146.527 8.86566C146.526 8.93054 146.512 8.99459 146.486 9.05391C146.459 9.11324 146.42 9.16661 146.372 9.21081C146.324 9.255 146.268 9.2891 146.206 9.31103C146.144 9.33296 146.078 9.34226 146.013 9.33839C145.947 9.34207 145.882 9.33262 145.82 9.31061C145.759 9.28859 145.702 9.25447 145.654 9.21029C145.606 9.16612 145.568 9.1128 145.541 9.05357C145.515 8.99434 145.501 8.93042 145.5 8.86566ZM145.209 12.5357L145.361 12.4949C145.552 12.4431 145.577 12.4145 145.577 12.1666V10.3806C145.577 10.1326 145.547 10.1163 145.384 10.0059L145.193 9.87923V9.76479L146.469 9.62856L146.528 9.66807C146.516 9.84653 146.505 10.0536 146.505 10.3315V12.1761C146.505 12.4349 146.528 12.4581 146.721 12.5044L146.873 12.5453V12.7006H145.211L145.209 12.5357Z" fill="black"/>
<path d="M147.045 12.5426L147.197 12.5017C147.389 12.4499 147.412 12.4213 147.412 12.1734V10.3819C147.412 10.134 147.383 10.1163 147.219 10.0073L147.027 9.88061V9.76208L148.257 9.62585L148.32 9.66536L148.309 10.0345H148.331C148.653 9.78666 149.044 9.64381 149.451 9.62585C149.556 9.61354 149.662 9.6252 149.762 9.65994C149.861 9.69468 149.951 9.75157 150.025 9.82622C150.099 9.90086 150.154 9.99127 150.187 10.0905C150.22 10.1896 150.23 10.295 150.215 10.3983V12.1693C150.215 12.4227 150.238 12.4513 150.424 12.4976L150.576 12.5385V12.6938H148.949V12.5385L149.087 12.5044C149.262 12.4581 149.279 12.4404 149.279 12.1707V10.6231C149.279 10.2716 149.15 10.1626 148.876 10.1626C148.693 10.1681 148.512 10.1932 148.334 10.2375V12.1734C148.334 12.4458 148.352 12.4608 148.526 12.5072L148.664 12.5412V12.6965H147.037L147.045 12.5426Z" fill="black"/>
<path d="M152.433 12.1902V11.268L152.164 11.2898C151.868 11.3129 151.709 11.4464 151.709 11.8606C151.709 12.2352 151.879 12.3564 152.106 12.3564C152.171 12.3615 152.236 12.3487 152.293 12.3193C152.351 12.29 152.399 12.2453 152.433 12.1902ZM150.795 12.005C150.795 11.4982 151.185 11.2734 151.844 11.1181L152.433 10.9737V10.4724C152.433 9.99419 152.339 9.84978 152.019 9.84978C151.844 9.84978 151.786 9.8961 151.774 10.0569C151.745 10.4206 151.622 10.565 151.319 10.565C151.063 10.565 150.922 10.4288 150.922 10.2067C150.922 9.83888 151.4 9.625 152.211 9.625C152.94 9.625 153.365 9.84842 153.365 10.4138V12.0104C153.365 12.2229 153.388 12.3101 153.503 12.3673C153.59 12.4038 153.684 12.4233 153.778 12.4246V12.5608C153.58 12.6997 153.341 12.7705 153.097 12.7624C152.76 12.7624 152.554 12.6357 152.491 12.4109H152.462C152.367 12.5255 152.247 12.6169 152.11 12.6778C151.973 12.7388 151.824 12.7678 151.675 12.7624C151.123 12.7624 150.801 12.49 150.801 12.0022" fill="black"/>
<path d="M127.31 11.1837H128.301L127.817 9.77781H127.787L127.31 11.1837ZM126.196 12.5379L126.342 12.4984C126.517 12.4466 126.569 12.3894 126.739 11.9167L127.911 8.70703H128.494L129.7 11.933C129.859 12.3594 129.922 12.4575 130.09 12.5093L130.213 12.5379V12.7H128.271V12.5379L128.435 12.4984C128.586 12.4589 128.644 12.3894 128.644 12.2681C128.627 12.124 128.59 11.9828 128.534 11.8485L128.388 11.4398H127.228L127.09 11.8485C127.043 11.9746 127.013 12.1067 127.002 12.2409C127.002 12.4016 127.073 12.448 127.253 12.4943L127.417 12.5338V12.6959H126.199L126.196 12.5379Z" fill="black"/>
<path d="M131.647 12.128C131.685 12.3746 131.751 12.4781 131.936 12.4972L132.18 12.5217V12.6811H130.355V12.5217L130.493 12.4972C130.669 12.4795 130.731 12.3746 130.744 12.128V10.4306C130.731 10.1663 130.669 10.0668 130.493 10.0423L130.355 10.0246V9.91424L131.64 9.6554V10.3447C131.947 9.63224 132.554 9.54505 132.881 9.73578L132.568 10.5532C132.437 10.4452 132.272 10.3861 132.102 10.3861C131.931 10.3861 131.766 10.4452 131.636 10.5532L131.647 12.128Z" fill="black"/>
<path d="M134.772 10.6166C134.772 10.0172 134.649 9.84557 134.382 9.84557C134.114 9.84557 133.992 10.0186 133.992 10.5703C133.992 11.1697 134.113 11.3319 134.382 11.3319C134.651 11.3319 134.772 11.1697 134.772 10.6166ZM135.35 13.0824C135.35 12.829 135.198 12.7023 134.837 12.7023H133.858C133.783 12.745 133.721 12.8071 133.679 12.882C133.637 12.957 133.616 13.0418 133.619 13.1274C133.619 13.468 133.823 13.6873 134.36 13.6873C135.035 13.6873 135.35 13.4571 135.35 13.0824ZM132.914 13.2391C132.914 12.9666 133.177 12.7609 133.648 12.6574V12.637C133.511 12.6213 133.383 12.5562 133.291 12.454C133.198 12.3518 133.147 12.2196 133.147 12.0825C133.162 11.9421 133.211 11.8074 133.289 11.6891C133.367 11.5708 133.472 11.4723 133.596 11.4013V11.3782C133.454 11.3131 133.335 11.2086 133.252 11.0775C133.169 10.9464 133.127 10.7943 133.13 10.6398C133.13 9.98316 133.701 9.63169 134.383 9.63169C134.629 9.6264 134.874 9.67284 135.1 9.76792C135.279 9.59511 135.515 9.49286 135.764 9.48047C135.981 9.48047 136.131 9.584 136.131 9.79108C136.131 9.96954 136.055 10.1194 135.846 10.1194C135.78 10.1245 135.714 10.1066 135.66 10.0688C135.606 10.0309 135.567 9.9756 135.549 9.91232C135.497 9.80334 135.369 9.81424 135.228 9.88371V9.90142C135.351 9.96575 135.453 10.0611 135.526 10.1777C135.599 10.2943 135.639 10.428 135.642 10.5649C135.642 11.2215 135.071 11.5621 134.389 11.5621C134.184 11.5635 133.981 11.5304 133.788 11.464C133.714 11.5293 133.668 11.6199 133.659 11.7174C133.659 11.8318 133.741 11.9136 133.95 11.9136H134.97C135.522 11.9136 135.956 12.0866 135.956 12.6914C135.956 13.3549 135.391 13.9175 134.243 13.9175C133.38 13.9175 132.919 13.6696 132.919 13.2364" fill="black"/>
<path d="M137.151 10.8523L138.148 10.8005C138.148 10.103 138.054 9.84692 137.706 9.84692C137.408 9.84692 137.175 10.1194 137.154 10.8496M136.233 11.1902C136.223 10.9878 136.255 10.7856 136.327 10.5959C136.399 10.4062 136.509 10.233 136.651 10.0868C136.793 9.94066 136.964 9.82468 137.153 9.74595C137.342 9.66723 137.545 9.62741 137.75 9.62895C138.555 9.62895 139.055 10.0267 139.073 11.0689H137.143C137.161 12.0144 137.522 12.2732 138.122 12.2732C138.422 12.2726 138.717 12.1972 138.979 12.0539V12.2446C138.82 12.4108 138.627 12.5431 138.414 12.6333C138.2 12.7235 137.971 12.7697 137.739 12.7691C137.528 12.7868 137.316 12.7574 137.118 12.6831C136.92 12.6088 136.742 12.4915 136.596 12.3398C136.451 12.1882 136.341 12.0061 136.277 11.8071C136.212 11.6081 136.193 11.3973 136.222 11.1902" fill="black"/>
<path d="M139.309 12.5426L139.46 12.5017C139.652 12.4499 139.675 12.4213 139.675 12.1734V10.3819C139.675 10.134 139.646 10.1163 139.482 10.0073L139.291 9.88061V9.76208L140.52 9.62585L140.585 9.66536L140.573 10.0345H140.596C140.917 9.78642 141.309 9.64354 141.716 9.62585C141.821 9.61354 141.927 9.6252 142.026 9.65994C142.126 9.69468 142.216 9.75157 142.29 9.82622C142.364 9.90086 142.419 9.99127 142.452 10.0905C142.485 10.1896 142.494 10.295 142.479 10.3983V12.1693C142.479 12.4227 142.503 12.4513 142.689 12.4976L142.839 12.5385V12.6938H141.212V12.5385L141.35 12.5044C141.524 12.4581 141.542 12.4404 141.542 12.1707V10.6231C141.542 10.2716 141.414 10.1626 141.139 10.1626C140.956 10.168 140.774 10.1931 140.596 10.2375V12.1734C140.596 12.4458 140.614 12.4608 140.788 12.5072L140.926 12.5412V12.6965H139.299L139.309 12.5426Z" fill="black"/>
<path d="M143.326 11.9737V10.0488H142.958V9.91256C143.181 9.83195 143.383 9.70337 143.55 9.53611C143.717 9.36884 143.844 9.16706 143.923 8.94531H144.255V9.71094H145.03L144.955 10.0515H144.255V11.9179C144.255 12.2053 144.342 12.3266 144.634 12.3266C144.773 12.3223 144.912 12.305 145.048 12.2748V12.4356C144.796 12.6627 144.466 12.7848 144.125 12.7761C144.016 12.7936 143.903 12.785 143.797 12.7513C143.691 12.7175 143.595 12.6595 143.516 12.5819C143.437 12.5043 143.378 12.4094 143.343 12.3049C143.308 12.2004 143.299 12.0893 143.316 11.9806" fill="black"/>
<path d="M177.803 15.3633H176.623L175.658 12.8115H171.799L170.891 15.3633H169.704L173.195 6.26074H174.3L177.803 15.3633ZM175.309 11.853L173.881 7.97461C173.834 7.84766 173.788 7.64453 173.741 7.36523H173.716C173.673 7.62337 173.625 7.8265 173.57 7.97461L172.154 11.853H175.309ZM185.675 15.3633H184.405L182.882 12.8115C182.742 12.5745 182.607 12.3735 182.475 12.2085C182.344 12.0392 182.209 11.9017 182.069 11.7959C181.934 11.6901 181.786 11.6139 181.625 11.5674C181.468 11.5166 181.29 11.4912 181.092 11.4912H180.216V15.3633H179.149V6.26074H181.866C182.264 6.26074 182.63 6.31152 182.964 6.41309C183.303 6.51042 183.595 6.66064 183.84 6.86377C184.09 7.06689 184.284 7.3208 184.424 7.62549C184.564 7.92594 184.634 8.2793 184.634 8.68555C184.634 9.00293 184.585 9.29492 184.488 9.56152C184.394 9.82389 184.259 10.0588 184.081 10.2661C183.908 10.4735 183.696 10.6512 183.447 10.7993C183.201 10.9432 182.924 11.0553 182.615 11.1357V11.1611C182.767 11.2288 182.899 11.3071 183.009 11.396C183.123 11.4806 183.231 11.5822 183.332 11.7007C183.434 11.8192 183.533 11.9546 183.631 12.1069C183.732 12.255 183.844 12.4285 183.967 12.6274L185.675 15.3633ZM180.216 7.22559V10.5264H181.663C181.929 10.5264 182.175 10.4862 182.399 10.4058C182.628 10.3254 182.824 10.2111 182.99 10.063C183.155 9.91064 183.284 9.72656 183.377 9.51074C183.47 9.29069 183.516 9.04525 183.516 8.77441C183.516 8.28776 183.358 7.90902 183.04 7.63818C182.727 7.36312 182.272 7.22559 181.676 7.22559H180.216Z" fill="black"/>
</g>
<defs>
<clipPath id="clip0_2649_267">
<rect width="193" height="46" fill="white"/>
</clipPath>
</defs>
</svg>
