<svg width="167" height="40" viewBox="0 0 167 40" fill="none" xmlns="http://www.w3.org/2000/svg">
<path d="M6.4979 12.7483C5.35911 12.7483 4.35429 12.2761 3.61743 11.6016V38.1783H9.37836V11.6016C8.6415 12.2761 7.63669 12.7483 6.4979 12.7483Z" fill="#F68E1E"/>
<path d="M6.49787 9.78233C8.27369 9.78233 9.71328 8.30253 9.71328 6.4771C9.71328 4.65168 8.27369 3.17188 6.49787 3.17188C4.72206 3.17188 3.28247 4.65168 3.28247 6.4771C3.28247 8.30253 4.72206 9.78233 6.49787 9.78233Z" fill="#F68E1E"/>
<path d="M14.1345 11.4021H19.6275V15.3145L19.7615 15.4494C20.6323 13.9654 21.7711 12.8187 23.1778 11.9418C24.5846 11.0649 26.1923 10.6602 27.867 10.6602C30.7474 10.6602 33.025 11.4021 34.6327 12.9536C36.3074 14.4376 37.1113 16.731 37.1113 19.7664V38.1138H31.3503V21.3178C31.2833 19.2268 30.8144 17.6753 30.0106 16.731C29.2067 15.7866 27.934 15.3145 26.1923 15.3145C25.1875 15.3145 24.3166 15.5168 23.5798 15.8541C22.7759 16.1914 22.173 16.731 21.6371 17.3381C21.1012 17.9451 20.6993 18.7546 20.3644 19.564C20.0294 20.4409 19.8955 21.3178 19.8955 22.3296V38.1138H14.1345V11.4021Z" fill="#F68E1E"/>
<path d="M38.9868 11.4003H43.274V9.17437C43.274 7.48803 43.475 6.13896 43.8769 5.0597C44.2788 3.98044 44.8147 3.171 45.4846 2.63137C46.1545 2.09174 46.9583 1.68702 47.7622 1.48466C48.633 1.2823 49.5039 1.21484 50.4417 1.21484C52.3173 1.21484 53.6571 1.34975 54.4609 1.55211V6.13896C54.059 6.00405 53.7241 5.9366 53.2552 5.9366C52.9872 5.9366 52.4513 5.86914 51.9154 5.86914C51.1116 5.86914 50.4417 6.0715 49.9058 6.40877C49.3699 6.81349 49.1019 7.55548 49.1019 8.63474V11.4003H53.992V15.7848H49.1019V38.112H43.341V15.7848H39.0538L38.9868 11.4003Z" fill="#F68E1E"/>
<path d="M67.9256 38.8558C65.8489 38.8558 63.9733 38.5185 62.3656 37.7765C60.7579 37.102 59.3511 36.0902 58.2124 34.876C57.0736 33.6618 56.2027 32.1779 55.5998 30.4241C54.997 28.6703 54.729 26.7816 54.729 24.758C54.729 22.7344 54.997 20.8457 55.5998 19.0919C56.2027 17.3381 57.0736 15.8541 58.2124 14.6399C59.3511 13.4258 60.6909 12.414 62.3656 11.7394C63.9733 11.0649 65.8489 10.6602 67.9256 10.6602C70.0022 10.6602 71.8778 10.9974 73.4855 11.7394C75.0932 12.414 76.5 13.4258 77.6388 14.6399C78.7775 15.8541 79.6484 17.3381 80.2513 19.0919C80.8542 20.8457 81.1221 22.6669 81.1221 24.758C81.1221 26.849 80.8542 28.7377 80.2513 30.4241C79.6484 32.1779 78.7775 33.6618 77.6388 34.876C76.5 36.0902 75.0932 37.102 73.4855 37.7765C71.8778 38.5185 70.0022 38.8558 67.9256 38.8558ZM67.9256 34.2015C69.1983 34.2015 70.3371 33.9317 71.2749 33.392C72.2128 32.8524 73.0166 32.1104 73.6195 31.2335C74.2224 30.3566 74.6913 29.3448 74.9593 28.1981C75.2272 27.0514 75.3612 25.9047 75.3612 24.758C75.3612 23.6113 75.2272 22.4645 74.9593 21.3178C74.6913 20.1711 74.2224 19.1593 73.6195 18.2824C73.0166 17.4055 72.2128 16.6635 71.2749 16.1239C70.3371 15.5843 69.1983 15.3145 67.9256 15.3145C66.6528 15.3145 65.514 15.5843 64.5762 16.1239C63.6384 16.6635 62.8345 17.4055 62.2316 18.2824C61.6287 19.1593 61.1598 20.1711 60.8919 21.3178C60.6239 22.4645 60.4899 23.6113 60.4899 24.758C60.4899 25.9047 60.6239 27.0514 60.8919 28.1981C61.1598 29.3448 61.6287 30.3566 62.2316 31.2335C62.8345 32.1104 63.6384 32.8524 64.5762 33.392C65.514 33.9317 66.6528 34.2015 67.9256 34.2015Z" fill="#F68E1E"/>
<path d="M84.5384 1.21484H90.2994V14.8405H90.4333C90.8353 14.1659 91.3042 13.6263 91.9071 13.0867C92.5099 12.5471 93.1128 12.1423 93.7827 11.7376C94.4526 11.4003 95.1894 11.1305 95.9263 10.9282C96.6632 10.7258 97.467 10.6584 98.2039 10.6584C100.281 10.6584 102.022 10.9956 103.563 11.7376C105.104 12.4796 106.376 13.4914 107.381 14.773C108.386 16.0546 109.123 17.6061 109.659 19.2924C110.195 21.0462 110.396 22.8675 110.396 24.8236C110.396 26.6449 110.195 28.3312 109.726 30.0175C109.257 31.7039 108.587 33.1879 107.649 34.4695C106.711 35.7511 105.573 36.8304 104.166 37.5723C102.759 38.3818 101.084 38.7191 99.1417 38.7191C98.2709 38.7191 97.4 38.6516 96.4622 38.5167C95.5914 38.3818 94.7205 38.1794 93.9167 37.8422C93.1128 37.5049 92.376 37.0327 91.7061 36.4931C91.0362 35.9535 90.5003 35.2115 90.0314 34.3346H89.9644V37.9771H84.4714L84.5384 1.21484ZM104.635 24.8236C104.635 23.6094 104.501 22.4627 104.166 21.316C103.831 20.1693 103.429 19.1575 102.826 18.2806C102.223 17.4037 101.486 16.6617 100.548 16.1895C99.6106 15.6499 98.6058 15.3801 97.4 15.3801C94.9885 15.3801 93.1128 16.257 91.9071 17.9433C90.7013 19.6971 90.0314 21.9906 90.0314 24.8236C90.0314 26.1727 90.1654 27.3869 90.5003 28.601C90.8353 29.7477 91.3042 30.7595 91.974 31.569C92.6439 32.3784 93.3808 33.053 94.2516 33.5251C95.1225 33.9973 96.1943 34.2671 97.3331 34.2671C98.6728 34.2671 99.7446 33.9973 100.682 33.4577C101.62 32.918 102.357 32.1761 102.96 31.2992C103.563 30.4223 103.965 29.4105 104.233 28.3312C104.501 27.117 104.635 25.9703 104.635 24.8236Z" fill="#F68E1E"/>
<path d="M135.583 32.1771C135.583 32.9191 135.65 33.3913 135.851 33.7285C136.052 34.0658 136.387 34.2007 136.923 34.2007C137.124 34.2007 137.325 34.2007 137.526 34.2007C137.793 34.2007 138.061 34.1333 138.329 34.0658V38.1805C138.128 38.2479 137.86 38.3154 137.526 38.3828C137.191 38.4503 136.856 38.5177 136.521 38.5852C136.186 38.6526 135.851 38.7201 135.516 38.7201C135.181 38.7876 134.913 38.7876 134.645 38.7876C133.439 38.7876 132.501 38.5177 131.698 38.0456C130.894 37.5734 130.425 36.6965 130.157 35.4823C129.018 36.629 127.611 37.4385 125.937 37.9781C124.262 38.5177 122.654 38.7201 121.114 38.7201C119.908 38.7201 118.836 38.5852 117.697 38.2479C116.625 37.9107 115.688 37.4385 114.817 36.8314C114.013 36.2243 113.343 35.4149 112.874 34.4031C112.405 33.3913 112.137 32.2446 112.137 30.9629C112.137 29.2766 112.405 27.995 113.008 26.9157C113.611 25.9039 114.348 25.0945 115.353 24.4874C116.29 23.8803 117.362 23.4756 118.568 23.2058C119.774 22.936 120.98 22.7336 122.185 22.5987C123.257 22.3963 124.195 22.2614 125.2 22.1265C126.138 22.0591 127.008 21.9241 127.678 21.6543C128.415 21.452 128.951 21.1147 129.42 20.71C129.822 20.3053 130.023 19.6307 130.023 18.7538C130.023 18.0118 129.822 17.4048 129.487 16.8651C129.152 16.393 128.683 15.9882 128.147 15.7859C127.611 15.5161 127.075 15.3811 126.406 15.2462C125.736 15.1788 125.133 15.1113 124.597 15.1113C122.989 15.1113 121.649 15.4486 120.578 16.1231C119.506 16.7977 118.97 17.8769 118.836 19.3609H113.075C113.209 17.6071 113.611 16.1906 114.281 15.0439C115.018 13.8972 115.889 13.0203 116.96 12.2783C118.032 11.6037 119.305 11.1316 120.712 10.8618C122.118 10.5919 123.525 10.457 124.932 10.457C126.205 10.457 127.477 10.5919 128.75 10.8618C130.023 11.1316 131.095 11.6037 132.1 12.2108C133.104 12.8179 133.908 13.6274 134.511 14.6392C135.114 15.651 135.449 16.7977 135.449 18.2142V32.1771H135.583ZM129.822 24.7572C128.951 25.3643 127.879 25.7015 126.607 25.8365C125.334 25.9714 124.061 26.1063 122.788 26.3761C122.185 26.511 121.582 26.6459 121.047 26.8483C120.444 27.0506 119.975 27.3204 119.506 27.6577C119.037 27.995 118.702 28.3997 118.501 28.9393C118.233 29.479 118.099 30.1535 118.099 30.8955C118.099 31.57 118.3 32.1096 118.635 32.5818C119.037 33.054 119.439 33.3913 119.975 33.6611C120.511 33.9309 121.047 34.1333 121.716 34.2007C122.319 34.3356 122.922 34.3356 123.391 34.3356C124.061 34.3356 124.731 34.2682 125.468 34.0658C126.205 33.8634 126.941 33.5936 127.544 33.1889C128.214 32.7842 128.75 32.2446 129.219 31.6375C129.688 31.0304 129.889 30.2209 129.889 29.2766V24.7572H129.822Z" fill="#F68E1E"/>
<path d="M144.76 26.3063C144.76 27.3181 144.894 28.3299 145.162 29.2742C145.43 30.2186 145.899 31.0955 146.435 31.8375C147.038 32.5794 147.708 33.1191 148.578 33.5912C149.449 33.996 150.521 34.2658 151.727 34.2658C153.402 34.2658 154.741 33.9285 155.813 33.1865C156.818 32.4445 157.622 31.3653 158.091 29.8813H163.584C163.249 31.2978 162.78 32.6469 162.043 33.7936C161.306 34.9403 160.435 35.8847 159.363 36.6941C158.292 37.4361 157.153 38.0432 155.88 38.4479C154.607 38.8526 153.201 39.055 151.794 39.055C149.717 39.055 147.909 38.7177 146.301 38.0432C144.693 37.3687 143.353 36.3568 142.282 35.1427C141.21 33.9285 140.339 32.4445 139.803 30.6907C139.267 28.9369 138.999 27.0482 138.999 25.0246C138.999 23.1359 139.267 21.3147 139.87 19.6283C140.473 17.942 141.277 16.3906 142.416 15.109C143.487 13.8273 144.827 12.8155 146.368 12.0061C147.909 11.2641 149.65 10.8594 151.66 10.8594C153.737 10.8594 155.545 11.3316 157.22 12.2084C158.828 13.0853 160.234 14.2321 161.306 15.716C162.378 17.1326 163.182 18.8189 163.651 20.7076C164.12 22.5963 164.254 24.5525 164.053 26.5086H144.76V26.3063ZM158.225 22.3939C158.158 21.4496 157.957 20.5727 157.622 19.6958C157.287 18.8189 156.885 18.0769 156.282 17.4698C155.746 16.8627 155.076 16.3231 154.272 15.9184C153.469 15.5137 152.598 15.3113 151.593 15.3113C150.588 15.3113 149.65 15.5137 148.846 15.8509C148.043 16.1882 147.306 16.7278 146.703 17.3349C146.1 17.942 145.631 18.7514 145.296 19.5609C144.961 20.4378 144.76 21.3821 144.693 22.3265L158.225 22.3939Z" fill="#F68E1E"/>
</svg>
