<?xml version="1.0" encoding="utf-8"?>
<!-- Generator: Adobe Illustrator 24.2.1, SVG Export Plug-In . SVG Version: 6.00 Build 0)  -->
<svg version="1.1" id="Layer_1" xmlns="http://www.w3.org/2000/svg" xmlns:xlink="http://www.w3.org/1999/xlink" x="0px" y="0px"
	 viewBox="0 0 141.1 51" style="enable-background:new 0 0 141.1 51;" xml:space="preserve">
<style type="text/css">
	.st0{opacity:0.8;}
	.st1{clip-path:url(#SVGID_2_);fill:#FFFFFF;}
	.st2{fill:#2E270E;}
	.st3{clip-path:url(#SVGID_4_);fill:#FFBB52;}
	.st4{clip-path:url(#SVGID_4_);fill:#5D8C5D;}
	.st5{clip-path:url(#SVGID_4_);fill:#90BEAB;}
	.st6{clip-path:url(#SVGID_4_);fill:none;stroke:#2E270E;stroke-width:0.7426;stroke-miterlimit:10;}
	.st7{clip-path:url(#SVGID_4_);fill:#5D8C75;}
	.st8{clip-path:url(#SVGID_4_);fill:#F19000;}
	.st9{fill:none;stroke:#2E270E;stroke-width:0.7426;stroke-miterlimit:10;}
	.st10{fill:#90BEAB;}
	.st11{fill:#E3D5BB;}
	.st12{fill:#5D8C75;}
	.st13{fill:#282310;}
	.st14{fill:none;stroke:#D1BEAC;stroke-width:1.5496;}
	.st15{fill:#282319;}
	.st16{fill:#2B3742;}
</style>
<g id="VILA_LOGO">
	<g class="st0">
		<g>
			<defs>
				<rect id="SVGID_1_" x="28.2" y="1" width="111.5" height="48.3"/>
			</defs>
			<clipPath id="SVGID_2_">
				<use xlink:href="#SVGID_1_"  style="overflow:visible;"/>
			</clipPath>
			<path class="st1" d="M130.1,49.3H37.9c-5.3,0-9.6-4.3-9.6-9.6V10.6c0-5.3,4.3-9.6,9.6-9.6h92.3c5.3,0,9.6,4.3,9.6,9.6v29.1
				C139.7,45,135.4,49.3,130.1,49.3"/>
		</g>
	</g>
	<g>
		<path class="st2" d="M18.6,8.5c9.3,0,16.9,7.5,16.9,16.9c0,9.3-7.5,16.9-16.9,16.9c-9.3,0-16.9-7.5-16.9-16.9
			C1.7,16,9.3,8.5,18.6,8.5"/>
		<g>
			<defs>
				<path id="SVGID_3_" d="M7.3,25.3c0,6.2,5,11.3,11.3,11.3c6.2,0,11.3-5,11.3-11.3c0-6.2-5-11.3-11.3-11.3
					C12.3,14.1,7.3,19.1,7.3,25.3"/>
			</defs>
			<clipPath id="SVGID_4_">
				<use xlink:href="#SVGID_3_"  style="overflow:visible;"/>
			</clipPath>
			<path class="st3" d="M30.7,25.7H6.3v-1c0.7-6.8,5.2-11.5,11.5-11.5h1.3c6.4,0,11.6,5.6,11.5,11.5V25.7z"/>
			<path class="st4" d="M6.4,25.7h24.3v0.7c0.1,5.1-5.1,11.3-11.3,11.3h-1.7c-6.3,0-11.9-6.4-11.3-11.3V25.7z"/>
			<path class="st5" d="M32.6,24.9c0,1.3,0.3,2.3-2.3,2.3c-2.5,0-2.3-1-2.3-2.3c0-1.3,1-2.3,2.3-2.3C31.6,22.6,32.6,23.6,32.6,24.9"
				/>
			<path class="st6" d="M32.6,24.9c0,1.3,0.3,2.3-2.3,2.3c-2.5,0-2.3-1-2.3-2.3c0-1.3,1-2.3,2.3-2.3C31.6,22.6,32.6,23.6,32.6,24.9z
				"/>
			<path class="st7" d="M30.6,28.5c0,2.2-0.1,3.9-3.9,3.9c-4.3,0-3.9-1.8-3.9-3.9c0-2.2,1.8-3.9,3.9-3.9
				C28.8,24.5,30.6,26.3,30.6,28.5"/>
			<path class="st6" d="M30.6,28.5c0,2.2-0.1,3.9-3.9,3.9c-4.3,0-3.9-1.8-3.9-3.9c0-2.2,1.8-3.9,3.9-3.9
				C28.8,24.5,30.6,26.3,30.6,28.5z"/>
			<path class="st8" d="M28.5,17.9c0,2.2-1.8,3.9-3.9,3.9c-2.2,0-3.9-1.8-3.9-3.9c0-2.2,1.8-3.9,3.9-3.9
				C26.7,14,28.5,15.7,28.5,17.9"/>
			<path class="st6" d="M28.5,17.9c0,2.2-1.8,3.9-3.9,3.9c-2.2,0-3.9-1.8-3.9-3.9c0-2.2,1.8-3.9,3.9-3.9
				C26.7,14,28.5,15.7,28.5,17.9z"/>
		</g>
		<path class="st9" d="M7.3,25.3c0,6.2,5,11.3,11.3,11.3c6.2,0,11.3-5,11.3-11.3c0-6.2-5-11.3-11.3-11.3C12.3,14,7.3,19.1,7.3,25.3z
			"/>
		<path class="st10" d="M16.9,25.1c0,3.6-1.8,5.4-4.1,5.4c-2.2,0-4-1.8-4-5.4c0-6.5,2.7-9,4-9C14.3,16,16.9,21.4,16.9,25.1"/>
		<path class="st9" d="M16.9,25.1c0,3.6-1.8,5.4-4.1,5.4c-2.2,0-4-1.8-4-5.4c0-6.5,2.7-9,4-9C14.3,16,16.9,21.4,16.9,25.1z"/>
		<path class="st11" d="M25,22.1L19.6,19c-0.3-0.2-0.7-0.3-1-0.3c-0.4,0-0.7,0.1-1,0.3l-5.4,3.1C11.4,22.5,11,23.2,11,24v7.6
			c0,0.1,0,0.2,0,0.3c0.2,1,1,1.8,2.1,1.8h4.4c0.2-0.1,0.4-0.3,0.4-0.5v-0.3v-0.2c0-0.1,0-0.1-0.1-0.2l-1.8-1.7
			c-0.3-0.3-0.5-0.7-0.5-1.1c0-0.1,0-0.1,0-0.2v-0.9c-0.5-0.2-0.8-0.6-0.9-1.1c0-0.1,0-0.1,0-0.2c0-0.8,0.6-1.4,1.4-1.4
			c0.6,0,1.1,0.4,1.3,0.9c0,0,0,0,0,0c0,0,0,0.1,0,0.1c0,0,0,0,0,0.1c0,0,0,0,0,0.1c0,0,0,0,0,0c0.1,0.7-0.3,1.4-0.9,1.6v0.9
			c0,0,0,0.1,0,0.1c0,0.2,0.1,0.4,0.2,0.5l0.8,0.7c0.2,0.1,0.4,0,0.5-0.2V23c-0.4-0.2-0.8-0.6-0.8-1.1c0-0.1,0-0.1,0-0.2
			c0-0.8,0.6-1.4,1.4-1.4c0.6,0,1.2,0.4,1.3,1c0,0,0,0,0,0.1c0,0,0,0,0,0.1c0,0,0,0,0,0c0,0,0,0,0,0.1c0,0,0,0,0,0
			c0.1,0.7-0.4,1.3-1,1.5V29c0,0.2,0.2,0.3,0.4,0.3l0.7-0.6c0.2-0.2,0.2-0.4,0.2-0.6v-0.9c-0.5-0.2-0.8-0.6-0.9-1.1
			c0-0.1,0-0.1,0-0.2c0-0.8,0.6-1.4,1.4-1.4c0.6,0,1.1,0.4,1.3,0.9c0,0,0,0,0,0c0,0,0,0.1,0,0.1c0,0,0,0,0,0.1c0,0,0,0,0,0.1
			c0,0,0,0,0,0c0.1,0.7-0.3,1.4-0.9,1.6V28c0,0.5-0.2,0.9-0.5,1.3l0,0L19,30.7c-0.1,0.1-0.1,0.1-0.1,0.2v1.4v0.8
			c0,0.3,0.2,0.5,0.4,0.5H24c1.2,0,2.1-1,2.1-2.1V24c0-0.1,0-0.2,0-0.3C26,23.1,25.6,22.5,25,22.1"/>
		<path class="st2" d="M25.5,21.4L20,18.3c-0.9-0.5-2-0.5-2.9,0l-5.4,3.1c-0.9,0.5-1.5,1.5-1.5,2.6v7.6c0,1.7,1.3,3,3,3H24
			c1.6,0,3-1.4,3-3V24C27,22.9,26.4,21.9,25.5,21.4 M26.1,31.6c0,1.2-0.9,2.1-2.1,2.1h-4.6c-0.3,0-0.6-0.2-0.6-0.6v-0.8v-1.4
			c0-0.1,0-0.2,0.1-0.2l1.7-1.4l0,0c0.3-0.3,0.5-0.8,0.5-1.3v-0.9c0.6-0.2,1-0.9,0.9-1.6c-0.1-0.5-0.5-1-1.1-1.1
			c-0.9-0.2-1.7,0.5-1.7,1.3c0,0.6,0.4,1.1,0.9,1.3V28c0,0.2-0.1,0.4-0.2,0.6l-0.7,0.6c-0.2,0.2-0.5,0-0.5-0.2V23
			c0.6-0.2,1.1-0.8,1-1.6c-0.1-0.5-0.5-1-1.1-1.1c-0.9-0.2-1.7,0.5-1.7,1.3c0,0.6,0.4,1.1,0.8,1.3v7.7c0,0.3-0.3,0.4-0.5,0.2
			l-0.7-0.7c-0.2-0.2-0.3-0.4-0.3-0.6v-0.9c0.6-0.2,1-0.9,0.9-1.6c-0.1-0.5-0.5-1-1.1-1.1c-0.9-0.2-1.7,0.5-1.7,1.3
			c0,0.6,0.4,1.1,0.9,1.3v0.9c0,0.5,0.2,0.9,0.5,1.3l1.8,1.7c0.1,0.1,0.1,0.1,0.1,0.2V33c0,0,0,0,0,0v0.2c0,0.3-0.2,0.6-0.6,0.6
			h-4.3c-1.2,0-2.1-1-2.1-2.1V24c0-0.8,0.4-1.5,1.1-1.9l5.4-3.1c0.3-0.2,0.7-0.3,1-0.3c0.4,0,0.7,0.1,1,0.3l5.4,3.1
			c0.7,0.4,1.1,1.1,1.1,1.9V31.6z"/>
		<path class="st12" d="M13,25.1c0,3.6-1.8,5.4-4.1,5.4c-2.2,0-4-1.8-4-5.4c0-3.6,2.7-9.3,4-9.3C10.4,15.8,13,21.4,13,25.1"/>
		<path class="st9" d="M13,25.1c0,3.6-1.8,5.4-4.1,5.4c-2.2,0-4-1.8-4-5.4c0-3.6,2.7-9.3,4-9.3C10.4,15.8,13,21.4,13,25.1z"/>
		<path class="st13" d="M9.5,32.2l-0.9-1v-5.8c0-0.3,0.2-0.5,0.5-0.5c0.3,0,0.5,0.2,0.5,0.5V32.2z"/>
		<circle class="st14" cx="18.6" cy="25.3" r="16.9"/>
	</g>
	<g>
		<g>
			<path class="st15" d="M42.2,13.7L42.2,13.7c0-2.4,1.5-4.4,3.9-4.4c2.4,0,3.9,2,3.9,4.4v0c0,2.4-1.5,4.4-3.9,4.4
				C43.6,18.1,42.2,16.1,42.2,13.7z M47.6,13.7L47.6,13.7c0-1.4-0.6-2.3-1.6-2.3c-0.9,0-1.5,0.9-1.5,2.3v0c0,1.3,0.6,2.3,1.6,2.3
				S47.6,15.1,47.6,13.7z"/>
			<path class="st15" d="M51.5,11.6l-1.4,0.3l-0.4-1.8l2.5-0.7h1.7v8.5h-2.3V11.6z"/>
			<path class="st15" d="M56.6,9.5h2.6l1.9,5.3L63,9.5h2.6L62.2,18H60L56.6,9.5z"/>
			<path class="st15" d="M65.7,9.5h2.3v8.4h-2.3V9.5z"/>
			<path class="st15" d="M68.9,9.5h2.3v6.4h4.1v2h-6.4V9.5z"/>
			<path class="st15" d="M78.5,9.4h2.2l3.6,8.5h-2.5l-0.6-1.5H78l-0.6,1.5h-2.5L78.5,9.4z M80.5,14.6l-0.9-2.4l-1,2.4H80.5z"/>
		</g>
		<g>
			<path class="st16" d="M42.5,22.4h2.1c1.9,0,3.2,1.3,3.2,3v0c0,1.7-1.3,3-3.2,3h-2.1V22.4z M44.6,27.8c1.5,0,2.5-1,2.5-2.4v0
				c0-1.3-1-2.4-2.5-2.4h-1.4v4.8H44.6z"/>
			<path class="st16" d="M48.6,23.9h0.7v1.2c0.3-0.7,1-1.3,1.8-1.2v0.7H51c-1,0-1.8,0.7-1.8,2v1.8h-0.7V23.9z"/>
			<path class="st16" d="M50.7,27.5h0.8v0.9h-0.8V27.5z"/>
			<path class="st16" d="M54,27.4l0.5-0.4c0.4,0.6,0.7,0.9,1.4,0.9c0.7,0,1.2-0.5,1.2-1.4v-4h0.7v4c0,0.7-0.2,1.2-0.5,1.6
				c-0.3,0.3-0.8,0.5-1.3,0.5C54.9,28.5,54.3,28,54,27.4z"/>
			<path class="st16" d="M58.5,27.5h0.8v0.9h-0.8V27.5z"/>
			<path class="st16" d="M62.3,22.4h2.6c0.7,0,1.2,0.2,1.6,0.5c0.2,0.3,0.4,0.6,0.4,1v0c0,0.8-0.5,1.2-1,1.4
				c0.7,0.2,1.3,0.6,1.3,1.4v0c0,1-0.9,1.6-2.2,1.6h-2.7V22.4z M64.7,25.1c0.8,0,1.4-0.4,1.4-1.1v0c0-0.6-0.5-1-1.3-1H63v2.1H64.7z
				 M65,27.8c0.9,0,1.5-0.4,1.5-1.1v0c0-0.7-0.5-1-1.6-1H63v2.1H65z"/>
			<path class="st16" d="M67.9,23.9h0.7v1.2c0.3-0.7,1-1.3,1.8-1.2v0.7h-0.1c-1,0-1.8,0.7-1.8,2v1.8h-0.7V23.9z"/>
			<path class="st16" d="M70.8,22.2h0.8V23h-0.8V22.2z M70.9,23.9h0.7v4.4h-0.7V23.9z"/>
			<path class="st16" d="M72.8,27.2v-2.7h-0.6v-0.6h0.6v-1.3h0.7v1.3h1.4v0.6h-1.4v2.6c0,0.5,0.3,0.7,0.7,0.7c0.2,0,0.4,0,0.6-0.2
				v0.6c-0.2,0.1-0.5,0.2-0.8,0.2C73.3,28.5,72.8,28.1,72.8,27.2z"/>
			<path class="st16" d="M75.1,26.2L75.1,26.2c0-1.3,1-2.3,2.3-2.3c1.3,0,2.3,1,2.3,2.3v0c0,1.3-1,2.3-2.3,2.3
				C76.1,28.5,75.1,27.4,75.1,26.2z M79.1,26.2L79.1,26.2c0-1-0.7-1.7-1.6-1.7c-1,0-1.6,0.8-1.6,1.7v0c0,1,0.7,1.7,1.6,1.7
				C78.4,27.9,79.1,27.1,79.1,26.2z"/>
			<path class="st16" d="M82.6,22.4h4.3V23h-3.6v2.1h3.2v0.6h-3.2v2.6h-0.7V22.4z"/>
			<path class="st16" d="M87.2,26.2L87.2,26.2c0-1.3,1-2.3,2.3-2.3c1.3,0,2.3,1,2.3,2.3v0c0,1.3-1,2.3-2.3,2.3
				C88.2,28.5,87.2,27.4,87.2,26.2z M91.1,26.2L91.1,26.2c0-1-0.7-1.7-1.6-1.7c-1,0-1.6,0.8-1.6,1.7v0c0,1,0.7,1.7,1.6,1.7
				C90.5,27.9,91.1,27.1,91.1,26.2z"/>
			<path class="st16" d="M92.5,23.9h0.7v1.2c0.3-0.7,1-1.3,1.8-1.2v0.7h-0.1c-1,0-1.8,0.7-1.8,2v1.8h-0.7V23.9z"/>
			<path class="st16" d="M97.2,27.9c0.6,0,1-0.2,1.4-0.6l0.4,0.4c-0.4,0.5-1,0.8-1.8,0.8c-1.2,0-2.2-0.9-2.2-2.3
				c0-1.3,0.9-2.3,2.1-2.3c1.3,0,2.1,1,2.1,2.3c0,0.1,0,0.1,0,0.2h-3.5C95.8,27.4,96.5,27.9,97.2,27.9z M98.5,25.9
				c-0.1-0.8-0.5-1.5-1.4-1.5c-0.8,0-1.3,0.6-1.4,1.5H98.5z"/>
			<path class="st16" d="M99.5,27.8l0.3-0.5c0.5,0.4,1,0.6,1.5,0.6c0.5,0,0.9-0.3,0.9-0.7v0c0-0.4-0.5-0.6-1.1-0.8
				c-0.7-0.2-1.5-0.4-1.5-1.3v0c0-0.8,0.6-1.3,1.5-1.3c0.5,0,1.1,0.2,1.6,0.5l-0.3,0.5c-0.4-0.3-0.9-0.4-1.3-0.4
				c-0.5,0-0.9,0.3-0.9,0.6v0c0,0.4,0.5,0.6,1.1,0.8c0.7,0.2,1.4,0.5,1.4,1.3v0c0,0.8-0.7,1.3-1.6,1.3
				C100.7,28.5,100,28.2,99.5,27.8z"/>
			<path class="st16" d="M103.7,27.2v-2.7h-0.6v-0.6h0.6v-1.3h0.7v1.3h1.4v0.6h-1.4v2.6c0,0.5,0.3,0.7,0.7,0.7c0.2,0,0.4,0,0.6-0.2
				v0.6c-0.2,0.1-0.5,0.2-0.8,0.2C104.3,28.5,103.7,28.1,103.7,27.2z"/>
			<path class="st16" d="M106.5,22.2h0.8V23h-0.8V22.2z M106.5,23.9h0.7v4.4h-0.7V23.9z"/>
			<path class="st16" d="M110,27.9l2.2-1.9c0.9-0.8,1.3-1.3,1.3-1.9c0-0.7-0.6-1.1-1.2-1.1c-0.7,0-1.1,0.4-1.6,1l-0.5-0.4
				c0.5-0.8,1.1-1.3,2.2-1.3c1.1,0,1.9,0.7,1.9,1.7v0c0,0.9-0.5,1.4-1.5,2.3l-1.6,1.4h3.2v0.6H110V27.9z"/>
			<path class="st16" d="M114.8,27.7l0.4-0.5c0.5,0.4,0.9,0.6,1.5,0.6c1.1,0,1.8-1.1,1.8-2.6c-0.3,0.5-0.9,1-1.7,1
				c-1.2,0-2.1-0.8-2.1-1.9v0c0-1.1,0.9-2,2.2-2c0.7,0,1.2,0.2,1.6,0.6c0.5,0.5,0.7,1.1,0.7,2.3v0c0,1.9-1,3.2-2.5,3.2
				C115.9,28.5,115.4,28.2,114.8,27.7z M118.4,24.3L118.4,24.3c0-0.8-0.6-1.4-1.5-1.4s-1.4,0.7-1.4,1.4v0c0,0.8,0.6,1.3,1.5,1.3
				C117.8,25.6,118.4,24.9,118.4,24.3z"/>
			<path class="st16" d="M120.5,27.9c-0.5-0.5-0.8-1.1-0.8-2.3v0c0-1.8,0.9-3.3,2.5-3.3c0.7,0,1.3,0.3,1.8,0.7l-0.4,0.5
				c-0.4-0.4-0.9-0.6-1.4-0.6c-1.1,0-1.8,1.1-1.8,2.6c0.3-0.5,0.8-0.9,1.7-0.9c1.1,0,2.1,0.7,2.1,1.8v0c0,1.2-0.9,2-2.2,2
				C121.4,28.5,120.9,28.3,120.5,27.9z M123.5,26.5L123.5,26.5c0-0.8-0.6-1.3-1.5-1.3c-0.9,0-1.5,0.6-1.5,1.3v0
				c0,0.8,0.6,1.3,1.5,1.3S123.5,27.3,123.5,26.5z"/>
			<path class="st16" d="M128,27h-3.2l-0.2-0.5l3.4-4.1h0.6v4.1h0.9V27h-0.9v1.4H128V27z M128,26.4v-3.1l-2.5,3.1H128z"/>
		</g>
		<g>
			<path class="st16" d="M42.5,32.8h0.7l2.2,3.3l2.2-3.3h0.7v6h-0.7V34l-2.2,3.2h0L43.2,34v4.9h-0.7V32.8z"/>
			<path class="st16" d="M49.1,36.6L49.1,36.6c0-1.3,1-2.3,2.3-2.3c1.3,0,2.3,1,2.3,2.3v0c0,1.3-1,2.3-2.3,2.3
				C50,38.9,49.1,37.9,49.1,36.6z M53,36.6L53,36.6c0-1-0.7-1.7-1.6-1.7c-1,0-1.6,0.8-1.6,1.7v0c0,1,0.7,1.7,1.6,1.7
				C52.3,38.4,53,37.6,53,36.6z"/>
			<path class="st16" d="M54.4,34.4H55v0.8c0.3-0.5,0.8-0.9,1.5-0.9c1.1,0,1.7,0.7,1.7,1.8v2.8h-0.7v-2.6c0-0.8-0.4-1.3-1.2-1.3
				c-0.8,0-1.3,0.6-1.3,1.4v2.5h-0.7V34.4z"/>
			<path class="st16" d="M59.4,37.7V35h-0.6v-0.6h0.6v-1.3H60v1.3h1.4V35H60v2.6c0,0.5,0.3,0.7,0.7,0.7c0.2,0,0.4,0,0.6-0.2v0.6
				c-0.2,0.1-0.5,0.2-0.8,0.2C59.9,38.9,59.4,38.6,59.4,37.7z"/>
			<path class="st16" d="M63.9,38.4c0.6,0,1-0.2,1.4-0.6l0.4,0.4c-0.4,0.5-1,0.8-1.8,0.8c-1.2,0-2.2-0.9-2.2-2.3
				c0-1.3,0.9-2.3,2.1-2.3c1.3,0,2.1,1,2.1,2.3c0,0.1,0,0.1,0,0.2h-3.5C62.4,37.8,63.1,38.4,63.9,38.4z M65.2,36.4
				c-0.1-0.8-0.5-1.5-1.4-1.5c-0.8,0-1.3,0.6-1.4,1.5H65.2z"/>
			<path class="st16" d="M65.9,34.4h0.7l1.5,3.7l1.5-3.7h0.7l-1.9,4.5h-0.6L65.9,34.4z"/>
			<path class="st16" d="M70.8,32.7h0.8v0.7h-0.8V32.7z M70.9,34.4h0.7v4.4h-0.7V34.4z"/>
			<path class="st16" d="M72.3,36.6L72.3,36.6c0-1.5,1.1-2.3,2.1-2.3c0.8,0,1.4,0.4,1.7,0.9v-2.7h0.7v6.3h-0.7V38
				c-0.4,0.5-0.9,1-1.7,1C73.4,38.9,72.3,38.1,72.3,36.6z M76.2,36.6L76.2,36.6c0-1-0.8-1.7-1.6-1.7c-0.9,0-1.6,0.6-1.6,1.7v0
				c0,1,0.7,1.7,1.6,1.7C75.4,38.3,76.2,37.7,76.2,36.6z"/>
			<path class="st16" d="M79.7,38.4c0.6,0,1-0.2,1.4-0.6l0.4,0.4c-0.4,0.5-1,0.8-1.8,0.8c-1.2,0-2.2-0.9-2.2-2.3
				c0-1.3,0.9-2.3,2.1-2.3c1.3,0,2.1,1,2.1,2.3c0,0.1,0,0.1,0,0.2h-3.5C78.2,37.8,78.9,38.4,79.7,38.4z M81,36.4
				c-0.1-0.8-0.5-1.5-1.4-1.5c-0.8,0-1.3,0.6-1.4,1.5H81z"/>
			<path class="st16" d="M82,36.6L82,36.6c0-1.3,1-2.3,2.3-2.3c1.3,0,2.3,1,2.3,2.3v0c0,1.3-1,2.3-2.3,2.3C83,38.9,82,37.9,82,36.6z
				 M86,36.6L86,36.6c0-1-0.7-1.7-1.6-1.7c-1,0-1.6,0.8-1.6,1.7v0c0,1,0.7,1.7,1.6,1.7C85.3,38.4,86,37.6,86,36.6z"/>
			<path class="st16" d="M86.8,39.6c0.4-0.2,0.6-0.4,0.6-0.7h-0.3v-0.9h0.8v0.8c0,0.7-0.3,1-1,1.2L86.8,39.6z"/>
			<path class="st16" d="M90.8,36.3v-3.5h0.7v3.4c0,1.3,0.7,2,1.8,2c1.1,0,1.8-0.7,1.8-2v-3.5h0.7v3.4c0,1.7-1,2.7-2.5,2.7
				C91.9,38.9,90.8,38,90.8,36.3z"/>
			<path class="st16" d="M96.8,34.4h0.7v1.2c0.3-0.7,1-1.3,1.8-1.2V35h-0.1c-1,0-1.8,0.7-1.8,2v1.8h-0.7V34.4z"/>
			<path class="st16" d="M99.7,37.2v-2.8h0.7V37c0,0.8,0.4,1.3,1.2,1.3c0.8,0,1.3-0.6,1.3-1.4v-2.5h0.7v4.4h-0.7v-0.8
				c-0.3,0.5-0.8,0.9-1.5,0.9C100.4,38.9,99.7,38.2,99.7,37.2z"/>
			<path class="st16" d="M104.5,39.6l0.3-0.5c0.5,0.4,1.1,0.6,1.7,0.6c1,0,1.6-0.5,1.6-1.6v-0.5c-0.4,0.5-0.9,0.9-1.7,0.9
				c-1.1,0-2.1-0.8-2.1-2.1v0c0-1.3,1-2.1,2.1-2.1c0.8,0,1.4,0.4,1.7,0.9v-0.8h0.7v3.7c0,0.7-0.2,1.2-0.6,1.6
				c-0.4,0.4-1,0.6-1.7,0.6C105.8,40.2,105.1,40,104.5,39.6z M108.1,36.4L108.1,36.4c0-0.9-0.8-1.5-1.6-1.5c-0.8,0-1.5,0.6-1.5,1.5
				v0c0,0.9,0.7,1.5,1.5,1.5C107.4,37.9,108.1,37.3,108.1,36.4z"/>
			<path class="st16" d="M109.7,37.2v-2.8h0.7V37c0,0.8,0.4,1.3,1.2,1.3c0.8,0,1.3-0.6,1.3-1.4v-2.5h0.7v4.4h-0.7v-0.8
				c-0.3,0.5-0.8,0.9-1.5,0.9C110.3,38.9,109.7,38.2,109.7,37.2z"/>
			<path class="st16" d="M114.2,37.6L114.2,37.6c0-1,0.8-1.5,1.9-1.5c0.6,0,1,0.1,1.4,0.2v-0.1c0-0.8-0.5-1.2-1.3-1.2
				c-0.5,0-0.9,0.1-1.3,0.3l-0.2-0.5c0.5-0.2,1-0.4,1.6-0.4c0.6,0,1.1,0.2,1.4,0.5c0.3,0.3,0.5,0.7,0.5,1.3v2.7h-0.7v-0.7
				c-0.3,0.4-0.8,0.8-1.6,0.8C115,38.9,114.2,38.5,114.2,37.6z M117.4,37.2v-0.4c-0.3-0.1-0.8-0.2-1.3-0.2c-0.8,0-1.3,0.4-1.3,0.9v0
				c0,0.6,0.5,0.9,1.1,0.9C116.8,38.4,117.4,37.9,117.4,37.2z"/>
			<path class="st16" d="M118.5,40l0.2-0.5c0.2,0.1,0.4,0.2,0.7,0.2c0.4,0,0.6-0.2,0.9-0.8l-2-4.4h0.7l1.6,3.7l1.4-3.7h0.7l-1.9,4.6
				c-0.4,0.9-0.8,1.3-1.5,1.3C119.1,40.2,118.8,40.2,118.5,40z"/>
		</g>
	</g>
</g>
</svg>
