<?xml version="1.0" encoding="utf-8"?>
<!-- Generator: Adobe Illustrator 24.2.1, SVG Export Plug-In . SVG Version: 6.00 Build 0)  -->
<svg version="1.1" id="Layer_1" xmlns="http://www.w3.org/2000/svg" xmlns:xlink="http://www.w3.org/1999/xlink" x="0px" y="0px"
	 viewBox="0 0 273.8 181.4" style="enable-background:new 0 0 273.8 181.4;" xml:space="preserve">
<style type="text/css">
	.st0{fill:#FFFFFF;}
	.st1{fill:#79A591;}
</style>
<g>
	<polygon class="st0" points="76,137.2 64,137.2 64,116 57.4,116 57.4,143 76,143 	"/>
	<path class="st0" d="M86,137.9h9.9l1.9,5.2h6.6l-10.6-27h-5.6l-10.7,27H84L86,137.9z M89.1,129.4c0.2-0.6,0.5-1.3,0.7-1.9
		c0.2-0.6,0.4-1.2,0.6-1.8c0.2-0.6,0.4-1.1,0.5-1.7c0.2,0.5,0.3,1.1,0.5,1.6c0.2,0.7,0.4,1.3,0.6,1.9c0.2,0.6,0.4,1.2,0.6,1.7
		l1.3,3.5h-6.1L89.1,129.4z"/>
	<path class="st0" d="M119,137.6c-0.6,0.2-1.2,0.3-1.9,0.3c-1.4,0-2.7-0.3-4-0.9c-1.3-0.6-2.6-1.7-3.8-3.5l-4,4.5
		c1.3,1.7,2.9,3.1,4.7,4c1.8,0.9,4.1,1.4,6.8,1.4c2.1,0,3.9-0.3,5.5-1c1.6-0.7,2.8-1.7,3.7-3c0.9-1.3,1.4-2.9,1.4-4.7
		c0-1.2-0.2-2.2-0.7-3.1c-0.5-0.9-1.1-1.7-1.9-2.4c-0.8-0.7-1.8-1.3-3-1.7c-1.1-0.5-2.4-0.8-3.8-1.1c-0.6-0.1-1.2-0.2-1.8-0.4
		c-0.6-0.2-1.1-0.4-1.5-0.6c-0.4-0.2-0.8-0.5-1-0.8c-0.2-0.3-0.4-0.7-0.4-1.1c0-0.5,0.1-0.9,0.4-1.3c0.3-0.3,0.7-0.6,1.3-0.8
		c0.6-0.2,1.2-0.3,2-0.3c1.1,0,2.2,0.3,3.2,0.8c1,0.5,1.9,1.3,2.7,2.3l4.1-4c-1-1.5-2.2-2.6-3.8-3.5c-1.6-0.8-3.7-1.3-6.3-1.3
		c-1.8,0-3.5,0.3-5,1c-1.5,0.7-2.8,1.7-3.7,2.9c-0.9,1.2-1.4,2.7-1.4,4.3c0,1.2,0.2,2.2,0.5,3.1c0.4,0.9,0.9,1.7,1.6,2.4
		c0.7,0.7,1.6,1.3,2.7,1.8c1.1,0.5,2.4,0.9,3.9,1.2c0.5,0.1,1.1,0.2,1.6,0.3c0.5,0.1,1,0.3,1.4,0.5c0.4,0.2,0.8,0.4,1.2,0.6
		c0.3,0.2,0.6,0.5,0.8,0.8c0.2,0.3,0.3,0.7,0.3,1c0,0.5-0.2,0.9-0.5,1.3C120,137.2,119.5,137.4,119,137.6z"/>
	<path class="st0" d="M71,160.8l-7.7-12.5h-5.9v27h6.4v-8.2c0-2.6-0.1-4.8-0.2-6.6c0-0.4-0.1-0.9-0.1-1.3l6,9.5h2.6l6.3-9.7
		c-0.1,0.6-0.1,1.1-0.1,1.7c-0.1,1.9-0.2,4-0.2,6.4v8.2h6.4v-27h-5.7L71,160.8z"/>
	<polygon class="st0" points="97.7,164.3 108.4,164.3 108.4,158.9 97.7,158.9 97.7,153.9 110.1,153.9 110.1,148.3 91.2,148.3 
		91.2,175.3 110.5,175.3 110.5,169.7 97.7,169.7 	"/>
	<path class="st0" d="M133.1,164.7c1.4-0.8,2.5-1.8,3.3-3.2c0.8-1.3,1.2-2.9,1.2-4.6c0-1.7-0.4-3.2-1.2-4.5
		c-0.8-1.3-1.9-2.3-3.3-3.1c-1.4-0.7-3-1.1-4.7-1.1h-12.2v27h6.3v-9.5h3.4l5.3,9.5l7.5,0l-6-10.5
		C132.8,164.8,132.9,164.7,133.1,164.7z M122.4,153.8h4.8c0.8,0,1.5,0.1,2.1,0.4c0.6,0.3,1,0.7,1.4,1.2c0.3,0.5,0.5,1.1,0.5,1.8
		c0,0.7-0.1,1.3-0.4,1.8c-0.3,0.5-0.7,0.9-1.2,1.2c-0.5,0.3-1.1,0.4-1.8,0.4h-5.4V153.8z"/>
	<path class="st0" d="M150.1,156c0.7-0.7,1.5-1.2,2.4-1.6c0.9-0.4,1.9-0.5,2.9-0.5c1.2,0,2.3,0.2,3.3,0.7c1,0.5,1.9,1.2,2.7,2
		l4.1-4.6c-0.8-0.9-1.7-1.7-2.8-2.4c-1.1-0.7-2.2-1.1-3.5-1.5c-1.2-0.3-2.5-0.5-3.8-0.5c-2,0-3.9,0.3-5.7,1
		c-1.7,0.7-3.2,1.7-4.5,2.9c-1.3,1.3-2.3,2.7-3,4.4c-0.7,1.7-1.1,3.5-1.1,5.6c0,2,0.3,3.9,1,5.6c0.7,1.7,1.6,3.2,2.9,4.4
		c1.2,1.2,2.7,2.2,4.4,2.9c1.7,0.7,3.6,1,5.6,1c1.3,0,2.7-0.2,4-0.5c1.3-0.3,2.5-0.8,3.5-1.3s1.9-1.2,2.5-1.9l-3.2-5.1
		c-0.5,0.5-1,1-1.7,1.4c-0.6,0.4-1.3,0.7-2.1,0.9c-0.7,0.2-1.5,0.3-2.3,0.3c-1.2,0-2.3-0.2-3.3-0.5c-1-0.4-1.8-0.9-2.5-1.6
		c-0.7-0.7-1.2-1.5-1.6-2.5c-0.4-1-0.6-2-0.6-3.2c0-1.2,0.2-2.3,0.6-3.2C148.9,157.6,149.4,156.7,150.1,156z"/>
	<polygon class="st0" points="176.1,164.3 186.8,164.3 186.8,158.9 176.1,158.9 176.1,153.9 188.5,153.9 188.5,148.3 169.6,148.3 
		169.6,175.3 188.9,175.3 188.9,169.7 176.1,169.7 	"/>
	<path class="st0" d="M215.6,152c-1.2-1.2-2.6-2.1-4.2-2.8c-1.6-0.7-3.5-1-5.4-1h-11.4v27h11.4c2,0,3.8-0.3,5.5-1
		c1.6-0.7,3-1.6,4.2-2.8c1.2-1.2,2.1-2.6,2.7-4.3c0.6-1.6,1-3.5,1-5.5c0-2-0.3-3.8-1-5.5C217.7,154.7,216.8,153.2,215.6,152z
		 M212.1,164.9c-0.3,0.9-0.8,1.7-1.4,2.4c-0.6,0.7-1.3,1.2-2.2,1.6c-0.8,0.4-1.8,0.5-2.9,0.5h-4.6v-15.4h4.6c1.1,0,2,0.2,2.9,0.5
		c0.8,0.4,1.6,0.9,2.2,1.6c0.6,0.7,1.1,1.5,1.4,2.4c0.3,0.9,0.5,2,0.5,3.1C212.6,162.9,212.4,164,212.1,164.9z"/>
	<polygon class="st0" points="230.7,164.3 241.4,164.3 241.4,158.9 230.7,158.9 230.7,153.9 243.1,153.9 243.1,148.3 224.3,148.3 
		224.3,175.3 243.5,175.3 243.5,169.7 230.7,169.7 	"/>
	<path class="st0" d="M268,163.7c-0.5-0.9-1.1-1.7-1.9-2.4c-0.8-0.7-1.8-1.3-3-1.7c-1.1-0.5-2.4-0.8-3.8-1.1
		c-0.6-0.1-1.2-0.2-1.8-0.4c-0.6-0.2-1.1-0.4-1.5-0.6c-0.4-0.2-0.8-0.5-1-0.8c-0.2-0.3-0.4-0.7-0.4-1.1c0-0.5,0.1-0.9,0.4-1.3
		c0.3-0.3,0.7-0.6,1.3-0.8c0.6-0.2,1.2-0.3,2-0.3c1.1,0,2.2,0.3,3.2,0.8c1,0.5,1.9,1.3,2.7,2.3l4.1-4c-1-1.5-2.2-2.6-3.8-3.5
		c-1.6-0.8-3.7-1.3-6.3-1.3c-1.8,0-3.5,0.3-5,1c-1.5,0.7-2.8,1.7-3.7,2.9c-0.9,1.2-1.4,2.7-1.4,4.3c0,1.2,0.2,2.2,0.5,3.1
		c0.4,0.9,0.9,1.7,1.6,2.4c0.7,0.7,1.6,1.3,2.7,1.8c1.1,0.5,2.4,0.9,3.9,1.2c0.5,0.1,1.1,0.2,1.6,0.3c0.5,0.1,1,0.3,1.4,0.5
		c0.4,0.2,0.8,0.4,1.2,0.6c0.3,0.2,0.6,0.5,0.8,0.8c0.2,0.3,0.3,0.7,0.3,1c0,0.5-0.2,0.9-0.5,1.3c-0.3,0.3-0.8,0.6-1.3,0.8
		c-0.6,0.2-1.2,0.3-1.9,0.3c-1.4,0-2.7-0.3-4-0.9c-1.3-0.6-2.6-1.7-3.8-3.5l-4,4.5c1.3,1.7,2.9,3.1,4.7,4c1.8,0.9,4.1,1.4,6.8,1.4
		c2.1,0,3.9-0.3,5.5-1c1.6-0.7,2.8-1.7,3.7-3c0.9-1.3,1.4-2.9,1.4-4.7C268.7,165.7,268.5,164.6,268,163.7z"/>
</g>
<g>
	<polygon class="st0" points="160.4,7.9 160.4,7.9 133.3,7.9 133.3,31.4 155.8,31.4 155.8,105.7 179.2,105.7 179.2,7.9 	"/>
	<path class="st1" d="M71.8,79.2c-8.5-4-14.4-12.5-14.9-22.4h0C57.3,66.7,63.3,75.2,71.8,79.2z"/>
	<path class="st1" d="M83,81.8c-0.1,0-0.2,0-0.2,0C82.8,81.8,82.9,81.8,83,81.8L83,81.8z"/>
	<path class="st1" d="M87,81.5c-1.3,0.2-2.6,0.3-4,0.3c0,0,0,0,0,0C84.3,81.8,85.7,81.7,87,81.5z"/>
	<path class="st0" d="M30.1,31c-13,0-23.8,10.2-24.5,23.1h49.1C53.9,41.2,43.2,31,30.1,31z"/>
	<path class="st0" d="M31.6,81.5c0,13,10.2,23.8,23.1,24.5V56.9C41.8,57.7,31.6,68.4,31.6,81.5z"/>
	<path class="st0" d="M83,79.4c0.1,0,0.2,0,0.2,0l0.2,0c8.7-0.2,16.7-5.1,20.8-12.8c1.6-3,2.6-6.4,2.8-9.8H64.8h-5.8
		C59.7,69.4,70.2,79.4,83,79.4z"/>
	<path class="st0" d="M83,5.4c-3.7,0-7.3,0.4-10.7,1.2c-1.1,0.2-2.3,0.5-3.4,0.9c5.7,3.1,9.9,8.3,11.9,14.5c0.8,2.4,1.3,5,1.5,7.6
		c0.2,0,0.6,0,0.7,0c0.6,0,1.2,0,1.9,0.1c13.6,1,24.3,12.3,24.3,26.1c0,12.6-9,23.2-20.9,25.6c-0.4,0.1-0.9,0.2-1.3,0.2
		c-1.3,0.2-2.6,0.3-4,0.3c0,0,0,0,0,0h0c-0.1,0-0.2,0-0.2,0c-0.4,0-0.7,0-1.1,0c-0.2,0-0.4,0-0.6,0c-0.2,0-0.5,0-0.7-0.1
		c-0.2,0-0.5-0.1-0.7-0.1c-0.2,0-0.4,0-0.6-0.1c-0.3,0-0.5-0.1-0.8-0.1c-0.2,0-0.3-0.1-0.5-0.1c-0.3-0.1-0.6-0.1-0.8-0.2
		c-0.1,0-0.3-0.1-0.4-0.1c-0.3-0.1-0.6-0.2-0.9-0.3c-0.1,0-0.2-0.1-0.3-0.1c-0.3-0.1-0.6-0.2-1-0.3c-0.1,0-0.2-0.1-0.2-0.1
		c-0.3-0.1-0.7-0.3-1-0.4c0,0-0.1,0-0.1-0.1c-0.4-0.2-0.7-0.3-1.1-0.5c0,0,0,0,0,0c-8.5-4-14.4-12.5-14.9-22.4h0v41.8
		c7.6,4.6,16.6,7.3,26.1,7.3c27.8,0,50.3-22.5,50.3-50.3C133.3,27.9,110.8,5.4,83,5.4z"/>
	<path class="st0" d="M79.4,30c0-0.1,0-0.2,0-0.2l0-0.2c-0.2-8.7-5.1-16.7-12.8-20.8c-3-1.6-6.4-2.6-9.8-2.8v48.1
		C69.4,53.3,79.4,42.8,79.4,30z"/>
	<path d="M56.9,56.1L56.9,56.1c0-0.2,0-0.3,0-0.4V56.1z"/>
	<path d="M56.9,56.1c0,0.3,0,0.5,0,0.8h0C56.9,56.6,56.9,56.3,56.9,56.1L56.9,56.1z"/>
	<path d="M56.9,55.6C56.9,55.6,56.9,55.6,56.9,55.6L56.9,55.6L56.9,55.6z"/>
</g>
</svg>
