<svg width="73" height="146" viewBox="0 0 73 146" fill="none" xmlns="http://www.w3.org/2000/svg">
<path d="M1.00001 73C1.00001 33.5441 32.6719 1.54108 72 1.00679L72 144.993C32.6719 144.459 1.00001 112.456 1.00001 73Z" fill="#79A591" stroke="#B8D66C" stroke-width="2"/>
<path d="M37.2632 47.0625C37.7155 47.4243 37.8964 47.7862 37.8059 48.329C37.8059 49.5954 37.8059 50.7714 37.8059 52.0378C37.8059 52.852 37.4441 53.2138 36.8109 53.2138C36.2681 53.2138 35.9062 52.7615 35.9062 52.0378C35.9062 50.7714 35.9062 49.5954 35.9062 48.329C35.9062 47.7862 36.0872 47.3339 36.449 47.0625H37.2632Z" fill="white"/>
<path d="M44.1349 99.3487C44.8585 100.615 44.7681 101.882 44.4967 103.238C44.3158 104.324 43.3207 104.867 42.1447 104.957C41.8733 104.957 41.602 104.957 41.3306 104.957C41.3306 105.59 41.3306 106.043 41.3306 106.586C41.3306 108.033 40.5164 108.847 39.0691 108.847C37.5312 108.847 36.0839 108.847 34.546 108.847C33.2796 108.847 32.5559 108.123 32.4654 106.857C32.4654 106.224 32.4654 105.681 32.4654 105.048C32.0131 104.957 31.5608 104.957 31.1085 104.867C30.023 104.686 29.2089 103.781 29.1184 102.696C29.1184 101.61 28.847 100.525 29.4803 99.5296C29.5707 99.4391 29.4802 99.1678 29.3898 99.0773C28.847 97.8108 28.9375 96.5444 29.2993 95.278C29.3898 94.9161 29.8421 94.5543 30.2039 94.2829C30.5658 94.0115 30.5658 93.8306 30.5658 93.4687C30.1135 91.0263 29.0279 89.1266 27.0378 87.6793C23.3289 84.9655 20.977 81.347 20.0724 76.824C18.8059 70.4013 21.5197 63.6168 27.1283 59.6365C27.671 59.2747 28.2138 59.3651 28.4852 59.8174C28.7566 60.2697 28.6661 60.8125 28.1233 61.1744C26.2237 62.5313 24.6858 64.25 23.5099 66.2401C19.801 72.8437 21.6102 81.347 27.671 85.8701C30.1135 87.6793 31.7418 89.9408 32.2845 92.926C32.375 93.1974 32.375 93.4688 32.375 93.7401H35.8125C35.8125 93.6497 35.8125 93.4687 35.8125 93.3783C35.8125 91.0263 35.8125 88.5839 35.8125 86.2319C35.8125 86.051 35.722 85.6891 35.5411 85.5987C33.8224 83.8799 32.1941 82.2516 30.4753 80.5329C26.5855 76.6431 26.5855 70.8536 30.4753 66.9638C32.1036 65.3355 33.7319 63.7072 35.3602 62.079C36.3553 61.0839 37.2599 61.0839 38.2549 62.079C39.8832 63.7072 41.602 65.3355 43.2303 67.0543C47.0296 70.8536 46.9391 76.6431 43.2303 80.4424C41.5115 82.1612 39.7927 83.8799 38.074 85.5987C37.8931 85.7796 37.8026 85.9605 37.8026 86.1414C37.8026 88.6743 37.8026 91.2072 37.8026 93.8306H41.1497C41.421 92.8355 41.6019 91.9309 41.9638 91.0263C42.6875 89.1266 43.8635 87.5888 45.4918 86.3224C48.8388 83.8799 51.0099 80.6234 51.824 76.5526C53.3618 68.773 48.3865 60.9934 40.6973 59.0033C37.5312 58.1891 34.4556 58.3701 31.4704 59.4556C31.199 59.5461 30.7467 59.6365 30.5658 59.5461C30.2944 59.4556 30.023 59.0938 29.9326 58.7319C29.8421 58.2796 30.1135 57.9178 30.5658 57.8273C31.8322 57.4655 33.0082 57.0132 34.2746 56.8322C39.25 56.1086 43.6826 57.2845 47.5724 60.4507C51.2812 63.4359 53.4523 67.4161 53.9046 72.2105C54.4474 78.6332 52.0049 83.699 46.9391 87.5888C44.949 89.0362 43.6826 90.9358 43.2303 93.3783C43.1398 93.8306 43.2303 94.102 43.5921 94.2829C44.2253 94.6447 44.5871 95.278 44.6776 96.0921C44.7681 97.7204 44.6776 98.3536 44.1349 99.3487ZM37.8026 82.9753C37.8931 82.9753 37.8931 82.9753 37.9835 83.0658C39.3404 81.7089 40.6973 80.352 42.0543 78.9951C45.0395 75.9194 45.0394 71.3059 41.9638 68.2303C40.426 66.6924 38.7977 65.0641 37.2599 63.5263C37.1694 63.4359 36.9885 63.3454 36.898 63.1645C36.7171 63.2549 36.6266 63.4359 36.5362 63.5263C34.9983 65.0641 33.3701 66.602 31.8322 68.2303C28.7566 71.3059 28.7566 75.9194 31.8322 78.9951C33.0082 80.2615 34.2747 81.4375 35.5411 82.704C35.6316 82.7944 35.8125 82.8849 35.9934 83.0658C35.9934 82.3421 35.9934 81.7993 35.9934 81.2566C35.9934 80.8947 35.8125 80.5329 35.6316 80.352C35.0888 79.7188 34.546 79.2665 34.0033 78.6332C33.6414 78.2714 33.6414 77.7286 34.0033 77.3668C34.3651 77.0049 34.9079 77.0049 35.2697 77.3668C35.5411 77.5477 35.722 77.8191 35.9934 78.0905C36.0839 77.4572 35.9934 77.0049 35.6316 76.6431C35.0888 76.1908 34.546 75.5576 34.0033 75.0148C33.6414 74.5625 33.6414 74.0197 34.0033 73.7484C34.4556 73.3865 34.8174 73.3865 35.2697 73.7484C35.5411 73.9293 35.722 74.2007 35.903 74.472C35.9934 74.472 35.9934 74.3816 36.0839 74.3816C36.0839 73.477 36.0839 72.4819 36.0839 71.5773C36.0839 70.8536 36.4457 70.4013 36.9885 70.4013C37.5312 70.4013 37.9835 70.8536 37.9835 71.5773C37.9835 72.1201 37.9835 72.6628 37.9835 73.2056C38.074 73.2056 38.074 73.2961 38.1645 73.2961C38.3454 73.1151 38.4358 72.9342 38.6168 72.7533C39.1595 72.2105 39.6118 72.2105 40.0641 72.5724C40.426 72.9342 40.426 73.477 39.9737 74.0197C39.4309 74.5625 38.8881 75.1053 38.3454 75.648C37.9835 76.0099 37.9835 76.3717 38.1645 77.0049C38.4358 76.7336 38.5263 76.5526 38.7072 76.3717C39.25 75.9194 39.7023 75.8289 40.1546 76.2812C40.5164 76.6431 40.5164 77.1859 40.0641 77.6382C39.5214 78.1809 38.9786 78.7237 38.4358 79.2665C38.3454 79.3569 38.1645 79.6283 38.1645 79.7188C37.8026 80.8043 37.8026 81.8898 37.8026 82.9753ZM36.898 103.058C38.6168 103.058 40.3355 103.058 42.0543 103.058C42.597 103.058 42.8684 102.786 42.8684 102.243C42.8684 101.791 42.8684 101.339 42.8684 100.887C42.8684 100.434 42.597 100.253 42.2352 100.163C41.8733 100.163 41.5115 100.163 41.1497 100.163C40.1546 100.163 39.7023 99.8914 39.7023 99.2582C39.7023 98.625 40.1546 98.3536 41.1497 98.3536C43.1398 98.3536 42.9589 98.2631 42.9589 96.5444C42.9589 95.6398 42.778 95.5493 41.8734 95.5493C38.6168 95.5493 35.4506 95.5493 32.1941 95.5493C31.199 95.5493 31.1085 95.6398 31.1085 96.7253C31.1085 96.9062 31.1085 97.1776 31.1085 97.3586C31.1085 98.2632 31.2895 98.3536 32.1941 98.3536C33.7319 98.3536 35.2697 98.3536 36.8076 98.3536C37.2599 98.3536 37.6217 98.4441 37.8026 98.8059C38.1645 99.4391 37.7122 100.163 36.898 100.163C35.2697 100.163 33.551 100.163 31.9227 100.163C31.3799 100.163 31.1085 100.434 31.1085 100.977C31.1085 101.339 31.1085 101.701 31.1085 102.153C31.1085 102.877 31.2895 102.967 31.9227 102.967C33.4605 103.058 35.1793 103.058 36.898 103.058ZM34.3651 106.947H39.4309V104.957H34.3651V106.947Z" fill="white"/>
<path d="M13.3797 74.5625C12.7465 74.5625 12.1133 74.5625 11.4801 74.5625C10.7564 74.5625 10.3945 74.2007 10.3945 73.6579C10.3945 73.0247 10.7564 72.7533 11.4801 72.7533C12.837 72.7533 14.1034 72.7533 15.4603 72.7533C16.184 72.7533 16.5459 73.1151 16.5459 73.6579C16.5459 74.2007 16.0935 74.5625 15.4603 74.5625C14.6462 74.5625 14.013 74.5625 13.3797 74.5625Z" fill="white"/>
<path d="M60.3289 74.5625C59.6957 74.5625 59.0625 74.5625 58.4293 74.5625C57.7056 74.5625 57.3438 74.2007 57.3438 73.6579C57.3438 73.1151 57.7961 72.7533 58.4293 72.7533C59.7862 72.7533 61.0527 72.7533 62.4096 72.7533C63.1333 72.7533 63.4951 73.1151 63.4951 73.7484C63.4951 74.2911 63.1333 74.653 62.4096 74.653C61.6859 74.5625 60.9622 74.5625 60.3289 74.5625Z" fill="white"/>
<path d="M26.0443 56.1085C25.8634 56.0181 25.592 55.8371 25.4111 55.6562C24.6874 54.4802 23.9637 53.2138 23.24 51.9474C22.9687 51.4951 23.1496 50.9523 23.5114 50.6809C23.9637 50.4095 24.5065 50.5 24.7779 51.0428C25.5015 52.2187 26.2252 53.4852 26.8585 54.6612C27.3108 55.2944 26.9489 56.1085 26.0443 56.1085Z" fill="white"/>
<path d="M59.9659 60.9934C59.8755 61.1743 59.6945 61.4457 59.4231 61.6266C58.2472 62.3503 56.9807 63.074 55.8047 63.7072C55.262 63.9786 54.7192 63.8882 54.4478 63.4359C54.1764 62.9836 54.3574 62.4408 54.8097 62.1694C55.9857 61.4457 57.2521 60.722 58.4281 60.0888C59.2422 59.6365 59.9659 60.0888 59.9659 60.9934Z" fill="white"/>
<path d="M47.6638 56.1086C46.8497 56.1086 46.3974 55.3849 46.6687 54.7517C47.3924 53.4852 48.1161 52.2188 48.8398 50.9524C49.1112 50.5001 49.6539 50.4096 50.0158 50.681C50.4681 50.9524 50.649 51.4951 50.3776 51.9474C49.6539 53.2139 48.9303 54.4803 48.2066 55.6563C48.1161 55.8372 47.8447 56.0181 47.6638 56.1086Z" fill="white"/>
<path d="M18.8084 63.7073C18.6275 63.7977 18.4465 63.8882 18.2656 63.7977C18.0847 63.7073 17.9038 63.7073 17.8133 63.6168C16.6373 62.9836 15.5518 62.2599 14.3758 61.6267C13.7426 61.2648 13.5617 60.8125 13.8331 60.2698C14.1044 59.8175 14.6472 59.6366 15.2804 59.9984C16.4564 60.6316 17.6324 61.3553 18.8084 62.079C19.1702 62.3504 19.4416 62.7122 19.2607 63.1645C19.1702 63.4359 18.9893 63.6168 18.8084 63.7073Z" fill="white"/>
</svg>
