<svg width="73" height="146" viewBox="0 0 73 146" fill="none" xmlns="http://www.w3.org/2000/svg">
<path d="M1.00001 73C1.00001 33.5441 32.6719 1.54108 72 1.00679L72 144.993C32.6719 144.459 1.00001 112.456 1.00001 73Z" fill="#79A591" stroke="#B8D66C" stroke-width="2"/>
<path d="M35.4655 46.8315C36.2796 47.1029 37.1842 47.2838 37.9079 47.6457C40.5313 48.9121 42.5214 50.9023 44.0592 53.4352C46.9539 58.0486 47.949 63.1144 47.4967 68.5421C47.1349 72.9746 45.778 77.0454 43.3355 80.7542C41.5263 83.5585 39.2648 86.0009 36.3701 87.7197C35.7368 88.0815 35.2845 88.5338 35.1036 89.1671C34.7418 90.3431 34.199 91.519 33.9276 92.695C33.2944 95.8611 35.2845 97.3085 37.9984 97.3085C42.0691 97.3085 45.778 96.1325 49.125 93.871C52.1102 91.8809 54.4622 89.2575 56.0905 86.0914C57.8092 82.6539 58.6234 79.0355 58.352 75.2361C57.9901 70.8036 56.4523 66.8233 53.5576 63.3858C52.1102 61.6671 50.3914 60.2197 48.4013 58.9533C48.1299 58.7723 47.949 58.501 47.7681 58.2296C47.3158 57.5059 46.9539 56.7822 46.5921 55.9681L46.6826 55.8776C47.5872 56.4204 48.5822 56.8727 49.4868 57.4154C54.1003 60.3102 57.3569 64.3809 59.0757 69.6276C59.9803 72.4319 60.3421 75.4171 60.1612 78.4023C59.7089 84.1917 57.2664 89.1671 53.1053 93.1473C49.5773 96.4944 45.4161 98.394 40.6217 99.0273C38.9934 99.2082 37.4556 99.3891 35.8273 98.9368C33.1135 98.1227 31.5757 95.8611 31.9375 93.0569C32.2089 90.9763 33.023 89.1671 33.9276 87.3579C35.0132 85.0963 35.9178 82.8348 36.7319 80.4829C37.6365 78.0404 38.1793 75.4171 38.3602 72.7937C38.5411 70.6227 38.5411 68.5421 38.1793 66.371C37.9984 65.376 37.727 64.4713 37.5461 63.4763C37.4556 63.4763 37.4556 63.4763 37.3651 63.4763C37.4556 64.019 37.6365 64.4713 37.727 65.0141C37.9079 66.7329 38.0888 68.5421 37.9079 70.2608C37.2747 77.3167 34.2895 83.5585 30.3997 89.348C30.3997 89.348 30.3092 89.4384 30.2188 89.5289C30.0378 88.9861 29.7664 88.5338 29.676 88.0815C28.6809 84.9154 27.5954 81.7493 26.9622 78.4023C26.4194 75.5075 26.2385 72.5223 26.4194 69.5371C26.7812 63.9286 28.6809 58.9533 31.4852 54.1588C32.6612 52.1687 33.8372 50.1786 34.5609 48.0075C34.6513 47.6457 34.7418 47.2838 34.8322 46.922H35.4655V46.8315Z" stroke="white" stroke-width="1.274" stroke-linecap="round" stroke-linejoin="round"/>
<path d="M28.9533 55.7871C28.682 56.6013 28.4106 57.3249 28.1392 58.1391C28.0487 58.32 27.8678 58.4105 27.6869 58.5009C24.6112 60.2197 22.1688 62.4812 20.2691 65.4664C18.4599 68.2707 17.4649 71.2559 17.103 74.5124C16.6507 78.945 17.5553 83.1062 19.8168 86.9055C19.9073 87.0864 19.9978 87.3578 20.3596 87.1769C22.5307 86.5437 24.5208 87.2674 25.7872 89.167C25.9682 89.4384 26.0586 89.6193 26.33 89.9812C25.7872 90.343 25.2445 90.7049 24.6112 91.0667C25.0635 91.8809 25.6063 92.6045 26.0586 93.4187C25.5159 93.7805 25.0635 94.0519 24.4303 94.4138C23.8876 93.5996 23.4353 92.8759 22.8925 92.0618C22.2593 92.4236 21.7165 92.7855 21.1737 93.1473C21.626 93.9615 22.1688 94.6851 22.6211 95.4993C22.0783 95.8611 21.626 96.1325 20.9928 96.4943C20.4501 95.6802 19.9978 94.9565 19.455 94.1424C19.0027 94.4138 18.5504 94.6851 18.0981 94.9565C16.3793 92.8759 16.3793 90.4335 18.0981 88.4434C18.279 88.172 18.1885 87.9911 18.0981 87.8101C16.8316 85.7295 15.927 83.468 15.4747 81.0256C14.1178 73.9697 15.6557 67.547 20.2691 61.9384C22.4402 59.2246 25.154 57.2345 28.3201 55.7871C28.682 55.968 28.7724 55.8776 28.9533 55.7871Z" stroke="white" stroke-width="1.274" stroke-linecap="round" stroke-linejoin="round"/>
</svg>
