<svg width="73" height="146" viewBox="0 0 73 146" fill="none" xmlns="http://www.w3.org/2000/svg">
<path d="M1.00001 73C1.00001 33.5441 32.6719 1.54108 72 1.00679L72 144.993C32.6719 144.459 1.00001 112.456 1.00001 73Z" fill="#79A591" stroke="#B8D66C" stroke-width="2"/>
<path d="M61.6083 73.7911C61.6988 60.6743 51.2053 50 38.179 50C25.0622 50 14.3879 60.403 14.2975 73.4293C14.207 86.4556 24.7909 97.2204 37.7267 97.3108C50.8435 97.3108 61.5178 86.8174 61.6083 73.7911Z" stroke="white" stroke-width="2.293" stroke-linecap="round" stroke-linejoin="round"/>
<path d="M55.7314 73.7006C55.7314 63.8404 47.8614 55.7894 38.0916 55.7894C28.2315 55.7894 20.2709 63.569 20.1805 73.4292C20.09 83.199 28.0505 91.2499 37.8202 91.3404C47.6804 91.4309 55.641 83.5608 55.7314 73.7006Z" stroke="white" stroke-width="2.293" stroke-linecap="round" stroke-linejoin="round"/>
</svg>
