<svg width="73" height="146" viewBox="0 0 73 146" fill="none" xmlns="http://www.w3.org/2000/svg">
<path d="M1.00001 73C1.00001 33.5441 32.6719 1.54108 72 1.00679L72 144.993C32.6719 144.459 1.00001 112.456 1.00001 73Z" fill="#79A591" stroke="#B8D66C" stroke-width="2"/>
<path d="M45.8665 89.0148V42.1562C45.8665 39.2615 43.5145 37 40.7102 37C37.8155 37 35.554 39.352 35.554 42.1562V89.0148C35.554 90.0099 35.1017 91.0049 34.2875 91.6382C31.6642 93.6283 30.0359 96.8849 30.2168 100.503C30.4882 105.84 34.7398 110.183 40.077 110.544C46.2283 110.906 51.2941 106.112 51.2941 100.051C51.2941 96.7039 49.7563 93.7187 47.2234 91.7286C46.4092 91.0049 45.8665 90.1003 45.8665 89.0148Z" stroke="white" stroke-width="2.293" stroke-linecap="round" stroke-linejoin="round"/>
<path d="M40.7132 106.021C44.0605 106.021 46.7741 103.308 46.7741 99.9603C46.7741 96.6129 44.0605 93.8994 40.7132 93.8994C37.3659 93.8994 34.6523 96.6129 34.6523 99.9603C34.6523 103.308 37.3659 106.021 40.7132 106.021Z" stroke="white" stroke-width="2.293" stroke-linecap="round" stroke-linejoin="round"/>
<path d="M40.7109 93.3569V42.5181" stroke="white" stroke-width="2.293" stroke-linecap="round" stroke-linejoin="round"/>
<mask id="mask0_1409_28" style="mask-type:luminance" maskUnits="userSpaceOnUse" x="19" y="50" width="15" height="32">
<path d="M33.5641 50.5688H19V81.3254H33.5641V50.5688Z" fill="white"/>
</mask>
<g mask="url(#mask0_1409_28)">
<path d="M45.0518 65.4044C45.0518 58.9817 39.986 53.8254 33.6538 53.735C27.2311 53.735 22.0748 58.8008 21.9844 65.133C21.9844 71.4653 27.1406 76.712 33.4729 76.8024C39.8051 76.8929 45.0518 71.8271 45.0518 65.4044Z" stroke="white" stroke-width="2.293" stroke-linecap="round" stroke-linejoin="round"/>
</g>
</svg>
