<svg width="158" height="69" viewBox="0 0 158 69" fill="none" xmlns="http://www.w3.org/2000/svg">
<g clip-path="url(#clip0_1163_671)">
<path d="M122.999 34.3C122.999 15.4 138.299 0.1 157.199 0.0999985L157.199 68.5C138.299 68.5 122.999 53.2 122.999 34.3Z" fill="#6F846D"/>
<path d="M81.9992 34.3C81.9992 15.4 97.2992 0.1 116.199 0.0999985L116.199 68.5C97.2992 68.5 81.9992 53.2 81.9992 34.3Z" fill="#6F846D"/>
<path d="M40.9992 34.3C40.9992 15.4 56.2992 0.1 75.1992 0.0999985L75.1992 68.5C56.2992 68.5 40.9992 53.2 40.9992 34.3Z" fill="#6F846D"/>
<path d="M-0.000781188 34.3C-0.00078284 15.4 15.2992 0.1 34.1992 0.0999985L34.1992 68.5C15.2992 68.5 -0.000779536 53.2 -0.000781188 34.3Z" fill="#6F846D"/>
</g>
<defs>
<clipPath id="clip0_1163_671">
<rect width="157.2" height="68.5" fill="white" transform="translate(157.199 68.5) rotate(180)"/>
</clipPath>
</defs>
</svg>
