<svg width="158" height="69" viewBox="0 0 158 69" fill="none" xmlns="http://www.w3.org/2000/svg">
<g clip-path="url(#clip0_1163_677)">
<path d="M34.2 34.2C34.2 53.1 18.9 68.4 -1.19594e-05 68.4L0 0C18.9 3.30458e-06 34.2 15.3 34.2 34.2Z" fill="#6F846D"/>
<path d="M75.2 34.2C75.2 53.1 59.9 68.4 41 68.4L41 0C59.9 3.30458e-06 75.2 15.3 75.2 34.2Z" fill="#6F846D"/>
<path d="M116.2 34.2C116.2 53.1 100.9 68.4 82 68.4L82 0C100.9 3.30458e-06 116.2 15.3 116.2 34.2Z" fill="#6F846D"/>
<path d="M157.2 34.2C157.2 53.1 141.9 68.4 123 68.4L123 0C141.9 3.30458e-06 157.2 15.3 157.2 34.2Z" fill="#6F846D"/>
</g>
<defs>
<clipPath id="clip0_1163_677">
<rect width="157.2" height="68.5" fill="white"/>
</clipPath>
</defs>
</svg>
