<?xml version="1.0" encoding="utf-8"?>
<!-- Generator: Adobe Illustrator 24.2.1, SVG Export Plug-In . SVG Version: 6.00 Build 0)  -->
<svg version="1.1" id="Layer_1" xmlns="http://www.w3.org/2000/svg" xmlns:xlink="http://www.w3.org/1999/xlink" x="0px" y="0px"
	 viewBox="0 0 158 69" style="enable-background:new 0 0 158 69;" xml:space="preserve">
<style type="text/css">
	.st0{clip-path:url(#SVGID_2_);}
	.st1{fill:#B8D66C;}
</style>
<g>
	<defs>
		<rect id="SVGID_1_" width="157.2" height="68.5"/>
	</defs>
	<clipPath id="SVGID_2_">
		<use xlink:href="#SVGID_1_"  style="overflow:visible;"/>
	</clipPath>
	<g class="st0">
		<path class="st1" d="M34.2,34.2c0,18.9-15.3,34.2-34.2,34.2L0,0C18.9,0,34.2,15.3,34.2,34.2z"/>
		<path class="st1" d="M75.2,34.2c0,18.9-15.3,34.2-34.2,34.2V0C59.9,0,75.2,15.3,75.2,34.2z"/>
		<path class="st1" d="M116.2,34.2c0,18.9-15.3,34.2-34.2,34.2V0C100.9,0,116.2,15.3,116.2,34.2z"/>
		<path class="st1" d="M157.2,34.2c0,18.9-15.3,34.2-34.2,34.2V0C141.9,0,157.2,15.3,157.2,34.2z"/>
	</g>
</g>
</svg>
