<?xml version="1.0" encoding="utf-8"?>
<!-- Generator: Adobe Illustrator 25.2.3, SVG Export Plug-In . SVG Version: 6.00 Build 0)  -->
<svg version="1.1" id="Layer_1" xmlns="http://www.w3.org/2000/svg" xmlns:xlink="http://www.w3.org/1999/xlink" x="0px" y="0px"
	 viewBox="0 0 726 122" style="enable-background:new 0 0 726 122;" xml:space="preserve">
<style type="text/css">
	.st0{clip-path:url(#SVGID_2_);}
	.st1{fill:#B8D66C;}
	.st2{fill:none;stroke:#B7D26D;stroke-width:3;stroke-miterlimit:10;}
</style>
<g>
	<defs>
		<rect id="SVGID_1_" x="631.6" y="79.7" width="92.9" height="40.5"/>
	</defs>
	<clipPath id="SVGID_2_">
		<use xlink:href="#SVGID_1_"  style="overflow:visible;"/>
	</clipPath>
	<g class="st0">
		<path class="st1" d="M704.3,100c0-11.2,9-20.2,20.2-20.2v40.4C713.3,120.2,704.3,111.2,704.3,100z"/>
		<path class="st1" d="M655.6,100c0-11.2,9-20.2,20.2-20.2l0,40.4C664.6,120.2,655.6,111.2,655.6,100z"/>
		<path class="st1" d="M679.9,100c0-11.2,9-20.2,20.2-20.2v40.4C689,120.2,679.9,111.2,679.9,100z"/>
		<path class="st1" d="M631.2,100c0-11.2,9-20.2,20.2-20.2v40.4C640.3,120.2,631.2,111.2,631.2,100z"/>
	</g>
</g>
<path class="st2" d="M110.3,0C49.4,0,0,49.4,0,110.2h220.5C220.5,49.4,171.1,0,110.3,0z"/>
</svg>
