<svg width="121" height="823" viewBox="0 0 121 823" fill="none" xmlns="http://www.w3.org/2000/svg">
<path d="M-178.973 300.5C-178.973 464.236 -46.4743 596.967 116.974 596.967V4.03369C-46.4743 4.03369 -178.973 136.765 -178.973 300.5Z" stroke="#B7D26E" stroke-width="3" stroke-miterlimit="10"/>
<g clip-path="url(#clip0_1452_2)">
<path d="M86.3 699.2C67.4 699.2 52.1 683.9 52.1 665L120.5 665C120.5 683.9 105.2 699.2 86.3 699.2Z" fill="#6F846D"/>
<path d="M86.3 740.2C67.4 740.2 52.1 724.9 52.1 706L120.5 706C120.5 724.9 105.2 740.2 86.3 740.2Z" fill="#6F846D"/>
<path d="M86.3 781.2C67.4 781.2 52.1 765.9 52.1 747L120.5 747C120.5 765.9 105.2 781.2 86.3 781.2Z" fill="#6F846D"/>
<path d="M86.3 822.2C67.4 822.2 52.1 806.9 52.1 788L120.5 788C120.5 806.9 105.2 822.2 86.3 822.2Z" fill="#6F846D"/>
</g>
<defs>
<clipPath id="clip0_1452_2">
<rect width="157.2" height="68.5" fill="white" transform="translate(120.5 665) rotate(90)"/>
</clipPath>
</defs>
</svg>
