<svg width="726" height="122" viewBox="0 0 726 122" fill="none" xmlns="http://www.w3.org/2000/svg">
<g clip-path="url(#clip0_1435_4)">
<path d="M20.2205 20.2205C20.2205 31.3949 11.1745 40.4409 -7.07091e-06 40.4409L0 0C11.1745 1.95381e-06 20.2205 9.046 20.2205 20.2205Z" fill="#B8D66C"/>
<path d="M68.9392 20.2205C68.9392 31.3949 59.8932 40.4409 48.7187 40.4409L48.7188 0C59.8932 1.95381e-06 68.9392 9.046 68.9392 20.2205Z" fill="#B8D66C"/>
<path d="M44.5798 20.2205C44.5798 31.3949 35.5338 40.4409 24.3594 40.4409L24.3594 0C35.5338 1.95381e-06 44.5798 9.046 44.5798 20.2205Z" fill="#B8D66C"/>
<path d="M93.2947 20.2205C93.2947 31.3949 84.2487 40.4409 73.0742 40.4409L73.0742 0C84.2487 1.95381e-06 93.2947 9.046 93.2947 20.2205Z" fill="#B8D66C"/>
</g>
<path d="M614.2 120.2C675.1 120.2 724.5 70.8002 724.5 10.0002L504 10.0002C504 70.8002 553.4 120.2 614.2 120.2Z" stroke="#B7D26D" stroke-width="3" stroke-miterlimit="10"/>
<defs>
<clipPath id="clip0_1435_4">
<rect width="92.9432" height="40.5" fill="white"/>
</clipPath>
</defs>
</svg>
