<svg width="241" height="156" viewBox="0 0 241 156" fill="none" xmlns="http://www.w3.org/2000/svg">
<g clip-path="url(#clip0_1163_844)">
<path d="M48.1523 126.357V101.749H54.1143V121.092H65.1209V126.357H48.1523Z" fill="#231F20"/>
<path d="M66.6133 126.357L76.3588 101.749H81.4035L91.0343 126.357H84.9577L80.257 113.881C80.1423 113.423 79.913 112.851 79.6837 112.279C79.4544 111.706 79.3397 111.134 79.1104 110.562C78.8811 109.99 78.7665 109.417 78.5372 108.845C78.4225 108.273 78.1932 107.701 78.0786 107.243H79.1104C78.9958 107.815 78.7665 108.387 78.6518 108.96C78.5372 109.532 78.3079 110.104 78.0786 110.676C77.8492 111.249 77.7346 111.821 77.5053 112.393C77.276 112.965 77.0467 113.538 76.932 114.11L72.2313 126.471H66.6133V126.357ZM71.1994 121.549L73.1485 116.971H84.3845L86.3336 121.549H71.1994Z" fill="#231F20"/>
<path d="M102.384 126.7C99.9763 126.7 97.9125 126.242 96.1927 125.441C94.473 124.64 93.0971 123.381 91.8359 121.778L95.5048 117.658C96.6514 119.26 97.7979 120.291 98.9444 120.863C100.091 121.435 101.352 121.664 102.613 121.664C103.301 121.664 103.76 121.55 104.333 121.435C104.792 121.321 105.25 120.977 105.48 120.748C105.709 120.519 105.938 120.062 105.938 119.604C105.938 119.26 105.824 118.917 105.709 118.688C105.48 118.459 105.25 118.116 105.021 118.002C104.677 117.773 104.333 117.544 103.989 117.429C103.645 117.2 103.187 117.086 102.613 116.971C102.155 116.857 101.696 116.743 101.123 116.628C99.747 116.399 98.6004 115.941 97.5686 115.484C96.5367 115.026 95.7341 114.453 95.0462 113.881C94.3583 113.194 93.8997 112.508 93.5557 111.707C93.2118 110.905 93.0971 109.875 93.0971 108.845C93.0971 107.357 93.5557 105.984 94.3583 104.954C95.1609 103.924 96.3074 102.894 97.7979 102.321C99.2884 101.749 100.779 101.406 102.384 101.406C104.792 101.406 106.741 101.749 108.231 102.55C109.722 103.351 110.868 104.382 111.786 105.641L108.002 109.303C107.314 108.387 106.397 107.701 105.48 107.243C104.562 106.785 103.531 106.556 102.613 106.556C101.925 106.556 101.352 106.671 100.779 106.785C100.206 106.9 99.8616 107.243 99.6323 107.472C99.403 107.815 99.1737 108.159 99.1737 108.616C99.1737 108.96 99.2884 109.303 99.5177 109.646C99.747 109.99 100.091 110.219 100.435 110.448C100.779 110.676 101.237 110.791 101.811 111.02C102.384 111.134 102.843 111.249 103.416 111.363C104.677 111.592 105.824 111.935 106.97 112.393C108.117 112.851 108.919 113.309 109.607 113.996C110.41 114.568 110.983 115.369 111.327 116.17C111.786 116.971 111.9 118.002 111.9 119.032C111.9 120.748 111.442 122.122 110.639 123.381C109.836 124.525 108.69 125.441 107.199 126.128C105.938 126.357 104.218 126.7 102.384 126.7Z" fill="#231F20"/>
<path d="M48.1523 155.657V131.049H53.541L62.4839 145.585H58.7004L67.758 131.164H72.9173V155.657H67.07V148.217C67.07 146.043 67.07 144.097 67.1847 142.38C67.2993 140.663 67.414 138.947 67.758 137.344L68.4459 139.176L61.6814 149.705H59.2737L52.6238 139.29L53.3117 137.344C53.541 138.947 53.7703 140.549 53.885 142.266C53.9996 143.983 53.9996 145.928 53.9996 148.332V155.771H48.1523V155.657Z" fill="#231F20"/>
<path d="M79.1094 155.657V131.049H96.3073V136.2H84.9567V150.506H96.6512V155.657H79.1094ZM81.861 145.585V140.663H94.5875V145.585H81.861Z" fill="#231F20"/>
<path d="M101.809 155.657V131.049H112.93C114.535 131.049 115.911 131.393 117.172 132.079C118.433 132.766 119.465 133.682 120.153 134.826C120.841 135.971 121.3 137.344 121.3 138.832C121.3 140.434 120.956 141.808 120.153 142.952C119.465 144.211 118.433 145.127 117.172 145.814C115.911 146.501 114.42 146.844 112.93 146.844H107.541V155.428H101.809V155.657ZM107.541 142.38H112.357C112.93 142.38 113.503 142.266 113.962 141.922C114.42 141.693 114.764 141.236 114.994 140.778C115.223 140.32 115.338 139.748 115.338 139.176C115.338 138.489 115.223 138.031 114.879 137.573C114.535 137.115 114.191 136.772 113.618 136.429C113.045 136.2 112.471 135.971 111.783 135.971H107.427V142.38H107.541ZM115.452 155.657L109.146 144.555L115.338 143.639L122.331 155.657H115.452Z" fill="#231F20"/>
<path d="M137.351 156C135.517 156 133.797 155.657 132.192 155.085C130.587 154.512 129.326 153.597 128.179 152.452C127.033 151.308 126.115 149.934 125.542 148.446C124.969 146.844 124.625 145.242 124.625 143.296C124.625 141.465 124.969 139.748 125.542 138.26C126.23 136.658 127.147 135.399 128.294 134.254C129.44 133.11 130.816 132.194 132.421 131.622C134.027 130.935 135.746 130.706 137.581 130.706C138.727 130.706 139.874 130.821 141.02 131.164C142.167 131.507 143.199 131.965 144.116 132.537C145.033 133.11 145.95 133.911 146.638 134.712L142.969 138.947C142.282 138.146 141.479 137.573 140.562 137.115C139.645 136.658 138.613 136.429 137.581 136.429C136.664 136.429 135.746 136.543 134.944 136.887C134.141 137.23 133.339 137.688 132.765 138.374C132.192 139.061 131.619 139.748 131.275 140.664C130.931 141.579 130.702 142.495 130.702 143.639C130.702 144.669 130.816 145.699 131.16 146.615C131.504 147.531 131.963 148.217 132.651 148.904C133.339 149.476 134.027 150.049 134.944 150.278C135.861 150.621 136.893 150.735 137.925 150.735C138.613 150.735 139.301 150.621 139.988 150.392C140.676 150.163 141.25 149.934 141.823 149.476C142.396 149.133 142.969 148.675 143.313 148.217L146.18 152.91C145.606 153.597 144.804 154.169 143.887 154.627C142.969 155.085 141.823 155.542 140.676 155.886C139.759 155.886 138.613 156 137.351 156Z" fill="#231F20"/>
<path d="M150.539 155.657V131.049H167.737V136.2H156.386V150.506H168.081V155.657H150.539ZM153.405 145.585V140.663H166.246V145.585H153.405Z" fill="#231F20"/>
<path d="M173.238 155.657V131.049H183.672C185.506 131.049 187.111 131.393 188.602 131.965C190.092 132.537 191.353 133.453 192.5 134.483C193.532 135.627 194.449 136.886 195.022 138.374C195.596 139.862 195.94 141.579 195.94 143.296C195.94 145.127 195.596 146.729 195.022 148.332C194.449 149.82 193.646 151.079 192.5 152.223C191.468 153.368 190.092 154.169 188.602 154.741C187.111 155.313 185.506 155.657 183.672 155.657H173.238ZM179.315 151.536L178.512 150.392H183.442C184.36 150.392 185.277 150.277 186.079 149.934C186.882 149.591 187.57 149.133 188.028 148.561C188.602 147.988 188.946 147.187 189.29 146.386C189.634 145.585 189.748 144.555 189.748 143.525C189.748 142.495 189.634 141.465 189.29 140.663C188.946 139.862 188.602 139.061 188.028 138.489C187.455 137.917 186.767 137.344 186.079 137.115C185.277 136.772 184.474 136.658 183.442 136.658H178.398L179.315 135.513V151.536Z" fill="#231F20"/>
<path d="M200.41 155.657V131.049H217.608V136.2H206.372V150.506H218.067V155.657H200.41ZM203.276 145.585V140.663H216.003V145.585H203.276Z" fill="#231F20"/>
<path d="M231.368 156C228.961 156 226.897 155.542 225.177 154.741C223.457 153.94 222.081 152.681 220.82 151.079L224.489 146.958C225.636 148.561 226.782 149.591 227.929 150.163C229.075 150.735 230.336 150.964 231.598 150.964C232.286 150.964 232.744 150.85 233.317 150.735C233.776 150.621 234.235 150.278 234.464 150.049C234.693 149.82 234.923 149.362 234.923 148.904C234.923 148.561 234.808 148.217 234.693 147.989C234.464 147.76 234.235 147.416 234.005 147.302C233.661 147.073 233.317 146.844 232.973 146.73C232.63 146.501 232.171 146.386 231.598 146.272C231.139 146.157 230.68 146.043 230.107 145.928C228.731 145.699 227.585 145.242 226.553 144.784C225.521 144.326 224.718 143.754 224.031 143.181C223.343 142.495 222.884 141.808 222.54 141.007C222.196 140.206 222.081 139.176 222.081 138.146C222.081 136.658 222.54 135.284 223.343 134.254C224.145 133.224 225.292 132.194 226.782 131.622C228.273 131.049 229.763 130.706 231.368 130.706C233.776 130.706 235.725 131.049 237.216 131.851C238.706 132.652 239.853 133.682 240.77 134.941L236.986 138.603C236.298 137.688 235.381 137.001 234.464 136.543C233.547 136.085 232.515 135.856 231.598 135.856C230.91 135.856 230.336 135.971 229.763 136.085C229.19 136.2 228.846 136.543 228.617 136.772C228.387 137.115 228.158 137.459 228.158 137.917C228.158 138.26 228.273 138.603 228.502 138.947C228.731 139.29 229.075 139.519 229.419 139.748C229.763 139.977 230.222 140.091 230.795 140.32C231.368 140.435 231.827 140.549 232.4 140.664C233.661 140.892 234.808 141.236 235.954 141.694C237.101 142.151 237.904 142.609 238.591 143.296C239.394 143.868 239.967 144.669 240.311 145.471C240.77 146.272 240.885 147.302 240.885 148.332C240.885 150.049 240.426 151.422 239.623 152.681C238.821 153.826 237.674 154.741 236.184 155.428C234.923 155.771 233.203 156 231.368 156Z" fill="#231F20"/>
<path d="M142.171 3.20459H117.406V24.6074H138.044V92.2493H159.254V3.20459H142.171Z" fill="#231F20"/>
<path d="M71.5418 0.915527C66.1531 0.915527 60.9937 1.83115 56.0636 3.54796L62.5989 24.6074C65.3505 23.4629 68.3315 22.8906 71.4271 22.8906C84.6122 22.8906 95.2749 33.5347 95.2749 46.6969C95.2749 59.859 84.6122 70.5032 71.4271 70.5032C58.3567 70.5032 47.8087 60.0879 47.5793 47.0403L47.1207 47.727L38.4071 57.7989L30.4961 67.2985C38.0632 82.2919 53.5413 92.4783 71.4271 92.4783C96.7654 92.4783 117.288 71.9911 117.288 46.6969C117.403 21.4027 96.88 0.915527 71.5418 0.915527Z" fill="#231F20"/>
<path d="M71.5431 70.5031C84.7281 70.5031 95.3908 59.8589 95.3908 46.6968H47.6953C47.6953 59.8589 58.358 70.5031 71.5431 70.5031Z" fill="#7AA792"/>
<path d="M23.8478 22.8906C10.6627 22.8906 0 33.5348 0 46.6969H47.6955C47.6955 33.5348 37.0328 22.8906 23.8478 22.8906Z" fill="#A4BD9D"/>
<path d="M23.8477 70.5031C23.8477 83.6652 34.5104 94.3094 47.6954 94.3094V46.6968C34.5104 46.6968 23.8477 57.3409 23.8477 70.5031Z" fill="#B8D66C"/>
<path d="M71.0845 23.3485C71.0845 10.4153 60.6511 0 47.6953 0V46.697C60.6511 46.697 71.0845 36.2817 71.0845 23.3485Z" fill="#BAE1CE"/>
</g>
<defs>
<clipPath id="clip0_1163_844">
<rect width="241" height="156" fill="white"/>
</clipPath>
</defs>
</svg>
