<svg width="209" height="135" viewBox="0 0 209 135" fill="none" xmlns="http://www.w3.org/2000/svg">
<g clip-path="url(#clip0_1163_703)">
<path d="M41.668 109.347V88.0518H46.8273V104.791H56.3523V109.347H41.668Z" fill="white"/>
<path d="M57.6445 109.347L66.0781 88.0518H70.4437L78.7781 109.347H73.5195L69.4516 98.5507C69.3523 98.1545 69.1539 97.6592 68.9555 97.164C68.757 96.6688 68.6578 96.1735 68.4594 95.6783C68.2609 95.1831 68.1617 94.6879 67.9633 94.1926C67.8641 93.6974 67.6656 93.2022 67.5664 92.806H68.4594C68.3602 93.3012 68.1617 93.7964 68.0625 94.2917C67.9633 94.7869 67.7648 95.2821 67.5664 95.7774C67.368 96.2726 67.2687 96.7678 67.0703 97.2631C66.8719 97.7583 66.6734 98.2535 66.5742 98.7487L62.5062 109.446H57.6445V109.347ZM61.6133 105.187L63.3 101.225H73.0234L74.7102 105.187H61.6133Z" fill="white"/>
<path d="M88.6008 109.644C86.5172 109.644 84.7313 109.248 83.243 108.555C81.7547 107.861 80.5641 106.772 79.4727 105.385L82.6477 101.819C83.6398 103.206 84.632 104.098 85.6242 104.593C86.6164 105.088 87.7078 105.286 88.7992 105.286C89.3945 105.286 89.7914 105.187 90.2875 105.088C90.6844 104.989 91.0812 104.692 91.2797 104.494C91.4781 104.296 91.6766 103.899 91.6766 103.503C91.6766 103.206 91.5773 102.909 91.4781 102.711C91.2797 102.513 91.0812 102.216 90.8828 102.117C90.5851 101.918 90.2875 101.72 89.9898 101.621C89.6922 101.423 89.2953 101.324 88.7992 101.225C88.4023 101.126 88.0055 101.027 87.5094 100.928C86.3187 100.73 85.3266 100.334 84.4336 99.9376C83.5406 99.5414 82.8461 99.0462 82.2508 98.5509C81.6555 97.9566 81.2586 97.3624 80.9609 96.669C80.6633 95.9757 80.5641 95.0843 80.5641 94.1929C80.5641 92.9053 80.9609 91.7167 81.6555 90.8253C82.35 89.9339 83.3422 89.0425 84.632 88.5473C85.9219 88.052 87.2117 87.7549 88.6008 87.7549C90.6844 87.7549 92.3711 88.052 93.6609 88.7453C94.9508 89.4387 95.943 90.3301 96.7367 91.4196L93.4625 94.5891C92.8672 93.7967 92.0734 93.2024 91.2797 92.8062C90.4859 92.4101 89.593 92.212 88.7992 92.212C88.2039 92.212 87.7078 92.311 87.2117 92.4101C86.7156 92.5091 86.418 92.8062 86.2195 93.0043C86.0211 93.3015 85.8227 93.5986 85.8227 93.9948C85.8227 94.2919 85.9219 94.5891 86.1203 94.8862C86.3188 95.1834 86.6164 95.3814 86.9141 95.5795C87.2117 95.7776 87.6086 95.8767 88.1047 96.0748C88.6008 96.1738 88.9976 96.2729 89.4937 96.3719C90.5851 96.57 91.5773 96.8671 92.5695 97.2633C93.5617 97.6595 94.2562 98.0557 94.8516 98.65C95.5461 99.1452 96.0422 99.8385 96.3398 100.532C96.7367 101.225 96.8359 102.117 96.8359 103.008C96.8359 104.494 96.4391 105.682 95.7445 106.772C95.05 107.762 94.0578 108.555 92.768 109.149C91.6766 109.347 90.1883 109.644 88.6008 109.644Z" fill="white"/>
<path d="M41.668 134.703V113.408H46.3312L54.0703 125.987H50.7961L58.6344 113.507H63.0992V134.703H58.0391V128.265C58.0391 126.383 58.0391 124.699 58.1383 123.214C58.2375 121.728 58.3367 120.242 58.6344 118.856L59.2297 120.44L53.3758 129.553H51.2922L45.5375 120.54L46.1328 118.856C46.3312 120.242 46.5297 121.629 46.6289 123.115C46.7281 124.6 46.7281 126.284 46.7281 128.364V134.802H41.668V134.703Z" fill="white"/>
<path d="M68.457 134.703V113.408H83.3398V117.865H73.5172V130.246H83.6375V134.703H68.457ZM70.8383 125.987V121.728H81.8516V125.987H70.8383Z" fill="white"/>
<path d="M88.1016 134.703V113.408H97.7258C99.1148 113.408 100.305 113.705 101.397 114.3C102.488 114.894 103.381 115.686 103.977 116.677C104.572 117.667 104.969 118.856 104.969 120.143C104.969 121.53 104.671 122.719 103.977 123.709C103.381 124.799 102.488 125.591 101.397 126.185C100.305 126.779 99.0156 127.077 97.7258 127.077H93.0625V134.505H88.1016V134.703ZM93.0625 123.214H97.2297C97.7258 123.214 98.2219 123.115 98.6187 122.818C99.0156 122.62 99.3133 122.223 99.5117 121.827C99.7102 121.431 99.8094 120.936 99.8094 120.44C99.8094 119.846 99.7101 119.45 99.4125 119.054C99.1148 118.658 98.8172 118.361 98.3211 118.063C97.825 117.865 97.3289 117.667 96.7336 117.667H92.9633V123.214H93.0625ZM99.9086 134.703L94.4516 125.096L99.8094 124.303L105.862 134.703H99.9086Z" fill="white"/>
<path d="M118.861 135C117.273 135 115.785 134.703 114.396 134.208C113.007 133.712 111.916 132.92 110.923 131.93C109.931 130.939 109.138 129.751 108.641 128.463C108.145 127.076 107.848 125.69 107.848 124.006C107.848 122.421 108.145 120.935 108.641 119.648C109.237 118.261 110.03 117.172 111.023 116.181C112.015 115.191 113.205 114.398 114.595 113.903C115.984 113.309 117.472 113.111 119.059 113.111C120.052 113.111 121.044 113.21 122.036 113.507C123.028 113.804 123.921 114.2 124.715 114.696C125.509 115.191 126.302 115.884 126.898 116.577L123.723 120.242C123.127 119.549 122.433 119.054 121.639 118.657C120.845 118.261 119.952 118.063 119.059 118.063C118.266 118.063 117.472 118.162 116.777 118.459C116.083 118.756 115.388 119.153 114.892 119.747C114.396 120.341 113.9 120.935 113.602 121.728C113.305 122.52 113.106 123.313 113.106 124.303C113.106 125.194 113.205 126.086 113.503 126.878C113.801 127.671 114.198 128.265 114.793 128.859C115.388 129.354 115.984 129.85 116.777 130.048C117.571 130.345 118.464 130.444 119.357 130.444C119.952 130.444 120.548 130.345 121.143 130.147C121.738 129.949 122.234 129.751 122.73 129.354C123.227 129.057 123.723 128.661 124.02 128.265L126.501 132.326C126.005 132.92 125.31 133.415 124.516 133.812C123.723 134.208 122.73 134.604 121.738 134.901C120.945 134.901 119.952 135 118.861 135Z" fill="white"/>
<path d="M130.273 134.703V113.408H145.156V117.865H135.334V130.246H145.454V134.703H130.273ZM132.754 125.987V121.728H143.866V125.987H132.754Z" fill="white"/>
<path d="M149.914 134.703V113.408H158.943C160.53 113.408 161.92 113.705 163.209 114.201C164.499 114.696 165.591 115.488 166.583 116.38C167.476 117.37 168.27 118.46 168.766 119.747C169.262 121.035 169.559 122.52 169.559 124.006C169.559 125.591 169.262 126.978 168.766 128.364C168.27 129.652 167.575 130.741 166.583 131.732C165.69 132.722 164.499 133.416 163.209 133.911C161.92 134.406 160.53 134.703 158.943 134.703H149.914ZM155.173 131.137L154.478 130.147H158.745C159.538 130.147 160.332 130.048 161.027 129.751C161.721 129.454 162.316 129.058 162.713 128.562C163.209 128.067 163.507 127.374 163.805 126.68C164.102 125.987 164.202 125.096 164.202 124.204C164.202 123.313 164.102 122.421 163.805 121.728C163.507 121.035 163.209 120.341 162.713 119.846C162.217 119.351 161.622 118.856 161.027 118.658C160.332 118.361 159.637 118.261 158.745 118.261H154.379L155.173 117.271V131.137Z" fill="white"/>
<path d="M173.43 134.703V113.408H188.312V117.865H178.589V130.246H188.709V134.703H173.43ZM175.91 125.987V121.728H186.923V125.987H175.91Z" fill="white"/>
<path d="M200.222 135C198.138 135 196.352 134.604 194.864 133.911C193.376 133.217 192.185 132.128 191.094 130.741L194.269 127.175C195.261 128.562 196.253 129.453 197.245 129.949C198.237 130.444 199.329 130.642 200.42 130.642C201.016 130.642 201.412 130.543 201.909 130.444C202.305 130.345 202.702 130.048 202.901 129.85C203.099 129.652 203.298 129.255 203.298 128.859C203.298 128.562 203.198 128.265 203.099 128.067C202.901 127.869 202.702 127.572 202.504 127.473C202.206 127.274 201.909 127.076 201.611 126.977C201.313 126.779 200.916 126.68 200.42 126.581C200.023 126.482 199.627 126.383 199.13 126.284C197.94 126.086 196.948 125.69 196.055 125.294C195.162 124.897 194.467 124.402 193.872 123.907C193.277 123.313 192.88 122.718 192.582 122.025C192.284 121.332 192.185 120.44 192.185 119.549C192.185 118.261 192.582 117.073 193.277 116.181C193.971 115.29 194.963 114.398 196.253 113.903C197.543 113.408 198.833 113.111 200.222 113.111C202.305 113.111 203.992 113.408 205.282 114.101C206.572 114.795 207.564 115.686 208.358 116.776L205.084 119.945C204.488 119.153 203.695 118.558 202.901 118.162C202.107 117.766 201.214 117.568 200.42 117.568C199.825 117.568 199.329 117.667 198.833 117.766C198.337 117.865 198.039 118.162 197.841 118.36C197.642 118.657 197.444 118.955 197.444 119.351C197.444 119.648 197.543 119.945 197.741 120.242C197.94 120.539 198.237 120.737 198.535 120.935C198.833 121.134 199.23 121.233 199.726 121.431C200.222 121.53 200.619 121.629 201.115 121.728C202.206 121.926 203.198 122.223 204.191 122.619C205.183 123.015 205.877 123.412 206.473 124.006C207.167 124.501 207.663 125.194 207.961 125.888C208.358 126.581 208.457 127.473 208.457 128.364C208.457 129.85 208.06 131.038 207.366 132.128C206.671 133.118 205.679 133.911 204.389 134.505C203.298 134.802 201.809 135 200.222 135Z" fill="white"/>
<path d="M123.033 2.77344H101.602V21.2951H119.461V79.8314H137.816V2.77344H123.033Z" fill="white"/>
<path d="M61.9109 0.79248C57.2476 0.79248 52.7828 1.58485 48.5164 3.07054L54.1719 21.295C56.5531 20.3046 59.1328 19.8094 61.8117 19.8094C73.2218 19.8094 82.4492 29.0207 82.4492 40.411C82.4492 51.8013 73.2218 61.0126 61.8117 61.0126C50.5008 61.0126 41.3726 51.9994 41.1742 40.7081L40.7773 41.3024L33.2367 50.0185L26.3906 58.2393C32.9391 71.2143 46.3336 80.0295 61.8117 80.0295C83.739 80.0295 101.499 62.3002 101.499 40.411C101.598 18.5218 83.8382 0.79248 61.9109 0.79248Z" fill="white"/>
<path d="M61.9109 61.0123C73.3211 61.0123 82.5484 51.801 82.5484 40.4106H41.2734C41.2734 51.801 50.5008 61.0123 61.9109 61.0123Z" fill="#7AA792"/>
<path d="M20.6375 19.8091C9.22734 19.8091 0 29.0204 0 40.4107H41.275C41.275 29.0204 32.0476 19.8091 20.6375 19.8091Z" fill="#A4BD9D"/>
<path d="M20.6367 61.0123C20.6367 72.4026 29.8641 81.6139 41.2742 81.6139V40.4106C29.8641 40.4106 20.6367 49.6219 20.6367 61.0123Z" fill="#B8D66C"/>
<path d="M61.5141 20.2054C61.5141 9.01321 52.4851 0 41.2734 0V40.4109C52.4851 40.4109 61.5141 31.3977 61.5141 20.2054Z" fill="#BAE1CE"/>
</g>
<defs>
<clipPath id="clip0_1163_703">
<rect width="208.558" height="135" fill="white"/>
</clipPath>
</defs>
</svg>
