<?xml version="1.0" encoding="utf-8"?>
<!-- Generator: Adobe Illustrator 24.2.1, SVG Export Plug-In . SVG Version: 6.00 Build 0)  -->
<svg version="1.1" id="Layer_1" xmlns="http://www.w3.org/2000/svg" xmlns:xlink="http://www.w3.org/1999/xlink" x="0px" y="0px"
	 viewBox="0 0 191 80" style="enable-background:new 0 0 191 80;" xml:space="preserve">
<style type="text/css">
	.st0{fill:#6F846D;}
</style>
<path class="st0" d="M12,40.3h7.7L31.8,9.9h-9.1L15.9,29L9.2,9.8H0L12,40.3z"/>
<path class="st0" d="M35,9.9h8.3v30.4H35V9.9z"/>
<path class="st0" d="M55.4,17.3h-8.9V9.9h26.1v7.4h-8.9v23.1h-8.2L55.4,17.3z"/>
<path class="st0" d="M75.8,9.9h14.1c4.5,0.1,7.7,1.3,9.7,3.4c1.7,1.7,2.6,4.1,2.6,7v0.1c0,4.6-2.4,7.7-6.1,9.3l7.1,10.6h-9.5l-6-9.2
	h-0.1h-3.5v9.2h-8.2L75.8,9.9z M89.4,24.5c2.8,0,4.4-1.4,4.4-3.6v-0.1c0-2.4-1.7-3.6-4.5-3.6h-5.4v7.3H89.4z"/>
<path class="st0" d="M106.4,9.9v30.4h8.3V9.9H106.4z"/>
<path class="st0" d="M117.8,27V9.9h8.4v17c0,4.4,2.2,6.4,5.5,6.4s5.5-2,5.5-6.2V9.9h8.4v16.9c0,9.8-5.5,14-14,14
	C123.1,40.8,117.8,36.5,117.8,27z"/>
<path class="st0" d="M148.8,9.9h8.7l7.1,11.7l7.1-11.7h8.7v30.4h-8.2V22.8l-7.6,11.8h-0.2l-7.5-11.8v17.5h-8.1V9.9z"/>
<path class="st0" d="M0.4,65L0.4,65c0-8.5,6.4-15.1,15-15.1c5.8,0,9.5,2.5,12,6l-5.9,4.7c-1.6-2.1-3.5-3.4-6.2-3.4
	c-4,0-6.8,3.4-6.8,7.6V65c0,4.3,2.8,7.7,6.8,7.7c3,0,4.7-1.4,6.4-3.5l5.9,4.3C24.9,77.2,21.3,80,15,80C6.9,80,0.3,73.7,0.4,65z"/>
<path class="st0" d="M40.5,50.4h7.6l12.1,29.1h-8.4l-2.1-5.2h-11l-2,5.2h-8.3L40.5,50.4z M47.4,68.1l-3.2-8.2L41,68.1H47.4z"/>
<path class="st0" d="M63.4,50.6h12.2c7.2,0,11.8,3.8,11.8,10.2v0.1c0,6.8-5.2,10.4-12.2,10.4h-3.9v8.3h-7.9V50.6z M75,65
	c2.8,0,4.5-1.5,4.5-3.7v-0.1c0-2.5-1.7-3.8-4.5-3.8h-3.7V65H75z"/>
<path class="st0" d="M90.6,50.6v28.9h7.9V50.6H90.6z"/>
<path class="st0" d="M110.2,57.7h-8.5v-7h24.9v7h-8.5v21.9h-7.9V57.7z"/>
<path class="st0" d="M136,50.5h7.6l12.1,29.1h-8.4l-2.1-5.2h-11l-2,5.2h-8.3L136,50.5z M142.9,68.2l-3.2-8.2l-3.2,8.2H142.9z"/>
<path class="st0" d="M158.9,50.8h7.9v21.9h13.8v7H159L158.9,50.8z"/>
<path class="st0" d="M176.5,6.9h7.2v7.3l6.7,6.9V0h-20.7L176.5,6.9z"/>
</svg>
